<svg xmlns="http://www.w3.org/2000/svg" direction="ltr" width="2048" height="2048" viewBox="36422.20069286703 26340.31817690624 2048 2048" stroke-linecap="round" stroke-linejoin="round" data-color-mode="light" class="tl-container tl-theme__force-sRGB tl-theme__light" style="background-color: transparent;"><defs/><g transform="matrix(1, 0, 0, 1, 36422.2007, 26340.3182)" opacity="1"><g data-lovart-layer-name="SVG 17"><g transform="scale(1.4143646408839778, 1.4143646408839778)"><g>
<g xmlns="http://www.w3.org/2000/svg" stroke-width="2.00" fill="none" stroke-linecap="butt">
<path stroke="#9999c1" d="M 163.42 862.00   Q 163.27 862.01 156.78 862.35   C 141.02 863.16 123.60 870.35 114.76 883.74   C 108.43 893.33 106.79 906.00 110.60 916.86   C 115.48 930.79 126.67 942.34 138.41 951.11   Q 157.56 965.42 177.86 973.25   C 197.84 980.96 221.81 987.27 245.30 990.75   Q 286.37 996.82 325.81 996.20   A 7.30 7.28 -29.8 0 1 329.67 997.24   C 338.77 1002.74 348.39 1005.23 359.82 1007.51   Q 385.70 1012.67 411.35 1011.09   A 3.95 3.94 -33.6 0 1 413.36 1011.49   C 422.10 1015.87 430.48 1020.72 439.40 1024.58   Q 450.31 1029.30 468.89 1036.83   Q 477.50 1040.31 485.06 1042.68   Q 503.18 1048.35 520.68 1053.08   Q 534.40 1056.80 560.74 1060.93   A 0.51 0.50 -81.6 0 1 561.15 1061.49   Q 559.36 1076.24 556.50 1087.98   Q 555.76 1090.99 554.63 1091.64   Q 547.16 1095.95 542.41 1099.11   C 529.45 1107.73 521.10 1124.81 528.61 1139.36   C 535.46 1152.62 551.43 1155.68 564.86 1155.29   C 579.67 1154.86 593.90 1156.28 607.58 1162.45   C 624.06 1169.88 645.63 1182.71 663.07 1171.33   Q 677.70 1161.79 677.69 1143.73   C 677.67 1116.89 650.01 1100.64 627.47 1093.98   A 1.24 1.23 -83.1 0 1 626.59 1092.85   L 625.48 1068.08   A 0.71 0.71 0.0 0 1 626.22 1067.34   Q 654.80 1068.37 683.23 1065.30   C 695.62 1063.97 710.60 1061.28 721.07 1059.64   A 0.35 0.34 -2.7 0 1 721.47 1060.00   C 721.22 1063.70 720.29 1074.71 716.51 1076.53   Q 705.75 1081.70 697.73 1090.79   Q 687.98 1101.83 690.25 1116.56   C 692.71 1132.57 708.67 1138.95 723.03 1139.01   C 730.93 1139.04 738.97 1137.97 746.02 1138.92   Q 763.46 1141.29 774.64 1146.38   Q 786.88 1151.96 792.77 1154.24   Q 804.68 1158.86 811.93 1158.61   C 832.65 1157.93 846.59 1138.83 842.32 1118.88   C 837.98 1098.58 817.66 1085.34 799.11 1079.13   Q 794.48 1077.58 790.55 1076.34   A 0.65 0.65 0.0 0 1 790.10 1075.78   L 786.72 1041.53   A 0.64 0.62 -14.1 0 1 787.12 1040.88   C 804.18 1033.97 817.61 1028.56 832.36 1020.10   Q 848.56 1010.80 860.04 1003.29   Q 878.73 991.08 896.98 974.95   Q 938.92 937.88 966.33 891.35   Q 969.23 886.42 974.21 876.74   A 0.87 0.86 14.6 0 1 975.01 876.28   Q 977.05 876.35 982.32 876.84   Q 1024.72 880.76 1065.98 871.92   Q 1084.08 868.04 1093.39 865.12   C 1119.34 856.98 1144.28 846.69 1167.64 833.36   A 8.84 8.53 21.4 0 1 1169.61 832.54   C 1184.03 828.46 1196.21 822.79 1206.32 811.38   Q 1224.30 791.08 1227.55 764.34   A 4.58 4.56 68.7 0 1 1228.57 762.00   C 1243.88 743.75 1247.65 718.78 1240.51 696.28   A 0.49 0.49 0.0 0 1 1240.86 695.66   Q 1278.56 686.44 1310.42 663.56   C 1324.80 653.23 1340.34 637.85 1339.37 618.77   C 1338.69 605.45 1329.21 595.79 1316.45 592.51   C 1297.90 587.74 1279.83 589.00 1261.07 591.60   Q 1230.70 595.80 1194.89 602.44   Q 1111.66 617.88 1026.68 627.98   A 0.69 0.69 0.0 0 1 1025.91 627.32   Q 1024.70 598.66 1019.82 571.59   C 1015.92 549.94 1012.78 533.38 1007.40 515.82   C 1003.03 501.55 997.24 482.07 989.71 465.80   Q 983.27 451.88 977.14 439.85   Q 961.52 409.25 940.28 383.99   C 931.99 374.13 928.96 369.99 920.64 361.99   Q 908.49 350.31 896.15 340.02   C 857.25 307.58 809.37 286.42 759.73 277.32   Q 702.40 266.80 642.61 277.83   Q 610.15 283.82 584.20 295.16   C 578.09 297.83 567.00 302.43 558.55 307.06   C 536.85 318.93 516.98 332.18 498.29 348.60   Q 453.99 387.52 426.22 440.19   C 415.62 460.27 406.72 481.19 400.30 503.20   Q 395.32 520.28 393.91 526.19   Q 376.32 600.29 379.88 675.02   Q 380.40 685.93 382.73 741.00   C 383.64 762.42 383.21 784.98 378.74 806.03   Q 375.36 821.99 371.12 835.08   A 0.46 0.46 0.0 0 1 370.27 835.13   C 363.24 820.11 353.88 805.17 345.21 791.54   C 332.69 771.88 316.06 754.46 295.27 743.77   C 283.69 737.82 267.94 735.43 255.90 741.60   Q 236.66 751.47 235.25 773.06   A 0.60 0.60 0.0 0 1 234.36 773.54   C 216.63 763.43 198.19 754.15 177.64 751.40   C 158.46 748.84 136.94 756.32 128.17 774.07   Q 122.00 786.56 123.82 799.49   C 126.10 815.76 134.38 828.17 145.32 841.85   Q 153.93 852.63 163.61 861.46   A 0.31 0.31 0.0 0 1 163.42 862.00"/>
<path stroke="#4a49ab" d="M 406.69 760.17   Q 406.18 781.13 404.59 794.27   Q 402.98 807.57 400.29 818.56   C 395.60 837.78 388.97 857.40 380.53 876.94   Q 364.96 912.94 344.59 946.57   C 343.32 948.67 342.32 950.93 341.36 953.20   C 337.53 962.32 329.51 971.61 342.70 977.58   C 351.34 981.48 358.93 982.96 369.55 985.23   Q 375.43 986.48 382.26 986.91   Q 437.36 990.39 488.12 970.53   Q 501.48 965.31 511.45 959.54   Q 523.90 952.32 533.37 945.86   C 548.27 935.70 561.67 922.07 573.25 908.32   C 584.54 894.91 593.03 878.46 601.00 861.29   Q 603.87 855.10 606.54 846.59   Q 610.18 834.99 611.01 831.52   C 616.32 809.37 618.13 788.28 616.27 766.09   Q 615.14 752.69 614.16 746.29   Q 612.25 733.76 608.07 722.47   Q 606.53 718.34 605.88 712.88   Q 605.24 707.60 609.28 704.07"/>
<path stroke="#5053b7" d="M 609.28 704.07   C 615.99 701.14 620.65 706.73 623.24 712.04   C 628.77 723.41 634.71 736.68 636.76 749.25   C 645.22 801.03 634.60 854.35 607.76 899.26   Q 603.77 905.93 597.80 913.95   C 588.65 926.25 580.99 936.39 571.07 945.06   Q 559.40 955.26 548.64 963.36   C 535.91 972.94 523.25 979.69 510.32 986.31   C 498.33 992.45 486.10 996.60 471.80 1001.02   Q 464.09 1003.40 455.32 1004.61   A 0.44 0.44 0.0 0 0 455.20 1005.45   Q 465.78 1010.16 469.55 1011.89   Q 476.09 1014.90 484.25 1017.43   Q 499.20 1022.07 509.38 1025.62   C 513.60 1027.10 518.89 1028.22 522.35 1029.36   Q 524.39 1030.03 532.10 1031.46   Q 533.65 1031.75 541.87 1033.61   Q 568.61 1039.67 598.57 1042.33"/>
<path stroke="#987f97" d="M 598.57 1042.33   Q 620.56 1044.10 637.00 1044.05   Q 678.68 1043.90 722.77 1035.25   Q 745.43 1030.80 770.36 1022.11   Q 781.81 1018.12 796.24 1011.54   Q 810.75 1004.93 821.40 999.36   C 836.75 991.34 848.01 983.20 864.18 971.36   Q 886.98 954.67 906.24 933.23   Q 912.17 926.62 922.94 913.43   Q 933.23 900.83 940.60 888.33   Q 946.69 878.03 952.90 867.81"/>
<path stroke="#9785a0" d="M 952.90 867.81   L 963.05 847.73"/>
<path stroke="#987f97" d="M 963.05 847.73   Q 972.98 824.79 976.22 816.19   Q 983.21 797.69 989.41 772.45"/>
<path stroke="#5053b7" d="M 989.41 772.45   Q 996.57 744.30 999.77 715.51   Q 1004.83 670.08 1002.08 624.54   C 1001.32 612.00 998.89 597.72 998.34 585.51   C 998.12 580.66 997.08 577.72 996.60 572.42   Q 996.30 569.12 995.00 565.74   Q 994.98 565.67 994.96 565.60   L 993.42 557.69"/>
<path stroke="#95738d" d="M 993.42 557.69   Q 987.03 529.19 982.79 515.23   Q 976.61 494.89 963.38 465.39   Q 961.43 461.05 958.71 455.96   Q 957.62 453.95 953.79 446.64   Q 941.38 423.00 924.95 402.68"/>
<path stroke="#5053b7" d="M 924.95 402.68   Q 920.31 395.03 914.21 389.03   Q 907.74 382.66 907.66 382.58   Q 901.54 376.17 894.87 369.61   Q 887.76 362.62 881.12 357.60   Q 867.65 347.39 851.21 336.55   Q 840.45 329.46 828.28 323.98   C 814.33 317.70 799.80 311.52 785.93 307.50   Q 715.82 287.19 645.14 301.39   Q 629.18 304.60 608.07 311.18   Q 596.39 314.82 585.95 319.97   Q 574.24 325.74 560.01 333.23   C 557.21 334.70 554.48 335.38 551.84 336.94   Q 547.03 339.80 543.23 343.05   C 534.93 350.12 523.56 358.52 518.06 362.61   Q 510.94 367.89 505.97 373.03   C 493.18 386.25 482.08 397.65 471.83 411.84   C 462.71 424.45 454.38 436.50 447.95 449.58   Q 442.85 459.95 439.18 467.14   Q 434.77 475.76 431.37 485.08   Q 426.26 499.13 423.43 508.18   Q 415.07 534.88 409.93 565.01   Q 400.95 617.63 403.20 673.26   Q 404.41 703.24 405.99 731.96   C 406.46 740.63 406.34 750.56 406.69 760.17"/>
<path stroke="#b293c2" d="M 924.95 402.68   Q 912.77 396.49 900.90 401.13   Q 899.06 401.84 893.56 404.66   A 6.56 5.73 9.1 0 0 892.73 405.18   Q 890.92 406.50 886.71 410.20   Q 877.92 417.89 872.08 429.05   Q 866.52 439.66 864.16 447.39   Q 863.30 450.22 861.62 456.89   Q 859.97 463.46 859.39 466.49   Q 852.69 502.02 863.82 536.86"/>
<path stroke="#5053b7" d="M 863.82 536.86   C 856.91 536.81 852.14 537.24 846.34 540.12   Q 831.33 547.56 822.40 560.69"/>
<path stroke="#b293c2" d="M 822.40 560.69   Q 822.80 556.57 823.12 554.88   Q 825.93 539.84 824.68 524.97   Q 822.78 502.24 813.83 481.53   Q 812.53 478.53 812.12 477.79   C 810.40 474.70 809.34 471.73 807.58 468.49   Q 802.44 459.05 795.81 450.17   Q 793.29 446.79 793.28 446.78   C 787.25 441.23 781.63 434.88 775.47 430.16   Q 765.24 422.32 759.25 418.81   Q 747.53 411.96 733.45 407.56   Q 707.02 399.29 679.02 402.25   Q 669.17 403.29 660.20 405.92   Q 607.44 421.36 580.26 468.75   C 567.24 491.44 562.51 517.27 564.23 543.25   Q 565.65 564.58 573.40 583.12   Q 592.83 629.57 639.43 652.58   Q 645.57 655.61 651.68 657.63   Q 683.97 668.31 717.27 662.32   Q 723.74 661.15 724.52 660.95   Q 747.32 655.18 767.39 641.94   C 770.87 639.64 774.25 636.70 776.62 634.62   Q 779.37 632.20 789.80 622.57   Q 794.64 618.11 797.29 614.12   Q 800.80 608.81 803.66 603.73   Q 805.63 600.20 807.09 597.89   Q 808.83 595.12 810.64 592.13"/>
<path stroke="#5053b7" d="M 810.64 592.13   Q 808.82 597.26 808.13 602.06   A 6.99 6.86 58.5 0 1 807.89 603.10   Q 804.23 614.18 806.40 625.51   A 1.05 1.03 26.1 0 0 806.52 625.85   Q 807.40 627.44 807.57 629.70   A 2.19 2.17 27.0 0 0 807.90 630.70   Q 808.15 631.09 809.20 635.01   Q 812.07 645.71 818.29 655.99   Q 822.58 663.08 833.39 674.08   Q 840.05 680.85 850.47 685.50   Q 852.17 686.26 861.33 689.58   C 874.90 694.50 892.69 696.92 905.05 688.18   C 914.96 681.19 916.03 670.26 914.66 658.21   Q 912.96 643.24 908.46 629.59   A 0.62 0.62 0.0 0 1 908.94 628.79   Q 918.58 627.03 929.58 625.41   C 936.78 624.35 942.90 624.32 950.53 623.67   A 3.98 3.62 -54.1 0 0 951.34 623.50   Q 960.30 620.49 959.78 610.34"/>
<path stroke="#b293c2" d="M 959.78 610.34   Q 966.09 609.50 971.01 606.28   Q 971.35 606.05 975.51 602.92   Q 977.98 601.07 979.64 599.14   Q 983.31 594.89 984.08 593.83   Q 989.23 586.76 991.22 577.76   Q 992.90 570.19 993.41 564.96   Q 993.62 562.77 993.42 557.69"/>
<path stroke="#b59fcc" d="M 989.41 772.45   Q 989.90 771.43 988.37 770.63   Q 953.31 752.21 914.74 752.73   C 905.44 752.86 895.75 753.09 888.11 754.13   Q 861.44 757.78 838.95 765.50   Q 806.36 776.69 776.46 794.98   C 753.57 809.00 731.83 827.32 714.10 845.11   Q 674.38 884.95 641.48 940.72   Q 618.09 980.37 603.32 1025.78   Q 600.18 1035.44 598.57 1042.33"/>
<path stroke="#6769e0" d="M 609.28 704.07   Q 596.50 691.29 582.65 685.31   Q 558.64 674.95 529.09 677.96   C 507.00 680.22 486.50 687.85 467.13 698.54   Q 457.69 703.75 447.18 712.42   Q 439.32 718.90 435.38 722.88   Q 431.48 726.82 423.00 736.25   Q 415.33 744.77 406.69 760.17"/>
<path stroke="#fcd1b5" d="M 963.05 847.73   C 956.19 851.98 953.48 860.25 952.90 867.81"/>
<path stroke="#95738d" d="M 959.78 610.34   Q 957.12 600.36 951.75 592.25   Q 949.60 589.03 946.71 584.61"/>
<path stroke="#f9c5ab" d="M 946.71 584.61   Q 963.23 583.24 970.81 570.40   Q 975.38 562.67 976.58 554.92   Q 978.27 543.97 978.04 528.80   C 977.90 519.86 976.95 512.25 973.96 504.14   C 972.53 500.28 970.84 495.17 968.68 488.14   C 964.21 473.58 956.61 457.45 946.01 447.98   A 9.14 8.79 5.5 0 1 944.49 446.21   Q 936.18 433.43 920.98 430.74   C 906.42 428.16 894.77 435.22 886.99 447.49   Q 881.33 456.41 879.87 461.14   Q 876.50 472.11 875.16 482.21   Q 873.83 492.21 875.06 503.76   Q 877.03 522.19 883.75 540.49"/>
<path stroke="#95738d" d="M 883.75 540.49   Q 872.86 537.59 863.82 536.86"/>
<path stroke="#95738d" d="M 822.40 560.69   Q 816.07 574.40 813.88 581.62   Q 812.21 587.12 810.64 592.13"/>
<path stroke="#9785a0" d="M 946.71 584.61   Q 927.28 558.93 896.56 545.43   Q 891.48 543.20 883.75 540.49"/>
<path stroke="#4a49ab" d="M 1314.84 626.86   C 1316.95 624.92 1318.63 619.63 1315.69 617.56   Q 1313.58 616.06 1310.95 615.54"/>
<path stroke="#5053b7" d="M 1310.95 615.54   C 1296.67 611.81 1281.39 612.53 1266.61 614.38   C 1245.88 616.97 1225.05 620.52 1205.25 624.56   Q 1200.61 625.51 1182.84 628.27   Q 1175.39 629.43 1160.22 632.39   Q 1142.51 635.85 1108.30 640.45   C 1097.29 641.93 1084.50 644.11 1075.48 645.61   Q 1051.06 649.70 1027.38 651.11   A 0.76 0.75 88.0 0 0 1026.67 651.88   Q 1027.48 686.34 1022.99 719.49   Q 1020.79 735.70 1015.03 764.93   Q 1012.38 778.40 1008.85 790.39   Q 1003.40 808.89 1001.16 815.45   Q 994.91 833.74 986.67 852.47   A 0.84 0.84 0.0 0 0 987.37 853.64   Q 1018.11 856.12 1048.99 851.04   Q 1060.19 849.20 1075.82 845.17   Q 1091.52 841.12 1102.27 837.68   Q 1113.97 833.94 1127.55 827.25   A 0.59 0.59 0.0 0 0 1127.59 826.22   Q 1116.32 819.41 1108.68 808.83   C 1097.01 792.67 1098.66 771.92 1109.79 756.24   A 1.92 1.90 -47.0 0 0 1109.72 753.93   Q 1104.12 747.05 1103.76 737.91   A 1.14 1.14 0.0 0 0 1102.53 736.82   Q 1097.29 737.21 1091.71 737.58   C 1088.50 737.79 1084.31 737.64 1081.92 737.09   C 1076.72 735.88 1073.51 730.86 1073.79 725.47   Q 1074.11 719.36 1079.39 716.22   Q 1081.85 714.76 1089.44 714.21   Q 1111.84 712.59 1133.23 707.70   C 1144.12 705.21 1152.32 700.89 1161.72 696.47   C 1166.00 694.46 1172.22 689.96 1173.85 685.09   C 1175.70 679.57 1160.03 674.74 1156.25 673.93   C 1138.18 670.03 1119.41 669.66 1099.88 668.90   C 1095.61 668.74 1090.62 666.69 1089.63 662.34   C 1087.68 653.75 1099.13 651.81 1104.75 651.04   Q 1111.14 650.17 1125.07 649.55   Q 1139.23 648.92 1145.43 649.28   C 1163.39 650.33 1191.48 657.10 1196.16 678.08   Q 1198.87 690.21 1192.09 700.03   Q 1185.53 709.55 1175.98 715.47   C 1169.14 719.70 1159.10 723.14 1151.04 726.59   C 1144.09 729.57 1136.36 731.28 1128.86 732.63   A 2.10 2.10 0.0 0 0 1127.21 734.16   C 1125.49 740.75 1131.68 745.16 1136.91 747.93   C 1146.54 753.02 1154.55 755.27 1165.77 756.46   Q 1185.63 758.55 1204.10 750.66   C 1212.79 746.95 1216.81 739.55 1219.13 731.19   C 1220.29 726.98 1220.55 721.10 1220.51 717.26   Q 1220.42 709.10 1217.66 701.75   A 1.46 1.45 78.7 0 0 1216.26 700.81   C 1213.27 700.92 1211.12 701.15 1208.82 700.38   C 1202.19 698.15 1199.15 690.22 1202.56 684.31   Q 1205.40 679.37 1210.40 678.66   C 1224.80 676.59 1235.03 672.90 1250.90 667.68   Q 1255.07 666.31 1257.66 665.24   C 1263.83 662.71 1268.49 661.11 1274.14 658.17   Q 1279.91 655.17 1290.24 649.46   C 1300.15 643.98 1305.76 637.02 1314.84 626.86"/>
<path stroke="#6769e0" d="M 1310.95 615.54   L 1315.85 618.52   A 1.04 1.03 21.7 0 1 1316.32 619.60   L 1314.84 626.86"/>
<path stroke="#926987" d="M 358.73 866.78   Q 354.24 854.96 347.97 843.25   Q 337.73 824.11 336.28 821.46   Q 326.65 803.82 311.91 786.82   C 303.93 777.61 292.12 766.88 280.42 763.41   Q 275.91 762.08 274.27 761.95   C 256.89 760.58 256.10 777.29 260.01 789.22   A 7.25 7.23 11.1 0 0 262.23 792.51   C 272.28 800.99 283.32 810.19 292.77 819.36   Q 324.24 849.90 350.64 884.58   A 0.53 0.53 0.0 0 0 351.54 884.48   L 358.63 869.47   A 3.46 3.44 47.3 0 0 358.73 866.78"/>
<path stroke="#5053b7" d="M 1127.20 794.50   Q 1128.26 797.98 1132.08 801.21   C 1143.63 810.99 1158.05 811.79 1172.03 807.26   Q 1177.53 805.48 1183.01 800.83   Q 1189.07 795.69 1192.20 791.88   Q 1196.85 786.21 1199.81 778.11   A 0.70 0.70 0.0 0 0 1198.99 777.19   Q 1187.42 779.89 1176.24 780.14   Q 1150.74 780.71 1127.92 770.31   A 0.73 0.73 0.0 0 0 1126.94 770.69   Q 1122.43 781.32 1125.75 792.43   Q 1125.87 792.84 1126.77 793.77   A 1.86 1.78 -76.7 0 1 1127.20 794.50"/>
<path stroke="#95738d" d="M 328.11 929.07   L 338.33 911.38   A 3.23 3.21 45.9 0 0 338.37 908.25   Q 336.52 904.80 332.47 899.57   Q 319.89 883.30 304.57 865.61   Q 296.08 855.80 282.51 842.51   Q 267.90 828.21 259.05 820.64   Q 238.12 802.75 212.66 788.04   Q 199.65 780.53 183.93 776.38   C 173.36 773.59 163.21 772.99 154.15 779.30   C 144.19 786.24 145.96 796.97 150.28 806.48   C 156.66 820.52 167.44 833.02 178.73 843.50   Q 198.80 862.14 220.14 875.59   C 240.68 888.53 259.86 899.29 282.68 910.02   C 301.29 918.78 311.47 923.82 326.55 929.63   A 1.28 1.27 -64.3 0 0 328.11 929.07"/>
<path stroke="#926987" d="M 312.37 971.48   Q 312.41 970.84 312.34 966.32   C 312.27 961.58 313.70 956.94 315.67 952.73   A 1.72 1.72 0.0 0 0 314.86 950.45   C 300.67 943.55 285.40 937.84 271.64 931.11   Q 258.11 924.48 227.32 907.56   C 219.92 903.50 213.13 898.78 206.01 894.00   C 202.60 891.71 199.16 890.10 195.56 889.21   Q 179.95 885.33 162.49 885.23   C 153.31 885.18 144.32 887.43 137.21 893.56   C 129.51 900.17 130.66 908.16 136.17 915.69   C 148.75 932.86 168.74 944.46 188.61 951.87   Q 208.03 959.12 224.28 962.66   Q 241.08 966.32 262.82 969.44   Q 272.90 970.89 285.60 971.53   Q 307.67 972.64 308.49 972.64   Q 310.91 972.65 311.63 972.42   A 1.07 1.06 -6.9 0 0 312.37 971.48"/>
<path stroke="#926987" d="M 763.99 1049.86   A 0.56 0.55 -10.4 0 0 763.30 1049.39   L 746.67 1053.72   A 1.30 1.29 -3.9 0 0 745.70 1054.83   Q 744.15 1068.38 740.92 1083.44   Q 739.86 1088.41 737.45 1090.23   Q 729.42 1096.30 719.51 1102.50   C 716.94 1104.10 711.01 1109.80 714.05 1113.17   Q 715.90 1115.22 719.21 1115.56   C 726.18 1116.28 735.15 1115.05 741.95 1115.37   Q 756.66 1116.05 771.45 1120.24   C 781.45 1123.08 794.93 1130.15 802.35 1132.98   C 809.63 1135.75 820.11 1137.24 819.48 1125.61   C 818.97 1116.22 810.09 1110.15 802.09 1106.18   Q 788.50 1099.44 775.21 1096.65   Q 771.05 1095.78 768.63 1091.91   Q 767.35 1089.85 767.04 1083.79   Q 766.29 1069.48 763.99 1049.86"/>
<path stroke="#926987" d="M 583.75 1065.18   Q 582.18 1080.11 578.32 1097.52   Q 576.50 1105.69 569.76 1109.50   C 565.72 1111.79 546.19 1122.15 550.18 1128.43   Q 551.62 1130.68 554.10 1131.14   C 562.50 1132.73 572.22 1131.98 580.00 1132.26   Q 597.73 1132.88 615.22 1140.28   Q 621.28 1142.85 639.18 1150.59   C 643.26 1152.35 648.49 1153.42 652.09 1150.34   C 655.94 1147.06 653.82 1138.30 651.42 1135.07   C 642.95 1123.71 627.12 1117.74 613.48 1114.58   C 604.32 1112.46 603.53 1106.18 603.66 1097.22   Q 603.84 1084.18 602.19 1066.76   A 0.44 0.43 -89.3 0 0 601.81 1066.36   L 584.67 1064.44   A 0.83 0.83 0.0 0 0 583.75 1065.18"/>
<path stroke="#f9c5ab" d="M 788.49 485.43   Q 788.11 485.35 787.26 483.69   Q 780.05 469.49 768.37 458.87   Q 755.60 447.26 742.88 440.68   Q 731.57 434.83 720.14 432.78   C 670.27 423.82 623.33 449.49 606.60 497.58   C 590.69 543.32 609.16 593.53 650.07 618.19   Q 676.77 634.28 709.51 631.78   Q 720.82 630.92 735.42 626.13   Q 738.18 625.22 742.21 623.33   Q 747.36 620.92 748.75 620.00   Q 760.72 612.00 770.89 602.67   Q 776.68 597.36 780.85 590.79   Q 791.23 574.45 795.68 558.22   Q 799.16 545.52 799.44 531.30   C 799.70 518.38 796.28 506.75 792.05 493.76   Q 790.85 490.07 789.53 488.40   A 2.58 2.45 -72.1 0 1 789.05 487.40   Q 788.60 485.46 788.49 485.43"/>
<path stroke="#9785a0" d="M 924.4803 473.0791   A 38.34 28.19 -92.9 0 0 898.2661 512.7962   A 38.34 28.19 -92.9 0 0 928.3597 549.6609   A 38.34 28.19 -92.9 0 0 954.5739 509.9438   A 38.34 28.19 -92.9 0 0 924.4803 473.0791"/>
<path stroke="#9785a0" d="M 726.8775 482.1207   A 45.78 42.16 -87.9 0 0 683.0683 526.3251   A 45.78 42.16 -87.9 0 0 723.5225 573.6193   A 45.78 42.16 -87.9 0 0 767.3317 529.4149   A 45.78 42.16 -87.9 0 0 726.8775 482.1207"/>
<path stroke="#9999c1" d="M 935.2663 484.2721   A 11.65 10.07 -91.1 0 0 925.4219 496.1133   A 11.65 10.07 -91.1 0 0 935.7137 507.5679   A 11.65 10.07 -91.1 0 0 945.5581 495.7267   A 11.65 10.07 -91.1 0 0 935.2663 484.2721"/>
<path stroke="#9999c1" d="M 736.7980 495.6893   A 13.70 13.41 -105.2 0 0 727.4491 512.4260   A 13.70 13.41 -105.2 0 0 743.9820 522.1307   A 13.70 13.41 -105.2 0 0 753.3309 505.3940   A 13.70 13.41 -105.2 0 0 736.7980 495.6893"/>
<path stroke="#926987" d="M 852.84 558.94   Q 849.00 560.50 846.13 563.45"/>
<path stroke="#8c626b" d="M 846.13 563.45   Q 838.51 572.17 833.99 583.98   Q 830.46 593.18 829.12 600.40"/>
<path stroke="#926987" d="M 829.12 600.40   Q 828.23 603.47 827.81 606.26   Q 827.33 609.47 830.06 610.83"/>
<path stroke="#8c626b" d="M 830.06 610.83   Q 843.86 618.21 858.82 617.71   Q 870.98 617.30 877.54 615.98   Q 882.64 614.95 886.17 613.71   A 0.07 0.07 0.0 0 0 886.19 613.58   Q 886.03 613.48 886.01 613.46   A 0.36 0.36 0.0 0 1 886.28 612.91   L 892.70 612.41   A 0.40 0.34 -49.7 0 0 892.82 612.39   Q 894.46 611.80 896.14 611.44   Q 899.81 610.66 899.85 610.64   Q 917.99 605.86 935.11 604.60   A 0.35 0.34 73.0 0 0 935.38 604.08   Q 926.80 589.53 913.97 579.25   C 910.55 576.52 904.65 572.79 901.03 570.51   Q 894.45 566.35 884.09 561.98   Q 873.01 557.30 859.51 557.07   Q 856.39 557.02 852.84 558.94"/>
<path stroke="#ea9870" d="M 830.06 610.83   Q 828.80 606.82 829.12 600.40"/>
<path stroke="#ea9870" d="M 846.13 563.45   Q 851.08 562.46 852.84 558.94"/>
<path stroke="#8c626b" d="M 887.86 613.27   A 0.09 0.09 0.0 0 0 887.77 613.18   A 0.09 0.09 0.0 0 0 887.68 613.27   A 0.09 0.09 0.0 0 0 887.77 613.36   A 0.09 0.09 0.0 0 0 887.86 613.27"/>
<path stroke="#926987" d="M 886.54 672.57   Q 884.60 667.98 881.11 662.94   Q 879.87 661.15 874.68 655.89   Q 870.64 651.78 867.39 649.66   C 860.22 644.98 852.30 641.86 843.75 640.62   Q 838.54 639.87 833.37 638.93   A 0.66 0.66 0.0 0 0 832.67 639.88   Q 836.60 647.41 841.40 653.35   C 852.16 666.66 869.02 673.67 886.00 673.39   A 0.59 0.59 0.0 0 0 886.54 672.57"/>
</g>

<path xmlns="http://www.w3.org/2000/svg" fill="#333382" d="M 163.42 862.00   A 0.31 0.31 0.0 0 0 163.61 861.46   Q 153.93 852.63 145.32 841.85   C 134.38 828.17 126.10 815.76 123.82 799.49   Q 122.00 786.56 128.17 774.07   C 136.94 756.32 158.46 748.84 177.64 751.40   C 198.19 754.15 216.63 763.43 234.36 773.54   A 0.60 0.60 0.0 0 0 235.25 773.06   Q 236.66 751.47 255.90 741.60   C 267.94 735.43 283.69 737.82 295.27 743.77   C 316.06 754.46 332.69 771.88 345.21 791.54   C 353.88 805.17 363.24 820.11 370.27 835.13   A 0.46 0.46 0.0 0 0 371.12 835.08   Q 375.36 821.99 378.74 806.03   C 383.21 784.98 383.64 762.42 382.73 741.00   Q 380.40 685.93 379.88 675.02   Q 376.32 600.29 393.91 526.19   Q 395.32 520.28 400.30 503.20   C 406.72 481.19 415.62 460.27 426.22 440.19   Q 453.99 387.52 498.29 348.60   C 516.98 332.18 536.85 318.93 558.55 307.06   C 567.00 302.43 578.09 297.83 584.20 295.16   Q 610.15 283.82 642.61 277.83   Q 702.40 266.80 759.73 277.32   C 809.37 286.42 857.25 307.58 896.15 340.02   Q 908.49 350.31 920.64 361.99   C 928.96 369.99 931.99 374.13 940.28 383.99   Q 961.52 409.25 977.14 439.85   Q 983.27 451.88 989.71 465.80   C 997.24 482.07 1003.03 501.55 1007.40 515.82   C 1012.78 533.38 1015.92 549.94 1019.82 571.59   Q 1024.70 598.66 1025.91 627.32   A 0.69 0.69 0.0 0 0 1026.68 627.98   Q 1111.66 617.88 1194.89 602.44   Q 1230.70 595.80 1261.07 591.60   C 1279.83 589.00 1297.90 587.74 1316.45 592.51   C 1329.21 595.79 1338.69 605.45 1339.37 618.77   C 1340.34 637.85 1324.80 653.23 1310.42 663.56   Q 1278.56 686.44 1240.86 695.66   A 0.49 0.49 0.0 0 0 1240.51 696.28   C 1247.65 718.78 1243.88 743.75 1228.57 762.00   A 4.58 4.56 68.7 0 0 1227.55 764.34   Q 1224.30 791.08 1206.32 811.38   C 1196.21 822.79 1184.03 828.46 1169.61 832.54   A 8.84 8.53 21.4 0 0 1167.64 833.36   C 1144.28 846.69 1119.34 856.98 1093.39 865.12   Q 1084.08 868.04 1065.98 871.92   Q 1024.72 880.76 982.32 876.84   Q 977.05 876.35 975.01 876.28   A 0.87 0.86 14.6 0 0 974.21 876.74   Q 969.23 886.42 966.33 891.35   Q 938.92 937.88 896.98 974.95   Q 878.73 991.08 860.04 1003.29   Q 848.56 1010.80 832.36 1020.10   C 817.61 1028.56 804.18 1033.97 787.12 1040.88   A 0.64 0.62 -14.1 0 0 786.72 1041.53   L 790.10 1075.78   A 0.65 0.65 0.0 0 0 790.55 1076.34   Q 794.48 1077.58 799.11 1079.13   C 817.66 1085.34 837.98 1098.58 842.32 1118.88   C 846.59 1138.83 832.65 1157.93 811.93 1158.61   Q 804.68 1158.86 792.77 1154.24   Q 786.88 1151.96 774.64 1146.38   Q 763.46 1141.29 746.02 1138.92   C 738.97 1137.97 730.93 1139.04 723.03 1139.01   C 708.67 1138.95 692.71 1132.57 690.25 1116.56   Q 687.98 1101.83 697.73 1090.79   Q 705.75 1081.70 716.51 1076.53   C 720.29 1074.71 721.22 1063.70 721.47 1060.00   A 0.35 0.34 -2.7 0 0 721.07 1059.64   C 710.60 1061.28 695.62 1063.97 683.23 1065.30   Q 654.80 1068.37 626.22 1067.34   A 0.71 0.71 0.0 0 0 625.48 1068.08   L 626.59 1092.85   A 1.24 1.23 -83.1 0 0 627.47 1093.98   C 650.01 1100.64 677.67 1116.89 677.69 1143.73   Q 677.70 1161.79 663.07 1171.33   C 645.63 1182.71 624.06 1169.88 607.58 1162.45   C 593.90 1156.28 579.67 1154.86 564.86 1155.29   C 551.43 1155.68 535.46 1152.62 528.61 1139.36   C 521.10 1124.81 529.45 1107.73 542.41 1099.11   Q 547.16 1095.95 554.63 1091.64   Q 555.76 1090.99 556.50 1087.98   Q 559.36 1076.24 561.15 1061.49   A 0.51 0.50 -81.6 0 0 560.74 1060.93   Q 534.40 1056.80 520.68 1053.08   Q 503.18 1048.35 485.06 1042.68   Q 477.50 1040.31 468.89 1036.83   Q 450.31 1029.30 439.40 1024.58   C 430.48 1020.72 422.10 1015.87 413.36 1011.49   A 3.95 3.94 -33.6 0 0 411.35 1011.09   Q 385.70 1012.67 359.82 1007.51   C 348.39 1005.23 338.77 1002.74 329.67 997.24   A 7.30 7.28 -29.8 0 0 325.81 996.20   Q 286.37 996.82 245.30 990.75   C 221.81 987.27 197.84 980.96 177.86 973.25   Q 157.56 965.42 138.41 951.11   C 126.67 942.34 115.48 930.79 110.60 916.86   C 106.79 906.00 108.43 893.33 114.76 883.74   C 123.60 870.35 141.02 863.16 156.78 862.35   Q 163.27 862.01 163.42 862.00   Z   M 406.69 760.17   Q 406.18 781.13 404.59 794.27   Q 402.98 807.57 400.29 818.56   C 395.60 837.78 388.97 857.40 380.53 876.94   Q 364.96 912.94 344.59 946.57   C 343.32 948.67 342.32 950.93 341.36 953.20   C 337.53 962.32 329.51 971.61 342.70 977.58   C 351.34 981.48 358.93 982.96 369.55 985.23   Q 375.43 986.48 382.26 986.91   Q 437.36 990.39 488.12 970.53   Q 501.48 965.31 511.45 959.54   Q 523.90 952.32 533.37 945.86   C 548.27 935.70 561.67 922.07 573.25 908.32   C 584.54 894.91 593.03 878.46 601.00 861.29   Q 603.87 855.10 606.54 846.59   Q 610.18 834.99 611.01 831.52   C 616.32 809.37 618.13 788.28 616.27 766.09   Q 615.14 752.69 614.16 746.29   Q 612.25 733.76 608.07 722.47   Q 606.53 718.34 605.88 712.88   Q 605.24 707.60 609.28 704.07   C 615.99 701.14 620.65 706.73 623.24 712.04   C 628.77 723.41 634.71 736.68 636.76 749.25   C 645.22 801.03 634.60 854.35 607.76 899.26   Q 603.77 905.93 597.80 913.95   C 588.65 926.25 580.99 936.39 571.07 945.06   Q 559.40 955.26 548.64 963.36   C 535.91 972.94 523.25 979.69 510.32 986.31   C 498.33 992.45 486.10 996.60 471.80 1001.02   Q 464.09 1003.40 455.32 1004.61   A 0.44 0.44 0.0 0 0 455.20 1005.45   Q 465.78 1010.16 469.55 1011.89   Q 476.09 1014.90 484.25 1017.43   Q 499.20 1022.07 509.38 1025.62   C 513.60 1027.10 518.89 1028.22 522.35 1029.36   Q 524.39 1030.03 532.10 1031.46   Q 533.65 1031.75 541.87 1033.61   Q 568.61 1039.67 598.57 1042.33   Q 620.56 1044.10 637.00 1044.05   Q 678.68 1043.90 722.77 1035.25   Q 745.43 1030.80 770.36 1022.11   Q 781.81 1018.12 796.24 1011.54   Q 810.75 1004.93 821.40 999.36   C 836.75 991.34 848.01 983.20 864.18 971.36   Q 886.98 954.67 906.24 933.23   Q 912.17 926.62 922.94 913.43   Q 933.23 900.83 940.60 888.33   Q 946.69 878.03 952.90 867.81   L 963.05 847.73   Q 972.98 824.79 976.22 816.19   Q 983.21 797.69 989.41 772.45   Q 996.57 744.30 999.77 715.51   Q 1004.83 670.08 1002.08 624.54   C 1001.32 612.00 998.89 597.72 998.34 585.51   C 998.12 580.66 997.08 577.72 996.60 572.42   Q 996.30 569.12 995.00 565.74   Q 994.98 565.67 994.96 565.60   L 993.42 557.69   Q 987.03 529.19 982.79 515.23   Q 976.61 494.89 963.38 465.39   Q 961.43 461.05 958.71 455.96   Q 957.62 453.95 953.79 446.64   Q 941.38 423.00 924.95 402.68   Q 920.31 395.03 914.21 389.03   Q 907.74 382.66 907.66 382.58   Q 901.54 376.17 894.87 369.61   Q 887.76 362.62 881.12 357.60   Q 867.65 347.39 851.21 336.55   Q 840.45 329.46 828.28 323.98   C 814.33 317.70 799.80 311.52 785.93 307.50   Q 715.82 287.19 645.14 301.39   Q 629.18 304.60 608.07 311.18   Q 596.39 314.82 585.95 319.97   Q 574.24 325.74 560.01 333.23   C 557.21 334.70 554.48 335.38 551.84 336.94   Q 547.03 339.80 543.23 343.05   C 534.93 350.12 523.56 358.52 518.06 362.61   Q 510.94 367.89 505.97 373.03   C 493.18 386.25 482.08 397.65 471.83 411.84   C 462.71 424.45 454.38 436.50 447.95 449.58   Q 442.85 459.95 439.18 467.14   Q 434.77 475.76 431.37 485.08   Q 426.26 499.13 423.43 508.18   Q 415.07 534.88 409.93 565.01   Q 400.95 617.63 403.20 673.26   Q 404.41 703.24 405.99 731.96   C 406.46 740.63 406.34 750.56 406.69 760.17   Z   M 1314.84 626.86   C 1316.95 624.92 1318.63 619.63 1315.69 617.56   Q 1313.58 616.06 1310.95 615.54   C 1296.67 611.81 1281.39 612.53 1266.61 614.38   C 1245.88 616.97 1225.05 620.52 1205.25 624.56   Q 1200.61 625.51 1182.84 628.27   Q 1175.39 629.43 1160.22 632.39   Q 1142.51 635.85 1108.30 640.45   C 1097.29 641.93 1084.50 644.11 1075.48 645.61   Q 1051.06 649.70 1027.38 651.11   A 0.76 0.75 88.0 0 0 1026.67 651.88   Q 1027.48 686.34 1022.99 719.49   Q 1020.79 735.70 1015.03 764.93   Q 1012.38 778.40 1008.85 790.39   Q 1003.40 808.89 1001.16 815.45   Q 994.91 833.74 986.67 852.47   A 0.84 0.84 0.0 0 0 987.37 853.64   Q 1018.11 856.12 1048.99 851.04   Q 1060.19 849.20 1075.82 845.17   Q 1091.52 841.12 1102.27 837.68   Q 1113.97 833.94 1127.55 827.25   A 0.59 0.59 0.0 0 0 1127.59 826.22   Q 1116.32 819.41 1108.68 808.83   C 1097.01 792.67 1098.66 771.92 1109.79 756.24   A 1.92 1.90 -47.0 0 0 1109.72 753.93   Q 1104.12 747.05 1103.76 737.91   A 1.14 1.14 0.0 0 0 1102.53 736.82   Q 1097.29 737.21 1091.71 737.58   C 1088.50 737.79 1084.31 737.64 1081.92 737.09   C 1076.72 735.88 1073.51 730.86 1073.79 725.47   Q 1074.11 719.36 1079.39 716.22   Q 1081.85 714.76 1089.44 714.21   Q 1111.84 712.59 1133.23 707.70   C 1144.12 705.21 1152.32 700.89 1161.72 696.47   C 1166.00 694.46 1172.22 689.96 1173.85 685.09   C 1175.70 679.57 1160.03 674.74 1156.25 673.93   C 1138.18 670.03 1119.41 669.66 1099.88 668.90   C 1095.61 668.74 1090.62 666.69 1089.63 662.34   C 1087.68 653.75 1099.13 651.81 1104.75 651.04   Q 1111.14 650.17 1125.07 649.55   Q 1139.23 648.92 1145.43 649.28   C 1163.39 650.33 1191.48 657.10 1196.16 678.08   Q 1198.87 690.21 1192.09 700.03   Q 1185.53 709.55 1175.98 715.47   C 1169.14 719.70 1159.10 723.14 1151.04 726.59   C 1144.09 729.57 1136.36 731.28 1128.86 732.63   A 2.10 2.10 0.0 0 0 1127.21 734.16   C 1125.49 740.75 1131.68 745.16 1136.91 747.93   C 1146.54 753.02 1154.55 755.27 1165.77 756.46   Q 1185.63 758.55 1204.10 750.66   C 1212.79 746.95 1216.81 739.55 1219.13 731.19   C 1220.29 726.98 1220.55 721.10 1220.51 717.26   Q 1220.42 709.10 1217.66 701.75   A 1.46 1.45 78.7 0 0 1216.26 700.81   C 1213.27 700.92 1211.12 701.15 1208.82 700.38   C 1202.19 698.15 1199.15 690.22 1202.56 684.31   Q 1205.40 679.37 1210.40 678.66   C 1224.80 676.59 1235.03 672.90 1250.90 667.68   Q 1255.07 666.31 1257.66 665.24   C 1263.83 662.71 1268.49 661.11 1274.14 658.17   Q 1279.91 655.17 1290.24 649.46   C 1300.15 643.98 1305.76 637.02 1314.84 626.86   Z   M 358.73 866.78   Q 354.24 854.96 347.97 843.25   Q 337.73 824.11 336.28 821.46   Q 326.65 803.82 311.91 786.82   C 303.93 777.61 292.12 766.88 280.42 763.41   Q 275.91 762.08 274.27 761.95   C 256.89 760.58 256.10 777.29 260.01 789.22   A 7.25 7.23 11.1 0 0 262.23 792.51   C 272.28 800.99 283.32 810.19 292.77 819.36   Q 324.24 849.90 350.64 884.58   A 0.53 0.53 0.0 0 0 351.54 884.48   L 358.63 869.47   A 3.46 3.44 47.3 0 0 358.73 866.78   Z   M 1127.20 794.50   Q 1128.26 797.98 1132.08 801.21   C 1143.63 810.99 1158.05 811.79 1172.03 807.26   Q 1177.53 805.48 1183.01 800.83   Q 1189.07 795.69 1192.20 791.88   Q 1196.85 786.21 1199.81 778.11   A 0.70 0.70 0.0 0 0 1198.99 777.19   Q 1187.42 779.89 1176.24 780.14   Q 1150.74 780.71 1127.92 770.31   A 0.73 0.73 0.0 0 0 1126.94 770.69   Q 1122.43 781.32 1125.75 792.43   Q 1125.87 792.84 1126.77 793.77   A 1.86 1.78 -76.7 0 1 1127.20 794.50   Z   M 328.11 929.07   L 338.33 911.38   A 3.23 3.21 45.9 0 0 338.37 908.25   Q 336.52 904.80 332.47 899.57   Q 319.89 883.30 304.57 865.61   Q 296.08 855.80 282.51 842.51   Q 267.90 828.21 259.05 820.64   Q 238.12 802.75 212.66 788.04   Q 199.65 780.53 183.93 776.38   C 173.36 773.59 163.21 772.99 154.15 779.30   C 144.19 786.24 145.96 796.97 150.28 806.48   C 156.66 820.52 167.44 833.02 178.73 843.50   Q 198.80 862.14 220.14 875.59   C 240.68 888.53 259.86 899.29 282.68 910.02   C 301.29 918.78 311.47 923.82 326.55 929.63   A 1.28 1.27 -64.3 0 0 328.11 929.07   Z   M 312.37 971.48   Q 312.41 970.84 312.34 966.32   C 312.27 961.58 313.70 956.94 315.67 952.73   A 1.72 1.72 0.0 0 0 314.86 950.45   C 300.67 943.55 285.40 937.84 271.64 931.11   Q 258.11 924.48 227.32 907.56   C 219.92 903.50 213.13 898.78 206.01 894.00   C 202.60 891.71 199.16 890.10 195.56 889.21   Q 179.95 885.33 162.49 885.23   C 153.31 885.18 144.32 887.43 137.21 893.56   C 129.51 900.17 130.66 908.16 136.17 915.69   C 148.75 932.86 168.74 944.46 188.61 951.87   Q 208.03 959.12 224.28 962.66   Q 241.08 966.32 262.82 969.44   Q 272.90 970.89 285.60 971.53   Q 307.67 972.64 308.49 972.64   Q 310.91 972.65 311.63 972.42   A 1.07 1.06 -6.9 0 0 312.37 971.48   Z   M 763.99 1049.86   A 0.56 0.55 -10.4 0 0 763.30 1049.39   L 746.67 1053.72   A 1.30 1.29 -3.9 0 0 745.70 1054.83   Q 744.15 1068.38 740.92 1083.44   Q 739.86 1088.41 737.45 1090.23   Q 729.42 1096.30 719.51 1102.50   C 716.94 1104.10 711.01 1109.80 714.05 1113.17   Q 715.90 1115.22 719.21 1115.56   C 726.18 1116.28 735.15 1115.05 741.95 1115.37   Q 756.66 1116.05 771.45 1120.24   C 781.45 1123.08 794.93 1130.15 802.35 1132.98   C 809.63 1135.75 820.11 1137.24 819.48 1125.61   C 818.97 1116.22 810.09 1110.15 802.09 1106.18   Q 788.50 1099.44 775.21 1096.65   Q 771.05 1095.78 768.63 1091.91   Q 767.35 1089.85 767.04 1083.79   Q 766.29 1069.48 763.99 1049.86   Z   M 583.75 1065.18   Q 582.18 1080.11 578.32 1097.52   Q 576.50 1105.69 569.76 1109.50   C 565.72 1111.79 546.19 1122.15 550.18 1128.43   Q 551.62 1130.68 554.10 1131.14   C 562.50 1132.73 572.22 1131.98 580.00 1132.26   Q 597.73 1132.88 615.22 1140.28   Q 621.28 1142.85 639.18 1150.59   C 643.26 1152.35 648.49 1153.42 652.09 1150.34   C 655.94 1147.06 653.82 1138.30 651.42 1135.07   C 642.95 1123.71 627.12 1117.74 613.48 1114.58   C 604.32 1112.46 603.53 1106.18 603.66 1097.22   Q 603.84 1084.18 602.19 1066.76   A 0.44 0.43 -89.3 0 0 601.81 1066.36   L 584.67 1064.44   A 0.83 0.83 0.0 0 0 583.75 1065.18   Z"/>
<path xmlns="http://www.w3.org/2000/svg" fill="#6d73ec" d="M 924.95 402.68   Q 912.77 396.49 900.90 401.13   Q 899.06 401.84 893.56 404.66   A 6.56 5.73 9.1 0 0 892.73 405.18   Q 890.92 406.50 886.71 410.20   Q 877.92 417.89 872.08 429.05   Q 866.52 439.66 864.16 447.39   Q 863.30 450.22 861.62 456.89   Q 859.97 463.46 859.39 466.49   Q 852.69 502.02 863.82 536.86   C 856.91 536.81 852.14 537.24 846.34 540.12   Q 831.33 547.56 822.40 560.69   Q 822.80 556.57 823.12 554.88   Q 825.93 539.84 824.68 524.97   Q 822.78 502.24 813.83 481.53   Q 812.53 478.53 812.12 477.79   C 810.40 474.70 809.34 471.73 807.58 468.49   Q 802.44 459.05 795.81 450.17   Q 793.29 446.79 793.28 446.78   C 787.25 441.23 781.63 434.88 775.47 430.16   Q 765.24 422.32 759.25 418.81   Q 747.53 411.96 733.45 407.56   Q 707.02 399.29 679.02 402.25   Q 669.17 403.29 660.20 405.92   Q 607.44 421.36 580.26 468.75   C 567.24 491.44 562.51 517.27 564.23 543.25   Q 565.65 564.58 573.40 583.12   Q 592.83 629.57 639.43 652.58   Q 645.57 655.61 651.68 657.63   Q 683.97 668.31 717.27 662.32   Q 723.74 661.15 724.52 660.95   Q 747.32 655.18 767.39 641.94   C 770.87 639.64 774.25 636.70 776.62 634.62   Q 779.37 632.20 789.80 622.57   Q 794.64 618.11 797.29 614.12   Q 800.80 608.81 803.66 603.73   Q 805.63 600.20 807.09 597.89   Q 808.83 595.12 810.64 592.13   Q 808.82 597.26 808.13 602.06   A 6.99 6.86 58.5 0 1 807.89 603.10   Q 804.23 614.18 806.40 625.51   A 1.05 1.03 26.1 0 0 806.52 625.85   Q 807.40 627.44 807.57 629.70   A 2.19 2.17 27.0 0 0 807.90 630.70   Q 808.15 631.09 809.20 635.01   Q 812.07 645.71 818.29 655.99   Q 822.58 663.08 833.39 674.08   Q 840.05 680.85 850.47 685.50   Q 852.17 686.26 861.33 689.58   C 874.90 694.50 892.69 696.92 905.05 688.18   C 914.96 681.19 916.03 670.26 914.66 658.21   Q 912.96 643.24 908.46 629.59   A 0.62 0.62 0.0 0 1 908.94 628.79   Q 918.58 627.03 929.58 625.41   C 936.78 624.35 942.90 624.32 950.53 623.67   A 3.98 3.62 -54.1 0 0 951.34 623.50   Q 960.30 620.49 959.78 610.34   Q 966.09 609.50 971.01 606.28   Q 971.35 606.05 975.51 602.92   Q 977.98 601.07 979.64 599.14   Q 983.31 594.89 984.08 593.83   Q 989.23 586.76 991.22 577.76   Q 992.90 570.19 993.41 564.96   Q 993.62 562.77 993.42 557.69   L 994.96 565.60   Q 994.98 565.67 995.00 565.74   Q 996.30 569.12 996.60 572.42   C 997.08 577.72 998.12 580.66 998.34 585.51   C 998.89 597.72 1001.32 612.00 1002.08 624.54   Q 1004.83 670.08 999.77 715.51   Q 996.57 744.30 989.41 772.45   Q 989.90 771.43 988.37 770.63   Q 953.31 752.21 914.74 752.73   C 905.44 752.86 895.75 753.09 888.11 754.13   Q 861.44 757.78 838.95 765.50   Q 806.36 776.69 776.46 794.98   C 753.57 809.00 731.83 827.32 714.10 845.11   Q 674.38 884.95 641.48 940.72   Q 618.09 980.37 603.32 1025.78   Q 600.18 1035.44 598.57 1042.33   Q 568.61 1039.67 541.87 1033.61   Q 533.65 1031.75 532.10 1031.46   Q 524.39 1030.03 522.35 1029.36   C 518.89 1028.22 513.60 1027.10 509.38 1025.62   Q 499.20 1022.07 484.25 1017.43   Q 476.09 1014.90 469.55 1011.89   Q 465.78 1010.16 455.20 1005.45   A 0.44 0.44 0.0 0 1 455.32 1004.61   Q 464.09 1003.40 471.80 1001.02   C 486.10 996.60 498.33 992.45 510.32 986.31   C 523.25 979.69 535.91 972.94 548.64 963.36   Q 559.40 955.26 571.07 945.06   C 580.99 936.39 588.65 926.25 597.80 913.95   Q 603.77 905.93 607.76 899.26   C 634.60 854.35 645.22 801.03 636.76 749.25   C 634.71 736.68 628.77 723.41 623.24 712.04   C 620.65 706.73 615.99 701.14 609.28 704.07   Q 596.50 691.29 582.65 685.31   Q 558.64 674.95 529.09 677.96   C 507.00 680.22 486.50 687.85 467.13 698.54   Q 457.69 703.75 447.18 712.42   Q 439.32 718.90 435.38 722.88   Q 431.48 726.82 423.00 736.25   Q 415.33 744.77 406.69 760.17   C 406.34 750.56 406.46 740.63 405.99 731.96   Q 404.41 703.24 403.20 673.26   Q 400.95 617.63 409.93 565.01   Q 415.07 534.88 423.43 508.18   Q 426.26 499.13 431.37 485.08   Q 434.77 475.76 439.18 467.14   Q 442.85 459.95 447.95 449.58   C 454.38 436.50 462.71 424.45 471.83 411.84   C 482.08 397.65 493.18 386.25 505.97 373.03   Q 510.94 367.89 518.06 362.61   C 523.56 358.52 534.93 350.12 543.23 343.05   Q 547.03 339.80 551.84 336.94   C 554.48 335.38 557.21 334.70 560.01 333.23   Q 574.24 325.74 585.95 319.97   Q 596.39 314.82 608.07 311.18   Q 629.18 304.60 645.14 301.39   Q 715.82 287.19 785.93 307.50   C 799.80 311.52 814.33 317.70 828.28 323.98   Q 840.45 329.46 851.21 336.55   Q 867.65 347.39 881.12 357.60   Q 887.76 362.62 894.87 369.61   Q 901.54 376.17 907.66 382.58   Q 907.74 382.66 914.21 389.03   Q 920.31 395.03 924.95 402.68   Z"/>
<path xmlns="http://www.w3.org/2000/svg" fill="#f7b298" d="M 924.95 402.68   Q 941.38 423.00 953.79 446.64   Q 957.62 453.95 958.71 455.96   Q 961.43 461.05 963.38 465.39   Q 976.61 494.89 982.79 515.23   Q 987.03 529.19 993.42 557.69   Q 993.62 562.77 993.41 564.96   Q 992.90 570.19 991.22 577.76   Q 989.23 586.76 984.08 593.83   Q 983.31 594.89 979.64 599.14   Q 977.98 601.07 975.51 602.92   Q 971.35 606.05 971.01 606.28   Q 966.09 609.50 959.78 610.34   Q 957.12 600.36 951.75 592.25   Q 949.60 589.03 946.71 584.61   Q 963.23 583.24 970.81 570.40   Q 975.38 562.67 976.58 554.92   Q 978.27 543.97 978.04 528.80   C 977.90 519.86 976.95 512.25 973.96 504.14   C 972.53 500.28 970.84 495.17 968.68 488.14   C 964.21 473.58 956.61 457.45 946.01 447.98   A 9.14 8.79 5.5 0 1 944.49 446.21   Q 936.18 433.43 920.98 430.74   C 906.42 428.16 894.77 435.22 886.99 447.49   Q 881.33 456.41 879.87 461.14   Q 876.50 472.11 875.16 482.21   Q 873.83 492.21 875.06 503.76   Q 877.03 522.19 883.75 540.49   Q 872.86 537.59 863.82 536.86   Q 852.69 502.02 859.39 466.49   Q 859.97 463.46 861.62 456.89   Q 863.30 450.22 864.16 447.39   Q 866.52 439.66 872.08 429.05   Q 877.92 417.89 886.71 410.20   Q 890.92 406.50 892.73 405.18   A 6.56 5.73 9.1 0 1 893.56 404.66   Q 899.06 401.84 900.90 401.13   Q 912.77 396.49 924.95 402.68   Z"/>
<path xmlns="http://www.w3.org/2000/svg" fill="#f7b298" d="M 822.40 560.69   Q 816.07 574.40 813.88 581.62   Q 812.21 587.12 810.64 592.13   Q 808.83 595.12 807.09 597.89   Q 805.63 600.20 803.66 603.73   Q 800.80 608.81 797.29 614.12   Q 794.64 618.11 789.80 622.57   Q 779.37 632.20 776.62 634.62   C 774.25 636.70 770.87 639.64 767.39 641.94   Q 747.32 655.18 724.52 660.95   Q 723.74 661.15 717.27 662.32   Q 683.97 668.31 651.68 657.63   Q 645.57 655.61 639.43 652.58   Q 592.83 629.57 573.40 583.12   Q 565.65 564.58 564.23 543.25   C 562.51 517.27 567.24 491.44 580.26 468.75   Q 607.44 421.36 660.20 405.92   Q 669.17 403.29 679.02 402.25   Q 707.02 399.29 733.45 407.56   Q 747.53 411.96 759.25 418.81   Q 765.24 422.32 775.47 430.16   C 781.63 434.88 787.25 441.23 793.28 446.78   Q 793.29 446.79 795.81 450.17   Q 802.44 459.05 807.58 468.49   C 809.34 471.73 810.40 474.70 812.12 477.79   Q 812.53 478.53 813.83 481.53   Q 822.78 502.24 824.68 524.97   Q 825.93 539.84 823.12 554.88   Q 822.80 556.57 822.40 560.69   Z   M 788.49 485.43   Q 788.11 485.35 787.26 483.69   Q 780.05 469.49 768.37 458.87   Q 755.60 447.26 742.88 440.68   Q 731.57 434.83 720.14 432.78   C 670.27 423.82 623.33 449.49 606.60 497.58   C 590.69 543.32 609.16 593.53 650.07 618.19   Q 676.77 634.28 709.51 631.78   Q 720.82 630.92 735.42 626.13   Q 738.18 625.22 742.21 623.33   Q 747.36 620.92 748.75 620.00   Q 760.72 612.00 770.89 602.67   Q 776.68 597.36 780.85 590.79   Q 791.23 574.45 795.68 558.22   Q 799.16 545.52 799.44 531.30   C 799.70 518.38 796.28 506.75 792.05 493.76   Q 790.85 490.07 789.53 488.40   A 2.58 2.45 -72.1 0 1 789.05 487.40   Q 788.60 485.46 788.49 485.43   Z"/>
<path xmlns="http://www.w3.org/2000/svg" fill="#fbd7be" d="M 946.71 584.61   Q 927.28 558.93 896.56 545.43   Q 891.48 543.20 883.75 540.49   Q 877.03 522.19 875.06 503.76   Q 873.83 492.21 875.16 482.21   Q 876.50 472.11 879.87 461.14   Q 881.33 456.41 886.99 447.49   C 894.77 435.22 906.42 428.16 920.98 430.74   Q 936.18 433.43 944.49 446.21   A 9.14 8.79 5.5 0 0 946.01 447.98   C 956.61 457.45 964.21 473.58 968.68 488.14   C 970.84 495.17 972.53 500.28 973.96 504.14   C 976.95 512.25 977.90 519.86 978.04 528.80   Q 978.27 543.97 976.58 554.92   Q 975.38 562.67 970.81 570.40   Q 963.23 583.24 946.71 584.61   Z   M 924.4803 473.0791   A 38.34 28.19 -92.9 0 0 898.2661 512.7962   A 38.34 28.19 -92.9 0 0 928.3597 549.6609   A 38.34 28.19 -92.9 0 0 954.5739 509.9438   A 38.34 28.19 -92.9 0 0 924.4803 473.0791   Z"/>
<path xmlns="http://www.w3.org/2000/svg" fill="#fbd7be" d="M 788.49 485.43   Q 788.60 485.46 789.05 487.40   A 2.58 2.45 -72.1 0 0 789.53 488.40   Q 790.85 490.07 792.05 493.76   C 796.28 506.75 799.70 518.38 799.44 531.30   Q 799.16 545.52 795.68 558.22   Q 791.23 574.45 780.85 590.79   Q 776.68 597.36 770.89 602.67   Q 760.72 612.00 748.75 620.00   Q 747.36 620.92 742.21 623.33   Q 738.18 625.22 735.42 626.13   Q 720.82 630.92 709.51 631.78   Q 676.77 634.28 650.07 618.19   C 609.16 593.53 590.69 543.32 606.60 497.58   C 623.33 449.49 670.27 423.82 720.14 432.78   Q 731.57 434.83 742.88 440.68   Q 755.60 447.26 768.37 458.87   Q 780.05 469.49 787.26 483.69   Q 788.11 485.35 788.49 485.43   Z   M 726.8775 482.1207   A 45.78 42.16 -87.9 0 0 683.0683 526.3251   A 45.78 42.16 -87.9 0 0 723.5225 573.6193   A 45.78 42.16 -87.9 0 0 767.3317 529.4149   A 45.78 42.16 -87.9 0 0 726.8775 482.1207   Z"/>
<path xmlns="http://www.w3.org/2000/svg" fill="#333382" d="M 924.4803 473.0791   A 38.34 28.19 -92.9 0 1 954.5739 509.9438   A 38.34 28.19 -92.9 0 1 928.3597 549.6609   A 38.34 28.19 -92.9 0 1 898.2661 512.7962   A 38.34 28.19 -92.9 0 1 924.4803 473.0791   Z   M 935.2663 484.2721   A 11.65 10.07 -91.1 0 0 925.4219 496.1133   A 11.65 10.07 -91.1 0 0 935.7137 507.5679   A 11.65 10.07 -91.1 0 0 945.5581 495.7267   A 11.65 10.07 -91.1 0 0 935.2663 484.2721   Z"/>
<path xmlns="http://www.w3.org/2000/svg" fill="#333382" d="M 726.8775 482.1207   A 45.78 42.16 -87.9 0 1 767.3317 529.4149   A 45.78 42.16 -87.9 0 1 723.5225 573.6193   A 45.78 42.16 -87.9 0 1 683.0683 526.3251   A 45.78 42.16 -87.9 0 1 726.8775 482.1207   Z   M 736.7980 495.6893   A 13.70 13.41 -105.2 0 0 727.4491 512.4260   A 13.70 13.41 -105.2 0 0 743.9820 522.1307   A 13.70 13.41 -105.2 0 0 753.3309 505.3940   A 13.70 13.41 -105.2 0 0 736.7980 495.6893   Z"/>
<ellipse xmlns="http://www.w3.org/2000/svg" fill="#ffffff" cx="0.00" cy="0.00" transform="translate(935.49,495.92) rotate(-91.1)" rx="11.65" ry="10.07"/>
<ellipse xmlns="http://www.w3.org/2000/svg" fill="#ffffff" cx="0.00" cy="0.00" transform="translate(740.39,508.91) rotate(-105.2)" rx="13.70" ry="13.41"/>
<path xmlns="http://www.w3.org/2000/svg" fill="#333382" d="M 863.82 536.86   Q 872.86 537.59 883.75 540.49   Q 891.48 543.20 896.56 545.43   Q 927.28 558.93 946.71 584.61   Q 949.60 589.03 951.75 592.25   Q 957.12 600.36 959.78 610.34   Q 960.30 620.49 951.34 623.50   A 3.98 3.62 -54.1 0 1 950.53 623.67   C 942.90 624.32 936.78 624.35 929.58 625.41   Q 918.58 627.03 908.94 628.79   A 0.62 0.62 0.0 0 0 908.46 629.59   Q 912.96 643.24 914.66 658.21   C 916.03 670.26 914.96 681.19 905.05 688.18   C 892.69 696.92 874.90 694.50 861.33 689.58   Q 852.17 686.26 850.47 685.50   Q 840.05 680.85 833.39 674.08   Q 822.58 663.08 818.29 655.99   Q 812.07 645.71 809.20 635.01   Q 808.15 631.09 807.90 630.70   A 2.19 2.17 27.0 0 1 807.57 629.70   Q 807.40 627.44 806.52 625.85   A 1.05 1.03 26.1 0 1 806.40 625.51   Q 804.23 614.18 807.89 603.10   A 6.99 6.86 58.5 0 0 808.13 602.06   Q 808.82 597.26 810.64 592.13   Q 812.21 587.12 813.88 581.62   Q 816.07 574.40 822.40 560.69   Q 831.33 547.56 846.34 540.12   C 852.14 537.24 856.91 536.81 863.82 536.86   Z   M 852.84 558.94   Q 849.00 560.50 846.13 563.45   Q 838.51 572.17 833.99 583.98   Q 830.46 593.18 829.12 600.40   Q 828.23 603.47 827.81 606.26   Q 827.33 609.47 830.06 610.83   Q 843.86 618.21 858.82 617.71   Q 870.98 617.30 877.54 615.98   Q 882.64 614.95 886.17 613.71   A 0.07 0.07 0.0 0 0 886.19 613.58   Q 886.03 613.48 886.01 613.46   A 0.36 0.36 0.0 0 1 886.28 612.91   L 892.70 612.41   A 0.40 0.34 -49.7 0 0 892.82 612.39   Q 894.46 611.80 896.14 611.44   Q 899.81 610.66 899.85 610.64   Q 917.99 605.86 935.11 604.60   A 0.35 0.34 73.0 0 0 935.38 604.08   Q 926.80 589.53 913.97 579.25   C 910.55 576.52 904.65 572.79 901.03 570.51   Q 894.45 566.35 884.09 561.98   Q 873.01 557.30 859.51 557.07   Q 856.39 557.02 852.84 558.94   Z   M 887.86 613.27   A 0.09 0.09 0.0 0 0 887.77 613.18   A 0.09 0.09 0.0 0 0 887.68 613.27   A 0.09 0.09 0.0 0 0 887.77 613.36   A 0.09 0.09 0.0 0 0 887.86 613.27   Z   M 886.54 672.57   Q 884.60 667.98 881.11 662.94   Q 879.87 661.15 874.68 655.89   Q 870.64 651.78 867.39 649.66   C 860.22 644.98 852.30 641.86 843.75 640.62   Q 838.54 639.87 833.37 638.93   A 0.66 0.66 0.0 0 0 832.67 639.88   Q 836.60 647.41 841.40 653.35   C 852.16 666.66 869.02 673.67 886.00 673.39   A 0.59 0.59 0.0 0 0 886.54 672.57   Z"/>
<path xmlns="http://www.w3.org/2000/svg" fill="#e49154" d="M 830.06 610.83   Q 828.80 606.82 829.12 600.40   Q 830.46 593.18 833.99 583.98   Q 838.51 572.17 846.13 563.45   Q 851.08 562.46 852.84 558.94   Q 856.39 557.02 859.51 557.07   Q 873.01 557.30 884.09 561.98   Q 894.45 566.35 901.03 570.51   C 904.65 572.79 910.55 576.52 913.97 579.25   Q 926.80 589.53 935.38 604.08   A 0.35 0.34 73.0 0 1 935.11 604.60   Q 917.99 605.86 899.85 610.64   Q 899.81 610.66 896.14 611.44   Q 894.46 611.80 892.82 612.39   A 0.40 0.34 -49.7 0 1 892.70 612.41   L 886.28 612.91   A 0.36 0.36 0.0 0 0 886.01 613.46   Q 886.03 613.48 886.19 613.58   A 0.07 0.07 0.0 0 1 886.17 613.71   Q 882.64 614.95 877.54 615.98   Q 870.98 617.30 858.82 617.71   Q 843.86 618.21 830.06 610.83   Z"/>
<path xmlns="http://www.w3.org/2000/svg" fill="#f09e8c" d="M 852.84 558.94   Q 851.08 562.46 846.13 563.45   Q 849.00 560.50 852.84 558.94   Z"/>
<path xmlns="http://www.w3.org/2000/svg" fill="#f09e8c" d="M 830.06 610.83   Q 827.33 609.47 827.81 606.26   Q 828.23 603.47 829.12 600.40   Q 828.80 606.82 830.06 610.83   Z"/>
<path xmlns="http://www.w3.org/2000/svg" fill="#6d73ec" d="M 1310.95 615.54   L 1315.85 618.52   A 1.04 1.03 21.7 0 1 1316.32 619.60   L 1314.84 626.86   C 1305.76 637.02 1300.15 643.98 1290.24 649.46   Q 1279.91 655.17 1274.14 658.17   C 1268.49 661.11 1263.83 662.71 1257.66 665.24   Q 1255.07 666.31 1250.90 667.68   C 1235.03 672.90 1224.80 676.59 1210.40 678.66   Q 1205.40 679.37 1202.56 684.31   C 1199.15 690.22 1202.19 698.15 1208.82 700.38   C 1211.12 701.15 1213.27 700.92 1216.26 700.81   A 1.46 1.45 78.7 0 1 1217.66 701.75   Q 1220.42 709.10 1220.51 717.26   C 1220.55 721.10 1220.29 726.98 1219.13 731.19   C 1216.81 739.55 1212.79 746.95 1204.10 750.66   Q 1185.63 758.55 1165.77 756.46   C 1154.55 755.27 1146.54 753.02 1136.91 747.93   C 1131.68 745.16 1125.49 740.75 1127.21 734.16   A 2.10 2.10 0.0 0 1 1128.86 732.63   C 1136.36 731.28 1144.09 729.57 1151.04 726.59   C 1159.10 723.14 1169.14 719.70 1175.98 715.47   Q 1185.53 709.55 1192.09 700.03   Q 1198.87 690.21 1196.16 678.08   C 1191.48 657.10 1163.39 650.33 1145.43 649.28   Q 1139.23 648.92 1125.07 649.55   Q 1111.14 650.17 1104.75 651.04   C 1099.13 651.81 1087.68 653.75 1089.63 662.34   C 1090.62 666.69 1095.61 668.74 1099.88 668.90   C 1119.41 669.66 1138.18 670.03 1156.25 673.93   C 1160.03 674.74 1175.70 679.57 1173.85 685.09   C 1172.22 689.96 1166.00 694.46 1161.72 696.47   C 1152.32 700.89 1144.12 705.21 1133.23 707.70   Q 1111.84 712.59 1089.44 714.21   Q 1081.85 714.76 1079.39 716.22   Q 1074.11 719.36 1073.79 725.47   C 1073.51 730.86 1076.72 735.88 1081.92 737.09   C 1084.31 737.64 1088.50 737.79 1091.71 737.58   Q 1097.29 737.21 1102.53 736.82   A 1.14 1.14 0.0 0 1 1103.76 737.91   Q 1104.12 747.05 1109.72 753.93   A 1.92 1.90 -47.0 0 1 1109.79 756.24   C 1098.66 771.92 1097.01 792.67 1108.68 808.83   Q 1116.32 819.41 1127.59 826.22   A 0.59 0.59 0.0 0 1 1127.55 827.25   Q 1113.97 833.94 1102.27 837.68   Q 1091.52 841.12 1075.82 845.17   Q 1060.19 849.20 1048.99 851.04   Q 1018.11 856.12 987.37 853.64   A 0.84 0.84 0.0 0 1 986.67 852.47   Q 994.91 833.74 1001.16 815.45   Q 1003.40 808.89 1008.85 790.39   Q 1012.38 778.40 1015.03 764.93   Q 1020.79 735.70 1022.99 719.49   Q 1027.48 686.34 1026.67 651.88   A 0.76 0.75 88.0 0 1 1027.38 651.11   Q 1051.06 649.70 1075.48 645.61   C 1084.50 644.11 1097.29 641.93 1108.30 640.45   Q 1142.51 635.85 1160.22 632.39   Q 1175.39 629.43 1182.84 628.27   Q 1200.61 625.51 1205.25 624.56   C 1225.05 620.52 1245.88 616.97 1266.61 614.38   C 1281.39 612.53 1296.67 611.81 1310.95 615.54   Z"/>
<circle xmlns="http://www.w3.org/2000/svg" fill="#e49154" cx="887.77" cy="613.27" r="0.09"/>
<path xmlns="http://www.w3.org/2000/svg" fill="#605ed3" d="M 1314.84 626.86   L 1316.32 619.60   A 1.04 1.03 21.7 0 0 1315.85 618.52   L 1310.95 615.54   Q 1313.58 616.06 1315.69 617.56   C 1318.63 619.63 1316.95 624.92 1314.84 626.86   Z"/>
<path xmlns="http://www.w3.org/2000/svg" fill="#f09e8c" d="M 886.54 672.57   A 0.59 0.59 0.0 0 1 886.00 673.39   C 869.02 673.67 852.16 666.66 841.40 653.35   Q 836.60 647.41 832.67 639.88   A 0.66 0.66 0.0 0 1 833.37 638.93   Q 838.54 639.87 843.75 640.62   C 852.30 641.86 860.22 644.98 867.39 649.66   Q 870.64 651.78 874.68 655.89   Q 879.87 661.15 881.11 662.94   Q 884.60 667.98 886.54 672.57   Z"/>
<path xmlns="http://www.w3.org/2000/svg" fill="#605ed3" d="M 609.28 704.07   Q 605.24 707.60 605.88 712.88   Q 606.53 718.34 608.07 722.47   Q 612.25 733.76 614.16 746.29   Q 615.14 752.69 616.27 766.09   C 618.13 788.28 616.32 809.37 611.01 831.52   Q 610.18 834.99 606.54 846.59   Q 603.87 855.10 601.00 861.29   C 593.03 878.46 584.54 894.91 573.25 908.32   C 561.67 922.07 548.27 935.70 533.37 945.86   Q 523.90 952.32 511.45 959.54   Q 501.48 965.31 488.12 970.53   Q 437.36 990.39 382.26 986.91   Q 375.43 986.48 369.55 985.23   C 358.93 982.96 351.34 981.48 342.70 977.58   C 329.51 971.61 337.53 962.32 341.36 953.20   C 342.32 950.93 343.32 948.67 344.59 946.57   Q 364.96 912.94 380.53 876.94   C 388.97 857.40 395.60 837.78 400.29 818.56   Q 402.98 807.57 404.59 794.27   Q 406.18 781.13 406.69 760.17   Q 415.33 744.77 423.00 736.25   Q 431.48 726.82 435.38 722.88   Q 439.32 718.90 447.18 712.42   Q 457.69 703.75 467.13 698.54   C 486.50 687.85 507.00 680.22 529.09 677.96   Q 558.64 674.95 582.65 685.31   Q 596.50 691.29 609.28 704.07   Z"/>
<path xmlns="http://www.w3.org/2000/svg" fill="#fdcaab" d="M 989.41 772.45   Q 983.21 797.69 976.22 816.19   Q 972.98 824.79 963.05 847.73   C 956.19 851.98 953.48 860.25 952.90 867.81   Q 946.69 878.03 940.60 888.33   Q 933.23 900.83 922.94 913.43   Q 912.17 926.62 906.24 933.23   Q 886.98 954.67 864.18 971.36   C 848.01 983.20 836.75 991.34 821.40 999.36   Q 810.75 1004.93 796.24 1011.54   Q 781.81 1018.12 770.36 1022.11   Q 745.43 1030.80 722.77 1035.25   Q 678.68 1043.90 637.00 1044.05   Q 620.56 1044.10 598.57 1042.33   Q 600.18 1035.44 603.32 1025.78   Q 618.09 980.37 641.48 940.72   Q 674.38 884.95 714.10 845.11   C 731.83 827.32 753.57 809.00 776.46 794.98   Q 806.36 776.69 838.95 765.50   Q 861.44 757.78 888.11 754.13   C 895.75 753.09 905.44 752.86 914.74 752.73   Q 953.31 752.21 988.37 770.63   Q 989.90 771.43 989.41 772.45   Z"/>
<path xmlns="http://www.w3.org/2000/svg" fill="#f09e8c" d="M 358.73 866.78   A 3.46 3.44 47.3 0 1 358.63 869.47   L 351.54 884.48   A 0.53 0.53 0.0 0 1 350.64 884.58   Q 324.24 849.90 292.77 819.36   C 283.32 810.19 272.28 800.99 262.23 792.51   A 7.25 7.23 11.1 0 1 260.01 789.22   C 256.10 777.29 256.89 760.58 274.27 761.95   Q 275.91 762.08 280.42 763.41   C 292.12 766.88 303.93 777.61 311.91 786.82   Q 326.65 803.82 336.28 821.46   Q 337.73 824.11 347.97 843.25   Q 354.24 854.96 358.73 866.78   Z"/>
<path xmlns="http://www.w3.org/2000/svg" fill="#6d73ec" d="M 1126.77 793.77   Q 1125.87 792.84 1125.75 792.43   Q 1122.43 781.32 1126.94 770.69   A 0.73 0.73 0.0 0 1 1127.92 770.31   Q 1150.74 780.71 1176.24 780.14   Q 1187.42 779.89 1198.99 777.19   A 0.70 0.70 0.0 0 1 1199.81 778.11   Q 1196.85 786.21 1192.20 791.88   Q 1189.07 795.69 1183.01 800.83   Q 1177.53 805.48 1172.03 807.26   C 1158.05 811.79 1143.63 810.99 1132.08 801.21   Q 1128.26 797.98 1127.20 794.50   A 1.86 1.78 -76.7 0 0 1126.77 793.77   Z"/>
<path xmlns="http://www.w3.org/2000/svg" fill="#f7b298" d="M 328.11 929.07   A 1.28 1.27 -64.3 0 1 326.55 929.63   C 311.47 923.82 301.29 918.78 282.68 910.02   C 259.86 899.29 240.68 888.53 220.14 875.59   Q 198.80 862.14 178.73 843.50   C 167.44 833.02 156.66 820.52 150.28 806.48   C 145.96 796.97 144.19 786.24 154.15 779.30   C 163.21 772.99 173.36 773.59 183.93 776.38   Q 199.65 780.53 212.66 788.04   Q 238.12 802.75 259.05 820.64   Q 267.90 828.21 282.51 842.51   Q 296.08 855.80 304.57 865.61   Q 319.89 883.30 332.47 899.57   Q 336.52 904.80 338.37 908.25   A 3.23 3.21 45.9 0 1 338.33 911.38   L 328.11 929.07   Z"/>
<path xmlns="http://www.w3.org/2000/svg" fill="#fbd7be" d="M 963.05 847.73   L 952.90 867.81   C 953.48 860.25 956.19 851.98 963.05 847.73   Z"/>
<path xmlns="http://www.w3.org/2000/svg" fill="#f09e8c" d="M 311.63 972.42   Q 310.91 972.65 308.49 972.64   Q 307.67 972.64 285.60 971.53   Q 272.90 970.89 262.82 969.44   Q 241.08 966.32 224.28 962.66   Q 208.03 959.12 188.61 951.87   C 168.74 944.46 148.75 932.86 136.17 915.69   C 130.66 908.16 129.51 900.17 137.21 893.56   C 144.32 887.43 153.31 885.18 162.49 885.23   Q 179.95 885.33 195.56 889.21   C 199.16 890.10 202.60 891.71 206.01 894.00   C 213.13 898.78 219.92 903.50 227.32 907.56   Q 258.11 924.48 271.64 931.11   C 285.40 937.84 300.67 943.55 314.86 950.45   A 1.72 1.72 0.0 0 1 315.67 952.73   C 313.70 956.94 312.27 961.58 312.34 966.32   Q 312.41 970.84 312.37 971.48   A 1.07 1.06 -6.9 0 1 311.63 972.42   Z"/>
<path xmlns="http://www.w3.org/2000/svg" fill="#f09e8c" d="M 763.99 1049.86   Q 766.29 1069.48 767.04 1083.79   Q 767.35 1089.85 768.63 1091.91   Q 771.05 1095.78 775.21 1096.65   Q 788.50 1099.44 802.09 1106.18   C 810.09 1110.15 818.97 1116.22 819.48 1125.61   C 820.11 1137.24 809.63 1135.75 802.35 1132.98   C 794.93 1130.15 781.45 1123.08 771.45 1120.24   Q 756.66 1116.05 741.95 1115.37   C 735.15 1115.05 726.18 1116.28 719.21 1115.56   Q 715.90 1115.22 714.05 1113.17   C 711.01 1109.80 716.94 1104.10 719.51 1102.50   Q 729.42 1096.30 737.45 1090.23   Q 739.86 1088.41 740.92 1083.44   Q 744.15 1068.38 745.70 1054.83   A 1.30 1.29 -3.9 0 1 746.67 1053.72   L 763.30 1049.39   A 0.56 0.55 -10.4 0 1 763.99 1049.86   Z"/>
<path xmlns="http://www.w3.org/2000/svg" fill="#f09e8c" d="M 584.67 1064.44   L 601.81 1066.36   A 0.44 0.43 -89.3 0 1 602.19 1066.76   Q 603.84 1084.18 603.66 1097.22   C 603.53 1106.18 604.32 1112.46 613.48 1114.58   C 627.12 1117.74 642.95 1123.71 651.42 1135.07   C 653.82 1138.30 655.94 1147.06 652.09 1150.34   C 648.49 1153.42 643.26 1152.35 639.18 1150.59   Q 621.28 1142.85 615.22 1140.28   Q 597.73 1132.88 580.00 1132.26   C 572.22 1131.98 562.50 1132.73 554.10 1131.14   Q 551.62 1130.68 550.18 1128.43   C 546.19 1122.15 565.72 1111.79 569.76 1109.50   Q 576.50 1105.69 578.32 1097.52   Q 582.18 1080.11 583.75 1065.18   A 0.83 0.83 0.0 0 1 584.67 1064.44   Z"/>
</g></g></g></g></svg>