<svg xmlns="http://www.w3.org/2000/svg" direction="ltr" width="2048" height="2048" viewBox="12549.310695450713 26121.591492410906 2048 2048" stroke-linecap="round" stroke-linejoin="round" data-color-mode="light" class="tl-container tl-theme__force-sRGB tl-theme__light" style="background-color: transparent;"><defs/><g transform="matrix(1, 0, 0, 1, 12549.3107, 26121.5915)" opacity="1"><g data-lovart-layer-name="SVG 21"><g transform="scale(1.4143646408839778, 1.4143646408839778)"><g>
<g xmlns="http://www.w3.org/2000/svg" stroke-width="2.00" fill="none" stroke-linecap="butt">
<path stroke="#9596b7" d="M 255.16 909.89   C 238.92 909.57 220.93 913.28 208.62 924.65   C 190.74 941.18 194.26 964.78 208.98 981.54   C 225.28 1000.09 246.89 1011.79 270.70 1021.54   Q 302.29 1034.48 337.81 1042.95   Q 375.77 1052.00 411.67 1056.26   Q 447.80 1060.54 491.23 1061.36   C 502.76 1061.58 514.41 1061.09 525.29 1060.48   A 3.14 3.10 62.3 0 1 527.42 1061.16   Q 536.73 1068.63 549.19 1075.28   Q 566.55 1084.55 574.14 1088.42   A 0.93 0.92 36.4 0 1 574.37 1089.91   C 566.08 1098.09 559.97 1107.53 557.56 1119.27   Q 552.86 1142.13 568.61 1158.85   C 580.32 1171.29 597.57 1174.22 613.23 1168.30   C 615.29 1167.52 616.47 1166.66 618.73 1165.29   A 0.95 0.93 -38.3 0 1 619.86 1165.41   C 629.74 1174.84 645.15 1178.57 658.24 1174.73   Q 677.49 1169.09 684.95 1152.20   C 689.48 1141.94 689.70 1132.23 686.27 1121.58   A 0.60 0.59 -4.9 0 1 686.92 1120.81   Q 730.19 1126.54 773.35 1120.27   A 0.75 0.74 5.5 0 1 774.16 1121.25   Q 768.47 1138.04 775.89 1153.43   Q 780.73 1163.45 789.03 1168.91   C 798.79 1175.33 810.16 1177.87 821.58 1175.12   C 828.66 1173.42 835.26 1170.72 840.00 1165.74   A 1.43 1.43 0.0 0 1 841.72 1165.48   C 857.31 1174.12 876.68 1173.14 889.72 1160.67   C 906.81 1144.34 907.76 1120.31 895.20 1101.01   Q 890.50 1093.78 883.59 1087.65   A 0.57 0.57 0.0 0 1 883.70 1086.72   Q 899.10 1078.47 903.26 1076.32   Q 911.63 1071.99 922.09 1064.78   Q 955.52 1041.74 982.49 1014.46   A 3.48 3.48 0.0 0 1 983.93 1013.58   C 992.47 1010.92 1002.06 1008.07 1010.37 1004.55   Q 1027.91 997.13 1044.66 985.89   Q 1074.21 966.07 1096.93 939.70   C 1104.77 930.60 1114.82 918.33 1121.46 907.22   C 1126.95 898.05 1133.16 887.06 1138.00 876.89   Q 1147.07 857.81 1152.78 835.18   Q 1158.66 811.86 1159.08 791.44   Q 1159.54 768.71 1155.37 746.09   Q 1152.48 730.44 1143.94 713.11   Q 1137.49 700.02 1132.40 691.89   C 1126.01 681.68 1116.52 671.88 1106.10 663.24   A 1.67 1.65 -72.1 0 1 1105.50 662.05   Q 1102.15 598.66 1083.92 537.66   C 1078.51 519.58 1070.47 500.64 1063.13 484.12   Q 1059.17 475.18 1056.43 470.31   C 1051.94 462.31 1044.98 449.43 1038.97 439.97   Q 1011.62 396.92 973.87 362.10   C 962.88 351.96 951.70 343.64 940.49 335.43   Q 931.69 328.99 921.04 322.26   Q 853.19 279.41 770.45 269.54   Q 719.93 263.52 673.24 270.94   C 658.22 273.33 645.43 275.40 631.72 279.23   Q 612.89 284.49 591.55 292.35   Q 578.09 297.30 564.42 304.42   C 544.95 314.57 529.55 322.95 514.31 334.32   C 504.03 341.99 496.32 347.32 487.72 354.79   C 470.73 369.55 455.39 384.96 441.31 402.51   Q 431.17 415.16 426.39 421.88   Q 388.16 475.68 368.65 538.36   Q 360.81 563.55 356.50 586.65   C 351.83 611.73 348.36 635.44 347.29 661.61   A 3.59 3.55 70.1 0 1 346.14 664.10   Q 341.43 668.43 335.55 674.54   C 322.90 687.69 313.43 704.18 306.41 721.51   Q 298.93 739.97 296.54 760.61   C 295.20 772.12 294.38 785.80 295.72 798.24   A 0.66 0.65 -80.3 0 1 294.79 798.90   C 280.82 792.31 266.35 788.01 250.97 787.66   Q 235.03 787.30 221.71 796.78   C 213.31 802.76 208.35 812.38 206.30 822.37   C 204.29 832.17 206.50 843.73 210.20 852.59   Q 215.46 865.20 224.84 878.07   Q 229.65 884.68 239.49 894.22   Q 247.65 902.13 255.46 909.13   A 0.44 0.43 -23.6 0 1 255.16 909.89"/>
<path stroke="#6467ab" d="M 531.36 1039.94   Q 540.53 1047.00 550.71 1052.39   Q 557.42 1055.95 561.16 1058.42   Q 576.37 1068.47 592.49 1074.71   Q 610.35 1081.62 613.99 1083.19   C 628.98 1089.64 644.23 1092.75 662.06 1096.55   C 696.02 1103.78 730.85 1104.87 765.57 1101.10   Q 779.52 1099.58 795.79 1095.75   Q 820.35 1089.96 825.57 1088.30   C 831.34 1086.48 835.54 1085.35 840.88 1083.10   Q 856.39 1076.57 866.16 1072.56   C 874.76 1069.02 882.53 1064.93 890.22 1060.23   Q 890.30 1060.18 916.29 1044.55   Q 920.87 1041.79 931.10 1033.76"/>
<path stroke="#4e50a5" d="M 931.10 1033.76   L 935.87 1030.34   A 1.81 1.65 2.6 0 0 936.11 1030.14   Q 945.95 1020.46 955.05 1012.56   Q 963.41 1005.30 966.10 1002.61   Q 974.55 994.17 976.33 991.83   Q 985.25 980.14 991.91 972.69   Q 998.44 965.39 1001.71 960.55   Q 1015.79 939.71 1021.72 930.20   Q 1027.89 920.31 1041.24 893.38   Q 1048.64 878.44 1054.75 861.62   Q 1062.96 839.01 1065.87 828.94   Q 1086.30 758.25 1085.55 679.53   Q 1085.48 672.73 1084.60 660.50   Q 1084.25 655.68 1083.12 641.49   Q 1081.80 625.00 1079.90 608.82   Q 1079.38 604.43 1076.15 590.61   Q 1074.50 583.54 1072.35 572.75   C 1069.33 557.64 1063.50 541.67 1059.53 529.57   Q 1059.21 528.60 1056.65 520.01   Q 1053.74 510.28 1048.83 501.30   Q 1044.18 492.82 1044.17 492.80   Q 1043.38 491.71 1036.47 477.00   Q 1035.43 474.79 1030.11 464.43   Q 1026.86 458.11 1022.75 452.46   C 1016.71 444.14 1006.17 426.61 995.77 414.87   C 988.19 406.32 981.30 398.14 975.51 391.75   Q 969.47 385.08 956.12 374.09   Q 953.22 371.70 952.14 370.66   Q 950.31 368.89 948.20 367.16   Q 947.72 366.77 942.22 362.02   Q 931.25 352.54 926.49 349.79   Q 912.63 341.78 900.68 333.46   Q 897.45 331.22 896.67 330.84   C 892.96 329.03 890.22 326.93 885.85 325.06   Q 875.61 320.67 869.09 317.65   C 861.77 314.26 854.64 311.59 849.65 309.45   C 833.77 302.65 819.21 299.53 801.47 295.43   Q 787.68 292.24 778.01 290.94   Q 722.59 283.52 672.06 291.60   Q 657.02 294.00 626.02 301.81   Q 618.40 303.73 616.19 304.68   Q 611.70 306.61 606.68 308.45   Q 603.59 309.58 589.88 315.60   C 581.30 319.37 570.71 322.91 561.45 327.78   C 555.01 331.17 547.06 337.72 541.40 340.89   Q 531.80 346.27 529.18 347.64   C 521.15 351.86 514.68 357.91 508.21 364.29   Q 503.83 368.61 500.06 371.41   Q 490.35 378.60 484.47 384.44   Q 478.36 390.50 477.01 392.27   C 473.07 397.40 467.47 403.10 462.88 408.72   Q 460.70 411.38 457.12 414.70   C 454.97 416.69 453.64 418.85 451.26 421.51   Q 449.32 423.66 447.32 426.98   Q 439.06 440.59 429.02 454.13   Q 424.21 460.62 421.17 466.29   Q 418.37 471.49 414.87 479.37   Q 412.15 485.48 403.39 502.98   C 396.46 516.83 392.38 532.10 388.62 542.79   Q 384.50 554.54 381.50 567.39   Q 374.90 595.66 372.93 608.58   Q 366.78 648.80 367.18 696.48   Q 367.25 705.51 368.46 722.23   Q 369.98 743.45 370.60 747.94   C 374.11 773.26 378.66 797.75 385.60 822.02   Q 390.65 839.67 394.95 851.81   Q 403.05 874.68 415.61 901.14   Q 416.99 904.06 425.12 917.92   Q 425.15 917.97 426.26 919.65   Q 428.00 922.26 429.34 925.22   Q 431.69 930.36 438.13 940.75   C 443.67 949.67 451.62 958.36 458.04 967.69   Q 463.37 975.44 467.48 980.10   C 476.84 990.72 486.10 1000.23 496.03 1010.21   Q 505.57 1019.79 519.29 1029.95   Q 521.69 1031.72 525.34 1034.92   Q 528.30 1037.51 531.36 1039.94"/>
<path stroke="#878be2" d="M 931.10 1033.76   C 928.13 1022.94 923.78 1012.35 919.35 1001.42   C 898.08 948.97 856.12 905.29 803.78 884.31   C 748.07 861.99 684.48 867.18 632.78 898.12   Q 577.43 931.25 548.88 991.76   Q 541.50 1007.39 538.15 1020.31   Q 535.88 1029.05 533.21 1034.59   A 4.33 4.08 65.1 0 0 532.91 1035.49   Q 532.46 1037.65 531.36 1039.94"/>
<path stroke="#6467ab" d="M 1105.66 692.14   C 1105.39 694.05 1105.88 696.17 1105.90 698.37   Q 1105.98 707.93 1105.22 714.95   Q 1104.47 721.92 1103.82 731.14   C 1101.21 768.64 1094.24 806.22 1082.70 842.42   C 1077.81 857.78 1073.84 870.88 1067.43 884.61   Q 1064.27 891.37 1060.50 899.71   Q 1052.14 918.20 1049.56 922.55   Q 1038.12 941.85 1031.82 952.58   Q 1026.96 960.87 1016.02 973.65   A 0.29 0.24 85.3 0 0 1015.97 973.72   L 1011.16 981.00   A 0.42 0.42 0.0 0 0 1011.67 981.62   C 1018.05 979.06 1022.90 976.74 1028.56 972.62   C 1033.85 968.78 1036.68 966.54 1041.24 963.61   Q 1050.02 957.97 1055.19 953.20   C 1060.33 948.46 1068.13 940.55 1075.65 933.06   C 1084.06 924.67 1090.89 916.98 1096.69 906.95   Q 1098.40 904.00 1106.45 892.64   C 1111.51 885.50 1114.57 880.42 1118.00 873.02   Q 1121.40 865.69 1124.80 855.66   Q 1127.50 847.71 1128.73 844.67   C 1132.90 834.38 1135.56 824.15 1136.93 813.49   C 1139.91 790.33 1139.80 769.33 1134.68 747.64   Q 1131.53 734.31 1126.84 722.61   Q 1123.18 713.45 1119.66 708.82   Q 1114.24 701.69 1106.81 691.84   A 0.64 0.64 0.0 0 0 1105.66 692.14"/>
<path stroke="#6467ab" d="M 346.48 692.69   C 340.80 699.30 337.62 704.85 330.82 715.55   C 327.70 720.46 324.72 727.21 323.42 731.46   Q 316.69 753.42 314.92 776.24   C 313.71 791.88 315.75 804.18 318.38 821.37   Q 320.00 832.00 324.24 842.02   C 325.27 844.45 326.14 847.59 326.78 849.23   C 331.05 860.19 334.47 871.46 340.66 881.60   Q 352.46 900.96 366.11 919.37   Q 375.54 932.08 387.35 942.13   Q 394.05 947.84 396.77 950.31   Q 404.82 957.63 408.74 960.96   Q 416.24 967.33 423.01 970.88   Q 433.00 976.11 441.01 980.63   A 0.49 0.49 0.0 0 0 441.74 980.21   Q 441.74 979.84 441.38 979.45   Q 435.88 973.60 432.20 967.75   C 426.45 958.60 420.51 950.51 415.60 943.29   Q 414.67 941.91 413.48 939.74   C 411.83 936.71 409.82 933.77 408.29 930.72   Q 401.10 916.44 396.87 908.16   Q 386.14 887.15 377.78 864.03   Q 365.78 830.89 358.67 798.35   Q 354.69 780.10 351.65 757.05   Q 348.74 735.02 347.45 715.37   Q 346.71 704.06 347.44 693.09   A 0.55 0.55 0.0 0 0 346.48 692.69"/>
<path stroke="#6467ab" d="M 378.64 961.77   Q 374.28 957.70 374.15 957.57   Q 363.21 946.42 340.85 920.15   Q 340.55 919.80 334.57 911.05   Q 331.62 906.73 329.01 901.49   Q 324.13 891.68 317.65 879.94   Q 311.80 869.36 309.34 862.56   Q 306.03 853.40 303.96 844.12   C 302.56 837.84 300.12 831.68 298.57 824.95   A 4.36 4.36 0.0 0 0 296.36 822.08   C 288.62 817.97 282.17 814.14 274.56 812.05   Q 261.05 808.33 253.17 807.69   Q 235.07 806.23 227.01 822.18   Q 224.27 827.60 225.34 833.73   C 227.58 846.59 234.01 856.78 242.47 866.52   Q 245.04 869.47 252.32 879.02   Q 252.96 879.85 260.55 887.19   Q 263.84 890.38 269.23 894.36   Q 277.19 900.24 285.37 907.61   Q 289.96 911.73 293.37 914.06   Q 301.06 919.28 301.65 919.61   Q 319.71 929.72 333.80 939.00   C 338.20 941.90 344.20 944.86 347.55 946.84   Q 352.96 950.05 357.99 952.45   Q 362.27 954.49 378.38 962.15   A 0.23 0.23 0.0 0 0 378.64 961.77"/>
<path stroke="#4e50a5" d="M 499.60 1041.38   A 0.39 0.39 0.0 0 0 499.85 1040.71   L 481.05 1022.96   A 8.24 8.21 73.9 0 0 477.49 1020.99   Q 448.50 1013.43 419.90 1002.33   Q 413.30 999.77 404.71 995.61   Q 399.22 992.96 389.55 988.84   Q 372.63 981.65 361.70 976.06   Q 351.69 970.93 334.60 961.19   C 326.76 956.71 322.78 954.72 315.14 950.72   C 306.50 946.19 300.33 941.84 292.27 936.77   C 285.36 932.42 278.01 931.06 269.54 930.18   Q 262.19 929.43 247.17 930.62   Q 234.64 931.61 224.21 937.10   Q 219.62 939.51 216.91 946.21   A 3.41 3.40 -34.4 0 0 216.66 947.54   Q 216.71 953.87 218.19 957.56   Q 220.27 962.74 224.48 969.51   Q 225.05 970.43 231.02 975.98   Q 233.72 978.49 238.26 981.44   C 247.33 987.34 256.28 991.94 266.04 997.51   Q 270.98 1000.32 277.65 1003.09   Q 287.36 1007.13 299.27 1011.20   C 315.96 1016.91 332.28 1020.21 351.63 1025.72   Q 359.05 1027.84 366.75 1029.16   Q 401.57 1035.15 432.51 1038.36   C 439.58 1039.10 445.39 1039.35 451.43 1040.06   C 467.10 1041.91 482.47 1041.95 499.60 1041.38"/>
<path stroke="#8d6568" d="M 833.93 1143.05   C 837.57 1140.47 842.66 1140.69 846.15 1143.81   C 848.59 1146.00 850.37 1147.76 853.02 1149.04   Q 860.03 1152.42 868.40 1150.09   Q 880.38 1146.76 882.68 1134.36   C 885.88 1117.05 876.52 1106.64 863.53 1097.58   A 3.60 3.58 52.4 0 0 860.28 1097.15   Q 844.45 1102.87 825.99 1109.24   Q 813.65 1113.50 800.02 1115.48   Q 798.05 1115.77 797.02 1117.77   Q 794.46 1122.70 793.18 1126.63   C 789.92 1136.73 793.13 1148.60 802.71 1153.89   C 811.87 1158.94 823.69 1155.96 830.04 1147.63   Q 832.05 1144.99 833.16 1143.74   A 4.35 4.11 1.6 0 1 833.93 1143.05"/>
<path stroke="#8d6568" d="M 662.02 1116.83   Q 660.34 1116.27 658.67 1115.98   Q 637.91 1112.47 629.10 1109.38   Q 612.87 1103.69 599.32 1099.40   Q 596.67 1098.56 593.85 1100.38   C 582.39 1107.78 574.52 1120.49 577.40 1134.11   Q 580.15 1147.10 593.01 1150.67   Q 599.92 1152.59 608.04 1148.61   C 612.09 1146.63 614.51 1142.32 618.91 1141.65   Q 623.19 1140.99 626.33 1143.16   A 3.05 2.98 88.0 0 1 627.01 1143.81   Q 628.63 1145.92 632.03 1149.63   Q 637.18 1155.27 645.30 1156.41   Q 653.18 1157.52 659.55 1152.59   C 671.06 1143.68 670.46 1129.03 663.21 1117.75   A 2.26 2.24 -7.1 0 0 662.02 1116.83"/>
<path stroke="#4e50a5" d="M 516.74 383.26   Q 513.36 387.49 511.84 391.32   C 509.92 396.14 511.79 401.30 516.40 403.66   C 521.88 406.47 527.21 403.82 531.02 399.78   Q 536.53 393.94 540.02 390.50   Q 545.14 385.46 548.84 383.58   C 558.58 378.65 569.97 377.05 580.59 378.44   Q 588.99 379.54 589.25 379.56   C 596.09 380.15 601.62 374.14 600.02 367.19   C 598.24 359.49 591.60 357.97 584.61 357.12   Q 573.26 355.73 562.12 357.28   Q 554.13 358.39 546.83 362.10   Q 533.07 369.10 522.88 376.87   Q 520.25 378.87 516.74 383.26"/>
<path stroke="#4e50a5" d="M 941.80 403.79   C 955.99 395.34 937.58 378.23 930.57 373.28   C 922.04 367.25 911.29 361.22 901.00 358.57   Q 886.65 354.87 869.81 358.04   C 863.79 359.17 858.24 361.62 857.41 368.29   C 856.65 374.38 862.71 381.01 869.03 379.63   Q 879.48 377.33 891.16 378.49   C 903.59 379.71 913.73 385.56 922.28 394.18   C 926.50 398.43 930.55 405.54 938.58 404.76   Q 940.47 404.58 941.80 403.79"/>
<path stroke="#878be2" d="M 704.45 515.02   C 702.94 508.72 699.43 503.95 697.02 497.86   Q 695.13 493.09 692.53 488.95   Q 685.42 477.60 677.96 467.78   Q 667.89 454.51 655.26 444.44   Q 651.32 441.30 645.06 437.39   C 637.80 432.85 634.52 430.52 628.36 426.96   Q 625.12 425.09 610.78 419.57   C 604.09 416.99 599.49 416.39 591.36 414.45   Q 583.13 412.49 576.50 412.39   Q 561.88 412.18 554.12 413.13   C 547.65 413.92 534.42 414.73 526.42 417.39   C 518.95 419.87 512.92 421.57 505.05 425.77   C 495.08 431.07 483.67 436.41 475.12 443.36   Q 473.19 444.93 465.74 452.32   Q 461.91 456.12 456.94 461.85   Q 448.61 471.45 447.10 473.35   Q 438.51 484.12 433.52 494.77   Q 430.96 500.22 428.39 506.20   C 424.17 515.99 421.25 525.73 419.01 536.02   Q 416.97 545.38 416.48 553.14   C 415.83 563.51 415.09 573.64 416.36 583.73   C 417.67 594.10 419.42 605.56 423.02 616.08   C 426.90 627.43 429.90 635.41 434.06 642.95   Q 440.51 654.64 451.31 668.52   Q 461.43 681.52 472.71 690.62   C 493.06 707.06 517.71 719.20 543.64 722.91   C 569.03 726.55 593.37 723.34 617.86 714.33   Q 622.27 712.71 633.34 706.50   C 636.16 704.92 638.77 703.85 640.89 702.66   A 8.39 8.39 0.0 0 0 642.06 701.84   C 645.20 699.20 648.01 697.49 650.59 694.99   Q 653.60 692.06 657.59 689.41   C 659.88 687.88 663.20 685.20 664.76 683.26   Q 668.37 678.76 674.93 671.02   C 676.99 668.59 679.12 666.92 681.11 664.84   A 4.38 4.12 84.5 0 0 681.69 664.09   Q 689.86 651.26 697.97 635.64   Q 699.56 632.59 700.32 629.94   C 701.88 624.60 703.01 619.83 705.03 615.19   Q 705.65 613.76 708.83 605.35   Q 709.76 602.90 711.11 594.90   Q 711.76 591.03 711.99 585.56   Q 712.10 583.03 712.97 576.24   Q 714.45 564.60 712.11 549.92   C 711.61 546.80 710.40 543.61 709.85 540.61   Q 707.34 527.10 704.45 515.02"/>
<path stroke="#878be2" d="M 819.62 698.86   L 819.98 699.34   A 1.53 1.38 2.2 0 0 820.32 699.67   Q 821.44 700.44 826.64 703.10   C 832.59 706.15 839.05 710.71 844.09 712.91   C 856.91 718.51 871.23 722.35 885.35 723.67   C 909.81 725.97 935.95 722.52 958.22 712.16   Q 972.29 705.61 985.02 695.97   C 995.34 688.14 1003.89 681.10 1011.81 671.16   Q 1020.61 660.12 1029.37 645.77   Q 1032.82 640.12 1035.66 632.70   Q 1040.87 619.09 1041.98 616.24   C 1044.28 610.35 1044.96 604.21 1046.30 597.51   Q 1047.82 589.85 1048.15 584.87   Q 1049.16 569.66 1048.69 562.98   Q 1047.91 552.09 1047.62 546.11   Q 1047.44 542.43 1046.82 539.37   C 1045.66 533.66 1045.52 529.35 1043.78 524.43   Q 1043.55 523.77 1041.38 516.40   A 4.07 4.00 -69.2 0 0 1040.95 515.42   Q 1036.78 508.66 1031.98 497.68   Q 1026.53 485.21 1017.96 473.38   C 1011.92 465.04 1002.03 456.34 995.58 448.92   Q 991.85 444.63 989.41 443.08   Q 983.55 439.36 977.61 434.88   A 5.31 5.26 -13.3 0 0 976.76 434.36   Q 972.16 432.07 965.63 428.40   Q 962.08 426.39 946.19 419.83   C 936.71 415.91 927.76 413.68 919.25 413.38   Q 918.22 413.34 903.00 412.78   C 899.25 412.64 893.93 413.67 890.34 413.35   Q 889.43 413.27 883.56 412.95   A 21.20 20.79 42.4 0 0 879.68 413.09   Q 873.33 413.92 863.88 416.41   C 857.75 418.03 852.22 419.40 847.34 421.87   C 841.15 425.00 834.04 427.58 827.73 431.82   Q 820.73 436.53 814.75 440.78   Q 801.45 450.25 790.27 462.82   C 784.69 469.09 779.08 477.25 775.53 483.50   Q 769.40 494.28 762.46 509.71   C 759.94 515.32 758.03 521.79 756.97 525.50   Q 753.62 537.22 753.18 549.75   Q 752.91 557.60 752.46 564.50   Q 751.99 571.53 753.06 582.98   C 753.47 587.41 752.58 593.97 753.77 598.60   Q 754.03 599.61 756.68 606.24   Q 760.05 614.64 760.20 617.68   Q 760.71 627.53 767.71 635.62   A 1.65 1.60 -77.7 0 1 768.02 636.12   Q 769.01 638.54 770.34 640.37   A 3.32 3.26 15.5 0 1 770.75 641.08   Q 773.18 646.78 774.61 650.88   Q 775.29 652.86 776.31 653.28   A 0.35 0.31 82.4 0 1 776.47 653.42   L 781.68 661.74   A 2.38 2.11 -86.6 0 0 781.90 662.02   Q 789.07 669.53 790.27 671.24   Q 795.69 678.93 800.20 682.52   Q 807.53 688.35 809.27 690.19   C 811.91 692.99 815.91 697.75 818.61 698.24   A 1.61 1.60 -13.2 0 1 819.62 698.86"/>
<path stroke="#4e50a5" d="M 749.61 636.21   Q 745.47 634.17 743.61 633.82   C 732.96 631.84 719.91 633.18 711.24 640.50   Q 706.91 644.15 703.42 646.76   C 700.71 648.78 698.45 651.28 696.76 653.77   Q 691.36 661.74 684.98 671.86   Q 682.65 675.55 682.14 676.69   C 680.25 680.94 677.96 684.40 676.01 689.25   Q 668.12 708.96 662.36 731.52   C 659.90 741.18 658.58 749.95 656.74 758.61   C 652.89 776.82 651.74 794.91 651.52 814.52   C 651.41 823.52 651.56 830.95 658.20 836.08   C 662.69 839.56 668.60 839.10 674.00 838.20   Q 730.40 828.76 787.22 836.87   C 792.50 837.62 797.69 839.43 803.99 838.67   C 812.87 837.60 816.98 828.70 817.11 820.33   C 817.48 797.29 815.09 775.59 810.85 752.92   Q 807.68 735.98 804.99 726.40   Q 804.03 722.97 800.56 712.96   Q 798.56 707.19 796.69 699.31   Q 796.02 696.50 791.46 688.31   Q 790.50 686.59 787.29 678.12   C 784.22 670.05 778.55 662.94 773.67 655.89   Q 769.09 649.28 765.68 646.14   C 761.59 642.38 755.40 639.06 749.61 636.21"/>
<path stroke="#6467ab" d="M 512.72 690.17   Q 518.66 692.85 524.77 695.21   Q 530.78 697.53 537.27 698.82   Q 542.63 699.88 551.00 701.62   C 564.74 704.48 579.69 705.14 594.17 702.29   Q 608.00 699.58 609.65 699.16   C 617.29 697.21 626.60 692.04 633.59 688.97   C 639.79 686.23 644.44 683.73 650.13 678.77   Q 653.28 676.02 658.29 672.47   C 663.79 668.58 668.08 664.58 671.65 659.89   Q 676.78 653.16 680.86 648.62   Q 685.91 643.02 689.51 635.78   C 695.69 623.37 700.37 615.15 702.75 604.26   Q 704.39 596.80 706.55 584.81   Q 707.66 578.67 707.64 572.00   Q 707.61 560.48 707.25 552.46   Q 706.81 542.57 705.58 537.14   C 702.80 524.86 697.90 514.16 692.52 502.30   Q 686.71 489.47 681.96 483.27   Q 675.62 475.00 669.59 469.14   Q 664.81 464.50 655.45 456.80   Q 646.63 449.55 638.23 444.28   Q 632.20 440.51 624.47 437.78   C 615.29 434.53 608.30 432.11 600.21 430.75   C 594.46 429.79 588.09 428.21 581.93 427.71   C 570.18 426.77 558.55 426.71 547.53 429.90   C 535.00 433.54 520.16 437.54 508.56 443.16   A 3.98 3.65 10.6 0 0 507.82 443.62   Q 505.57 445.35 501.69 447.47   C 498.55 449.18 495.05 453.00 491.88 455.30   Q 484.98 460.33 475.71 468.89   Q 471.33 472.94 468.23 477.03   Q 463.25 483.62 461.83 486.06   Q 453.89 499.72 447.49 513.17   Q 441.28 526.21 439.14 542.63   Q 437.67 553.85 437.52 557.18   C 437.14 565.90 436.70 573.78 437.92 582.38   C 439.42 592.97 440.88 602.12 444.81 611.03   C 447.46 617.06 450.54 626.14 454.69 633.70   Q 460.29 643.90 460.31 643.93   Q 462.30 647.04 467.32 653.39   Q 469.01 655.54 475.71 661.58   Q 480.21 665.65 485.67 670.82   Q 487.53 672.57 497.26 680.60   C 500.01 682.86 503.32 684.99 505.95 686.54   Q 510.11 688.99 512.72 690.17"/>
<path stroke="#878be2" d="M 980.90 669.74   Q 989.13 663.48 995.15 654.96"/>
<path stroke="#6467ab" d="M 995.15 654.96   Q 1005.46 644.63 1010.12 634.87   Q 1015.34 623.91 1019.80 612.64   C 1022.54 605.71 1023.67 597.68 1025.09 592.31   C 1028.09 580.92 1028.14 570.34 1027.54 558.46   Q 1027.32 554.22 1026.09 547.10   Q 1024.51 537.89 1024.27 535.78   C 1023.06 525.14 1020.19 515.42 1015.76 506.76   Q 1013.98 503.28 1000.70 482.50   C 996.38 475.74 991.76 469.95 986.44 465.32   Q 985.10 464.15 972.11 454.44   Q 972.09 454.42 963.33 447.87   Q 958.83 444.51 954.06 441.81   C 946.01 437.25 936.29 434.94 927.07 432.95   Q 923.06 432.08 919.30 430.91   Q 907.39 427.20 895.52 427.08   Q 884.65 426.98 878.03 428.10   Q 874.37 428.72 854.57 433.31   Q 850.26 434.30 831.78 442.07   Q 827.77 443.75 823.47 446.47   Q 811.67 453.94 801.59 463.57   Q 792.78 471.98 780.91 486.84   C 778.31 490.09 775.84 494.52 774.41 497.38   C 766.03 514.17 761.10 532.15 758.12 550.04   Q 756.05 562.50 757.45 578.34   C 757.91 583.55 759.71 589.89 760.38 594.93   Q 761.69 604.80 765.46 613.50   Q 770.00 623.98 770.02 624.03   Q 774.45 634.03 775.17 635.41   Q 777.43 639.80 781.50 644.70   Q 785.35 649.33 792.84 659.92   A 1.22 0.80 14.9 0 0 793.01 660.11   L 817.16 681.44   A 1.99 1.97 79.0 0 0 817.60 681.74   Q 830.86 688.34 842.40 694.38   C 844.04 695.24 848.17 696.74 850.72 697.29   Q 861.06 699.52 870.92 702.11   Q 877.08 703.73 883.19 703.99   Q 887.03 704.15 895.64 704.40   Q 902.67 704.60 913.10 702.36   Q 927.13 699.35 930.26 698.35   Q 934.12 697.11 947.34 692.37   Q 954.20 689.91 959.65 686.54   Q 971.22 679.38 980.90 669.74"/>
<path stroke="#4e50a5" d="M 995.15 654.96   L 980.90 669.74"/>
<path stroke="#9596b7" d="M 791.59 631.42   Q 795.88 639.20 803.08 646.91   C 808.09 652.29 813.40 658.27 819.44 662.87   Q 832.68 672.94 844.30 678.22   Q 875.04 692.18 910.49 687.36   C 922.27 685.76 934.12 682.12 944.69 676.10   Q 952.03 671.93 954.77 670.27   Q 978.91 655.67 992.80 632.33   C 995.64 627.56 999.77 621.15 1001.88 616.14   Q 1007.82 601.99 1010.24 589.24   Q 1013.16 573.84 1011.93 554.28   Q 1011.31 544.57 1008.02 533.61   Q 1003.81 519.58 998.84 509.02   C 992.79 496.17 984.27 486.27 974.28 475.85   C 962.15 463.20 948.02 456.57 932.46 450.13   Q 917.85 444.07 902.48 443.40   Q 889.38 442.83 880.13 443.65   C 869.11 444.63 855.38 447.80 844.32 453.44   Q 835.46 457.96 831.19 460.43   Q 811.90 471.56 798.76 489.28   Q 788.00 503.81 781.21 520.46   Q 777.37 529.88 775.70 538.22   C 772.78 552.79 771.88 569.30 774.49 584.28   C 776.65 596.64 778.54 606.10 783.55 615.89   Q 790.44 629.34 791.59 631.42"/>
<path stroke="#9596b7" d="M 474.89 635.13   Q 477.71 639.85 483.58 647.48   Q 494.01 661.03 511.29 670.99   Q 523.76 678.18 530.42 680.83   Q 559.42 692.39 590.87 687.06   Q 601.32 685.28 611.56 682.08   C 619.66 679.54 625.98 675.51 633.97 671.00   C 646.48 663.93 657.19 653.55 666.36 642.36   C 671.12 636.56 674.62 629.02 678.44 622.95   C 683.90 614.26 686.23 604.45 688.92 594.57   Q 690.84 587.50 691.39 583.58   C 693.38 569.47 692.29 555.14 689.57 540.25   Q 687.13 526.86 681.99 515.43   Q 678.48 507.62 671.16 496.34   C 661.44 481.37 648.27 467.71 632.90 459.63   Q 619.41 452.54 610.81 449.20   Q 603.42 446.33 588.87 444.09   C 579.65 442.67 568.43 443.01 560.27 443.60   Q 543.29 444.84 527.66 451.95   Q 516.57 456.99 506.43 463.43   C 492.10 472.54 480.60 485.77 471.59 499.60   C 461.10 515.69 456.02 534.10 453.39 553.79   Q 451.91 564.91 453.43 576.72   Q 455.23 590.73 457.42 599.36   C 460.22 610.39 465.29 621.90 472.50 631.54   Q 473.72 633.18 474.89 635.13"/>
<path stroke="#9596b7" d="M 639.83 574.91   A 30.28 30.28 0.0 0 0 609.55 544.63   A 30.28 30.28 0.0 0 0 579.27 574.91   A 30.28 30.28 0.0 0 0 609.55 605.19   A 30.28 30.28 0.0 0 0 639.83 574.91"/>
<path stroke="#9596b7" d="M 886.07 574.93   A 30.28 30.28 0.0 0 0 855.79 544.65   A 30.28 30.28 0.0 0 0 825.51 574.93   A 30.28 30.28 0.0 0 0 855.79 605.21   A 30.28 30.28 0.0 0 0 886.07 574.93"/>
<path stroke="#9596b7" d="M 631.49 565.07   A 10.06 10.06 0.0 0 0 621.43 555.01   A 10.06 10.06 0.0 0 0 611.37 565.07   A 10.06 10.06 0.0 0 0 621.43 575.13   A 10.06 10.06 0.0 0 0 631.49 565.07"/>
<path stroke="#9596b7" d="M 877.75 564.98   A 10.15 10.15 0.0 0 0 867.60 554.83   A 10.15 10.15 0.0 0 0 857.45 564.98   A 10.15 10.15 0.0 0 0 867.60 575.13   A 10.15 10.15 0.0 0 0 877.75 564.98"/>
<path stroke="#8d6568" d="M 782.44 714.24   A 0.25 0.25 0.0 0 0 782.82 713.94   Q 782.15 712.15 776.61 698.02   C 773.32 689.63 768.43 680.12 764.93 674.05   Q 760.00 665.50 749.97 656.54   C 742.53 649.90 734.05 648.86 725.08 652.60   C 712.99 657.65 703.40 672.47 697.86 683.89   Q 690.80 698.44 685.74 714.23   A 0.35 0.35 0.0 0 0 686.34 714.55   C 698.68 698.76 717.29 689.37 737.81 690.25   C 754.69 690.98 770.02 699.78 780.77 712.72   Q 781.52 713.63 782.44 714.24"/>
<path stroke="#885670" d="M 734.34 815.83   C 745.59 815.82 757.93 816.90 767.41 817.16   C 776.48 817.41 787.62 820.26 796.67 821.06   A 0.99 0.99 0.0 0 0 797.68 819.71   C 794.81 812.49 789.82 807.69 783.68 801.08   Q 778.58 795.59 774.28 792.85   C 761.60 784.78 749.72 780.33 734.31 780.34   C 718.89 780.36 707.02 784.83 694.36 792.93   Q 690.06 795.68 684.97 801.18   C 678.85 807.80 673.86 812.61 671.01 819.84   A 0.99 0.99 0.0 0 0 672.02 821.18   C 681.07 820.37 692.20 817.49 701.27 817.23   C 710.75 816.95 723.09 815.84 734.34 815.83"/>
</g>

<path xmlns="http://www.w3.org/2000/svg" fill="#2b2c6e" d="M 255.16 909.89   A 0.44 0.43 -23.6 0 0 255.46 909.13   Q 247.65 902.13 239.49 894.22   Q 229.65 884.68 224.84 878.07   Q 215.46 865.20 210.20 852.59   C 206.50 843.73 204.29 832.17 206.30 822.37   C 208.35 812.38 213.31 802.76 221.71 796.78   Q 235.03 787.30 250.97 787.66   C 266.35 788.01 280.82 792.31 294.79 798.90   A 0.66 0.65 -80.3 0 0 295.72 798.24   C 294.38 785.80 295.20 772.12 296.54 760.61   Q 298.93 739.97 306.41 721.51   C 313.43 704.18 322.90 687.69 335.55 674.54   Q 341.43 668.43 346.14 664.10   A 3.59 3.55 70.1 0 0 347.29 661.61   C 348.36 635.44 351.83 611.73 356.50 586.65   Q 360.81 563.55 368.65 538.36   Q 388.16 475.68 426.39 421.88   Q 431.17 415.16 441.31 402.51   C 455.39 384.96 470.73 369.55 487.72 354.79   C 496.32 347.32 504.03 341.99 514.31 334.32   C 529.55 322.95 544.95 314.57 564.42 304.42   Q 578.09 297.30 591.55 292.35   Q 612.89 284.49 631.72 279.23   C 645.43 275.40 658.22 273.33 673.24 270.94   Q 719.93 263.52 770.45 269.54   Q 853.19 279.41 921.04 322.26   Q 931.69 328.99 940.49 335.43   C 951.70 343.64 962.88 351.96 973.87 362.10   Q 1011.62 396.92 1038.97 439.97   C 1044.98 449.43 1051.94 462.31 1056.43 470.31   Q 1059.17 475.18 1063.13 484.12   C 1070.47 500.64 1078.51 519.58 1083.92 537.66   Q 1102.15 598.66 1105.50 662.05   A 1.67 1.65 -72.1 0 0 1106.10 663.24   C 1116.52 671.88 1126.01 681.68 1132.40 691.89   Q 1137.49 700.02 1143.94 713.11   Q 1152.48 730.44 1155.37 746.09   Q 1159.54 768.71 1159.08 791.44   Q 1158.66 811.86 1152.78 835.18   Q 1147.07 857.81 1138.00 876.89   C 1133.16 887.06 1126.95 898.05 1121.46 907.22   C 1114.82 918.33 1104.77 930.60 1096.93 939.70   Q 1074.21 966.07 1044.66 985.89   Q 1027.91 997.13 1010.37 1004.55   C 1002.06 1008.07 992.47 1010.92 983.93 1013.58   A 3.48 3.48 0.0 0 0 982.49 1014.46   Q 955.52 1041.74 922.09 1064.78   Q 911.63 1071.99 903.26 1076.32   Q 899.10 1078.47 883.70 1086.72   A 0.57 0.57 0.0 0 0 883.59 1087.65   Q 890.50 1093.78 895.20 1101.01   C 907.76 1120.31 906.81 1144.34 889.72 1160.67   C 876.68 1173.14 857.31 1174.12 841.72 1165.48   A 1.43 1.43 0.0 0 0 840.00 1165.74   C 835.26 1170.72 828.66 1173.42 821.58 1175.12   C 810.16 1177.87 798.79 1175.33 789.03 1168.91   Q 780.73 1163.45 775.89 1153.43   Q 768.47 1138.04 774.16 1121.25   A 0.75 0.74 5.5 0 0 773.35 1120.27   Q 730.19 1126.54 686.92 1120.81   A 0.60 0.59 -4.9 0 0 686.27 1121.58   C 689.70 1132.23 689.48 1141.94 684.95 1152.20   Q 677.49 1169.09 658.24 1174.73   C 645.15 1178.57 629.74 1174.84 619.86 1165.41   A 0.95 0.93 -38.3 0 0 618.73 1165.29   C 616.47 1166.66 615.29 1167.52 613.23 1168.30   C 597.57 1174.22 580.32 1171.29 568.61 1158.85   Q 552.86 1142.13 557.56 1119.27   C 559.97 1107.53 566.08 1098.09 574.37 1089.91   A 0.93 0.92 36.4 0 0 574.14 1088.42   Q 566.55 1084.55 549.19 1075.28   Q 536.73 1068.63 527.42 1061.16   A 3.14 3.10 62.3 0 0 525.29 1060.48   C 514.41 1061.09 502.76 1061.58 491.23 1061.36   Q 447.80 1060.54 411.67 1056.26   Q 375.77 1052.00 337.81 1042.95   Q 302.29 1034.48 270.70 1021.54   C 246.89 1011.79 225.28 1000.09 208.98 981.54   C 194.26 964.78 190.74 941.18 208.62 924.65   C 220.93 913.28 238.92 909.57 255.16 909.89   Z   M 531.36 1039.94   Q 540.53 1047.00 550.71 1052.39   Q 557.42 1055.95 561.16 1058.42   Q 576.37 1068.47 592.49 1074.71   Q 610.35 1081.62 613.99 1083.19   C 628.98 1089.64 644.23 1092.75 662.06 1096.55   C 696.02 1103.78 730.85 1104.87 765.57 1101.10   Q 779.52 1099.58 795.79 1095.75   Q 820.35 1089.96 825.57 1088.30   C 831.34 1086.48 835.54 1085.35 840.88 1083.10   Q 856.39 1076.57 866.16 1072.56   C 874.76 1069.02 882.53 1064.93 890.22 1060.23   Q 890.30 1060.18 916.29 1044.55   Q 920.87 1041.79 931.10 1033.76   L 935.87 1030.34   A 1.81 1.65 2.6 0 0 936.11 1030.14   Q 945.95 1020.46 955.05 1012.56   Q 963.41 1005.30 966.10 1002.61   Q 974.55 994.17 976.33 991.83   Q 985.25 980.14 991.91 972.69   Q 998.44 965.39 1001.71 960.55   Q 1015.79 939.71 1021.72 930.20   Q 1027.89 920.31 1041.24 893.38   Q 1048.64 878.44 1054.75 861.62   Q 1062.96 839.01 1065.87 828.94   Q 1086.30 758.25 1085.55 679.53   Q 1085.48 672.73 1084.60 660.50   Q 1084.25 655.68 1083.12 641.49   Q 1081.80 625.00 1079.90 608.82   Q 1079.38 604.43 1076.15 590.61   Q 1074.50 583.54 1072.35 572.75   C 1069.33 557.64 1063.50 541.67 1059.53 529.57   Q 1059.21 528.60 1056.65 520.01   Q 1053.74 510.28 1048.83 501.30   Q 1044.18 492.82 1044.17 492.80   Q 1043.38 491.71 1036.47 477.00   Q 1035.43 474.79 1030.11 464.43   Q 1026.86 458.11 1022.75 452.46   C 1016.71 444.14 1006.17 426.61 995.77 414.87   C 988.19 406.32 981.30 398.14 975.51 391.75   Q 969.47 385.08 956.12 374.09   Q 953.22 371.70 952.14 370.66   Q 950.31 368.89 948.20 367.16   Q 947.72 366.77 942.22 362.02   Q 931.25 352.54 926.49 349.79   Q 912.63 341.78 900.68 333.46   Q 897.45 331.22 896.67 330.84   C 892.96 329.03 890.22 326.93 885.85 325.06   Q 875.61 320.67 869.09 317.65   C 861.77 314.26 854.64 311.59 849.65 309.45   C 833.77 302.65 819.21 299.53 801.47 295.43   Q 787.68 292.24 778.01 290.94   Q 722.59 283.52 672.06 291.60   Q 657.02 294.00 626.02 301.81   Q 618.40 303.73 616.19 304.68   Q 611.70 306.61 606.68 308.45   Q 603.59 309.58 589.88 315.60   C 581.30 319.37 570.71 322.91 561.45 327.78   C 555.01 331.17 547.06 337.72 541.40 340.89   Q 531.80 346.27 529.18 347.64   C 521.15 351.86 514.68 357.91 508.21 364.29   Q 503.83 368.61 500.06 371.41   Q 490.35 378.60 484.47 384.44   Q 478.36 390.50 477.01 392.27   C 473.07 397.40 467.47 403.10 462.88 408.72   Q 460.70 411.38 457.12 414.70   C 454.97 416.69 453.64 418.85 451.26 421.51   Q 449.32 423.66 447.32 426.98   Q 439.06 440.59 429.02 454.13   Q 424.21 460.62 421.17 466.29   Q 418.37 471.49 414.87 479.37   Q 412.15 485.48 403.39 502.98   C 396.46 516.83 392.38 532.10 388.62 542.79   Q 384.50 554.54 381.50 567.39   Q 374.90 595.66 372.93 608.58   Q 366.78 648.80 367.18 696.48   Q 367.25 705.51 368.46 722.23   Q 369.98 743.45 370.60 747.94   C 374.11 773.26 378.66 797.75 385.60 822.02   Q 390.65 839.67 394.95 851.81   Q 403.05 874.68 415.61 901.14   Q 416.99 904.06 425.12 917.92   Q 425.15 917.97 426.26 919.65   Q 428.00 922.26 429.34 925.22   Q 431.69 930.36 438.13 940.75   C 443.67 949.67 451.62 958.36 458.04 967.69   Q 463.37 975.44 467.48 980.10   C 476.84 990.72 486.10 1000.23 496.03 1010.21   Q 505.57 1019.79 519.29 1029.95   Q 521.69 1031.72 525.34 1034.92   Q 528.30 1037.51 531.36 1039.94   Z   M 1105.66 692.14   C 1105.39 694.05 1105.88 696.17 1105.90 698.37   Q 1105.98 707.93 1105.22 714.95   Q 1104.47 721.92 1103.82 731.14   C 1101.21 768.64 1094.24 806.22 1082.70 842.42   C 1077.81 857.78 1073.84 870.88 1067.43 884.61   Q 1064.27 891.37 1060.50 899.71   Q 1052.14 918.20 1049.56 922.55   Q 1038.12 941.85 1031.82 952.58   Q 1026.96 960.87 1016.02 973.65   A 0.29 0.24 85.3 0 0 1015.97 973.72   L 1011.16 981.00   A 0.42 0.42 0.0 0 0 1011.67 981.62   C 1018.05 979.06 1022.90 976.74 1028.56 972.62   C 1033.85 968.78 1036.68 966.54 1041.24 963.61   Q 1050.02 957.97 1055.19 953.20   C 1060.33 948.46 1068.13 940.55 1075.65 933.06   C 1084.06 924.67 1090.89 916.98 1096.69 906.95   Q 1098.40 904.00 1106.45 892.64   C 1111.51 885.50 1114.57 880.42 1118.00 873.02   Q 1121.40 865.69 1124.80 855.66   Q 1127.50 847.71 1128.73 844.67   C 1132.90 834.38 1135.56 824.15 1136.93 813.49   C 1139.91 790.33 1139.80 769.33 1134.68 747.64   Q 1131.53 734.31 1126.84 722.61   Q 1123.18 713.45 1119.66 708.82   Q 1114.24 701.69 1106.81 691.84   A 0.64 0.64 0.0 0 0 1105.66 692.14   Z   M 346.48 692.69   C 340.80 699.30 337.62 704.85 330.82 715.55   C 327.70 720.46 324.72 727.21 323.42 731.46   Q 316.69 753.42 314.92 776.24   C 313.71 791.88 315.75 804.18 318.38 821.37   Q 320.00 832.00 324.24 842.02   C 325.27 844.45 326.14 847.59 326.78 849.23   C 331.05 860.19 334.47 871.46 340.66 881.60   Q 352.46 900.96 366.11 919.37   Q 375.54 932.08 387.35 942.13   Q 394.05 947.84 396.77 950.31   Q 404.82 957.63 408.74 960.96   Q 416.24 967.33 423.01 970.88   Q 433.00 976.11 441.01 980.63   A 0.49 0.49 0.0 0 0 441.74 980.21   Q 441.74 979.84 441.38 979.45   Q 435.88 973.60 432.20 967.75   C 426.45 958.60 420.51 950.51 415.60 943.29   Q 414.67 941.91 413.48 939.74   C 411.83 936.71 409.82 933.77 408.29 930.72   Q 401.10 916.44 396.87 908.16   Q 386.14 887.15 377.78 864.03   Q 365.78 830.89 358.67 798.35   Q 354.69 780.10 351.65 757.05   Q 348.74 735.02 347.45 715.37   Q 346.71 704.06 347.44 693.09   A 0.55 0.55 0.0 0 0 346.48 692.69   Z   M 378.64 961.77   Q 374.28 957.70 374.15 957.57   Q 363.21 946.42 340.85 920.15   Q 340.55 919.80 334.57 911.05   Q 331.62 906.73 329.01 901.49   Q 324.13 891.68 317.65 879.94   Q 311.80 869.36 309.34 862.56   Q 306.03 853.40 303.96 844.12   C 302.56 837.84 300.12 831.68 298.57 824.95   A 4.36 4.36 0.0 0 0 296.36 822.08   C 288.62 817.97 282.17 814.14 274.56 812.05   Q 261.05 808.33 253.17 807.69   Q 235.07 806.23 227.01 822.18   Q 224.27 827.60 225.34 833.73   C 227.58 846.59 234.01 856.78 242.47 866.52   Q 245.04 869.47 252.32 879.02   Q 252.96 879.85 260.55 887.19   Q 263.84 890.38 269.23 894.36   Q 277.19 900.24 285.37 907.61   Q 289.96 911.73 293.37 914.06   Q 301.06 919.28 301.65 919.61   Q 319.71 929.72 333.80 939.00   C 338.20 941.90 344.20 944.86 347.55 946.84   Q 352.96 950.05 357.99 952.45   Q 362.27 954.49 378.38 962.15   A 0.23 0.23 0.0 0 0 378.64 961.77   Z   M 499.60 1041.38   A 0.39 0.39 0.0 0 0 499.85 1040.71   L 481.05 1022.96   A 8.24 8.21 73.9 0 0 477.49 1020.99   Q 448.50 1013.43 419.90 1002.33   Q 413.30 999.77 404.71 995.61   Q 399.22 992.96 389.55 988.84   Q 372.63 981.65 361.70 976.06   Q 351.69 970.93 334.60 961.19   C 326.76 956.71 322.78 954.72 315.14 950.72   C 306.50 946.19 300.33 941.84 292.27 936.77   C 285.36 932.42 278.01 931.06 269.54 930.18   Q 262.19 929.43 247.17 930.62   Q 234.64 931.61 224.21 937.10   Q 219.62 939.51 216.91 946.21   A 3.41 3.40 -34.4 0 0 216.66 947.54   Q 216.71 953.87 218.19 957.56   Q 220.27 962.74 224.48 969.51   Q 225.05 970.43 231.02 975.98   Q 233.72 978.49 238.26 981.44   C 247.33 987.34 256.28 991.94 266.04 997.51   Q 270.98 1000.32 277.65 1003.09   Q 287.36 1007.13 299.27 1011.20   C 315.96 1016.91 332.28 1020.21 351.63 1025.72   Q 359.05 1027.84 366.75 1029.16   Q 401.57 1035.15 432.51 1038.36   C 439.58 1039.10 445.39 1039.35 451.43 1040.06   C 467.10 1041.91 482.47 1041.95 499.60 1041.38   Z   M 833.93 1143.05   C 837.57 1140.47 842.66 1140.69 846.15 1143.81   C 848.59 1146.00 850.37 1147.76 853.02 1149.04   Q 860.03 1152.42 868.40 1150.09   Q 880.38 1146.76 882.68 1134.36   C 885.88 1117.05 876.52 1106.64 863.53 1097.58   A 3.60 3.58 52.4 0 0 860.28 1097.15   Q 844.45 1102.87 825.99 1109.24   Q 813.65 1113.50 800.02 1115.48   Q 798.05 1115.77 797.02 1117.77   Q 794.46 1122.70 793.18 1126.63   C 789.92 1136.73 793.13 1148.60 802.71 1153.89   C 811.87 1158.94 823.69 1155.96 830.04 1147.63   Q 832.05 1144.99 833.16 1143.74   A 4.35 4.11 1.6 0 1 833.93 1143.05   Z   M 662.02 1116.83   Q 660.34 1116.27 658.67 1115.98   Q 637.91 1112.47 629.10 1109.38   Q 612.87 1103.69 599.32 1099.40   Q 596.67 1098.56 593.85 1100.38   C 582.39 1107.78 574.52 1120.49 577.40 1134.11   Q 580.15 1147.10 593.01 1150.67   Q 599.92 1152.59 608.04 1148.61   C 612.09 1146.63 614.51 1142.32 618.91 1141.65   Q 623.19 1140.99 626.33 1143.16   A 3.05 2.98 88.0 0 1 627.01 1143.81   Q 628.63 1145.92 632.03 1149.63   Q 637.18 1155.27 645.30 1156.41   Q 653.18 1157.52 659.55 1152.59   C 671.06 1143.68 670.46 1129.03 663.21 1117.75   A 2.26 2.24 -7.1 0 0 662.02 1116.83   Z"/>
<path xmlns="http://www.w3.org/2000/svg" fill="#7174db" d="M 931.10 1033.76   C 928.13 1022.94 923.78 1012.35 919.35 1001.42   C 898.08 948.97 856.12 905.29 803.78 884.31   C 748.07 861.99 684.48 867.18 632.78 898.12   Q 577.43 931.25 548.88 991.76   Q 541.50 1007.39 538.15 1020.31   Q 535.88 1029.05 533.21 1034.59   A 4.33 4.08 65.1 0 0 532.91 1035.49   Q 532.46 1037.65 531.36 1039.94   Q 528.30 1037.51 525.34 1034.92   Q 521.69 1031.72 519.29 1029.95   Q 505.57 1019.79 496.03 1010.21   C 486.10 1000.23 476.84 990.72 467.48 980.10   Q 463.37 975.44 458.04 967.69   C 451.62 958.36 443.67 949.67 438.13 940.75   Q 431.69 930.36 429.34 925.22   Q 428.00 922.26 426.26 919.65   Q 425.15 917.97 425.12 917.92   Q 416.99 904.06 415.61 901.14   Q 403.05 874.68 394.95 851.81   Q 390.65 839.67 385.60 822.02   C 378.66 797.75 374.11 773.26 370.60 747.94   Q 369.98 743.45 368.46 722.23   Q 367.25 705.51 367.18 696.48   Q 366.78 648.80 372.93 608.58   Q 374.90 595.66 381.50 567.39   Q 384.50 554.54 388.62 542.79   C 392.38 532.10 396.46 516.83 403.39 502.98   Q 412.15 485.48 414.87 479.37   Q 418.37 471.49 421.17 466.29   Q 424.21 460.62 429.02 454.13   Q 439.06 440.59 447.32 426.98   Q 449.32 423.66 451.26 421.51   C 453.64 418.85 454.97 416.69 457.12 414.70   Q 460.70 411.38 462.88 408.72   C 467.47 403.10 473.07 397.40 477.01 392.27   Q 478.36 390.50 484.47 384.44   Q 490.35 378.60 500.06 371.41   Q 503.83 368.61 508.21 364.29   C 514.68 357.91 521.15 351.86 529.18 347.64   Q 531.80 346.27 541.40 340.89   C 547.06 337.72 555.01 331.17 561.45 327.78   C 570.71 322.91 581.30 319.37 589.88 315.60   Q 603.59 309.58 606.68 308.45   Q 611.70 306.61 616.19 304.68   Q 618.40 303.73 626.02 301.81   Q 657.02 294.00 672.06 291.60   Q 722.59 283.52 778.01 290.94   Q 787.68 292.24 801.47 295.43   C 819.21 299.53 833.77 302.65 849.65 309.45   C 854.64 311.59 861.77 314.26 869.09 317.65   Q 875.61 320.67 885.85 325.06   C 890.22 326.93 892.96 329.03 896.67 330.84   Q 897.45 331.22 900.68 333.46   Q 912.63 341.78 926.49 349.79   Q 931.25 352.54 942.22 362.02   Q 947.72 366.77 948.20 367.16   Q 950.31 368.89 952.14 370.66   Q 953.22 371.70 956.12 374.09   Q 969.47 385.08 975.51 391.75   C 981.30 398.14 988.19 406.32 995.77 414.87   C 1006.17 426.61 1016.71 444.14 1022.75 452.46   Q 1026.86 458.11 1030.11 464.43   Q 1035.43 474.79 1036.47 477.00   Q 1043.38 491.71 1044.17 492.80   Q 1044.18 492.82 1048.83 501.30   Q 1053.74 510.28 1056.65 520.01   Q 1059.21 528.60 1059.53 529.57   C 1063.50 541.67 1069.33 557.64 1072.35 572.75   Q 1074.50 583.54 1076.15 590.61   Q 1079.38 604.43 1079.90 608.82   Q 1081.80 625.00 1083.12 641.49   Q 1084.25 655.68 1084.60 660.50   Q 1085.48 672.73 1085.55 679.53   Q 1086.30 758.25 1065.87 828.94   Q 1062.96 839.01 1054.75 861.62   Q 1048.64 878.44 1041.24 893.38   Q 1027.89 920.31 1021.72 930.20   Q 1015.79 939.71 1001.71 960.55   Q 998.44 965.39 991.91 972.69   Q 985.25 980.14 976.33 991.83   Q 974.55 994.17 966.10 1002.61   Q 963.41 1005.30 955.05 1012.56   Q 945.95 1020.46 936.11 1030.14   A 1.81 1.65 2.6 0 1 935.87 1030.34   L 931.10 1033.76   Z   M 516.74 383.26   Q 513.36 387.49 511.84 391.32   C 509.92 396.14 511.79 401.30 516.40 403.66   C 521.88 406.47 527.21 403.82 531.02 399.78   Q 536.53 393.94 540.02 390.50   Q 545.14 385.46 548.84 383.58   C 558.58 378.65 569.97 377.05 580.59 378.44   Q 588.99 379.54 589.25 379.56   C 596.09 380.15 601.62 374.14 600.02 367.19   C 598.24 359.49 591.60 357.97 584.61 357.12   Q 573.26 355.73 562.12 357.28   Q 554.13 358.39 546.83 362.10   Q 533.07 369.10 522.88 376.87   Q 520.25 378.87 516.74 383.26   Z   M 941.80 403.79   C 955.99 395.34 937.58 378.23 930.57 373.28   C 922.04 367.25 911.29 361.22 901.00 358.57   Q 886.65 354.87 869.81 358.04   C 863.79 359.17 858.24 361.62 857.41 368.29   C 856.65 374.38 862.71 381.01 869.03 379.63   Q 879.48 377.33 891.16 378.49   C 903.59 379.71 913.73 385.56 922.28 394.18   C 926.50 398.43 930.55 405.54 938.58 404.76   Q 940.47 404.58 941.80 403.79   Z   M 704.45 515.02   C 702.94 508.72 699.43 503.95 697.02 497.86   Q 695.13 493.09 692.53 488.95   Q 685.42 477.60 677.96 467.78   Q 667.89 454.51 655.26 444.44   Q 651.32 441.30 645.06 437.39   C 637.80 432.85 634.52 430.52 628.36 426.96   Q 625.12 425.09 610.78 419.57   C 604.09 416.99 599.49 416.39 591.36 414.45   Q 583.13 412.49 576.50 412.39   Q 561.88 412.18 554.12 413.13   C 547.65 413.92 534.42 414.73 526.42 417.39   C 518.95 419.87 512.92 421.57 505.05 425.77   C 495.08 431.07 483.67 436.41 475.12 443.36   Q 473.19 444.93 465.74 452.32   Q 461.91 456.12 456.94 461.85   Q 448.61 471.45 447.10 473.35   Q 438.51 484.12 433.52 494.77   Q 430.96 500.22 428.39 506.20   C 424.17 515.99 421.25 525.73 419.01 536.02   Q 416.97 545.38 416.48 553.14   C 415.83 563.51 415.09 573.64 416.36 583.73   C 417.67 594.10 419.42 605.56 423.02 616.08   C 426.90 627.43 429.90 635.41 434.06 642.95   Q 440.51 654.64 451.31 668.52   Q 461.43 681.52 472.71 690.62   C 493.06 707.06 517.71 719.20 543.64 722.91   C 569.03 726.55 593.37 723.34 617.86 714.33   Q 622.27 712.71 633.34 706.50   C 636.16 704.92 638.77 703.85 640.89 702.66   A 8.39 8.39 0.0 0 0 642.06 701.84   C 645.20 699.20 648.01 697.49 650.59 694.99   Q 653.60 692.06 657.59 689.41   C 659.88 687.88 663.20 685.20 664.76 683.26   Q 668.37 678.76 674.93 671.02   C 676.99 668.59 679.12 666.92 681.11 664.84   A 4.38 4.12 84.5 0 0 681.69 664.09   Q 689.86 651.26 697.97 635.64   Q 699.56 632.59 700.32 629.94   C 701.88 624.60 703.01 619.83 705.03 615.19   Q 705.65 613.76 708.83 605.35   Q 709.76 602.90 711.11 594.90   Q 711.76 591.03 711.99 585.56   Q 712.10 583.03 712.97 576.24   Q 714.45 564.60 712.11 549.92   C 711.61 546.80 710.40 543.61 709.85 540.61   Q 707.34 527.10 704.45 515.02   Z   M 819.62 698.86   L 819.98 699.34   A 1.53 1.38 2.2 0 0 820.32 699.67   Q 821.44 700.44 826.64 703.10   C 832.59 706.15 839.05 710.71 844.09 712.91   C 856.91 718.51 871.23 722.35 885.35 723.67   C 909.81 725.97 935.95 722.52 958.22 712.16   Q 972.29 705.61 985.02 695.97   C 995.34 688.14 1003.89 681.10 1011.81 671.16   Q 1020.61 660.12 1029.37 645.77   Q 1032.82 640.12 1035.66 632.70   Q 1040.87 619.09 1041.98 616.24   C 1044.28 610.35 1044.96 604.21 1046.30 597.51   Q 1047.82 589.85 1048.15 584.87   Q 1049.16 569.66 1048.69 562.98   Q 1047.91 552.09 1047.62 546.11   Q 1047.44 542.43 1046.82 539.37   C 1045.66 533.66 1045.52 529.35 1043.78 524.43   Q 1043.55 523.77 1041.38 516.40   A 4.07 4.00 -69.2 0 0 1040.95 515.42   Q 1036.78 508.66 1031.98 497.68   Q 1026.53 485.21 1017.96 473.38   C 1011.92 465.04 1002.03 456.34 995.58 448.92   Q 991.85 444.63 989.41 443.08   Q 983.55 439.36 977.61 434.88   A 5.31 5.26 -13.3 0 0 976.76 434.36   Q 972.16 432.07 965.63 428.40   Q 962.08 426.39 946.19 419.83   C 936.71 415.91 927.76 413.68 919.25 413.38   Q 918.22 413.34 903.00 412.78   C 899.25 412.64 893.93 413.67 890.34 413.35   Q 889.43 413.27 883.56 412.95   A 21.20 20.79 42.4 0 0 879.68 413.09   Q 873.33 413.92 863.88 416.41   C 857.75 418.03 852.22 419.40 847.34 421.87   C 841.15 425.00 834.04 427.58 827.73 431.82   Q 820.73 436.53 814.75 440.78   Q 801.45 450.25 790.27 462.82   C 784.69 469.09 779.08 477.25 775.53 483.50   Q 769.40 494.28 762.46 509.71   C 759.94 515.32 758.03 521.79 756.97 525.50   Q 753.62 537.22 753.18 549.75   Q 752.91 557.60 752.46 564.50   Q 751.99 571.53 753.06 582.98   C 753.47 587.41 752.58 593.97 753.77 598.60   Q 754.03 599.61 756.68 606.24   Q 760.05 614.64 760.20 617.68   Q 760.71 627.53 767.71 635.62   A 1.65 1.60 -77.7 0 1 768.02 636.12   Q 769.01 638.54 770.34 640.37   A 3.32 3.26 15.5 0 1 770.75 641.08   Q 773.18 646.78 774.61 650.88   Q 775.29 652.86 776.31 653.28   A 0.35 0.31 82.4 0 1 776.47 653.42   L 781.68 661.74   A 2.38 2.11 -86.6 0 0 781.90 662.02   Q 789.07 669.53 790.27 671.24   Q 795.69 678.93 800.20 682.52   Q 807.53 688.35 809.27 690.19   C 811.91 692.99 815.91 697.75 818.61 698.24   A 1.61 1.60 -13.2 0 1 819.62 698.86   Z   M 749.61 636.21   Q 745.47 634.17 743.61 633.82   C 732.96 631.84 719.91 633.18 711.24 640.50   Q 706.91 644.15 703.42 646.76   C 700.71 648.78 698.45 651.28 696.76 653.77   Q 691.36 661.74 684.98 671.86   Q 682.65 675.55 682.14 676.69   C 680.25 680.94 677.96 684.40 676.01 689.25   Q 668.12 708.96 662.36 731.52   C 659.90 741.18 658.58 749.95 656.74 758.61   C 652.89 776.82 651.74 794.91 651.52 814.52   C 651.41 823.52 651.56 830.95 658.20 836.08   C 662.69 839.56 668.60 839.10 674.00 838.20   Q 730.40 828.76 787.22 836.87   C 792.50 837.62 797.69 839.43 803.99 838.67   C 812.87 837.60 816.98 828.70 817.11 820.33   C 817.48 797.29 815.09 775.59 810.85 752.92   Q 807.68 735.98 804.99 726.40   Q 804.03 722.97 800.56 712.96   Q 798.56 707.19 796.69 699.31   Q 796.02 696.50 791.46 688.31   Q 790.50 686.59 787.29 678.12   C 784.22 670.05 778.55 662.94 773.67 655.89   Q 769.09 649.28 765.68 646.14   C 761.59 642.38 755.40 639.06 749.61 636.21   Z"/>
<path xmlns="http://www.w3.org/2000/svg" fill="#2b2c6e" d="M 516.74 383.26   Q 520.25 378.87 522.88 376.87   Q 533.07 369.10 546.83 362.10   Q 554.13 358.39 562.12 357.28   Q 573.26 355.73 584.61 357.12   C 591.60 357.97 598.24 359.49 600.02 367.19   C 601.62 374.14 596.09 380.15 589.25 379.56   Q 588.99 379.54 580.59 378.44   C 569.97 377.05 558.58 378.65 548.84 383.58   Q 545.14 385.46 540.02 390.50   Q 536.53 393.94 531.02 399.78   C 527.21 403.82 521.88 406.47 516.40 403.66   C 511.79 401.30 509.92 396.14 511.84 391.32   Q 513.36 387.49 516.74 383.26   Z"/>
<path xmlns="http://www.w3.org/2000/svg" fill="#2b2c6e" d="M 930.57 373.28   C 937.58 378.23 955.99 395.34 941.80 403.79   Q 940.47 404.58 938.58 404.76   C 930.55 405.54 926.50 398.43 922.28 394.18   C 913.73 385.56 903.59 379.71 891.16 378.49   Q 879.48 377.33 869.03 379.63   C 862.71 381.01 856.65 374.38 857.41 368.29   C 858.24 361.62 863.79 359.17 869.81 358.04   Q 886.65 354.87 901.00 358.57   C 911.29 361.22 922.04 367.25 930.57 373.28   Z"/>
<path xmlns="http://www.w3.org/2000/svg" fill="#9da1e8" d="M 697.02 497.86   C 699.43 503.95 702.94 508.72 704.45 515.02   Q 707.34 527.10 709.85 540.61   C 710.40 543.61 711.61 546.80 712.11 549.92   Q 714.45 564.60 712.97 576.24   Q 712.10 583.03 711.99 585.56   Q 711.76 591.03 711.11 594.90   Q 709.76 602.90 708.83 605.35   Q 705.65 613.76 705.03 615.19   C 703.01 619.83 701.88 624.60 700.32 629.94   Q 699.56 632.59 697.97 635.64   Q 689.86 651.26 681.69 664.09   A 4.38 4.12 84.5 0 1 681.11 664.84   C 679.12 666.92 676.99 668.59 674.93 671.02   Q 668.37 678.76 664.76 683.26   C 663.20 685.20 659.88 687.88 657.59 689.41   Q 653.60 692.06 650.59 694.99   C 648.01 697.49 645.20 699.20 642.06 701.84   A 8.39 8.39 0.0 0 1 640.89 702.66   C 638.77 703.85 636.16 704.92 633.34 706.50   Q 622.27 712.71 617.86 714.33   C 593.37 723.34 569.03 726.55 543.64 722.91   C 517.71 719.20 493.06 707.06 472.71 690.62   Q 461.43 681.52 451.31 668.52   Q 440.51 654.64 434.06 642.95   C 429.90 635.41 426.90 627.43 423.02 616.08   C 419.42 605.56 417.67 594.10 416.36 583.73   C 415.09 573.64 415.83 563.51 416.48 553.14   Q 416.97 545.38 419.01 536.02   C 421.25 525.73 424.17 515.99 428.39 506.20   Q 430.96 500.22 433.52 494.77   Q 438.51 484.12 447.10 473.35   Q 448.61 471.45 456.94 461.85   Q 461.91 456.12 465.74 452.32   Q 473.19 444.93 475.12 443.36   C 483.67 436.41 495.08 431.07 505.05 425.77   C 512.92 421.57 518.95 419.87 526.42 417.39   C 534.42 414.73 547.65 413.92 554.12 413.13   Q 561.88 412.18 576.50 412.39   Q 583.13 412.49 591.36 414.45   C 599.49 416.39 604.09 416.99 610.78 419.57   Q 625.12 425.09 628.36 426.96   C 634.52 430.52 637.80 432.85 645.06 437.39   Q 651.32 441.30 655.26 444.44   Q 667.89 454.51 677.96 467.78   Q 685.42 477.60 692.53 488.95   Q 695.13 493.09 697.02 497.86   Z   M 512.72 690.17   Q 518.66 692.85 524.77 695.21   Q 530.78 697.53 537.27 698.82   Q 542.63 699.88 551.00 701.62   C 564.74 704.48 579.69 705.14 594.17 702.29   Q 608.00 699.58 609.65 699.16   C 617.29 697.21 626.60 692.04 633.59 688.97   C 639.79 686.23 644.44 683.73 650.13 678.77   Q 653.28 676.02 658.29 672.47   C 663.79 668.58 668.08 664.58 671.65 659.89   Q 676.78 653.16 680.86 648.62   Q 685.91 643.02 689.51 635.78   C 695.69 623.37 700.37 615.15 702.75 604.26   Q 704.39 596.80 706.55 584.81   Q 707.66 578.67 707.64 572.00   Q 707.61 560.48 707.25 552.46   Q 706.81 542.57 705.58 537.14   C 702.80 524.86 697.90 514.16 692.52 502.30   Q 686.71 489.47 681.96 483.27   Q 675.62 475.00 669.59 469.14   Q 664.81 464.50 655.45 456.80   Q 646.63 449.55 638.23 444.28   Q 632.20 440.51 624.47 437.78   C 615.29 434.53 608.30 432.11 600.21 430.75   C 594.46 429.79 588.09 428.21 581.93 427.71   C 570.18 426.77 558.55 426.71 547.53 429.90   C 535.00 433.54 520.16 437.54 508.56 443.16   A 3.98 3.65 10.6 0 0 507.82 443.62   Q 505.57 445.35 501.69 447.47   C 498.55 449.18 495.05 453.00 491.88 455.30   Q 484.98 460.33 475.71 468.89   Q 471.33 472.94 468.23 477.03   Q 463.25 483.62 461.83 486.06   Q 453.89 499.72 447.49 513.17   Q 441.28 526.21 439.14 542.63   Q 437.67 553.85 437.52 557.18   C 437.14 565.90 436.70 573.78 437.92 582.38   C 439.42 592.97 440.88 602.12 444.81 611.03   C 447.46 617.06 450.54 626.14 454.69 633.70   Q 460.29 643.90 460.31 643.93   Q 462.30 647.04 467.32 653.39   Q 469.01 655.54 475.71 661.58   Q 480.21 665.65 485.67 670.82   Q 487.53 672.57 497.26 680.60   C 500.01 682.86 503.32 684.99 505.95 686.54   Q 510.11 688.99 512.72 690.17   Z"/>
<path xmlns="http://www.w3.org/2000/svg" fill="#9da1e8" d="M 818.61 698.24   C 815.91 697.75 811.91 692.99 809.27 690.19   Q 807.53 688.35 800.20 682.52   Q 795.69 678.93 790.27 671.24   Q 789.07 669.53 781.90 662.02   A 2.38 2.11 -86.6 0 1 781.68 661.74   L 776.47 653.42   A 0.35 0.31 82.4 0 0 776.31 653.28   Q 775.29 652.86 774.61 650.88   Q 773.18 646.78 770.75 641.08   A 3.32 3.26 15.5 0 0 770.34 640.37   Q 769.01 638.54 768.02 636.12   A 1.65 1.60 -77.7 0 0 767.71 635.62   Q 760.71 627.53 760.20 617.68   Q 760.05 614.64 756.68 606.24   Q 754.03 599.61 753.77 598.60   C 752.58 593.97 753.47 587.41 753.06 582.98   Q 751.99 571.53 752.46 564.50   Q 752.91 557.60 753.18 549.75   Q 753.62 537.22 756.97 525.50   C 758.03 521.79 759.94 515.32 762.46 509.71   Q 769.40 494.28 775.53 483.50   C 779.08 477.25 784.69 469.09 790.27 462.82   Q 801.45 450.25 814.75 440.78   Q 820.73 436.53 827.73 431.82   C 834.04 427.58 841.15 425.00 847.34 421.87   C 852.22 419.40 857.75 418.03 863.88 416.41   Q 873.33 413.92 879.68 413.09   A 21.20 20.79 42.4 0 1 883.56 412.95   Q 889.43 413.27 890.34 413.35   C 893.93 413.67 899.25 412.64 903.00 412.78   Q 918.22 413.34 919.25 413.38   C 927.76 413.68 936.71 415.91 946.19 419.83   Q 962.08 426.39 965.63 428.40   Q 972.16 432.07 976.76 434.36   A 5.31 5.26 -13.3 0 1 977.61 434.88   Q 983.55 439.36 989.41 443.08   Q 991.85 444.63 995.58 448.92   C 1002.03 456.34 1011.92 465.04 1017.96 473.38   Q 1026.53 485.21 1031.98 497.68   Q 1036.78 508.66 1040.95 515.42   A 4.07 4.00 -69.2 0 1 1041.38 516.40   Q 1043.55 523.77 1043.78 524.43   C 1045.52 529.35 1045.66 533.66 1046.82 539.37   Q 1047.44 542.43 1047.62 546.11   Q 1047.91 552.09 1048.69 562.98   Q 1049.16 569.66 1048.15 584.87   Q 1047.82 589.85 1046.30 597.51   C 1044.96 604.21 1044.28 610.35 1041.98 616.24   Q 1040.87 619.09 1035.66 632.70   Q 1032.82 640.12 1029.37 645.77   Q 1020.61 660.12 1011.81 671.16   C 1003.89 681.10 995.34 688.14 985.02 695.97   Q 972.29 705.61 958.22 712.16   C 935.95 722.52 909.81 725.97 885.35 723.67   C 871.23 722.35 856.91 718.51 844.09 712.91   C 839.05 710.71 832.59 706.15 826.64 703.10   Q 821.44 700.44 820.32 699.67   A 1.53 1.38 2.2 0 1 819.98 699.34   L 819.62 698.86   A 1.61 1.60 -13.2 0 0 818.61 698.24   Z   M 980.90 669.74   Q 989.13 663.48 995.15 654.96   Q 1005.46 644.63 1010.12 634.87   Q 1015.34 623.91 1019.80 612.64   C 1022.54 605.71 1023.67 597.68 1025.09 592.31   C 1028.09 580.92 1028.14 570.34 1027.54 558.46   Q 1027.32 554.22 1026.09 547.10   Q 1024.51 537.89 1024.27 535.78   C 1023.06 525.14 1020.19 515.42 1015.76 506.76   Q 1013.98 503.28 1000.70 482.50   C 996.38 475.74 991.76 469.95 986.44 465.32   Q 985.10 464.15 972.11 454.44   Q 972.09 454.42 963.33 447.87   Q 958.83 444.51 954.06 441.81   C 946.01 437.25 936.29 434.94 927.07 432.95   Q 923.06 432.08 919.30 430.91   Q 907.39 427.20 895.52 427.08   Q 884.65 426.98 878.03 428.10   Q 874.37 428.72 854.57 433.31   Q 850.26 434.30 831.78 442.07   Q 827.77 443.75 823.47 446.47   Q 811.67 453.94 801.59 463.57   Q 792.78 471.98 780.91 486.84   C 778.31 490.09 775.84 494.52 774.41 497.38   C 766.03 514.17 761.10 532.15 758.12 550.04   Q 756.05 562.50 757.45 578.34   C 757.91 583.55 759.71 589.89 760.38 594.93   Q 761.69 604.80 765.46 613.50   Q 770.00 623.98 770.02 624.03   Q 774.45 634.03 775.17 635.41   Q 777.43 639.80 781.50 644.70   Q 785.35 649.33 792.84 659.92   A 1.22 0.80 14.9 0 0 793.01 660.11   L 817.16 681.44   A 1.99 1.97 79.0 0 0 817.60 681.74   Q 830.86 688.34 842.40 694.38   C 844.04 695.24 848.17 696.74 850.72 697.29   Q 861.06 699.52 870.92 702.11   Q 877.08 703.73 883.19 703.99   Q 887.03 704.15 895.64 704.40   Q 902.67 704.60 913.10 702.36   Q 927.13 699.35 930.26 698.35   Q 934.12 697.11 947.34 692.37   Q 954.20 689.91 959.65 686.54   Q 971.22 679.38 980.90 669.74   Z"/>
<path xmlns="http://www.w3.org/2000/svg" fill="#2b2c6e" d="M 995.15 654.96   L 980.90 669.74   Q 971.22 679.38 959.65 686.54   Q 954.20 689.91 947.34 692.37   Q 934.12 697.11 930.26 698.35   Q 927.13 699.35 913.10 702.36   Q 902.67 704.60 895.64 704.40   Q 887.03 704.15 883.19 703.99   Q 877.08 703.73 870.92 702.11   Q 861.06 699.52 850.72 697.29   C 848.17 696.74 844.04 695.24 842.40 694.38   Q 830.86 688.34 817.60 681.74   A 1.99 1.97 79.0 0 1 817.16 681.44   L 793.01 660.11   A 1.22 0.80 14.9 0 1 792.84 659.92   Q 785.35 649.33 781.50 644.70   Q 777.43 639.80 775.17 635.41   Q 774.45 634.03 770.02 624.03   Q 770.00 623.98 765.46 613.50   Q 761.69 604.80 760.38 594.93   C 759.71 589.89 757.91 583.55 757.45 578.34   Q 756.05 562.50 758.12 550.04   C 761.10 532.15 766.03 514.17 774.41 497.38   C 775.84 494.52 778.31 490.09 780.91 486.84   Q 792.78 471.98 801.59 463.57   Q 811.67 453.94 823.47 446.47   Q 827.77 443.75 831.78 442.07   Q 850.26 434.30 854.57 433.31   Q 874.37 428.72 878.03 428.10   Q 884.65 426.98 895.52 427.08   Q 907.39 427.20 919.30 430.91   Q 923.06 432.08 927.07 432.95   C 936.29 434.94 946.01 437.25 954.06 441.81   Q 958.83 444.51 963.33 447.87   Q 972.09 454.42 972.11 454.44   Q 985.10 464.15 986.44 465.32   C 991.76 469.95 996.38 475.74 1000.70 482.50   Q 1013.98 503.28 1015.76 506.76   C 1020.19 515.42 1023.06 525.14 1024.27 535.78   Q 1024.51 537.89 1026.09 547.10   Q 1027.32 554.22 1027.54 558.46   C 1028.14 570.34 1028.09 580.92 1025.09 592.31   C 1023.67 597.68 1022.54 605.71 1019.80 612.64   Q 1015.34 623.91 1010.12 634.87   Q 1005.46 644.63 995.15 654.96   Z   M 791.59 631.42   Q 795.88 639.20 803.08 646.91   C 808.09 652.29 813.40 658.27 819.44 662.87   Q 832.68 672.94 844.30 678.22   Q 875.04 692.18 910.49 687.36   C 922.27 685.76 934.12 682.12 944.69 676.10   Q 952.03 671.93 954.77 670.27   Q 978.91 655.67 992.80 632.33   C 995.64 627.56 999.77 621.15 1001.88 616.14   Q 1007.82 601.99 1010.24 589.24   Q 1013.16 573.84 1011.93 554.28   Q 1011.31 544.57 1008.02 533.61   Q 1003.81 519.58 998.84 509.02   C 992.79 496.17 984.27 486.27 974.28 475.85   C 962.15 463.20 948.02 456.57 932.46 450.13   Q 917.85 444.07 902.48 443.40   Q 889.38 442.83 880.13 443.65   C 869.11 444.63 855.38 447.80 844.32 453.44   Q 835.46 457.96 831.19 460.43   Q 811.90 471.56 798.76 489.28   Q 788.00 503.81 781.21 520.46   Q 777.37 529.88 775.70 538.22   C 772.78 552.79 771.88 569.30 774.49 584.28   C 776.65 596.64 778.54 606.10 783.55 615.89   Q 790.44 629.34 791.59 631.42   Z"/>
<path xmlns="http://www.w3.org/2000/svg" fill="#2b2c6e" d="M 505.95 686.54   C 503.32 684.99 500.01 682.86 497.26 680.60   Q 487.53 672.57 485.67 670.82   Q 480.21 665.65 475.71 661.58   Q 469.01 655.54 467.32 653.39   Q 462.30 647.04 460.31 643.93   Q 460.29 643.90 454.69 633.70   C 450.54 626.14 447.46 617.06 444.81 611.03   C 440.88 602.12 439.42 592.97 437.92 582.38   C 436.70 573.78 437.14 565.90 437.52 557.18   Q 437.67 553.85 439.14 542.63   Q 441.28 526.21 447.49 513.17   Q 453.89 499.72 461.83 486.06   Q 463.25 483.62 468.23 477.03   Q 471.33 472.94 475.71 468.89   Q 484.98 460.33 491.88 455.30   C 495.05 453.00 498.55 449.18 501.69 447.47   Q 505.57 445.35 507.82 443.62   A 3.98 3.65 10.6 0 1 508.56 443.16   C 520.16 437.54 535.00 433.54 547.53 429.90   C 558.55 426.71 570.18 426.77 581.93 427.71   C 588.09 428.21 594.46 429.79 600.21 430.75   C 608.30 432.11 615.29 434.53 624.47 437.78   Q 632.20 440.51 638.23 444.28   Q 646.63 449.55 655.45 456.80   Q 664.81 464.50 669.59 469.14   Q 675.62 475.00 681.96 483.27   Q 686.71 489.47 692.52 502.30   C 697.90 514.16 702.80 524.86 705.58 537.14   Q 706.81 542.57 707.25 552.46   Q 707.61 560.48 707.64 572.00   Q 707.66 578.67 706.55 584.81   Q 704.39 596.80 702.75 604.26   C 700.37 615.15 695.69 623.37 689.51 635.78   Q 685.91 643.02 680.86 648.62   Q 676.78 653.16 671.65 659.89   C 668.08 664.58 663.79 668.58 658.29 672.47   Q 653.28 676.02 650.13 678.77   C 644.44 683.73 639.79 686.23 633.59 688.97   C 626.60 692.04 617.29 697.21 609.65 699.16   Q 608.00 699.58 594.17 702.29   C 579.69 705.14 564.74 704.48 551.00 701.62   Q 542.63 699.88 537.27 698.82   Q 530.78 697.53 524.77 695.21   Q 518.66 692.85 512.72 690.17   Q 510.11 688.99 505.95 686.54   Z   M 474.89 635.13   Q 477.71 639.85 483.58 647.48   Q 494.01 661.03 511.29 670.99   Q 523.76 678.18 530.42 680.83   Q 559.42 692.39 590.87 687.06   Q 601.32 685.28 611.56 682.08   C 619.66 679.54 625.98 675.51 633.97 671.00   C 646.48 663.93 657.19 653.55 666.36 642.36   C 671.12 636.56 674.62 629.02 678.44 622.95   C 683.90 614.26 686.23 604.45 688.92 594.57   Q 690.84 587.50 691.39 583.58   C 693.38 569.47 692.29 555.14 689.57 540.25   Q 687.13 526.86 681.99 515.43   Q 678.48 507.62 671.16 496.34   C 661.44 481.37 648.27 467.71 632.90 459.63   Q 619.41 452.54 610.81 449.20   Q 603.42 446.33 588.87 444.09   C 579.65 442.67 568.43 443.01 560.27 443.60   Q 543.29 444.84 527.66 451.95   Q 516.57 456.99 506.43 463.43   C 492.10 472.54 480.60 485.77 471.59 499.60   C 461.10 515.69 456.02 534.10 453.39 553.79   Q 451.91 564.91 453.43 576.72   Q 455.23 590.73 457.42 599.36   C 460.22 610.39 465.29 621.90 472.50 631.54   Q 473.72 633.18 474.89 635.13   Z"/>
<path xmlns="http://www.w3.org/2000/svg" fill="#ffffff" d="M 474.89 635.13   Q 473.72 633.18 472.50 631.54   C 465.29 621.90 460.22 610.39 457.42 599.36   Q 455.23 590.73 453.43 576.72   Q 451.91 564.91 453.39 553.79   C 456.02 534.10 461.10 515.69 471.59 499.60   C 480.60 485.77 492.10 472.54 506.43 463.43   Q 516.57 456.99 527.66 451.95   Q 543.29 444.84 560.27 443.60   C 568.43 443.01 579.65 442.67 588.87 444.09   Q 603.42 446.33 610.81 449.20   Q 619.41 452.54 632.90 459.63   C 648.27 467.71 661.44 481.37 671.16 496.34   Q 678.48 507.62 681.99 515.43   Q 687.13 526.86 689.57 540.25   C 692.29 555.14 693.38 569.47 691.39 583.58   Q 690.84 587.50 688.92 594.57   C 686.23 604.45 683.90 614.26 678.44 622.95   C 674.62 629.02 671.12 636.56 666.36 642.36   C 657.19 653.55 646.48 663.93 633.97 671.00   C 625.98 675.51 619.66 679.54 611.56 682.08   Q 601.32 685.28 590.87 687.06   Q 559.42 692.39 530.42 680.83   Q 523.76 678.18 511.29 670.99   Q 494.01 661.03 483.58 647.48   Q 477.71 639.85 474.89 635.13   Z   M 639.83 574.91   A 30.28 30.28 0.0 0 0 609.55 544.63   A 30.28 30.28 0.0 0 0 579.27 574.91   A 30.28 30.28 0.0 0 0 609.55 605.19   A 30.28 30.28 0.0 0 0 639.83 574.91   Z"/>
<path xmlns="http://www.w3.org/2000/svg" fill="#ffffff" d="M 783.55 615.89   C 778.54 606.10 776.65 596.64 774.49 584.28   C 771.88 569.30 772.78 552.79 775.70 538.22   Q 777.37 529.88 781.21 520.46   Q 788.00 503.81 798.76 489.28   Q 811.90 471.56 831.19 460.43   Q 835.46 457.96 844.32 453.44   C 855.38 447.80 869.11 444.63 880.13 443.65   Q 889.38 442.83 902.48 443.40   Q 917.85 444.07 932.46 450.13   C 948.02 456.57 962.15 463.20 974.28 475.85   C 984.27 486.27 992.79 496.17 998.84 509.02   Q 1003.81 519.58 1008.02 533.61   Q 1011.31 544.57 1011.93 554.28   Q 1013.16 573.84 1010.24 589.24   Q 1007.82 601.99 1001.88 616.14   C 999.77 621.15 995.64 627.56 992.80 632.33   Q 978.91 655.67 954.77 670.27   Q 952.03 671.93 944.69 676.10   C 934.12 682.12 922.27 685.76 910.49 687.36   Q 875.04 692.18 844.30 678.22   Q 832.68 672.94 819.44 662.87   C 813.40 658.27 808.09 652.29 803.08 646.91   Q 795.88 639.20 791.59 631.42   Q 790.44 629.34 783.55 615.89   Z   M 886.07 574.93   A 30.28 30.28 0.0 0 0 855.79 544.65   A 30.28 30.28 0.0 0 0 825.51 574.93   A 30.28 30.28 0.0 0 0 855.79 605.21   A 30.28 30.28 0.0 0 0 886.07 574.93   Z"/>
<path xmlns="http://www.w3.org/2000/svg" fill="#2b2c6e" d="M 639.83 574.91   A 30.28 30.28 0.0 0 1 609.55 605.19   A 30.28 30.28 0.0 0 1 579.27 574.91   A 30.28 30.28 0.0 0 1 609.55 544.63   A 30.28 30.28 0.0 0 1 639.83 574.91   Z   M 631.49 565.07   A 10.06 10.06 0.0 0 0 621.43 555.01   A 10.06 10.06 0.0 0 0 611.37 565.07   A 10.06 10.06 0.0 0 0 621.43 575.13   A 10.06 10.06 0.0 0 0 631.49 565.07   Z"/>
<path xmlns="http://www.w3.org/2000/svg" fill="#2b2c6e" d="M 886.07 574.93   A 30.28 30.28 0.0 0 1 855.79 605.21   A 30.28 30.28 0.0 0 1 825.51 574.93   A 30.28 30.28 0.0 0 1 855.79 544.65   A 30.28 30.28 0.0 0 1 886.07 574.93   Z   M 877.75 564.98   A 10.15 10.15 0.0 0 0 867.60 554.83   A 10.15 10.15 0.0 0 0 857.45 564.98   A 10.15 10.15 0.0 0 0 867.60 575.13   A 10.15 10.15 0.0 0 0 877.75 564.98   Z"/>
<circle xmlns="http://www.w3.org/2000/svg" fill="#ffffff" cx="867.60" cy="564.98" r="10.15"/>
<circle xmlns="http://www.w3.org/2000/svg" fill="#ffffff" cx="621.43" cy="565.07" r="10.06"/>
<path xmlns="http://www.w3.org/2000/svg" fill="#2b2c6e" d="M 749.61 636.21   C 755.40 639.06 761.59 642.38 765.68 646.14   Q 769.09 649.28 773.67 655.89   C 778.55 662.94 784.22 670.05 787.29 678.12   Q 790.50 686.59 791.46 688.31   Q 796.02 696.50 796.69 699.31   Q 798.56 707.19 800.56 712.96   Q 804.03 722.97 804.99 726.40   Q 807.68 735.98 810.85 752.92   C 815.09 775.59 817.48 797.29 817.11 820.33   C 816.98 828.70 812.87 837.60 803.99 838.67   C 797.69 839.43 792.50 837.62 787.22 836.87   Q 730.40 828.76 674.00 838.20   C 668.60 839.10 662.69 839.56 658.20 836.08   C 651.56 830.95 651.41 823.52 651.52 814.52   C 651.74 794.91 652.89 776.82 656.74 758.61   C 658.58 749.95 659.90 741.18 662.36 731.52   Q 668.12 708.96 676.01 689.25   C 677.96 684.40 680.25 680.94 682.14 676.69   Q 682.65 675.55 684.98 671.86   Q 691.36 661.74 696.76 653.77   C 698.45 651.28 700.71 648.78 703.42 646.76   Q 706.91 644.15 711.24 640.50   C 719.91 633.18 732.96 631.84 743.61 633.82   Q 745.47 634.17 749.61 636.21   Z   M 782.44 714.24   A 0.25 0.25 0.0 0 0 782.82 713.94   Q 782.15 712.15 776.61 698.02   C 773.32 689.63 768.43 680.12 764.93 674.05   Q 760.00 665.50 749.97 656.54   C 742.53 649.90 734.05 648.86 725.08 652.60   C 712.99 657.65 703.40 672.47 697.86 683.89   Q 690.80 698.44 685.74 714.23   A 0.35 0.35 0.0 0 0 686.34 714.55   C 698.68 698.76 717.29 689.37 737.81 690.25   C 754.69 690.98 770.02 699.78 780.77 712.72   Q 781.52 713.63 782.44 714.24   Z   M 734.34 815.83   C 745.59 815.82 757.93 816.90 767.41 817.16   C 776.48 817.41 787.62 820.26 796.67 821.06   A 0.99 0.99 0.0 0 0 797.68 819.71   C 794.81 812.49 789.82 807.69 783.68 801.08   Q 778.58 795.59 774.28 792.85   C 761.60 784.78 749.72 780.33 734.31 780.34   C 718.89 780.36 707.02 784.83 694.36 792.93   Q 690.06 795.68 684.97 801.18   C 678.85 807.80 673.86 812.61 671.01 819.84   A 0.99 0.99 0.0 0 0 672.02 821.18   C 681.07 820.37 692.20 817.49 701.27 817.23   C 710.75 816.95 723.09 815.84 734.34 815.83   Z"/>
<path xmlns="http://www.w3.org/2000/svg" fill="#ee9e61" d="M 782.44 714.24   Q 781.52 713.63 780.77 712.72   C 770.02 699.78 754.69 690.98 737.81 690.25   C 717.29 689.37 698.68 698.76 686.34 714.55   A 0.35 0.35 0.0 0 1 685.74 714.23   Q 690.80 698.44 697.86 683.89   C 703.40 672.47 712.99 657.65 725.08 652.60   C 734.05 648.86 742.53 649.90 749.97 656.54   Q 760.00 665.50 764.93 674.05   C 768.43 680.12 773.32 689.63 776.61 698.02   Q 782.15 712.15 782.82 713.94   A 0.25 0.25 0.0 0 1 782.44 714.24   Z"/>
<path xmlns="http://www.w3.org/2000/svg" fill="#7174db" d="M 995.15 654.96   Q 989.13 663.48 980.90 669.74   L 995.15 654.96   Z"/>
<path xmlns="http://www.w3.org/2000/svg" fill="#9da1e8" d="M 1105.66 692.14   A 0.64 0.64 0.0 0 1 1106.81 691.84   Q 1114.24 701.69 1119.66 708.82   Q 1123.18 713.45 1126.84 722.61   Q 1131.53 734.31 1134.68 747.64   C 1139.80 769.33 1139.91 790.33 1136.93 813.49   C 1135.56 824.15 1132.90 834.38 1128.73 844.67   Q 1127.50 847.71 1124.80 855.66   Q 1121.40 865.69 1118.00 873.02   C 1114.57 880.42 1111.51 885.50 1106.45 892.64   Q 1098.40 904.00 1096.69 906.95   C 1090.89 916.98 1084.06 924.67 1075.65 933.06   C 1068.13 940.55 1060.33 948.46 1055.19 953.20   Q 1050.02 957.97 1041.24 963.61   C 1036.68 966.54 1033.85 968.78 1028.56 972.62   C 1022.90 976.74 1018.05 979.06 1011.67 981.62   A 0.42 0.42 0.0 0 1 1011.16 981.00   L 1015.97 973.72   A 0.29 0.24 85.3 0 1 1016.02 973.65   Q 1026.96 960.87 1031.82 952.58   Q 1038.12 941.85 1049.56 922.55   Q 1052.14 918.20 1060.50 899.71   Q 1064.27 891.37 1067.43 884.61   C 1073.84 870.88 1077.81 857.78 1082.70 842.42   C 1094.24 806.22 1101.21 768.64 1103.82 731.14   Q 1104.47 721.92 1105.22 714.95   Q 1105.98 707.93 1105.90 698.37   C 1105.88 696.17 1105.39 694.05 1105.66 692.14   Z"/>
<path xmlns="http://www.w3.org/2000/svg" fill="#9da1e8" d="M 346.48 692.69   A 0.55 0.55 0.0 0 1 347.44 693.09   Q 346.71 704.06 347.45 715.37   Q 348.74 735.02 351.65 757.05   Q 354.69 780.10 358.67 798.35   Q 365.78 830.89 377.78 864.03   Q 386.14 887.15 396.87 908.16   Q 401.10 916.44 408.29 930.72   C 409.82 933.77 411.83 936.71 413.48 939.74   Q 414.67 941.91 415.60 943.29   C 420.51 950.51 426.45 958.60 432.20 967.75   Q 435.88 973.60 441.38 979.45   Q 441.74 979.84 441.74 980.21   A 0.49 0.49 0.0 0 1 441.01 980.63   Q 433.00 976.11 423.01 970.88   Q 416.24 967.33 408.74 960.96   Q 404.82 957.63 396.77 950.31   Q 394.05 947.84 387.35 942.13   Q 375.54 932.08 366.11 919.37   Q 352.46 900.96 340.66 881.60   C 334.47 871.46 331.05 860.19 326.78 849.23   C 326.14 847.59 325.27 844.45 324.24 842.02   Q 320.00 832.00 318.38 821.37   C 315.75 804.18 313.71 791.88 314.92 776.24   Q 316.69 753.42 323.42 731.46   C 324.72 727.21 327.70 720.46 330.82 715.55   C 337.62 704.85 340.80 699.30 346.48 692.69   Z"/>
<path xmlns="http://www.w3.org/2000/svg" fill="#e57f72" d="M 734.31 780.34   C 749.72 780.33 761.60 784.78 774.28 792.85   Q 778.58 795.59 783.68 801.08   C 789.82 807.69 794.81 812.49 797.68 819.71   A 0.99 0.99 0.0 0 1 796.67 821.06   C 787.62 820.26 776.48 817.41 767.41 817.16   C 757.93 816.90 745.59 815.82 734.34 815.83   C 723.09 815.84 710.75 816.95 701.27 817.23   C 692.20 817.49 681.07 820.37 672.02 821.18   A 0.99 0.99 0.0 0 1 671.01 819.84   C 673.86 812.61 678.85 807.80 684.97 801.18   Q 690.06 795.68 694.36 792.93   C 707.02 784.83 718.89 780.36 734.31 780.34   Z"/>
<path xmlns="http://www.w3.org/2000/svg" fill="#9da1e8" d="M 378.64 961.77   A 0.23 0.23 0.0 0 1 378.38 962.15   Q 362.27 954.49 357.99 952.45   Q 352.96 950.05 347.55 946.84   C 344.20 944.86 338.20 941.90 333.80 939.00   Q 319.71 929.72 301.65 919.61   Q 301.06 919.28 293.37 914.06   Q 289.96 911.73 285.37 907.61   Q 277.19 900.24 269.23 894.36   Q 263.84 890.38 260.55 887.19   Q 252.96 879.85 252.32 879.02   Q 245.04 869.47 242.47 866.52   C 234.01 856.78 227.58 846.59 225.34 833.73   Q 224.27 827.60 227.01 822.18   Q 235.07 806.23 253.17 807.69   Q 261.05 808.33 274.56 812.05   C 282.17 814.14 288.62 817.97 296.36 822.08   A 4.36 4.36 0.0 0 1 298.57 824.95   C 300.12 831.68 302.56 837.84 303.96 844.12   Q 306.03 853.40 309.34 862.56   Q 311.80 869.36 317.65 879.94   Q 324.13 891.68 329.01 901.49   Q 331.62 906.73 334.57 911.05   Q 340.55 919.80 340.85 920.15   Q 363.21 946.42 374.15 957.57   Q 374.28 957.70 378.64 961.77   Z"/>
<path xmlns="http://www.w3.org/2000/svg" fill="#9da1e8" d="M 931.10 1033.76   Q 920.87 1041.79 916.29 1044.55   Q 890.30 1060.18 890.22 1060.23   C 882.53 1064.93 874.76 1069.02 866.16 1072.56   Q 856.39 1076.57 840.88 1083.10   C 835.54 1085.35 831.34 1086.48 825.57 1088.30   Q 820.35 1089.96 795.79 1095.75   Q 779.52 1099.58 765.57 1101.10   C 730.85 1104.87 696.02 1103.78 662.06 1096.55   C 644.23 1092.75 628.98 1089.64 613.99 1083.19   Q 610.35 1081.62 592.49 1074.71   Q 576.37 1068.47 561.16 1058.42   Q 557.42 1055.95 550.71 1052.39   Q 540.53 1047.00 531.36 1039.94   Q 532.46 1037.65 532.91 1035.49   A 4.33 4.08 65.1 0 1 533.21 1034.59   Q 535.88 1029.05 538.15 1020.31   Q 541.50 1007.39 548.88 991.76   Q 577.43 931.25 632.78 898.12   C 684.48 867.18 748.07 861.99 803.78 884.31   C 856.12 905.29 898.08 948.97 919.35 1001.42   C 923.78 1012.35 928.13 1022.94 931.10 1033.76   Z"/>
<path xmlns="http://www.w3.org/2000/svg" fill="#7174db" d="M 499.60 1041.38   C 482.47 1041.95 467.10 1041.91 451.43 1040.06   C 445.39 1039.35 439.58 1039.10 432.51 1038.36   Q 401.57 1035.15 366.75 1029.16   Q 359.05 1027.84 351.63 1025.72   C 332.28 1020.21 315.96 1016.91 299.27 1011.20   Q 287.36 1007.13 277.65 1003.09   Q 270.98 1000.32 266.04 997.51   C 256.28 991.94 247.33 987.34 238.26 981.44   Q 233.72 978.49 231.02 975.98   Q 225.05 970.43 224.48 969.51   Q 220.27 962.74 218.19 957.56   Q 216.71 953.87 216.66 947.54   A 3.41 3.40 -34.4 0 1 216.91 946.21   Q 219.62 939.51 224.21 937.10   Q 234.64 931.61 247.17 930.62   Q 262.19 929.43 269.54 930.18   C 278.01 931.06 285.36 932.42 292.27 936.77   C 300.33 941.84 306.50 946.19 315.14 950.72   C 322.78 954.72 326.76 956.71 334.60 961.19   Q 351.69 970.93 361.70 976.06   Q 372.63 981.65 389.55 988.84   Q 399.22 992.96 404.71 995.61   Q 413.30 999.77 419.90 1002.33   Q 448.50 1013.43 477.49 1020.99   A 8.24 8.21 73.9 0 1 481.05 1022.96   L 499.85 1040.71   A 0.39 0.39 0.0 0 1 499.60 1041.38   Z"/>
<path xmlns="http://www.w3.org/2000/svg" fill="#ee9e61" d="M 833.16 1143.74   Q 832.05 1144.99 830.04 1147.63   C 823.69 1155.96 811.87 1158.94 802.71 1153.89   C 793.13 1148.60 789.92 1136.73 793.18 1126.63   Q 794.46 1122.70 797.02 1117.77   Q 798.05 1115.77 800.02 1115.48   Q 813.65 1113.50 825.99 1109.24   Q 844.45 1102.87 860.28 1097.15   A 3.60 3.58 52.4 0 1 863.53 1097.58   C 876.52 1106.64 885.88 1117.05 882.68 1134.36   Q 880.38 1146.76 868.40 1150.09   Q 860.03 1152.42 853.02 1149.04   C 850.37 1147.76 848.59 1146.00 846.15 1143.81   C 842.66 1140.69 837.57 1140.47 833.93 1143.05   A 4.35 4.11 1.6 0 0 833.16 1143.74   Z"/>
<path xmlns="http://www.w3.org/2000/svg" fill="#ee9e61" d="M 663.21 1117.75   C 670.46 1129.03 671.06 1143.68 659.55 1152.59   Q 653.18 1157.52 645.30 1156.41   Q 637.18 1155.27 632.03 1149.63   Q 628.63 1145.92 627.01 1143.81   A 3.05 2.98 88.0 0 0 626.33 1143.16   Q 623.19 1140.99 618.91 1141.65   C 614.51 1142.32 612.09 1146.63 608.04 1148.61   Q 599.92 1152.59 593.01 1150.67   Q 580.15 1147.10 577.40 1134.11   C 574.52 1120.49 582.39 1107.78 593.85 1100.38   Q 596.67 1098.56 599.32 1099.40   Q 612.87 1103.69 629.10 1109.38   Q 637.91 1112.47 658.67 1115.98   Q 660.34 1116.27 662.02 1116.83   A 2.26 2.24 -7.1 0 1 663.21 1117.75   Z"/>
</g></g></g></g></svg>