<svg xmlns="http://www.w3.org/2000/svg" direction="ltr" width="2048" height="2048" viewBox="22443.296650430373 26121.591492410906 2048 2048" stroke-linecap="round" stroke-linejoin="round" data-color-mode="light" class="tl-container tl-theme__force-sRGB tl-theme__light" style="background-color: transparent;"><defs/><g transform="matrix(1, 0, 0, 1, 22443.2967, 26121.5915)" opacity="1"><g data-lovart-layer-name="SVG 5"><g transform="scale(1.4143646408839778, 1.4143646408839778)"><g>
<g xmlns="http://www.w3.org/2000/svg" stroke-width="2.00" fill="none" stroke-linecap="butt">
<path stroke="#9596b9" d="M 647.13 1166.82   C 655.80 1176.23 666.78 1179.17 677.96 1173.28   C 685.15 1169.50 689.22 1163.43 692.67 1155.70   Q 699.95 1139.38 698.04 1121.66   A 0.63 0.62 -0.7 0 1 698.72 1120.97   Q 732.07 1124.09 765.58 1121.08   A 0.62 0.61 -88.1 0 1 766.24 1121.79   Q 764.65 1132.31 767.00 1142.29   C 770.30 1156.32 776.37 1170.57 791.16 1175.35   C 800.81 1178.48 810.77 1173.53 816.87 1166.26   A 0.65 0.64 -42.1 0 1 817.90 1166.31   Q 818.76 1167.56 821.83 1170.34   Q 828.68 1176.56 838.80 1177.54   C 848.72 1178.50 858.17 1172.73 864.32 1165.19   A 0.43 0.43 0.0 0 1 864.92 1165.12   C 874.22 1172.11 887.83 1173.18 896.95 1165.42   Q 903.64 1159.72 907.23 1151.20   C 915.81 1130.86 914.63 1103.35 898.48 1086.86   A 0.78 0.78 0.0 0 1 898.68 1085.63   Q 910.60 1079.42 924.21 1071.20   C 931.46 1066.81 936.45 1062.56 945.74 1055.40   C 956.51 1047.09 964.17 1039.99 973.36 1030.23   A 5.97 5.96 -76.8 0 1 975.94 1028.63   C 987.49 1025.16 997.63 1021.88 1008.32 1016.32   C 1029.46 1005.32 1048.80 991.42 1064.69 973.70   Q 1071.55 966.06 1082.39 950.99   C 1093.02 936.23 1099.83 920.84 1105.95 902.95   C 1114.61 877.60 1117.03 851.35 1115.34 824.26   Q 1113.81 799.85 1106.20 777.58   C 1099.33 757.44 1089.08 737.13 1076.17 721.20   Q 1070.19 713.82 1064.93 707.96   A 4.61 4.56 21.4 0 1 1063.77 705.35   C 1061.07 678.02 1058.63 654.43 1053.36 627.88   C 1048.41 602.92 1045.03 584.86 1038.43 564.82   Q 1030.14 539.66 1028.11 533.83   Q 1024.81 524.38 1019.80 514.96   C 1014.12 504.29 1004.61 484.60 995.47 471.67   Q 980.99 451.18 971.02 439.82   Q 925.78 388.19 861.37 360.05   C 841.39 351.32 821.24 345.57 800.02 340.92   A 1.27 1.26 86.0 0 1 799.11 340.12   Q 789.16 313.26 769.60 292.19   C 759.55 281.37 741.23 268.57 725.80 270.61   C 710.23 272.66 703.78 284.29 703.91 298.90   A 0.57 0.57 0.0 0 1 703.08 299.41   Q 691.96 293.57 679.75 292.12   C 664.57 290.32 645.83 295.51 642.53 312.47   C 640.28 324.03 646.00 334.34 653.75 342.31   A 0.48 0.47 -29.6 0 1 653.53 343.10   Q 636.01 347.62 618.39 353.70   C 602.83 359.08 588.69 366.19 574.06 373.91   Q 563.68 379.38 556.74 384.12   Q 534.12 399.56 519.05 413.06   Q 493.91 435.57 473.49 464.23   Q 463.77 477.87 458.62 486.62   C 451.40 498.90 445.54 512.09 439.33 525.17   Q 435.13 534.02 431.41 545.56   C 424.01 568.54 419.13 583.40 415.28 601.01   Q 413.14 610.83 407.06 645.51   Q 401.99 674.48 400.15 704.92   A 4.55 4.55 0.0 0 1 398.88 707.81   C 390.31 716.69 383.54 724.66 376.89 735.93   Q 364.53 756.88 358.81 772.76   Q 347.10 805.30 347.11 843.20   C 347.11 861.39 351.29 882.46 355.93 899.42   Q 360.03 914.40 371.57 935.67   Q 383.21 957.13 395.64 970.60   C 406.35 982.20 416.44 992.37 429.94 1001.42   Q 446.88 1012.78 461.19 1019.46   C 469.62 1023.40 477.07 1025.52 487.99 1029.13   A 6.39 6.39 0.0 0 1 490.65 1030.85   Q 501.98 1043.02 513.48 1052.26   Q 537.52 1071.56 564.96 1085.76   A 0.70 0.69 -56.2 0 1 565.17 1086.83   Q 557.20 1096.18 553.87 1108.14   Q 546.63 1134.13 559.74 1157.17   C 568.03 1171.75 585.98 1175.26 599.07 1164.87   A 0.59 0.59 0.0 0 1 599.92 1165.00   Q 603.97 1170.71 610.80 1174.21   Q 626.42 1182.23 640.96 1171.70   Q 641.66 1171.20 646.15 1166.80   A 0.68 0.68 0.0 0 1 647.13 1166.82"/>
<path stroke="#f6c2d1" d="M 938.20 348.53   Q 938.59 348.63 939.29 348.38   Q 955.39 342.65 968.00 332.81   Q 975.66 326.84 978.28 320.09   C 984.51 304.05 968.69 290.35 954.23 300.01   Q 953.40 300.57 950.19 303.48   Q 950.10 303.57 949.99 303.58   Q 949.89 303.59 949.73 303.56   Q 949.56 303.51 949.47 303.45   Q 949.38 303.39 949.35 303.26   Q 947.94 299.17 947.48 298.27   C 939.48 282.84 919.01 287.20 916.73 304.26   Q 915.77 311.44 919.60 320.36   Q 925.89 335.06 937.23 347.85   Q 937.72 348.41 938.20 348.53"/>
<path stroke="#fedbdd" d="M 524.70 352.10   Q 525.18 351.98 525.68 351.43   Q 537.14 338.79 543.59 324.18   Q 547.52 315.31 546.64 308.14   C 544.55 291.08 524.16 286.49 516.00 301.82   Q 515.53 302.70 514.08 306.78   Q 514.04 306.90 513.95 306.96   Q 513.87 307.02 513.69 307.07   Q 513.54 307.10 513.43 307.09   Q 513.33 307.08 513.24 306.99   Q 510.06 304.04 509.24 303.48   C 494.91 293.67 478.96 307.17 485.00 323.25   Q 487.55 330.02 495.13 336.07   Q 507.61 346.03 523.61 351.94   Q 524.31 352.19 524.70 352.10"/>
<path stroke="#f6bebe" d="M 1096.77 343.87   Q 1095.55 335.91 1093.33 328.69   Q 1090.68 320.07 1084.99 314.04   C 1078.92 307.63 1070.83 302.11 1061.99 300.97   C 1043.30 298.55 1027.05 307.82 1019.05 324.56   C 1011.46 340.41 1012.99 359.63 1017.61 376.13   C 1024.60 401.08 1037.05 424.88 1051.86 447.13   A 2.44 2.44 0.0 0 0 1054.36 448.18   C 1080.50 443.18 1106.85 435.34 1129.98 422.26   C 1151.09 410.32 1171.37 391.48 1167.84 364.67   Q 1165.37 345.89 1149.17 336.57   C 1131.60 326.46 1112.36 331.44 1097.37 344.09   A 0.37 0.37 0.0 0 1 1096.77 343.87"/>
<path stroke="#f6c2d1" d="M 365.30 353.16   Q 358.41 347.15 348.46 343.36   C 332.02 337.10 313.02 341.75 302.51 355.95   C 292.69 369.24 292.43 387.09 300.29 401.59   Q 305.95 412.01 315.87 419.91   Q 334.47 434.72 357.72 443.29   Q 382.27 452.33 407.48 457.83   A 2.78 2.75 -66.4 0 0 410.35 456.69   C 423.94 436.91 435.35 415.47 443.11 392.61   C 447.73 378.98 450.29 363.26 448.75 349.93   C 446.86 333.57 436.70 317.64 420.46 312.56   Q 400.47 306.29 384.41 318.88   C 373.76 327.22 368.43 339.31 366.54 352.69   A 0.76 0.75 -65.7 0 1 365.30 353.16"/>
<path stroke="#f6c2d1" d="M 280.19 491.79   A 0.40 0.40 0.0 0 1 279.70 492.19   Q 276.84 491.51 275.58 491.29   C 263.70 489.15 253.88 498.29 256.88 510.50   C 258.86 518.58 267.47 523.73 275.37 525.54   Q 292.18 529.39 309.20 526.59   A 1.23 1.22 -86.5 0 0 310.17 525.72   C 314.00 512.63 316.30 495.61 311.49 482.70   C 308.24 473.97 298.55 467.82 289.38 471.97   C 283.16 474.79 279.65 481.48 280.03 488.26   Q 280.11 489.64 280.19 491.79"/>
<path stroke="#e7acbc" d="M 1168.19 491.81   Q 1168.27 489.66 1168.35 488.29   C 1168.74 481.50 1165.23 474.80 1159.01 471.98   C 1149.84 467.81 1140.14 473.96 1136.88 482.69   C 1132.05 495.61 1134.34 512.63 1138.16 525.74   A 1.23 1.22 86.5 0 0 1139.13 526.61   Q 1156.16 529.43 1172.98 525.59   C 1180.89 523.78 1189.51 518.64 1191.49 510.55   C 1194.51 498.34 1184.69 489.19 1172.80 491.31   Q 1171.54 491.54 1168.68 492.22   A 0.40 0.40 0.0 0 1 1168.19 491.81"/>
<path stroke="#f6bebe" d="M 343.89 556.22   A 0.49 0.49 0.0 0 1 343.24 556.62   Q 339.92 555.30 338.45 554.81   C 324.54 550.17 311.15 559.44 312.63 574.63   C 313.60 584.69 323.04 592.38 332.22 595.93   Q 351.74 603.49 372.68 603.09   A 1.49 1.48 -78.2 0 0 373.99 602.22   C 380.89 587.16 386.62 567.12 383.09 550.76   C 380.71 539.70 370.14 530.62 358.39 534.01   C 350.43 536.31 345.04 543.74 344.32 551.96   Q 344.17 553.62 343.89 556.22"/>
<path stroke="#fedbdd" d="M 1104.52 556.25   Q 1104.24 553.65 1104.09 551.98   C 1103.37 543.75 1097.97 536.30 1089.99 534.00   C 1078.22 530.60 1067.63 539.70 1065.24 550.78   C 1061.71 567.17 1067.45 587.25 1074.36 602.35   A 1.49 1.48 78.2 0 0 1075.68 603.22   Q 1096.66 603.62 1116.22 596.04   C 1125.42 592.48 1134.88 584.78 1135.85 574.70   C 1137.33 559.48 1123.91 550.19 1109.98 554.84   Q 1108.50 555.33 1105.18 556.65   A 0.49 0.49 0.0 0 1 1104.52 556.25"/>
<path stroke="#595caf" d="M 483.71 477.06   C 482.32 478.74 480.97 480.47 479.90 482.41   Q 471.27 498.17 466.59 505.38   Q 461.89 512.63 458.54 520.06   Q 457.38 522.65 456.34 524.25   A 4.03 3.75 -21.1 0 0 455.94 525.07   Q 448.95 546.16 446.65 551.38   Q 439.86 566.74 437.59 577.57   Q 435.58 587.18 433.37 596.73"/>
<path stroke="#3d3da1" d="M 433.37 596.73   Q 429.84 609.36 426.53 622.02   C 425.54 625.81 425.49 628.70 424.72 632.01   C 423.41 637.64 422.93 645.09 421.98 650.25   Q 420.88 656.22 420.64 660.96   C 420.21 669.23 418.68 678.29 418.04 686.32   Q 417.74 690.05 415.65 705.57   Q 413.63 720.52 413.50 734.75   Q 413.37 748.15 413.07 765.74   C 412.47 800.89 416.77 833.69 424.02 871.50   Q 426.24 883.08 431.05 895.91   Q 432.87 900.76 439.47 920.89   C 442.75 930.87 446.17 938.09 450.88 946.46   Q 457.00 957.34 461.61 967.46   Q 465.39 975.76 468.92 980.10   C 473.31 985.51 478.56 991.78 483.64 997.61   Q 486.98 1001.45 487.91 1003.09   Q 492.99 1012.08 500.71 1018.55   A 3.88 3.63 4.4 0 1 501.37 1019.27   C 502.09 1020.32 502.29 1020.91 503.49 1021.94   Q 512.01 1029.23 522.71 1038.64   Q 522.73 1038.66 528.01 1043.71   Q 532.60 1048.09 538.26 1051.12   Q 538.42 1051.20 538.78 1051.05"/>
<path stroke="#5b6cb3" d="M 538.78 1051.05   Q 539.23 1051.95 539.74 1052.27   C 548.31 1057.61 555.59 1063.45 565.40 1068.03   Q 572.05 1071.14 578.51 1074.18   Q 595.60 1082.24 610.62 1087.77   Q 619.02 1090.86 630.88 1093.51   Q 650.82 1097.95 651.49 1098.10   C 672.50 1102.93 694.89 1105.07 716.37 1106.13   C 743.05 1107.45 769.56 1105.26 795.75 1101.52   Q 804.54 1100.26 820.05 1096.28   Q 825.26 1094.94 834.94 1092.97   Q 847.45 1090.43 860.64 1084.89   Q 886.33 1074.08 893.57 1070.69   C 897.84 1068.69 902.83 1066.05 905.72 1063.98   Q 915.35 1057.09 924.87 1051.08"/>
<path stroke="#3d3da1" d="M 924.87 1051.08   L 928.98 1049.06   A 2.54 2.21 -75.5 0 0 929.36 1048.80   C 932.87 1045.74 936.79 1043.24 940.07 1040.00   Q 945.91 1034.22 948.93 1031.68   Q 963.88 1019.12 972.78 1007.30   Q 978.96 999.09 979.72 998.45   Q 981.85 996.69 983.09 994.46   Q 983.50 993.72 986.16 990.15   Q 989.83 985.22 993.48 980.56   C 996.04 977.31 997.61 974.44 999.91 970.88   Q 1001.29 968.75 1004.16 963.25   C 1012.91 946.51 1021.87 929.46 1027.52 912.65   Q 1034.19 892.80 1041.59 862.10   Q 1043.95 852.30 1045.95 835.76   Q 1049.89 803.11 1050.43 776.97   Q 1050.60 768.86 1050.33 754.52   C 1049.98 735.71 1049.75 721.76 1047.99 703.75   Q 1045.65 679.84 1042.70 659.38   Q 1041.99 654.44 1041.01 645.12   Q 1040.45 639.77 1038.76 627.91   A 3.55 3.53 -58.9 0 0 1038.58 627.17   Q 1037.92 625.28 1037.82 623.69   Q 1037.70 621.83 1036.94 619.92   C 1034.84 614.58 1033.33 607.99 1031.02 602.15"/>
<path stroke="#595caf" d="M 1031.02 602.15   Q 1029.76 592.98 1028.69 589.33   Q 1026.81 582.94 1024.80 572.61   Q 1022.77 562.24 1015.56 546.77   Q 1012.77 540.78 1011.28 536.77   Q 1008.68 529.82 1007.33 526.61   C 1006.10 523.71 1004.80 519.05 1003.06 515.42"/>
<path stroke="#3d3da1" d="M 1003.06 515.42   Q 1000.94 508.92 996.80 503.73"/>
<path stroke="#595caf" d="M 996.80 503.73   Q 994.26 500.41 991.75 497.02   Q 990.73 495.65 989.13 491.96   A 0.88 0.65 -81.7 0 0 989.06 491.83   L 978.54 475.00"/>
<path stroke="#3d3da1" d="M 978.54 475.00   Q 974.57 467.45 970.78 463.22   C 964.87 456.62 961.82 453.38 956.27 446.75   Q 950.59 439.94 944.13 434.12   Q 935.62 426.46 925.37 417.33   C 917.90 410.68 911.13 405.70 903.45 400.82   Q 889.89 392.22 873.03 382.91   Q 866.37 379.24 859.63 376.21   Q 849.72 371.76 845.80 370.47   Q 834.02 366.60 814.08 360.42   Q 804.58 357.47 794.34 355.63   Q 788.68 354.62 786.20 348.81   C 781.34 337.44 775.65 324.44 768.37 314.86   Q 763.32 308.22 757.57 302.20   C 754.43 298.92 750.66 296.62 747.25 293.73   Q 742.52 289.73 738.99 288.19   C 735.56 286.70 727.63 284.55 724.12 286.54   C 718.34 289.82 719.09 300.60 720.64 305.85   C 722.49 312.11 727.95 317.41 729.04 323.66   C 730.66 332.97 719.28 335.22 714.51 328.73   Q 709.39 321.76 704.01 318.15   Q 698.87 314.71 690.20 310.69   Q 683.06 307.38 672.25 307.17   Q 668.49 307.09 661.36 309.73   A 2.41 2.41 0.0 0 0 660.56 310.23   Q 658.60 312.10 658.43 313.68   C 657.58 321.55 661.33 328.53 667.63 333.25   Q 670.09 335.09 674.03 338.47   Q 675.29 339.55 685.51 345.75   C 687.93 347.22 693.33 349.20 695.41 351.42   C 698.22 354.42 697.79 359.50 694.69 362.20   Q 690.94 365.47 685.59 362.80   Q 679.54 359.78 673.17 356.31   Q 670.89 355.08 668.44 355.65   C 655.41 358.69 647.25 360.41 637.80 363.78   Q 617.45 371.04 599.82 378.35   Q 590.89 382.05 585.69 385.22   Q 567.83 396.07 567.20 396.45   Q 559.58 401.05 548.48 409.31   Q 539.11 416.27 531.05 423.84   Q 520.87 433.39 511.76 441.51   C 509.95 443.13 505.91 447.33 503.81 450.22   Q 496.40 460.43 489.14 468.59   C 486.99 471.00 485.37 474.13 483.71 477.06"/>
<path stroke="#6c6cdd" d="M 978.54 475.00   Q 975.42 473.81 974.03 472.72   C 966.71 466.98 961.85 464.38 951.63 458.47   C 905.92 432.04 845.38 435.11 801.93 464.94   Q 770.58 486.46 751.28 519.03   Q 745.47 528.83 739.51 542.11   Q 737.56 546.46 735.62 553.19   Q 733.98 558.86 732.13 564.43   A 0.34 0.34 0.0 0 1 731.51 564.48   Q 730.51 562.64 730.25 561.31   C 728.81 554.12 726.91 547.20 723.14 539.46   Q 715.29 523.38 709.35 513.99   Q 698.17 496.31 681.44 480.44   Q 649.59 450.22 606.03 442.48   C 576.94 437.31 545.89 442.00 519.22 454.20   Q 514.60 456.32 509.49 460.79   A 5.10 4.85 8.5 0 1 508.62 461.40   Q 502.47 464.76 498.91 467.66   C 496.55 469.58 493.22 470.76 490.58 472.95   A 3.58 3.33 11.0 0 1 489.76 473.46   Q 486.56 474.86 483.71 477.06"/>
<path stroke="#6c6cdd" d="M 996.80 503.73   Q 999.33 509.94 1003.06 515.42"/>
<path stroke="#6c6cdd" d="M 1031.02 602.15   Q 1030.79 605.14 1029.92 607.87   Q 1029.50 609.18 1030.27 615.22   A 16.06 16.01 -47.4 0 1 1030.38 617.93   Q 1029.83 631.67 1029.43 633.74   Q 1026.61 648.33 1020.09 669.12   Q 1019.12 672.21 1016.60 677.76   Q 1013.97 683.54 1012.21 685.95   C 1001.80 700.26 991.05 713.72 977.85 725.21   C 966.29 735.28 953.59 741.50 939.44 747.39   Q 924.74 753.51 907.74 755.77   Q 869.00 760.92 832.58 746.39   Q 823.80 742.88 818.24 739.26   Q 811.54 734.89 806.77 732.26   Q 801.24 729.21 797.82 726.47   Q 793.50 723.00 790.01 719.17"/>
<path stroke="#595caf" d="M 790.01 719.17   Q 796.06 705.77 799.52 692.45"/>
<path stroke="#c4c5f5" d="M 799.52 692.45   Q 802.15 697.69 808.62 703.13   Q 813.59 707.30 820.48 711.28   Q 833.31 718.68 846.52 723.45   Q 859.80 728.25 876.08 728.86   Q 885.41 729.21 890.19 728.84   C 907.03 727.53 924.90 722.09 940.07 712.98   Q 946.45 709.14 948.94 707.45   Q 956.93 702.01 964.38 694.14   Q 978.20 679.54 987.51 661.39   C 988.70 659.08 989.11 657.20 990.25 654.74   Q 991.17 652.77 992.12 649.68   Q 998.51 628.98 998.65 606.98   C 998.80 583.74 990.56 564.33 978.57 544.33   C 972.44 534.10 964.95 527.60 955.24 519.02   C 942.02 507.35 927.65 500.97 909.79 496.09   C 895.77 492.26 881.56 492.03 867.50 493.48   Q 844.23 495.88 823.93 507.98   Q 805.56 518.93 792.55 534.07   C 783.53 544.56 777.75 555.99 772.57 568.82   Q 766.72 583.32 765.51 599.26   Q 764.97 606.45 765.33 618.75   Q 765.70 631.40 769.50 641.53"/>
<path stroke="#595caf" d="M 769.50 641.53   Q 763.46 639.11 757.21 636.63   Q 748.82 633.30 744.67 632.48   Q 732.38 630.03 719.95 632.02   Q 715.76 632.70 707.43 635.84   Q 701.37 638.13 695.19 640.56"/>
<path stroke="#c4c5f5" d="M 695.19 640.56   Q 697.87 632.81 698.20 626.00   Q 698.64 617.19 698.56 601.51   Q 698.53 595.19 695.91 582.44   Q 694.59 576.00 690.94 567.72   Q 687.00 558.80 684.47 553.55   Q 677.43 538.99 666.01 527.97   Q 653.70 516.10 641.25 508.51   Q 632.52 503.18 619.99 498.71   C 605.74 493.62 590.60 492.28 575.77 492.79   C 556.88 493.45 537.25 500.00 521.39 509.56   C 512.52 514.90 504.58 522.02 496.34 530.34   Q 491.32 535.42 486.79 542.04   C 469.74 566.97 462.26 595.21 466.43 625.68   Q 468.36 639.85 472.69 651.85   Q 478.04 666.67 487.62 680.01   C 490.52 684.05 494.95 688.80 498.04 692.19   Q 511.04 706.44 527.80 715.20   Q 544.10 723.71 560.53 726.97   C 583.36 731.50 609.10 729.07 630.64 718.22   Q 637.12 714.95 642.59 712.33   Q 653.82 706.95 663.81 694.61"/>
<path stroke="#595caf" d="M 663.81 694.61   L 671.46 715.06"/>
<path stroke="#6c6cdd" d="M 671.46 715.06   L 673.08 718.72   A 1.62 1.62 0.0 0 1 672.42 720.76   Q 670.68 721.79 668.46 724.14   A 1.07 0.99 2.4 0 1 668.33 724.25   L 658.46 731.50   A 1.00 0.97 -72.4 0 1 658.20 731.64   Q 654.27 733.02 648.78 737.43   Q 644.25 741.06 634.48 745.19   Q 619.92 751.34 601.99 754.68   Q 562.57 762.01 525.01 747.75   Q 507.46 741.09 493.84 731.12   C 481.96 722.42 472.00 712.41 462.85 701.69   Q 455.14 692.66 448.47 679.75   Q 446.93 676.77 445.68 672.70   A 0.90 0.87 -75.9 0 0 445.48 672.35   L 445.15 672.02   A 1.82 1.81 -75.7 0 1 444.69 671.24   Q 441.24 659.27 439.15 653.29   Q 436.08 644.48 435.05 637.53   C 433.53 627.37 433.35 616.64 433.83 606.09   C 433.97 603.05 433.62 599.86 433.37 596.73"/>
<path stroke="#3d3da1" d="M 671.46 715.06   Q 677.55 726.32 680.85 730.15   C 684.36 734.22 687.38 738.58 690.79 742.23   Q 691.41 742.89 695.92 748.30   Q 707.37 761.99 725.79 768.69   Q 729.46 770.02 733.08 769.87   Q 735.77 769.75 740.08 767.79   Q 743.79 766.10 747.52 764.51   C 753.32 762.03 758.01 757.81 762.49 753.75   Q 765.16 751.33 768.75 747.01   Q 773.85 740.86 786.04 726.17   A 2.51 1.90 -18.7 0 0 786.25 725.86   L 790.01 719.17"/>
<path stroke="#6e7ce1" d="M 924.87 1051.08   Q 926.91 1039.01 926.97 1035.50   Q 927.01 1033.28 926.32 1015.79   Q 925.82 1002.97 924.68 996.14   Q 921.12 974.81 915.46 960.72   Q 909.55 946.05 904.40 936.58   C 897.94 924.72 889.86 913.02 880.40 902.66   Q 872.92 894.45 871.24 892.77   C 852.01 873.59 828.04 858.13 802.99 849.00   Q 779.97 840.61 757.51 838.00   Q 702.09 831.56 651.50 852.83   C 636.55 859.12 623.98 867.13 610.82 876.58   C 597.48 886.16 585.16 899.34 575.21 912.18   Q 553.75 939.90 543.59 974.24   C 537.21 995.80 535.88 1018.20 537.28 1040.30   C 537.49 1043.57 538.34 1047.43 538.78 1051.05"/>
<path stroke="#9596b9" d="M 695.19 640.56   Q 692.90 642.34 689.92 643.86   A 6.86 6.72 11.9 0 0 688.90 644.51   C 685.44 647.22 682.32 649.22 679.66 652.12   C 670.90 661.66 662.32 676.99 663.50 690.19   Q 663.70 692.44 663.81 694.61"/>
<path stroke="#9596b9" d="M 799.52 692.45   Q 800.83 681.28 796.66 672.10   Q 791.68 661.13 783.35 652.40   Q 776.66 645.39 769.50 641.53"/>
<path stroke="#595caf" d="M 1065.38 733.87   Q 1066.81 750.39 1066.33 767.52   Q 1065.61 793.18 1064.21 810.74   Q 1060.72 854.76 1049.36 895.46   Q 1046.49 905.76 1044.96 909.71   Q 1037.38 929.24 1032.67 941.43   Q 1029.13 950.62 1019.55 968.27   C 1015.84 975.10 1011.06 981.15 1005.68 988.88   Q 1003.72 991.69 1001.33 995.66   Q 999.21 999.18 997.13 1002.53   A 0.67 0.67 0.0 0 0 997.96 1003.50   C 1003.77 1001.02 1008.27 999.43 1012.47 996.69   C 1015.81 994.52 1019.17 993.03 1022.32 990.46   Q 1023.09 989.83 1036.16 978.66   Q 1041.62 973.99 1044.92 970.71   Q 1048.20 967.46 1053.10 962.83   Q 1060.47 955.87 1067.72 946.47   C 1071.14 942.04 1072.62 937.15 1075.45 932.13   C 1078.88 926.02 1082.04 919.23 1085.72 913.06   C 1088.27 908.78 1090.14 904.61 1091.14 900.82   Q 1097.20 877.81 1099.78 855.32   C 1100.61 848.08 1100.90 838.63 1100.46 832.03   Q 1100.12 826.86 1098.49 814.45   Q 1097.67 808.25 1095.81 800.60   C 1092.86 788.49 1091.90 781.80 1087.46 771.80   Q 1084.40 764.90 1079.12 754.29   C 1075.58 747.17 1071.00 741.48 1065.84 733.71   A 0.25 0.25 0.0 0 0 1065.38 733.87"/>
<path stroke="#595caf" d="M 466.45 1003.85   A 0.25 0.25 0.0 0 0 466.65 1003.45   C 460.99 995.73 455.58 985.80 449.86 978.80   Q 447.30 975.66 443.84 969.51   Q 440.45 963.48 438.98 959.65   Q 435.11 949.58 431.25 941.78   Q 426.69 932.57 424.05 925.69   Q 419.24 913.15 418.18 909.11   Q 412.78 888.50 411.36 883.41   Q 407.45 869.38 406.48 864.29   Q 398.25 821.22 397.50 777.25   Q 397.32 767.02 397.19 760.26   C 397.01 750.76 397.34 743.59 397.68 735.28   A 0.49 0.49 0.0 0 0 396.78 734.99   C 392.08 742.33 386.30 748.86 382.52 756.27   Q 375.42 770.23 371.93 782.44   Q 366.43 801.62 363.84 823.03   Q 362.34 835.47 362.96 847.37   C 363.63 860.34 365.16 874.05 368.94 886.51   Q 372.84 899.36 378.04 914.83   C 379.02 917.76 380.46 919.81 381.38 922.29   Q 382.17 924.46 384.25 927.70   Q 390.88 938.06 397.63 946.93   C 403.53 954.68 408.87 962.56 415.04 968.66   C 418.84 972.41 423.49 975.33 427.21 978.63   Q 429.60 980.75 431.30 981.86   Q 433.35 983.20 435.30 984.99   Q 447.94 996.62 465.20 1003.59   Q 465.85 1003.85 466.45 1003.85"/>
<path stroke="#927083" d="M 867.40 1099.18   A 0.95 0.95 0.0 0 0 866.91 1100.51   Q 879.20 1123.45 872.60 1149.05   A 2.68 2.67 -61.3 0 0 873.36 1151.66   C 881.24 1158.98 888.03 1154.23 892.20 1146.43   C 897.26 1136.94 897.23 1127.40 895.88 1116.57   Q 894.19 1103.11 883.50 1094.18   A 2.37 2.37 0.0 0 0 881.13 1093.79   L 867.40 1099.18"/>
<path stroke="#927083" d="M 597.17 1100.60   A 1.28 1.27 23.0 0 0 596.45 1098.82   Q 590.03 1096.56 583.79 1094.24   Q 581.72 1093.47 580.38 1094.39   C 565.08 1105.07 563.29 1136.88 574.26 1150.68   C 577.14 1154.30 581.64 1156.45 586.09 1154.64   C 589.01 1153.45 592.61 1151.10 591.62 1147.61   C 587.17 1131.89 589.79 1115.15 597.17 1100.60"/>
<path stroke="#927083" d="M 638.09 1111.83   C 630.25 1109.60 622.36 1107.92 613.79 1104.43   A 1.63 1.62 25.7 0 0 611.77 1105.13   Q 601.23 1123.63 607.41 1145.11   Q 608.72 1149.65 610.88 1153.35   C 614.83 1160.14 623.22 1165.00 630.66 1159.58   Q 635.49 1156.06 638.26 1150.12   A 4.69 4.63 52.1 0 0 638.61 1147.17   Q 636.35 1136.10 637.07 1125.11   C 637.35 1120.80 638.37 1116.93 638.74 1112.77   A 0.89 0.89 0.0 0 0 638.09 1111.83"/>
<path stroke="#927083" d="M 825.39 1112.83   C 828.69 1124.57 827.74 1135.31 825.52 1147.05   A 4.89 4.83 -52.9 0 0 825.93 1150.12   C 829.39 1157.16 836.02 1164.11 844.35 1161.31   C 849.81 1159.48 853.89 1154.01 855.84 1148.50   C 860.99 1133.97 860.58 1118.44 851.94 1105.31   A 1.39 1.38 63.5 0 0 850.31 1104.76   Q 838.00 1109.17 826.00 1111.81   A 0.82 0.81 -14.3 0 0 825.39 1112.83"/>
<path stroke="#927083" d="M 682.15 1119.89   A 0.72 0.72 0.0 0 0 681.57 1119.31   L 655.67 1114.81   A 1.67 1.66 12.5 0 0 653.79 1116.00   Q 649.26 1132.12 655.63 1148.58   C 658.16 1155.11 662.19 1164.41 671.26 1159.22   C 673.41 1157.99 675.15 1155.41 676.47 1153.18   Q 685.51 1137.94 682.15 1119.89"/>
<path stroke="#927083" d="M 782.28 1119.94   Q 778.80 1137.88 787.69 1153.12   C 788.99 1155.35 790.70 1157.93 792.83 1159.17   C 801.83 1164.41 805.91 1155.18 808.47 1148.69   Q 814.94 1132.35 810.54 1116.27   A 1.66 1.65 -12.1 0 0 808.68 1115.07   L 782.86 1119.36   A 0.72 0.72 0.0 0 0 782.28 1119.94"/>
<path stroke="#ce98aa" d="M 581.47 555.86   Q 580.30 554.82 578.04 552.72   C 570.21 545.47 560.17 539.58 549.73 538.14   Q 542.59 537.15 534.25 537.93   C 515.67 539.65 499.46 555.86 493.11 572.58   Q 490.27 580.07 490.17 589.77   Q 490.07 599.79 491.53 607.24   C 492.40 611.70 493.57 614.50 495.62 618.90   C 505.77 640.66 522.38 658.48 541.38 672.75   C 551.83 680.60 565.02 689.93 576.42 695.83   C 581.87 698.65 586.12 697.11 591.04 694.03   Q 600.94 687.84 609.05 682.54   Q 628.63 669.75 644.92 652.16   Q 653.52 642.89 657.86 636.70   Q 662.85 629.59 667.50 618.99   C 677.35 596.53 675.23 568.99 656.82 551.84   C 650.31 545.78 641.28 540.03 632.40 538.42   C 612.96 534.90 595.57 541.41 582.49 555.80   A 0.72 0.72 0.0 0 1 581.47 555.86"/>
<path stroke="#ce98aa" d="M 882.92 556.40   A 0.84 0.84 0.0 0 1 881.66 556.40   Q 872.86 546.30 859.88 540.87   Q 849.61 536.58 837.73 537.42   C 814.30 539.07 795.08 559.27 791.39 581.66   Q 790.30 588.30 790.94 596.22   Q 792.53 615.80 802.19 631.13   Q 806.73 638.36 819.67 652.67   Q 828.58 662.53 840.15 671.34   C 853.29 681.35 864.15 689.29 877.48 696.08   Q 882.53 698.65 887.82 695.85   C 901.09 688.82 913.36 679.89 924.86 671.10   C 949.71 652.12 973.94 623.63 973.87 590.79   Q 973.83 570.11 959.64 554.14   Q 955.52 549.51 947.69 544.45   C 936.57 537.27 922.51 535.97 910.06 538.92   C 899.65 541.39 889.89 548.41 882.92 556.40"/>
<path stroke="#b64566" d="M 599.35 561.23   L 596.59 563.59   A 2.28 2.22 85.8 0 0 596.12 564.15   Q 589.60 575.31 589.29 575.79   C 586.43 580.16 581.12 582.37 576.87 578.37   C 573.69 575.38 571.09 569.63 569.24 566.36   A 4.68 4.56 7.4 0 0 568.40 565.30   Q 561.10 558.50 553.05 554.65   A 5.03 4.77 63.2 0 0 552.10 554.31   C 540.46 551.48 522.69 554.81 514.97 564.88   C 508.39 573.48 506.05 581.80 506.22 592.92   C 506.27 596.32 507.37 599.77 507.63 603.22   C 508.14 609.89 511.24 616.43 514.65 622.26   A 3.03 3.02 -85.2 0 0 515.30 623.03   Q 516.71 624.20 517.26 626.28   A 0.47 0.46 -70.7 0 0 517.32 626.41   Q 518.71 628.93 519.21 629.41   C 522.01 632.12 524.07 635.35 527.01 637.82   C 531.43 641.55 535.87 646.52 541.16 651.24   Q 547.09 656.52 552.69 661.48   C 556.21 664.60 559.79 667.23 563.42 670.03   Q 566.02 672.04 572.19 674.84   C 575.28 676.23 578.06 678.14 580.69 679.53   Q 581.86 680.14 584.34 679.12   C 593.10 675.50 599.75 670.84 606.00 665.01   Q 607.58 663.54 613.57 659.13   Q 618.87 655.23 626.71 648.45   C 636.07 640.36 641.77 631.92 648.75 621.25   Q 654.12 613.03 656.06 605.38   Q 659.95 589.99 654.30 575.84   C 650.72 566.90 644.45 559.30 635.70 556.21   Q 618.87 550.27 602.42 558.08   Q 601.07 558.72 600.13 560.31   A 3.50 3.45 85.7 0 1 599.35 561.23"/>
<path stroke="#b64566" d="M 867.72 563.71   Q 852.60 549.71 832.36 555.12   C 826.93 556.57 821.99 558.79 818.27 562.75   Q 817.15 563.93 814.01 567.09   A 3.28 3.08 81.4 0 0 813.41 567.96   Q 808.89 577.47 807.29 584.02   Q 806.40 587.68 806.18 594.41   Q 806.03 599.32 807.75 603.95   C 810.68 611.78 814.38 618.65 818.11 625.60   Q 821.59 632.07 824.21 634.99   C 829.33 640.69 834.01 644.86 841.46 650.95   C 848.59 656.78 856.37 664.70 863.29 669.71   Q 865.23 671.12 872.17 674.27   Q 874.56 675.36 875.64 676.14   C 878.77 678.41 881.05 680.84 885.07 678.86   C 894.56 674.20 903.96 668.91 911.98 661.69   C 924.81 650.15 937.24 638.85 947.53 624.94   A 2.05 2.01 -19.7 0 0 947.86 624.26   Q 948.11 623.22 948.86 622.75   Q 949.40 622.40 949.35 622.01   Q 949.27 621.38 949.71 621.18   Q 950.12 621.00 950.61 620.21   C 951.88 618.16 952.26 615.61 953.77 613.46   A 2.96 2.84 -21.4 0 0 954.20 612.53   C 955.76 606.74 957.33 602.25 957.69 597.82   Q 958.91 583.19 952.00 569.71   Q 950.55 566.88 948.20 564.49   Q 944.22 560.44 943.30 559.89   Q 935.92 555.46 926.25 553.78   C 920.32 552.76 913.47 554.52 907.73 556.23   Q 903.46 557.50 900.03 560.81   Q 893.95 566.67 890.31 574.53   C 888.04 579.42 884.84 582.06 879.31 580.09   A 2.51 2.46 -11.3 0 1 878.36 579.47   C 873.97 574.86 871.92 570.04 869.13 565.44   A 8.45 8.39 -84.4 0 0 867.72 563.71"/>
<path stroke="#e7acbc" d="M 525.77 571.33   Q 523.52 573.26 522.11 575.09   C 517.84 580.58 514.48 591.98 522.89 595.57   Q 529.12 598.24 533.93 593.32   A 2.91 2.86 -11.0 0 0 534.53 592.45   C 535.75 589.75 536.58 587.74 538.50 586.09   C 540.41 584.44 542.51 583.92 545.37 583.11   A 2.91 2.86 -70.5 0 0 546.32 582.64   Q 551.89 578.61 550.17 572.06   C 547.86 563.21 536.09 564.85 530.03 568.26   Q 528.01 569.39 525.77 571.33"/>
<path stroke="#e7acbc" d="M 829.98 595.49   Q 833.62 594.15 834.35 592.49   Q 837.14 586.19 842.70 584.27   Q 847.17 582.72 847.90 582.21   C 852.17 579.21 852.11 571.49 848.30 568.24   Q 843.94 564.52 837.85 565.54   Q 824.46 567.76 820.14 580.37   C 818.50 585.13 817.13 593.05 823.07 595.26   Q 826.83 596.66 829.98 595.49"/>
<path stroke="#927083" d="M 680.11 687.53   C 683.16 691.85 687.94 694.85 692.70 697.63   C 705.30 704.98 714.39 710.31 726.65 714.83   Q 731.48 716.61 734.31 715.81   C 743.17 713.30 753.77 708.23 762.17 703.04   Q 770.00 698.21 775.15 695.15   C 777.41 693.81 783.84 688.64 783.66 685.46   C 782.86 670.95 772.64 662.72 761.64 655.30   Q 755.97 651.48 752.53 650.37   C 746.80 648.52 742.67 647.30 736.22 647.23   Q 728.97 647.16 725.27 647.25   C 713.61 647.51 703.64 653.43 694.50 660.45   C 686.99 666.21 678.86 676.71 679.75 686.56   A 2.04 1.99 25.3 0 0 680.11 687.53"/>
<path stroke="#927083" d="M 773.84 715.24   A 0.39 0.39 0.0 0 0 773.32 714.70   Q 761.36 720.68 744.54 728.65   Q 734.82 733.25 725.64 730.80   Q 718.87 728.99 714.87 726.88   Q 707.41 722.94 691.01 715.01   Q 690.63 714.82 690.34 714.98   A 0.85 0.85 0.0 0 0 690.03 716.15   Q 703.67 738.91 726.15 753.06   Q 731.63 756.51 736.93 753.47   Q 742.53 750.26 748.19 745.20   C 752.28 741.54 756.90 737.99 760.06 734.39   Q 768.38 724.92 773.84 715.24"/>
</g>

<path xmlns="http://www.w3.org/2000/svg" fill="#2a2d73" d="M 646.15 1166.80   Q 641.66 1171.20 640.96 1171.70   Q 626.42 1182.23 610.80 1174.21   Q 603.97 1170.71 599.92 1165.00   A 0.59 0.59 0.0 0 0 599.07 1164.87   C 585.98 1175.26 568.03 1171.75 559.74 1157.17   Q 546.63 1134.13 553.87 1108.14   Q 557.20 1096.18 565.17 1086.83   A 0.70 0.69 -56.2 0 0 564.96 1085.76   Q 537.52 1071.56 513.48 1052.26   Q 501.98 1043.02 490.65 1030.85   A 6.39 6.39 0.0 0 0 487.99 1029.13   C 477.07 1025.52 469.62 1023.40 461.19 1019.46   Q 446.88 1012.78 429.94 1001.42   C 416.44 992.37 406.35 982.20 395.64 970.60   Q 383.21 957.13 371.57 935.67   Q 360.03 914.40 355.93 899.42   C 351.29 882.46 347.11 861.39 347.11 843.20   Q 347.10 805.30 358.81 772.76   Q 364.53 756.88 376.89 735.93   C 383.54 724.66 390.31 716.69 398.88 707.81   A 4.55 4.55 0.0 0 0 400.15 704.92   Q 401.99 674.48 407.06 645.51   Q 413.14 610.83 415.28 601.01   C 419.13 583.40 424.01 568.54 431.41 545.56   Q 435.13 534.02 439.33 525.17   C 445.54 512.09 451.40 498.90 458.62 486.62   Q 463.77 477.87 473.49 464.23   Q 493.91 435.57 519.05 413.06   Q 534.12 399.56 556.74 384.12   Q 563.68 379.38 574.06 373.91   C 588.69 366.19 602.83 359.08 618.39 353.70   Q 636.01 347.62 653.53 343.10   A 0.48 0.47 -29.6 0 0 653.75 342.31   C 646.00 334.34 640.28 324.03 642.53 312.47   C 645.83 295.51 664.57 290.32 679.75 292.12   Q 691.96 293.57 703.08 299.41   A 0.57 0.57 0.0 0 0 703.91 298.90   C 703.78 284.29 710.23 272.66 725.80 270.61   C 741.23 268.57 759.55 281.37 769.60 292.19   Q 789.16 313.26 799.11 340.12   A 1.27 1.26 86.0 0 0 800.02 340.92   C 821.24 345.57 841.39 351.32 861.37 360.05   Q 925.78 388.19 971.02 439.82   Q 980.99 451.18 995.47 471.67   C 1004.61 484.60 1014.12 504.29 1019.80 514.96   Q 1024.81 524.38 1028.11 533.83   Q 1030.14 539.66 1038.43 564.82   C 1045.03 584.86 1048.41 602.92 1053.36 627.88   C 1058.63 654.43 1061.07 678.02 1063.77 705.35   A 4.61 4.56 21.4 0 0 1064.93 707.96   Q 1070.19 713.82 1076.17 721.20   C 1089.08 737.13 1099.33 757.44 1106.20 777.58   Q 1113.81 799.85 1115.34 824.26   C 1117.03 851.35 1114.61 877.60 1105.95 902.95   C 1099.83 920.84 1093.02 936.23 1082.39 950.99   Q 1071.55 966.06 1064.69 973.70   C 1048.80 991.42 1029.46 1005.32 1008.32 1016.32   C 997.63 1021.88 987.49 1025.16 975.94 1028.63   A 5.97 5.96 -76.8 0 0 973.36 1030.23   C 964.17 1039.99 956.51 1047.09 945.74 1055.40   C 936.45 1062.56 931.46 1066.81 924.21 1071.20   Q 910.60 1079.42 898.68 1085.63   A 0.78 0.78 0.0 0 0 898.48 1086.86   C 914.63 1103.35 915.81 1130.86 907.23 1151.20   Q 903.64 1159.72 896.95 1165.42   C 887.83 1173.18 874.22 1172.11 864.92 1165.12   A 0.43 0.43 0.0 0 0 864.32 1165.19   C 858.17 1172.73 848.72 1178.50 838.80 1177.54   Q 828.68 1176.56 821.83 1170.34   Q 818.76 1167.56 817.90 1166.31   A 0.65 0.64 -42.1 0 0 816.87 1166.26   C 810.77 1173.53 800.81 1178.48 791.16 1175.35   C 776.37 1170.57 770.30 1156.32 767.00 1142.29   Q 764.65 1132.31 766.24 1121.79   A 0.62 0.61 -88.1 0 0 765.58 1121.08   Q 732.07 1124.09 698.72 1120.97   A 0.63 0.62 -0.7 0 0 698.04 1121.66   Q 699.95 1139.38 692.67 1155.70   C 689.22 1163.43 685.15 1169.50 677.96 1173.28   C 666.78 1179.17 655.80 1176.23 647.13 1166.82   A 0.68 0.68 0.0 0 0 646.15 1166.80   Z   M 483.71 477.06   C 482.32 478.74 480.97 480.47 479.90 482.41   Q 471.27 498.17 466.59 505.38   Q 461.89 512.63 458.54 520.06   Q 457.38 522.65 456.34 524.25   A 4.03 3.75 -21.1 0 0 455.94 525.07   Q 448.95 546.16 446.65 551.38   Q 439.86 566.74 437.59 577.57   Q 435.58 587.18 433.37 596.73   Q 429.84 609.36 426.53 622.02   C 425.54 625.81 425.49 628.70 424.72 632.01   C 423.41 637.64 422.93 645.09 421.98 650.25   Q 420.88 656.22 420.64 660.96   C 420.21 669.23 418.68 678.29 418.04 686.32   Q 417.74 690.05 415.65 705.57   Q 413.63 720.52 413.50 734.75   Q 413.37 748.15 413.07 765.74   C 412.47 800.89 416.77 833.69 424.02 871.50   Q 426.24 883.08 431.05 895.91   Q 432.87 900.76 439.47 920.89   C 442.75 930.87 446.17 938.09 450.88 946.46   Q 457.00 957.34 461.61 967.46   Q 465.39 975.76 468.92 980.10   C 473.31 985.51 478.56 991.78 483.64 997.61   Q 486.98 1001.45 487.91 1003.09   Q 492.99 1012.08 500.71 1018.55   A 3.88 3.63 4.4 0 1 501.37 1019.27   C 502.09 1020.32 502.29 1020.91 503.49 1021.94   Q 512.01 1029.23 522.71 1038.64   Q 522.73 1038.66 528.01 1043.71   Q 532.60 1048.09 538.26 1051.12   Q 538.42 1051.20 538.78 1051.05   Q 539.23 1051.95 539.74 1052.27   C 548.31 1057.61 555.59 1063.45 565.40 1068.03   Q 572.05 1071.14 578.51 1074.18   Q 595.60 1082.24 610.62 1087.77   Q 619.02 1090.86 630.88 1093.51   Q 650.82 1097.95 651.49 1098.10   C 672.50 1102.93 694.89 1105.07 716.37 1106.13   C 743.05 1107.45 769.56 1105.26 795.75 1101.52   Q 804.54 1100.26 820.05 1096.28   Q 825.26 1094.94 834.94 1092.97   Q 847.45 1090.43 860.64 1084.89   Q 886.33 1074.08 893.57 1070.69   C 897.84 1068.69 902.83 1066.05 905.72 1063.98   Q 915.35 1057.09 924.87 1051.08   L 928.98 1049.06   A 2.54 2.21 -75.5 0 0 929.36 1048.80   C 932.87 1045.74 936.79 1043.24 940.07 1040.00   Q 945.91 1034.22 948.93 1031.68   Q 963.88 1019.12 972.78 1007.30   Q 978.96 999.09 979.72 998.45   Q 981.85 996.69 983.09 994.46   Q 983.50 993.72 986.16 990.15   Q 989.83 985.22 993.48 980.56   C 996.04 977.31 997.61 974.44 999.91 970.88   Q 1001.29 968.75 1004.16 963.25   C 1012.91 946.51 1021.87 929.46 1027.52 912.65   Q 1034.19 892.80 1041.59 862.10   Q 1043.95 852.30 1045.95 835.76   Q 1049.89 803.11 1050.43 776.97   Q 1050.60 768.86 1050.33 754.52   C 1049.98 735.71 1049.75 721.76 1047.99 703.75   Q 1045.65 679.84 1042.70 659.38   Q 1041.99 654.44 1041.01 645.12   Q 1040.45 639.77 1038.76 627.91   A 3.55 3.53 -58.9 0 0 1038.58 627.17   Q 1037.92 625.28 1037.82 623.69   Q 1037.70 621.83 1036.94 619.92   C 1034.84 614.58 1033.33 607.99 1031.02 602.15   Q 1029.76 592.98 1028.69 589.33   Q 1026.81 582.94 1024.80 572.61   Q 1022.77 562.24 1015.56 546.77   Q 1012.77 540.78 1011.28 536.77   Q 1008.68 529.82 1007.33 526.61   C 1006.10 523.71 1004.80 519.05 1003.06 515.42   Q 1000.94 508.92 996.80 503.73   Q 994.26 500.41 991.75 497.02   Q 990.73 495.65 989.13 491.96   A 0.88 0.65 -81.7 0 0 989.06 491.83   L 978.54 475.00   Q 974.57 467.45 970.78 463.22   C 964.87 456.62 961.82 453.38 956.27 446.75   Q 950.59 439.94 944.13 434.12   Q 935.62 426.46 925.37 417.33   C 917.90 410.68 911.13 405.70 903.45 400.82   Q 889.89 392.22 873.03 382.91   Q 866.37 379.24 859.63 376.21   Q 849.72 371.76 845.80 370.47   Q 834.02 366.60 814.08 360.42   Q 804.58 357.47 794.34 355.63   Q 788.68 354.62 786.20 348.81   C 781.34 337.44 775.65 324.44 768.37 314.86   Q 763.32 308.22 757.57 302.20   C 754.43 298.92 750.66 296.62 747.25 293.73   Q 742.52 289.73 738.99 288.19   C 735.56 286.70 727.63 284.55 724.12 286.54   C 718.34 289.82 719.09 300.60 720.64 305.85   C 722.49 312.11 727.95 317.41 729.04 323.66   C 730.66 332.97 719.28 335.22 714.51 328.73   Q 709.39 321.76 704.01 318.15   Q 698.87 314.71 690.20 310.69   Q 683.06 307.38 672.25 307.17   Q 668.49 307.09 661.36 309.73   A 2.41 2.41 0.0 0 0 660.56 310.23   Q 658.60 312.10 658.43 313.68   C 657.58 321.55 661.33 328.53 667.63 333.25   Q 670.09 335.09 674.03 338.47   Q 675.29 339.55 685.51 345.75   C 687.93 347.22 693.33 349.20 695.41 351.42   C 698.22 354.42 697.79 359.50 694.69 362.20   Q 690.94 365.47 685.59 362.80   Q 679.54 359.78 673.17 356.31   Q 670.89 355.08 668.44 355.65   C 655.41 358.69 647.25 360.41 637.80 363.78   Q 617.45 371.04 599.82 378.35   Q 590.89 382.05 585.69 385.22   Q 567.83 396.07 567.20 396.45   Q 559.58 401.05 548.48 409.31   Q 539.11 416.27 531.05 423.84   Q 520.87 433.39 511.76 441.51   C 509.95 443.13 505.91 447.33 503.81 450.22   Q 496.40 460.43 489.14 468.59   C 486.99 471.00 485.37 474.13 483.71 477.06   Z   M 1065.38 733.87   Q 1066.81 750.39 1066.33 767.52   Q 1065.61 793.18 1064.21 810.74   Q 1060.72 854.76 1049.36 895.46   Q 1046.49 905.76 1044.96 909.71   Q 1037.38 929.24 1032.67 941.43   Q 1029.13 950.62 1019.55 968.27   C 1015.84 975.10 1011.06 981.15 1005.68 988.88   Q 1003.72 991.69 1001.33 995.66   Q 999.21 999.18 997.13 1002.53   A 0.67 0.67 0.0 0 0 997.96 1003.50   C 1003.77 1001.02 1008.27 999.43 1012.47 996.69   C 1015.81 994.52 1019.17 993.03 1022.32 990.46   Q 1023.09 989.83 1036.16 978.66   Q 1041.62 973.99 1044.92 970.71   Q 1048.20 967.46 1053.10 962.83   Q 1060.47 955.87 1067.72 946.47   C 1071.14 942.04 1072.62 937.15 1075.45 932.13   C 1078.88 926.02 1082.04 919.23 1085.72 913.06   C 1088.27 908.78 1090.14 904.61 1091.14 900.82   Q 1097.20 877.81 1099.78 855.32   C 1100.61 848.08 1100.90 838.63 1100.46 832.03   Q 1100.12 826.86 1098.49 814.45   Q 1097.67 808.25 1095.81 800.60   C 1092.86 788.49 1091.90 781.80 1087.46 771.80   Q 1084.40 764.90 1079.12 754.29   C 1075.58 747.17 1071.00 741.48 1065.84 733.71   A 0.25 0.25 0.0 0 0 1065.38 733.87   Z   M 466.45 1003.85   A 0.25 0.25 0.0 0 0 466.65 1003.45   C 460.99 995.73 455.58 985.80 449.86 978.80   Q 447.30 975.66 443.84 969.51   Q 440.45 963.48 438.98 959.65   Q 435.11 949.58 431.25 941.78   Q 426.69 932.57 424.05 925.69   Q 419.24 913.15 418.18 909.11   Q 412.78 888.50 411.36 883.41   Q 407.45 869.38 406.48 864.29   Q 398.25 821.22 397.50 777.25   Q 397.32 767.02 397.19 760.26   C 397.01 750.76 397.34 743.59 397.68 735.28   A 0.49 0.49 0.0 0 0 396.78 734.99   C 392.08 742.33 386.30 748.86 382.52 756.27   Q 375.42 770.23 371.93 782.44   Q 366.43 801.62 363.84 823.03   Q 362.34 835.47 362.96 847.37   C 363.63 860.34 365.16 874.05 368.94 886.51   Q 372.84 899.36 378.04 914.83   C 379.02 917.76 380.46 919.81 381.38 922.29   Q 382.17 924.46 384.25 927.70   Q 390.88 938.06 397.63 946.93   C 403.53 954.68 408.87 962.56 415.04 968.66   C 418.84 972.41 423.49 975.33 427.21 978.63   Q 429.60 980.75 431.30 981.86   Q 433.35 983.20 435.30 984.99   Q 447.94 996.62 465.20 1003.59   Q 465.85 1003.85 466.45 1003.85   Z   M 867.40 1099.18   A 0.95 0.95 0.0 0 0 866.91 1100.51   Q 879.20 1123.45 872.60 1149.05   A 2.68 2.67 -61.3 0 0 873.36 1151.66   C 881.24 1158.98 888.03 1154.23 892.20 1146.43   C 897.26 1136.94 897.23 1127.40 895.88 1116.57   Q 894.19 1103.11 883.50 1094.18   A 2.37 2.37 0.0 0 0 881.13 1093.79   L 867.40 1099.18   Z   M 597.17 1100.60   A 1.28 1.27 23.0 0 0 596.45 1098.82   Q 590.03 1096.56 583.79 1094.24   Q 581.72 1093.47 580.38 1094.39   C 565.08 1105.07 563.29 1136.88 574.26 1150.68   C 577.14 1154.30 581.64 1156.45 586.09 1154.64   C 589.01 1153.45 592.61 1151.10 591.62 1147.61   C 587.17 1131.89 589.79 1115.15 597.17 1100.60   Z   M 638.09 1111.83   C 630.25 1109.60 622.36 1107.92 613.79 1104.43   A 1.63 1.62 25.7 0 0 611.77 1105.13   Q 601.23 1123.63 607.41 1145.11   Q 608.72 1149.65 610.88 1153.35   C 614.83 1160.14 623.22 1165.00 630.66 1159.58   Q 635.49 1156.06 638.26 1150.12   A 4.69 4.63 52.1 0 0 638.61 1147.17   Q 636.35 1136.10 637.07 1125.11   C 637.35 1120.80 638.37 1116.93 638.74 1112.77   A 0.89 0.89 0.0 0 0 638.09 1111.83   Z   M 825.39 1112.83   C 828.69 1124.57 827.74 1135.31 825.52 1147.05   A 4.89 4.83 -52.9 0 0 825.93 1150.12   C 829.39 1157.16 836.02 1164.11 844.35 1161.31   C 849.81 1159.48 853.89 1154.01 855.84 1148.50   C 860.99 1133.97 860.58 1118.44 851.94 1105.31   A 1.39 1.38 63.5 0 0 850.31 1104.76   Q 838.00 1109.17 826.00 1111.81   A 0.82 0.81 -14.3 0 0 825.39 1112.83   Z   M 682.15 1119.89   A 0.72 0.72 0.0 0 0 681.57 1119.31   L 655.67 1114.81   A 1.67 1.66 12.5 0 0 653.79 1116.00   Q 649.26 1132.12 655.63 1148.58   C 658.16 1155.11 662.19 1164.41 671.26 1159.22   C 673.41 1157.99 675.15 1155.41 676.47 1153.18   Q 685.51 1137.94 682.15 1119.89   Z   M 782.28 1119.94   Q 778.80 1137.88 787.69 1153.12   C 788.99 1155.35 790.70 1157.93 792.83 1159.17   C 801.83 1164.41 805.91 1155.18 808.47 1148.69   Q 814.94 1132.35 810.54 1116.27   A 1.66 1.65 -12.1 0 0 808.68 1115.07   L 782.86 1119.36   A 0.72 0.72 0.0 0 0 782.28 1119.94   Z"/>
<path xmlns="http://www.w3.org/2000/svg" fill="#4f4dcf" d="M 978.54 475.00   Q 975.42 473.81 974.03 472.72   C 966.71 466.98 961.85 464.38 951.63 458.47   C 905.92 432.04 845.38 435.11 801.93 464.94   Q 770.58 486.46 751.28 519.03   Q 745.47 528.83 739.51 542.11   Q 737.56 546.46 735.62 553.19   Q 733.98 558.86 732.13 564.43   A 0.34 0.34 0.0 0 1 731.51 564.48   Q 730.51 562.64 730.25 561.31   C 728.81 554.12 726.91 547.20 723.14 539.46   Q 715.29 523.38 709.35 513.99   Q 698.17 496.31 681.44 480.44   Q 649.59 450.22 606.03 442.48   C 576.94 437.31 545.89 442.00 519.22 454.20   Q 514.60 456.32 509.49 460.79   A 5.10 4.85 8.5 0 1 508.62 461.40   Q 502.47 464.76 498.91 467.66   C 496.55 469.58 493.22 470.76 490.58 472.95   A 3.58 3.33 11.0 0 1 489.76 473.46   Q 486.56 474.86 483.71 477.06   C 485.37 474.13 486.99 471.00 489.14 468.59   Q 496.40 460.43 503.81 450.22   C 505.91 447.33 509.95 443.13 511.76 441.51   Q 520.87 433.39 531.05 423.84   Q 539.11 416.27 548.48 409.31   Q 559.58 401.05 567.20 396.45   Q 567.83 396.07 585.69 385.22   Q 590.89 382.05 599.82 378.35   Q 617.45 371.04 637.80 363.78   C 647.25 360.41 655.41 358.69 668.44 355.65   Q 670.89 355.08 673.17 356.31   Q 679.54 359.78 685.59 362.80   Q 690.94 365.47 694.69 362.20   C 697.79 359.50 698.22 354.42 695.41 351.42   C 693.33 349.20 687.93 347.22 685.51 345.75   Q 675.29 339.55 674.03 338.47   Q 670.09 335.09 667.63 333.25   C 661.33 328.53 657.58 321.55 658.43 313.68   Q 658.60 312.10 660.56 310.23   A 2.41 2.41 0.0 0 1 661.36 309.73   Q 668.49 307.09 672.25 307.17   Q 683.06 307.38 690.20 310.69   Q 698.87 314.71 704.01 318.15   Q 709.39 321.76 714.51 328.73   C 719.28 335.22 730.66 332.97 729.04 323.66   C 727.95 317.41 722.49 312.11 720.64 305.85   C 719.09 300.60 718.34 289.82 724.12 286.54   C 727.63 284.55 735.56 286.70 738.99 288.19   Q 742.52 289.73 747.25 293.73   C 750.66 296.62 754.43 298.92 757.57 302.20   Q 763.32 308.22 768.37 314.86   C 775.65 324.44 781.34 337.44 786.20 348.81   Q 788.68 354.62 794.34 355.63   Q 804.58 357.47 814.08 360.42   Q 834.02 366.60 845.80 370.47   Q 849.72 371.76 859.63 376.21   Q 866.37 379.24 873.03 382.91   Q 889.89 392.22 903.45 400.82   C 911.13 405.70 917.90 410.68 925.37 417.33   Q 935.62 426.46 944.13 434.12   Q 950.59 439.94 956.27 446.75   C 961.82 453.38 964.87 456.62 970.78 463.22   Q 974.57 467.45 978.54 475.00   Z"/>
<path xmlns="http://www.w3.org/2000/svg" fill="#ec85a2" d="M 949.73 303.56   Q 949.89 303.59 949.99 303.58   Q 950.10 303.57 950.19 303.48   Q 953.40 300.57 954.23 300.01   C 968.69 290.35 984.51 304.05 978.28 320.09   Q 975.66 326.84 968.00 332.81   Q 955.39 342.65 939.29 348.38   Q 938.59 348.63 938.20 348.53   Q 937.72 348.41 937.23 347.85   Q 925.89 335.06 919.60 320.36   Q 915.77 311.44 916.73 304.26   C 919.01 287.20 939.48 282.84 947.48 298.27   Q 947.94 299.17 949.35 303.26   Q 949.38 303.39 949.47 303.45   Q 949.56 303.51 949.73 303.56   Z"/>
<path xmlns="http://www.w3.org/2000/svg" fill="#fcb6ba" d="M 524.70 352.10   Q 524.31 352.19 523.61 351.94   Q 507.61 346.03 495.13 336.07   Q 487.55 330.02 485.00 323.25   C 478.96 307.17 494.91 293.67 509.24 303.48   Q 510.06 304.04 513.24 306.99   Q 513.33 307.08 513.43 307.09   Q 513.54 307.10 513.69 307.07   Q 513.87 307.02 513.95 306.96   Q 514.04 306.90 514.08 306.78   Q 515.53 302.70 516.00 301.82   C 524.16 286.49 544.55 291.08 546.64 308.14   Q 547.52 315.31 543.59 324.18   Q 537.14 338.79 525.68 351.43   Q 525.18 351.98 524.70 352.10   Z"/>
<path xmlns="http://www.w3.org/2000/svg" fill="#ec7c7c" d="M 1096.77 343.87   A 0.37 0.37 0.0 0 0 1097.37 344.09   C 1112.36 331.44 1131.60 326.46 1149.17 336.57   Q 1165.37 345.89 1167.84 364.67   C 1171.37 391.48 1151.09 410.32 1129.98 422.26   C 1106.85 435.34 1080.50 443.18 1054.36 448.18   A 2.44 2.44 0.0 0 1 1051.86 447.13   C 1037.05 424.88 1024.60 401.08 1017.61 376.13   C 1012.99 359.63 1011.46 340.41 1019.05 324.56   C 1027.05 307.82 1043.30 298.55 1061.99 300.97   C 1070.83 302.11 1078.92 307.63 1084.99 314.04   Q 1090.68 320.07 1093.33 328.69   Q 1095.55 335.91 1096.77 343.87   Z"/>
<path xmlns="http://www.w3.org/2000/svg" fill="#ec85a2" d="M 365.30 353.16   A 0.76 0.75 -65.7 0 0 366.54 352.69   C 368.43 339.31 373.76 327.22 384.41 318.88   Q 400.47 306.29 420.46 312.56   C 436.70 317.64 446.86 333.57 448.75 349.93   C 450.29 363.26 447.73 378.98 443.11 392.61   C 435.35 415.47 423.94 436.91 410.35 456.69   A 2.78 2.75 -66.4 0 1 407.48 457.83   Q 382.27 452.33 357.72 443.29   Q 334.47 434.72 315.87 419.91   Q 305.95 412.01 300.29 401.59   C 292.43 387.09 292.69 369.24 302.51 355.95   C 313.02 341.75 332.02 337.10 348.46 343.36   Q 358.41 347.15 365.30 353.16   Z"/>
<path xmlns="http://www.w3.org/2000/svg" fill="#888aeb" d="M 978.54 475.00   L 989.06 491.83   A 0.88 0.65 -81.7 0 1 989.13 491.96   Q 990.73 495.65 991.75 497.02   Q 994.26 500.41 996.80 503.73   Q 999.33 509.94 1003.06 515.42   C 1004.80 519.05 1006.10 523.71 1007.33 526.61   Q 1008.68 529.82 1011.28 536.77   Q 1012.77 540.78 1015.56 546.77   Q 1022.77 562.24 1024.80 572.61   Q 1026.81 582.94 1028.69 589.33   Q 1029.76 592.98 1031.02 602.15   Q 1030.79 605.14 1029.92 607.87   Q 1029.50 609.18 1030.27 615.22   A 16.06 16.01 -47.4 0 1 1030.38 617.93   Q 1029.83 631.67 1029.43 633.74   Q 1026.61 648.33 1020.09 669.12   Q 1019.12 672.21 1016.60 677.76   Q 1013.97 683.54 1012.21 685.95   C 1001.80 700.26 991.05 713.72 977.85 725.21   C 966.29 735.28 953.59 741.50 939.44 747.39   Q 924.74 753.51 907.74 755.77   Q 869.00 760.92 832.58 746.39   Q 823.80 742.88 818.24 739.26   Q 811.54 734.89 806.77 732.26   Q 801.24 729.21 797.82 726.47   Q 793.50 723.00 790.01 719.17   Q 796.06 705.77 799.52 692.45   Q 802.15 697.69 808.62 703.13   Q 813.59 707.30 820.48 711.28   Q 833.31 718.68 846.52 723.45   Q 859.80 728.25 876.08 728.86   Q 885.41 729.21 890.19 728.84   C 907.03 727.53 924.90 722.09 940.07 712.98   Q 946.45 709.14 948.94 707.45   Q 956.93 702.01 964.38 694.14   Q 978.20 679.54 987.51 661.39   C 988.70 659.08 989.11 657.20 990.25 654.74   Q 991.17 652.77 992.12 649.68   Q 998.51 628.98 998.65 606.98   C 998.80 583.74 990.56 564.33 978.57 544.33   C 972.44 534.10 964.95 527.60 955.24 519.02   C 942.02 507.35 927.65 500.97 909.79 496.09   C 895.77 492.26 881.56 492.03 867.50 493.48   Q 844.23 495.88 823.93 507.98   Q 805.56 518.93 792.55 534.07   C 783.53 544.56 777.75 555.99 772.57 568.82   Q 766.72 583.32 765.51 599.26   Q 764.97 606.45 765.33 618.75   Q 765.70 631.40 769.50 641.53   Q 763.46 639.11 757.21 636.63   Q 748.82 633.30 744.67 632.48   Q 732.38 630.03 719.95 632.02   Q 715.76 632.70 707.43 635.84   Q 701.37 638.13 695.19 640.56   Q 697.87 632.81 698.20 626.00   Q 698.64 617.19 698.56 601.51   Q 698.53 595.19 695.91 582.44   Q 694.59 576.00 690.94 567.72   Q 687.00 558.80 684.47 553.55   Q 677.43 538.99 666.01 527.97   Q 653.70 516.10 641.25 508.51   Q 632.52 503.18 619.99 498.71   C 605.74 493.62 590.60 492.28 575.77 492.79   C 556.88 493.45 537.25 500.00 521.39 509.56   C 512.52 514.90 504.58 522.02 496.34 530.34   Q 491.32 535.42 486.79 542.04   C 469.74 566.97 462.26 595.21 466.43 625.68   Q 468.36 639.85 472.69 651.85   Q 478.04 666.67 487.62 680.01   C 490.52 684.05 494.95 688.80 498.04 692.19   Q 511.04 706.44 527.80 715.20   Q 544.10 723.71 560.53 726.97   C 583.36 731.50 609.10 729.07 630.64 718.22   Q 637.12 714.95 642.59 712.33   Q 653.82 706.95 663.81 694.61   L 671.46 715.06   L 673.08 718.72   A 1.62 1.62 0.0 0 1 672.42 720.76   Q 670.68 721.79 668.46 724.14   A 1.07 0.99 2.4 0 1 668.33 724.25   L 658.46 731.50   A 1.00 0.97 -72.4 0 1 658.20 731.64   Q 654.27 733.02 648.78 737.43   Q 644.25 741.06 634.48 745.19   Q 619.92 751.34 601.99 754.68   Q 562.57 762.01 525.01 747.75   Q 507.46 741.09 493.84 731.12   C 481.96 722.42 472.00 712.41 462.85 701.69   Q 455.14 692.66 448.47 679.75   Q 446.93 676.77 445.68 672.70   A 0.90 0.87 -75.9 0 0 445.48 672.35   L 445.15 672.02   A 1.82 1.81 -75.7 0 1 444.69 671.24   Q 441.24 659.27 439.15 653.29   Q 436.08 644.48 435.05 637.53   C 433.53 627.37 433.35 616.64 433.83 606.09   C 433.97 603.05 433.62 599.86 433.37 596.73   Q 435.58 587.18 437.59 577.57   Q 439.86 566.74 446.65 551.38   Q 448.95 546.16 455.94 525.07   A 4.03 3.75 -21.1 0 1 456.34 524.25   Q 457.38 522.65 458.54 520.06   Q 461.89 512.63 466.59 505.38   Q 471.27 498.17 479.90 482.41   C 480.97 480.47 482.32 478.74 483.71 477.06   Q 486.56 474.86 489.76 473.46   A 3.58 3.33 11.0 0 0 490.58 472.95   C 493.22 470.76 496.55 469.58 498.91 467.66   Q 502.47 464.76 508.62 461.40   A 5.10 4.85 8.5 0 0 509.49 460.79   Q 514.60 456.32 519.22 454.20   C 545.89 442.00 576.94 437.31 606.03 442.48   Q 649.59 450.22 681.44 480.44   Q 698.17 496.31 709.35 513.99   Q 715.29 523.38 723.14 539.46   C 726.91 547.20 728.81 554.12 730.25 561.31   Q 730.51 562.64 731.51 564.48   A 0.34 0.34 0.0 0 0 732.13 564.43   Q 733.98 558.86 735.62 553.19   Q 737.56 546.46 739.51 542.11   Q 745.47 528.83 751.28 519.03   Q 770.58 486.46 801.93 464.94   C 845.38 435.11 905.92 432.04 951.63 458.47   C 961.85 464.38 966.71 466.98 974.03 472.72   Q 975.42 473.81 978.54 475.00   Z"/>
<path xmlns="http://www.w3.org/2000/svg" fill="#ec85a2" d="M 280.19 491.79   Q 280.11 489.64 280.03 488.26   C 279.65 481.48 283.16 474.79 289.38 471.97   C 298.55 467.82 308.24 473.97 311.49 482.70   C 316.30 495.61 314.00 512.63 310.17 525.72   A 1.23 1.22 -86.5 0 1 309.20 526.59   Q 292.18 529.39 275.37 525.54   C 267.47 523.73 258.86 518.58 256.88 510.50   C 253.88 498.29 263.70 489.15 275.58 491.29   Q 276.84 491.51 279.70 492.19   A 0.40 0.40 0.0 0 0 280.19 491.79   Z"/>
<path xmlns="http://www.w3.org/2000/svg" fill="#ce5878" d="M 1168.19 491.81   A 0.40 0.40 0.0 0 0 1168.68 492.22   Q 1171.54 491.54 1172.80 491.31   C 1184.69 489.19 1194.51 498.34 1191.49 510.55   C 1189.51 518.64 1180.89 523.78 1172.98 525.59   Q 1156.16 529.43 1139.13 526.61   A 1.23 1.22 86.5 0 1 1138.16 525.74   C 1134.34 512.63 1132.05 495.61 1136.88 482.69   C 1140.14 473.96 1149.84 467.81 1159.01 471.98   C 1165.23 474.80 1168.74 481.50 1168.35 488.29   Q 1168.27 489.66 1168.19 491.81   Z"/>
<path xmlns="http://www.w3.org/2000/svg" fill="#ffffff" d="M 695.19 640.56   Q 692.90 642.34 689.92 643.86   A 6.86 6.72 11.9 0 0 688.90 644.51   C 685.44 647.22 682.32 649.22 679.66 652.12   C 670.90 661.66 662.32 676.99 663.50 690.19   Q 663.70 692.44 663.81 694.61   Q 653.82 706.95 642.59 712.33   Q 637.12 714.95 630.64 718.22   C 609.10 729.07 583.36 731.50 560.53 726.97   Q 544.10 723.71 527.80 715.20   Q 511.04 706.44 498.04 692.19   C 494.95 688.80 490.52 684.05 487.62 680.01   Q 478.04 666.67 472.69 651.85   Q 468.36 639.85 466.43 625.68   C 462.26 595.21 469.74 566.97 486.79 542.04   Q 491.32 535.42 496.34 530.34   C 504.58 522.02 512.52 514.90 521.39 509.56   C 537.25 500.00 556.88 493.45 575.77 492.79   C 590.60 492.28 605.74 493.62 619.99 498.71   Q 632.52 503.18 641.25 508.51   Q 653.70 516.10 666.01 527.97   Q 677.43 538.99 684.47 553.55   Q 687.00 558.80 690.94 567.72   Q 694.59 576.00 695.91 582.44   Q 698.53 595.19 698.56 601.51   Q 698.64 617.19 698.20 626.00   Q 697.87 632.81 695.19 640.56   Z   M 581.47 555.86   Q 580.30 554.82 578.04 552.72   C 570.21 545.47 560.17 539.58 549.73 538.14   Q 542.59 537.15 534.25 537.93   C 515.67 539.65 499.46 555.86 493.11 572.58   Q 490.27 580.07 490.17 589.77   Q 490.07 599.79 491.53 607.24   C 492.40 611.70 493.57 614.50 495.62 618.90   C 505.77 640.66 522.38 658.48 541.38 672.75   C 551.83 680.60 565.02 689.93 576.42 695.83   C 581.87 698.65 586.12 697.11 591.04 694.03   Q 600.94 687.84 609.05 682.54   Q 628.63 669.75 644.92 652.16   Q 653.52 642.89 657.86 636.70   Q 662.85 629.59 667.50 618.99   C 677.35 596.53 675.23 568.99 656.82 551.84   C 650.31 545.78 641.28 540.03 632.40 538.42   C 612.96 534.90 595.57 541.41 582.49 555.80   A 0.72 0.72 0.0 0 1 581.47 555.86   Z"/>
<path xmlns="http://www.w3.org/2000/svg" fill="#ffffff" d="M 799.52 692.45   Q 800.83 681.28 796.66 672.10   Q 791.68 661.13 783.35 652.40   Q 776.66 645.39 769.50 641.53   Q 765.70 631.40 765.33 618.75   Q 764.97 606.45 765.51 599.26   Q 766.72 583.32 772.57 568.82   C 777.75 555.99 783.53 544.56 792.55 534.07   Q 805.56 518.93 823.93 507.98   Q 844.23 495.88 867.50 493.48   C 881.56 492.03 895.77 492.26 909.79 496.09   C 927.65 500.97 942.02 507.35 955.24 519.02   C 964.95 527.60 972.44 534.10 978.57 544.33   C 990.56 564.33 998.80 583.74 998.65 606.98   Q 998.51 628.98 992.12 649.68   Q 991.17 652.77 990.25 654.74   C 989.11 657.20 988.70 659.08 987.51 661.39   Q 978.20 679.54 964.38 694.14   Q 956.93 702.01 948.94 707.45   Q 946.45 709.14 940.07 712.98   C 924.90 722.09 907.03 727.53 890.19 728.84   Q 885.41 729.21 876.08 728.86   Q 859.80 728.25 846.52 723.45   Q 833.31 718.68 820.48 711.28   Q 813.59 707.30 808.62 703.13   Q 802.15 697.69 799.52 692.45   Z   M 882.92 556.40   A 0.84 0.84 0.0 0 1 881.66 556.40   Q 872.86 546.30 859.88 540.87   Q 849.61 536.58 837.73 537.42   C 814.30 539.07 795.08 559.27 791.39 581.66   Q 790.30 588.30 790.94 596.22   Q 792.53 615.80 802.19 631.13   Q 806.73 638.36 819.67 652.67   Q 828.58 662.53 840.15 671.34   C 853.29 681.35 864.15 689.29 877.48 696.08   Q 882.53 698.65 887.82 695.85   C 901.09 688.82 913.36 679.89 924.86 671.10   C 949.71 652.12 973.94 623.63 973.87 590.79   Q 973.83 570.11 959.64 554.14   Q 955.52 549.51 947.69 544.45   C 936.57 537.27 922.51 535.97 910.06 538.92   C 899.65 541.39 889.89 548.41 882.92 556.40   Z"/>
<path xmlns="http://www.w3.org/2000/svg" fill="#4f4dcf" d="M 1003.06 515.42   Q 999.33 509.94 996.80 503.73   Q 1000.94 508.92 1003.06 515.42   Z"/>
<path xmlns="http://www.w3.org/2000/svg" fill="#ec7c7c" d="M 343.89 556.22   Q 344.17 553.62 344.32 551.96   C 345.04 543.74 350.43 536.31 358.39 534.01   C 370.14 530.62 380.71 539.70 383.09 550.76   C 386.62 567.12 380.89 587.16 373.99 602.22   A 1.49 1.48 -78.2 0 1 372.68 603.09   Q 351.74 603.49 332.22 595.93   C 323.04 592.38 313.60 584.69 312.63 574.63   C 311.15 559.44 324.54 550.17 338.45 554.81   Q 339.92 555.30 343.24 556.62   A 0.49 0.49 0.0 0 0 343.89 556.22   Z"/>
<path xmlns="http://www.w3.org/2000/svg" fill="#fcb6ba" d="M 1104.52 556.25   A 0.49 0.49 0.0 0 0 1105.18 556.65   Q 1108.50 555.33 1109.98 554.84   C 1123.91 550.19 1137.33 559.48 1135.85 574.70   C 1134.88 584.78 1125.42 592.48 1116.22 596.04   Q 1096.66 603.62 1075.68 603.22   A 1.49 1.48 78.2 0 1 1074.36 602.35   C 1067.45 587.25 1061.71 567.17 1065.24 550.78   C 1067.63 539.70 1078.22 530.60 1089.99 534.00   C 1097.97 536.30 1103.37 543.75 1104.09 551.98   Q 1104.24 553.65 1104.52 556.25   Z"/>
<path xmlns="http://www.w3.org/2000/svg" fill="#9d3154" d="M 581.47 555.86   A 0.72 0.72 0.0 0 0 582.49 555.80   C 595.57 541.41 612.96 534.90 632.40 538.42   C 641.28 540.03 650.31 545.78 656.82 551.84   C 675.23 568.99 677.35 596.53 667.50 618.99   Q 662.85 629.59 657.86 636.70   Q 653.52 642.89 644.92 652.16   Q 628.63 669.75 609.05 682.54   Q 600.94 687.84 591.04 694.03   C 586.12 697.11 581.87 698.65 576.42 695.83   C 565.02 689.93 551.83 680.60 541.38 672.75   C 522.38 658.48 505.77 640.66 495.62 618.90   C 493.57 614.50 492.40 611.70 491.53 607.24   Q 490.07 599.79 490.17 589.77   Q 490.27 580.07 493.11 572.58   C 499.46 555.86 515.67 539.65 534.25 537.93   Q 542.59 537.15 549.73 538.14   C 560.17 539.58 570.21 545.47 578.04 552.72   Q 580.30 554.82 581.47 555.86   Z   M 599.35 561.23   L 596.59 563.59   A 2.28 2.22 85.8 0 0 596.12 564.15   Q 589.60 575.31 589.29 575.79   C 586.43 580.16 581.12 582.37 576.87 578.37   C 573.69 575.38 571.09 569.63 569.24 566.36   A 4.68 4.56 7.4 0 0 568.40 565.30   Q 561.10 558.50 553.05 554.65   A 5.03 4.77 63.2 0 0 552.10 554.31   C 540.46 551.48 522.69 554.81 514.97 564.88   C 508.39 573.48 506.05 581.80 506.22 592.92   C 506.27 596.32 507.37 599.77 507.63 603.22   C 508.14 609.89 511.24 616.43 514.65 622.26   A 3.03 3.02 -85.2 0 0 515.30 623.03   Q 516.71 624.20 517.26 626.28   A 0.47 0.46 -70.7 0 0 517.32 626.41   Q 518.71 628.93 519.21 629.41   C 522.01 632.12 524.07 635.35 527.01 637.82   C 531.43 641.55 535.87 646.52 541.16 651.24   Q 547.09 656.52 552.69 661.48   C 556.21 664.60 559.79 667.23 563.42 670.03   Q 566.02 672.04 572.19 674.84   C 575.28 676.23 578.06 678.14 580.69 679.53   Q 581.86 680.14 584.34 679.12   C 593.10 675.50 599.75 670.84 606.00 665.01   Q 607.58 663.54 613.57 659.13   Q 618.87 655.23 626.71 648.45   C 636.07 640.36 641.77 631.92 648.75 621.25   Q 654.12 613.03 656.06 605.38   Q 659.95 589.99 654.30 575.84   C 650.72 566.90 644.45 559.30 635.70 556.21   Q 618.87 550.27 602.42 558.08   Q 601.07 558.72 600.13 560.31   A 3.50 3.45 85.7 0 1 599.35 561.23   Z"/>
<path xmlns="http://www.w3.org/2000/svg" fill="#9d3154" d="M 882.92 556.40   C 889.89 548.41 899.65 541.39 910.06 538.92   C 922.51 535.97 936.57 537.27 947.69 544.45   Q 955.52 549.51 959.64 554.14   Q 973.83 570.11 973.87 590.79   C 973.94 623.63 949.71 652.12 924.86 671.10   C 913.36 679.89 901.09 688.82 887.82 695.85   Q 882.53 698.65 877.48 696.08   C 864.15 689.29 853.29 681.35 840.15 671.34   Q 828.58 662.53 819.67 652.67   Q 806.73 638.36 802.19 631.13   Q 792.53 615.80 790.94 596.22   Q 790.30 588.30 791.39 581.66   C 795.08 559.27 814.30 539.07 837.73 537.42   Q 849.61 536.58 859.88 540.87   Q 872.86 546.30 881.66 556.40   A 0.84 0.84 0.0 0 0 882.92 556.40   Z   M 867.72 563.71   Q 852.60 549.71 832.36 555.12   C 826.93 556.57 821.99 558.79 818.27 562.75   Q 817.15 563.93 814.01 567.09   A 3.28 3.08 81.4 0 0 813.41 567.96   Q 808.89 577.47 807.29 584.02   Q 806.40 587.68 806.18 594.41   Q 806.03 599.32 807.75 603.95   C 810.68 611.78 814.38 618.65 818.11 625.60   Q 821.59 632.07 824.21 634.99   C 829.33 640.69 834.01 644.86 841.46 650.95   C 848.59 656.78 856.37 664.70 863.29 669.71   Q 865.23 671.12 872.17 674.27   Q 874.56 675.36 875.64 676.14   C 878.77 678.41 881.05 680.84 885.07 678.86   C 894.56 674.20 903.96 668.91 911.98 661.69   C 924.81 650.15 937.24 638.85 947.53 624.94   A 2.05 2.01 -19.7 0 0 947.86 624.26   Q 948.11 623.22 948.86 622.75   Q 949.40 622.40 949.35 622.01   Q 949.27 621.38 949.71 621.18   Q 950.12 621.00 950.61 620.21   C 951.88 618.16 952.26 615.61 953.77 613.46   A 2.96 2.84 -21.4 0 0 954.20 612.53   C 955.76 606.74 957.33 602.25 957.69 597.82   Q 958.91 583.19 952.00 569.71   Q 950.55 566.88 948.20 564.49   Q 944.22 560.44 943.30 559.89   Q 935.92 555.46 926.25 553.78   C 920.32 552.76 913.47 554.52 907.73 556.23   Q 903.46 557.50 900.03 560.81   Q 893.95 566.67 890.31 574.53   C 888.04 579.42 884.84 582.06 879.31 580.09   A 2.51 2.46 -11.3 0 1 878.36 579.47   C 873.97 574.86 871.92 570.04 869.13 565.44   A 8.45 8.39 -84.4 0 0 867.72 563.71   Z"/>
<path xmlns="http://www.w3.org/2000/svg" fill="#ce5878" d="M 600.13 560.31   Q 601.07 558.72 602.42 558.08   Q 618.87 550.27 635.70 556.21   C 644.45 559.30 650.72 566.90 654.30 575.84   Q 659.95 589.99 656.06 605.38   Q 654.12 613.03 648.75 621.25   C 641.77 631.92 636.07 640.36 626.71 648.45   Q 618.87 655.23 613.57 659.13   Q 607.58 663.54 606.00 665.01   C 599.75 670.84 593.10 675.50 584.34 679.12   Q 581.86 680.14 580.69 679.53   C 578.06 678.14 575.28 676.23 572.19 674.84   Q 566.02 672.04 563.42 670.03   C 559.79 667.23 556.21 664.60 552.69 661.48   Q 547.09 656.52 541.16 651.24   C 535.87 646.52 531.43 641.55 527.01 637.82   C 524.07 635.35 522.01 632.12 519.21 629.41   Q 518.71 628.93 517.32 626.41   A 0.47 0.46 -70.7 0 1 517.26 626.28   Q 516.71 624.20 515.30 623.03   A 3.03 3.02 -85.2 0 1 514.65 622.26   C 511.24 616.43 508.14 609.89 507.63 603.22   C 507.37 599.77 506.27 596.32 506.22 592.92   C 506.05 581.80 508.39 573.48 514.97 564.88   C 522.69 554.81 540.46 551.48 552.10 554.31   A 5.03 4.77 63.2 0 1 553.05 554.65   Q 561.10 558.50 568.40 565.30   A 4.68 4.56 7.4 0 1 569.24 566.36   C 571.09 569.63 573.69 575.38 576.87 578.37   C 581.12 582.37 586.43 580.16 589.29 575.79   Q 589.60 575.31 596.12 564.15   A 2.28 2.22 85.8 0 1 596.59 563.59   L 599.35 561.23   A 3.50 3.45 85.7 0 0 600.13 560.31   Z   M 525.77 571.33   Q 523.52 573.26 522.11 575.09   C 517.84 580.58 514.48 591.98 522.89 595.57   Q 529.12 598.24 533.93 593.32   A 2.91 2.86 -11.0 0 0 534.53 592.45   C 535.75 589.75 536.58 587.74 538.50 586.09   C 540.41 584.44 542.51 583.92 545.37 583.11   A 2.91 2.86 -70.5 0 0 546.32 582.64   Q 551.89 578.61 550.17 572.06   C 547.86 563.21 536.09 564.85 530.03 568.26   Q 528.01 569.39 525.77 571.33   Z"/>
<path xmlns="http://www.w3.org/2000/svg" fill="#ce5878" d="M 867.72 563.71   A 8.45 8.39 -84.4 0 1 869.13 565.44   C 871.92 570.04 873.97 574.86 878.36 579.47   A 2.51 2.46 -11.3 0 0 879.31 580.09   C 884.84 582.06 888.04 579.42 890.31 574.53   Q 893.95 566.67 900.03 560.81   Q 903.46 557.50 907.73 556.23   C 913.47 554.52 920.32 552.76 926.25 553.78   Q 935.92 555.46 943.30 559.89   Q 944.22 560.44 948.20 564.49   Q 950.55 566.88 952.00 569.71   Q 958.91 583.19 957.69 597.82   C 957.33 602.25 955.76 606.74 954.20 612.53   A 2.96 2.84 -21.4 0 1 953.77 613.46   C 952.26 615.61 951.88 618.16 950.61 620.21   Q 950.12 621.00 949.71 621.18   Q 949.27 621.38 949.35 622.01   Q 949.40 622.40 948.86 622.75   Q 948.11 623.22 947.86 624.26   A 2.05 2.01 -19.7 0 1 947.53 624.94   C 937.24 638.85 924.81 650.15 911.98 661.69   C 903.96 668.91 894.56 674.20 885.07 678.86   C 881.05 680.84 878.77 678.41 875.64 676.14   Q 874.56 675.36 872.17 674.27   Q 865.23 671.12 863.29 669.71   C 856.37 664.70 848.59 656.78 841.46 650.95   C 834.01 644.86 829.33 640.69 824.21 634.99   Q 821.59 632.07 818.11 625.60   C 814.38 618.65 810.68 611.78 807.75 603.95   Q 806.03 599.32 806.18 594.41   Q 806.40 587.68 807.29 584.02   Q 808.89 577.47 813.41 567.96   A 3.28 3.08 81.4 0 1 814.01 567.09   Q 817.15 563.93 818.27 562.75   C 821.99 558.79 826.93 556.57 832.36 555.12   Q 852.60 549.71 867.72 563.71   Z   M 829.98 595.49   Q 833.62 594.15 834.35 592.49   Q 837.14 586.19 842.70 584.27   Q 847.17 582.72 847.90 582.21   C 852.17 579.21 852.11 571.49 848.30 568.24   Q 843.94 564.52 837.85 565.54   Q 824.46 567.76 820.14 580.37   C 818.50 585.13 817.13 593.05 823.07 595.26   Q 826.83 596.66 829.98 595.49   Z"/>
<path xmlns="http://www.w3.org/2000/svg" fill="#ffffff" d="M 829.98 595.49   Q 826.83 596.66 823.07 595.26   C 817.13 593.05 818.50 585.13 820.14 580.37   Q 824.46 567.76 837.85 565.54   Q 843.94 564.52 848.30 568.24   C 852.11 571.49 852.17 579.21 847.90 582.21   Q 847.17 582.72 842.70 584.27   Q 837.14 586.19 834.35 592.49   Q 833.62 594.15 829.98 595.49   Z"/>
<path xmlns="http://www.w3.org/2000/svg" fill="#ffffff" d="M 538.50 586.09   C 536.58 587.74 535.75 589.75 534.53 592.45   A 2.91 2.86 -11.0 0 1 533.93 593.32   Q 529.12 598.24 522.89 595.57   C 514.48 591.98 517.84 580.58 522.11 575.09   Q 523.52 573.26 525.77 571.33   Q 528.01 569.39 530.03 568.26   C 536.09 564.85 547.86 563.21 550.17 572.06   Q 551.89 578.61 546.32 582.64   A 2.91 2.86 -70.5 0 1 545.37 583.11   C 542.51 583.92 540.41 584.44 538.50 586.09   Z"/>
<path xmlns="http://www.w3.org/2000/svg" fill="#4f4dcf" d="M 433.37 596.73   C 433.62 599.86 433.97 603.05 433.83 606.09   C 433.35 616.64 433.53 627.37 435.05 637.53   Q 436.08 644.48 439.15 653.29   Q 441.24 659.27 444.69 671.24   A 1.82 1.81 -75.7 0 0 445.15 672.02   L 445.48 672.35   A 0.90 0.87 -75.9 0 1 445.68 672.70   Q 446.93 676.77 448.47 679.75   Q 455.14 692.66 462.85 701.69   C 472.00 712.41 481.96 722.42 493.84 731.12   Q 507.46 741.09 525.01 747.75   Q 562.57 762.01 601.99 754.68   Q 619.92 751.34 634.48 745.19   Q 644.25 741.06 648.78 737.43   Q 654.27 733.02 658.20 731.64   A 1.00 0.97 -72.4 0 0 658.46 731.50   L 668.33 724.25   A 1.07 0.99 2.4 0 0 668.46 724.14   Q 670.68 721.79 672.42 720.76   A 1.62 1.62 0.0 0 0 673.08 718.72   L 671.46 715.06   Q 677.55 726.32 680.85 730.15   C 684.36 734.22 687.38 738.58 690.79 742.23   Q 691.41 742.89 695.92 748.30   Q 707.37 761.99 725.79 768.69   Q 729.46 770.02 733.08 769.87   Q 735.77 769.75 740.08 767.79   Q 743.79 766.10 747.52 764.51   C 753.32 762.03 758.01 757.81 762.49 753.75   Q 765.16 751.33 768.75 747.01   Q 773.85 740.86 786.04 726.17   A 2.51 1.90 -18.7 0 0 786.25 725.86   L 790.01 719.17   Q 793.50 723.00 797.82 726.47   Q 801.24 729.21 806.77 732.26   Q 811.54 734.89 818.24 739.26   Q 823.80 742.88 832.58 746.39   Q 869.00 760.92 907.74 755.77   Q 924.74 753.51 939.44 747.39   C 953.59 741.50 966.29 735.28 977.85 725.21   C 991.05 713.72 1001.80 700.26 1012.21 685.95   Q 1013.97 683.54 1016.60 677.76   Q 1019.12 672.21 1020.09 669.12   Q 1026.61 648.33 1029.43 633.74   Q 1029.83 631.67 1030.38 617.93   A 16.06 16.01 -47.4 0 0 1030.27 615.22   Q 1029.50 609.18 1029.92 607.87   Q 1030.79 605.14 1031.02 602.15   C 1033.33 607.99 1034.84 614.58 1036.94 619.92   Q 1037.70 621.83 1037.82 623.69   Q 1037.92 625.28 1038.58 627.17   A 3.55 3.53 -58.9 0 1 1038.76 627.91   Q 1040.45 639.77 1041.01 645.12   Q 1041.99 654.44 1042.70 659.38   Q 1045.65 679.84 1047.99 703.75   C 1049.75 721.76 1049.98 735.71 1050.33 754.52   Q 1050.60 768.86 1050.43 776.97   Q 1049.89 803.11 1045.95 835.76   Q 1043.95 852.30 1041.59 862.10   Q 1034.19 892.80 1027.52 912.65   C 1021.87 929.46 1012.91 946.51 1004.16 963.25   Q 1001.29 968.75 999.91 970.88   C 997.61 974.44 996.04 977.31 993.48 980.56   Q 989.83 985.22 986.16 990.15   Q 983.50 993.72 983.09 994.46   Q 981.85 996.69 979.72 998.45   Q 978.96 999.09 972.78 1007.30   Q 963.88 1019.12 948.93 1031.68   Q 945.91 1034.22 940.07 1040.00   C 936.79 1043.24 932.87 1045.74 929.36 1048.80   A 2.54 2.21 -75.5 0 1 928.98 1049.06   L 924.87 1051.08   Q 926.91 1039.01 926.97 1035.50   Q 927.01 1033.28 926.32 1015.79   Q 925.82 1002.97 924.68 996.14   Q 921.12 974.81 915.46 960.72   Q 909.55 946.05 904.40 936.58   C 897.94 924.72 889.86 913.02 880.40 902.66   Q 872.92 894.45 871.24 892.77   C 852.01 873.59 828.04 858.13 802.99 849.00   Q 779.97 840.61 757.51 838.00   Q 702.09 831.56 651.50 852.83   C 636.55 859.12 623.98 867.13 610.82 876.58   C 597.48 886.16 585.16 899.34 575.21 912.18   Q 553.75 939.90 543.59 974.24   C 537.21 995.80 535.88 1018.20 537.28 1040.30   C 537.49 1043.57 538.34 1047.43 538.78 1051.05   Q 538.42 1051.20 538.26 1051.12   Q 532.60 1048.09 528.01 1043.71   Q 522.73 1038.66 522.71 1038.64   Q 512.01 1029.23 503.49 1021.94   C 502.29 1020.91 502.09 1020.32 501.37 1019.27   A 3.88 3.63 4.4 0 0 500.71 1018.55   Q 492.99 1012.08 487.91 1003.09   Q 486.98 1001.45 483.64 997.61   C 478.56 991.78 473.31 985.51 468.92 980.10   Q 465.39 975.76 461.61 967.46   Q 457.00 957.34 450.88 946.46   C 446.17 938.09 442.75 930.87 439.47 920.89   Q 432.87 900.76 431.05 895.91   Q 426.24 883.08 424.02 871.50   C 416.77 833.69 412.47 800.89 413.07 765.74   Q 413.37 748.15 413.50 734.75   Q 413.63 720.52 415.65 705.57   Q 417.74 690.05 418.04 686.32   C 418.68 678.29 420.21 669.23 420.64 660.96   Q 420.88 656.22 421.98 650.25   C 422.93 645.09 423.41 637.64 424.72 632.01   C 425.49 628.70 425.54 625.81 426.53 622.02   Q 429.84 609.36 433.37 596.73   Z"/>
<path xmlns="http://www.w3.org/2000/svg" fill="#2a2d73" d="M 769.50 641.53   Q 776.66 645.39 783.35 652.40   Q 791.68 661.13 796.66 672.10   Q 800.83 681.28 799.52 692.45   Q 796.06 705.77 790.01 719.17   L 786.25 725.86   A 2.51 1.90 -18.7 0 1 786.04 726.17   Q 773.85 740.86 768.75 747.01   Q 765.16 751.33 762.49 753.75   C 758.01 757.81 753.32 762.03 747.52 764.51   Q 743.79 766.10 740.08 767.79   Q 735.77 769.75 733.08 769.87   Q 729.46 770.02 725.79 768.69   Q 707.37 761.99 695.92 748.30   Q 691.41 742.89 690.79 742.23   C 687.38 738.58 684.36 734.22 680.85 730.15   Q 677.55 726.32 671.46 715.06   L 663.81 694.61   Q 663.70 692.44 663.50 690.19   C 662.32 676.99 670.90 661.66 679.66 652.12   C 682.32 649.22 685.44 647.22 688.90 644.51   A 6.86 6.72 11.9 0 1 689.92 643.86   Q 692.90 642.34 695.19 640.56   Q 701.37 638.13 707.43 635.84   Q 715.76 632.70 719.95 632.02   Q 732.38 630.03 744.67 632.48   Q 748.82 633.30 757.21 636.63   Q 763.46 639.11 769.50 641.53   Z   M 680.11 687.53   C 683.16 691.85 687.94 694.85 692.70 697.63   C 705.30 704.98 714.39 710.31 726.65 714.83   Q 731.48 716.61 734.31 715.81   C 743.17 713.30 753.77 708.23 762.17 703.04   Q 770.00 698.21 775.15 695.15   C 777.41 693.81 783.84 688.64 783.66 685.46   C 782.86 670.95 772.64 662.72 761.64 655.30   Q 755.97 651.48 752.53 650.37   C 746.80 648.52 742.67 647.30 736.22 647.23   Q 728.97 647.16 725.27 647.25   C 713.61 647.51 703.64 653.43 694.50 660.45   C 686.99 666.21 678.86 676.71 679.75 686.56   A 2.04 1.99 25.3 0 0 680.11 687.53   Z   M 773.84 715.24   A 0.39 0.39 0.0 0 0 773.32 714.70   Q 761.36 720.68 744.54 728.65   Q 734.82 733.25 725.64 730.80   Q 718.87 728.99 714.87 726.88   Q 707.41 722.94 691.01 715.01   Q 690.63 714.82 690.34 714.98   A 0.85 0.85 0.0 0 0 690.03 716.15   Q 703.67 738.91 726.15 753.06   Q 731.63 756.51 736.93 753.47   Q 742.53 750.26 748.19 745.20   C 752.28 741.54 756.90 737.99 760.06 734.39   Q 768.38 724.92 773.84 715.24   Z"/>
<path xmlns="http://www.w3.org/2000/svg" fill="#f9b393" d="M 679.75 686.56   C 678.86 676.71 686.99 666.21 694.50 660.45   C 703.64 653.43 713.61 647.51 725.27 647.25   Q 728.97 647.16 736.22 647.23   C 742.67 647.30 746.80 648.52 752.53 650.37   Q 755.97 651.48 761.64 655.30   C 772.64 662.72 782.86 670.95 783.66 685.46   C 783.84 688.64 777.41 693.81 775.15 695.15   Q 770.00 698.21 762.17 703.04   C 753.77 708.23 743.17 713.30 734.31 715.81   Q 731.48 716.61 726.65 714.83   C 714.39 710.31 705.30 704.98 692.70 697.63   C 687.94 694.85 683.16 691.85 680.11 687.53   A 2.04 1.99 25.3 0 1 679.75 686.56   Z"/>
<path xmlns="http://www.w3.org/2000/svg" fill="#f9b393" d="M 773.84 715.24   Q 768.38 724.92 760.06 734.39   C 756.90 737.99 752.28 741.54 748.19 745.20   Q 742.53 750.26 736.93 753.47   Q 731.63 756.51 726.15 753.06   Q 703.67 738.91 690.03 716.15   A 0.85 0.85 0.0 0 1 690.34 714.98   Q 690.63 714.82 691.01 715.01   Q 707.41 722.94 714.87 726.88   Q 718.87 728.99 725.64 730.80   Q 734.82 733.25 744.54 728.65   Q 761.36 720.68 773.32 714.70   A 0.39 0.39 0.0 0 1 773.84 715.24   Z"/>
<path xmlns="http://www.w3.org/2000/svg" fill="#888aeb" d="M 1065.38 733.87   A 0.25 0.25 0.0 0 1 1065.84 733.71   C 1071.00 741.48 1075.58 747.17 1079.12 754.29   Q 1084.40 764.90 1087.46 771.80   C 1091.90 781.80 1092.86 788.49 1095.81 800.60   Q 1097.67 808.25 1098.49 814.45   Q 1100.12 826.86 1100.46 832.03   C 1100.90 838.63 1100.61 848.08 1099.78 855.32   Q 1097.20 877.81 1091.14 900.82   C 1090.14 904.61 1088.27 908.78 1085.72 913.06   C 1082.04 919.23 1078.88 926.02 1075.45 932.13   C 1072.62 937.15 1071.14 942.04 1067.72 946.47   Q 1060.47 955.87 1053.10 962.83   Q 1048.20 967.46 1044.92 970.71   Q 1041.62 973.99 1036.16 978.66   Q 1023.09 989.83 1022.32 990.46   C 1019.17 993.03 1015.81 994.52 1012.47 996.69   C 1008.27 999.43 1003.77 1001.02 997.96 1003.50   A 0.67 0.67 0.0 0 1 997.13 1002.53   Q 999.21 999.18 1001.33 995.66   Q 1003.72 991.69 1005.68 988.88   C 1011.06 981.15 1015.84 975.10 1019.55 968.27   Q 1029.13 950.62 1032.67 941.43   Q 1037.38 929.24 1044.96 909.71   Q 1046.49 905.76 1049.36 895.46   Q 1060.72 854.76 1064.21 810.74   Q 1065.61 793.18 1066.33 767.52   Q 1066.81 750.39 1065.38 733.87   Z"/>
<path xmlns="http://www.w3.org/2000/svg" fill="#888aeb" d="M 466.45 1003.85   Q 465.85 1003.85 465.20 1003.59   Q 447.94 996.62 435.30 984.99   Q 433.35 983.20 431.30 981.86   Q 429.60 980.75 427.21 978.63   C 423.49 975.33 418.84 972.41 415.04 968.66   C 408.87 962.56 403.53 954.68 397.63 946.93   Q 390.88 938.06 384.25 927.70   Q 382.17 924.46 381.38 922.29   C 380.46 919.81 379.02 917.76 378.04 914.83   Q 372.84 899.36 368.94 886.51   C 365.16 874.05 363.63 860.34 362.96 847.37   Q 362.34 835.47 363.84 823.03   Q 366.43 801.62 371.93 782.44   Q 375.42 770.23 382.52 756.27   C 386.30 748.86 392.08 742.33 396.78 734.99   A 0.49 0.49 0.0 0 1 397.68 735.28   C 397.34 743.59 397.01 750.76 397.19 760.26   Q 397.32 767.02 397.50 777.25   Q 398.25 821.22 406.48 864.29   Q 407.45 869.38 411.36 883.41   Q 412.78 888.50 418.18 909.11   Q 419.24 913.15 424.05 925.69   Q 426.69 932.57 431.25 941.78   Q 435.11 949.58 438.98 959.65   Q 440.45 963.48 443.84 969.51   Q 447.30 975.66 449.86 978.80   C 455.58 985.80 460.99 995.73 466.65 1003.45   A 0.25 0.25 0.0 0 1 466.45 1003.85   Z"/>
<path xmlns="http://www.w3.org/2000/svg" fill="#8cabf3" d="M 924.87 1051.08   Q 915.35 1057.09 905.72 1063.98   C 902.83 1066.05 897.84 1068.69 893.57 1070.69   Q 886.33 1074.08 860.64 1084.89   Q 847.45 1090.43 834.94 1092.97   Q 825.26 1094.94 820.05 1096.28   Q 804.54 1100.26 795.75 1101.52   C 769.56 1105.26 743.05 1107.45 716.37 1106.13   C 694.89 1105.07 672.50 1102.93 651.49 1098.10   Q 650.82 1097.95 630.88 1093.51   Q 619.02 1090.86 610.62 1087.77   Q 595.60 1082.24 578.51 1074.18   Q 572.05 1071.14 565.40 1068.03   C 555.59 1063.45 548.31 1057.61 539.74 1052.27   Q 539.23 1051.95 538.78 1051.05   C 538.34 1047.43 537.49 1043.57 537.28 1040.30   C 535.88 1018.20 537.21 995.80 543.59 974.24   Q 553.75 939.90 575.21 912.18   C 585.16 899.34 597.48 886.16 610.82 876.58   C 623.98 867.13 636.55 859.12 651.50 852.83   Q 702.09 831.56 757.51 838.00   Q 779.97 840.61 802.99 849.00   C 828.04 858.13 852.01 873.59 871.24 892.77   Q 872.92 894.45 880.40 902.66   C 889.86 913.02 897.94 924.72 904.40 936.58   Q 909.55 946.05 915.46 960.72   Q 921.12 974.81 924.68 996.14   Q 925.82 1002.97 926.32 1015.79   Q 927.01 1033.28 926.97 1035.50   Q 926.91 1039.01 924.87 1051.08   Z"/>
<path xmlns="http://www.w3.org/2000/svg" fill="#f9b393" d="M 867.40 1099.18   L 881.13 1093.79   A 2.37 2.37 0.0 0 1 883.50 1094.18   Q 894.19 1103.11 895.88 1116.57   C 897.23 1127.40 897.26 1136.94 892.20 1146.43   C 888.03 1154.23 881.24 1158.98 873.36 1151.66   A 2.68 2.67 -61.3 0 1 872.60 1149.05   Q 879.20 1123.45 866.91 1100.51   A 0.95 0.95 0.0 0 1 867.40 1099.18   Z"/>
<path xmlns="http://www.w3.org/2000/svg" fill="#f9b393" d="M 597.17 1100.60   C 589.79 1115.15 587.17 1131.89 591.62 1147.61   C 592.61 1151.10 589.01 1153.45 586.09 1154.64   C 581.64 1156.45 577.14 1154.30 574.26 1150.68   C 563.29 1136.88 565.08 1105.07 580.38 1094.39   Q 581.72 1093.47 583.79 1094.24   Q 590.03 1096.56 596.45 1098.82   A 1.28 1.27 23.0 0 1 597.17 1100.60   Z"/>
<path xmlns="http://www.w3.org/2000/svg" fill="#f9b393" d="M 638.09 1111.83   A 0.89 0.89 0.0 0 1 638.74 1112.77   C 638.37 1116.93 637.35 1120.80 637.07 1125.11   Q 636.35 1136.10 638.61 1147.17   A 4.69 4.63 52.1 0 1 638.26 1150.12   Q 635.49 1156.06 630.66 1159.58   C 623.22 1165.00 614.83 1160.14 610.88 1153.35   Q 608.72 1149.65 607.41 1145.11   Q 601.23 1123.63 611.77 1105.13   A 1.63 1.62 25.7 0 1 613.79 1104.43   C 622.36 1107.92 630.25 1109.60 638.09 1111.83   Z"/>
<path xmlns="http://www.w3.org/2000/svg" fill="#f9b393" d="M 825.39 1112.83   A 0.82 0.81 -14.3 0 1 826.00 1111.81   Q 838.00 1109.17 850.31 1104.76   A 1.39 1.38 63.5 0 1 851.94 1105.31   C 860.58 1118.44 860.99 1133.97 855.84 1148.50   C 853.89 1154.01 849.81 1159.48 844.35 1161.31   C 836.02 1164.11 829.39 1157.16 825.93 1150.12   A 4.89 4.83 -52.9 0 1 825.52 1147.05   C 827.74 1135.31 828.69 1124.57 825.39 1112.83   Z"/>
<path xmlns="http://www.w3.org/2000/svg" fill="#f9b393" d="M 682.15 1119.89   Q 685.51 1137.94 676.47 1153.18   C 675.15 1155.41 673.41 1157.99 671.26 1159.22   C 662.19 1164.41 658.16 1155.11 655.63 1148.58   Q 649.26 1132.12 653.79 1116.00   A 1.67 1.66 12.5 0 1 655.67 1114.81   L 681.57 1119.31   A 0.72 0.72 0.0 0 1 682.15 1119.89   Z"/>
<path xmlns="http://www.w3.org/2000/svg" fill="#f9b393" d="M 782.28 1119.94   A 0.72 0.72 0.0 0 1 782.86 1119.36   L 808.68 1115.07   A 1.66 1.65 -12.1 0 1 810.54 1116.27   Q 814.94 1132.35 808.47 1148.69   C 805.91 1155.18 801.83 1164.41 792.83 1159.17   C 790.70 1157.93 788.99 1155.35 787.69 1153.12   Q 778.80 1137.88 782.28 1119.94   Z"/>
</g></g></g></g></svg>