<svg xmlns="http://www.w3.org/2000/svg" direction="ltr" width="798" height="840" viewBox="13135 10757 798 840" stroke-linecap="round" stroke-linejoin="round" data-color-mode="light" class="tl-container tl-theme__force-sRGB tl-theme__light" style="background-color: transparent;"><defs/><g transform="matrix(1, 0, 0, 1, 13135, 10757)" opacity="1"><g data-lovart-layer-name="SVG 22"><g transform="scale(1, 1)"><g>
<g xmlns="http://www.w3.org/2000/svg" stroke-width="2.00" fill="none" stroke-linecap="butt">
<path stroke="#9c9cbb" d="M 356.08 750.66   C 377.59 753.52 400.49 752.79 421.80 750.44   A 0.43 0.42 -3.1 0 1 422.27 750.86   C 422.09 768.43 428.31 787.18 446.16 793.78   C 456.52 797.61 468.43 796.59 478.76 792.24   Q 480.80 791.38 484.46 789.70   A 3.03 3.03 0.0 0 1 486.65 789.57   Q 488.11 790.04 493.74 791.98   C 501.41 794.62 508.99 794.77 516.74 792.19   C 534.69 786.21 544.49 769.37 543.84 750.72   Q 543.22 733.20 532.56 719.00   A 0.84 0.84 0.0 0 1 532.83 717.76   Q 548.75 709.19 565.33 698.32   Q 586.52 684.43 605.18 664.93   Q 606.70 663.34 609.11 662.60   Q 687.39 638.27 728.79 570.06   C 737.86 555.13 745.35 539.62 750.38 522.15   Q 757.16 498.62 758.35 479.18   C 760.56 443.13 751.24 401.70 727.64 373.53   Q 719.61 363.94 716.01 359.97   Q 712.91 356.55 712.85 355.09   Q 711.96 334.02 705.82 303.74   C 698.24 266.39 685.34 230.18 666.34 196.67   Q 662.44 189.79 652.94 175.07   C 634.34 146.24 609.84 120.43 583.74 99.25   C 566.42 85.20 547.94 73.69 528.76 63.72   Q 484.24 40.59 432.95 32.47   Q 426.60 31.46 422.13 31.10   C 412.79 30.34 404.01 29.26 394.80 29.07   Q 333.86 27.83 277.72 49.32   C 233.80 66.13 193.29 93.45 160.89 126.89   Q 151.37 136.72 144.53 144.53   C 129.47 161.73 117.38 180.57 105.30 202.20   Q 96.66 217.68 90.45 233.01   Q 82.35 252.98 78.62 265.12   Q 66.76 303.74 62.08 347.96   Q 61.62 352.32 61.08 355.16   A 5.65 5.64 -19.4 0 1 59.81 357.80   C 56.51 361.61 51.04 367.44 47.43 372.09   C 25.15 400.80 12.73 438.69 14.87 475.48   Q 17.52 521.13 40.01 561.53   Q 49.41 578.42 62.75 595.50   C 88.02 627.86 126.52 650.74 165.29 662.39   A 9.99 9.96 75.6 0 1 169.41 664.83   Q 179.42 674.68 189.97 683.48   C 201.05 692.73 212.92 700.31 226.55 708.44   Q 235.47 713.75 245.44 718.54   A 0.45 0.45 0.0 0 1 245.61 719.20   C 234.41 734.91 229.18 754.96 238.06 772.99   Q 244.89 786.87 260.13 792.12   C 270.55 795.72 279.66 793.37 289.40 789.37   A 3.08 2.81 27.7 0 1 290.20 789.16   Q 291.75 788.97 293.63 789.88   Q 300.86 793.38 306.96 794.82   C 327.33 799.63 346.22 790.37 352.53 770.28   Q 355.63 760.41 355.67 751.02   A 0.37 0.36 3.5 0 1 356.08 750.66"/>
<path stroke="#5e5eaa" d="M 198.59 660.17   Q 216.47 674.98 223.50 679.26   Q 231.74 684.29 239.27 688.97   Q 247.74 694.23 254.89 697.53   Q 269.23 704.16 272.49 705.48   C 301.32 717.21 331.39 726.38 362.73 728.44   Q 393.43 730.46 419.49 727.71   Q 460.98 723.33 505.36 704.83   Q 525.38 696.49 530.44 693.24   Q 531.42 692.61 551.31 680.07   Q 559.76 674.74 577.74 660.05"/>
<path stroke="#54559d" d="M 577.74 660.05   Q 590.79 648.18 598.94 638.95   Q 612.13 623.98 628.23 601.25   Q 633.67 593.58 642.99 576.93   Q 647.60 568.68 652.18 558.46   Q 659.82 541.39 660.58 539.62   Q 666.60 525.61 673.91 501.95   Q 679.15 484.98 680.89 475.11   Q 687.74 436.35 690.25 396.99   Q 691.09 383.79 690.55 374.75   C 690.16 368.07 690.09 360.88 689.31 354.42   C 688.24 345.52 687.09 333.08 685.07 322.27   Q 684.96 321.68 682.61 307.39   Q 681.86 302.81 679.04 291.29   Q 676.89 282.45 674.48 275.45   Q 663.71 244.08 653.69 223.52   Q 636.36 187.96 607.42 153.82   Q 603.07 148.70 594.71 140.29   Q 583.65 129.16 580.30 126.42   Q 569.62 117.70 566.53 115.12   C 561.13 110.61 553.57 105.31 547.80 101.45   Q 520.78 83.38 490.43 71.59   Q 426.91 46.93 359.60 52.96   Q 339.74 54.74 318.69 60.15   C 300.75 64.76 284.21 70.44 268.18 77.92   Q 260.40 81.55 257.28 83.04   Q 241.83 90.45 225.65 101.64   Q 194.23 123.35 168.77 151.48   C 162.68 158.20 157.62 164.89 151.80 172.53   Q 133.71 196.29 120.74 223.21   Q 104.60 256.70 95.66 289.85   C 91.65 304.71 89.47 318.50 86.88 335.51   C 81.86 368.59 83.60 403.11 87.67 437.43   Q 90.38 460.29 95.22 479.82   Q 102.64 509.70 113.02 536.90   C 114.22 540.03 116.24 543.91 117.65 547.59   Q 118.54 549.91 121.37 555.51   Q 127.79 568.18 136.25 583.42   Q 143.87 597.14 152.35 608.43   Q 168.38 629.75 184.94 647.33   Q 188.63 651.25 198.59 660.17"/>
<path stroke="#797acf" d="M 577.74 660.05   Q 574.67 647.85 572.08 635.64   C 570.94 630.30 569.29 624.87 567.35 620.68   Q 563.69 612.83 560.24 604.30   Q 558.86 600.88 550.14 585.04   C 547.23 579.75 543.55 575.65 540.31 570.83   C 532.20 558.80 522.22 547.82 511.28 538.48   Q 501.86 530.43 496.52 526.49   Q 477.37 512.37 453.18 503.31   Q 409.98 487.13 365.61 492.68   Q 349.97 494.63 340.68 497.17   Q 286.23 512.06 250.02 552.29   Q 221.99 583.43 207.08 622.09   Q 199.79 640.98 198.59 660.17"/>
<path stroke="#54559d" d="M 137.90 627.06   C 134.76 622.44 130.77 617.28 127.43 612.00   Q 124.06 606.67 120.96 602.37   Q 117.90 598.14 114.74 592.60   Q 108.87 582.29 106.80 578.25   Q 99.16 563.24 86.89 532.14   Q 81.91 519.51 78.62 507.45   Q 67.66 467.23 63.28 425.22   C 62.10 413.95 61.67 402.90 62.04 392.30   A 0.46 0.46 0.0 0 0 61.35 391.88   C 60.44 392.40 60.01 393.68 59.58 394.35   Q 50.57 408.63 47.31 416.28   Q 42.50 427.55 40.20 441.66   Q 38.98 449.12 38.95 449.32   Q 36.34 464.49 38.22 482.76   Q 43.00 529.28 70.29 567.83   Q 74.89 574.32 81.34 582.52   Q 85.12 587.32 95.38 597.69   C 99.47 601.82 104.38 605.15 109.28 609.41   Q 114.15 613.65 120.07 617.68   Q 129.77 624.29 137.13 627.95   A 0.61 0.61 0.0 0 0 137.90 627.06"/>
<path stroke="#54559d" d="M 713.09 394.13   C 713.26 400.11 713.61 404.48 713.16 410.62   Q 712.30 422.33 709.46 441.77   Q 704.88 473.21 697.61 501.82   C 692.02 523.85 684.07 544.45 674.82 564.61   Q 662.71 591.02 646.54 614.57   Q 642.00 621.18 637.92 626.23   A 0.71 0.70 -18.0 0 0 637.78 626.50   L 637.52 627.34   A 0.61 0.60 -7.3 0 0 638.42 628.03   Q 659.61 615.00 677.37 598.85   C 689.23 588.06 699.48 574.77 708.41 560.94   C 723.68 537.27 732.71 510.45 735.70 482.49   C 737.14 468.99 735.80 455.71 733.84 441.94   Q 731.61 426.27 724.77 412.69   Q 719.70 402.62 714.38 393.76   A 0.70 0.69 28.8 0 0 713.09 394.13"/>
<path stroke="#967281" d="M 448.54 746.41   L 445.21 746.78"/>
<path stroke="#916861" d="M 445.21 746.78   Q 444.30 747.06 444.23 747.75   Q 443.60 753.35 445.12 760.09   C 447.15 769.11 452.43 775.04 461.81 774.27   C 468.39 773.73 475.45 767.81 480.64 764.03   Q 483.42 762.01 486.91 763.75   Q 495.60 768.07 496.94 768.56   C 504.98 771.55 515.88 772.54 520.20 763.02   C 525.20 752.00 520.20 738.42 512.56 729.89   Q 510.75 727.88 507.12 729.36   Q 480.98 740.09 448.54 746.41"/>
<path stroke="#eea16b" d="M 445.21 746.78   Q 447.37 747.74 448.54 746.41"/>
<path stroke="#916861" d="M 294.59 762.12   L 309.00 771.81"/>
<path stroke="#967281" d="M 309.00 771.81   Q 313.51 773.98 318.04 774.03   C 331.62 774.17 333.93 758.42 332.94 748.35   A 1.13 1.13 0.0 0 0 332.01 747.34   Q 299.77 741.43 268.15 728.82   A 1.41 1.40 30.7 0 0 266.55 729.22   C 261.56 735.16 255.54 745.03 255.36 752.71   C 255.19 760.25 258.46 768.59 266.59 770.21   Q 273.56 771.59 280.79 768.18   Q 286.79 765.35 294.59 762.12"/>
<path stroke="#eea16b" d="M 309.00 771.81   Q 314.35 771.05 317.58 770.89   C 328.35 770.35 329.64 759.30 330.09 750.70   A 0.84 0.84 0.0 0 0 329.54 749.87   Q 325.22 748.29 323.56 747.88   C 309.21 744.37 291.53 740.43 276.15 734.69   Q 272.16 733.20 269.04 732.41   A 1.35 1.35 0.0 0 0 267.59 732.94   Q 261.70 741.35 259.61 751.20   C 258.50 756.43 259.82 764.29 265.62 766.62   C 272.68 769.46 278.90 766.87 285.93 764.09   A 21.95 21.52 -60.2 0 1 290.10 762.91   L 294.59 762.12"/>
<path stroke="#54559d" d="M 412.11 333.17   Q 396.00 328.46 381.75 329.50   Q 373.59 330.10 363.74 333.23"/>
<path stroke="#b18ea7" d="M 363.74 333.23   Q 363.24 332.25 363.42 331.50   C 367.81 313.52 368.91 294.31 365.07 276.01   Q 360.29 253.21 348.81 233.71   Q 343.09 224.00 336.43 216.99   C 333.39 213.79 330.14 209.31 326.57 206.53   C 324.94 205.26 323.89 203.87 322.32 202.71   A 3.31 3.23 -89.3 0 1 321.57 201.92   Q 320.86 200.90 318.98 200.05   A 4.52 4.38 -13.9 0 1 318.19 199.59   Q 303.76 188.82 285.13 181.37   Q 258.71 170.80 231.06 173.60   Q 199.56 176.79 172.81 193.84   Q 161.68 200.94 154.11 208.37   Q 124.09 237.88 115.07 279.13   C 112.78 289.62 112.68 299.39 112.91 310.80   C 113.08 319.61 115.02 330.01 116.98 337.26   Q 125.01 366.93 148.58 391.89   Q 164.22 408.46 185.63 418.08   Q 205.85 427.17 225.69 428.96   Q 244.99 430.71 262.74 427.86   C 286.61 424.04 308.60 412.72 326.94 396.69   Q 329.97 394.04 331.37 392.33"/>
<path stroke="#54559d" d="M 331.37 392.33   Q 332.93 398.56 337.20 406.06   Q 343.92 417.86 352.23 426.51   C 359.24 433.82 362.90 437.95 370.02 443.33   Q 386.13 455.53 403.22 444.42   Q 403.90 443.98 406.61 442.16   Q 408.22 441.07 409.81 439.66   Q 423.21 427.72 433.22 413.69   Q 440.37 403.66 443.77 392.33"/>
<path stroke="#b18ea7" d="M 443.77 392.33   Q 457.00 405.99 474.79 414.95   Q 487.43 421.31 494.57 423.65   Q 502.21 426.14 510.10 427.32   Q 549.95 433.27 586.44 417.46   Q 601.75 410.82 614.46 400.45   C 631.30 386.71 644.50 370.47 652.16 350.43   C 661.18 326.83 663.90 300.61 658.18 276.05   C 653.86 257.50 645.97 238.55 634.10 223.07   Q 621.01 205.98 605.40 195.39   Q 582.53 179.87 554.65 174.67   Q 529.36 169.97 503.23 176.75   Q 462.68 187.28 436.23 219.68   Q 414.64 246.12 409.45 277.50   Q 405.13 303.70 412.11 333.17"/>
<path stroke="#967281" d="M 443.77 392.33   Q 446.94 381.18 447.20 374.75   Q 447.26 373.25 446.93 367.38"/>
<path stroke="#f9d5c5" d="M 446.93 367.38   Q 450.34 370.54 453.42 373.68   Q 457.94 378.29 459.92 379.97   Q 469.42 388.05 481.93 392.82   Q 494.95 397.78 497.74 398.52   Q 511.24 402.11 526.78 400.50   Q 543.37 398.77 558.62 392.87   C 579.09 384.94 594.53 369.95 605.21 350.90   Q 617.89 328.29 618.28 302.70   Q 618.61 281.24 610.63 262.35   C 599.74 236.56 578.75 216.99 552.19 206.95   Q 541.26 202.83 531.98 202.00   Q 521.38 201.06 511.08 201.55   Q 502.04 201.98 491.14 205.70   Q 478.31 210.10 472.33 213.58   C 459.53 221.05 446.51 231.57 438.59 243.55   Q 430.92 255.15 427.50 266.01   Q 416.07 302.33 428.15 338.83   Q 428.67 340.42 427.73 341.82"/>
<path stroke="#967281" d="M 427.73 341.82   L 412.11 333.17"/>
<path stroke="#9c9cbb" d="M 446.93 367.38   Q 444.33 357.72 437.53 350.47   Q 433.70 346.38 427.73 341.82"/>
<path stroke="#9c9cbb" d="M 345.50 343.62   Q 343.02 346.44 339.86 349.31   C 336.15 352.70 334.05 355.33 332.24 359.52   Q 330.83 362.82 329.66 365.49"/>
<path stroke="#967281" d="M 363.74 333.23   L 345.50 343.62"/>
<path stroke="#f9d5c5" d="M 345.50 343.62   Q 346.55 338.55 348.23 333.78   Q 350.79 326.51 351.30 324.07   Q 356.41 299.57 349.50 275.27   Q 344.76 258.63 337.66 247.35   C 327.32 230.90 309.70 215.37 290.57 208.47   C 281.41 205.17 273.66 202.63 264.19 201.63   Q 238.53 198.91 215.47 209.65   C 185.30 223.69 165.18 247.86 158.12 280.61   Q 156.67 287.32 156.35 293.75   Q 153.85 342.86 188.97 375.87   Q 200.87 387.05 215.41 392.64   Q 225.81 396.64 239.60 399.54   C 248.14 401.33 257.21 401.11 266.54 400.38   Q 273.25 399.85 279.76 397.75   Q 289.29 394.69 292.54 393.30   Q 313.47 384.34 329.66 365.49"/>
<path stroke="#967281" d="M 329.66 365.49   C 327.65 374.97 329.09 382.76 331.37 392.33"/>
<path stroke="#b9a094" d="M 281.8249 244.8676   A 60.89 60.68 -80.6 0 0 212.0148 295.0294   A 60.89 60.68 -80.6 0 0 261.9351 365.0124   A 60.89 60.68 -80.6 0 0 331.7452 314.8506   A 60.89 60.68 -80.6 0 0 281.8249 244.8676"/>
<path stroke="#b9a094" d="M 506.8118 244.0038   A 60.97 60.85 -85.2 0 0 441.0734 299.6682   A 60.97 60.85 -85.2 0 0 496.6082 365.5162   A 60.97 60.85 -85.2 0 0 562.3466 309.8518   A 60.97 60.85 -85.2 0 0 506.8118 244.0038"/>
<path stroke="#b9a094" d="M 278.9341 277.7801   A 17.20 16.80 -167.1 0 0 291.9494 297.9960   A 17.20 16.80 -167.1 0 0 312.4659 285.4599   A 17.20 16.80 -167.1 0 0 299.4506 265.2440   A 17.20 16.80 -167.1 0 0 278.9341 277.7801"/>
<path stroke="#b9a094" d="M 494.70 281.51   A 16.96 16.96 0.0 0 0 477.74 264.55   A 16.96 16.96 0.0 0 0 460.78 281.51   A 16.96 16.96 0.0 0 0 477.74 298.47   A 16.96 16.96 0.0 0 0 494.70 281.51"/>
<path stroke="#967281" d="M 387.71 427.25   Q 390.33 426.44 392.23 425.24   C 407.20 415.73 417.62 400.91 423.95 384.73   C 426.58 378.01 427.05 371.84 422.32 365.93   Q 416.45 358.58 406.74 354.99   C 388.94 348.40 368.64 350.70 354.16 363.70   C 349.46 367.92 348.10 372.17 349.75 378.27   C 354.73 396.68 366.67 416.18 383.53 425.97   Q 384.96 426.79 386.73 427.27   A 1.80 1.77 -45.6 0 0 387.71 427.25"/>
<path stroke="#eea16b" d="M 378.95 419.57   C 384.38 424.90 390.43 424.71 395.81 419.48   Q 405.07 410.49 412.94 399.45   C 416.27 394.77 418.23 390.37 420.66 384.63   C 424.42 375.77 423.28 369.21 415.45 363.27   C 401.33 352.56 381.76 351.08 365.93 359.66   C 358.60 363.64 350.55 368.22 352.40 376.58   Q 356.76 396.24 370.58 411.21   Q 372.18 412.95 378.95 419.57"/>
</g>

<path xmlns="http://www.w3.org/2000/svg" fill="#393977" d="M 356.08 750.66   A 0.37 0.36 3.5 0 0 355.67 751.02   Q 355.63 760.41 352.53 770.28   C 346.22 790.37 327.33 799.63 306.96 794.82   Q 300.86 793.38 293.63 789.88   Q 291.75 788.97 290.20 789.16   A 3.08 2.81 27.7 0 0 289.40 789.37   C 279.66 793.37 270.55 795.72 260.13 792.12   Q 244.89 786.87 238.06 772.99   C 229.18 754.96 234.41 734.91 245.61 719.20   A 0.45 0.45 0.0 0 0 245.44 718.54   Q 235.47 713.75 226.55 708.44   C 212.92 700.31 201.05 692.73 189.97 683.48   Q 179.42 674.68 169.41 664.83   A 9.99 9.96 75.6 0 0 165.29 662.39   C 126.52 650.74 88.02 627.86 62.75 595.50   Q 49.41 578.42 40.01 561.53   Q 17.52 521.13 14.87 475.48   C 12.73 438.69 25.15 400.80 47.43 372.09   C 51.04 367.44 56.51 361.61 59.81 357.80   A 5.65 5.64 -19.4 0 0 61.08 355.16   Q 61.62 352.32 62.08 347.96   Q 66.76 303.74 78.62 265.12   Q 82.35 252.98 90.45 233.01   Q 96.66 217.68 105.30 202.20   C 117.38 180.57 129.47 161.73 144.53 144.53   Q 151.37 136.72 160.89 126.89   C 193.29 93.45 233.80 66.13 277.72 49.32   Q 333.86 27.83 394.80 29.07   C 404.01 29.26 412.79 30.34 422.13 31.10   Q 426.60 31.46 432.95 32.47   Q 484.24 40.59 528.76 63.72   C 547.94 73.69 566.42 85.20 583.74 99.25   C 609.84 120.43 634.34 146.24 652.94 175.07   Q 662.44 189.79 666.34 196.67   C 685.34 230.18 698.24 266.39 705.82 303.74   Q 711.96 334.02 712.85 355.09   Q 712.91 356.55 716.01 359.97   Q 719.61 363.94 727.64 373.53   C 751.24 401.70 760.56 443.13 758.35 479.18   Q 757.16 498.62 750.38 522.15   C 745.35 539.62 737.86 555.13 728.79 570.06   Q 687.39 638.27 609.11 662.60   Q 606.70 663.34 605.18 664.93   Q 586.52 684.43 565.33 698.32   Q 548.75 709.19 532.83 717.76   A 0.84 0.84 0.0 0 0 532.56 719.00   Q 543.22 733.20 543.84 750.72   C 544.49 769.37 534.69 786.21 516.74 792.19   C 508.99 794.77 501.41 794.62 493.74 791.98   Q 488.11 790.04 486.65 789.57   A 3.03 3.03 0.0 0 0 484.46 789.70   Q 480.80 791.38 478.76 792.24   C 468.43 796.59 456.52 797.61 446.16 793.78   C 428.31 787.18 422.09 768.43 422.27 750.86   A 0.43 0.42 -3.1 0 0 421.80 750.44   C 400.49 752.79 377.59 753.52 356.08 750.66   Z   M 198.59 660.17   Q 216.47 674.98 223.50 679.26   Q 231.74 684.29 239.27 688.97   Q 247.74 694.23 254.89 697.53   Q 269.23 704.16 272.49 705.48   C 301.32 717.21 331.39 726.38 362.73 728.44   Q 393.43 730.46 419.49 727.71   Q 460.98 723.33 505.36 704.83   Q 525.38 696.49 530.44 693.24   Q 531.42 692.61 551.31 680.07   Q 559.76 674.74 577.74 660.05   Q 590.79 648.18 598.94 638.95   Q 612.13 623.98 628.23 601.25   Q 633.67 593.58 642.99 576.93   Q 647.60 568.68 652.18 558.46   Q 659.82 541.39 660.58 539.62   Q 666.60 525.61 673.91 501.95   Q 679.15 484.98 680.89 475.11   Q 687.74 436.35 690.25 396.99   Q 691.09 383.79 690.55 374.75   C 690.16 368.07 690.09 360.88 689.31 354.42   C 688.24 345.52 687.09 333.08 685.07 322.27   Q 684.96 321.68 682.61 307.39   Q 681.86 302.81 679.04 291.29   Q 676.89 282.45 674.48 275.45   Q 663.71 244.08 653.69 223.52   Q 636.36 187.96 607.42 153.82   Q 603.07 148.70 594.71 140.29   Q 583.65 129.16 580.30 126.42   Q 569.62 117.70 566.53 115.12   C 561.13 110.61 553.57 105.31 547.80 101.45   Q 520.78 83.38 490.43 71.59   Q 426.91 46.93 359.60 52.96   Q 339.74 54.74 318.69 60.15   C 300.75 64.76 284.21 70.44 268.18 77.92   Q 260.40 81.55 257.28 83.04   Q 241.83 90.45 225.65 101.64   Q 194.23 123.35 168.77 151.48   C 162.68 158.20 157.62 164.89 151.80 172.53   Q 133.71 196.29 120.74 223.21   Q 104.60 256.70 95.66 289.85   C 91.65 304.71 89.47 318.50 86.88 335.51   C 81.86 368.59 83.60 403.11 87.67 437.43   Q 90.38 460.29 95.22 479.82   Q 102.64 509.70 113.02 536.90   C 114.22 540.03 116.24 543.91 117.65 547.59   Q 118.54 549.91 121.37 555.51   Q 127.79 568.18 136.25 583.42   Q 143.87 597.14 152.35 608.43   Q 168.38 629.75 184.94 647.33   Q 188.63 651.25 198.59 660.17   Z   M 137.90 627.06   C 134.76 622.44 130.77 617.28 127.43 612.00   Q 124.06 606.67 120.96 602.37   Q 117.90 598.14 114.74 592.60   Q 108.87 582.29 106.80 578.25   Q 99.16 563.24 86.89 532.14   Q 81.91 519.51 78.62 507.45   Q 67.66 467.23 63.28 425.22   C 62.10 413.95 61.67 402.90 62.04 392.30   A 0.46 0.46 0.0 0 0 61.35 391.88   C 60.44 392.40 60.01 393.68 59.58 394.35   Q 50.57 408.63 47.31 416.28   Q 42.50 427.55 40.20 441.66   Q 38.98 449.12 38.95 449.32   Q 36.34 464.49 38.22 482.76   Q 43.00 529.28 70.29 567.83   Q 74.89 574.32 81.34 582.52   Q 85.12 587.32 95.38 597.69   C 99.47 601.82 104.38 605.15 109.28 609.41   Q 114.15 613.65 120.07 617.68   Q 129.77 624.29 137.13 627.95   A 0.61 0.61 0.0 0 0 137.90 627.06   Z   M 713.09 394.13   C 713.26 400.11 713.61 404.48 713.16 410.62   Q 712.30 422.33 709.46 441.77   Q 704.88 473.21 697.61 501.82   C 692.02 523.85 684.07 544.45 674.82 564.61   Q 662.71 591.02 646.54 614.57   Q 642.00 621.18 637.92 626.23   A 0.71 0.70 -18.0 0 0 637.78 626.50   L 637.52 627.34   A 0.61 0.60 -7.3 0 0 638.42 628.03   Q 659.61 615.00 677.37 598.85   C 689.23 588.06 699.48 574.77 708.41 560.94   C 723.68 537.27 732.71 510.45 735.70 482.49   C 737.14 468.99 735.80 455.71 733.84 441.94   Q 731.61 426.27 724.77 412.69   Q 719.70 402.62 714.38 393.76   A 0.70 0.69 28.8 0 0 713.09 394.13   Z   M 448.54 746.41   L 445.21 746.78   Q 444.30 747.06 444.23 747.75   Q 443.60 753.35 445.12 760.09   C 447.15 769.11 452.43 775.04 461.81 774.27   C 468.39 773.73 475.45 767.81 480.64 764.03   Q 483.42 762.01 486.91 763.75   Q 495.60 768.07 496.94 768.56   C 504.98 771.55 515.88 772.54 520.20 763.02   C 525.20 752.00 520.20 738.42 512.56 729.89   Q 510.75 727.88 507.12 729.36   Q 480.98 740.09 448.54 746.41   Z   M 294.59 762.12   L 309.00 771.81   Q 313.51 773.98 318.04 774.03   C 331.62 774.17 333.93 758.42 332.94 748.35   A 1.13 1.13 0.0 0 0 332.01 747.34   Q 299.77 741.43 268.15 728.82   A 1.41 1.40 30.7 0 0 266.55 729.22   C 261.56 735.16 255.54 745.03 255.36 752.71   C 255.19 760.25 258.46 768.59 266.59 770.21   Q 273.56 771.59 280.79 768.18   Q 286.79 765.35 294.59 762.12   Z"/>
<path xmlns="http://www.w3.org/2000/svg" fill="#6f70c2" d="M 577.74 660.05   Q 574.67 647.85 572.08 635.64   C 570.94 630.30 569.29 624.87 567.35 620.68   Q 563.69 612.83 560.24 604.30   Q 558.86 600.88 550.14 585.04   C 547.23 579.75 543.55 575.65 540.31 570.83   C 532.20 558.80 522.22 547.82 511.28 538.48   Q 501.86 530.43 496.52 526.49   Q 477.37 512.37 453.18 503.31   Q 409.98 487.13 365.61 492.68   Q 349.97 494.63 340.68 497.17   Q 286.23 512.06 250.02 552.29   Q 221.99 583.43 207.08 622.09   Q 199.79 640.98 198.59 660.17   Q 188.63 651.25 184.94 647.33   Q 168.38 629.75 152.35 608.43   Q 143.87 597.14 136.25 583.42   Q 127.79 568.18 121.37 555.51   Q 118.54 549.91 117.65 547.59   C 116.24 543.91 114.22 540.03 113.02 536.90   Q 102.64 509.70 95.22 479.82   Q 90.38 460.29 87.67 437.43   C 83.60 403.11 81.86 368.59 86.88 335.51   C 89.47 318.50 91.65 304.71 95.66 289.85   Q 104.60 256.70 120.74 223.21   Q 133.71 196.29 151.80 172.53   C 157.62 164.89 162.68 158.20 168.77 151.48   Q 194.23 123.35 225.65 101.64   Q 241.83 90.45 257.28 83.04   Q 260.40 81.55 268.18 77.92   C 284.21 70.44 300.75 64.76 318.69 60.15   Q 339.74 54.74 359.60 52.96   Q 426.91 46.93 490.43 71.59   Q 520.78 83.38 547.80 101.45   C 553.57 105.31 561.13 110.61 566.53 115.12   Q 569.62 117.70 580.30 126.42   Q 583.65 129.16 594.71 140.29   Q 603.07 148.70 607.42 153.82   Q 636.36 187.96 653.69 223.52   Q 663.71 244.08 674.48 275.45   Q 676.89 282.45 679.04 291.29   Q 681.86 302.81 682.61 307.39   Q 684.96 321.68 685.07 322.27   C 687.09 333.08 688.24 345.52 689.31 354.42   C 690.09 360.88 690.16 368.07 690.55 374.75   Q 691.09 383.79 690.25 396.99   Q 687.74 436.35 680.89 475.11   Q 679.15 484.98 673.91 501.95   Q 666.60 525.61 660.58 539.62   Q 659.82 541.39 652.18 558.46   Q 647.60 568.68 642.99 576.93   Q 633.67 593.58 628.23 601.25   Q 612.13 623.98 598.94 638.95   Q 590.79 648.18 577.74 660.05   Z   M 412.11 333.17   Q 396.00 328.46 381.75 329.50   Q 373.59 330.10 363.74 333.23   Q 363.24 332.25 363.42 331.50   C 367.81 313.52 368.91 294.31 365.07 276.01   Q 360.29 253.21 348.81 233.71   Q 343.09 224.00 336.43 216.99   C 333.39 213.79 330.14 209.31 326.57 206.53   C 324.94 205.26 323.89 203.87 322.32 202.71   A 3.31 3.23 -89.3 0 1 321.57 201.92   Q 320.86 200.90 318.98 200.05   A 4.52 4.38 -13.9 0 1 318.19 199.59   Q 303.76 188.82 285.13 181.37   Q 258.71 170.80 231.06 173.60   Q 199.56 176.79 172.81 193.84   Q 161.68 200.94 154.11 208.37   Q 124.09 237.88 115.07 279.13   C 112.78 289.62 112.68 299.39 112.91 310.80   C 113.08 319.61 115.02 330.01 116.98 337.26   Q 125.01 366.93 148.58 391.89   Q 164.22 408.46 185.63 418.08   Q 205.85 427.17 225.69 428.96   Q 244.99 430.71 262.74 427.86   C 286.61 424.04 308.60 412.72 326.94 396.69   Q 329.97 394.04 331.37 392.33   Q 332.93 398.56 337.20 406.06   Q 343.92 417.86 352.23 426.51   C 359.24 433.82 362.90 437.95 370.02 443.33   Q 386.13 455.53 403.22 444.42   Q 403.90 443.98 406.61 442.16   Q 408.22 441.07 409.81 439.66   Q 423.21 427.72 433.22 413.69   Q 440.37 403.66 443.77 392.33   Q 457.00 405.99 474.79 414.95   Q 487.43 421.31 494.57 423.65   Q 502.21 426.14 510.10 427.32   Q 549.95 433.27 586.44 417.46   Q 601.75 410.82 614.46 400.45   C 631.30 386.71 644.50 370.47 652.16 350.43   C 661.18 326.83 663.90 300.61 658.18 276.05   C 653.86 257.50 645.97 238.55 634.10 223.07   Q 621.01 205.98 605.40 195.39   Q 582.53 179.87 554.65 174.67   Q 529.36 169.97 503.23 176.75   Q 462.68 187.28 436.23 219.68   Q 414.64 246.12 409.45 277.50   Q 405.13 303.70 412.11 333.17   Z"/>
<path xmlns="http://www.w3.org/2000/svg" fill="#f3ab8b" d="M 443.77 392.33   Q 446.94 381.18 447.20 374.75   Q 447.26 373.25 446.93 367.38   Q 450.34 370.54 453.42 373.68   Q 457.94 378.29 459.92 379.97   Q 469.42 388.05 481.93 392.82   Q 494.95 397.78 497.74 398.52   Q 511.24 402.11 526.78 400.50   Q 543.37 398.77 558.62 392.87   C 579.09 384.94 594.53 369.95 605.21 350.90   Q 617.89 328.29 618.28 302.70   Q 618.61 281.24 610.63 262.35   C 599.74 236.56 578.75 216.99 552.19 206.95   Q 541.26 202.83 531.98 202.00   Q 521.38 201.06 511.08 201.55   Q 502.04 201.98 491.14 205.70   Q 478.31 210.10 472.33 213.58   C 459.53 221.05 446.51 231.57 438.59 243.55   Q 430.92 255.15 427.50 266.01   Q 416.07 302.33 428.15 338.83   Q 428.67 340.42 427.73 341.82   L 412.11 333.17   Q 405.13 303.70 409.45 277.50   Q 414.64 246.12 436.23 219.68   Q 462.68 187.28 503.23 176.75   Q 529.36 169.97 554.65 174.67   Q 582.53 179.87 605.40 195.39   Q 621.01 205.98 634.10 223.07   C 645.97 238.55 653.86 257.50 658.18 276.05   C 663.90 300.61 661.18 326.83 652.16 350.43   C 644.50 370.47 631.30 386.71 614.46 400.45   Q 601.75 410.82 586.44 417.46   Q 549.95 433.27 510.10 427.32   Q 502.21 426.14 494.57 423.65   Q 487.43 421.31 474.79 414.95   Q 457.00 405.99 443.77 392.33   Z"/>
<path xmlns="http://www.w3.org/2000/svg" fill="#f3ab8b" d="M 363.74 333.23   L 345.50 343.62   Q 346.55 338.55 348.23 333.78   Q 350.79 326.51 351.30 324.07   Q 356.41 299.57 349.50 275.27   Q 344.76 258.63 337.66 247.35   C 327.32 230.90 309.70 215.37 290.57 208.47   C 281.41 205.17 273.66 202.63 264.19 201.63   Q 238.53 198.91 215.47 209.65   C 185.30 223.69 165.18 247.86 158.12 280.61   Q 156.67 287.32 156.35 293.75   Q 153.85 342.86 188.97 375.87   Q 200.87 387.05 215.41 392.64   Q 225.81 396.64 239.60 399.54   C 248.14 401.33 257.21 401.11 266.54 400.38   Q 273.25 399.85 279.76 397.75   Q 289.29 394.69 292.54 393.30   Q 313.47 384.34 329.66 365.49   C 327.65 374.97 329.09 382.76 331.37 392.33   Q 329.97 394.04 326.94 396.69   C 308.60 412.72 286.61 424.04 262.74 427.86   Q 244.99 430.71 225.69 428.96   Q 205.85 427.17 185.63 418.08   Q 164.22 408.46 148.58 391.89   Q 125.01 366.93 116.98 337.26   C 115.02 330.01 113.08 319.61 112.91 310.80   C 112.68 299.39 112.78 289.62 115.07 279.13   Q 124.09 237.88 154.11 208.37   Q 161.68 200.94 172.81 193.84   Q 199.56 176.79 231.06 173.60   Q 258.71 170.80 285.13 181.37   Q 303.76 188.82 318.19 199.59   A 4.52 4.38 -13.9 0 0 318.98 200.05   Q 320.86 200.90 321.57 201.92   A 3.31 3.23 -89.3 0 0 322.32 202.71   C 323.89 203.87 324.94 205.26 326.57 206.53   C 330.14 209.31 333.39 213.79 336.43 216.99   Q 343.09 224.00 348.81 233.71   Q 360.29 253.21 365.07 276.01   C 368.91 294.31 367.81 313.52 363.42 331.50   Q 363.24 332.25 363.74 333.23   Z"/>
<path xmlns="http://www.w3.org/2000/svg" fill="#ffffff" d="M 345.50 343.62   Q 343.02 346.44 339.86 349.31   C 336.15 352.70 334.05 355.33 332.24 359.52   Q 330.83 362.82 329.66 365.49   Q 313.47 384.34 292.54 393.30   Q 289.29 394.69 279.76 397.75   Q 273.25 399.85 266.54 400.38   C 257.21 401.11 248.14 401.33 239.60 399.54   Q 225.81 396.64 215.41 392.64   Q 200.87 387.05 188.97 375.87   Q 153.85 342.86 156.35 293.75   Q 156.67 287.32 158.12 280.61   C 165.18 247.86 185.30 223.69 215.47 209.65   Q 238.53 198.91 264.19 201.63   C 273.66 202.63 281.41 205.17 290.57 208.47   C 309.70 215.37 327.32 230.90 337.66 247.35   Q 344.76 258.63 349.50 275.27   Q 356.41 299.57 351.30 324.07   Q 350.79 326.51 348.23 333.78   Q 346.55 338.55 345.50 343.62   Z   M 281.8249 244.8676   A 60.89 60.68 -80.6 0 0 212.0148 295.0294   A 60.89 60.68 -80.6 0 0 261.9351 365.0124   A 60.89 60.68 -80.6 0 0 331.7452 314.8506   A 60.89 60.68 -80.6 0 0 281.8249 244.8676   Z"/>
<path xmlns="http://www.w3.org/2000/svg" fill="#ffffff" d="M 446.93 367.38   Q 444.33 357.72 437.53 350.47   Q 433.70 346.38 427.73 341.82   Q 428.67 340.42 428.15 338.83   Q 416.07 302.33 427.50 266.01   Q 430.92 255.15 438.59 243.55   C 446.51 231.57 459.53 221.05 472.33 213.58   Q 478.31 210.10 491.14 205.70   Q 502.04 201.98 511.08 201.55   Q 521.38 201.06 531.98 202.00   Q 541.26 202.83 552.19 206.95   C 578.75 216.99 599.74 236.56 610.63 262.35   Q 618.61 281.24 618.28 302.70   Q 617.89 328.29 605.21 350.90   C 594.53 369.95 579.09 384.94 558.62 392.87   Q 543.37 398.77 526.78 400.50   Q 511.24 402.11 497.74 398.52   Q 494.95 397.78 481.93 392.82   Q 469.42 388.05 459.92 379.97   Q 457.94 378.29 453.42 373.68   Q 450.34 370.54 446.93 367.38   Z   M 506.8118 244.0038   A 60.97 60.85 -85.2 0 0 441.0734 299.6682   A 60.97 60.85 -85.2 0 0 496.6082 365.5162   A 60.97 60.85 -85.2 0 0 562.3466 309.8518   A 60.97 60.85 -85.2 0 0 506.8118 244.0038   Z"/>
<path xmlns="http://www.w3.org/2000/svg" fill="#724129" d="M 281.8249 244.8676   A 60.89 60.68 -80.6 0 1 331.7452 314.8506   A 60.89 60.68 -80.6 0 1 261.9351 365.0124   A 60.89 60.68 -80.6 0 1 212.0148 295.0294   A 60.89 60.68 -80.6 0 1 281.8249 244.8676   Z   M 278.9341 277.7801   A 17.20 16.80 -167.1 0 0 291.9494 297.9960   A 17.20 16.80 -167.1 0 0 312.4659 285.4599   A 17.20 16.80 -167.1 0 0 299.4506 265.2440   A 17.20 16.80 -167.1 0 0 278.9341 277.7801   Z"/>
<path xmlns="http://www.w3.org/2000/svg" fill="#724129" d="M 506.8118 244.0038   A 60.97 60.85 -85.2 0 1 562.3466 309.8518   A 60.97 60.85 -85.2 0 1 496.6082 365.5162   A 60.97 60.85 -85.2 0 1 441.0734 299.6682   A 60.97 60.85 -85.2 0 1 506.8118 244.0038   Z   M 494.70 281.51   A 16.96 16.96 0.0 0 0 477.74 264.55   A 16.96 16.96 0.0 0 0 460.78 281.51   A 16.96 16.96 0.0 0 0 477.74 298.47   A 16.96 16.96 0.0 0 0 494.70 281.51   Z"/>
<ellipse xmlns="http://www.w3.org/2000/svg" fill="#ffffff" cx="0.00" cy="0.00" transform="translate(295.70,281.62) rotate(-167.1)" rx="17.20" ry="16.80"/>
<circle xmlns="http://www.w3.org/2000/svg" fill="#ffffff" cx="477.74" cy="281.51" r="16.96"/>
<path xmlns="http://www.w3.org/2000/svg" fill="#393977" d="M 412.11 333.17   L 427.73 341.82   Q 433.70 346.38 437.53 350.47   Q 444.33 357.72 446.93 367.38   Q 447.26 373.25 447.20 374.75   Q 446.94 381.18 443.77 392.33   Q 440.37 403.66 433.22 413.69   Q 423.21 427.72 409.81 439.66   Q 408.22 441.07 406.61 442.16   Q 403.90 443.98 403.22 444.42   Q 386.13 455.53 370.02 443.33   C 362.90 437.95 359.24 433.82 352.23 426.51   Q 343.92 417.86 337.20 406.06   Q 332.93 398.56 331.37 392.33   C 329.09 382.76 327.65 374.97 329.66 365.49   Q 330.83 362.82 332.24 359.52   C 334.05 355.33 336.15 352.70 339.86 349.31   Q 343.02 346.44 345.50 343.62   L 363.74 333.23   Q 373.59 330.10 381.75 329.50   Q 396.00 328.46 412.11 333.17   Z   M 387.71 427.25   Q 390.33 426.44 392.23 425.24   C 407.20 415.73 417.62 400.91 423.95 384.73   C 426.58 378.01 427.05 371.84 422.32 365.93   Q 416.45 358.58 406.74 354.99   C 388.94 348.40 368.64 350.70 354.16 363.70   C 349.46 367.92 348.10 372.17 349.75 378.27   C 354.73 396.68 366.67 416.18 383.53 425.97   Q 384.96 426.79 386.73 427.27   A 1.80 1.77 -45.6 0 0 387.71 427.25   Z"/>
<path xmlns="http://www.w3.org/2000/svg" fill="#f3ab8b" d="M 386.73 427.27   Q 384.96 426.79 383.53 425.97   C 366.67 416.18 354.73 396.68 349.75 378.27   C 348.10 372.17 349.46 367.92 354.16 363.70   C 368.64 350.70 388.94 348.40 406.74 354.99   Q 416.45 358.58 422.32 365.93   C 427.05 371.84 426.58 378.01 423.95 384.73   C 417.62 400.91 407.20 415.73 392.23 425.24   Q 390.33 426.44 387.71 427.25   A 1.80 1.77 -45.6 0 1 386.73 427.27   Z   M 378.95 419.57   C 384.38 424.90 390.43 424.71 395.81 419.48   Q 405.07 410.49 412.94 399.45   C 416.27 394.77 418.23 390.37 420.66 384.63   C 424.42 375.77 423.28 369.21 415.45 363.27   C 401.33 352.56 381.76 351.08 365.93 359.66   C 358.60 363.64 350.55 368.22 352.40 376.58   Q 356.76 396.24 370.58 411.21   Q 372.18 412.95 378.95 419.57   Z"/>
<path xmlns="http://www.w3.org/2000/svg" fill="#e8974a" d="M 395.81 419.48   C 390.43 424.71 384.38 424.90 378.95 419.57   Q 372.18 412.95 370.58 411.21   Q 356.76 396.24 352.40 376.58   C 350.55 368.22 358.60 363.64 365.93 359.66   C 381.76 351.08 401.33 352.56 415.45 363.27   C 423.28 369.21 424.42 375.77 420.66 384.63   C 418.23 390.37 416.27 394.77 412.94 399.45   Q 405.07 410.49 395.81 419.48   Z"/>
<path xmlns="http://www.w3.org/2000/svg" fill="#6f70c2" d="M 137.90 627.06   A 0.61 0.61 0.0 0 1 137.13 627.95   Q 129.77 624.29 120.07 617.68   Q 114.15 613.65 109.28 609.41   C 104.38 605.15 99.47 601.82 95.38 597.69   Q 85.12 587.32 81.34 582.52   Q 74.89 574.32 70.29 567.83   Q 43.00 529.28 38.22 482.76   Q 36.34 464.49 38.95 449.32   Q 38.98 449.12 40.20 441.66   Q 42.50 427.55 47.31 416.28   Q 50.57 408.63 59.58 394.35   C 60.01 393.68 60.44 392.40 61.35 391.88   A 0.46 0.46 0.0 0 1 62.04 392.30   C 61.67 402.90 62.10 413.95 63.28 425.22   Q 67.66 467.23 78.62 507.45   Q 81.91 519.51 86.89 532.14   Q 99.16 563.24 106.80 578.25   Q 108.87 582.29 114.74 592.60   Q 117.90 598.14 120.96 602.37   Q 124.06 606.67 127.43 612.00   C 130.77 617.28 134.76 622.44 137.90 627.06   Z"/>
<path xmlns="http://www.w3.org/2000/svg" fill="#6f70c2" d="M 713.09 394.13   A 0.70 0.69 28.8 0 1 714.38 393.76   Q 719.70 402.62 724.77 412.69   Q 731.61 426.27 733.84 441.94   C 735.80 455.71 737.14 468.99 735.70 482.49   C 732.71 510.45 723.68 537.27 708.41 560.94   C 699.48 574.77 689.23 588.06 677.37 598.85   Q 659.61 615.00 638.42 628.03   A 0.61 0.60 -7.3 0 1 637.52 627.34   L 637.78 626.50   A 0.71 0.70 -18.0 0 1 637.92 626.23   Q 642.00 621.18 646.54 614.57   Q 662.71 591.02 674.82 564.61   C 684.07 544.45 692.02 523.85 697.61 501.82   Q 704.88 473.21 709.46 441.77   Q 712.30 422.33 713.16 410.62   C 713.61 404.48 713.26 400.11 713.09 394.13   Z"/>
<path xmlns="http://www.w3.org/2000/svg" fill="#8283dc" d="M 577.74 660.05   Q 559.76 674.74 551.31 680.07   Q 531.42 692.61 530.44 693.24   Q 525.38 696.49 505.36 704.83   Q 460.98 723.33 419.49 727.71   Q 393.43 730.46 362.73 728.44   C 331.39 726.38 301.32 717.21 272.49 705.48   Q 269.23 704.16 254.89 697.53   Q 247.74 694.23 239.27 688.97   Q 231.74 684.29 223.50 679.26   Q 216.47 674.98 198.59 660.17   Q 199.79 640.98 207.08 622.09   Q 221.99 583.43 250.02 552.29   Q 286.23 512.06 340.68 497.17   Q 349.97 494.63 365.61 492.68   Q 409.98 487.13 453.18 503.31   Q 477.37 512.37 496.52 526.49   Q 501.86 530.43 511.28 538.48   C 522.22 547.82 532.20 558.80 540.31 570.83   C 543.55 575.65 547.23 579.75 550.14 585.04   Q 558.86 600.88 560.24 604.30   Q 563.69 612.83 567.35 620.68   C 569.29 624.87 570.94 630.30 572.08 635.64   Q 574.67 647.85 577.74 660.05   Z"/>
<path xmlns="http://www.w3.org/2000/svg" fill="#e8974a" d="M 445.21 746.78   Q 447.37 747.74 448.54 746.41   Q 480.98 740.09 507.12 729.36   Q 510.75 727.88 512.56 729.89   C 520.20 738.42 525.20 752.00 520.20 763.02   C 515.88 772.54 504.98 771.55 496.94 768.56   Q 495.60 768.07 486.91 763.75   Q 483.42 762.01 480.64 764.03   C 475.45 767.81 468.39 773.73 461.81 774.27   C 452.43 775.04 447.15 769.11 445.12 760.09   Q 443.60 753.35 444.23 747.75   Q 444.30 747.06 445.21 746.78   Z"/>
<path xmlns="http://www.w3.org/2000/svg" fill="#f3ab8b" d="M 309.00 771.81   Q 314.35 771.05 317.58 770.89   C 328.35 770.35 329.64 759.30 330.09 750.70   A 0.84 0.84 0.0 0 0 329.54 749.87   Q 325.22 748.29 323.56 747.88   C 309.21 744.37 291.53 740.43 276.15 734.69   Q 272.16 733.20 269.04 732.41   A 1.35 1.35 0.0 0 0 267.59 732.94   Q 261.70 741.35 259.61 751.20   C 258.50 756.43 259.82 764.29 265.62 766.62   C 272.68 769.46 278.90 766.87 285.93 764.09   A 21.95 21.52 -60.2 0 1 290.10 762.91   L 294.59 762.12   Q 286.79 765.35 280.79 768.18   Q 273.56 771.59 266.59 770.21   C 258.46 768.59 255.19 760.25 255.36 752.71   C 255.54 745.03 261.56 735.16 266.55 729.22   A 1.41 1.40 30.7 0 1 268.15 728.82   Q 299.77 741.43 332.01 747.34   A 1.13 1.13 0.0 0 1 332.94 748.35   C 333.93 758.42 331.62 774.17 318.04 774.03   Q 313.51 773.98 309.00 771.81   Z"/>
<path xmlns="http://www.w3.org/2000/svg" fill="#e8974a" d="M 309.00 771.81   L 294.59 762.12   L 290.10 762.91   A 21.95 21.52 -60.2 0 0 285.93 764.09   C 278.90 766.87 272.68 769.46 265.62 766.62   C 259.82 764.29 258.50 756.43 259.61 751.20   Q 261.70 741.35 267.59 732.94   A 1.35 1.35 0.0 0 1 269.04 732.41   Q 272.16 733.20 276.15 734.69   C 291.53 740.43 309.21 744.37 323.56 747.88   Q 325.22 748.29 329.54 749.87   A 0.84 0.84 0.0 0 1 330.09 750.70   C 329.64 759.30 328.35 770.35 317.58 770.89   Q 314.35 771.05 309.00 771.81   Z"/>
<path xmlns="http://www.w3.org/2000/svg" fill="#f3ab8b" d="M 448.54 746.41   Q 447.37 747.74 445.21 746.78   L 448.54 746.41   Z"/>
</g></g></g></g></svg>