<svg xmlns="http://www.w3.org/2000/svg" direction="ltr" width="2048" height="2048" viewBox="12830.325155653756 25762.238507655362 2048 2048" stroke-linecap="round" stroke-linejoin="round" data-color-mode="light" class="tl-container tl-theme__force-sRGB tl-theme__light" style="background-color: transparent;"><defs/><g transform="matrix(1, 0, 0, 1, 12830.3252, 25762.2385)" opacity="1"><g data-lovart-layer-name="SVG 1"><g transform="scale(1.4143646408839778, 1.4143646408839778)"><g>
<g xmlns="http://www.w3.org/2000/svg" stroke-width="2.00" fill="none" stroke-linecap="butt">
<path stroke="#9996b6" d="M 690.90 1079.05   A 0.31 0.30 87.8 0 1 691.23 1078.69   Q 727.02 1082.54 762.72 1078.64   A 0.42 0.41 -88.9 0 1 763.17 1079.11   C 761.61 1090.24 762.89 1101.45 768.42 1110.75   Q 775.13 1122.02 786.29 1127.88   Q 801.78 1136.00 820.10 1128.85   C 823.21 1127.63 826.36 1125.52 829.19 1123.54   A 2.85 2.85 0.0 0 1 832.00 1123.28   C 846.24 1129.75 864.77 1128.89 877.01 1118.46   Q 893.80 1104.16 892.76 1081.47   Q 891.81 1060.61 877.30 1045.88   A 0.95 0.95 0.0 0 1 877.54 1044.38   Q 879.53 1043.36 897.81 1032.64   C 902.72 1029.76 908.71 1026.00 912.12 1023.37   C 932.00 1008.01 944.09 998.77 958.26 983.98   A 6.53 6.52 -76.3 0 1 961.12 982.24   C 973.78 978.47 983.21 975.83 994.01 970.81   C 1019.39 959.02 1042.67 943.11 1062.57 922.10   Q 1079.63 904.09 1090.48 886.02   Q 1103.09 865.00 1109.90 846.42   Q 1120.22 818.23 1122.02 786.01   Q 1122.74 773.14 1120.24 752.11   Q 1119.37 744.84 1116.49 733.39   Q 1113.44 721.26 1111.30 714.94   C 1106.55 700.95 1099.62 688.31 1092.20 675.70   C 1085.82 664.84 1077.98 655.79 1069.16 646.52   A 3.95 3.94 21.2 0 1 1068.10 644.13   C 1066.96 629.61 1065.56 615.24 1062.43 600.74   Q 1056.82 574.74 1049.87 550.43   Q 1047.22 541.17 1043.17 531.55   Q 1031.33 503.47 1028.42 497.55   C 1025.33 491.28 1022.52 485.57 1019.03 479.83   Q 1007.08 460.18 1006.65 459.46   C 1000.11 448.67 994.93 442.14 986.32 431.23   Q 974.59 416.38 962.18 404.04   C 955.46 397.36 942.06 383.92 931.76 376.24   C 915.41 364.03 901.86 353.60 884.97 344.54   Q 869.15 336.06 853.78 328.98   C 838.21 321.81 822.70 317.09 805.83 312.46   Q 781.02 305.64 748.48 302.85   C 704.24 299.05 659.55 305.70 617.01 320.03   Q 608.19 323.00 601.15 326.17   Q 583.68 334.04 570.74 340.27   Q 562.27 344.34 553.17 350.41   C 537.05 361.15 522.64 370.54 509.19 382.42   C 492.40 397.25 475.48 413.56 461.76 431.51   C 457.00 437.74 447.97 448.61 441.95 458.21   Q 433.37 471.89 422.96 490.29   C 420.88 493.97 419.64 497.00 417.70 500.64   Q 415.80 504.19 414.05 508.52   Q 413.75 509.27 405.53 529.49   Q 395.79 553.46 390.08 579.03   Q 384.78 602.84 383.02 613.76   Q 380.73 628.04 379.72 644.37   A 5.50 5.48 69.8 0 1 378.06 647.98   Q 367.13 658.57 359.71 669.93   Q 355.25 676.75 349.12 687.83   C 337.51 708.80 330.42 731.89 327.42 755.58   C 323.82 784.04 327.33 815.10 336.82 842.14   Q 356.12 897.12 401.87 937.53   Q 408.48 943.37 416.64 948.86   C 435.58 961.58 454.49 972.42 476.12 978.61   Q 480.52 979.87 489.27 982.26   Q 492.25 983.08 493.73 984.55   Q 500.10 990.93 506.54 997.20   Q 509.97 1000.54 519.78 1008.30   C 528.67 1015.32 539.21 1023.29 548.16 1029.15   C 556.77 1034.78 566.76 1039.54 575.89 1044.80   A 1.14 1.14 0.0 0 1 576.16 1046.56   C 559.91 1064.15 555.64 1090.95 570.33 1110.89   Q 582.69 1127.67 604.49 1127.32   Q 613.84 1127.17 622.39 1123.09   A 2.08 2.07 -39.4 0 1 624.54 1123.30   C 638.34 1133.73 655.23 1135.11 670.16 1126.65   C 687.16 1117.02 694.16 1097.76 690.90 1079.05"/>
<path stroke="#956376" d="M 528.24 985.57   Q 542.07 998.51 558.24 1008.50   Q 572.18 1017.11 578.50 1020.75   Q 591.64 1028.31 609.30 1035.19   Q 624.10 1040.95 629.13 1042.63   C 647.81 1048.90 669.60 1053.14 688.76 1055.70   Q 695.55 1056.61 714.09 1057.56   C 747.54 1059.29 782.25 1054.59 813.78 1045.68   C 830.13 1041.06 847.20 1033.66 863.16 1026.28   Q 870.91 1022.71 876.28 1019.41   Q 878.74 1017.90 888.84 1011.57   Q 892.61 1009.22 892.80 1009.19   A 0.83 0.82 -83.7 0 0 893.48 1008.64   Q 893.72 1007.94 895.26 1007.03   Q 912.80 996.71 927.07 982.07"/>
<path stroke="#5c5db2" d="M 927.07 982.07   Q 930.25 979.92 931.26 979.01   Q 947.52 964.27 954.83 955.06   C 956.10 953.46 957.79 950.67 959.57 948.45   C 964.34 942.50 970.33 936.36 974.83 929.94   Q 980.16 922.35 983.64 917.39   A 2.42 2.28 -24.0 0 0 984.02 916.48   Q 984.16 915.67 984.33 915.48   Q 987.81 911.40 989.98 906.72   C 993.46 899.19 996.34 894.54 1003.14 882.12   Q 1008.33 872.64 1011.79 864.56   C 1035.91 808.18 1047.52 747.02 1047.39 684.78   Q 1047.35 662.24 1047.31 656.00   C 1047.28 651.30 1045.28 644.33 1044.78 638.98   Q 1042.93 619.35 1040.24 602.94   C 1039.51 598.50 1038.72 595.30 1037.67 590.39   Q 1036.67 585.71 1035.12 581.12   Q 1028.52 561.62 1024.45 546.54   C 1023.00 541.15 1020.90 536.36 1019.18 531.54   C 1015.50 521.25 1009.36 511.88 1004.85 501.92   Q 998.85 488.65 995.99 484.51   Q 991.53 478.06 974.55 452.81   Q 970.28 446.46 965.50 441.19   Q 958.88 433.90 946.56 419.74   C 943.09 415.73 938.49 411.23 934.53 407.96   Q 920.43 396.31 911.29 388.37   C 906.16 383.93 899.34 379.22 894.81 376.50   Q 887.24 371.97 860.76 356.70   C 858.13 355.18 855.07 353.92 850.89 351.99   Q 847.88 350.59 843.30 348.93   Q 829.71 343.99 816.28 339.00   Q 809.57 336.51 803.72 335.02   Q 782.86 329.72 763.93 327.12   Q 714.85 320.38 665.78 330.31   Q 645.51 334.42 632.17 339.35   C 624.70 342.11 622.19 342.79 614.26 345.32   C 605.60 348.08 598.15 351.42 590.62 355.63   Q 570.52 366.84 561.18 371.72   C 558.61 373.07 555.00 375.12 552.09 377.32   Q 531.14 393.15 521.15 401.66   Q 508.31 412.59 505.85 415.43   Q 495.35 427.57 484.34 439.21   Q 478.31 445.58 474.09 451.60   C 468.39 459.71 462.81 469.48 456.34 477.85   C 450.03 486.04 445.39 495.04 440.32 506.69   Q 434.82 519.33 429.23 529.83   Q 427.41 533.25 426.79 535.24   C 425.27 540.14 423.37 544.13 421.98 549.28   C 418.71 561.40 414.18 575.03 411.18 587.24   Q 405.21 611.53 403.15 636.00   C 402.40 644.97 400.87 654.39 400.67 662.76   Q 400.17 683.61 401.01 704.77   Q 402.25 736.27 408.66 767.31   Q 414.04 793.37 415.64 799.38   Q 423.41 828.64 435.85 858.41   C 441.56 872.08 447.75 884.08 455.62 896.85   Q 457.41 899.77 461.15 907.22   Q 463.76 912.46 467.18 917.33   Q 479.38 934.73 490.99 948.12   C 495.35 953.15 500.15 960.07 504.69 964.57   Q 513.03 972.83 528.24 985.57"/>
<path stroke="#be94bc" d="M 927.07 982.07   Q 926.70 971.86 925.51 962.05   Q 924.85 956.64 923.60 952.08   Q 922.35 947.53 921.20 942.18   Q 919.80 935.65 917.00 927.54   C 906.61 897.38 890.30 869.01 867.41 846.57   C 846.13 825.73 820.80 809.25 792.83 799.76   Q 767.41 791.14 742.67 789.38   Q 685.27 785.30 635.29 811.69   C 600.71 829.95 572.76 857.91 553.56 892.53   Q 531.65 932.03 528.64 975.03   Q 528.57 976.09 527.87 979.57   A 7.36 7.24 47.4 0 0 527.79 981.97   L 528.24 985.57"/>
<path stroke="#443fa7" d="M 455.22 937.82   L 444.78 922.89"/>
<path stroke="#4c4cac" d="M 444.78 922.89   Q 442.51 920.22 441.38 918.37   Q 432.79 904.28 426.42 890.23   A 1.17 0.19 36.0 0 0 425.84 889.64   Q 425.62 889.46 425.43 889.09   C 416.30 870.84 408.05 851.59 401.66 831.08   Q 394.97 809.64 389.89 787.96   C 387.29 776.89 386.18 768.61 384.21 758.08   Q 382.35 748.17 381.18 735.47   Q 378.84 709.93 377.97 684.09   A 0.38 0.38 0.0 0 0 377.26 683.92   Q 375.43 687.31 373.08 690.34   C 370.25 693.98 368.03 698.06 366.30 702.20   Q 360.06 717.09 354.24 734.32   Q 352.67 738.95 352.09 743.20   C 351.15 750.04 349.32 758.88 348.79 765.82   Q 346.66 794.07 354.54 821.50   Q 358.17 834.12 363.60 848.15   Q 367.63 858.57 370.35 862.90   Q 377.61 874.45 381.12 879.97   Q 382.05 881.44 383.98 883.96   C 386.61 887.41 388.56 889.84 391.21 893.96   Q 397.46 903.69 405.17 910.32   Q 414.90 918.71 428.22 929.19   Q 437.92 936.83 444.13 940.38   Q 452.81 945.33 461.48 949.15   A 0.93 0.93 0.0 0 0 462.60 947.74   L 455.22 937.82"/>
<path stroke="#5d5ee6" d="M 444.78 922.89   Q 449.40 930.89 455.22 937.82"/>
<path stroke="#4c4cac" d="M 1029.92 921.49   Q 1036.61 916.39 1037.11 915.59   Q 1038.01 914.17 1039.61 913.55   A 1.85 1.80 11.1 0 0 1040.24 913.14   Q 1051.17 902.48 1056.19 895.68   Q 1060.37 890.01 1067.60 879.77   Q 1069.02 877.74 1069.72 876.27   C 1072.99 869.32 1077.49 865.56 1079.80 859.64   C 1081.12 856.24 1083.18 853.57 1084.58 849.75   Q 1091.07 831.99 1094.26 820.26   Q 1098.57 804.46 1099.65 785.77   C 1100.28 774.89 1099.04 765.49 1097.80 753.74   Q 1097.10 747.08 1093.36 734.38   Q 1087.61 714.84 1081.14 700.71   Q 1078.88 695.79 1076.31 692.33   Q 1074.29 689.62 1070.79 684.20   A 0.24 0.10 22.5 0 0 1070.73 684.14   L 1070.42 683.91   A 0.33 0.33 0.0 0 0 1069.90 684.18   Q 1069.79 767.98 1042.81 847.06   Q 1038.91 858.48 1031.65 873.14   A 4.31 3.98 69.3 0 0 1031.37 873.83   Q 1030.91 875.36 1030.07 877.12   Q 1025.47 886.72 1021.00 897.27   Q 1016.98 906.76 1011.30 914.75   Q 1006.72 921.19 1003.38 926.37   Q 995.93 937.88 989.66 946.75   A 0.43 0.42 -72.1 0 0 990.00 947.42   Q 991.38 947.45 992.70 946.69   C 999.93 942.52 1008.37 939.04 1014.15 933.95   Q 1016.49 931.88 1023.41 927.18   Q 1025.77 925.57 1029.43 921.93   A 4.54 4.15 -84.4 0 1 1029.92 921.49"/>
<path stroke="#443fa7" d="M 787.06 1075.07   C 782.68 1079.58 785.33 1093.18 787.38 1098.63   Q 790.36 1106.56 799.23 1108.59   Q 806.37 1110.23 811.66 1108.36   C 815.87 1106.87 818.67 1103.38 821.02 1099.78   C 823.54 1095.90 828.20 1094.31 832.50 1096.09   C 834.46 1096.90 836.99 1099.08 838.80 1100.61   C 843.45 1104.53 849.57 1106.09 855.41 1104.61   C 869.24 1101.10 872.11 1088.46 869.52 1076.20   Q 867.53 1066.74 859.93 1060.34   C 856.40 1057.36 854.31 1054.93 850.06 1056.78   Q 843.44 1059.65 839.73 1060.72   Q 839.08 1060.90 812.69 1069.45   Q 808.68 1070.75 787.96 1074.59   A 1.72 1.67 16.1 0 0 787.06 1075.07"/>
<path stroke="#443fa7" d="M 612.13 1103.01   L 620.52 1096.69   A 4.94 4.55 13.7 0 1 621.66 1096.06   Q 627.77 1093.72 631.95 1098.75   Q 636.47 1104.19 640.35 1107.29   A 4.18 3.72 -10.5 0 0 641.16 1107.78   Q 647.98 1110.83 655.37 1108.85   C 662.59 1106.91 668.01 1100.19 668.78 1092.74   C 669.38 1086.87 669.86 1080.02 667.62 1076.05   Q 666.81 1074.62 664.50 1074.26   Q 644.66 1071.18 625.73 1064.75   Q 606.97 1058.37 601.54 1056.36   A 2.51 2.50 36.9 0 0 599.20 1056.69   C 590.98 1062.70 584.55 1069.89 584.12 1080.49   C 583.82 1087.91 584.00 1095.93 590.74 1100.74   Q 597.84 1105.81 607.00 1104.67   A 3.42 3.35 -61.1 0 0 608.07 1104.35   Q 609.81 1103.48 611.27 1103.34   A 1.65 1.63 23.6 0 0 612.13 1103.01"/>
<path stroke="#5c5db2" d="M 655.77 692.03   Q 657.39 694.26 659.46 696.63   Q 662.28 699.84 663.26 701.14   C 666.76 705.80 670.01 710.91 674.40 714.35   Q 682.43 720.65 691.00 727.73   C 697.28 732.92 703.69 735.31 711.89 737.82   Q 718.96 739.99 727.76 739.97   C 737.11 739.94 745.51 736.31 753.58 732.08   Q 756.87 730.35 762.80 725.64   C 770.89 719.21 775.23 716.25 781.37 709.12   Q 789.37 699.84 794.52 692.97"/>
<path stroke="#c1b7e0" d="M 794.52 692.97   Q 809.14 704.90 826.96 711.27   Q 841.03 716.29 847.52 717.56   Q 882.44 724.38 915.83 714.50   Q 936.76 708.31 955.02 695.03   Q 973.46 681.62 986.32 664.25   C 990.12 659.11 993.80 651.79 996.29 647.94   Q 999.52 642.98 1002.12 635.92   Q 1006.88 623.05 1007.59 620.40   Q 1013.26 599.41 1011.86 575.57   C 1011.49 569.32 1009.89 562.49 1008.96 556.68   C 1008.09 551.19 1006.30 545.16 1004.74 539.47   Q 1003.72 535.73 997.37 524.15"/>
<path stroke="#757df1" d="M 997.37 524.15   Q 998.09 517.41 991.87 513.68"/>
<path stroke="#c1b7e0" d="M 991.87 513.68   Q 990.10 511.57 988.62 508.88   Q 986.65 505.30 985.66 503.95   Q 982.23 499.29 980.12 497.17   Q 970.73 487.73 970.37 487.37   C 955.60 472.67 936.38 461.78 915.73 455.34   Q 882.87 445.10 849.04 452.11   Q 802.19 461.81 771.08 498.61   C 752.13 521.03 740.59 552.40 740.38 581.50   Q 740.25 600.02 744.73 618.88"/>
<path stroke="#be94bc" d="M 744.73 618.88   Q 742.52 618.31 740.11 617.61   Q 727.15 613.87 714.69 616.24   Q 711.56 616.83 704.68 618.55   A 0.64 0.63 73.4 0 1 703.93 618.14   Q 703.74 617.60 703.94 616.80"/>
<path stroke="#c1b7e0" d="M 703.94 616.80   Q 707.37 604.59 707.80 592.00   Q 708.21 580.19 707.27 569.62   Q 706.36 559.29 703.61 550.44   Q 699.34 536.65 694.60 526.20   Q 690.34 516.81 687.49 512.51   C 670.90 487.55 646.30 466.92 617.93 457.33   C 603.35 452.40 587.19 449.21 571.66 449.35   C 538.89 449.65 506.40 461.56 482.00 484.05   Q 473.44 491.94 467.66 498.40   C 456.51 510.83 448.95 526.61 443.24 542.28   Q 438.98 554.00 437.37 566.60   Q 435.44 581.86 436.30 595.03   C 436.60 599.48 437.78 605.82 438.29 609.05   Q 439.24 615.10 440.47 619.43   Q 446.44 640.46 457.62 657.65   Q 485.17 700.00 534.71 715.07   Q 551.59 720.20 571.77 720.26   Q 605.62 720.36 635.38 705.11   Q 635.89 704.85 647.88 698.13   Q 649.96 696.96 655.77 692.03"/>
<path stroke="#f9bca5" d="M 703.94 616.80   C 702.77 622.78 697.53 627.93 693.39 632.21   Q 688.24 637.52 685.17 639.84   Q 678.10 645.19 668.97 646.67   Q 662.25 647.76 655.09 648.62"/>
<path stroke="#98869b" d="M 655.09 648.62   Q 651.91 645.52 649.90 645.06   Q 642.27 643.31 639.28 649.34   C 637.84 652.24 637.99 655.79 639.09 658.92   C 641.64 666.23 643.86 671.47 648.18 678.83   Q 651.93 685.21 655.77 692.03"/>
<path stroke="#956376" d="M 798.14 644.12   Q 789.33 652.47 779.61 659.54   Q 772.41 664.77 765.83 667.45   Q 750.60 673.64 737.24 675.40   C 720.14 677.66 703.04 674.08 686.76 667.79   C 674.96 663.23 665.34 656.56 655.09 648.62"/>
<path stroke="#b1a5da" d="M 991.87 513.68   L 997.37 524.15"/>
<path stroke="#98869b" d="M 794.52 692.97   C 800.75 682.64 805.55 674.83 809.21 664.46   C 811.05 659.23 812.79 654.39 812.59 650.11   Q 812.34 644.80 807.31 641.54   A 1.67 1.67 0.0 0 0 806.32 641.26   L 802.77 641.38   A 2.09 2.00 34.9 0 0 802.32 641.45   Q 799.62 642.22 798.14 644.12"/>
<path stroke="#f9bca5" d="M 798.14 644.12   Q 796.69 644.17 795.33 645.69   A 1.08 1.06 -68.5 0 1 794.54 646.04   Q 785.21 645.98 777.88 644.33   Q 772.10 643.04 764.49 639.35   C 761.21 637.76 757.74 634.54 755.40 632.11   Q 749.65 626.18 744.73 618.88"/>
<path stroke="#98869b" d="M 562.59 527.68   Q 531.29 533.75 514.81 558.97   C 506.87 571.12 502.49 581.85 501.89 596.14   C 501.56 604.02 504.99 610.42 513.36 610.47   C 523.61 610.54 525.31 599.55 527.79 592.80   Q 536.48 569.21 560.73 561.27   C 577.78 555.69 592.13 560.39 605.48 571.07   C 614.71 578.46 619.84 588.53 623.26 599.85   C 624.74 604.77 627.17 608.58 631.80 609.88   C 642.28 612.81 646.96 604.63 646.66 595.50   C 646.10 578.31 638.87 562.78 627.53 549.74   C 611.87 531.73 585.88 523.16 562.59 527.68"/>
<path stroke="#98869b" d="M 862.58 527.62   Q 831.25 533.65 814.72 558.86   C 806.76 571.00 802.36 581.73 801.74 596.03   C 801.40 603.92 804.82 610.32 813.20 610.39   C 823.45 610.47 825.17 599.48 827.66 592.73   Q 836.39 569.13 860.67 561.22   C 877.73 555.67 892.09 560.39 905.43 571.09   C 914.65 578.50 919.77 588.58 923.18 599.92   C 924.65 604.84 927.08 608.66 931.71 609.96   C 942.19 612.91 946.89 604.73 946.60 595.60   C 946.06 578.40 938.85 562.85 927.52 549.78   C 911.88 531.74 885.89 523.13 862.58 527.62"/>
<path stroke="#956376" d="M 725.67 693.45   Q 710.00 693.46 695.02 689.33   Q 682.18 685.79 668.43 677.72   Q 668.06 677.50 667.53 677.67   A 0.64 0.63 62.5 0 0 667.22 678.67   Q 673.35 686.59 675.78 689.98   C 678.80 694.21 685.52 700.47 690.88 705.74   Q 698.05 712.78 710.19 719.11   Q 718.29 723.33 725.69 723.32   Q 733.10 723.31 741.19 719.08   Q 753.32 712.73 760.48 705.68   C 765.83 700.40 772.53 694.13 775.55 689.89   Q 777.97 686.50 784.09 678.57   A 0.64 0.63 -62.6 0 0 783.78 677.57   Q 783.25 677.40 782.88 677.62   Q 769.14 685.71 756.31 689.28   Q 741.33 693.44 725.67 693.45"/>
</g>

<path xmlns="http://www.w3.org/2000/svg" fill="#332c6c" d="M 690.90 1079.05   C 694.16 1097.76 687.16 1117.02 670.16 1126.65   C 655.23 1135.11 638.34 1133.73 624.54 1123.30   A 2.08 2.07 -39.4 0 0 622.39 1123.09   Q 613.84 1127.17 604.49 1127.32   Q 582.69 1127.67 570.33 1110.89   C 555.64 1090.95 559.91 1064.15 576.16 1046.56   A 1.14 1.14 0.0 0 0 575.89 1044.80   C 566.76 1039.54 556.77 1034.78 548.16 1029.15   C 539.21 1023.29 528.67 1015.32 519.78 1008.30   Q 509.97 1000.54 506.54 997.20   Q 500.10 990.93 493.73 984.55   Q 492.25 983.08 489.27 982.26   Q 480.52 979.87 476.12 978.61   C 454.49 972.42 435.58 961.58 416.64 948.86   Q 408.48 943.37 401.87 937.53   Q 356.12 897.12 336.82 842.14   C 327.33 815.10 323.82 784.04 327.42 755.58   C 330.42 731.89 337.51 708.80 349.12 687.83   Q 355.25 676.75 359.71 669.93   Q 367.13 658.57 378.06 647.98   A 5.50 5.48 69.8 0 0 379.72 644.37   Q 380.73 628.04 383.02 613.76   Q 384.78 602.84 390.08 579.03   Q 395.79 553.46 405.53 529.49   Q 413.75 509.27 414.05 508.52   Q 415.80 504.19 417.70 500.64   C 419.64 497.00 420.88 493.97 422.96 490.29   Q 433.37 471.89 441.95 458.21   C 447.97 448.61 457.00 437.74 461.76 431.51   C 475.48 413.56 492.40 397.25 509.19 382.42   C 522.64 370.54 537.05 361.15 553.17 350.41   Q 562.27 344.34 570.74 340.27   Q 583.68 334.04 601.15 326.17   Q 608.19 323.00 617.01 320.03   C 659.55 305.70 704.24 299.05 748.48 302.85   Q 781.02 305.64 805.83 312.46   C 822.70 317.09 838.21 321.81 853.78 328.98   Q 869.15 336.06 884.97 344.54   C 901.86 353.60 915.41 364.03 931.76 376.24   C 942.06 383.92 955.46 397.36 962.18 404.04   Q 974.59 416.38 986.32 431.23   C 994.93 442.14 1000.11 448.67 1006.65 459.46   Q 1007.08 460.18 1019.03 479.83   C 1022.52 485.57 1025.33 491.28 1028.42 497.55   Q 1031.33 503.47 1043.17 531.55   Q 1047.22 541.17 1049.87 550.43   Q 1056.82 574.74 1062.43 600.74   C 1065.56 615.24 1066.96 629.61 1068.10 644.13   A 3.95 3.94 21.2 0 0 1069.16 646.52   C 1077.98 655.79 1085.82 664.84 1092.20 675.70   C 1099.62 688.31 1106.55 700.95 1111.30 714.94   Q 1113.44 721.26 1116.49 733.39   Q 1119.37 744.84 1120.24 752.11   Q 1122.74 773.14 1122.02 786.01   Q 1120.22 818.23 1109.90 846.42   Q 1103.09 865.00 1090.48 886.02   Q 1079.63 904.09 1062.57 922.10   C 1042.67 943.11 1019.39 959.02 994.01 970.81   C 983.21 975.83 973.78 978.47 961.12 982.24   A 6.53 6.52 -76.3 0 0 958.26 983.98   C 944.09 998.77 932.00 1008.01 912.12 1023.37   C 908.71 1026.00 902.72 1029.76 897.81 1032.64   Q 879.53 1043.36 877.54 1044.38   A 0.95 0.95 0.0 0 0 877.30 1045.88   Q 891.81 1060.61 892.76 1081.47   Q 893.80 1104.16 877.01 1118.46   C 864.77 1128.89 846.24 1129.75 832.00 1123.28   A 2.85 2.85 0.0 0 0 829.19 1123.54   C 826.36 1125.52 823.21 1127.63 820.10 1128.85   Q 801.78 1136.00 786.29 1127.88   Q 775.13 1122.02 768.42 1110.75   C 762.89 1101.45 761.61 1090.24 763.17 1079.11   A 0.42 0.41 -88.9 0 0 762.72 1078.64   Q 727.02 1082.54 691.23 1078.69   A 0.31 0.30 87.8 0 0 690.90 1079.05   Z   M 528.24 985.57   Q 542.07 998.51 558.24 1008.50   Q 572.18 1017.11 578.50 1020.75   Q 591.64 1028.31 609.30 1035.19   Q 624.10 1040.95 629.13 1042.63   C 647.81 1048.90 669.60 1053.14 688.76 1055.70   Q 695.55 1056.61 714.09 1057.56   C 747.54 1059.29 782.25 1054.59 813.78 1045.68   C 830.13 1041.06 847.20 1033.66 863.16 1026.28   Q 870.91 1022.71 876.28 1019.41   Q 878.74 1017.90 888.84 1011.57   Q 892.61 1009.22 892.80 1009.19   A 0.83 0.82 -83.7 0 0 893.48 1008.64   Q 893.72 1007.94 895.26 1007.03   Q 912.80 996.71 927.07 982.07   Q 930.25 979.92 931.26 979.01   Q 947.52 964.27 954.83 955.06   C 956.10 953.46 957.79 950.67 959.57 948.45   C 964.34 942.50 970.33 936.36 974.83 929.94   Q 980.16 922.35 983.64 917.39   A 2.42 2.28 -24.0 0 0 984.02 916.48   Q 984.16 915.67 984.33 915.48   Q 987.81 911.40 989.98 906.72   C 993.46 899.19 996.34 894.54 1003.14 882.12   Q 1008.33 872.64 1011.79 864.56   C 1035.91 808.18 1047.52 747.02 1047.39 684.78   Q 1047.35 662.24 1047.31 656.00   C 1047.28 651.30 1045.28 644.33 1044.78 638.98   Q 1042.93 619.35 1040.24 602.94   C 1039.51 598.50 1038.72 595.30 1037.67 590.39   Q 1036.67 585.71 1035.12 581.12   Q 1028.52 561.62 1024.45 546.54   C 1023.00 541.15 1020.90 536.36 1019.18 531.54   C 1015.50 521.25 1009.36 511.88 1004.85 501.92   Q 998.85 488.65 995.99 484.51   Q 991.53 478.06 974.55 452.81   Q 970.28 446.46 965.50 441.19   Q 958.88 433.90 946.56 419.74   C 943.09 415.73 938.49 411.23 934.53 407.96   Q 920.43 396.31 911.29 388.37   C 906.16 383.93 899.34 379.22 894.81 376.50   Q 887.24 371.97 860.76 356.70   C 858.13 355.18 855.07 353.92 850.89 351.99   Q 847.88 350.59 843.30 348.93   Q 829.71 343.99 816.28 339.00   Q 809.57 336.51 803.72 335.02   Q 782.86 329.72 763.93 327.12   Q 714.85 320.38 665.78 330.31   Q 645.51 334.42 632.17 339.35   C 624.70 342.11 622.19 342.79 614.26 345.32   C 605.60 348.08 598.15 351.42 590.62 355.63   Q 570.52 366.84 561.18 371.72   C 558.61 373.07 555.00 375.12 552.09 377.32   Q 531.14 393.15 521.15 401.66   Q 508.31 412.59 505.85 415.43   Q 495.35 427.57 484.34 439.21   Q 478.31 445.58 474.09 451.60   C 468.39 459.71 462.81 469.48 456.34 477.85   C 450.03 486.04 445.39 495.04 440.32 506.69   Q 434.82 519.33 429.23 529.83   Q 427.41 533.25 426.79 535.24   C 425.27 540.14 423.37 544.13 421.98 549.28   C 418.71 561.40 414.18 575.03 411.18 587.24   Q 405.21 611.53 403.15 636.00   C 402.40 644.97 400.87 654.39 400.67 662.76   Q 400.17 683.61 401.01 704.77   Q 402.25 736.27 408.66 767.31   Q 414.04 793.37 415.64 799.38   Q 423.41 828.64 435.85 858.41   C 441.56 872.08 447.75 884.08 455.62 896.85   Q 457.41 899.77 461.15 907.22   Q 463.76 912.46 467.18 917.33   Q 479.38 934.73 490.99 948.12   C 495.35 953.15 500.15 960.07 504.69 964.57   Q 513.03 972.83 528.24 985.57   Z   M 455.22 937.82   L 444.78 922.89   Q 442.51 920.22 441.38 918.37   Q 432.79 904.28 426.42 890.23   A 1.17 0.19 36.0 0 0 425.84 889.64   Q 425.62 889.46 425.43 889.09   C 416.30 870.84 408.05 851.59 401.66 831.08   Q 394.97 809.64 389.89 787.96   C 387.29 776.89 386.18 768.61 384.21 758.08   Q 382.35 748.17 381.18 735.47   Q 378.84 709.93 377.97 684.09   A 0.38 0.38 0.0 0 0 377.26 683.92   Q 375.43 687.31 373.08 690.34   C 370.25 693.98 368.03 698.06 366.30 702.20   Q 360.06 717.09 354.24 734.32   Q 352.67 738.95 352.09 743.20   C 351.15 750.04 349.32 758.88 348.79 765.82   Q 346.66 794.07 354.54 821.50   Q 358.17 834.12 363.60 848.15   Q 367.63 858.57 370.35 862.90   Q 377.61 874.45 381.12 879.97   Q 382.05 881.44 383.98 883.96   C 386.61 887.41 388.56 889.84 391.21 893.96   Q 397.46 903.69 405.17 910.32   Q 414.90 918.71 428.22 929.19   Q 437.92 936.83 444.13 940.38   Q 452.81 945.33 461.48 949.15   A 0.93 0.93 0.0 0 0 462.60 947.74   L 455.22 937.82   Z   M 1029.92 921.49   Q 1036.61 916.39 1037.11 915.59   Q 1038.01 914.17 1039.61 913.55   A 1.85 1.80 11.1 0 0 1040.24 913.14   Q 1051.17 902.48 1056.19 895.68   Q 1060.37 890.01 1067.60 879.77   Q 1069.02 877.74 1069.72 876.27   C 1072.99 869.32 1077.49 865.56 1079.80 859.64   C 1081.12 856.24 1083.18 853.57 1084.58 849.75   Q 1091.07 831.99 1094.26 820.26   Q 1098.57 804.46 1099.65 785.77   C 1100.28 774.89 1099.04 765.49 1097.80 753.74   Q 1097.10 747.08 1093.36 734.38   Q 1087.61 714.84 1081.14 700.71   Q 1078.88 695.79 1076.31 692.33   Q 1074.29 689.62 1070.79 684.20   A 0.24 0.10 22.5 0 0 1070.73 684.14   L 1070.42 683.91   A 0.33 0.33 0.0 0 0 1069.90 684.18   Q 1069.79 767.98 1042.81 847.06   Q 1038.91 858.48 1031.65 873.14   A 4.31 3.98 69.3 0 0 1031.37 873.83   Q 1030.91 875.36 1030.07 877.12   Q 1025.47 886.72 1021.00 897.27   Q 1016.98 906.76 1011.30 914.75   Q 1006.72 921.19 1003.38 926.37   Q 995.93 937.88 989.66 946.75   A 0.43 0.42 -72.1 0 0 990.00 947.42   Q 991.38 947.45 992.70 946.69   C 999.93 942.52 1008.37 939.04 1014.15 933.95   Q 1016.49 931.88 1023.41 927.18   Q 1025.77 925.57 1029.43 921.93   A 4.54 4.15 -84.4 0 1 1029.92 921.49   Z   M 787.06 1075.07   C 782.68 1079.58 785.33 1093.18 787.38 1098.63   Q 790.36 1106.56 799.23 1108.59   Q 806.37 1110.23 811.66 1108.36   C 815.87 1106.87 818.67 1103.38 821.02 1099.78   C 823.54 1095.90 828.20 1094.31 832.50 1096.09   C 834.46 1096.90 836.99 1099.08 838.80 1100.61   C 843.45 1104.53 849.57 1106.09 855.41 1104.61   C 869.24 1101.10 872.11 1088.46 869.52 1076.20   Q 867.53 1066.74 859.93 1060.34   C 856.40 1057.36 854.31 1054.93 850.06 1056.78   Q 843.44 1059.65 839.73 1060.72   Q 839.08 1060.90 812.69 1069.45   Q 808.68 1070.75 787.96 1074.59   A 1.72 1.67 16.1 0 0 787.06 1075.07   Z   M 612.13 1103.01   L 620.52 1096.69   A 4.94 4.55 13.7 0 1 621.66 1096.06   Q 627.77 1093.72 631.95 1098.75   Q 636.47 1104.19 640.35 1107.29   A 4.18 3.72 -10.5 0 0 641.16 1107.78   Q 647.98 1110.83 655.37 1108.85   C 662.59 1106.91 668.01 1100.19 668.78 1092.74   C 669.38 1086.87 669.86 1080.02 667.62 1076.05   Q 666.81 1074.62 664.50 1074.26   Q 644.66 1071.18 625.73 1064.75   Q 606.97 1058.37 601.54 1056.36   A 2.51 2.50 36.9 0 0 599.20 1056.69   C 590.98 1062.70 584.55 1069.89 584.12 1080.49   C 583.82 1087.91 584.00 1095.93 590.74 1100.74   Q 597.84 1105.81 607.00 1104.67   A 3.42 3.35 -61.1 0 0 608.07 1104.35   Q 609.81 1103.48 611.27 1103.34   A 1.65 1.63 23.6 0 0 612.13 1103.01   Z"/>
<path xmlns="http://www.w3.org/2000/svg" fill="#858ef7" d="M 927.07 982.07   Q 926.70 971.86 925.51 962.05   Q 924.85 956.64 923.60 952.08   Q 922.35 947.53 921.20 942.18   Q 919.80 935.65 917.00 927.54   C 906.61 897.38 890.30 869.01 867.41 846.57   C 846.13 825.73 820.80 809.25 792.83 799.76   Q 767.41 791.14 742.67 789.38   Q 685.27 785.30 635.29 811.69   C 600.71 829.95 572.76 857.91 553.56 892.53   Q 531.65 932.03 528.64 975.03   Q 528.57 976.09 527.87 979.57   A 7.36 7.24 47.4 0 0 527.79 981.97   L 528.24 985.57   Q 513.03 972.83 504.69 964.57   C 500.15 960.07 495.35 953.15 490.99 948.12   Q 479.38 934.73 467.18 917.33   Q 463.76 912.46 461.15 907.22   Q 457.41 899.77 455.62 896.85   C 447.75 884.08 441.56 872.08 435.85 858.41   Q 423.41 828.64 415.64 799.38   Q 414.04 793.37 408.66 767.31   Q 402.25 736.27 401.01 704.77   Q 400.17 683.61 400.67 662.76   C 400.87 654.39 402.40 644.97 403.15 636.00   Q 405.21 611.53 411.18 587.24   C 414.18 575.03 418.71 561.40 421.98 549.28   C 423.37 544.13 425.27 540.14 426.79 535.24   Q 427.41 533.25 429.23 529.83   Q 434.82 519.33 440.32 506.69   C 445.39 495.04 450.03 486.04 456.34 477.85   C 462.81 469.48 468.39 459.71 474.09 451.60   Q 478.31 445.58 484.34 439.21   Q 495.35 427.57 505.85 415.43   Q 508.31 412.59 521.15 401.66   Q 531.14 393.15 552.09 377.32   C 555.00 375.12 558.61 373.07 561.18 371.72   Q 570.52 366.84 590.62 355.63   C 598.15 351.42 605.60 348.08 614.26 345.32   C 622.19 342.79 624.70 342.11 632.17 339.35   Q 645.51 334.42 665.78 330.31   Q 714.85 320.38 763.93 327.12   Q 782.86 329.72 803.72 335.02   Q 809.57 336.51 816.28 339.00   Q 829.71 343.99 843.30 348.93   Q 847.88 350.59 850.89 351.99   C 855.07 353.92 858.13 355.18 860.76 356.70   Q 887.24 371.97 894.81 376.50   C 899.34 379.22 906.16 383.93 911.29 388.37   Q 920.43 396.31 934.53 407.96   C 938.49 411.23 943.09 415.73 946.56 419.74   Q 958.88 433.90 965.50 441.19   Q 970.28 446.46 974.55 452.81   Q 991.53 478.06 995.99 484.51   Q 998.85 488.65 1004.85 501.92   C 1009.36 511.88 1015.50 521.25 1019.18 531.54   C 1020.90 536.36 1023.00 541.15 1024.45 546.54   Q 1028.52 561.62 1035.12 581.12   Q 1036.67 585.71 1037.67 590.39   C 1038.72 595.30 1039.51 598.50 1040.24 602.94   Q 1042.93 619.35 1044.78 638.98   C 1045.28 644.33 1047.28 651.30 1047.31 656.00   Q 1047.35 662.24 1047.39 684.78   C 1047.52 747.02 1035.91 808.18 1011.79 864.56   Q 1008.33 872.64 1003.14 882.12   C 996.34 894.54 993.46 899.19 989.98 906.72   Q 987.81 911.40 984.33 915.48   Q 984.16 915.67 984.02 916.48   A 2.42 2.28 -24.0 0 1 983.64 917.39   Q 980.16 922.35 974.83 929.94   C 970.33 936.36 964.34 942.50 959.57 948.45   C 957.79 950.67 956.10 953.46 954.83 955.06   Q 947.52 964.27 931.26 979.01   Q 930.25 979.92 927.07 982.07   Z   M 655.77 692.03   Q 657.39 694.26 659.46 696.63   Q 662.28 699.84 663.26 701.14   C 666.76 705.80 670.01 710.91 674.40 714.35   Q 682.43 720.65 691.00 727.73   C 697.28 732.92 703.69 735.31 711.89 737.82   Q 718.96 739.99 727.76 739.97   C 737.11 739.94 745.51 736.31 753.58 732.08   Q 756.87 730.35 762.80 725.64   C 770.89 719.21 775.23 716.25 781.37 709.12   Q 789.37 699.84 794.52 692.97   Q 809.14 704.90 826.96 711.27   Q 841.03 716.29 847.52 717.56   Q 882.44 724.38 915.83 714.50   Q 936.76 708.31 955.02 695.03   Q 973.46 681.62 986.32 664.25   C 990.12 659.11 993.80 651.79 996.29 647.94   Q 999.52 642.98 1002.12 635.92   Q 1006.88 623.05 1007.59 620.40   Q 1013.26 599.41 1011.86 575.57   C 1011.49 569.32 1009.89 562.49 1008.96 556.68   C 1008.09 551.19 1006.30 545.16 1004.74 539.47   Q 1003.72 535.73 997.37 524.15   Q 998.09 517.41 991.87 513.68   Q 990.10 511.57 988.62 508.88   Q 986.65 505.30 985.66 503.95   Q 982.23 499.29 980.12 497.17   Q 970.73 487.73 970.37 487.37   C 955.60 472.67 936.38 461.78 915.73 455.34   Q 882.87 445.10 849.04 452.11   Q 802.19 461.81 771.08 498.61   C 752.13 521.03 740.59 552.40 740.38 581.50   Q 740.25 600.02 744.73 618.88   Q 742.52 618.31 740.11 617.61   Q 727.15 613.87 714.69 616.24   Q 711.56 616.83 704.68 618.55   A 0.64 0.63 73.4 0 1 703.93 618.14   Q 703.74 617.60 703.94 616.80   Q 707.37 604.59 707.80 592.00   Q 708.21 580.19 707.27 569.62   Q 706.36 559.29 703.61 550.44   Q 699.34 536.65 694.60 526.20   Q 690.34 516.81 687.49 512.51   C 670.90 487.55 646.30 466.92 617.93 457.33   C 603.35 452.40 587.19 449.21 571.66 449.35   C 538.89 449.65 506.40 461.56 482.00 484.05   Q 473.44 491.94 467.66 498.40   C 456.51 510.83 448.95 526.61 443.24 542.28   Q 438.98 554.00 437.37 566.60   Q 435.44 581.86 436.30 595.03   C 436.60 599.48 437.78 605.82 438.29 609.05   Q 439.24 615.10 440.47 619.43   Q 446.44 640.46 457.62 657.65   Q 485.17 700.00 534.71 715.07   Q 551.59 720.20 571.77 720.26   Q 605.62 720.36 635.38 705.11   Q 635.89 704.85 647.88 698.13   Q 649.96 696.96 655.77 692.03   Z"/>
<path xmlns="http://www.w3.org/2000/svg" fill="#fcdfc9" d="M 703.94 616.80   C 702.77 622.78 697.53 627.93 693.39 632.21   Q 688.24 637.52 685.17 639.84   Q 678.10 645.19 668.97 646.67   Q 662.25 647.76 655.09 648.62   Q 651.91 645.52 649.90 645.06   Q 642.27 643.31 639.28 649.34   C 637.84 652.24 637.99 655.79 639.09 658.92   C 641.64 666.23 643.86 671.47 648.18 678.83   Q 651.93 685.21 655.77 692.03   Q 649.96 696.96 647.88 698.13   Q 635.89 704.85 635.38 705.11   Q 605.62 720.36 571.77 720.26   Q 551.59 720.20 534.71 715.07   Q 485.17 700.00 457.62 657.65   Q 446.44 640.46 440.47 619.43   Q 439.24 615.10 438.29 609.05   C 437.78 605.82 436.60 599.48 436.30 595.03   Q 435.44 581.86 437.37 566.60   Q 438.98 554.00 443.24 542.28   C 448.95 526.61 456.51 510.83 467.66 498.40   Q 473.44 491.94 482.00 484.05   C 506.40 461.56 538.89 449.65 571.66 449.35   C 587.19 449.21 603.35 452.40 617.93 457.33   C 646.30 466.92 670.90 487.55 687.49 512.51   Q 690.34 516.81 694.60 526.20   Q 699.34 536.65 703.61 550.44   Q 706.36 559.29 707.27 569.62   Q 708.21 580.19 707.80 592.00   Q 707.37 604.59 703.94 616.80   Z   M 562.59 527.68   Q 531.29 533.75 514.81 558.97   C 506.87 571.12 502.49 581.85 501.89 596.14   C 501.56 604.02 504.99 610.42 513.36 610.47   C 523.61 610.54 525.31 599.55 527.79 592.80   Q 536.48 569.21 560.73 561.27   C 577.78 555.69 592.13 560.39 605.48 571.07   C 614.71 578.46 619.84 588.53 623.26 599.85   C 624.74 604.77 627.17 608.58 631.80 609.88   C 642.28 612.81 646.96 604.63 646.66 595.50   C 646.10 578.31 638.87 562.78 627.53 549.74   C 611.87 531.73 585.88 523.16 562.59 527.68   Z"/>
<path xmlns="http://www.w3.org/2000/svg" fill="#fcdfc9" d="M 991.87 513.68   L 997.37 524.15   Q 1003.72 535.73 1004.74 539.47   C 1006.30 545.16 1008.09 551.19 1008.96 556.68   C 1009.89 562.49 1011.49 569.32 1011.86 575.57   Q 1013.26 599.41 1007.59 620.40   Q 1006.88 623.05 1002.12 635.92   Q 999.52 642.98 996.29 647.94   C 993.80 651.79 990.12 659.11 986.32 664.25   Q 973.46 681.62 955.02 695.03   Q 936.76 708.31 915.83 714.50   Q 882.44 724.38 847.52 717.56   Q 841.03 716.29 826.96 711.27   Q 809.14 704.90 794.52 692.97   C 800.75 682.64 805.55 674.83 809.21 664.46   C 811.05 659.23 812.79 654.39 812.59 650.11   Q 812.34 644.80 807.31 641.54   A 1.67 1.67 0.0 0 0 806.32 641.26   L 802.77 641.38   A 2.09 2.00 34.9 0 0 802.32 641.45   Q 799.62 642.22 798.14 644.12   Q 796.69 644.17 795.33 645.69   A 1.08 1.06 -68.5 0 1 794.54 646.04   Q 785.21 645.98 777.88 644.33   Q 772.10 643.04 764.49 639.35   C 761.21 637.76 757.74 634.54 755.40 632.11   Q 749.65 626.18 744.73 618.88   Q 740.25 600.02 740.38 581.50   C 740.59 552.40 752.13 521.03 771.08 498.61   Q 802.19 461.81 849.04 452.11   Q 882.87 445.10 915.73 455.34   C 936.38 461.78 955.60 472.67 970.37 487.37   Q 970.73 487.73 980.12 497.17   Q 982.23 499.29 985.66 503.95   Q 986.65 505.30 988.62 508.88   Q 990.10 511.57 991.87 513.68   Z   M 862.58 527.62   Q 831.25 533.65 814.72 558.86   C 806.76 571.00 802.36 581.73 801.74 596.03   C 801.40 603.92 804.82 610.32 813.20 610.39   C 823.45 610.47 825.17 599.48 827.66 592.73   Q 836.39 569.13 860.67 561.22   C 877.73 555.67 892.09 560.39 905.43 571.09   C 914.65 578.50 919.77 588.58 923.18 599.92   C 924.65 604.84 927.08 608.66 931.71 609.96   C 942.19 612.91 946.89 604.73 946.60 595.60   C 946.06 578.40 938.85 562.85 927.52 549.78   C 911.88 531.74 885.89 523.13 862.58 527.62   Z"/>
<path xmlns="http://www.w3.org/2000/svg" fill="#656beb" d="M 997.37 524.15   L 991.87 513.68   Q 998.09 517.41 997.37 524.15   Z"/>
<path xmlns="http://www.w3.org/2000/svg" fill="#332c6c" d="M 562.59 527.68   C 585.88 523.16 611.87 531.73 627.53 549.74   C 638.87 562.78 646.10 578.31 646.66 595.50   C 646.96 604.63 642.28 612.81 631.80 609.88   C 627.17 608.58 624.74 604.77 623.26 599.85   C 619.84 588.53 614.71 578.46 605.48 571.07   C 592.13 560.39 577.78 555.69 560.73 561.27   Q 536.48 569.21 527.79 592.80   C 525.31 599.55 523.61 610.54 513.36 610.47   C 504.99 610.42 501.56 604.02 501.89 596.14   C 502.49 581.85 506.87 571.12 514.81 558.97   Q 531.29 533.75 562.59 527.68   Z"/>
<path xmlns="http://www.w3.org/2000/svg" fill="#332c6c" d="M 862.58 527.62   C 885.89 523.13 911.88 531.74 927.52 549.78   C 938.85 562.85 946.06 578.40 946.60 595.60   C 946.89 604.73 942.19 612.91 931.71 609.96   C 927.08 608.66 924.65 604.84 923.18 599.92   C 919.77 588.58 914.65 578.50 905.43 571.09   C 892.09 560.39 877.73 555.67 860.67 561.22   Q 836.39 569.13 827.66 592.73   C 825.17 599.48 823.45 610.47 813.20 610.39   C 804.82 610.32 801.40 603.92 801.74 596.03   C 802.36 581.73 806.76 571.00 814.72 558.86   Q 831.25 533.65 862.58 527.62   Z"/>
<path xmlns="http://www.w3.org/2000/svg" fill="#f69980" d="M 744.73 618.88   Q 749.65 626.18 755.40 632.11   C 757.74 634.54 761.21 637.76 764.49 639.35   Q 772.10 643.04 777.88 644.33   Q 785.21 645.98 794.54 646.04   A 1.08 1.06 -68.5 0 0 795.33 645.69   Q 796.69 644.17 798.14 644.12   Q 789.33 652.47 779.61 659.54   Q 772.41 664.77 765.83 667.45   Q 750.60 673.64 737.24 675.40   C 720.14 677.66 703.04 674.08 686.76 667.79   C 674.96 663.23 665.34 656.56 655.09 648.62   Q 662.25 647.76 668.97 646.67   Q 678.10 645.19 685.17 639.84   Q 688.24 637.52 693.39 632.21   C 697.53 627.93 702.77 622.78 703.94 616.80   Q 703.74 617.60 703.93 618.14   A 0.64 0.63 73.4 0 0 704.68 618.55   Q 711.56 616.83 714.69 616.24   Q 727.15 613.87 740.11 617.61   Q 742.52 618.31 744.73 618.88   Z"/>
<path xmlns="http://www.w3.org/2000/svg" fill="#332c6c" d="M 794.52 692.97   Q 789.37 699.84 781.37 709.12   C 775.23 716.25 770.89 719.21 762.80 725.64   Q 756.87 730.35 753.58 732.08   C 745.51 736.31 737.11 739.94 727.76 739.97   Q 718.96 739.99 711.89 737.82   C 703.69 735.31 697.28 732.92 691.00 727.73   Q 682.43 720.65 674.40 714.35   C 670.01 710.91 666.76 705.80 663.26 701.14   Q 662.28 699.84 659.46 696.63   Q 657.39 694.26 655.77 692.03   Q 651.93 685.21 648.18 678.83   C 643.86 671.47 641.64 666.23 639.09 658.92   C 637.99 655.79 637.84 652.24 639.28 649.34   Q 642.27 643.31 649.90 645.06   Q 651.91 645.52 655.09 648.62   C 665.34 656.56 674.96 663.23 686.76 667.79   C 703.04 674.08 720.14 677.66 737.24 675.40   Q 750.60 673.64 765.83 667.45   Q 772.41 664.77 779.61 659.54   Q 789.33 652.47 798.14 644.12   Q 799.62 642.22 802.32 641.45   A 2.09 2.00 34.9 0 1 802.77 641.38   L 806.32 641.26   A 1.67 1.67 0.0 0 1 807.31 641.54   Q 812.34 644.80 812.59 650.11   C 812.79 654.39 811.05 659.23 809.21 664.46   C 805.55 674.83 800.75 682.64 794.52 692.97   Z   M 725.67 693.45   Q 710.00 693.46 695.02 689.33   Q 682.18 685.79 668.43 677.72   Q 668.06 677.50 667.53 677.67   A 0.64 0.63 62.5 0 0 667.22 678.67   Q 673.35 686.59 675.78 689.98   C 678.80 694.21 685.52 700.47 690.88 705.74   Q 698.05 712.78 710.19 719.11   Q 718.29 723.33 725.69 723.32   Q 733.10 723.31 741.19 719.08   Q 753.32 712.73 760.48 705.68   C 765.83 700.40 772.53 694.13 775.55 689.89   Q 777.97 686.50 784.09 678.57   A 0.64 0.63 -62.6 0 0 783.78 677.57   Q 783.25 677.40 782.88 677.62   Q 769.14 685.71 756.31 689.28   Q 741.33 693.44 725.67 693.45   Z"/>
<path xmlns="http://www.w3.org/2000/svg" fill="#f69980" d="M 725.69 723.32   Q 718.29 723.33 710.19 719.11   Q 698.05 712.78 690.88 705.74   C 685.52 700.47 678.80 694.21 675.78 689.98   Q 673.35 686.59 667.22 678.67   A 0.64 0.63 62.5 0 1 667.53 677.67   Q 668.06 677.50 668.43 677.72   Q 682.18 685.79 695.02 689.33   Q 710.00 693.46 725.67 693.45   Q 741.33 693.44 756.31 689.28   Q 769.14 685.71 782.88 677.62   Q 783.25 677.40 783.78 677.57   A 0.64 0.63 -62.6 0 1 784.09 678.57   Q 777.97 686.50 775.55 689.89   C 772.53 694.13 765.83 700.40 760.48 705.68   Q 753.32 712.73 741.19 719.08   Q 733.10 723.31 725.69 723.32   Z"/>
<path xmlns="http://www.w3.org/2000/svg" fill="#656beb" d="M 444.78 922.89   Q 449.40 930.89 455.22 937.82   L 462.60 947.74   A 0.93 0.93 0.0 0 1 461.48 949.15   Q 452.81 945.33 444.13 940.38   Q 437.92 936.83 428.22 929.19   Q 414.90 918.71 405.17 910.32   Q 397.46 903.69 391.21 893.96   C 388.56 889.84 386.61 887.41 383.98 883.96   Q 382.05 881.44 381.12 879.97   Q 377.61 874.45 370.35 862.90   Q 367.63 858.57 363.60 848.15   Q 358.17 834.12 354.54 821.50   Q 346.66 794.07 348.79 765.82   C 349.32 758.88 351.15 750.04 352.09 743.20   Q 352.67 738.95 354.24 734.32   Q 360.06 717.09 366.30 702.20   C 368.03 698.06 370.25 693.98 373.08 690.34   Q 375.43 687.31 377.26 683.92   A 0.38 0.38 0.0 0 1 377.97 684.09   Q 378.84 709.93 381.18 735.47   Q 382.35 748.17 384.21 758.08   C 386.18 768.61 387.29 776.89 389.89 787.96   Q 394.97 809.64 401.66 831.08   C 408.05 851.59 416.30 870.84 425.43 889.09   Q 425.62 889.46 425.84 889.64   A 1.17 0.19 36.0 0 1 426.42 890.23   Q 432.79 904.28 441.38 918.37   Q 442.51 920.22 444.78 922.89   Z"/>
<path xmlns="http://www.w3.org/2000/svg" fill="#656beb" d="M 1029.43 921.93   Q 1025.77 925.57 1023.41 927.18   Q 1016.49 931.88 1014.15 933.95   C 1008.37 939.04 999.93 942.52 992.70 946.69   Q 991.38 947.45 990.00 947.42   A 0.43 0.42 -72.1 0 1 989.66 946.75   Q 995.93 937.88 1003.38 926.37   Q 1006.72 921.19 1011.30 914.75   Q 1016.98 906.76 1021.00 897.27   Q 1025.47 886.72 1030.07 877.12   Q 1030.91 875.36 1031.37 873.83   A 4.31 3.98 69.3 0 1 1031.65 873.14   Q 1038.91 858.48 1042.81 847.06   Q 1069.79 767.98 1069.90 684.18   A 0.33 0.33 0.0 0 1 1070.42 683.91   L 1070.73 684.14   A 0.24 0.10 22.5 0 1 1070.79 684.20   Q 1074.29 689.62 1076.31 692.33   Q 1078.88 695.79 1081.14 700.71   Q 1087.61 714.84 1093.36 734.38   Q 1097.10 747.08 1097.80 753.74   C 1099.04 765.49 1100.28 774.89 1099.65 785.77   Q 1098.57 804.46 1094.26 820.26   Q 1091.07 831.99 1084.58 849.75   C 1083.18 853.57 1081.12 856.24 1079.80 859.64   C 1077.49 865.56 1072.99 869.32 1069.72 876.27   Q 1069.02 877.74 1067.60 879.77   Q 1060.37 890.01 1056.19 895.68   Q 1051.17 902.48 1040.24 913.14   A 1.85 1.80 11.1 0 1 1039.61 913.55   Q 1038.01 914.17 1037.11 915.59   Q 1036.61 916.39 1029.92 921.49   A 4.54 4.15 -84.4 0 0 1029.43 921.93   Z"/>
<path xmlns="http://www.w3.org/2000/svg" fill="#f69980" d="M 927.07 982.07   Q 912.80 996.71 895.26 1007.03   Q 893.72 1007.94 893.48 1008.64   A 0.83 0.82 -83.7 0 1 892.80 1009.19   Q 892.61 1009.22 888.84 1011.57   Q 878.74 1017.90 876.28 1019.41   Q 870.91 1022.71 863.16 1026.28   C 847.20 1033.66 830.13 1041.06 813.78 1045.68   C 782.25 1054.59 747.54 1059.29 714.09 1057.56   Q 695.55 1056.61 688.76 1055.70   C 669.60 1053.14 647.81 1048.90 629.13 1042.63   Q 624.10 1040.95 609.30 1035.19   Q 591.64 1028.31 578.50 1020.75   Q 572.18 1017.11 558.24 1008.50   Q 542.07 998.51 528.24 985.57   L 527.79 981.97   A 7.36 7.24 47.4 0 1 527.87 979.57   Q 528.57 976.09 528.64 975.03   Q 531.65 932.03 553.56 892.53   C 572.76 857.91 600.71 829.95 635.29 811.69   Q 685.27 785.30 742.67 789.38   Q 767.41 791.14 792.83 799.76   C 820.80 809.25 846.13 825.73 867.41 846.57   C 890.30 869.01 906.61 897.38 917.00 927.54   Q 919.80 935.65 921.20 942.18   Q 922.35 947.53 923.60 952.08   Q 924.85 956.64 925.51 962.05   Q 926.70 971.86 927.07 982.07   Z"/>
<path xmlns="http://www.w3.org/2000/svg" fill="#5451e1" d="M 455.22 937.82   Q 449.40 930.89 444.78 922.89   L 455.22 937.82   Z"/>
<path xmlns="http://www.w3.org/2000/svg" fill="#5451e1" d="M 787.96 1074.59   Q 808.68 1070.75 812.69 1069.45   Q 839.08 1060.90 839.73 1060.72   Q 843.44 1059.65 850.06 1056.78   C 854.31 1054.93 856.40 1057.36 859.93 1060.34   Q 867.53 1066.74 869.52 1076.20   C 872.11 1088.46 869.24 1101.10 855.41 1104.61   C 849.57 1106.09 843.45 1104.53 838.80 1100.61   C 836.99 1099.08 834.46 1096.90 832.50 1096.09   C 828.20 1094.31 823.54 1095.90 821.02 1099.78   C 818.67 1103.38 815.87 1106.87 811.66 1108.36   Q 806.37 1110.23 799.23 1108.59   Q 790.36 1106.56 787.38 1098.63   C 785.33 1093.18 782.68 1079.58 787.06 1075.07   A 1.72 1.67 16.1 0 1 787.96 1074.59   Z"/>
<path xmlns="http://www.w3.org/2000/svg" fill="#5451e1" d="M 611.27 1103.34   Q 609.81 1103.48 608.07 1104.35   A 3.42 3.35 -61.1 0 1 607.00 1104.67   Q 597.84 1105.81 590.74 1100.74   C 584.00 1095.93 583.82 1087.91 584.12 1080.49   C 584.55 1069.89 590.98 1062.70 599.20 1056.69   A 2.51 2.50 36.9 0 1 601.54 1056.36   Q 606.97 1058.37 625.73 1064.75   Q 644.66 1071.18 664.50 1074.26   Q 666.81 1074.62 667.62 1076.05   C 669.86 1080.02 669.38 1086.87 668.78 1092.74   C 668.01 1100.19 662.59 1106.91 655.37 1108.85   Q 647.98 1110.83 641.16 1107.78   A 4.18 3.72 -10.5 0 1 640.35 1107.29   Q 636.47 1104.19 631.95 1098.75   Q 627.77 1093.72 621.66 1096.06   A 4.94 4.55 13.7 0 0 620.52 1096.69   L 612.13 1103.01   A 1.65 1.63 23.6 0 1 611.27 1103.34   Z"/>
</g></g></g></g></svg>