<svg xmlns="http://www.w3.org/2000/svg" direction="ltr" width="2048" height="2048" viewBox="38814.5751198711 26479.98466615777 2048 2048" stroke-linecap="round" stroke-linejoin="round" data-color-mode="light" class="tl-container tl-theme__force-sRGB tl-theme__light" style="background-color: transparent;"><defs/><g transform="matrix(1, 0, 0, 1, 38814.5751, 26479.9847)" opacity="1"><g data-lovart-layer-name="SVG 20"><g transform="scale(1.4143646408839778, 1.4143646408839778)"><g>
<g xmlns="http://www.w3.org/2000/svg" stroke-width="2.00" fill="none" stroke-linecap="butt">
<path stroke="#8cdac2" d="M 1102.47 341.66   Q 1098.39 337.24 1090.42 327.48   C 1082.74 318.07 1076.88 311.86 1069.60 303.26   Q 1064.18 296.84 1060.29 293.90   C 1048.64 285.10 1031.45 284.50 1019.35 293.40   Q 1006.59 302.78 1004.75 318.24   C 1003.56 328.19 1006.62 338.31 1013.50 345.33   Q 1045.66 378.20 1063.88 400.09   C 1069.82 407.22 1075.04 414.44 1081.28 418.41   C 1094.72 426.96 1114.17 427.30 1126.46 416.21   Q 1129.29 413.65 1132.97 409.47   Q 1135.67 406.39 1146.27 393.03   Q 1181.64 348.41 1192.49 334.98   Q 1208.34 315.36 1228.89 292.39   Q 1246.41 272.79 1264.90 257.13   Q 1271.58 251.48 1273.35 249.10   C 1285.96 232.21 1281.78 208.90 1264.70 197.60   C 1252.62 189.61 1236.16 190.38 1225.01 199.75   Q 1222.98 201.45 1219.79 204.54   Q 1188.65 234.66 1161.94 267.43   C 1144.86 288.38 1131.55 305.78 1108.37 336.11   Q 1106.25 338.89 1103.74 341.66   A 0.86 0.85 -44.8 0 1 1102.47 341.66"/>
<path stroke="#9d99b8" d="M 377.89 675.76   C 363.64 669.39 349.85 661.11 341.95 647.08   Q 337.13 638.52 335.37 633.38   Q 329.95 617.62 327.95 600.26   Q 326.35 586.37 325.11 574.68   C 323.43 558.79 314.67 541.77 297.60 538.42   C 274.07 533.79 251.52 552.63 242.65 572.64   Q 228.56 604.44 235.51 638.64   A 0.95 0.94 -6.0 0 1 234.59 639.77   Q 212.75 639.95 195.18 652.71   Q 191.17 655.62 188.03 659.52   C 173.92 677.00 166.48 700.13 164.67 722.60   Q 160.69 771.79 179.70 816.11   C 187.20 833.57 197.96 847.90 213.73 858.39   C 221.00 863.23 229.10 866.04 237.99 867.28   Q 238.18 867.31 249.12 868.49   A 11.39 11.36 60.3 0 1 252.57 869.44   Q 270.50 877.68 295.48 885.13   Q 328.60 895.00 362.54 893.73   Q 392.25 892.62 420.27 881.00   A 0.81 0.80 65.3 0 1 421.30 881.39   C 428.64 896.45 433.77 907.43 441.80 919.98   Q 451.68 935.41 453.22 937.61   C 465.89 955.63 481.85 974.58 499.09 990.28   C 515.34 1005.09 530.71 1017.34 548.54 1029.20   C 556.38 1034.41 567.29 1039.75 575.81 1044.85   A 0.91 0.90 -54.8 0 1 576.04 1046.21   C 563.06 1061.69 556.21 1083.71 565.49 1102.84   C 576.23 1124.97 598.94 1133.23 622.07 1123.17   A 2.43 2.43 0.0 0 1 624.46 1123.43   Q 642.70 1136.51 662.18 1130.15   C 684.66 1122.82 694.03 1101.36 691.09 1079.05   A 0.35 0.34 89.9 0 1 691.47 1078.66   Q 727.16 1082.68 762.79 1078.64   A 0.53 0.52 1.6 0 1 763.37 1079.25   C 759.33 1102.89 771.49 1124.61 795.10 1131.18   C 806.79 1134.44 818.46 1130.86 828.31 1123.89   A 4.30 4.28 -52.3 0 1 832.30 1123.37   C 839.98 1126.25 847.06 1127.78 855.95 1127.11   C 870.97 1125.98 883.26 1115.71 889.19 1102.15   Q 893.54 1092.20 892.68 1079.76   Q 891.32 1060.08 877.48 1046.19   A 1.12 1.11 -38.2 0 1 877.69 1044.45   Q 892.64 1035.43 901.77 1030.20   C 907.11 1027.14 913.82 1022.18 917.08 1019.58   Q 921.94 1015.71 933.94 1006.08   C 943.52 998.39 950.44 991.99 958.39 983.77   A 5.93 5.88 14.1 0 1 961.07 982.18   C 971.86 979.18 983.17 976.18 993.85 970.84   C 1007.80 963.87 1022.17 956.36 1034.86 946.76   Q 1070.76 919.59 1093.00 881.91   C 1109.20 854.46 1118.04 826.11 1121.40 794.94   Q 1123.45 775.89 1119.91 751.29   Q 1116.90 730.36 1110.42 713.01   Q 1104.43 696.94 1093.98 678.73   C 1087.02 666.61 1078.09 656.73 1069.08 646.49   A 4.07 4.05 22.8 0 1 1068.08 644.05   C 1066.38 614.43 1060.03 586.93 1051.79 556.93   Q 1048.13 543.62 1039.55 522.26   C 1034.89 510.65 1028.81 499.31 1021.43 483.74   Q 1018.25 477.04 1014.27 471.21   Q 1006.85 460.34 1000.99 451.40   Q 994.35 441.27 986.95 432.11   Q 956.26 394.13 917.54 365.62   C 906.69 357.63 892.87 349.40 882.78 343.48   Q 871.12 336.65 856.58 330.19   Q 809.67 309.34 758.45 303.61   C 715.92 298.86 672.51 303.18 632.62 315.21   Q 609.20 322.27 589.14 331.17   C 571.65 338.94 555.83 348.80 539.85 359.41   C 515.90 375.34 495.09 394.57 475.35 415.65   Q 470.92 420.38 461.50 432.25   C 450.74 445.81 442.48 457.20 433.44 472.56   Q 428.29 481.30 421.35 493.61   Q 421.07 494.11 416.67 503.28   Q 414.14 508.55 412.38 513.12   C 409.14 521.57 404.27 532.64 400.92 542.22   C 392.58 566.05 386.87 591.58 382.99 615.52   Q 378.47 643.38 378.65 675.27   A 0.54 0.54 0.0 0 1 377.89 675.76"/>
<path stroke="#5351ab" d="M 402.31 641.13   L 401.71 658.12"/>
<path stroke="#4743a1" d="M 401.71 658.12   Q 399.76 688.22 401.60 718.25   C 402.98 740.67 407.22 762.04 411.72 784.14   Q 415.32 801.79 419.59 815.28   Q 424.51 830.84 429.82 843.31   Q 430.88 845.82 436.34 859.95   Q 440.75 871.38 443.51 876.28   C 448.72 885.48 453.86 894.38 458.47 903.80   Q 461.10 909.18 463.55 912.52   Q 474.45 927.29 482.32 938.45   Q 484.16 941.06 485.86 943.06   C 489.44 947.28 491.64 950.30 495.42 953.85   Q 506.46 964.23 515.45 976.25   A 1.20 1.02 86.5 0 0 515.68 976.49   L 520.49 980.04   A 1.26 1.26 0.0 0 1 520.72 980.27   Q 523.25 983.68 526.73 985.55"/>
<path stroke="#5351ab" d="M 526.73 985.55   Q 533.35 990.70 539.85 995.59   C 550.80 1003.84 564.71 1011.97 573.22 1017.72   Q 580.29 1022.50 585.16 1024.77   C 596.20 1029.93 605.88 1033.65 618.44 1038.72   Q 629.12 1043.04 639.46 1045.79   Q 669.68 1053.84 695.24 1056.35   Q 729.32 1059.69 765.95 1055.55   Q 775.07 1054.51 789.12 1051.62   Q 803.80 1048.61 812.03 1046.30   Q 828.60 1041.67 846.96 1033.66   Q 853.35 1030.87 860.49 1027.74   C 869.91 1023.62 878.33 1018.92 886.27 1013.49   Q 897.20 1006.02 901.82 1003.31   C 904.57 1001.71 906.93 999.83 910.21 997.57   A 4.54 4.50 2.9 0 0 911.07 996.80   Q 912.42 995.22 914.03 994.61   A 2.85 2.85 0.0 0 0 914.88 994.10   L 927.24 983.06"/>
<path stroke="#4743a1" d="M 927.24 983.06   Q 941.91 970.39 954.74 955.04   Q 959.10 949.82 966.93 940.66   Q 973.36 933.14 977.78 926.23   Q 993.98 900.91 998.86 891.85   Q 1000.74 888.35 1007.00 875.26   C 1012.11 864.58 1015.20 855.80 1019.77 845.21   Q 1022.25 839.47 1024.61 831.92   Q 1031.96 808.35 1034.54 796.56   Q 1039.85 772.36 1042.52 756.02   C 1046.94 728.97 1047.50 701.14 1047.39 671.75   Q 1047.37 667.55 1046.85 660.94"/>
<path stroke="#5351ab" d="M 1046.85 660.94   L 1045.13 636.82"/>
<path stroke="#6564b0" d="M 1045.13 636.82   C 1044.27 626.79 1041.90 613.17 1041.15 607.08   Q 1040.49 601.71 1039.26 597.48   C 1038.62 595.29 1038.11 589.15 1036.40 584.32   C 1035.34 581.36 1035.00 578.82 1033.82 575.44   C 1030.78 566.78 1027.58 554.82 1023.60 544.68   Q 1021.01 538.07 1019.27 532.73   Q 1014.33 517.52 1006.39 503.96   Q 1000.97 494.70 999.09 491.20   Q 992.06 478.14 990.37 475.37   Q 984.37 465.58 981.99 462.75   Q 973.72 452.97 965.23 441.44   Q 959.75 434.01 953.35 427.32   C 938.12 411.41 924.74 398.11 907.66 385.92   Q 893.49 375.80 886.97 371.58   Q 877.45 365.41 858.41 355.88   C 807.99 330.68 748.89 319.46 692.07 325.86   C 672.42 328.07 651.53 332.95 631.60 338.68   C 620.12 341.99 609.47 346.15 598.92 351.78   C 591.20 355.90 582.43 359.77 573.65 363.92   C 569.40 365.93 565.31 368.62 561.90 370.48   A 5.14 5.00 8.9 0 0 561.08 371.06   Q 554.99 376.52 545.88 382.39   C 534.43 389.77 523.65 399.05 513.34 408.50   Q 502.88 418.07 499.75 421.75   Q 488.28 435.20 477.49 447.50   C 473.78 451.73 469.28 457.41 465.92 463.42   Q 459.77 474.43 450.70 486.69   Q 449.14 488.82 448.35 490.31   C 446.53 493.78 444.90 496.17 443.52 499.98   Q 439.75 510.32 433.15 522.44   Q 429.31 529.47 429.17 529.95   Q 428.88 530.97 427.52 533.39   A 1.08 1.02 69.9 0 0 427.40 533.67   Q 426.14 538.10 425.16 540.34   C 423.13 545.00 422.71 548.21 421.12 554.04   Q 420.35 556.86 418.96 561.28   Q 410.21 589.20 406.19 611.98   Q 404.35 622.37 402.31 641.13"/>
<path stroke="#7d82ea" d="M 1045.13 636.82   Q 1044.17 635.15 1043.96 633.78   Q 1042.32 622.74 1039.74 612.72   C 1038.83 609.18 1036.49 605.34 1035.39 601.30   Q 1030.31 582.62 1027.33 569.55   A 18.78 18.67 -64.4 0 0 1025.94 565.57   Q 1022.66 558.79 1019.62 550.71   Q 1016.77 543.12 1011.78 534.02   Q 1004.93 521.52 1003.34 518.93   Q 999.65 512.93 997.01 507.93   Q 992.49 499.38 990.79 496.80   Q 984.58 487.36 973.78 474.16   C 970.95 470.70 969.20 466.82 966.16 463.32   C 957.90 453.82 951.99 448.38 942.52 439.15   Q 916.14 413.43 880.64 393.19   Q 851.86 376.78 818.68 365.77   Q 762.17 347.03 701.95 351.70   Q 673.64 353.89 653.94 358.82   Q 644.20 361.25 634.72 364.17   C 621.33 368.30 611.16 371.42 599.49 376.76   Q 589.38 381.38 576.45 387.95   Q 552.11 400.30 531.17 416.94   Q 512.50 431.78 497.75 446.01   Q 490.25 453.24 482.04 464.87   A 9.23 9.09 -4.8 0 1 480.94 466.15   Q 479.00 468.01 471.33 475.58   Q 468.01 478.87 465.97 482.70   C 462.31 489.60 457.81 495.79 454.20 502.63   Q 452.20 506.43 448.29 510.76   C 445.72 513.59 443.22 518.11 441.86 521.08   Q 440.21 524.69 437.45 532.24   Q 436.17 535.73 435.03 537.85   C 432.38 542.80 431.21 546.91 428.50 551.75   Q 428.32 552.06 424.44 559.66   Q 422.76 562.94 422.56 563.71   Q 421.84 566.46 421.09 567.96   Q 420.13 569.85 419.08 574.35   Q 417.45 581.35 414.44 590.78   C 411.72 599.33 410.03 608.71 407.52 618.81   Q 404.87 629.46 403.71 640.40   A 0.64 0.62 -19.1 0 1 403.50 640.82   Q 403.03 641.25 402.31 641.13"/>
<path stroke="#5e60da" d="M 1046.85 660.94   Q 1046.82 675.63 1046.08 679.46   Q 1044.29 688.71 1041.77 707.10   Q 1039.52 723.44 1034.20 747.60   C 1031.89 758.07 1027.63 770.31 1024.01 781.00   C 1015.13 807.27 999.77 836.74 985.96 858.10   C 980.12 867.14 973.53 875.46 967.17 884.04   C 962.79 889.95 958.69 894.30 953.69 900.19   Q 946.81 908.31 935.84 918.29   Q 929.92 923.68 927.84 925.89   Q 925.64 928.23 920.24 933.94   A 1.41 1.38 67.2 0 0 919.86 934.90   C 919.88 936.22 919.83 937.49 920.22 939.05   Q 922.57 948.46 922.87 950.23   Q 924.87 961.91 927.24 983.06"/>
<path stroke="#5e60da" d="M 526.73 985.55   Q 526.83 980.84 527.73 976.13   Q 529.41 967.30 529.48 966.81   Q 530.79 956.69 533.05 947.33   C 533.80 944.19 535.24 941.59 535.16 938.55   A 1.16 1.16 0.0 0 0 534.74 937.68   Q 528.02 931.98 524.78 929.34   Q 518.81 924.47 515.03 920.90   Q 500.74 907.42 486.88 891.03   C 481.09 884.17 474.33 874.70 469.43 868.20   C 462.05 858.43 455.87 848.67 450.39 838.37   Q 443.02 824.52 439.62 817.87   Q 436.14 811.06 428.39 792.46   Q 425.19 784.80 423.18 778.25   C 419.00 764.63 415.86 755.98 413.07 743.45   Q 408.86 724.57 408.67 722.84   Q 408.45 720.69 405.78 702.68   C 404.68 695.28 404.44 689.17 403.38 682.58   Q 402.55 677.40 402.29 670.36   Q 402.06 664.28 401.71 658.12"/>
<path stroke="#4743a1" d="M 320.46 831.45   L 316.02 838.38   A 4.37 4.16 -8.1 0 1 315.49 839.05   C 307.41 847.22 299.07 853.85 288.31 858.01   A 0.78 0.77 -46.3 0 0 288.34 859.47   Q 294.31 861.42 299.59 863.61   C 303.78 865.34 309.15 866.49 312.57 867.16   Q 318.56 868.34 332.16 870.34   C 350.80 873.08 369.18 872.42 387.36 868.57   Q 399.66 865.97 410.85 860.72   A 1.08 1.08 0.0 0 0 411.39 859.35   C 407.52 849.37 403.62 838.84 400.73 828.65   C 397.70 817.97 394.58 808.10 392.16 797.62   Q 386.44 772.84 383.00 747.01   C 381.10 732.73 379.13 716.64 378.52 700.76   A 2.20 2.19 11.6 0 0 377.26 698.86   L 356.52 689.18"/>
<path stroke="#5351ab" d="M 356.52 689.18   L 341.71 680.28   A 1.92 1.91 -8.3 0 1 341.36 680.02   Q 339.65 678.47 338.06 677.18   Q 334.19 674.06 334.02 673.87   Q 333.69 673.51 327.29 666.71   A 3.51 3.32 9.7 0 1 326.87 666.15   C 323.27 660.37 320.42 652.78 317.18 645.93   Q 315.88 643.18 314.78 639.24   Q 313.34 634.04 310.96 627.60   Q 309.25 623.00 306.83 610.22   Q 305.69 604.17 303.44 577.79   C 302.89 571.39 301.22 562.52 293.80 560.93   C 284.49 558.92 277.68 561.82 271.39 569.36   C 261.54 581.16 256.43 594.81 255.73 610.16   C 255.28 620.15 255.69 629.96 258.69 639.11   A 3.41 3.40 -3.1 0 0 261.24 641.39   Q 271.59 643.50 280.08 645.98   Q 285.05 647.43 287.76 649.01   Q 294.51 652.93 302.10 656.96   A 3.66 3.65 80.0 0 1 302.87 657.50   C 308.98 663.16 316.13 668.76 319.53 675.97   Q 322.73 682.75 323.41 686.52   Q 327.19 707.61 315.43 724.43   A 1.00 1.00 0.0 0 0 315.65 725.81   C 323.03 731.30 327.30 742.36 328.73 751.03   C 330.57 762.27 328.45 772.97 321.80 782.02   Q 319.46 785.22 318.45 786.64   A 1.59 1.58 45.8 0 0 318.43 788.44   C 322.56 794.58 324.80 800.80 325.17 808.27   C 325.61 816.88 324.76 823.59 320.46 831.45"/>
<path stroke="#5e60da" d="M 356.52 689.18   Q 355.36 699.97 354.42 710.67   Q 352.18 736.02 355.17 761.04   Q 359.09 793.72 369.56 824.93   C 371.21 829.85 371.77 832.34 368.49 836.07   C 365.17 839.85 360.15 839.91 354.94 839.92   Q 344.44 839.94 336.46 837.80   Q 329.26 835.87 320.46 831.45"/>
<path stroke="#5351ab" d="M 237.16 732.55   Q 234.93 730.51 234.79 725.76   C 234.55 718.09 240.51 713.47 248.05 715.06   C 261.97 718.01 273.20 719.89 285.96 716.94   C 294.40 714.98 300.62 711.13 301.98 702.30   Q 303.27 693.96 300.56 687.92   Q 295.66 677.01 284.60 671.43   C 271.76 664.94 257.68 662.55 242.65 661.33   Q 236.80 660.86 227.44 661.94   C 219.20 662.90 214.37 665.49 208.80 670.82   C 202.49 676.85 196.59 683.65 194.08 691.57   C 191.76 698.90 190.17 702.91 189.05 708.96   C 184.16 735.40 185.95 762.20 193.05 788.21   Q 197.45 804.35 206.84 820.93   Q 209.37 825.41 217.88 834.07   C 223.06 839.33 232.75 844.08 239.27 845.41   Q 250.58 847.70 262.45 844.43   Q 277.32 840.34 288.65 833.70   Q 296.20 829.28 300.97 821.49   C 304.55 815.64 303.72 807.09 300.89 801.46   Q 299.77 799.24 297.77 800.20   Q 284.72 806.43 270.93 807.76   Q 261.62 808.65 257.25 808.54   C 247.87 808.29 236.84 806.76 239.06 794.57   C 240.06 789.10 244.89 785.81 250.23 786.00   Q 253.46 786.11 260.27 786.65   C 267.08 787.18 276.48 784.81 284.01 782.75   C 294.08 779.99 306.91 771.65 307.32 760.53   Q 307.79 747.79 298.52 739.11   C 296.91 737.61 295.72 736.28 293.98 736.94   C 284.48 740.53 275.01 740.60 264.23 739.90   Q 255.51 739.34 244.89 736.58   Q 240.25 735.38 237.16 732.55"/>
<path stroke="#4743a1" d="M 1069.38 713.71   Q 1068.12 723.27 1067.21 732.87   Q 1065.96 745.93 1065.09 752.02   Q 1061.61 776.60 1057.85 793.42   Q 1053.56 812.60 1046.14 836.43   Q 1039.83 856.69 1031.75 874.29   C 1024.54 889.98 1015.69 908.24 1005.43 924.12   Q 997.98 935.64 990.35 945.85   Q 989.67 946.76 989.63 946.96   A 1.06 1.06 0.0 0 0 991.24 948.06   Q 995.00 945.65 998.54 944.16   A 4.23 4.13 15.9 0 0 999.26 943.77   Q 1006.71 938.81 1013.29 934.47   Q 1019.17 930.59 1024.42 926.57   Q 1033.30 919.78 1035.17 918.18   Q 1041.87 912.45 1050.46 902.79"/>
<path stroke="#5351ab" d="M 1050.46 902.79   L 1057.44 893.66   A 2.30 1.98 -2.1 0 1 1057.98 893.16   Q 1059.18 892.38 1059.45 891.45   A 2.84 2.77 -17.7 0 1 1059.97 890.47   Q 1070.01 878.42 1077.01 865.37   Q 1079.25 861.19 1080.76 857.54   C 1083.81 850.18 1086.93 844.38 1089.04 837.48   Q 1089.42 836.24 1093.42 824.36   Q 1094.97 819.77 1095.86 814.38   Q 1096.29 811.75 1097.72 804.25   Q 1098.75 798.81 1099.68 786.11   C 1100.00 781.78 1099.53 776.37 1099.44 771.66   Q 1099.33 765.34 1098.72 760.85   Q 1095.84 739.80 1089.04 719.20   Q 1088.64 717.99 1082.71 704.36   C 1079.70 697.44 1075.69 692.18 1071.25 685.07   Q 1071.03 684.71 1070.43 684.22   A 0.41 0.40 20.2 0 0 1069.77 684.52   L 1069.38 713.71"/>
<path stroke="#5e60da" d="M 1050.46 902.79   L 1049.69 902.22   A 0.53 0.53 0.0 0 1 1049.57 901.50   Q 1054.80 893.86 1057.18 885.74   Q 1061.48 871.07 1061.99 869.77   Q 1063.68 865.48 1064.99 858.66   Q 1065.89 853.99 1068.00 847.51   C 1069.03 844.38 1069.49 841.35 1070.76 837.33   Q 1071.90 833.69 1072.45 829.62   Q 1075.44 807.51 1076.09 798.95   Q 1077.72 777.51 1076.20 748.06   Q 1075.82 740.70 1071.25 718.47   A 1.27 1.24 -78.4 0 0 1070.77 717.72   L 1070.38 717.43   A 1.20 1.16 20.2 0 1 1069.90 716.43   Q 1069.96 715.01 1069.38 713.71"/>
<path stroke="#5351ab" d="M 821.49 1099.81   Q 822.76 1098.67 823.83 1097.64   C 829.88 1091.79 835.78 1097.59 841.04 1101.96   C 847.03 1106.93 856.43 1105.56 862.42 1101.64   C 872.29 1095.16 871.54 1081.42 868.40 1071.25   A 1.86 1.67 -72.9 0 0 868.21 1070.84   L 864.34 1064.88   A 0.16 0.08 26.6 0 1 864.31 1064.84   C 862.60 1062.74 857.83 1057.38 854.36 1055.81   A 1.50 1.48 46.6 0 0 853.21 1055.77   Q 828.35 1064.92 816.74 1068.23   Q 803.85 1071.90 789.02 1074.18   A 3.12 3.11 4.8 0 0 786.54 1076.27   C 783.98 1084.06 783.95 1093.98 788.59 1100.88   C 795.20 1110.71 806.89 1113.80 816.53 1105.91   A 0.95 0.93 -15.5 0 0 816.85 1105.36   Q 816.86 1105.34 816.87 1105.28   A 1.24 1.19 78.4 0 1 817.23 1104.71   Q 819.58 1102.59 821.33 1099.99   A 1.06 1.00 88.3 0 1 821.49 1099.81"/>
<path stroke="#5351ab" d="M 610.91 1102.88   Q 611.19 1102.78 613.49 1101.22   Q 615.80 1099.64 618.11 1097.69   C 622.56 1093.95 627.03 1093.99 631.09 1097.99   Q 635.85 1102.68 636.38 1103.32   Q 640.08 1107.74 642.38 1108.73   Q 652.17 1112.97 660.04 1106.63   C 669.71 1098.84 671.10 1089.13 668.05 1077.54   Q 667.29 1074.63 664.30 1074.15   Q 641.89 1070.57 620.70 1062.78   C 613.22 1060.04 609.22 1058.96 601.53 1056.45   A 3.21 3.21 0.0 0 0 598.47 1057.03   C 592.44 1062.07 587.17 1066.44 585.17 1074.28   Q 583.37 1081.31 584.55 1091.59   C 585.16 1096.91 590.88 1101.59 595.71 1103.21   Q 603.20 1105.72 610.91 1102.88"/>
<path stroke="#5351ab" d="M 652.05 691.81   Q 652.99 692.30 653.48 693.80   Q 657.52 706.27 666.58 717.14   Q 669.03 720.07 676.36 729.14   Q 686.89 742.16 701.21 750.67   Q 710.56 756.22 714.63 757.75   C 721.88 760.47 730.01 759.89 736.87 755.87   Q 749.60 748.40 753.14 746.12   Q 762.40 740.19 769.84 731.35   Q 777.09 722.72 783.59 714.36   Q 789.91 706.22 791.27 702.99   Q 793.79 696.98 796.50 690.97"/>
<path stroke="#7d82ea" d="M 796.50 690.97   L 796.06 693.21   A 0.99 0.98 28.7 0 0 796.33 694.11   Q 800.64 698.33 806.49 701.28   C 817.45 706.82 826.35 711.69 837.11 714.66   Q 855.46 719.73 875.76 720.05   Q 903.38 720.50 927.62 709.98   Q 929.00 709.38 929.87 708.91   Q 931.00 708.29 934.84 706.73   Q 938.97 705.04 946.43 700.69   Q 952.46 697.17 957.30 693.39   Q 979.22 676.31 992.42 654.97   Q 1000.89 641.26 1003.77 631.54   Q 1009.00 613.84 1009.82 609.49   Q 1013.95 587.55 1010.28 564.86   Q 1009.23 558.37 1008.01 554.49   C 1005.38 546.12 1004.50 539.40 1000.82 531.69   Q 995.97 521.52 994.90 519.61   Q 993.92 517.88 983.67 503.70   Q 977.66 495.38 974.31 491.86   Q 966.51 483.66 963.20 481.07   Q 962.43 480.47 957.46 477.28   C 951.55 473.48 944.74 468.18 940.08 465.65   Q 913.33 451.09 881.90 449.55   Q 860.31 448.50 838.87 454.80   Q 812.33 462.60 792.03 479.01   Q 771.51 495.58 759.42 516.37   Q 743.00 544.62 740.37 578.52   Q 739.69 587.27 740.71 594.00   Q 741.80 601.15 741.83 605.80"/>
<path stroke="#5351ab" d="M 741.83 605.80   Q 738.04 605.42 733.74 605.00   Q 720.06 603.66 706.47 605.68"/>
<path stroke="#7d82ea" d="M 706.47 605.68   Q 707.03 596.90 707.83 587.88   Q 708.08 585.05 707.34 574.29   C 705.85 552.85 698.65 532.10 687.39 513.69   C 674.83 493.16 657.49 477.32 636.40 466.09   Q 624.15 459.57 617.07 456.96   Q 602.33 451.52 584.79 450.00   Q 541.05 446.22 503.36 468.62   Q 492.62 475.01 486.14 480.50   Q 483.58 482.66 482.19 484.32   C 479.10 488.02 475.56 490.27 472.38 493.96   Q 466.34 500.97 462.90 504.98   C 460.78 507.46 457.92 511.65 456.71 514.24   Q 451.42 525.55 448.14 531.54   C 441.65 543.38 438.90 553.73 437.61 567.88   C 436.05 585.02 436.54 598.91 439.29 614.08   Q 440.28 619.54 443.74 629.26   Q 448.68 643.13 455.31 653.20   C 462.10 663.52 467.26 671.92 475.53 679.98   Q 493.69 697.68 517.63 708.69   C 544.78 721.16 575.14 722.75 604.26 716.44   Q 616.91 713.70 625.47 709.72   Q 635.40 705.10 648.85 697.35   Q 652.76 695.10 652.05 691.81"/>
<path stroke="#6564b0" d="M 706.47 605.68   L 681.30 614.58"/>
<path stroke="#c7caf7" d="M 681.30 614.58   Q 681.21 612.86 681.55 611.81   C 683.77 604.87 685.13 598.13 685.16 590.27   Q 685.20 582.21 685.09 578.26   C 684.74 565.35 682.38 552.46 676.94 539.91   Q 670.43 524.92 663.57 515.44   C 640.51 483.62 601.61 466.05 562.54 470.31   Q 545.55 472.17 531.92 478.44   Q 517.29 485.18 513.99 487.52   Q 471.90 517.31 464.62 567.53   Q 460.33 597.15 472.25 626.79   Q 473.29 629.37 475.37 633.14   C 478.20 638.25 480.88 643.82 484.06 648.52   Q 503.54 677.24 536.30 690.19   C 569.35 703.25 607.16 697.84 636.25 678.00   Q 641.38 674.50 644.41 670.08"/>
<path stroke="#6564b0" d="M 644.41 670.08   Q 646.83 680.92 652.05 691.81"/>
<path stroke="#9d99b8" d="M 681.30 614.58   Q 671.81 618.44 664.32 626.06   Q 660.33 630.11 655.38 636.35   Q 643.62 651.17 644.41 670.08"/>
<path stroke="#6564b0" d="M 796.50 690.97   Q 801.00 681.64 803.33 670.97"/>
<path stroke="#c7caf7" d="M 803.33 670.97   Q 809.66 676.10 812.15 677.84   C 842.70 699.28 882.27 703.38 916.30 688.24   C 926.13 683.87 934.91 679.15 942.55 672.31   C 959.29 657.34 973.08 637.78 979.29 616.81   Q 981.62 608.91 983.43 595.89   Q 984.91 585.18 984.18 574.68   Q 982.19 545.97 967.01 522.10   Q 962.60 515.17 956.63 507.88   C 949.92 499.69 942.56 494.15 933.81 488.09   C 919.18 477.95 901.65 472.07 884.01 470.23   C 861.77 467.92 839.83 472.89 820.16 483.69   Q 809.62 489.48 801.42 497.04   C 792.31 505.44 783.90 515.02 777.92 525.66   Q 758.71 559.91 763.78 599.23   Q 764.75 606.80 767.91 615.16"/>
<path stroke="#6564b0" d="M 767.91 615.16   Q 760.91 612.90 754.12 609.65   Q 751.53 608.41 741.83 605.80"/>
<path stroke="#9d99b8" d="M 803.33 670.97   Q 804.84 655.78 796.75 642.25   Q 786.11 624.45 767.91 615.16"/>
<path stroke="#7d82ea" d="M 537.13 938.87   Q 539.36 941.43 542.48 943.78   C 551.24 950.35 555.72 954.27 563.94 959.13   Q 571.71 963.72 578.19 967.54   Q 590.12 974.57 610.82 983.63   Q 628.80 991.51 649.71 996.76   Q 666.37 1000.94 679.77 1003.02   Q 732.57 1011.25 785.54 1000.30   Q 793.51 998.65 804.06 995.59   Q 850.65 982.08 890.13 955.39   Q 905.31 945.12 917.57 936.43   A 3.12 3.12 0.0 0 0 918.88 933.95   Q 918.90 933.07 917.94 930.52   Q 913.94 919.95 909.56 909.44   C 907.15 903.67 905.04 899.76 901.64 893.14   Q 898.14 886.33 894.87 881.33   C 877.54 854.80 854.09 831.17 826.50 815.31   Q 806.01 803.53 788.03 798.03   Q 763.64 790.57 735.05 789.14   Q 718.36 788.30 701.31 790.85   C 683.94 793.45 666.57 797.38 650.85 804.39   Q 581.80 835.19 548.65 902.37   C 543.66 912.48 540.51 922.55 537.28 932.76   Q 536.28 935.90 536.34 937.88   Q 536.36 938.31 536.53 938.53   Q 536.75 938.82 537.13 938.87"/>
<path stroke="#9d99b8" d="M 576.2111 514.9876   A 68.27 67.17 -91.3 0 0 510.6073 584.7639   A 68.27 67.17 -91.3 0 0 579.3089 651.4924   A 68.27 67.17 -91.3 0 0 644.9127 581.7161   A 68.27 67.17 -91.3 0 0 576.2111 514.9876"/>
<path stroke="#9d99b8" d="M 872.1547 515.0200   A 68.25 67.31 -88.3 0 0 802.8496 581.2432   A 68.25 67.31 -88.3 0 0 868.1053 651.4600   A 68.25 67.31 -88.3 0 0 937.4104 585.2368   A 68.25 67.31 -88.3 0 0 872.1547 515.0200"/>
<path stroke="#9d99b8" d="M 623.72 556.86   A 19.36 19.36 0.0 0 0 604.36 537.50   A 19.36 19.36 0.0 0 0 585.00 556.86   A 19.36 19.36 0.0 0 0 604.36 576.22   A 19.36 19.36 0.0 0 0 623.72 556.86"/>
<path stroke="#9d99b8" d="M 916.96 556.94   A 19.39 19.39 0.0 0 0 897.57 537.55   A 19.39 19.39 0.0 0 0 878.18 556.94   A 19.39 19.39 0.0 0 0 897.57 576.33   A 19.39 19.39 0.0 0 0 916.96 556.94"/>
<path stroke="#966979" d="M 724.01 699.12   Q 726.89 699.13 729.00 698.47   C 745.02 693.47 757.55 686.20 775.23 676.50   Q 781.22 673.21 784.23 670.48   C 786.72 668.23 786.50 665.12 785.96 662.03   Q 784.14 651.48 776.75 642.99   C 772.72 638.36 765.36 633.50 759.91 630.38   C 749.00 624.14 737.08 621.34 724.19 621.31   C 711.30 621.28 699.37 624.02 688.43 630.21   C 682.96 633.31 675.58 638.13 671.52 642.74   Q 664.09 651.20 662.23 661.74   C 661.67 664.83 661.44 667.94 663.92 670.20   Q 666.91 672.94 672.89 676.26   C 690.52 686.04 703.02 693.37 719.02 698.45   Q 721.12 699.12 724.01 699.12"/>
<path stroke="#966979" d="M 774.33 696.25   Q 772.26 697.20 769.95 698.79   A 5.79 5.74 15.5 0 1 769.11 699.26   Q 757.41 704.69 747.10 709.56   Q 736.70 714.49 727.52 715.99   C 720.33 717.17 711.33 714.29 704.61 711.33   Q 691.95 705.74 674.64 696.69   A 0.51 0.51 0.0 0 0 673.90 697.15   Q 673.91 697.41 673.96 697.51   Q 686.84 720.22 708.47 735.77   C 713.35 739.27 721.63 743.52 727.75 741.66   Q 734.83 739.52 741.61 734.35   C 754.52 724.51 766.84 711.39 774.65 696.58   A 0.24 0.24 0.0 0 0 774.33 696.25"/>
</g>

<path xmlns="http://www.w3.org/2000/svg" fill="#19b484" d="M 1102.47 341.66   A 0.86 0.85 -44.8 0 0 1103.74 341.66   Q 1106.25 338.89 1108.37 336.11   C 1131.55 305.78 1144.86 288.38 1161.94 267.43   Q 1188.65 234.66 1219.79 204.54   Q 1222.98 201.45 1225.01 199.75   C 1236.16 190.38 1252.62 189.61 1264.70 197.60   C 1281.78 208.90 1285.96 232.21 1273.35 249.10   Q 1271.58 251.48 1264.90 257.13   Q 1246.41 272.79 1228.89 292.39   Q 1208.34 315.36 1192.49 334.98   Q 1181.64 348.41 1146.27 393.03   Q 1135.67 406.39 1132.97 409.47   Q 1129.29 413.65 1126.46 416.21   C 1114.17 427.30 1094.72 426.96 1081.28 418.41   C 1075.04 414.44 1069.82 407.22 1063.88 400.09   Q 1045.66 378.20 1013.50 345.33   C 1006.62 338.31 1003.56 328.19 1004.75 318.24   Q 1006.59 302.78 1019.35 293.40   C 1031.45 284.50 1048.64 285.10 1060.29 293.90   Q 1064.18 296.84 1069.60 303.26   C 1076.88 311.86 1082.74 318.07 1090.42 327.48   Q 1098.39 337.24 1102.47 341.66   Z"/>
<path xmlns="http://www.w3.org/2000/svg" fill="#3b3371" d="M 377.89 675.76   A 0.54 0.54 0.0 0 0 378.65 675.27   Q 378.47 643.38 382.99 615.52   C 386.87 591.58 392.58 566.05 400.92 542.22   C 404.27 532.64 409.14 521.57 412.38 513.12   Q 414.14 508.55 416.67 503.28   Q 421.07 494.11 421.35 493.61   Q 428.29 481.30 433.44 472.56   C 442.48 457.20 450.74 445.81 461.50 432.25   Q 470.92 420.38 475.35 415.65   C 495.09 394.57 515.90 375.34 539.85 359.41   C 555.83 348.80 571.65 338.94 589.14 331.17   Q 609.20 322.27 632.62 315.21   C 672.51 303.18 715.92 298.86 758.45 303.61   Q 809.67 309.34 856.58 330.19   Q 871.12 336.65 882.78 343.48   C 892.87 349.40 906.69 357.63 917.54 365.62   Q 956.26 394.13 986.95 432.11   Q 994.35 441.27 1000.99 451.40   Q 1006.85 460.34 1014.27 471.21   Q 1018.25 477.04 1021.43 483.74   C 1028.81 499.31 1034.89 510.65 1039.55 522.26   Q 1048.13 543.62 1051.79 556.93   C 1060.03 586.93 1066.38 614.43 1068.08 644.05   A 4.07 4.05 22.8 0 0 1069.08 646.49   C 1078.09 656.73 1087.02 666.61 1093.98 678.73   Q 1104.43 696.94 1110.42 713.01   Q 1116.90 730.36 1119.91 751.29   Q 1123.45 775.89 1121.40 794.94   C 1118.04 826.11 1109.20 854.46 1093.00 881.91   Q 1070.76 919.59 1034.86 946.76   C 1022.17 956.36 1007.80 963.87 993.85 970.84   C 983.17 976.18 971.86 979.18 961.07 982.18   A 5.93 5.88 14.1 0 0 958.39 983.77   C 950.44 991.99 943.52 998.39 933.94 1006.08   Q 921.94 1015.71 917.08 1019.58   C 913.82 1022.18 907.11 1027.14 901.77 1030.20   Q 892.64 1035.43 877.69 1044.45   A 1.12 1.11 -38.2 0 0 877.48 1046.19   Q 891.32 1060.08 892.68 1079.76   Q 893.54 1092.20 889.19 1102.15   C 883.26 1115.71 870.97 1125.98 855.95 1127.11   C 847.06 1127.78 839.98 1126.25 832.30 1123.37   A 4.30 4.28 -52.3 0 0 828.31 1123.89   C 818.46 1130.86 806.79 1134.44 795.10 1131.18   C 771.49 1124.61 759.33 1102.89 763.37 1079.25   A 0.53 0.52 1.6 0 0 762.79 1078.64   Q 727.16 1082.68 691.47 1078.66   A 0.35 0.34 89.9 0 0 691.09 1079.05   C 694.03 1101.36 684.66 1122.82 662.18 1130.15   Q 642.70 1136.51 624.46 1123.43   A 2.43 2.43 0.0 0 0 622.07 1123.17   C 598.94 1133.23 576.23 1124.97 565.49 1102.84   C 556.21 1083.71 563.06 1061.69 576.04 1046.21   A 0.91 0.90 -54.8 0 0 575.81 1044.85   C 567.29 1039.75 556.38 1034.41 548.54 1029.20   C 530.71 1017.34 515.34 1005.09 499.09 990.28   C 481.85 974.58 465.89 955.63 453.22 937.61   Q 451.68 935.41 441.80 919.98   C 433.77 907.43 428.64 896.45 421.30 881.39   A 0.81 0.80 65.3 0 0 420.27 881.00   Q 392.25 892.62 362.54 893.73   Q 328.60 895.00 295.48 885.13   Q 270.50 877.68 252.57 869.44   A 11.39 11.36 60.3 0 0 249.12 868.49   Q 238.18 867.31 237.99 867.28   C 229.10 866.04 221.00 863.23 213.73 858.39   C 197.96 847.90 187.20 833.57 179.70 816.11   Q 160.69 771.79 164.67 722.60   C 166.48 700.13 173.92 677.00 188.03 659.52   Q 191.17 655.62 195.18 652.71   Q 212.75 639.95 234.59 639.77   A 0.95 0.94 -6.0 0 0 235.51 638.64   Q 228.56 604.44 242.65 572.64   C 251.52 552.63 274.07 533.79 297.60 538.42   C 314.67 541.77 323.43 558.79 325.11 574.68   Q 326.35 586.37 327.95 600.26   Q 329.95 617.62 335.37 633.38   Q 337.13 638.52 341.95 647.08   C 349.85 661.11 363.64 669.39 377.89 675.76   Z   M 402.31 641.13   L 401.71 658.12   Q 399.76 688.22 401.60 718.25   C 402.98 740.67 407.22 762.04 411.72 784.14   Q 415.32 801.79 419.59 815.28   Q 424.51 830.84 429.82 843.31   Q 430.88 845.82 436.34 859.95   Q 440.75 871.38 443.51 876.28   C 448.72 885.48 453.86 894.38 458.47 903.80   Q 461.10 909.18 463.55 912.52   Q 474.45 927.29 482.32 938.45   Q 484.16 941.06 485.86 943.06   C 489.44 947.28 491.64 950.30 495.42 953.85   Q 506.46 964.23 515.45 976.25   A 1.20 1.02 86.5 0 0 515.68 976.49   L 520.49 980.04   A 1.26 1.26 0.0 0 1 520.72 980.27   Q 523.25 983.68 526.73 985.55   Q 533.35 990.70 539.85 995.59   C 550.80 1003.84 564.71 1011.97 573.22 1017.72   Q 580.29 1022.50 585.16 1024.77   C 596.20 1029.93 605.88 1033.65 618.44 1038.72   Q 629.12 1043.04 639.46 1045.79   Q 669.68 1053.84 695.24 1056.35   Q 729.32 1059.69 765.95 1055.55   Q 775.07 1054.51 789.12 1051.62   Q 803.80 1048.61 812.03 1046.30   Q 828.60 1041.67 846.96 1033.66   Q 853.35 1030.87 860.49 1027.74   C 869.91 1023.62 878.33 1018.92 886.27 1013.49   Q 897.20 1006.02 901.82 1003.31   C 904.57 1001.71 906.93 999.83 910.21 997.57   A 4.54 4.50 2.9 0 0 911.07 996.80   Q 912.42 995.22 914.03 994.61   A 2.85 2.85 0.0 0 0 914.88 994.10   L 927.24 983.06   Q 941.91 970.39 954.74 955.04   Q 959.10 949.82 966.93 940.66   Q 973.36 933.14 977.78 926.23   Q 993.98 900.91 998.86 891.85   Q 1000.74 888.35 1007.00 875.26   C 1012.11 864.58 1015.20 855.80 1019.77 845.21   Q 1022.25 839.47 1024.61 831.92   Q 1031.96 808.35 1034.54 796.56   Q 1039.85 772.36 1042.52 756.02   C 1046.94 728.97 1047.50 701.14 1047.39 671.75   Q 1047.37 667.55 1046.85 660.94   L 1045.13 636.82   C 1044.27 626.79 1041.90 613.17 1041.15 607.08   Q 1040.49 601.71 1039.26 597.48   C 1038.62 595.29 1038.11 589.15 1036.40 584.32   C 1035.34 581.36 1035.00 578.82 1033.82 575.44   C 1030.78 566.78 1027.58 554.82 1023.60 544.68   Q 1021.01 538.07 1019.27 532.73   Q 1014.33 517.52 1006.39 503.96   Q 1000.97 494.70 999.09 491.20   Q 992.06 478.14 990.37 475.37   Q 984.37 465.58 981.99 462.75   Q 973.72 452.97 965.23 441.44   Q 959.75 434.01 953.35 427.32   C 938.12 411.41 924.74 398.11 907.66 385.92   Q 893.49 375.80 886.97 371.58   Q 877.45 365.41 858.41 355.88   C 807.99 330.68 748.89 319.46 692.07 325.86   C 672.42 328.07 651.53 332.95 631.60 338.68   C 620.12 341.99 609.47 346.15 598.92 351.78   C 591.20 355.90 582.43 359.77 573.65 363.92   C 569.40 365.93 565.31 368.62 561.90 370.48   A 5.14 5.00 8.9 0 0 561.08 371.06   Q 554.99 376.52 545.88 382.39   C 534.43 389.77 523.65 399.05 513.34 408.50   Q 502.88 418.07 499.75 421.75   Q 488.28 435.20 477.49 447.50   C 473.78 451.73 469.28 457.41 465.92 463.42   Q 459.77 474.43 450.70 486.69   Q 449.14 488.82 448.35 490.31   C 446.53 493.78 444.90 496.17 443.52 499.98   Q 439.75 510.32 433.15 522.44   Q 429.31 529.47 429.17 529.95   Q 428.88 530.97 427.52 533.39   A 1.08 1.02 69.9 0 0 427.40 533.67   Q 426.14 538.10 425.16 540.34   C 423.13 545.00 422.71 548.21 421.12 554.04   Q 420.35 556.86 418.96 561.28   Q 410.21 589.20 406.19 611.98   Q 404.35 622.37 402.31 641.13   Z   M 320.46 831.45   L 316.02 838.38   A 4.37 4.16 -8.1 0 1 315.49 839.05   C 307.41 847.22 299.07 853.85 288.31 858.01   A 0.78 0.77 -46.3 0 0 288.34 859.47   Q 294.31 861.42 299.59 863.61   C 303.78 865.34 309.15 866.49 312.57 867.16   Q 318.56 868.34 332.16 870.34   C 350.80 873.08 369.18 872.42 387.36 868.57   Q 399.66 865.97 410.85 860.72   A 1.08 1.08 0.0 0 0 411.39 859.35   C 407.52 849.37 403.62 838.84 400.73 828.65   C 397.70 817.97 394.58 808.10 392.16 797.62   Q 386.44 772.84 383.00 747.01   C 381.10 732.73 379.13 716.64 378.52 700.76   A 2.20 2.19 11.6 0 0 377.26 698.86   L 356.52 689.18   L 341.71 680.28   A 1.92 1.91 -8.3 0 1 341.36 680.02   Q 339.65 678.47 338.06 677.18   Q 334.19 674.06 334.02 673.87   Q 333.69 673.51 327.29 666.71   A 3.51 3.32 9.7 0 1 326.87 666.15   C 323.27 660.37 320.42 652.78 317.18 645.93   Q 315.88 643.18 314.78 639.24   Q 313.34 634.04 310.96 627.60   Q 309.25 623.00 306.83 610.22   Q 305.69 604.17 303.44 577.79   C 302.89 571.39 301.22 562.52 293.80 560.93   C 284.49 558.92 277.68 561.82 271.39 569.36   C 261.54 581.16 256.43 594.81 255.73 610.16   C 255.28 620.15 255.69 629.96 258.69 639.11   A 3.41 3.40 -3.1 0 0 261.24 641.39   Q 271.59 643.50 280.08 645.98   Q 285.05 647.43 287.76 649.01   Q 294.51 652.93 302.10 656.96   A 3.66 3.65 80.0 0 1 302.87 657.50   C 308.98 663.16 316.13 668.76 319.53 675.97   Q 322.73 682.75 323.41 686.52   Q 327.19 707.61 315.43 724.43   A 1.00 1.00 0.0 0 0 315.65 725.81   C 323.03 731.30 327.30 742.36 328.73 751.03   C 330.57 762.27 328.45 772.97 321.80 782.02   Q 319.46 785.22 318.45 786.64   A 1.59 1.58 45.8 0 0 318.43 788.44   C 322.56 794.58 324.80 800.80 325.17 808.27   C 325.61 816.88 324.76 823.59 320.46 831.45   Z   M 237.16 732.55   Q 234.93 730.51 234.79 725.76   C 234.55 718.09 240.51 713.47 248.05 715.06   C 261.97 718.01 273.20 719.89 285.96 716.94   C 294.40 714.98 300.62 711.13 301.98 702.30   Q 303.27 693.96 300.56 687.92   Q 295.66 677.01 284.60 671.43   C 271.76 664.94 257.68 662.55 242.65 661.33   Q 236.80 660.86 227.44 661.94   C 219.20 662.90 214.37 665.49 208.80 670.82   C 202.49 676.85 196.59 683.65 194.08 691.57   C 191.76 698.90 190.17 702.91 189.05 708.96   C 184.16 735.40 185.95 762.20 193.05 788.21   Q 197.45 804.35 206.84 820.93   Q 209.37 825.41 217.88 834.07   C 223.06 839.33 232.75 844.08 239.27 845.41   Q 250.58 847.70 262.45 844.43   Q 277.32 840.34 288.65 833.70   Q 296.20 829.28 300.97 821.49   C 304.55 815.64 303.72 807.09 300.89 801.46   Q 299.77 799.24 297.77 800.20   Q 284.72 806.43 270.93 807.76   Q 261.62 808.65 257.25 808.54   C 247.87 808.29 236.84 806.76 239.06 794.57   C 240.06 789.10 244.89 785.81 250.23 786.00   Q 253.46 786.11 260.27 786.65   C 267.08 787.18 276.48 784.81 284.01 782.75   C 294.08 779.99 306.91 771.65 307.32 760.53   Q 307.79 747.79 298.52 739.11   C 296.91 737.61 295.72 736.28 293.98 736.94   C 284.48 740.53 275.01 740.60 264.23 739.90   Q 255.51 739.34 244.89 736.58   Q 240.25 735.38 237.16 732.55   Z   M 1069.38 713.71   Q 1068.12 723.27 1067.21 732.87   Q 1065.96 745.93 1065.09 752.02   Q 1061.61 776.60 1057.85 793.42   Q 1053.56 812.60 1046.14 836.43   Q 1039.83 856.69 1031.75 874.29   C 1024.54 889.98 1015.69 908.24 1005.43 924.12   Q 997.98 935.64 990.35 945.85   Q 989.67 946.76 989.63 946.96   A 1.06 1.06 0.0 0 0 991.24 948.06   Q 995.00 945.65 998.54 944.16   A 4.23 4.13 15.9 0 0 999.26 943.77   Q 1006.71 938.81 1013.29 934.47   Q 1019.17 930.59 1024.42 926.57   Q 1033.30 919.78 1035.17 918.18   Q 1041.87 912.45 1050.46 902.79   L 1057.44 893.66   A 2.30 1.98 -2.1 0 1 1057.98 893.16   Q 1059.18 892.38 1059.45 891.45   A 2.84 2.77 -17.7 0 1 1059.97 890.47   Q 1070.01 878.42 1077.01 865.37   Q 1079.25 861.19 1080.76 857.54   C 1083.81 850.18 1086.93 844.38 1089.04 837.48   Q 1089.42 836.24 1093.42 824.36   Q 1094.97 819.77 1095.86 814.38   Q 1096.29 811.75 1097.72 804.25   Q 1098.75 798.81 1099.68 786.11   C 1100.00 781.78 1099.53 776.37 1099.44 771.66   Q 1099.33 765.34 1098.72 760.85   Q 1095.84 739.80 1089.04 719.20   Q 1088.64 717.99 1082.71 704.36   C 1079.70 697.44 1075.69 692.18 1071.25 685.07   Q 1071.03 684.71 1070.43 684.22   A 0.41 0.40 20.2 0 0 1069.77 684.52   L 1069.38 713.71   Z   M 821.49 1099.81   Q 822.76 1098.67 823.83 1097.64   C 829.88 1091.79 835.78 1097.59 841.04 1101.96   C 847.03 1106.93 856.43 1105.56 862.42 1101.64   C 872.29 1095.16 871.54 1081.42 868.40 1071.25   A 1.86 1.67 -72.9 0 0 868.21 1070.84   L 864.34 1064.88   A 0.16 0.08 26.6 0 1 864.31 1064.84   C 862.60 1062.74 857.83 1057.38 854.36 1055.81   A 1.50 1.48 46.6 0 0 853.21 1055.77   Q 828.35 1064.92 816.74 1068.23   Q 803.85 1071.90 789.02 1074.18   A 3.12 3.11 4.8 0 0 786.54 1076.27   C 783.98 1084.06 783.95 1093.98 788.59 1100.88   C 795.20 1110.71 806.89 1113.80 816.53 1105.91   A 0.95 0.93 -15.5 0 0 816.85 1105.36   Q 816.86 1105.34 816.87 1105.28   A 1.24 1.19 78.4 0 1 817.23 1104.71   Q 819.58 1102.59 821.33 1099.99   A 1.06 1.00 88.3 0 1 821.49 1099.81   Z   M 610.91 1102.88   Q 611.19 1102.78 613.49 1101.22   Q 615.80 1099.64 618.11 1097.69   C 622.56 1093.95 627.03 1093.99 631.09 1097.99   Q 635.85 1102.68 636.38 1103.32   Q 640.08 1107.74 642.38 1108.73   Q 652.17 1112.97 660.04 1106.63   C 669.71 1098.84 671.10 1089.13 668.05 1077.54   Q 667.29 1074.63 664.30 1074.15   Q 641.89 1070.57 620.70 1062.78   C 613.22 1060.04 609.22 1058.96 601.53 1056.45   A 3.21 3.21 0.0 0 0 598.47 1057.03   C 592.44 1062.07 587.17 1066.44 585.17 1074.28   Q 583.37 1081.31 584.55 1091.59   C 585.16 1096.91 590.88 1101.59 595.71 1103.21   Q 603.20 1105.72 610.91 1102.88   Z"/>
<path xmlns="http://www.w3.org/2000/svg" fill="#8f95ef" d="M 1045.13 636.82   Q 1044.17 635.15 1043.96 633.78   Q 1042.32 622.74 1039.74 612.72   C 1038.83 609.18 1036.49 605.34 1035.39 601.30   Q 1030.31 582.62 1027.33 569.55   A 18.78 18.67 -64.4 0 0 1025.94 565.57   Q 1022.66 558.79 1019.62 550.71   Q 1016.77 543.12 1011.78 534.02   Q 1004.93 521.52 1003.34 518.93   Q 999.65 512.93 997.01 507.93   Q 992.49 499.38 990.79 496.80   Q 984.58 487.36 973.78 474.16   C 970.95 470.70 969.20 466.82 966.16 463.32   C 957.90 453.82 951.99 448.38 942.52 439.15   Q 916.14 413.43 880.64 393.19   Q 851.86 376.78 818.68 365.77   Q 762.17 347.03 701.95 351.70   Q 673.64 353.89 653.94 358.82   Q 644.20 361.25 634.72 364.17   C 621.33 368.30 611.16 371.42 599.49 376.76   Q 589.38 381.38 576.45 387.95   Q 552.11 400.30 531.17 416.94   Q 512.50 431.78 497.75 446.01   Q 490.25 453.24 482.04 464.87   A 9.23 9.09 -4.8 0 1 480.94 466.15   Q 479.00 468.01 471.33 475.58   Q 468.01 478.87 465.97 482.70   C 462.31 489.60 457.81 495.79 454.20 502.63   Q 452.20 506.43 448.29 510.76   C 445.72 513.59 443.22 518.11 441.86 521.08   Q 440.21 524.69 437.45 532.24   Q 436.17 535.73 435.03 537.85   C 432.38 542.80 431.21 546.91 428.50 551.75   Q 428.32 552.06 424.44 559.66   Q 422.76 562.94 422.56 563.71   Q 421.84 566.46 421.09 567.96   Q 420.13 569.85 419.08 574.35   Q 417.45 581.35 414.44 590.78   C 411.72 599.33 410.03 608.71 407.52 618.81   Q 404.87 629.46 403.71 640.40   A 0.64 0.62 -19.1 0 1 403.50 640.82   Q 403.03 641.25 402.31 641.13   Q 404.35 622.37 406.19 611.98   Q 410.21 589.20 418.96 561.28   Q 420.35 556.86 421.12 554.04   C 422.71 548.21 423.13 545.00 425.16 540.34   Q 426.14 538.10 427.40 533.67   A 1.08 1.02 69.9 0 1 427.52 533.39   Q 428.88 530.97 429.17 529.95   Q 429.31 529.47 433.15 522.44   Q 439.75 510.32 443.52 499.98   C 444.90 496.17 446.53 493.78 448.35 490.31   Q 449.14 488.82 450.70 486.69   Q 459.77 474.43 465.92 463.42   C 469.28 457.41 473.78 451.73 477.49 447.50   Q 488.28 435.20 499.75 421.75   Q 502.88 418.07 513.34 408.50   C 523.65 399.05 534.43 389.77 545.88 382.39   Q 554.99 376.52 561.08 371.06   A 5.14 5.00 8.9 0 1 561.90 370.48   C 565.31 368.62 569.40 365.93 573.65 363.92   C 582.43 359.77 591.20 355.90 598.92 351.78   C 609.47 346.15 620.12 341.99 631.60 338.68   C 651.53 332.95 672.42 328.07 692.07 325.86   C 748.89 319.46 807.99 330.68 858.41 355.88   Q 877.45 365.41 886.97 371.58   Q 893.49 375.80 907.66 385.92   C 924.74 398.11 938.12 411.41 953.35 427.32   Q 959.75 434.01 965.23 441.44   Q 973.72 452.97 981.99 462.75   Q 984.37 465.58 990.37 475.37   Q 992.06 478.14 999.09 491.20   Q 1000.97 494.70 1006.39 503.96   Q 1014.33 517.52 1019.27 532.73   Q 1021.01 538.07 1023.60 544.68   C 1027.58 554.82 1030.78 566.78 1033.82 575.44   C 1035.00 578.82 1035.34 581.36 1036.40 584.32   C 1038.11 589.15 1038.62 595.29 1039.26 597.48   Q 1040.49 601.71 1041.15 607.08   C 1041.90 613.17 1044.27 626.79 1045.13 636.82   Z"/>
<path xmlns="http://www.w3.org/2000/svg" fill="#6a6ee4" d="M 1045.13 636.82   L 1046.85 660.94   Q 1046.82 675.63 1046.08 679.46   Q 1044.29 688.71 1041.77 707.10   Q 1039.52 723.44 1034.20 747.60   C 1031.89 758.07 1027.63 770.31 1024.01 781.00   C 1015.13 807.27 999.77 836.74 985.96 858.10   C 980.12 867.14 973.53 875.46 967.17 884.04   C 962.79 889.95 958.69 894.30 953.69 900.19   Q 946.81 908.31 935.84 918.29   Q 929.92 923.68 927.84 925.89   Q 925.64 928.23 920.24 933.94   A 1.41 1.38 67.2 0 0 919.86 934.90   C 919.88 936.22 919.83 937.49 920.22 939.05   Q 922.57 948.46 922.87 950.23   Q 924.87 961.91 927.24 983.06   L 914.88 994.10   A 2.85 2.85 0.0 0 1 914.03 994.61   Q 912.42 995.22 911.07 996.80   A 4.54 4.50 2.9 0 1 910.21 997.57   C 906.93 999.83 904.57 1001.71 901.82 1003.31   Q 897.20 1006.02 886.27 1013.49   C 878.33 1018.92 869.91 1023.62 860.49 1027.74   Q 853.35 1030.87 846.96 1033.66   Q 828.60 1041.67 812.03 1046.30   Q 803.80 1048.61 789.12 1051.62   Q 775.07 1054.51 765.95 1055.55   Q 729.32 1059.69 695.24 1056.35   Q 669.68 1053.84 639.46 1045.79   Q 629.12 1043.04 618.44 1038.72   C 605.88 1033.65 596.20 1029.93 585.16 1024.77   Q 580.29 1022.50 573.22 1017.72   C 564.71 1011.97 550.80 1003.84 539.85 995.59   Q 533.35 990.70 526.73 985.55   Q 526.83 980.84 527.73 976.13   Q 529.41 967.30 529.48 966.81   Q 530.79 956.69 533.05 947.33   C 533.80 944.19 535.24 941.59 535.16 938.55   A 1.16 1.16 0.0 0 0 534.74 937.68   Q 528.02 931.98 524.78 929.34   Q 518.81 924.47 515.03 920.90   Q 500.74 907.42 486.88 891.03   C 481.09 884.17 474.33 874.70 469.43 868.20   C 462.05 858.43 455.87 848.67 450.39 838.37   Q 443.02 824.52 439.62 817.87   Q 436.14 811.06 428.39 792.46   Q 425.19 784.80 423.18 778.25   C 419.00 764.63 415.86 755.98 413.07 743.45   Q 408.86 724.57 408.67 722.84   Q 408.45 720.69 405.78 702.68   C 404.68 695.28 404.44 689.17 403.38 682.58   Q 402.55 677.40 402.29 670.36   Q 402.06 664.28 401.71 658.12   L 402.31 641.13   Q 403.03 641.25 403.50 640.82   A 0.64 0.62 -19.1 0 0 403.71 640.40   Q 404.87 629.46 407.52 618.81   C 410.03 608.71 411.72 599.33 414.44 590.78   Q 417.45 581.35 419.08 574.35   Q 420.13 569.85 421.09 567.96   Q 421.84 566.46 422.56 563.71   Q 422.76 562.94 424.44 559.66   Q 428.32 552.06 428.50 551.75   C 431.21 546.91 432.38 542.80 435.03 537.85   Q 436.17 535.73 437.45 532.24   Q 440.21 524.69 441.86 521.08   C 443.22 518.11 445.72 513.59 448.29 510.76   Q 452.20 506.43 454.20 502.63   C 457.81 495.79 462.31 489.60 465.97 482.70   Q 468.01 478.87 471.33 475.58   Q 479.00 468.01 480.94 466.15   A 9.23 9.09 -4.8 0 0 482.04 464.87   Q 490.25 453.24 497.75 446.01   Q 512.50 431.78 531.17 416.94   Q 552.11 400.30 576.45 387.95   Q 589.38 381.38 599.49 376.76   C 611.16 371.42 621.33 368.30 634.72 364.17   Q 644.20 361.25 653.94 358.82   Q 673.64 353.89 701.95 351.70   Q 762.17 347.03 818.68 365.77   Q 851.86 376.78 880.64 393.19   Q 916.14 413.43 942.52 439.15   C 951.99 448.38 957.90 453.82 966.16 463.32   C 969.20 466.82 970.95 470.70 973.78 474.16   Q 984.58 487.36 990.79 496.80   Q 992.49 499.38 997.01 507.93   Q 999.65 512.93 1003.34 518.93   Q 1004.93 521.52 1011.78 534.02   Q 1016.77 543.12 1019.62 550.71   Q 1022.66 558.79 1025.94 565.57   A 18.78 18.67 -64.4 0 1 1027.33 569.55   Q 1030.31 582.62 1035.39 601.30   C 1036.49 605.34 1038.83 609.18 1039.74 612.72   Q 1042.32 622.74 1043.96 633.78   Q 1044.17 635.15 1045.13 636.82   Z   M 652.05 691.81   Q 652.99 692.30 653.48 693.80   Q 657.52 706.27 666.58 717.14   Q 669.03 720.07 676.36 729.14   Q 686.89 742.16 701.21 750.67   Q 710.56 756.22 714.63 757.75   C 721.88 760.47 730.01 759.89 736.87 755.87   Q 749.60 748.40 753.14 746.12   Q 762.40 740.19 769.84 731.35   Q 777.09 722.72 783.59 714.36   Q 789.91 706.22 791.27 702.99   Q 793.79 696.98 796.50 690.97   L 796.06 693.21   A 0.99 0.98 28.7 0 0 796.33 694.11   Q 800.64 698.33 806.49 701.28   C 817.45 706.82 826.35 711.69 837.11 714.66   Q 855.46 719.73 875.76 720.05   Q 903.38 720.50 927.62 709.98   Q 929.00 709.38 929.87 708.91   Q 931.00 708.29 934.84 706.73   Q 938.97 705.04 946.43 700.69   Q 952.46 697.17 957.30 693.39   Q 979.22 676.31 992.42 654.97   Q 1000.89 641.26 1003.77 631.54   Q 1009.00 613.84 1009.82 609.49   Q 1013.95 587.55 1010.28 564.86   Q 1009.23 558.37 1008.01 554.49   C 1005.38 546.12 1004.50 539.40 1000.82 531.69   Q 995.97 521.52 994.90 519.61   Q 993.92 517.88 983.67 503.70   Q 977.66 495.38 974.31 491.86   Q 966.51 483.66 963.20 481.07   Q 962.43 480.47 957.46 477.28   C 951.55 473.48 944.74 468.18 940.08 465.65   Q 913.33 451.09 881.90 449.55   Q 860.31 448.50 838.87 454.80   Q 812.33 462.60 792.03 479.01   Q 771.51 495.58 759.42 516.37   Q 743.00 544.62 740.37 578.52   Q 739.69 587.27 740.71 594.00   Q 741.80 601.15 741.83 605.80   Q 738.04 605.42 733.74 605.00   Q 720.06 603.66 706.47 605.68   Q 707.03 596.90 707.83 587.88   Q 708.08 585.05 707.34 574.29   C 705.85 552.85 698.65 532.10 687.39 513.69   C 674.83 493.16 657.49 477.32 636.40 466.09   Q 624.15 459.57 617.07 456.96   Q 602.33 451.52 584.79 450.00   Q 541.05 446.22 503.36 468.62   Q 492.62 475.01 486.14 480.50   Q 483.58 482.66 482.19 484.32   C 479.10 488.02 475.56 490.27 472.38 493.96   Q 466.34 500.97 462.90 504.98   C 460.78 507.46 457.92 511.65 456.71 514.24   Q 451.42 525.55 448.14 531.54   C 441.65 543.38 438.90 553.73 437.61 567.88   C 436.05 585.02 436.54 598.91 439.29 614.08   Q 440.28 619.54 443.74 629.26   Q 448.68 643.13 455.31 653.20   C 462.10 663.52 467.26 671.92 475.53 679.98   Q 493.69 697.68 517.63 708.69   C 544.78 721.16 575.14 722.75 604.26 716.44   Q 616.91 713.70 625.47 709.72   Q 635.40 705.10 648.85 697.35   Q 652.76 695.10 652.05 691.81   Z   M 537.13 938.87   Q 539.36 941.43 542.48 943.78   C 551.24 950.35 555.72 954.27 563.94 959.13   Q 571.71 963.72 578.19 967.54   Q 590.12 974.57 610.82 983.63   Q 628.80 991.51 649.71 996.76   Q 666.37 1000.94 679.77 1003.02   Q 732.57 1011.25 785.54 1000.30   Q 793.51 998.65 804.06 995.59   Q 850.65 982.08 890.13 955.39   Q 905.31 945.12 917.57 936.43   A 3.12 3.12 0.0 0 0 918.88 933.95   Q 918.90 933.07 917.94 930.52   Q 913.94 919.95 909.56 909.44   C 907.15 903.67 905.04 899.76 901.64 893.14   Q 898.14 886.33 894.87 881.33   C 877.54 854.80 854.09 831.17 826.50 815.31   Q 806.01 803.53 788.03 798.03   Q 763.64 790.57 735.05 789.14   Q 718.36 788.30 701.31 790.85   C 683.94 793.45 666.57 797.38 650.85 804.39   Q 581.80 835.19 548.65 902.37   C 543.66 912.48 540.51 922.55 537.28 932.76   Q 536.28 935.90 536.34 937.88   Q 536.36 938.31 536.53 938.53   Q 536.75 938.82 537.13 938.87   Z"/>
<path xmlns="http://www.w3.org/2000/svg" fill="#8f95ef" d="M 706.47 605.68   L 681.30 614.58   Q 681.21 612.86 681.55 611.81   C 683.77 604.87 685.13 598.13 685.16 590.27   Q 685.20 582.21 685.09 578.26   C 684.74 565.35 682.38 552.46 676.94 539.91   Q 670.43 524.92 663.57 515.44   C 640.51 483.62 601.61 466.05 562.54 470.31   Q 545.55 472.17 531.92 478.44   Q 517.29 485.18 513.99 487.52   Q 471.90 517.31 464.62 567.53   Q 460.33 597.15 472.25 626.79   Q 473.29 629.37 475.37 633.14   C 478.20 638.25 480.88 643.82 484.06 648.52   Q 503.54 677.24 536.30 690.19   C 569.35 703.25 607.16 697.84 636.25 678.00   Q 641.38 674.50 644.41 670.08   Q 646.83 680.92 652.05 691.81   Q 652.76 695.10 648.85 697.35   Q 635.40 705.10 625.47 709.72   Q 616.91 713.70 604.26 716.44   C 575.14 722.75 544.78 721.16 517.63 708.69   Q 493.69 697.68 475.53 679.98   C 467.26 671.92 462.10 663.52 455.31 653.20   Q 448.68 643.13 443.74 629.26   Q 440.28 619.54 439.29 614.08   C 436.54 598.91 436.05 585.02 437.61 567.88   C 438.90 553.73 441.65 543.38 448.14 531.54   Q 451.42 525.55 456.71 514.24   C 457.92 511.65 460.78 507.46 462.90 504.98   Q 466.34 500.97 472.38 493.96   C 475.56 490.27 479.10 488.02 482.19 484.32   Q 483.58 482.66 486.14 480.50   Q 492.62 475.01 503.36 468.62   Q 541.05 446.22 584.79 450.00   Q 602.33 451.52 617.07 456.96   Q 624.15 459.57 636.40 466.09   C 657.49 477.32 674.83 493.16 687.39 513.69   C 698.65 532.10 705.85 552.85 707.34 574.29   Q 708.08 585.05 707.83 587.88   Q 707.03 596.90 706.47 605.68   Z"/>
<path xmlns="http://www.w3.org/2000/svg" fill="#8f95ef" d="M 796.50 690.97   Q 801.00 681.64 803.33 670.97   Q 809.66 676.10 812.15 677.84   C 842.70 699.28 882.27 703.38 916.30 688.24   C 926.13 683.87 934.91 679.15 942.55 672.31   C 959.29 657.34 973.08 637.78 979.29 616.81   Q 981.62 608.91 983.43 595.89   Q 984.91 585.18 984.18 574.68   Q 982.19 545.97 967.01 522.10   Q 962.60 515.17 956.63 507.88   C 949.92 499.69 942.56 494.15 933.81 488.09   C 919.18 477.95 901.65 472.07 884.01 470.23   C 861.77 467.92 839.83 472.89 820.16 483.69   Q 809.62 489.48 801.42 497.04   C 792.31 505.44 783.90 515.02 777.92 525.66   Q 758.71 559.91 763.78 599.23   Q 764.75 606.80 767.91 615.16   Q 760.91 612.90 754.12 609.65   Q 751.53 608.41 741.83 605.80   Q 741.80 601.15 740.71 594.00   Q 739.69 587.27 740.37 578.52   Q 743.00 544.62 759.42 516.37   Q 771.51 495.58 792.03 479.01   Q 812.33 462.60 838.87 454.80   Q 860.31 448.50 881.90 449.55   Q 913.33 451.09 940.08 465.65   C 944.74 468.18 951.55 473.48 957.46 477.28   Q 962.43 480.47 963.20 481.07   Q 966.51 483.66 974.31 491.86   Q 977.66 495.38 983.67 503.70   Q 993.92 517.88 994.90 519.61   Q 995.97 521.52 1000.82 531.69   C 1004.50 539.40 1005.38 546.12 1008.01 554.49   Q 1009.23 558.37 1010.28 564.86   Q 1013.95 587.55 1009.82 609.49   Q 1009.00 613.84 1003.77 631.54   Q 1000.89 641.26 992.42 654.97   Q 979.22 676.31 957.30 693.39   Q 952.46 697.17 946.43 700.69   Q 938.97 705.04 934.84 706.73   Q 931.00 708.29 929.87 708.91   Q 929.00 709.38 927.62 709.98   Q 903.38 720.50 875.76 720.05   Q 855.46 719.73 837.11 714.66   C 826.35 711.69 817.45 706.82 806.49 701.28   Q 800.64 698.33 796.33 694.11   A 0.99 0.98 28.7 0 1 796.06 693.21   L 796.50 690.97   Z"/>
<path xmlns="http://www.w3.org/2000/svg" fill="#ffffff" d="M 681.30 614.58   Q 671.81 618.44 664.32 626.06   Q 660.33 630.11 655.38 636.35   Q 643.62 651.17 644.41 670.08   Q 641.38 674.50 636.25 678.00   C 607.16 697.84 569.35 703.25 536.30 690.19   Q 503.54 677.24 484.06 648.52   C 480.88 643.82 478.20 638.25 475.37 633.14   Q 473.29 629.37 472.25 626.79   Q 460.33 597.15 464.62 567.53   Q 471.90 517.31 513.99 487.52   Q 517.29 485.18 531.92 478.44   Q 545.55 472.17 562.54 470.31   C 601.61 466.05 640.51 483.62 663.57 515.44   Q 670.43 524.92 676.94 539.91   C 682.38 552.46 684.74 565.35 685.09 578.26   Q 685.20 582.21 685.16 590.27   C 685.13 598.13 683.77 604.87 681.55 611.81   Q 681.21 612.86 681.30 614.58   Z   M 576.2111 514.9876   A 68.27 67.17 -91.3 0 0 510.6073 584.7639   A 68.27 67.17 -91.3 0 0 579.3089 651.4924   A 68.27 67.17 -91.3 0 0 644.9127 581.7161   A 68.27 67.17 -91.3 0 0 576.2111 514.9876   Z"/>
<path xmlns="http://www.w3.org/2000/svg" fill="#ffffff" d="M 803.33 670.97   Q 804.84 655.78 796.75 642.25   Q 786.11 624.45 767.91 615.16   Q 764.75 606.80 763.78 599.23   Q 758.71 559.91 777.92 525.66   C 783.90 515.02 792.31 505.44 801.42 497.04   Q 809.62 489.48 820.16 483.69   C 839.83 472.89 861.77 467.92 884.01 470.23   C 901.65 472.07 919.18 477.95 933.81 488.09   C 942.56 494.15 949.92 499.69 956.63 507.88   Q 962.60 515.17 967.01 522.10   Q 982.19 545.97 984.18 574.68   Q 984.91 585.18 983.43 595.89   Q 981.62 608.91 979.29 616.81   C 973.08 637.78 959.29 657.34 942.55 672.31   C 934.91 679.15 926.13 683.87 916.30 688.24   C 882.27 703.38 842.70 699.28 812.15 677.84   Q 809.66 676.10 803.33 670.97   Z   M 872.1547 515.0200   A 68.25 67.31 -88.3 0 0 802.8496 581.2432   A 68.25 67.31 -88.3 0 0 868.1053 651.4600   A 68.25 67.31 -88.3 0 0 937.4104 585.2368   A 68.25 67.31 -88.3 0 0 872.1547 515.0200   Z"/>
<path xmlns="http://www.w3.org/2000/svg" fill="#3b3371" d="M 576.2111 514.9876   A 68.27 67.17 -91.3 0 1 644.9127 581.7161   A 68.27 67.17 -91.3 0 1 579.3089 651.4924   A 68.27 67.17 -91.3 0 1 510.6073 584.7639   A 68.27 67.17 -91.3 0 1 576.2111 514.9876   Z   M 623.72 556.86   A 19.36 19.36 0.0 0 0 604.36 537.50   A 19.36 19.36 0.0 0 0 585.00 556.86   A 19.36 19.36 0.0 0 0 604.36 576.22   A 19.36 19.36 0.0 0 0 623.72 556.86   Z"/>
<path xmlns="http://www.w3.org/2000/svg" fill="#3b3371" d="M 872.1547 515.0200   A 68.25 67.31 -88.3 0 1 937.4104 585.2368   A 68.25 67.31 -88.3 0 1 868.1053 651.4600   A 68.25 67.31 -88.3 0 1 802.8496 581.2432   A 68.25 67.31 -88.3 0 1 872.1547 515.0200   Z   M 916.96 556.94   A 19.39 19.39 0.0 0 0 897.57 537.55   A 19.39 19.39 0.0 0 0 878.18 556.94   A 19.39 19.39 0.0 0 0 897.57 576.33   A 19.39 19.39 0.0 0 0 916.96 556.94   Z"/>
<circle xmlns="http://www.w3.org/2000/svg" fill="#ffffff" cx="604.36" cy="556.86" r="19.36"/>
<circle xmlns="http://www.w3.org/2000/svg" fill="#ffffff" cx="897.57" cy="556.94" r="19.39"/>
<path xmlns="http://www.w3.org/2000/svg" fill="#6a6ee4" d="M 356.52 689.18   Q 355.36 699.97 354.42 710.67   Q 352.18 736.02 355.17 761.04   Q 359.09 793.72 369.56 824.93   C 371.21 829.85 371.77 832.34 368.49 836.07   C 365.17 839.85 360.15 839.91 354.94 839.92   Q 344.44 839.94 336.46 837.80   Q 329.26 835.87 320.46 831.45   C 324.76 823.59 325.61 816.88 325.17 808.27   C 324.80 800.80 322.56 794.58 318.43 788.44   A 1.59 1.58 45.8 0 1 318.45 786.64   Q 319.46 785.22 321.80 782.02   C 328.45 772.97 330.57 762.27 328.73 751.03   C 327.30 742.36 323.03 731.30 315.65 725.81   A 1.00 1.00 0.0 0 1 315.43 724.43   Q 327.19 707.61 323.41 686.52   Q 322.73 682.75 319.53 675.97   C 316.13 668.76 308.98 663.16 302.87 657.50   A 3.66 3.65 80.0 0 0 302.10 656.96   Q 294.51 652.93 287.76 649.01   Q 285.05 647.43 280.08 645.98   Q 271.59 643.50 261.24 641.39   A 3.41 3.40 -3.1 0 1 258.69 639.11   C 255.69 629.96 255.28 620.15 255.73 610.16   C 256.43 594.81 261.54 581.16 271.39 569.36   C 277.68 561.82 284.49 558.92 293.80 560.93   C 301.22 562.52 302.89 571.39 303.44 577.79   Q 305.69 604.17 306.83 610.22   Q 309.25 623.00 310.96 627.60   Q 313.34 634.04 314.78 639.24   Q 315.88 643.18 317.18 645.93   C 320.42 652.78 323.27 660.37 326.87 666.15   A 3.51 3.32 9.7 0 0 327.29 666.71   Q 333.69 673.51 334.02 673.87   Q 334.19 674.06 338.06 677.18   Q 339.65 678.47 341.36 680.02   A 1.92 1.91 -8.3 0 0 341.71 680.28   L 356.52 689.18   Z"/>
<path xmlns="http://www.w3.org/2000/svg" fill="#3b3371" d="M 741.83 605.80   Q 751.53 608.41 754.12 609.65   Q 760.91 612.90 767.91 615.16   Q 786.11 624.45 796.75 642.25   Q 804.84 655.78 803.33 670.97   Q 801.00 681.64 796.50 690.97   Q 793.79 696.98 791.27 702.99   Q 789.91 706.22 783.59 714.36   Q 777.09 722.72 769.84 731.35   Q 762.40 740.19 753.14 746.12   Q 749.60 748.40 736.87 755.87   C 730.01 759.89 721.88 760.47 714.63 757.75   Q 710.56 756.22 701.21 750.67   Q 686.89 742.16 676.36 729.14   Q 669.03 720.07 666.58 717.14   Q 657.52 706.27 653.48 693.80   Q 652.99 692.30 652.05 691.81   Q 646.83 680.92 644.41 670.08   Q 643.62 651.17 655.38 636.35   Q 660.33 630.11 664.32 626.06   Q 671.81 618.44 681.30 614.58   L 706.47 605.68   Q 720.06 603.66 733.74 605.00   Q 738.04 605.42 741.83 605.80   Z   M 724.01 699.12   Q 726.89 699.13 729.00 698.47   C 745.02 693.47 757.55 686.20 775.23 676.50   Q 781.22 673.21 784.23 670.48   C 786.72 668.23 786.50 665.12 785.96 662.03   Q 784.14 651.48 776.75 642.99   C 772.72 638.36 765.36 633.50 759.91 630.38   C 749.00 624.14 737.08 621.34 724.19 621.31   C 711.30 621.28 699.37 624.02 688.43 630.21   C 682.96 633.31 675.58 638.13 671.52 642.74   Q 664.09 651.20 662.23 661.74   C 661.67 664.83 661.44 667.94 663.92 670.20   Q 666.91 672.94 672.89 676.26   C 690.52 686.04 703.02 693.37 719.02 698.45   Q 721.12 699.12 724.01 699.12   Z   M 774.33 696.25   Q 772.26 697.20 769.95 698.79   A 5.79 5.74 15.5 0 1 769.11 699.26   Q 757.41 704.69 747.10 709.56   Q 736.70 714.49 727.52 715.99   C 720.33 717.17 711.33 714.29 704.61 711.33   Q 691.95 705.74 674.64 696.69   A 0.51 0.51 0.0 0 0 673.90 697.15   Q 673.91 697.41 673.96 697.51   Q 686.84 720.22 708.47 735.77   C 713.35 739.27 721.63 743.52 727.75 741.66   Q 734.83 739.52 741.61 734.35   C 754.52 724.51 766.84 711.39 774.65 696.58   A 0.24 0.24 0.0 0 0 774.33 696.25   Z"/>
<path xmlns="http://www.w3.org/2000/svg" fill="#f09e81" d="M 724.19 621.31   C 737.08 621.34 749.00 624.14 759.91 630.38   C 765.36 633.50 772.72 638.36 776.75 642.99   Q 784.14 651.48 785.96 662.03   C 786.50 665.12 786.72 668.23 784.23 670.48   Q 781.22 673.21 775.23 676.50   C 757.55 686.20 745.02 693.47 729.00 698.47   Q 726.89 699.13 724.01 699.12   Q 721.12 699.12 719.02 698.45   C 703.02 693.37 690.52 686.04 672.89 676.26   Q 666.91 672.94 663.92 670.20   C 661.44 667.94 661.67 664.83 662.23 661.74   Q 664.09 651.20 671.52 642.74   C 675.58 638.13 682.96 633.31 688.43 630.21   C 699.37 624.02 711.30 621.28 724.19 621.31   Z"/>
<path xmlns="http://www.w3.org/2000/svg" fill="#5252d0" d="M 401.71 658.12   Q 402.06 664.28 402.29 670.36   Q 402.55 677.40 403.38 682.58   C 404.44 689.17 404.68 695.28 405.78 702.68   Q 408.45 720.69 408.67 722.84   Q 408.86 724.57 413.07 743.45   C 415.86 755.98 419.00 764.63 423.18 778.25   Q 425.19 784.80 428.39 792.46   Q 436.14 811.06 439.62 817.87   Q 443.02 824.52 450.39 838.37   C 455.87 848.67 462.05 858.43 469.43 868.20   C 474.33 874.70 481.09 884.17 486.88 891.03   Q 500.74 907.42 515.03 920.90   Q 518.81 924.47 524.78 929.34   Q 528.02 931.98 534.74 937.68   A 1.16 1.16 0.0 0 1 535.16 938.55   C 535.24 941.59 533.80 944.19 533.05 947.33   Q 530.79 956.69 529.48 966.81   Q 529.41 967.30 527.73 976.13   Q 526.83 980.84 526.73 985.55   Q 523.25 983.68 520.72 980.27   A 1.26 1.26 0.0 0 0 520.49 980.04   L 515.68 976.49   A 1.20 1.02 86.5 0 1 515.45 976.25   Q 506.46 964.23 495.42 953.85   C 491.64 950.30 489.44 947.28 485.86 943.06   Q 484.16 941.06 482.32 938.45   Q 474.45 927.29 463.55 912.52   Q 461.10 909.18 458.47 903.80   C 453.86 894.38 448.72 885.48 443.51 876.28   Q 440.75 871.38 436.34 859.95   Q 430.88 845.82 429.82 843.31   Q 424.51 830.84 419.59 815.28   Q 415.32 801.79 411.72 784.14   C 407.22 762.04 402.98 740.67 401.60 718.25   Q 399.76 688.22 401.71 658.12   Z"/>
<path xmlns="http://www.w3.org/2000/svg" fill="#5252d0" d="M 927.24 983.06   Q 924.87 961.91 922.87 950.23   Q 922.57 948.46 920.22 939.05   C 919.83 937.49 919.88 936.22 919.86 934.90   A 1.41 1.38 67.2 0 1 920.24 933.94   Q 925.64 928.23 927.84 925.89   Q 929.92 923.68 935.84 918.29   Q 946.81 908.31 953.69 900.19   C 958.69 894.30 962.79 889.95 967.17 884.04   C 973.53 875.46 980.12 867.14 985.96 858.10   C 999.77 836.74 1015.13 807.27 1024.01 781.00   C 1027.63 770.31 1031.89 758.07 1034.20 747.60   Q 1039.52 723.44 1041.77 707.10   Q 1044.29 688.71 1046.08 679.46   Q 1046.82 675.63 1046.85 660.94   Q 1047.37 667.55 1047.39 671.75   C 1047.50 701.14 1046.94 728.97 1042.52 756.02   Q 1039.85 772.36 1034.54 796.56   Q 1031.96 808.35 1024.61 831.92   Q 1022.25 839.47 1019.77 845.21   C 1015.20 855.80 1012.11 864.58 1007.00 875.26   Q 1000.74 888.35 998.86 891.85   Q 993.98 900.91 977.78 926.23   Q 973.36 933.14 966.93 940.66   Q 959.10 949.82 954.74 955.04   Q 941.91 970.39 927.24 983.06   Z"/>
<path xmlns="http://www.w3.org/2000/svg" fill="#6a6ee4" d="M 237.16 732.55   Q 240.25 735.38 244.89 736.58   Q 255.51 739.34 264.23 739.90   C 275.01 740.60 284.48 740.53 293.98 736.94   C 295.72 736.28 296.91 737.61 298.52 739.11   Q 307.79 747.79 307.32 760.53   C 306.91 771.65 294.08 779.99 284.01 782.75   C 276.48 784.81 267.08 787.18 260.27 786.65   Q 253.46 786.11 250.23 786.00   C 244.89 785.81 240.06 789.10 239.06 794.57   C 236.84 806.76 247.87 808.29 257.25 808.54   Q 261.62 808.65 270.93 807.76   Q 284.72 806.43 297.77 800.20   Q 299.77 799.24 300.89 801.46   C 303.72 807.09 304.55 815.64 300.97 821.49   Q 296.20 829.28 288.65 833.70   Q 277.32 840.34 262.45 844.43   Q 250.58 847.70 239.27 845.41   C 232.75 844.08 223.06 839.33 217.88 834.07   Q 209.37 825.41 206.84 820.93   Q 197.45 804.35 193.05 788.21   C 185.95 762.20 184.16 735.40 189.05 708.96   C 190.17 702.91 191.76 698.90 194.08 691.57   C 196.59 683.65 202.49 676.85 208.80 670.82   C 214.37 665.49 219.20 662.90 227.44 661.94   Q 236.80 660.86 242.65 661.33   C 257.68 662.55 271.76 664.94 284.60 671.43   Q 295.66 677.01 300.56 687.92   Q 303.27 693.96 301.98 702.30   C 300.62 711.13 294.40 714.98 285.96 716.94   C 273.20 719.89 261.97 718.01 248.05 715.06   C 240.51 713.47 234.55 718.09 234.79 725.76   Q 234.93 730.51 237.16 732.55   Z"/>
<path xmlns="http://www.w3.org/2000/svg" fill="#6a6ee4" d="M 1050.46 902.79   L 1049.69 902.22   A 0.53 0.53 0.0 0 1 1049.57 901.50   Q 1054.80 893.86 1057.18 885.74   Q 1061.48 871.07 1061.99 869.77   Q 1063.68 865.48 1064.99 858.66   Q 1065.89 853.99 1068.00 847.51   C 1069.03 844.38 1069.49 841.35 1070.76 837.33   Q 1071.90 833.69 1072.45 829.62   Q 1075.44 807.51 1076.09 798.95   Q 1077.72 777.51 1076.20 748.06   Q 1075.82 740.70 1071.25 718.47   A 1.27 1.24 -78.4 0 0 1070.77 717.72   L 1070.38 717.43   A 1.20 1.16 20.2 0 1 1069.90 716.43   Q 1069.96 715.01 1069.38 713.71   L 1069.77 684.52   A 0.41 0.40 20.2 0 1 1070.43 684.22   Q 1071.03 684.71 1071.25 685.07   C 1075.69 692.18 1079.70 697.44 1082.71 704.36   Q 1088.64 717.99 1089.04 719.20   Q 1095.84 739.80 1098.72 760.85   Q 1099.33 765.34 1099.44 771.66   C 1099.53 776.37 1100.00 781.78 1099.68 786.11   Q 1098.75 798.81 1097.72 804.25   Q 1096.29 811.75 1095.86 814.38   Q 1094.97 819.77 1093.42 824.36   Q 1089.42 836.24 1089.04 837.48   C 1086.93 844.38 1083.81 850.18 1080.76 857.54   Q 1079.25 861.19 1077.01 865.37   Q 1070.01 878.42 1059.97 890.47   A 2.84 2.77 -17.7 0 0 1059.45 891.45   Q 1059.18 892.38 1057.98 893.16   A 2.30 1.98 -2.1 0 0 1057.44 893.66   L 1050.46 902.79   Z"/>
<path xmlns="http://www.w3.org/2000/svg" fill="#5252d0" d="M 320.46 831.45   Q 329.26 835.87 336.46 837.80   Q 344.44 839.94 354.94 839.92   C 360.15 839.91 365.17 839.85 368.49 836.07   C 371.77 832.34 371.21 829.85 369.56 824.93   Q 359.09 793.72 355.17 761.04   Q 352.18 736.02 354.42 710.67   Q 355.36 699.97 356.52 689.18   L 377.26 698.86   A 2.20 2.19 11.6 0 1 378.52 700.76   C 379.13 716.64 381.10 732.73 383.00 747.01   Q 386.44 772.84 392.16 797.62   C 394.58 808.10 397.70 817.97 400.73 828.65   C 403.62 838.84 407.52 849.37 411.39 859.35   A 1.08 1.08 0.0 0 1 410.85 860.72   Q 399.66 865.97 387.36 868.57   C 369.18 872.42 350.80 873.08 332.16 870.34   Q 318.56 868.34 312.57 867.16   C 309.15 866.49 303.78 865.34 299.59 863.61   Q 294.31 861.42 288.34 859.47   A 0.78 0.77 -46.3 0 1 288.31 858.01   C 299.07 853.85 307.41 847.22 315.49 839.05   A 4.37 4.16 -8.1 0 0 316.02 838.38   L 320.46 831.45   Z"/>
<path xmlns="http://www.w3.org/2000/svg" fill="#f09e81" d="M 774.33 696.25   A 0.24 0.24 0.0 0 1 774.65 696.58   C 766.84 711.39 754.52 724.51 741.61 734.35   Q 734.83 739.52 727.75 741.66   C 721.63 743.52 713.35 739.27 708.47 735.77   Q 686.84 720.22 673.96 697.51   Q 673.91 697.41 673.90 697.15   A 0.51 0.51 0.0 0 1 674.64 696.69   Q 691.95 705.74 704.61 711.33   C 711.33 714.29 720.33 717.17 727.52 715.99   Q 736.70 714.49 747.10 709.56   Q 757.41 704.69 769.11 699.26   A 5.79 5.74 15.5 0 0 769.95 698.79   Q 772.26 697.20 774.33 696.25   Z"/>
<path xmlns="http://www.w3.org/2000/svg" fill="#5252d0" d="M 1050.46 902.79   Q 1041.87 912.45 1035.17 918.18   Q 1033.30 919.78 1024.42 926.57   Q 1019.17 930.59 1013.29 934.47   Q 1006.71 938.81 999.26 943.77   A 4.23 4.13 15.9 0 1 998.54 944.16   Q 995.00 945.65 991.24 948.06   A 1.06 1.06 0.0 0 1 989.63 946.96   Q 989.67 946.76 990.35 945.85   Q 997.98 935.64 1005.43 924.12   C 1015.69 908.24 1024.54 889.98 1031.75 874.29   Q 1039.83 856.69 1046.14 836.43   Q 1053.56 812.60 1057.85 793.42   Q 1061.61 776.60 1065.09 752.02   Q 1065.96 745.93 1067.21 732.87   Q 1068.12 723.27 1069.38 713.71   Q 1069.96 715.01 1069.90 716.43   A 1.20 1.16 20.2 0 0 1070.38 717.43   L 1070.77 717.72   A 1.27 1.24 -78.4 0 1 1071.25 718.47   Q 1075.82 740.70 1076.20 748.06   Q 1077.72 777.51 1076.09 798.95   Q 1075.44 807.51 1072.45 829.62   Q 1071.90 833.69 1070.76 837.33   C 1069.49 841.35 1069.03 844.38 1068.00 847.51   Q 1065.89 853.99 1064.99 858.66   Q 1063.68 865.48 1061.99 869.77   Q 1061.48 871.07 1057.18 885.74   Q 1054.80 893.86 1049.57 901.50   A 0.53 0.53 0.0 0 0 1049.69 902.22   L 1050.46 902.79   Z"/>
<path xmlns="http://www.w3.org/2000/svg" fill="#8f95ef" d="M 537.13 938.87   Q 536.75 938.82 536.53 938.53   Q 536.36 938.31 536.34 937.88   Q 536.28 935.90 537.28 932.76   C 540.51 922.55 543.66 912.48 548.65 902.37   Q 581.80 835.19 650.85 804.39   C 666.57 797.38 683.94 793.45 701.31 790.85   Q 718.36 788.30 735.05 789.14   Q 763.64 790.57 788.03 798.03   Q 806.01 803.53 826.50 815.31   C 854.09 831.17 877.54 854.80 894.87 881.33   Q 898.14 886.33 901.64 893.14   C 905.04 899.76 907.15 903.67 909.56 909.44   Q 913.94 919.95 917.94 930.52   Q 918.90 933.07 918.88 933.95   A 3.12 3.12 0.0 0 1 917.57 936.43   Q 905.31 945.12 890.13 955.39   Q 850.65 982.08 804.06 995.59   Q 793.51 998.65 785.54 1000.30   Q 732.57 1011.25 679.77 1003.02   Q 666.37 1000.94 649.71 996.76   Q 628.80 991.51 610.82 983.63   Q 590.12 974.57 578.19 967.54   Q 571.71 963.72 563.94 959.13   C 555.72 954.27 551.24 950.35 542.48 943.78   Q 539.36 941.43 537.13 938.87   Z"/>
<path xmlns="http://www.w3.org/2000/svg" fill="#6a6ee4" d="M 821.33 1099.99   Q 819.58 1102.59 817.23 1104.71   A 1.24 1.19 78.4 0 0 816.87 1105.28   Q 816.86 1105.34 816.85 1105.36   A 0.95 0.93 -15.5 0 1 816.53 1105.91   C 806.89 1113.80 795.20 1110.71 788.59 1100.88   C 783.95 1093.98 783.98 1084.06 786.54 1076.27   A 3.12 3.11 4.8 0 1 789.02 1074.18   Q 803.85 1071.90 816.74 1068.23   Q 828.35 1064.92 853.21 1055.77   A 1.50 1.48 46.6 0 1 854.36 1055.81   C 857.83 1057.38 862.60 1062.74 864.31 1064.84   A 0.16 0.08 26.6 0 0 864.34 1064.88   L 868.21 1070.84   A 1.86 1.67 -72.9 0 1 868.40 1071.25   C 871.54 1081.42 872.29 1095.16 862.42 1101.64   C 856.43 1105.56 847.03 1106.93 841.04 1101.96   C 835.78 1097.59 829.88 1091.79 823.83 1097.64   Q 822.76 1098.67 821.49 1099.81   A 1.06 1.00 88.3 0 0 821.33 1099.99   Z"/>
<path xmlns="http://www.w3.org/2000/svg" fill="#6a6ee4" d="M 610.91 1102.88   Q 603.20 1105.72 595.71 1103.21   C 590.88 1101.59 585.16 1096.91 584.55 1091.59   Q 583.37 1081.31 585.17 1074.28   C 587.17 1066.44 592.44 1062.07 598.47 1057.03   A 3.21 3.21 0.0 0 1 601.53 1056.45   C 609.22 1058.96 613.22 1060.04 620.70 1062.78   Q 641.89 1070.57 664.30 1074.15   Q 667.29 1074.63 668.05 1077.54   C 671.10 1089.13 669.71 1098.84 660.04 1106.63   Q 652.17 1112.97 642.38 1108.73   Q 640.08 1107.74 636.38 1103.32   Q 635.85 1102.68 631.09 1097.99   C 627.03 1093.99 622.56 1093.95 618.11 1097.69   Q 615.80 1099.64 613.49 1101.22   Q 611.19 1102.78 610.91 1102.88   Z"/>
</g></g></g></g></svg>