<svg xmlns="http://www.w3.org/2000/svg" direction="ltr" width="2048" height="2048" viewBox="20037.092443991605 26121.591492410906 2048 2048" stroke-linecap="round" stroke-linejoin="round" data-color-mode="light" class="tl-container tl-theme__force-sRGB tl-theme__light" style="background-color: transparent;"><defs/><g transform="matrix(1, 0, 0, 1, 20037.0924, 26121.5915)" opacity="1"><g data-lovart-layer-name="SVG 4"><g transform="scale(1.4143646408839778, 1.4143646408839778)"><g>
<g xmlns="http://www.w3.org/2000/svg" stroke-width="2.00" fill="none" stroke-linecap="butt">
<path stroke="#9797b7" d="M 229.88 942.49   Q 218.25 941.28 206.45 943.70   Q 196.28 945.78 186.82 952.54   Q 169.52 964.90 167.48 986.62   C 165.04 1012.56 189.59 1036.85 209.16 1050.10   C 235.29 1067.78 265.79 1080.70 296.96 1090.00   Q 364.65 1110.19 437.73 1115.36   Q 477.69 1118.18 518.26 1117.26   A 4.21 4.20 61.9 0 1 520.82 1118.04   C 529.36 1124.13 537.81 1129.77 547.55 1134.97   Q 548.17 1135.30 564.40 1144.08   A 0.61 0.61 0.0 0 1 564.55 1145.03   Q 549.10 1161.37 546.11 1182.71   C 541.57 1215.16 565.70 1243.50 599.08 1241.34   Q 608.08 1240.75 617.18 1236.37   A 1.16 1.15 -42.3 0 1 618.29 1236.42   C 619.65 1237.22 621.09 1238.63 622.12 1239.32   C 636.28 1248.75 655.47 1250.92 670.82 1243.14   C 691.43 1232.70 701.04 1211.72 699.59 1189.11   Q 699.39 1185.94 699.36 1184.46   A 0.47 0.46 -87.4 0 1 699.88 1183.98   Q 743.76 1189.22 787.21 1183.91   A 0.43 0.42 87.8 0 1 787.69 1184.36   Q 787.41 1188.64 787.26 1192.72   C 786.12 1223.27 808.90 1249.35 840.41 1247.74   Q 856.92 1246.89 868.90 1236.39   A 0.87 0.86 37.0 0 1 869.85 1236.26   Q 884.10 1243.21 899.16 1240.96   C 926.36 1236.89 944.95 1211.24 941.30 1183.97   Q 938.25 1161.19 922.40 1144.60   A 0.91 0.91 0.0 0 1 922.66 1143.15   Q 935.48 1137.00 946.99 1129.72   Q 971.77 1114.06 995.25 1094.74   Q 1011.49 1081.38 1024.20 1067.84   A 5.27 5.19 12.6 0 1 1026.46 1066.43   C 1036.41 1063.35 1040.97 1061.97 1049.18 1059.04   Q 1071.18 1051.18 1096.79 1034.32   Q 1121.18 1018.24 1139.84 998.59   C 1176.23 960.27 1201.82 913.34 1213.38 861.68   C 1224.14 813.63 1222.05 762.58 1203.81 717.18   C 1199.27 705.86 1192.35 694.07 1185.42 683.12   C 1178.43 672.08 1170.71 663.39 1161.57 654.81   A 3.47 3.43 -69.4 0 1 1160.49 652.39   Q 1159.99 634.91 1157.39 617.03   Q 1150.50 569.66 1137.00 524.74   Q 1133.69 513.74 1128.24 499.23   Q 1120.52 478.68 1118.46 474.06   Q 1106.19 446.47 1093.88 424.37   C 1051.99 349.20 987.76 285.81 910.33 247.44   Q 861.05 223.02 806.74 213.76   Q 743.06 202.90 679.21 213.72   Q 592.03 228.50 519.36 280.62   Q 474.54 312.77 438.88 355.13   C 422.72 374.33 407.31 395.43 395.37 416.62   C 390.10 425.99 383.29 437.99 377.90 448.97   Q 351.72 502.35 338.38 560.81   Q 330.22 596.60 326.91 628.83   Q 325.45 643.01 325.14 652.82   A 3.23 3.20 69.5 0 1 324.13 655.07   C 315.23 663.50 307.17 672.89 300.44 683.66   C 290.13 700.16 281.69 716.79 276.36 735.60   Q 269.50 759.76 267.89 782.26   Q 266.64 799.82 268.13 815.14   A 0.51 0.51 0.0 0 1 267.41 815.66   C 250.04 807.64 227.07 803.96 209.47 813.23   C 188.57 824.23 180.83 844.82 184.01 867.50   Q 185.97 881.45 191.58 892.65   C 198.03 905.55 206.41 916.42 215.49 927.22   Q 221.87 934.81 230.07 942.06   A 0.25 0.25 0.0 0 1 229.88 942.49"/>
<path stroke="#f7c4cb" d="M 1204.16 414.18   C 1203.09 394.93 1190.20 378.50 1169.26 382.48   C 1160.82 384.08 1153.58 392.00 1149.96 399.30   Q 1146.58 406.12 1146.72 416.76   Q 1146.94 432.87 1153.06 447.96   C 1158.17 460.54 1164.22 474.07 1172.33 486.27   A 1.45 1.43 81.3 0 0 1173.12 486.86   Q 1174.10 487.15 1176.47 486.66   C 1200.25 481.73 1225.47 473.08 1243.38 457.38   C 1253.49 448.53 1260.42 433.51 1255.00 420.69   C 1246.06 399.54 1219.37 398.86 1204.81 414.42   A 0.38 0.38 0.0 0 1 1204.16 414.18"/>
<path stroke="#5c60b6" d="M 505.02 1072.78   Q 516.87 1082.13 528.78 1091.46   C 533.58 1095.21 538.16 1097.88 543.00 1100.97   Q 543.02 1100.98 569.96 1116.79   Q 576.07 1120.38 587.80 1125.43   C 611.20 1135.50 631.63 1143.17 654.52 1148.63   Q 670.68 1152.48 676.82 1153.65   Q 742.15 1166.08 808.88 1153.63   Q 821.56 1151.26 841.09 1146.10   Q 853.14 1142.91 863.20 1139.20   Q 881.00 1132.61 901.09 1123.82   C 904.87 1122.17 911.48 1119.18 916.35 1115.92   C 919.54 1113.79 925.49 1110.07 930.84 1107.13   Q 941.26 1101.39 946.43 1097.92   Q 960.02 1088.79 973.46 1077.95   Q 977.06 1075.05 980.43 1071.55"/>
<path stroke="#4b4db0" d="M 980.43 1071.55   Q 983.59 1069.66 986.31 1066.96   C 994.49 1058.88 1003.01 1051.44 1010.52 1044.27   Q 1012.09 1042.78 1019.13 1033.68   Q 1023.09 1028.56 1027.72 1023.08   Q 1043.65 1004.21 1056.47 983.90   Q 1059.95 978.38 1067.18 964.95   Q 1072.36 955.31 1077.48 945.78   Q 1084.15 933.33 1087.95 923.94   C 1093.10 911.23 1098.94 897.51 1103.23 884.82   C 1123.23 825.52 1134.09 762.30 1135.47 700.16   Q 1135.96 678.45 1134.49 658.40   Q 1132.65 633.36 1130.36 616.82   Q 1126.36 588.02 1117.89 556.06   Q 1112.66 536.33 1108.01 521.24   Q 1107.51 519.59 1103.33 507.67   C 1101.88 503.53 1100.08 500.44 1098.00 495.71   Q 1095.11 489.18 1094.16 486.67   Q 1086.71 467.09 1079.02 452.98   Q 1069.76 435.98 1063.80 425.70   Q 1057.53 414.90 1045.48 397.79   Q 1009.89 347.23 961.25 309.79   Q 950.25 301.32 933.89 290.86   Q 908.89 274.89 882.89 263.84   Q 773.26 217.26 658.22 245.07   C 640.58 249.34 622.19 255.81 605.73 262.25   C 591.28 267.90 576.13 276.56 563.05 283.84   Q 548.22 292.09 547.24 292.76   Q 541.41 296.69 511.56 319.79   Q 501.40 327.65 488.38 340.63   Q 469.22 359.74 453.05 379.72   C 438.14 398.16 425.68 418.08 414.11 437.10   Q 410.31 443.36 407.89 448.40   C 401.71 461.30 390.57 483.27 384.16 500.89   C 380.02 512.27 372.72 533.12 368.68 548.70   C 360.50 580.21 355.01 610.65 352.69 642.19   Q 351.12 663.53 350.83 670.29   Q 349.86 692.76 351.95 722.26   Q 355.82 776.91 367.85 829.14   C 377.67 871.78 392.07 914.04 412.30 953.11   C 419.39 966.82 426.09 979.47 434.18 991.33   Q 440.68 1000.87 454.00 1019.36   C 461.70 1030.06 468.57 1037.02 477.95 1046.57   Q 477.97 1046.60 488.27 1057.69   Q 495.93 1065.95 505.02 1072.78"/>
<path stroke="#797ff6" d="M 980.43 1071.55   Q 979.90 1068.59 979.49 1065.65   C 978.66 1059.67 978.83 1053.61 978.37 1047.25   Q 978.16 1044.49 977.11 1039.90   Q 973.48 1024.09 971.83 1017.42   Q 968.82 1005.29 962.44 989.80   C 954.83 971.31 945.14 952.62 932.96 935.93   Q 922.21 921.18 911.38 909.59   C 864.02 858.92 799.38 831.03 729.96 835.29   Q 675.26 838.64 630.36 864.97   Q 584.95 891.61 554.42 933.65   C 534.30 961.36 519.76 992.95 511.54 1026.52   C 507.81 1041.75 505.52 1052.31 504.51 1065.06   Q 504.25 1068.44 505.02 1072.78"/>
<path stroke="#4749a4" d="M 412.58 1006.55   L 408.32 999.18   A 3.37 0.24 61.2 0 0 407.03 997.18   Q 406.94 997.09 402.55 991.10   Q 399.92 987.52 398.52 984.84   Q 382.83 954.86 377.00 942.01   Q 374.22 935.91 365.40 913.13   C 356.07 889.03 349.88 867.31 343.59 842.01   C 331.94 795.11 325.08 745.97 324.05 696.87   A 0.25 0.25 0.0 0 0 323.58 696.76   C 321.78 700.09 317.21 705.57 314.35 711.35   Q 307.14 725.94 300.84 746.99   Q 296.26 762.28 294.91 778.86   Q 292.51 808.36 297.27 838.21   Q 298.89 848.31 302.67 861.89   Q 307.77 880.19 309.55 885.21   Q 314.22 898.41 320.55 910.71   C 329.74 928.54 338.35 944.52 350.92 959.08   Q 362.68 972.70 367.56 978.19   C 369.70 980.59 373.47 984.50 376.66 987.24   Q 388.79 997.63 396.39 1004.59   C 398.43 1006.46 401.42 1008.41 403.19 1009.83   Q 405.12 1011.38 408.66 1013.21   Q 415.48 1016.72 421.22 1020.51   A 0.38 0.38 0.0 0 0 421.75 1020.00   Q 420.32 1017.73 417.86 1014.89   Q 416.68 1013.52 413.37 1007.20   Q 413.27 1007.00 413.12 1006.93   A 0.98 0.28 19.3 0 1 412.58 1006.55"/>
<path stroke="#4749a4" d="M 1080.27 994.59   C 1079.31 997.26 1077.33 999.88 1075.02 1003.30   Q 1073.01 1006.28 1071.03 1010.15   Q 1067.96 1016.19 1062.22 1022.21   Q 1061.36 1023.12 1061.35 1023.99   A 0.43 0.42 74.3 0 0 1062.00 1024.36   Q 1063.82 1023.21 1068.79 1019.88   Q 1071.08 1018.35 1075.79 1015.82   Q 1083.86 1011.48 1089.53 1007.26   Q 1091.33 1005.91 1097.47 999.96   Q 1102.37 995.21 1109.01 990.13   Q 1115.99 984.80 1120.51 980.27   Q 1129.50 971.27 1139.36 958.11   Q 1140.17 957.02 1143.89 952.01   Q 1145.96 949.22 1148.13 945.69   Q 1150.00 942.64 1154.09 937.09   Q 1158.57 930.99 1167.24 912.97   Q 1170.06 907.10 1175.46 894.58   Q 1179.63 884.92 1182.43 875.70   C 1193.37 839.75 1196.44 802.20 1190.12 764.98   Q 1188.83 757.33 1186.16 748.82   C 1181.90 735.20 1178.54 724.54 1172.75 712.84   C 1169.86 707.02 1166.20 702.61 1162.66 697.13   A 0.42 0.42 0.0 0 0 1161.88 697.37   C 1162.16 706.03 1161.15 713.79 1160.68 724.17   Q 1159.98 739.63 1159.71 742.83   C 1156.23 783.39 1148.42 823.88 1137.64 863.57   C 1133.16 880.05 1127.78 895.02 1121.94 911.45   Q 1117.82 923.01 1112.68 934.15   Q 1101.98 957.28 1093.42 974.20   Q 1089.34 982.24 1085.41 988.15   Q 1084.51 989.50 1080.66 993.94   A 2.03 1.94 -15.4 0 0 1080.27 994.59"/>
<path stroke="#403fa9" d="M 337.03 984.39   C 335.71 982.42 333.29 980.37 331.57 977.97   Q 316.28 956.61 313.90 952.87   Q 296.10 924.86 284.15 892.59   Q 280.27 882.12 277.52 870.71   Q 274.11 856.61 272.53 848.37   A 3.29 3.28 -82.0 0 0 270.79 846.05   C 258.47 839.78 247.46 834.48 233.40 834.13   C 214.65 833.66 206.68 849.85 210.73 866.26   Q 214.67 882.22 223.63 895.16   C 233.60 909.55 244.09 919.14 257.86 932.17   C 262.90 936.93 269.01 941.28 274.79 945.69   Q 280.42 949.99 308.81 968.98   C 311.61 970.85 314.53 972.32 316.98 973.92   Q 319.25 975.39 323.29 977.40   Q 331.12 981.28 336.67 984.77   A 0.27 0.27 0.0 0 0 337.03 984.39"/>
<path stroke="#403fa9" d="M 484.74 1090.69   Q 484.60 1090.42 484.33 1090.17   Q 479.66 1085.80 472.61 1079.95   C 471.70 1079.19 470.09 1078.10 468.48 1077.43   Q 445.85 1068.01 441.34 1065.88   Q 431.68 1061.35 400.38 1045.11   Q 390.34 1039.89 368.26 1029.74   Q 342.94 1018.10 310.61 999.62   C 303.65 995.64 296.20 990.44 289.34 986.66   Q 279.73 981.35 270.20 978.08   Q 255.23 972.95 243.65 970.35   Q 226.85 966.58 210.62 970.08   Q 200.67 972.23 195.57 982.49   A 4.31 4.08 -27.5 0 0 195.21 983.53   C 192.41 997.26 198.41 1004.55 207.57 1014.30   Q 213.24 1020.34 218.41 1024.04   C 231.86 1033.67 246.71 1042.97 263.02 1049.69   Q 273.02 1053.81 294.09 1061.09   Q 316.59 1068.86 341.91 1074.56   Q 349.40 1076.24 362.87 1078.38   C 374.56 1080.24 388.54 1083.22 402.13 1085.17   Q 410.63 1086.39 420.53 1087.35   Q 453.09 1090.50 484.50 1091.07   A 0.27 0.26 -13.5 0 0 484.74 1090.69"/>
<path stroke="#4749a4" d="M 591.70 1156.62   Q 575.73 1166.77 572.72 1184.43   C 571.40 1192.21 572.44 1204.28 579.71 1209.54   Q 585.98 1214.08 594.28 1214.79   C 601.44 1215.41 606.09 1211.97 611.56 1207.96   C 617.49 1203.61 624.21 1203.04 628.88 1209.47   Q 640.15 1224.99 658.80 1219.61   C 666.78 1217.31 671.58 1207.04 672.90 1199.48   Q 674.42 1190.76 672.76 1181.33   A 2.23 2.22 -89.6 0 0 671.00 1179.54   C 656.64 1176.67 642.34 1173.44 627.41 1168.49   C 610.73 1162.96 603.15 1160.58 592.73 1156.52   A 1.15 1.15 0.0 0 0 591.70 1156.62"/>
<path stroke="#4749a4" d="M 845.58 1219.46   Q 852.10 1216.59 854.35 1214.11   C 856.83 1211.38 860.28 1206.38 863.42 1205.25   C 869.98 1202.91 874.03 1206.60 878.95 1210.29   C 883.55 1213.73 889.16 1215.94 895.05 1214.80   Q 902.25 1213.41 906.61 1210.09   C 918.45 1201.09 916.28 1181.42 909.22 1170.55   Q 903.69 1162.02 895.51 1156.60   A 2.13 2.13 0.0 0 0 893.56 1156.39   Q 875.58 1163.39 852.29 1170.72   Q 835.10 1176.14 816.45 1179.62   A 2.18 2.18 0.0 0 0 814.72 1181.28   Q 811.59 1195.03 816.88 1207.78   C 819.96 1215.20 825.26 1219.62 833.03 1220.57   Q 840.91 1221.52 845.58 1219.46"/>
<path stroke="#4b4db0" d="M 663.51 701.15   Q 664.14 703.05 664.91 705.10   Q 665.68 707.12 666.72 708.89   Q 670.15 714.71 672.43 719.43   Q 674.70 724.16 676.28 726.48   C 680.19 732.25 685.86 738.59 688.98 742.35   C 696.83 751.83 706.45 759.39 716.85 766.31   Q 721.38 769.32 727.42 772.03   Q 735.56 775.66 738.57 776.48   Q 765.88 783.85 787.86 766.56   Q 791.66 763.56 794.81 759.56   C 799.58 753.49 804.98 746.93 808.15 739.43   Q 810.86 733.00 813.05 728.52   C 817.38 719.68 819.43 712.30 820.98 703.78   A 2.26 2.25 6.5 0 1 823.32 701.93   L 826.31 702.08"/>
<path stroke="#797ff6" d="M 826.31 702.08   L 824.46 702.26   A 0.69 0.67 -79.3 0 0 823.90 702.65   Q 823.67 703.12 823.95 703.62   Q 824.00 703.70 824.53 704.14   Q 831.11 709.66 836.37 712.96   A 17.27 16.55 80.6 0 1 838.60 714.63   Q 843.82 719.22 845.51 719.94   C 851.97 722.67 858.43 726.53 864.78 729.41   C 908.74 749.37 961.16 747.60 1003.42 724.89   Q 1042.98 703.62 1066.55 664.82   Q 1073.88 652.76 1077.80 643.18   Q 1095.35 600.30 1090.25 554.19   Q 1088.25 536.03 1082.79 520.42   C 1075.18 498.64 1064.77 478.77 1049.35 461.39   Q 1014.97 422.64 965.94 410.77   C 889.11 392.16 813.30 434.26 782.42 505.37   Q 765.97 543.22 768.39 584.95   Q 768.92 593.97 770.31 601.19   Q 771.65 608.10 771.83 615.29"/>
<path stroke="#4b4db0" d="M 771.83 615.29   Q 767.36 614.66 763.65 613.83   Q 758.49 612.67 746.26 612.67   Q 727.80 612.68 709.73 622.72"/>
<path stroke="#797ff6" d="M 709.73 622.72   Q 709.66 616.51 712.42 610.93   A 4.34 4.19 67.2 0 0 712.71 610.18   Q 714.03 605.53 714.51 603.06   Q 715.68 597.01 716.54 581.36   C 717.20 569.42 715.61 555.36 713.88 545.07   Q 710.33 523.99 700.92 503.08   Q 681.62 460.20 643.76 433.73   Q 614.26 413.10 579.49 408.32   Q 563.03 406.05 554.25 406.24   Q 497.05 407.52 453.48 443.97   C 441.17 454.27 430.01 466.17 421.41 480.32   C 413.07 494.03 407.01 505.14 402.86 517.33   C 396.86 534.97 393.08 554.42 392.94 573.35   Q 392.58 623.72 419.60 667.17   Q 439.87 699.75 473.21 720.07   Q 521.93 749.77 579.57 741.53   C 599.93 738.62 618.02 731.59 635.92 721.49   Q 641.50 718.34 649.98 711.67   Q 656.77 706.33 663.51 701.15"/>
<path stroke="#5c60b6" d="M 709.73 622.72   Q 700.23 629.53 691.81 637.82   Q 689.16 640.43 688.49 641.49   Q 684.90 647.22 679.34 654.99   Q 677.68 657.31 676.69 659.41   C 674.72 663.59 673.01 667.02 671.49 671.25   Q 669.85 675.82 666.90 683.43   Q 664.31 690.11 663.51 701.15"/>
<path stroke="#5c60b6" d="M 826.31 702.08   Q 834.59 703.56 843.01 703.30   Q 851.35 703.05 858.02 697.30   C 863.42 692.64 863.72 684.84 861.51 678.48   Q 856.85 665.01 846.72 655.55   Q 845.54 654.45 832.13 643.92   C 821.63 635.68 810.14 629.16 798.90 624.64   Q 791.53 621.68 781.26 617.72   Q 778.95 616.83 771.83 615.29"/>
<path stroke="#aec3fd" d="M 682.59 526.68   Q 680.82 524.60 680.87 522.74   A 0.94 0.93 19.2 0 0 680.49 521.97   Q 679.67 521.37 679.89 520.49   A 0.51 0.50 11.6 0 0 679.47 519.86   Q 679.04 519.79 679.13 519.08   A 1.06 1.04 33.9 0 0 679.00 518.44   Q 677.45 515.60 675.88 512.28   Q 674.15 508.63 672.75 506.44   Q 672.00 505.25 666.73 497.20   Q 663.98 493.01 659.81 488.63   Q 652.90 481.36 649.33 477.94   C 638.10 467.15 624.86 459.59 609.94 453.78   C 579.03 441.75 542.46 443.36 512.56 457.69   C 496.60 465.34 481.46 477.45 470.17 490.69   Q 460.23 502.35 452.15 519.91   Q 437.77 551.14 440.33 585.26   Q 443.12 622.51 465.45 653.30   C 485.59 681.05 516.97 698.81 550.74 703.46   C 578.08 707.22 607.91 700.44 631.26 686.04   C 639.92 680.70 643.33 677.12 652.82 668.49   C 654.92 666.58 657.89 664.73 659.54 662.52   Q 665.48 654.51 672.05 644.29   Q 674.80 640.01 677.55 633.58   Q 679.83 628.25 684.37 620.82   A 4.69 4.27 73.3 0 0 684.81 619.90   Q 688.34 609.63 688.78 606.12   Q 689.99 596.46 691.06 578.84   Q 691.46 572.36 691.23 565.65   Q 690.86 554.99 690.41 552.49   Q 688.92 544.34 688.80 543.62   Q 688.42 541.27 683.27 529.65   Q 683.04 529.13 682.94 527.55   A 1.49 1.43 -68.0 0 0 682.59 526.68"/>
<path stroke="#5c60b6" d="M 851.54 602.84   Q 853.25 602.10 854.46 600.63   Q 858.37 595.93 863.52 590.01   C 872.83 579.31 885.79 573.05 898.68 568.18   Q 917.29 561.16 936.17 565.11   C 952.43 568.51 967.13 575.57 979.21 587.19   C 983.12 590.96 986.71 595.89 989.99 599.77   C 993.26 603.63 999.26 604.97 1004.07 603.34   Q 1014.01 599.99 1012.75 587.67   Q 1012.46 584.77 1010.60 582.36   Q 1004.67 574.68 997.30 568.35   C 992.00 563.79 983.89 557.32 976.66 552.84   C 948.46 535.38 916.62 533.14 885.59 544.41   Q 872.09 549.31 858.39 560.10   Q 844.98 570.67 835.50 581.75   C 830.45 587.64 830.84 597.08 837.23 601.64   Q 843.70 606.24 851.54 602.84"/>
<path stroke="#9ed5ee" d="M 536.18 507.52   Q 526.02 516.63 519.45 528.96   Q 514.73 537.83 510.85 547.88   C 499.45 577.43 507.75 609.12 526.15 633.48   Q 531.32 640.32 538.47 645.51   C 553.53 656.45 567.25 663.32 585.72 664.77   C 603.80 666.19 622.56 662.59 637.54 652.81   Q 645.80 647.41 654.45 639.34   C 660.34 633.85 664.76 627.10 668.67 620.42   Q 670.98 616.47 673.02 610.76   Q 676.63 600.60 678.57 591.15   Q 681.94 574.76 677.83 557.67   Q 674.85 545.32 673.61 541.50   Q 672.16 537.08 670.53 534.34   Q 669.74 533.02 666.78 527.50   A 5.20 5.03 11.6 0 0 666.13 526.55   Q 655.42 514.05 647.82 506.93   Q 638.21 497.93 625.79 493.49   Q 615.11 489.66 608.02 488.22   C 596.68 485.91 582.72 486.11 571.07 490.02   Q 553.88 495.79 541.71 504.00   Q 539.54 505.47 537.04 506.90   A 5.70 5.59 8.7 0 0 536.18 507.52"/>
<path stroke="#b5dbee" d="M 637.0152 516.8933   A 24.68 24.34 -67.9 0 0 605.1783 530.6027   A 24.68 24.34 -67.9 0 0 618.4448 562.6267   A 24.68 24.34 -67.9 0 0 650.2817 548.9173   A 24.68 24.34 -67.9 0 0 637.0152 516.8933"/>
<path stroke="#91576c" d="M 843.89 683.91   Q 843.73 683.11 843.18 682.32   Q 838.98 676.24 832.70 669.05   Q 828.80 664.59 826.29 662.68   Q 809.80 650.13 789.53 640.97   Q 767.82 631.17 747.27 631.24   C 733.93 631.28 718.40 636.84 709.12 646.95   C 702.67 653.97 698.09 658.76 694.48 666.22   Q 691.97 671.40 688.54 679.50   Q 686.40 684.57 685.44 689.37   A 1.43 1.43 0.0 0 0 686.21 690.94   Q 696.06 695.82 708.67 701.60   C 715.24 704.62 720.94 705.96 728.30 707.41   Q 741.26 709.95 753.30 707.28   Q 760.43 705.70 771.06 700.43   Q 775.13 698.42 787.90 691.45   Q 802.26 683.62 819.53 682.94   C 825.48 682.71 834.58 684.75 839.50 684.90   Q 842.43 684.98 843.22 684.86   A 0.80 0.80 0.0 0 0 843.89 683.91"/>
<path stroke="#91576c" d="M 692.26 714.78   A 0.69 0.68 66.6 0 0 691.87 715.78   Q 696.11 723.15 701.90 729.11   C 707.05 734.41 712.86 740.99 718.31 744.98   Q 726.29 750.81 735.95 755.36   C 746.21 760.19 760.50 762.39 770.45 755.69   Q 781.80 748.05 788.70 735.96   C 791.86 730.42 794.25 727.07 796.31 721.76   Q 799.43 713.71 800.76 707.01   A 0.58 0.58 0.0 0 0 799.94 706.38   C 795.16 708.75 789.71 711.33 784.10 714.75   C 776.67 719.28 766.49 722.85 759.17 725.15   C 746.99 728.95 734.65 727.55 721.45 725.33   Q 715.99 724.42 707.80 720.89   Q 703.16 718.89 692.69 714.87   Q 692.37 714.75 692.26 714.78"/>
</g>

<path xmlns="http://www.w3.org/2000/svg" fill="#2e2e6f" d="M 229.88 942.49   A 0.25 0.25 0.0 0 0 230.07 942.06   Q 221.87 934.81 215.49 927.22   C 206.41 916.42 198.03 905.55 191.58 892.65   Q 185.97 881.45 184.01 867.50   C 180.83 844.82 188.57 824.23 209.47 813.23   C 227.07 803.96 250.04 807.64 267.41 815.66   A 0.51 0.51 0.0 0 0 268.13 815.14   Q 266.64 799.82 267.89 782.26   Q 269.50 759.76 276.36 735.60   C 281.69 716.79 290.13 700.16 300.44 683.66   C 307.17 672.89 315.23 663.50 324.13 655.07   A 3.23 3.20 69.5 0 0 325.14 652.82   Q 325.45 643.01 326.91 628.83   Q 330.22 596.60 338.38 560.81   Q 351.72 502.35 377.90 448.97   C 383.29 437.99 390.10 425.99 395.37 416.62   C 407.31 395.43 422.72 374.33 438.88 355.13   Q 474.54 312.77 519.36 280.62   Q 592.03 228.50 679.21 213.72   Q 743.06 202.90 806.74 213.76   Q 861.05 223.02 910.33 247.44   C 987.76 285.81 1051.99 349.20 1093.88 424.37   Q 1106.19 446.47 1118.46 474.06   Q 1120.52 478.68 1128.24 499.23   Q 1133.69 513.74 1137.00 524.74   Q 1150.50 569.66 1157.39 617.03   Q 1159.99 634.91 1160.49 652.39   A 3.47 3.43 -69.4 0 0 1161.57 654.81   C 1170.71 663.39 1178.43 672.08 1185.42 683.12   C 1192.35 694.07 1199.27 705.86 1203.81 717.18   C 1222.05 762.58 1224.14 813.63 1213.38 861.68   C 1201.82 913.34 1176.23 960.27 1139.84 998.59   Q 1121.18 1018.24 1096.79 1034.32   Q 1071.18 1051.18 1049.18 1059.04   C 1040.97 1061.97 1036.41 1063.35 1026.46 1066.43   A 5.27 5.19 12.6 0 0 1024.20 1067.84   Q 1011.49 1081.38 995.25 1094.74   Q 971.77 1114.06 946.99 1129.72   Q 935.48 1137.00 922.66 1143.15   A 0.91 0.91 0.0 0 0 922.40 1144.60   Q 938.25 1161.19 941.30 1183.97   C 944.95 1211.24 926.36 1236.89 899.16 1240.96   Q 884.10 1243.21 869.85 1236.26   A 0.87 0.86 37.0 0 0 868.90 1236.39   Q 856.92 1246.89 840.41 1247.74   C 808.90 1249.35 786.12 1223.27 787.26 1192.72   Q 787.41 1188.64 787.69 1184.36   A 0.43 0.42 87.8 0 0 787.21 1183.91   Q 743.76 1189.22 699.88 1183.98   A 0.47 0.46 -87.4 0 0 699.36 1184.46   Q 699.39 1185.94 699.59 1189.11   C 701.04 1211.72 691.43 1232.70 670.82 1243.14   C 655.47 1250.92 636.28 1248.75 622.12 1239.32   C 621.09 1238.63 619.65 1237.22 618.29 1236.42   A 1.16 1.15 -42.3 0 0 617.18 1236.37   Q 608.08 1240.75 599.08 1241.34   C 565.70 1243.50 541.57 1215.16 546.11 1182.71   Q 549.10 1161.37 564.55 1145.03   A 0.61 0.61 0.0 0 0 564.40 1144.08   Q 548.17 1135.30 547.55 1134.97   C 537.81 1129.77 529.36 1124.13 520.82 1118.04   A 4.21 4.20 61.9 0 0 518.26 1117.26   Q 477.69 1118.18 437.73 1115.36   Q 364.65 1110.19 296.96 1090.00   C 265.79 1080.70 235.29 1067.78 209.16 1050.10   C 189.59 1036.85 165.04 1012.56 167.48 986.62   Q 169.52 964.90 186.82 952.54   Q 196.28 945.78 206.45 943.70   Q 218.25 941.28 229.88 942.49   Z   M 505.02 1072.78   Q 516.87 1082.13 528.78 1091.46   C 533.58 1095.21 538.16 1097.88 543.00 1100.97   Q 543.02 1100.98 569.96 1116.79   Q 576.07 1120.38 587.80 1125.43   C 611.20 1135.50 631.63 1143.17 654.52 1148.63   Q 670.68 1152.48 676.82 1153.65   Q 742.15 1166.08 808.88 1153.63   Q 821.56 1151.26 841.09 1146.10   Q 853.14 1142.91 863.20 1139.20   Q 881.00 1132.61 901.09 1123.82   C 904.87 1122.17 911.48 1119.18 916.35 1115.92   C 919.54 1113.79 925.49 1110.07 930.84 1107.13   Q 941.26 1101.39 946.43 1097.92   Q 960.02 1088.79 973.46 1077.95   Q 977.06 1075.05 980.43 1071.55   Q 983.59 1069.66 986.31 1066.96   C 994.49 1058.88 1003.01 1051.44 1010.52 1044.27   Q 1012.09 1042.78 1019.13 1033.68   Q 1023.09 1028.56 1027.72 1023.08   Q 1043.65 1004.21 1056.47 983.90   Q 1059.95 978.38 1067.18 964.95   Q 1072.36 955.31 1077.48 945.78   Q 1084.15 933.33 1087.95 923.94   C 1093.10 911.23 1098.94 897.51 1103.23 884.82   C 1123.23 825.52 1134.09 762.30 1135.47 700.16   Q 1135.96 678.45 1134.49 658.40   Q 1132.65 633.36 1130.36 616.82   Q 1126.36 588.02 1117.89 556.06   Q 1112.66 536.33 1108.01 521.24   Q 1107.51 519.59 1103.33 507.67   C 1101.88 503.53 1100.08 500.44 1098.00 495.71   Q 1095.11 489.18 1094.16 486.67   Q 1086.71 467.09 1079.02 452.98   Q 1069.76 435.98 1063.80 425.70   Q 1057.53 414.90 1045.48 397.79   Q 1009.89 347.23 961.25 309.79   Q 950.25 301.32 933.89 290.86   Q 908.89 274.89 882.89 263.84   Q 773.26 217.26 658.22 245.07   C 640.58 249.34 622.19 255.81 605.73 262.25   C 591.28 267.90 576.13 276.56 563.05 283.84   Q 548.22 292.09 547.24 292.76   Q 541.41 296.69 511.56 319.79   Q 501.40 327.65 488.38 340.63   Q 469.22 359.74 453.05 379.72   C 438.14 398.16 425.68 418.08 414.11 437.10   Q 410.31 443.36 407.89 448.40   C 401.71 461.30 390.57 483.27 384.16 500.89   C 380.02 512.27 372.72 533.12 368.68 548.70   C 360.50 580.21 355.01 610.65 352.69 642.19   Q 351.12 663.53 350.83 670.29   Q 349.86 692.76 351.95 722.26   Q 355.82 776.91 367.85 829.14   C 377.67 871.78 392.07 914.04 412.30 953.11   C 419.39 966.82 426.09 979.47 434.18 991.33   Q 440.68 1000.87 454.00 1019.36   C 461.70 1030.06 468.57 1037.02 477.95 1046.57   Q 477.97 1046.60 488.27 1057.69   Q 495.93 1065.95 505.02 1072.78   Z   M 412.58 1006.55   L 408.32 999.18   A 3.37 0.24 61.2 0 0 407.03 997.18   Q 406.94 997.09 402.55 991.10   Q 399.92 987.52 398.52 984.84   Q 382.83 954.86 377.00 942.01   Q 374.22 935.91 365.40 913.13   C 356.07 889.03 349.88 867.31 343.59 842.01   C 331.94 795.11 325.08 745.97 324.05 696.87   A 0.25 0.25 0.0 0 0 323.58 696.76   C 321.78 700.09 317.21 705.57 314.35 711.35   Q 307.14 725.94 300.84 746.99   Q 296.26 762.28 294.91 778.86   Q 292.51 808.36 297.27 838.21   Q 298.89 848.31 302.67 861.89   Q 307.77 880.19 309.55 885.21   Q 314.22 898.41 320.55 910.71   C 329.74 928.54 338.35 944.52 350.92 959.08   Q 362.68 972.70 367.56 978.19   C 369.70 980.59 373.47 984.50 376.66 987.24   Q 388.79 997.63 396.39 1004.59   C 398.43 1006.46 401.42 1008.41 403.19 1009.83   Q 405.12 1011.38 408.66 1013.21   Q 415.48 1016.72 421.22 1020.51   A 0.38 0.38 0.0 0 0 421.75 1020.00   Q 420.32 1017.73 417.86 1014.89   Q 416.68 1013.52 413.37 1007.20   Q 413.27 1007.00 413.12 1006.93   A 0.98 0.28 19.3 0 1 412.58 1006.55   Z   M 1080.27 994.59   C 1079.31 997.26 1077.33 999.88 1075.02 1003.30   Q 1073.01 1006.28 1071.03 1010.15   Q 1067.96 1016.19 1062.22 1022.21   Q 1061.36 1023.12 1061.35 1023.99   A 0.43 0.42 74.3 0 0 1062.00 1024.36   Q 1063.82 1023.21 1068.79 1019.88   Q 1071.08 1018.35 1075.79 1015.82   Q 1083.86 1011.48 1089.53 1007.26   Q 1091.33 1005.91 1097.47 999.96   Q 1102.37 995.21 1109.01 990.13   Q 1115.99 984.80 1120.51 980.27   Q 1129.50 971.27 1139.36 958.11   Q 1140.17 957.02 1143.89 952.01   Q 1145.96 949.22 1148.13 945.69   Q 1150.00 942.64 1154.09 937.09   Q 1158.57 930.99 1167.24 912.97   Q 1170.06 907.10 1175.46 894.58   Q 1179.63 884.92 1182.43 875.70   C 1193.37 839.75 1196.44 802.20 1190.12 764.98   Q 1188.83 757.33 1186.16 748.82   C 1181.90 735.20 1178.54 724.54 1172.75 712.84   C 1169.86 707.02 1166.20 702.61 1162.66 697.13   A 0.42 0.42 0.0 0 0 1161.88 697.37   C 1162.16 706.03 1161.15 713.79 1160.68 724.17   Q 1159.98 739.63 1159.71 742.83   C 1156.23 783.39 1148.42 823.88 1137.64 863.57   C 1133.16 880.05 1127.78 895.02 1121.94 911.45   Q 1117.82 923.01 1112.68 934.15   Q 1101.98 957.28 1093.42 974.20   Q 1089.34 982.24 1085.41 988.15   Q 1084.51 989.50 1080.66 993.94   A 2.03 1.94 -15.4 0 0 1080.27 994.59   Z   M 337.03 984.39   C 335.71 982.42 333.29 980.37 331.57 977.97   Q 316.28 956.61 313.90 952.87   Q 296.10 924.86 284.15 892.59   Q 280.27 882.12 277.52 870.71   Q 274.11 856.61 272.53 848.37   A 3.29 3.28 -82.0 0 0 270.79 846.05   C 258.47 839.78 247.46 834.48 233.40 834.13   C 214.65 833.66 206.68 849.85 210.73 866.26   Q 214.67 882.22 223.63 895.16   C 233.60 909.55 244.09 919.14 257.86 932.17   C 262.90 936.93 269.01 941.28 274.79 945.69   Q 280.42 949.99 308.81 968.98   C 311.61 970.85 314.53 972.32 316.98 973.92   Q 319.25 975.39 323.29 977.40   Q 331.12 981.28 336.67 984.77   A 0.27 0.27 0.0 0 0 337.03 984.39   Z   M 484.74 1090.69   Q 484.60 1090.42 484.33 1090.17   Q 479.66 1085.80 472.61 1079.95   C 471.70 1079.19 470.09 1078.10 468.48 1077.43   Q 445.85 1068.01 441.34 1065.88   Q 431.68 1061.35 400.38 1045.11   Q 390.34 1039.89 368.26 1029.74   Q 342.94 1018.10 310.61 999.62   C 303.65 995.64 296.20 990.44 289.34 986.66   Q 279.73 981.35 270.20 978.08   Q 255.23 972.95 243.65 970.35   Q 226.85 966.58 210.62 970.08   Q 200.67 972.23 195.57 982.49   A 4.31 4.08 -27.5 0 0 195.21 983.53   C 192.41 997.26 198.41 1004.55 207.57 1014.30   Q 213.24 1020.34 218.41 1024.04   C 231.86 1033.67 246.71 1042.97 263.02 1049.69   Q 273.02 1053.81 294.09 1061.09   Q 316.59 1068.86 341.91 1074.56   Q 349.40 1076.24 362.87 1078.38   C 374.56 1080.24 388.54 1083.22 402.13 1085.17   Q 410.63 1086.39 420.53 1087.35   Q 453.09 1090.50 484.50 1091.07   A 0.27 0.26 -13.5 0 0 484.74 1090.69   Z   M 591.70 1156.62   Q 575.73 1166.77 572.72 1184.43   C 571.40 1192.21 572.44 1204.28 579.71 1209.54   Q 585.98 1214.08 594.28 1214.79   C 601.44 1215.41 606.09 1211.97 611.56 1207.96   C 617.49 1203.61 624.21 1203.04 628.88 1209.47   Q 640.15 1224.99 658.80 1219.61   C 666.78 1217.31 671.58 1207.04 672.90 1199.48   Q 674.42 1190.76 672.76 1181.33   A 2.23 2.22 -89.6 0 0 671.00 1179.54   C 656.64 1176.67 642.34 1173.44 627.41 1168.49   C 610.73 1162.96 603.15 1160.58 592.73 1156.52   A 1.15 1.15 0.0 0 0 591.70 1156.62   Z   M 845.58 1219.46   Q 852.10 1216.59 854.35 1214.11   C 856.83 1211.38 860.28 1206.38 863.42 1205.25   C 869.98 1202.91 874.03 1206.60 878.95 1210.29   C 883.55 1213.73 889.16 1215.94 895.05 1214.80   Q 902.25 1213.41 906.61 1210.09   C 918.45 1201.09 916.28 1181.42 909.22 1170.55   Q 903.69 1162.02 895.51 1156.60   A 2.13 2.13 0.0 0 0 893.56 1156.39   Q 875.58 1163.39 852.29 1170.72   Q 835.10 1176.14 816.45 1179.62   A 2.18 2.18 0.0 0 0 814.72 1181.28   Q 811.59 1195.03 816.88 1207.78   C 819.96 1215.20 825.26 1219.62 833.03 1220.57   Q 840.91 1221.52 845.58 1219.46   Z"/>
<path xmlns="http://www.w3.org/2000/svg" fill="#686bf0" d="M 980.43 1071.55   Q 979.90 1068.59 979.49 1065.65   C 978.66 1059.67 978.83 1053.61 978.37 1047.25   Q 978.16 1044.49 977.11 1039.90   Q 973.48 1024.09 971.83 1017.42   Q 968.82 1005.29 962.44 989.80   C 954.83 971.31 945.14 952.62 932.96 935.93   Q 922.21 921.18 911.38 909.59   C 864.02 858.92 799.38 831.03 729.96 835.29   Q 675.26 838.64 630.36 864.97   Q 584.95 891.61 554.42 933.65   C 534.30 961.36 519.76 992.95 511.54 1026.52   C 507.81 1041.75 505.52 1052.31 504.51 1065.06   Q 504.25 1068.44 505.02 1072.78   Q 495.93 1065.95 488.27 1057.69   Q 477.97 1046.60 477.95 1046.57   C 468.57 1037.02 461.70 1030.06 454.00 1019.36   Q 440.68 1000.87 434.18 991.33   C 426.09 979.47 419.39 966.82 412.30 953.11   C 392.07 914.04 377.67 871.78 367.85 829.14   Q 355.82 776.91 351.95 722.26   Q 349.86 692.76 350.83 670.29   Q 351.12 663.53 352.69 642.19   C 355.01 610.65 360.50 580.21 368.68 548.70   C 372.72 533.12 380.02 512.27 384.16 500.89   C 390.57 483.27 401.71 461.30 407.89 448.40   Q 410.31 443.36 414.11 437.10   C 425.68 418.08 438.14 398.16 453.05 379.72   Q 469.22 359.74 488.38 340.63   Q 501.40 327.65 511.56 319.79   Q 541.41 296.69 547.24 292.76   Q 548.22 292.09 563.05 283.84   C 576.13 276.56 591.28 267.90 605.73 262.25   C 622.19 255.81 640.58 249.34 658.22 245.07   Q 773.26 217.26 882.89 263.84   Q 908.89 274.89 933.89 290.86   Q 950.25 301.32 961.25 309.79   Q 1009.89 347.23 1045.48 397.79   Q 1057.53 414.90 1063.80 425.70   Q 1069.76 435.98 1079.02 452.98   Q 1086.71 467.09 1094.16 486.67   Q 1095.11 489.18 1098.00 495.71   C 1100.08 500.44 1101.88 503.53 1103.33 507.67   Q 1107.51 519.59 1108.01 521.24   Q 1112.66 536.33 1117.89 556.06   Q 1126.36 588.02 1130.36 616.82   Q 1132.65 633.36 1134.49 658.40   Q 1135.96 678.45 1135.47 700.16   C 1134.09 762.30 1123.23 825.52 1103.23 884.82   C 1098.94 897.51 1093.10 911.23 1087.95 923.94   Q 1084.15 933.33 1077.48 945.78   Q 1072.36 955.31 1067.18 964.95   Q 1059.95 978.38 1056.47 983.90   Q 1043.65 1004.21 1027.72 1023.08   Q 1023.09 1028.56 1019.13 1033.68   Q 1012.09 1042.78 1010.52 1044.27   C 1003.01 1051.44 994.49 1058.88 986.31 1066.96   Q 983.59 1069.66 980.43 1071.55   Z   M 663.51 701.15   Q 664.14 703.05 664.91 705.10   Q 665.68 707.12 666.72 708.89   Q 670.15 714.71 672.43 719.43   Q 674.70 724.16 676.28 726.48   C 680.19 732.25 685.86 738.59 688.98 742.35   C 696.83 751.83 706.45 759.39 716.85 766.31   Q 721.38 769.32 727.42 772.03   Q 735.56 775.66 738.57 776.48   Q 765.88 783.85 787.86 766.56   Q 791.66 763.56 794.81 759.56   C 799.58 753.49 804.98 746.93 808.15 739.43   Q 810.86 733.00 813.05 728.52   C 817.38 719.68 819.43 712.30 820.98 703.78   A 2.26 2.25 6.5 0 1 823.32 701.93   L 826.31 702.08   L 824.46 702.26   A 0.69 0.67 -79.3 0 0 823.90 702.65   Q 823.67 703.12 823.95 703.62   Q 824.00 703.70 824.53 704.14   Q 831.11 709.66 836.37 712.96   A 17.27 16.55 80.6 0 1 838.60 714.63   Q 843.82 719.22 845.51 719.94   C 851.97 722.67 858.43 726.53 864.78 729.41   C 908.74 749.37 961.16 747.60 1003.42 724.89   Q 1042.98 703.62 1066.55 664.82   Q 1073.88 652.76 1077.80 643.18   Q 1095.35 600.30 1090.25 554.19   Q 1088.25 536.03 1082.79 520.42   C 1075.18 498.64 1064.77 478.77 1049.35 461.39   Q 1014.97 422.64 965.94 410.77   C 889.11 392.16 813.30 434.26 782.42 505.37   Q 765.97 543.22 768.39 584.95   Q 768.92 593.97 770.31 601.19   Q 771.65 608.10 771.83 615.29   Q 767.36 614.66 763.65 613.83   Q 758.49 612.67 746.26 612.67   Q 727.80 612.68 709.73 622.72   Q 709.66 616.51 712.42 610.93   A 4.34 4.19 67.2 0 0 712.71 610.18   Q 714.03 605.53 714.51 603.06   Q 715.68 597.01 716.54 581.36   C 717.20 569.42 715.61 555.36 713.88 545.07   Q 710.33 523.99 700.92 503.08   Q 681.62 460.20 643.76 433.73   Q 614.26 413.10 579.49 408.32   Q 563.03 406.05 554.25 406.24   Q 497.05 407.52 453.48 443.97   C 441.17 454.27 430.01 466.17 421.41 480.32   C 413.07 494.03 407.01 505.14 402.86 517.33   C 396.86 534.97 393.08 554.42 392.94 573.35   Q 392.58 623.72 419.60 667.17   Q 439.87 699.75 473.21 720.07   Q 521.93 749.77 579.57 741.53   C 599.93 738.62 618.02 731.59 635.92 721.49   Q 641.50 718.34 649.98 711.67   Q 656.77 706.33 663.51 701.15   Z"/>
<path xmlns="http://www.w3.org/2000/svg" fill="#ee8997" d="M 1204.16 414.18   A 0.38 0.38 0.0 0 0 1204.81 414.42   C 1219.37 398.86 1246.06 399.54 1255.00 420.69   C 1260.42 433.51 1253.49 448.53 1243.38 457.38   C 1225.47 473.08 1200.25 481.73 1176.47 486.66   Q 1174.10 487.15 1173.12 486.86   A 1.45 1.43 81.3 0 1 1172.33 486.27   C 1164.22 474.07 1158.17 460.54 1153.06 447.96   Q 1146.94 432.87 1146.72 416.76   Q 1146.58 406.12 1149.96 399.30   C 1153.58 392.00 1160.82 384.08 1169.26 382.48   C 1190.20 378.50 1203.09 394.93 1204.16 414.18   Z"/>
<path xmlns="http://www.w3.org/2000/svg" fill="#8992fc" d="M 709.73 622.72   Q 700.23 629.53 691.81 637.82   Q 689.16 640.43 688.49 641.49   Q 684.90 647.22 679.34 654.99   Q 677.68 657.31 676.69 659.41   C 674.72 663.59 673.01 667.02 671.49 671.25   Q 669.85 675.82 666.90 683.43   Q 664.31 690.11 663.51 701.15   Q 656.77 706.33 649.98 711.67   Q 641.50 718.34 635.92 721.49   C 618.02 731.59 599.93 738.62 579.57 741.53   Q 521.93 749.77 473.21 720.07   Q 439.87 699.75 419.60 667.17   Q 392.58 623.72 392.94 573.35   C 393.08 554.42 396.86 534.97 402.86 517.33   C 407.01 505.14 413.07 494.03 421.41 480.32   C 430.01 466.17 441.17 454.27 453.48 443.97   Q 497.05 407.52 554.25 406.24   Q 563.03 406.05 579.49 408.32   Q 614.26 413.10 643.76 433.73   Q 681.62 460.20 700.92 503.08   Q 710.33 523.99 713.88 545.07   C 715.61 555.36 717.20 569.42 716.54 581.36   Q 715.68 597.01 714.51 603.06   Q 714.03 605.53 712.71 610.18   A 4.34 4.19 67.2 0 1 712.42 610.93   Q 709.66 616.51 709.73 622.72   Z   M 682.59 526.68   Q 680.82 524.60 680.87 522.74   A 0.94 0.93 19.2 0 0 680.49 521.97   Q 679.67 521.37 679.89 520.49   A 0.51 0.50 11.6 0 0 679.47 519.86   Q 679.04 519.79 679.13 519.08   A 1.06 1.04 33.9 0 0 679.00 518.44   Q 677.45 515.60 675.88 512.28   Q 674.15 508.63 672.75 506.44   Q 672.00 505.25 666.73 497.20   Q 663.98 493.01 659.81 488.63   Q 652.90 481.36 649.33 477.94   C 638.10 467.15 624.86 459.59 609.94 453.78   C 579.03 441.75 542.46 443.36 512.56 457.69   C 496.60 465.34 481.46 477.45 470.17 490.69   Q 460.23 502.35 452.15 519.91   Q 437.77 551.14 440.33 585.26   Q 443.12 622.51 465.45 653.30   C 485.59 681.05 516.97 698.81 550.74 703.46   C 578.08 707.22 607.91 700.44 631.26 686.04   C 639.92 680.70 643.33 677.12 652.82 668.49   C 654.92 666.58 657.89 664.73 659.54 662.52   Q 665.48 654.51 672.05 644.29   Q 674.80 640.01 677.55 633.58   Q 679.83 628.25 684.37 620.82   A 4.69 4.27 73.3 0 0 684.81 619.90   Q 688.34 609.63 688.78 606.12   Q 689.99 596.46 691.06 578.84   Q 691.46 572.36 691.23 565.65   Q 690.86 554.99 690.41 552.49   Q 688.92 544.34 688.80 543.62   Q 688.42 541.27 683.27 529.65   Q 683.04 529.13 682.94 527.55   A 1.49 1.43 -68.0 0 0 682.59 526.68   Z"/>
<path xmlns="http://www.w3.org/2000/svg" fill="#8992fc" d="M 826.31 702.08   Q 834.59 703.56 843.01 703.30   Q 851.35 703.05 858.02 697.30   C 863.42 692.64 863.72 684.84 861.51 678.48   Q 856.85 665.01 846.72 655.55   Q 845.54 654.45 832.13 643.92   C 821.63 635.68 810.14 629.16 798.90 624.64   Q 791.53 621.68 781.26 617.72   Q 778.95 616.83 771.83 615.29   Q 771.65 608.10 770.31 601.19   Q 768.92 593.97 768.39 584.95   Q 765.97 543.22 782.42 505.37   C 813.30 434.26 889.11 392.16 965.94 410.77   Q 1014.97 422.64 1049.35 461.39   C 1064.77 478.77 1075.18 498.64 1082.79 520.42   Q 1088.25 536.03 1090.25 554.19   Q 1095.35 600.30 1077.80 643.18   Q 1073.88 652.76 1066.55 664.82   Q 1042.98 703.62 1003.42 724.89   C 961.16 747.60 908.74 749.37 864.78 729.41   C 858.43 726.53 851.97 722.67 845.51 719.94   Q 843.82 719.22 838.60 714.63   A 17.27 16.55 80.6 0 0 836.37 712.96   Q 831.11 709.66 824.53 704.14   Q 824.00 703.70 823.95 703.62   Q 823.67 703.12 823.90 702.65   A 0.69 0.67 -79.3 0 1 824.46 702.26   L 826.31 702.08   Z   M 851.54 602.84   Q 853.25 602.10 854.46 600.63   Q 858.37 595.93 863.52 590.01   C 872.83 579.31 885.79 573.05 898.68 568.18   Q 917.29 561.16 936.17 565.11   C 952.43 568.51 967.13 575.57 979.21 587.19   C 983.12 590.96 986.71 595.89 989.99 599.77   C 993.26 603.63 999.26 604.97 1004.07 603.34   Q 1014.01 599.99 1012.75 587.67   Q 1012.46 584.77 1010.60 582.36   Q 1004.67 574.68 997.30 568.35   C 992.00 563.79 983.89 557.32 976.66 552.84   C 948.46 535.38 916.62 533.14 885.59 544.41   Q 872.09 549.31 858.39 560.10   Q 844.98 570.67 835.50 581.75   C 830.45 587.64 830.84 597.08 837.23 601.64   Q 843.70 606.24 851.54 602.84   Z"/>
<path xmlns="http://www.w3.org/2000/svg" fill="#d2f4fe" d="M 682.94 527.55   Q 683.04 529.13 683.27 529.65   Q 688.42 541.27 688.80 543.62   Q 688.92 544.34 690.41 552.49   Q 690.86 554.99 691.23 565.65   Q 691.46 572.36 691.06 578.84   Q 689.99 596.46 688.78 606.12   Q 688.34 609.63 684.81 619.90   A 4.69 4.27 73.3 0 1 684.37 620.82   Q 679.83 628.25 677.55 633.58   Q 674.80 640.01 672.05 644.29   Q 665.48 654.51 659.54 662.52   C 657.89 664.73 654.92 666.58 652.82 668.49   C 643.33 677.12 639.92 680.70 631.26 686.04   C 607.91 700.44 578.08 707.22 550.74 703.46   C 516.97 698.81 485.59 681.05 465.45 653.30   Q 443.12 622.51 440.33 585.26   Q 437.77 551.14 452.15 519.91   Q 460.23 502.35 470.17 490.69   C 481.46 477.45 496.60 465.34 512.56 457.69   C 542.46 443.36 579.03 441.75 609.94 453.78   C 624.86 459.59 638.10 467.15 649.33 477.94   Q 652.90 481.36 659.81 488.63   Q 663.98 493.01 666.73 497.20   Q 672.00 505.25 672.75 506.44   Q 674.15 508.63 675.88 512.28   Q 677.45 515.60 679.00 518.44   A 1.06 1.04 33.9 0 1 679.13 519.08   Q 679.04 519.79 679.47 519.86   A 0.51 0.50 11.6 0 1 679.89 520.49   Q 679.67 521.37 680.49 521.97   A 0.94 0.93 19.2 0 1 680.87 522.74   Q 680.82 524.60 682.59 526.68   A 1.49 1.43 -68.0 0 1 682.94 527.55   Z   M 536.18 507.52   Q 526.02 516.63 519.45 528.96   Q 514.73 537.83 510.85 547.88   C 499.45 577.43 507.75 609.12 526.15 633.48   Q 531.32 640.32 538.47 645.51   C 553.53 656.45 567.25 663.32 585.72 664.77   C 603.80 666.19 622.56 662.59 637.54 652.81   Q 645.80 647.41 654.45 639.34   C 660.34 633.85 664.76 627.10 668.67 620.42   Q 670.98 616.47 673.02 610.76   Q 676.63 600.60 678.57 591.15   Q 681.94 574.76 677.83 557.67   Q 674.85 545.32 673.61 541.50   Q 672.16 537.08 670.53 534.34   Q 669.74 533.02 666.78 527.50   A 5.20 5.03 11.6 0 0 666.13 526.55   Q 655.42 514.05 647.82 506.93   Q 638.21 497.93 625.79 493.49   Q 615.11 489.66 608.02 488.22   C 596.68 485.91 582.72 486.11 571.07 490.02   Q 553.88 495.79 541.71 504.00   Q 539.54 505.47 537.04 506.90   A 5.70 5.59 8.7 0 0 536.18 507.52   Z"/>
<path xmlns="http://www.w3.org/2000/svg" fill="#6ab6dd" d="M 537.04 506.90   Q 539.54 505.47 541.71 504.00   Q 553.88 495.79 571.07 490.02   C 582.72 486.11 596.68 485.91 608.02 488.22   Q 615.11 489.66 625.79 493.49   Q 638.21 497.93 647.82 506.93   Q 655.42 514.05 666.13 526.55   A 5.20 5.03 11.6 0 1 666.78 527.50   Q 669.74 533.02 670.53 534.34   Q 672.16 537.08 673.61 541.50   Q 674.85 545.32 677.83 557.67   Q 681.94 574.76 678.57 591.15   Q 676.63 600.60 673.02 610.76   Q 670.98 616.47 668.67 620.42   C 664.76 627.10 660.34 633.85 654.45 639.34   Q 645.80 647.41 637.54 652.81   C 622.56 662.59 603.80 666.19 585.72 664.77   C 567.25 663.32 553.53 656.45 538.47 645.51   Q 531.32 640.32 526.15 633.48   C 507.75 609.12 499.45 577.43 510.85 547.88   Q 514.73 537.83 519.45 528.96   Q 526.02 516.63 536.18 507.52   A 5.70 5.59 8.7 0 1 537.04 506.90   Z   M 637.0152 516.8933   A 24.68 24.34 -67.9 0 0 605.1783 530.6027   A 24.68 24.34 -67.9 0 0 618.4448 562.6267   A 24.68 24.34 -67.9 0 0 650.2817 548.9173   A 24.68 24.34 -67.9 0 0 637.0152 516.8933   Z"/>
<ellipse xmlns="http://www.w3.org/2000/svg" fill="#ffffff" cx="0.00" cy="0.00" transform="translate(627.73,539.76) rotate(-67.9)" rx="24.68" ry="24.34"/>
<path xmlns="http://www.w3.org/2000/svg" fill="#2e2e6f" d="M 851.54 602.84   Q 843.70 606.24 837.23 601.64   C 830.84 597.08 830.45 587.64 835.50 581.75   Q 844.98 570.67 858.39 560.10   Q 872.09 549.31 885.59 544.41   C 916.62 533.14 948.46 535.38 976.66 552.84   C 983.89 557.32 992.00 563.79 997.30 568.35   Q 1004.67 574.68 1010.60 582.36   Q 1012.46 584.77 1012.75 587.67   Q 1014.01 599.99 1004.07 603.34   C 999.26 604.97 993.26 603.63 989.99 599.77   C 986.71 595.89 983.12 590.96 979.21 587.19   C 967.13 575.57 952.43 568.51 936.17 565.11   Q 917.29 561.16 898.68 568.18   C 885.79 573.05 872.83 579.31 863.52 590.01   Q 858.37 595.93 854.46 600.63   Q 853.25 602.10 851.54 602.84   Z"/>
<path xmlns="http://www.w3.org/2000/svg" fill="#2e2e6f" d="M 771.83 615.29   Q 778.95 616.83 781.26 617.72   Q 791.53 621.68 798.90 624.64   C 810.14 629.16 821.63 635.68 832.13 643.92   Q 845.54 654.45 846.72 655.55   Q 856.85 665.01 861.51 678.48   C 863.72 684.84 863.42 692.64 858.02 697.30   Q 851.35 703.05 843.01 703.30   Q 834.59 703.56 826.31 702.08   L 823.32 701.93   A 2.26 2.25 6.5 0 0 820.98 703.78   C 819.43 712.30 817.38 719.68 813.05 728.52   Q 810.86 733.00 808.15 739.43   C 804.98 746.93 799.58 753.49 794.81 759.56   Q 791.66 763.56 787.86 766.56   Q 765.88 783.85 738.57 776.48   Q 735.56 775.66 727.42 772.03   Q 721.38 769.32 716.85 766.31   C 706.45 759.39 696.83 751.83 688.98 742.35   C 685.86 738.59 680.19 732.25 676.28 726.48   Q 674.70 724.16 672.43 719.43   Q 670.15 714.71 666.72 708.89   Q 665.68 707.12 664.91 705.10   Q 664.14 703.05 663.51 701.15   Q 664.31 690.11 666.90 683.43   Q 669.85 675.82 671.49 671.25   C 673.01 667.02 674.72 663.59 676.69 659.41   Q 677.68 657.31 679.34 654.99   Q 684.90 647.22 688.49 641.49   Q 689.16 640.43 691.81 637.82   Q 700.23 629.53 709.73 622.72   Q 727.80 612.68 746.26 612.67   Q 758.49 612.67 763.65 613.83   Q 767.36 614.66 771.83 615.29   Z   M 843.89 683.91   Q 843.73 683.11 843.18 682.32   Q 838.98 676.24 832.70 669.05   Q 828.80 664.59 826.29 662.68   Q 809.80 650.13 789.53 640.97   Q 767.82 631.17 747.27 631.24   C 733.93 631.28 718.40 636.84 709.12 646.95   C 702.67 653.97 698.09 658.76 694.48 666.22   Q 691.97 671.40 688.54 679.50   Q 686.40 684.57 685.44 689.37   A 1.43 1.43 0.0 0 0 686.21 690.94   Q 696.06 695.82 708.67 701.60   C 715.24 704.62 720.94 705.96 728.30 707.41   Q 741.26 709.95 753.30 707.28   Q 760.43 705.70 771.06 700.43   Q 775.13 698.42 787.90 691.45   Q 802.26 683.62 819.53 682.94   C 825.48 682.71 834.58 684.75 839.50 684.90   Q 842.43 684.98 843.22 684.86   A 0.80 0.80 0.0 0 0 843.89 683.91   Z   M 692.26 714.78   A 0.69 0.68 66.6 0 0 691.87 715.78   Q 696.11 723.15 701.90 729.11   C 707.05 734.41 712.86 740.99 718.31 744.98   Q 726.29 750.81 735.95 755.36   C 746.21 760.19 760.50 762.39 770.45 755.69   Q 781.80 748.05 788.70 735.96   C 791.86 730.42 794.25 727.07 796.31 721.76   Q 799.43 713.71 800.76 707.01   A 0.58 0.58 0.0 0 0 799.94 706.38   C 795.16 708.75 789.71 711.33 784.10 714.75   C 776.67 719.28 766.49 722.85 759.17 725.15   C 746.99 728.95 734.65 727.55 721.45 725.33   Q 715.99 724.42 707.80 720.89   Q 703.16 718.89 692.69 714.87   Q 692.37 714.75 692.26 714.78   Z"/>
<path xmlns="http://www.w3.org/2000/svg" fill="#f38069" d="M 843.89 683.91   A 0.80 0.80 0.0 0 1 843.22 684.86   Q 842.43 684.98 839.50 684.90   C 834.58 684.75 825.48 682.71 819.53 682.94   Q 802.26 683.62 787.90 691.45   Q 775.13 698.42 771.06 700.43   Q 760.43 705.70 753.30 707.28   Q 741.26 709.95 728.30 707.41   C 720.94 705.96 715.24 704.62 708.67 701.60   Q 696.06 695.82 686.21 690.94   A 1.43 1.43 0.0 0 1 685.44 689.37   Q 686.40 684.57 688.54 679.50   Q 691.97 671.40 694.48 666.22   C 698.09 658.76 702.67 653.97 709.12 646.95   C 718.40 636.84 733.93 631.28 747.27 631.24   Q 767.82 631.17 789.53 640.97   Q 809.80 650.13 826.29 662.68   Q 828.80 664.59 832.70 669.05   Q 838.98 676.24 843.18 682.32   Q 843.73 683.11 843.89 683.91   Z"/>
<path xmlns="http://www.w3.org/2000/svg" fill="#6063d9" d="M 413.12 1006.93   Q 413.27 1007.00 413.37 1007.20   Q 416.68 1013.52 417.86 1014.89   Q 420.32 1017.73 421.75 1020.00   A 0.38 0.38 0.0 0 1 421.22 1020.51   Q 415.48 1016.72 408.66 1013.21   Q 405.12 1011.38 403.19 1009.83   C 401.42 1008.41 398.43 1006.46 396.39 1004.59   Q 388.79 997.63 376.66 987.24   C 373.47 984.50 369.70 980.59 367.56 978.19   Q 362.68 972.70 350.92 959.08   C 338.35 944.52 329.74 928.54 320.55 910.71   Q 314.22 898.41 309.55 885.21   Q 307.77 880.19 302.67 861.89   Q 298.89 848.31 297.27 838.21   Q 292.51 808.36 294.91 778.86   Q 296.26 762.28 300.84 746.99   Q 307.14 725.94 314.35 711.35   C 317.21 705.57 321.78 700.09 323.58 696.76   A 0.25 0.25 0.0 0 1 324.05 696.87   C 325.08 745.97 331.94 795.11 343.59 842.01   C 349.88 867.31 356.07 889.03 365.40 913.13   Q 374.22 935.91 377.00 942.01   Q 382.83 954.86 398.52 984.84   Q 399.92 987.52 402.55 991.10   Q 406.94 997.09 407.03 997.18   A 3.37 0.24 61.2 0 1 408.32 999.18   L 412.58 1006.55   A 0.98 0.28 19.3 0 0 413.12 1006.93   Z"/>
<path xmlns="http://www.w3.org/2000/svg" fill="#6063d9" d="M 1080.66 993.94   Q 1084.51 989.50 1085.41 988.15   Q 1089.34 982.24 1093.42 974.20   Q 1101.98 957.28 1112.68 934.15   Q 1117.82 923.01 1121.94 911.45   C 1127.78 895.02 1133.16 880.05 1137.64 863.57   C 1148.42 823.88 1156.23 783.39 1159.71 742.83   Q 1159.98 739.63 1160.68 724.17   C 1161.15 713.79 1162.16 706.03 1161.88 697.37   A 0.42 0.42 0.0 0 1 1162.66 697.13   C 1166.20 702.61 1169.86 707.02 1172.75 712.84   C 1178.54 724.54 1181.90 735.20 1186.16 748.82   Q 1188.83 757.33 1190.12 764.98   C 1196.44 802.20 1193.37 839.75 1182.43 875.70   Q 1179.63 884.92 1175.46 894.58   Q 1170.06 907.10 1167.24 912.97   Q 1158.57 930.99 1154.09 937.09   Q 1150.00 942.64 1148.13 945.69   Q 1145.96 949.22 1143.89 952.01   Q 1140.17 957.02 1139.36 958.11   Q 1129.50 971.27 1120.51 980.27   Q 1115.99 984.80 1109.01 990.13   Q 1102.37 995.21 1097.47 999.96   Q 1091.33 1005.91 1089.53 1007.26   Q 1083.86 1011.48 1075.79 1015.82   Q 1071.08 1018.35 1068.79 1019.88   Q 1063.82 1023.21 1062.00 1024.36   A 0.43 0.42 74.3 0 1 1061.35 1023.99   Q 1061.36 1023.12 1062.22 1022.21   Q 1067.96 1016.19 1071.03 1010.15   Q 1073.01 1006.28 1075.02 1003.30   C 1077.33 999.88 1079.31 997.26 1080.27 994.59   A 2.03 1.94 -15.4 0 1 1080.66 993.94   Z"/>
<path xmlns="http://www.w3.org/2000/svg" fill="#f38069" d="M 692.26 714.78   Q 692.37 714.75 692.69 714.87   Q 703.16 718.89 707.80 720.89   Q 715.99 724.42 721.45 725.33   C 734.65 727.55 746.99 728.95 759.17 725.15   C 766.49 722.85 776.67 719.28 784.10 714.75   C 789.71 711.33 795.16 708.75 799.94 706.38   A 0.58 0.58 0.0 0 1 800.76 707.01   Q 799.43 713.71 796.31 721.76   C 794.25 727.07 791.86 730.42 788.70 735.96   Q 781.80 748.05 770.45 755.69   C 760.50 762.39 746.21 760.19 735.95 755.36   Q 726.29 750.81 718.31 744.98   C 712.86 740.99 707.05 734.41 701.90 729.11   Q 696.11 723.15 691.87 715.78   A 0.69 0.68 66.6 0 1 692.26 714.78   Z"/>
<path xmlns="http://www.w3.org/2000/svg" fill="#524fe3" d="M 337.03 984.39   A 0.27 0.27 0.0 0 1 336.67 984.77   Q 331.12 981.28 323.29 977.40   Q 319.25 975.39 316.98 973.92   C 314.53 972.32 311.61 970.85 308.81 968.98   Q 280.42 949.99 274.79 945.69   C 269.01 941.28 262.90 936.93 257.86 932.17   C 244.09 919.14 233.60 909.55 223.63 895.16   Q 214.67 882.22 210.73 866.26   C 206.68 849.85 214.65 833.66 233.40 834.13   C 247.46 834.48 258.47 839.78 270.79 846.05   A 3.29 3.28 -82.0 0 1 272.53 848.37   Q 274.11 856.61 277.52 870.71   Q 280.27 882.12 284.15 892.59   Q 296.10 924.86 313.90 952.87   Q 316.28 956.61 331.57 977.97   C 333.29 980.37 335.71 982.42 337.03 984.39   Z"/>
<path xmlns="http://www.w3.org/2000/svg" fill="#8992fc" d="M 980.43 1071.55   Q 977.06 1075.05 973.46 1077.95   Q 960.02 1088.79 946.43 1097.92   Q 941.26 1101.39 930.84 1107.13   C 925.49 1110.07 919.54 1113.79 916.35 1115.92   C 911.48 1119.18 904.87 1122.17 901.09 1123.82   Q 881.00 1132.61 863.20 1139.20   Q 853.14 1142.91 841.09 1146.10   Q 821.56 1151.26 808.88 1153.63   Q 742.15 1166.08 676.82 1153.65   Q 670.68 1152.48 654.52 1148.63   C 631.63 1143.17 611.20 1135.50 587.80 1125.43   Q 576.07 1120.38 569.96 1116.79   Q 543.02 1100.98 543.00 1100.97   C 538.16 1097.88 533.58 1095.21 528.78 1091.46   Q 516.87 1082.13 505.02 1072.78   Q 504.25 1068.44 504.51 1065.06   C 505.52 1052.31 507.81 1041.75 511.54 1026.52   C 519.76 992.95 534.30 961.36 554.42 933.65   Q 584.95 891.61 630.36 864.97   Q 675.26 838.64 729.96 835.29   C 799.38 831.03 864.02 858.92 911.38 909.59   Q 922.21 921.18 932.96 935.93   C 945.14 952.62 954.83 971.31 962.44 989.80   Q 968.82 1005.29 971.83 1017.42   Q 973.48 1024.09 977.11 1039.90   Q 978.16 1044.49 978.37 1047.25   C 978.83 1053.61 978.66 1059.67 979.49 1065.65   Q 979.90 1068.59 980.43 1071.55   Z"/>
<path xmlns="http://www.w3.org/2000/svg" fill="#524fe3" d="M 484.74 1090.69   A 0.27 0.26 -13.5 0 1 484.50 1091.07   Q 453.09 1090.50 420.53 1087.35   Q 410.63 1086.39 402.13 1085.17   C 388.54 1083.22 374.56 1080.24 362.87 1078.38   Q 349.40 1076.24 341.91 1074.56   Q 316.59 1068.86 294.09 1061.09   Q 273.02 1053.81 263.02 1049.69   C 246.71 1042.97 231.86 1033.67 218.41 1024.04   Q 213.24 1020.34 207.57 1014.30   C 198.41 1004.55 192.41 997.26 195.21 983.53   A 4.31 4.08 -27.5 0 1 195.57 982.49   Q 200.67 972.23 210.62 970.08   Q 226.85 966.58 243.65 970.35   Q 255.23 972.95 270.20 978.08   Q 279.73 981.35 289.34 986.66   C 296.20 990.44 303.65 995.64 310.61 999.62   Q 342.94 1018.10 368.26 1029.74   Q 390.34 1039.89 400.38 1045.11   Q 431.68 1061.35 441.34 1065.88   Q 445.85 1068.01 468.48 1077.43   C 470.09 1078.10 471.70 1079.19 472.61 1079.95   Q 479.66 1085.80 484.33 1090.17   Q 484.60 1090.42 484.74 1090.69   Z"/>
<path xmlns="http://www.w3.org/2000/svg" fill="#6063d9" d="M 592.73 1156.52   C 603.15 1160.58 610.73 1162.96 627.41 1168.49   C 642.34 1173.44 656.64 1176.67 671.00 1179.54   A 2.23 2.22 -89.6 0 1 672.76 1181.33   Q 674.42 1190.76 672.90 1199.48   C 671.58 1207.04 666.78 1217.31 658.80 1219.61   Q 640.15 1224.99 628.88 1209.47   C 624.21 1203.04 617.49 1203.61 611.56 1207.96   C 606.09 1211.97 601.44 1215.41 594.28 1214.79   Q 585.98 1214.08 579.71 1209.54   C 572.44 1204.28 571.40 1192.21 572.72 1184.43   Q 575.73 1166.77 591.70 1156.62   A 1.15 1.15 0.0 0 1 592.73 1156.52   Z"/>
<path xmlns="http://www.w3.org/2000/svg" fill="#6063d9" d="M 845.58 1219.46   Q 840.91 1221.52 833.03 1220.57   C 825.26 1219.62 819.96 1215.20 816.88 1207.78   Q 811.59 1195.03 814.72 1181.28   A 2.18 2.18 0.0 0 1 816.45 1179.62   Q 835.10 1176.14 852.29 1170.72   Q 875.58 1163.39 893.56 1156.39   A 2.13 2.13 0.0 0 1 895.51 1156.60   Q 903.69 1162.02 909.22 1170.55   C 916.28 1181.42 918.45 1201.09 906.61 1210.09   Q 902.25 1213.41 895.05 1214.80   C 889.16 1215.94 883.55 1213.73 878.95 1210.29   C 874.03 1206.60 869.98 1202.91 863.42 1205.25   C 860.28 1206.38 856.83 1211.38 854.35 1214.11   Q 852.10 1216.59 845.58 1219.46   Z"/>
</g></g></g></g></svg>