<svg xmlns="http://www.w3.org/2000/svg" direction="ltr" width="2048" height="2048" viewBox="25122.200692867027 26121.591492410906 2048 2048" stroke-linecap="round" stroke-linejoin="round" data-color-mode="light" class="tl-container tl-theme__force-sRGB tl-theme__light" style="background-color: transparent;"><defs/><g transform="matrix(1, 0, 0, 1, 25122.2007, 26121.5915)" opacity="1"><g data-lovart-layer-name="SVG 6"><g transform="scale(1.4143646408839778, 1.4143646408839778)"><g>
<g xmlns="http://www.w3.org/2000/svg" stroke-width="2.00" fill="none" stroke-linecap="butt">
<path stroke="#9897b7" d="M 582.90 1052.76   Q 569.57 1068.24 569.66 1088.31   C 569.72 1104.35 576.00 1117.17 589.01 1126.07   C 600.60 1134.01 617.33 1135.04 630.19 1129.12   A 2.78 2.77 50.1 0 1 632.95 1129.37   C 648.12 1140.11 668.67 1140.53 683.39 1128.74   Q 703.49 1112.65 700.71 1085.82   A 0.43 0.43 0.0 0 1 701.19 1085.34   Q 737.43 1089.46 773.04 1085.09   A 0.82 0.81 1.0 0 1 773.95 1086.03   C 767.46 1124.25 809.84 1152.74 841.75 1128.87   A 1.48 1.47 38.9 0 1 843.27 1128.71   C 860.77 1136.82 881.91 1132.62 894.19 1117.70   Q 904.83 1104.78 904.66 1087.82   Q 904.46 1066.44 890.48 1051.66   A 0.78 0.77 -33.8 0 1 890.73 1050.42   Q 895.16 1048.45 898.95 1046.19   C 913.50 1037.50 924.71 1031.44 936.19 1022.43   Q 943.52 1016.68 954.91 1007.45   C 961.52 1002.08 966.58 997.32 972.49 991.74   Q 977.66 986.85 982.01 985.45   Q 998.93 980.02 1003.33 978.10   Q 1035.44 964.07 1063.26 940.76   C 1076.46 929.70 1087.20 917.10 1097.80 902.55   Q 1108.38 888.02 1115.53 872.87   Q 1131.26 839.53 1135.59 806.78   Q 1141.38 762.96 1126.29 722.45   Q 1119.20 703.38 1107.02 685.83   C 1101.47 677.82 1094.55 670.90 1087.93 664.22   A 1.41 1.39 21.3 0 1 1087.52 663.31   C 1085.81 639.77 1082.36 616.56 1076.75 593.98   Q 1071.76 573.89 1067.85 561.38   C 1062.36 543.78 1055.69 529.01 1047.45 510.71   Q 1042.14 498.90 1036.69 489.35   Q 1024.74 468.41 1011.81 450.66   C 972.93 397.26 918.21 354.92 857.46 330.58   Q 827.52 318.58 799.22 313.07   Q 748.10 303.14 692.72 309.58   C 671.23 312.08 650.04 317.52 630.41 323.72   Q 604.40 331.95 577.33 346.29   Q 525.82 373.59 484.58 417.64   Q 458.40 445.59 434.81 485.47   Q 429.03 495.24 423.81 506.43   C 414.96 525.40 406.84 543.27 402.03 559.76   Q 399.80 567.42 394.95 584.93   C 389.54 604.43 386.52 625.99 383.91 649.87   Q 383.48 653.87 383.24 661.47   C 383.15 664.24 382.58 665.46 380.66 667.41   Q 357.67 690.65 346.39 720.13   C 339.49 738.18 334.70 758.15 334.88 777.95   A 0.49 0.48 8.3 0 1 334.25 778.42   Q 318.32 773.24 303.03 777.76   Q 288.30 782.11 280.63 791.99   Q 272.22 802.83 272.61 817.28   Q 273.13 836.94 284.23 853.54   Q 294.91 869.52 308.44 882.31   A 0.51 0.51 0.0 0 1 308.07 883.19   Q 291.31 882.50 277.04 890.63   C 269.91 894.69 264.87 900.50 261.92 908.17   C 256.22 923.00 259.46 938.13 269.11 950.39   Q 282.82 967.81 301.28 978.64   Q 307.83 982.49 322.08 989.34   C 338.27 997.13 354.92 1002.27 371.37 1007.20   Q 384.00 1010.99 399.56 1014.38   Q 451.10 1025.58 504.51 1027.35   C 516.43 1027.75 527.12 1027.03 538.61 1027.04   A 6.03 6.00 -26.9 0 1 542.15 1028.19   C 554.86 1037.42 569.08 1044.90 582.72 1051.85   A 0.59 0.59 0.0 0 1 582.90 1052.76"/>
<path stroke="#5d61b4" d="M 538.07 994.49   Q 545.81 1001.66 552.59 1005.94   Q 558.71 1009.81 577.05 1020.83   Q 591.35 1029.43 599.97 1033.26   Q 619.44 1041.92 640.39 1048.56   Q 657.09 1053.84 677.74 1057.41   Q 698.76 1061.05 715.82 1062.13   Q 757.48 1064.77 801.25 1055.97   Q 834.14 1049.36 863.96 1036.01   C 879.81 1028.91 892.05 1023.17 904.40 1013.91   Q 906.98 1011.98 913.86 1008.00   C 920.39 1004.23 926.78 999.30 933.18 994.63"/>
<path stroke="#504fa2" d="M 933.18 994.63   Q 944.87 983.94 957.43 973.31   Q 962.41 969.09 965.07 965.69   Q 969.36 960.17 973.81 954.49   Q 979.53 947.18 986.05 939.32   C 993.39 930.47 1000.08 920.15 1006.30 910.39   Q 1009.80 904.92 1013.96 896.59   Q 1028.03 868.45 1028.35 867.83   Q 1031.41 861.96 1036.49 847.76   Q 1051.83 804.93 1058.06 762.92   Q 1062.92 730.11 1064.00 701.00   Q 1064.69 682.29 1062.89 663.57   Q 1060.18 635.19 1057.77 620.51   Q 1055.15 604.62 1051.67 592.79   Q 1045.36 571.41 1037.13 547.08   Q 1034.70 539.89 1031.03 531.46   C 1027.62 523.63 1022.62 516.93 1018.99 509.04   Q 1012.32 494.55 1005.64 484.19   Q 1003.13 480.30 992.16 464.00   Q 986.19 455.15 981.73 450.22   C 976.50 444.47 968.85 436.50 962.62 429.38   Q 959.74 426.10 956.02 422.56   A 0.98 0.87 -86.4 0 1 955.88 422.38   Q 954.40 419.84 950.15 417.14   Q 949.48 416.71 946.47 413.53   A 4.83 4.45 -2.4 0 0 945.69 412.87   Q 941.17 409.77 936.50 405.72   C 928.96 399.20 926.64 397.47 918.71 391.14   C 914.35 387.66 909.12 384.60 904.40 381.35   Q 901.26 379.19 875.51 365.23   C 857.87 355.67 839.55 349.34 819.94 343.42   Q 805.37 339.02 790.05 336.35   C 746.76 328.80 702.09 329.75 659.65 340.42   Q 636.89 346.14 613.51 355.41   C 607.23 357.90 601.39 361.25 596.05 363.78   Q 592.99 365.23 583.27 370.64   Q 574.91 375.30 564.95 380.53   A 4.01 3.99 10.2 0 0 564.14 381.09   C 561.39 383.57 556.75 385.80 555.32 387.06   Q 542.95 397.96 524.30 411.80   Q 513.86 419.54 505.02 431.78   Q 503.07 434.49 491.70 446.06   C 487.53 450.31 482.82 455.60 480.55 459.33   Q 472.94 471.81 464.06 484.06   C 462.10 486.76 459.68 490.88 458.49 493.26   Q 453.44 503.28 445.21 518.72   C 440.63 527.31 436.78 536.12 433.94 543.71   Q 429.21 556.40 424.08 571.79   Q 417.57 591.37 413.00 615.45   C 411.12 625.32 409.72 639.83 408.75 647.73   C 404.38 683.38 406.40 720.46 411.82 756.75   Q 414.72 776.20 420.94 802.35   Q 425.77 822.60 432.04 840.03   Q 439.46 860.62 446.87 876.42   C 458.44 901.09 472.47 923.52 488.01 944.61   Q 496.85 956.60 504.40 964.02   C 511.37 970.85 518.47 978.43 526.82 985.38   Q 532.33 989.95 538.07 994.49"/>
<path stroke="#7d82e7" d="M 933.18 994.63   Q 928.53 973.84 922.50 959.97   Q 902.74 914.53 861.57 880.42   C 826.05 851.00 781.65 835.20 735.49 835.39   C 691.62 835.57 651.19 849.42 615.96 876.16   Q 572.92 908.80 550.35 958.12   Q 543.33 973.46 538.07 994.49"/>
<path stroke="#504fa2" d="M 1087.75 703.00   Q 1087.08 706.52 1086.96 713.50   C 1086.76 724.97 1086.83 729.91 1085.63 740.32   Q 1080.28 786.74 1066.96 832.25   C 1062.07 848.96 1056.40 863.03 1048.98 879.62   C 1047.17 883.69 1045.99 887.97 1044.09 891.87   Q 1039.81 900.63 1034.92 908.68   Q 1033.01 911.83 1032.05 912.72   A 0.58 0.58 0.0 0 0 1031.87 913.24   Q 1031.92 913.58 1031.67 914.05   Q 1027.25 922.61 1024.27 927.08   Q 1024.10 927.33 1023.49 927.90   A 2.52 2.51 -8.6 0 0 1022.92 928.67   Q 1019.95 934.98 1016.67 938.96   Q 1012.90 943.54 1011.44 946.16   A 0.51 0.51 0.0 0 0 1012.10 946.87   Q 1015.73 945.23 1018.92 942.54   A 5.35 4.96 7.4 0 1 1019.65 942.02   C 1028.90 936.67 1034.25 933.76 1041.47 928.11   C 1046.41 924.25 1050.46 918.85 1055.65 914.09   C 1059.61 910.46 1064.05 905.32 1067.96 901.46   Q 1070.60 898.84 1078.54 888.28   C 1080.94 885.09 1082.78 880.61 1084.49 877.61   Q 1089.43 868.95 1092.68 863.16   Q 1097.91 853.83 1099.99 848.29   C 1107.50 828.32 1112.02 808.23 1112.90 787.21   Q 1113.15 781.25 1112.46 774.82   C 1112.04 770.97 1111.83 762.76 1110.86 756.58   C 1109.94 750.70 1108.31 746.18 1106.30 739.03   Q 1104.56 732.87 1102.43 727.41   Q 1100.76 723.17 1094.28 711.08   Q 1092.24 707.27 1088.67 702.77   A 0.52 0.52 0.0 0 0 1087.75 703.00"/>
<path stroke="#504fa2" d="M 382.81 704.54   A 0.65 0.65 0.0 0 0 381.60 704.24   C 379.21 708.10 376.98 711.71 375.30 715.31   Q 372.36 721.60 369.30 727.80   C 365.59 735.30 364.12 744.06 362.14 752.28   C 358.43 767.76 358.21 784.67 359.74 800.10   Q 360.70 809.77 364.40 823.58   Q 367.84 836.43 371.87 846.39   C 372.96 849.07 373.48 852.04 374.79 854.83   Q 380.72 867.50 384.33 873.19   Q 390.59 883.06 394.03 888.22   C 404.35 903.70 416.81 916.04 431.62 928.65   Q 437.09 933.30 444.05 937.54   Q 456.87 945.35 457.13 945.50   A 0.66 0.66 0.0 0 0 458.00 944.53   Q 454.18 939.53 450.72 933.81   Q 437.60 912.06 427.53 892.26   C 417.19 871.93 409.40 848.60 402.18 825.46   C 399.64 817.31 398.03 810.08 396.00 802.71   Q 393.84 794.88 392.17 785.45   Q 389.15 768.48 386.98 750.77   C 385.72 740.55 383.37 732.15 383.56 722.69   Q 383.65 717.93 382.81 704.54"/>
<path stroke="#916f83" d="M 372.33 900.68   Q 372.24 900.29 372.14 900.12   C 360.92 882.64 350.62 862.87 344.67 843.15   Q 338.95 824.20 336.46 805.94   A 2.85 2.85 0.0 0 0 334.74 803.70   C 325.62 799.87 314.13 798.21 305.04 802.96   C 288.28 811.72 301.59 837.68 309.67 847.64   C 320.36 860.81 332.09 871.35 345.38 882.20   C 354.03 889.26 361.52 893.92 371.96 900.94   A 0.24 0.24 0.0 0 0 372.33 900.68"/>
<path stroke="#8c6184" d="M 509.31 1003.13   C 505.73 999.21 501.28 994.57 496.36 992.41   Q 465.89 979.01 434.64 962.53   Q 417.11 953.29 414.75 952.08   C 401.70 945.39 391.06 940.22 379.68 933.63   Q 371.64 928.97 364.92 924.87   Q 341.38 910.50 314.52 907.48   C 306.10 906.54 292.46 907.39 286.56 914.06   C 282.89 918.21 282.82 924.58 284.79 929.44   C 288.62 938.94 298.80 947.90 307.41 953.50   C 330.76 968.69 356.75 978.43 384.21 985.49   Q 406.46 991.22 429.70 995.57   C 455.90 1000.48 481.73 1002.18 509.08 1003.60   A 0.28 0.28 0.0 0 0 509.31 1003.13"/>
<path stroke="#916f83" d="M 804.50 1080.51   L 800.11 1081.20   A 2.38 2.37 -85.2 0 0 798.25 1082.78   C 793.77 1096.06 800.25 1112.41 815.59 1113.21   Q 820.56 1113.46 824.24 1111.82   C 829.81 1109.33 831.81 1104.15 836.00 1100.57"/>
<path stroke="#8c6184" d="M 836.00 1100.57   C 842.56 1097.68 846.20 1101.10 850.96 1105.13   Q 856.26 1109.63 864.21 1108.54   C 875.62 1106.99 880.60 1098.31 880.45 1087.53   Q 880.20 1071.11 866.63 1062.97   A 1.99 1.98 50.7 0 0 864.93 1062.80   Q 846.10 1069.55 825.61 1075.60   Q 816.74 1078.22 804.50 1080.51"/>
<path stroke="#eca198" d="M 836.00 1100.57   Q 832.76 1102.49 827.70 1107.43   C 819.60 1115.36 809.84 1109.67 804.10 1102.03   C 800.40 1097.12 800.80 1089.46 801.36 1083.82   A 2.22 2.21 -16.2 0 1 802.22 1082.27   L 804.50 1080.51"/>
<path stroke="#916f83" d="M 647.81 1076.16   Q 647.26 1075.82 646.40 1075.58   Q 626.87 1070.15 608.32 1063.11   A 1.87 1.87 0.0 0 0 606.56 1063.34   Q 591.05 1074.39 594.28 1093.68   Q 595.95 1103.64 604.93 1107.43   C 610.85 1109.92 618.54 1108.83 623.44 1104.70   C 628.04 1100.81 631.80 1097.64 637.83 1100.63   C 640.97 1102.19 643.35 1107.12 645.68 1109.13   C 651.07 1113.79 660.01 1115.17 666.28 1111.36   Q 677.16 1104.73 677.57 1091.50   C 677.65 1088.80 677.27 1081.69 673.44 1081.34   Q 665.98 1080.65 658.07 1078.63   Q 652.98 1077.33 648.50 1076.42   A 2.16 2.09 -23.4 0 1 647.81 1076.16"/>
<path stroke="#504fa2" d="M 523.96 454.74   C 521.80 457.03 518.92 458.81 517.66 462.30   Q 516.79 464.70 517.26 467.13   Q 519.10 476.69 528.05 477.73   C 530.95 478.06 533.94 477.59 536.00 475.69   C 542.77 469.47 552.34 462.94 561.76 461.24   Q 578.84 458.15 596.00 461.26   C 604.79 462.86 611.44 454.17 609.49 445.99   C 607.43 437.30 592.16 435.49 585.74 435.09   C 570.79 434.17 556.09 436.17 542.73 443.06   C 534.54 447.28 528.50 449.94 523.96 454.74"/>
<path stroke="#504fa2" d="M 930.47 444.79   Q 916.38 438.30 913.66 437.66   Q 891.49 432.36 869.91 437.41   C 862.50 439.14 856.90 445.65 860.37 453.50   Q 863.14 459.74 870.08 461.32   A 5.10 5.05 -39.3 0 0 871.46 461.45   C 875.27 461.29 879.30 460.22 883.06 460.02   Q 896.58 459.30 907.45 461.26   C 916.68 462.92 925.88 469.41 932.96 475.59   Q 935.10 477.45 938.74 477.64   C 947.61 478.09 953.60 470.97 951.40 462.20   A 3.31 3.28 -71.3 0 0 950.80 460.97   Q 945.57 454.17 940.47 451.23   Q 932.66 446.72 931.12 445.23   A 2.14 2.04 -9.5 0 0 930.47 444.79"/>
<path stroke="#504fa2" d="M 673.51 726.70   C 672.53 735.28 672.87 746.25 676.10 754.44   Q 678.88 761.49 683.53 768.74   Q 687.20 774.45 694.98 780.81   C 704.43 788.53 713.65 794.94 724.96 798.19   C 740.66 802.69 774.00 807.52 780.79 785.92   C 782.27 781.22 781.70 775.78 780.46 771.03   Q 775.99 753.98 770.56 737.99   A 1.59 1.58 75.4 0 1 771.77 735.92   Q 782.45 733.92 792.88 731.87   Q 795.24 731.40 798.63 729.24"/>
<path stroke="#b090b6" d="M 798.63 729.24   Q 809.15 738.65 821.10 746.32   C 829.45 751.68 839.33 756.00 847.53 758.95   Q 853.55 761.11 867.91 764.07   Q 874.79 765.49 882.65 765.86   Q 892.68 766.34 897.50 766.08   Q 919.83 764.89 941.38 757.38   Q 951.17 753.98 960.36 748.61   Q 982.49 735.69 998.24 716.98   Q 998.62 716.53 999.38 714.80   A 2.68 2.64 -10.9 0 1 999.93 714.00   Q 1004.39 709.55 1007.16 704.58   Q 1007.35 704.23 1007.64 704.08   A 0.50 0.50 0.0 0 0 1007.89 703.50   Q 1007.76 703.02 1009.01 700.77   Q 1015.21 689.62 1020.22 677.31   Q 1021.95 673.05 1023.41 667.57   C 1025.49 659.76 1027.54 653.11 1028.07 644.43   Q 1028.36 639.59 1028.85 633.07   Q 1029.56 623.64 1027.89 612.76   Q 1027.88 612.73 1026.44 604.46   C 1023.79 589.32 1018.53 574.76 1011.38 560.87   C 1008.71 555.68 1004.60 549.80 1001.20 545.03   Q 985.51 523.11 961.04 509.48   Q 948.06 502.25 940.42 499.37   Q 922.61 492.67 901.62 490.92   Q 875.25 488.72 849.68 497.15   Q 822.78 506.02 802.67 524.02   Q 774.76 548.99 763.39 583.97   Q 752.31 618.01 758.62 654.05   Q 759.07 656.63 760.90 663.63   Q 762.13 668.31 763.19 673.20"/>
<path stroke="#504fa2" d="M 763.19 673.20   Q 756.00 670.98 748.97 669.07   Q 744.95 667.97 741.76 667.85   C 736.78 667.65 732.94 667.03 727.77 667.83   Q 719.83 669.07 718.62 669.38   Q 712.87 670.88 705.73 674.90"/>
<path stroke="#b090b6" d="M 705.73 674.90   Q 711.62 655.35 712.89 640.25   Q 714.07 626.31 711.23 605.92   Q 710.37 599.75 708.19 591.84   Q 705.17 580.90 704.03 577.99   Q 694.16 552.75 677.07 534.15   C 644.59 498.82 594.96 483.13 548.16 493.76   Q 535.43 496.65 527.58 499.87   Q 513.97 505.47 497.89 516.10   Q 489.45 521.67 482.42 528.83   C 472.62 538.83 464.25 549.09 458.10 560.87   C 446.28 583.52 439.06 608.94 440.60 634.75   Q 441.39 648.04 443.03 656.01   Q 446.81 674.43 455.45 692.22   C 456.18 693.72 457.06 694.68 457.28 696.02   A 2.48 2.31 -66.2 0 0 457.56 696.82   C 467.08 713.39 479.97 728.15 495.61 739.55   Q 504.91 746.34 508.99 748.53   Q 547.68 769.26 590.82 765.58   Q 591.44 765.52 597.26 764.85   Q 602.32 764.27 613.23 761.67   Q 622.05 759.56 628.73 756.63   Q 642.74 750.50 655.36 742.21   Q 659.13 739.72 664.65 734.72   Q 669.04 730.74 673.51 726.70"/>
<path stroke="#916f83" d="M 705.73 674.90   C 696.89 680.44 690.77 685.44 685.20 694.19   C 680.43 701.70 676.73 709.88 674.99 718.62   Q 674.18 722.68 673.51 726.70"/>
<path stroke="#916f83" d="M 798.63 729.24   Q 806.53 719.73 801.87 708.68   C 796.23 695.31 785.26 684.79 772.39 677.91   Q 767.71 675.41 763.19 673.20"/>
<path stroke="#504fa2" d="M 871.62 824.12   Q 871.50 816.73 864.19 815.55   C 857.76 814.52 851.66 813.64 844.98 812.02   Q 840.85 811.02 836.34 810.45   A 0.78 0.77 28.8 0 1 835.94 809.09   Q 839.84 805.85 843.77 802.15   C 848.94 797.28 854.41 793.85 861.59 788.82   Q 862.80 787.97 867.80 783.69   C 872.66 779.53 875.05 775.07 871.46 769.47   C 869.88 767.00 867.01 766.20 864.32 765.75   Q 859.37 764.93 852.12 764.39   Q 848.80 764.14 846.62 763.78   C 841.90 763.00 839.69 763.01 835.18 761.79   C 832.97 761.20 829.44 760.89 826.43 760.53   C 821.81 759.97 817.61 761.38 816.41 766.28   A 3.41 3.35 -40.0 0 0 816.32 767.21   Q 816.55 773.19 823.06 774.47   C 825.98 775.04 828.88 775.19 832.31 775.98   Q 839.80 777.71 846.69 778.52   Q 847.01 778.56 847.27 778.79   A 0.75 0.75 0.0 0 1 847.25 779.92   C 838.96 786.82 833.50 792.18 825.57 797.93   Q 822.18 800.38 814.10 807.09   C 808.92 811.40 808.71 820.85 816.58 822.47   Q 823.63 823.91 835.46 825.51   C 844.67 826.75 853.32 828.85 862.47 830.04   Q 868.43 830.81 871.39 825.09   A 2.05 1.98 -32.7 0 0 871.62 824.12"/>
<path stroke="#f5cbb8" d="M 476.18 654.79   Q 478.20 663.73 482.13 671.99   Q 483.88 675.68 486.82 681.06   Q 489.36 685.69 492.41 689.60   Q 503.78 704.14 520.48 715.77   C 543.46 731.76 572.58 737.28 599.98 732.84   C 607.44 731.63 614.29 729.09 622.53 726.51   Q 627.89 724.83 638.49 718.94   A 4.43 4.25 -79.9 0 0 639.27 718.37   Q 641.54 716.26 643.82 714.56   C 648.73 710.91 653.28 706.13 657.61 702.65   Q 661.87 699.23 664.74 695.70   Q 669.77 689.53 670.75 687.75   C 677.25 675.99 682.65 666.75 685.40 656.34   Q 686.13 653.55 687.85 641.16   C 688.12 639.19 688.90 636.40 689.82 635.30   C 691.73 633.01 694.25 630.83 694.96 628.07   Q 696.59 621.77 691.85 616.94   A 0.38 0.38 0.0 0 0 691.21 617.10   Q 690.99 617.83 691.51 619.02"/>
<path stroke="#916f83" d="M 691.51 619.02   C 686.59 611.98 680.36 613.23 673.13 615.41   Q 658.04 619.95 641.34 623.60   Q 601.13 632.38 563.51 635.41   Q 520.47 638.89 478.68 631.93   Q 474.07 631.16 472.32 631.62   C 462.61 634.15 459.63 647.24 468.66 652.35   Q 472.26 654.39 476.18 654.79"/>
<path stroke="#948aa4" d="M 691.51 619.02   C 695.28 625.43 692.08 634.16 684.88 636.09   Q 673.62 639.12 666.84 640.61   A 2.12 2.11 -4.1 0 0 665.19 642.51   Q 664.31 654.67 659.46 665.24   C 656.35 672.03 650.27 679.69 644.77 685.28   C 635.86 694.33 624.71 699.98 611.97 702.53   Q 606.43 703.64 604.75 703.81   C 574.37 706.81 547.88 688.95 536.48 661.27   A 2.16 2.15 78.8 0 0 534.51 659.94   Q 505.55 659.66 476.18 654.79"/>
<path stroke="#f5cbb8" d="M 781.06 634.66   Q 781.57 644.60 782.16 647.75   Q 783.91 657.17 789.15 668.60   Q 794.29 679.81 796.07 683.19   Q 800.28 691.18 807.46 698.29   Q 818.36 709.09 826.61 715.77   Q 828.13 716.99 832.19 719.19   Q 841.43 724.20 850.54 727.68   C 873.16 736.32 896.67 736.05 921.05 729.72   C 931.81 726.92 939.09 721.88 949.94 715.18   Q 954.47 712.38 965.30 702.76   Q 971.13 697.58 976.59 690.45   Q 981.12 684.54 985.10 676.10   Q 989.98 665.73 993.09 657.37   A 1.83 1.75 -12.3 0 1 993.57 656.66   Q 994.19 656.07 994.86 655.80   A 0.48 0.48 0.0 0 0 994.68 654.88   L 991.46 654.84"/>
<path stroke="#916f83" d="M 991.46 654.84   Q 996.26 654.61 999.87 652.61   C 1004.77 649.90 1007.23 644.02 1004.95 638.74   C 1003.08 634.41 998.34 630.76 993.50 631.60   Q 950.32 639.06 906.25 635.45   Q 860.39 631.69 810.44 619.52   C 803.16 617.74 795.74 614.88 789.25 613.94   C 783.72 613.13 778.95 615.83 777.03 621.23   Q 774.39 628.64 781.06 634.66"/>
<path stroke="#948aa4" d="M 991.46 654.84   Q 978.89 657.64 966.00 658.53   Q 950.76 659.59 934.50 659.70   A 1.05 1.05 0.0 0 0 933.51 660.40   Q 929.35 671.81 920.62 681.86   C 913.27 690.33 904.96 695.35 895.01 699.54   C 880.23 705.76 864.16 706.02 849.26 700.15   Q 840.75 696.79 835.17 693.35   C 824.98 687.06 817.70 678.06 811.52 667.54   Q 804.74 656.01 804.05 642.22   A 1.17 1.15 -83.4 0 0 803.22 641.16   L 781.06 634.66"/>
<path stroke="#948aa4" d="M 568.60 660.88   Q 562.31 661.00 561.96 661.04   C 553.54 661.96 554.24 672.14 558.44 676.82   Q 562.99 681.88 568.99 681.77   Q 574.99 681.66 579.35 676.43   C 583.37 671.60 583.69 661.40 575.24 660.79   Q 574.89 660.76 568.60 660.88"/>
<path stroke="#948aa4" d="M 845.27 651.35   L 821.64 646.20   A 1.07 1.07 0.0 0 0 820.37 647.02   L 820.35 647.11   A 13.13 13.09 -77.7 0 0 830.34 662.73   L 830.48 662.76   A 13.13 13.09 -77.7 0 0 846.06 652.72   L 846.08 652.62   A 1.07 1.07 0.0 0 0 845.27 651.35"/>
<path stroke="#916f83" d="M 723.87 687.97   C 710.27 690.65 699.68 703.05 695.43 715.67   Q 691.42 727.58 692.31 740.14   A 1.16 1.16 0.0 0 0 693.36 741.21   Q 701.71 741.94 710.11 738.32   Q 715.26 736.10 737.99 726.58   C 752.54 720.48 767.76 716.05 782.59 714.34   A 0.80 0.79 71.5 0 0 783.18 713.15   Q 779.92 707.51 775.53 703.49   Q 761.01 690.17 741.57 686.80"/>
<path stroke="#8c6184" d="M 741.57 686.80   Q 732.53 685.80 723.87 687.97"/>
<path stroke="#eca198" d="M 741.57 686.80   Q 732.61 689.19 723.87 687.97"/>
<path stroke="#8c6184" d="M 703.25 762.50   Q 706.71 766.94 711.53 770.47   C 724.64 780.08 742.10 784.76 758.76 782.31   Q 761.51 781.91 762.51 779.52   A 1.37 1.32 -45.4 0 0 762.52 778.51   C 758.88 769.55 743.06 763.73 734.28 760.91   Q 718.85 755.96 703.58 761.35   A 0.74 0.73 61.2 0 0 703.25 762.50"/>
<path stroke="#eca198" d="M 633.58 1097.71   Q 639.73 1098.05 648.39 1098.22   C 653.22 1098.31 659.40 1097.17 661.68 1092.53   C 664.68 1086.40 658.95 1081.97 653.59 1080.49   C 637.94 1076.15 621.86 1083.18 612.05 1095.22   C 610.03 1097.71 607.99 1102.57 612.56 1103.78   Q 616.15 1104.72 621.10 1102.60   Q 629.79 1098.89 632.46 1097.88   A 2.84 2.78 35.8 0 1 633.58 1097.71"/>
</g>
<path xmlns="http://www.w3.org/2000/svg" fill="#ffffff" d="M 1448.00 0.00   L 1448.00 1448.00   L 0.00 1448.00   L 0.00 0.00   L 1448.00 0.00   Z   M 582.90 1052.76   Q 569.57 1068.24 569.66 1088.31   C 569.72 1104.35 576.00 1117.17 589.01 1126.07   C 600.60 1134.01 617.33 1135.04 630.19 1129.12   A 2.78 2.77 50.1 0 1 632.95 1129.37   C 648.12 1140.11 668.67 1140.53 683.39 1128.74   Q 703.49 1112.65 700.71 1085.82   A 0.43 0.43 0.0 0 1 701.19 1085.34   Q 737.43 1089.46 773.04 1085.09   A 0.82 0.81 1.0 0 1 773.95 1086.03   C 767.46 1124.25 809.84 1152.74 841.75 1128.87   A 1.48 1.47 38.9 0 1 843.27 1128.71   C 860.77 1136.82 881.91 1132.62 894.19 1117.70   Q 904.83 1104.78 904.66 1087.82   Q 904.46 1066.44 890.48 1051.66   A 0.78 0.77 -33.8 0 1 890.73 1050.42   Q 895.16 1048.45 898.95 1046.19   C 913.50 1037.50 924.71 1031.44 936.19 1022.43   Q 943.52 1016.68 954.91 1007.45   C 961.52 1002.08 966.58 997.32 972.49 991.74   Q 977.66 986.85 982.01 985.45   Q 998.93 980.02 1003.33 978.10   Q 1035.44 964.07 1063.26 940.76   C 1076.46 929.70 1087.20 917.10 1097.80 902.55   Q 1108.38 888.02 1115.53 872.87   Q 1131.26 839.53 1135.59 806.78   Q 1141.38 762.96 1126.29 722.45   Q 1119.20 703.38 1107.02 685.83   C 1101.47 677.82 1094.55 670.90 1087.93 664.22   A 1.41 1.39 21.3 0 1 1087.52 663.31   C 1085.81 639.77 1082.36 616.56 1076.75 593.98   Q 1071.76 573.89 1067.85 561.38   C 1062.36 543.78 1055.69 529.01 1047.45 510.71   Q 1042.14 498.90 1036.69 489.35   Q 1024.74 468.41 1011.81 450.66   C 972.93 397.26 918.21 354.92 857.46 330.58   Q 827.52 318.58 799.22 313.07   Q 748.10 303.14 692.72 309.58   C 671.23 312.08 650.04 317.52 630.41 323.72   Q 604.40 331.95 577.33 346.29   Q 525.82 373.59 484.58 417.64   Q 458.40 445.59 434.81 485.47   Q 429.03 495.24 423.81 506.43   C 414.96 525.40 406.84 543.27 402.03 559.76   Q 399.80 567.42 394.95 584.93   C 389.54 604.43 386.52 625.99 383.91 649.87   Q 383.48 653.87 383.24 661.47   C 383.15 664.24 382.58 665.46 380.66 667.41   Q 357.67 690.65 346.39 720.13   C 339.49 738.18 334.70 758.15 334.88 777.95   A 0.49 0.48 8.3 0 1 334.25 778.42   Q 318.32 773.24 303.03 777.76   Q 288.30 782.11 280.63 791.99   Q 272.22 802.83 272.61 817.28   Q 273.13 836.94 284.23 853.54   Q 294.91 869.52 308.44 882.31   A 0.51 0.51 0.0 0 1 308.07 883.19   Q 291.31 882.50 277.04 890.63   C 269.91 894.69 264.87 900.50 261.92 908.17   C 256.22 923.00 259.46 938.13 269.11 950.39   Q 282.82 967.81 301.28 978.64   Q 307.83 982.49 322.08 989.34   C 338.27 997.13 354.92 1002.27 371.37 1007.20   Q 384.00 1010.99 399.56 1014.38   Q 451.10 1025.58 504.51 1027.35   C 516.43 1027.75 527.12 1027.03 538.61 1027.04   A 6.03 6.00 -26.9 0 1 542.15 1028.19   C 554.86 1037.42 569.08 1044.90 582.72 1051.85   A 0.59 0.59 0.0 0 1 582.90 1052.76   Z"/>
<path xmlns="http://www.w3.org/2000/svg" fill="#302e6f" d="M 582.90 1052.76   A 0.59 0.59 0.0 0 0 582.72 1051.85   C 569.08 1044.90 554.86 1037.42 542.15 1028.19   A 6.03 6.00 -26.9 0 0 538.61 1027.04   C 527.12 1027.03 516.43 1027.75 504.51 1027.35   Q 451.10 1025.58 399.56 1014.38   Q 384.00 1010.99 371.37 1007.20   C 354.92 1002.27 338.27 997.13 322.08 989.34   Q 307.83 982.49 301.28 978.64   Q 282.82 967.81 269.11 950.39   C 259.46 938.13 256.22 923.00 261.92 908.17   C 264.87 900.50 269.91 894.69 277.04 890.63   Q 291.31 882.50 308.07 883.19   A 0.51 0.51 0.0 0 0 308.44 882.31   Q 294.91 869.52 284.23 853.54   Q 273.13 836.94 272.61 817.28   Q 272.22 802.83 280.63 791.99   Q 288.30 782.11 303.03 777.76   Q 318.32 773.24 334.25 778.42   A 0.49 0.48 8.3 0 0 334.88 777.95   C 334.70 758.15 339.49 738.18 346.39 720.13   Q 357.67 690.65 380.66 667.41   C 382.58 665.46 383.15 664.24 383.24 661.47   Q 383.48 653.87 383.91 649.87   C 386.52 625.99 389.54 604.43 394.95 584.93   Q 399.80 567.42 402.03 559.76   C 406.84 543.27 414.96 525.40 423.81 506.43   Q 429.03 495.24 434.81 485.47   Q 458.40 445.59 484.58 417.64   Q 525.82 373.59 577.33 346.29   Q 604.40 331.95 630.41 323.72   C 650.04 317.52 671.23 312.08 692.72 309.58   Q 748.10 303.14 799.22 313.07   Q 827.52 318.58 857.46 330.58   C 918.21 354.92 972.93 397.26 1011.81 450.66   Q 1024.74 468.41 1036.69 489.35   Q 1042.14 498.90 1047.45 510.71   C 1055.69 529.01 1062.36 543.78 1067.85 561.38   Q 1071.76 573.89 1076.75 593.98   C 1082.36 616.56 1085.81 639.77 1087.52 663.31   A 1.41 1.39 21.3 0 0 1087.93 664.22   C 1094.55 670.90 1101.47 677.82 1107.02 685.83   Q 1119.20 703.38 1126.29 722.45   Q 1141.38 762.96 1135.59 806.78   Q 1131.26 839.53 1115.53 872.87   Q 1108.38 888.02 1097.80 902.55   C 1087.20 917.10 1076.46 929.70 1063.26 940.76   Q 1035.44 964.07 1003.33 978.10   Q 998.93 980.02 982.01 985.45   Q 977.66 986.85 972.49 991.74   C 966.58 997.32 961.52 1002.08 954.91 1007.45   Q 943.52 1016.68 936.19 1022.43   C 924.71 1031.44 913.50 1037.50 898.95 1046.19   Q 895.16 1048.45 890.73 1050.42   A 0.78 0.77 -33.8 0 0 890.48 1051.66   Q 904.46 1066.44 904.66 1087.82   Q 904.83 1104.78 894.19 1117.70   C 881.91 1132.62 860.77 1136.82 843.27 1128.71   A 1.48 1.47 38.9 0 0 841.75 1128.87   C 809.84 1152.74 767.46 1124.25 773.95 1086.03   A 0.82 0.81 1.0 0 0 773.04 1085.09   Q 737.43 1089.46 701.19 1085.34   A 0.43 0.43 0.0 0 0 700.71 1085.82   Q 703.49 1112.65 683.39 1128.74   C 668.67 1140.53 648.12 1140.11 632.95 1129.37   A 2.78 2.77 50.1 0 0 630.19 1129.12   C 617.33 1135.04 600.60 1134.01 589.01 1126.07   C 576.00 1117.17 569.72 1104.35 569.66 1088.31   Q 569.57 1068.24 582.90 1052.76   Z   M 538.07 994.49   Q 545.81 1001.66 552.59 1005.94   Q 558.71 1009.81 577.05 1020.83   Q 591.35 1029.43 599.97 1033.26   Q 619.44 1041.92 640.39 1048.56   Q 657.09 1053.84 677.74 1057.41   Q 698.76 1061.05 715.82 1062.13   Q 757.48 1064.77 801.25 1055.97   Q 834.14 1049.36 863.96 1036.01   C 879.81 1028.91 892.05 1023.17 904.40 1013.91   Q 906.98 1011.98 913.86 1008.00   C 920.39 1004.23 926.78 999.30 933.18 994.63   Q 944.87 983.94 957.43 973.31   Q 962.41 969.09 965.07 965.69   Q 969.36 960.17 973.81 954.49   Q 979.53 947.18 986.05 939.32   C 993.39 930.47 1000.08 920.15 1006.30 910.39   Q 1009.80 904.92 1013.96 896.59   Q 1028.03 868.45 1028.35 867.83   Q 1031.41 861.96 1036.49 847.76   Q 1051.83 804.93 1058.06 762.92   Q 1062.92 730.11 1064.00 701.00   Q 1064.69 682.29 1062.89 663.57   Q 1060.18 635.19 1057.77 620.51   Q 1055.15 604.62 1051.67 592.79   Q 1045.36 571.41 1037.13 547.08   Q 1034.70 539.89 1031.03 531.46   C 1027.62 523.63 1022.62 516.93 1018.99 509.04   Q 1012.32 494.55 1005.64 484.19   Q 1003.13 480.30 992.16 464.00   Q 986.19 455.15 981.73 450.22   C 976.50 444.47 968.85 436.50 962.62 429.38   Q 959.74 426.10 956.02 422.56   A 0.98 0.87 -86.4 0 1 955.88 422.38   Q 954.40 419.84 950.15 417.14   Q 949.48 416.71 946.47 413.53   A 4.83 4.45 -2.4 0 0 945.69 412.87   Q 941.17 409.77 936.50 405.72   C 928.96 399.20 926.64 397.47 918.71 391.14   C 914.35 387.66 909.12 384.60 904.40 381.35   Q 901.26 379.19 875.51 365.23   C 857.87 355.67 839.55 349.34 819.94 343.42   Q 805.37 339.02 790.05 336.35   C 746.76 328.80 702.09 329.75 659.65 340.42   Q 636.89 346.14 613.51 355.41   C 607.23 357.90 601.39 361.25 596.05 363.78   Q 592.99 365.23 583.27 370.64   Q 574.91 375.30 564.95 380.53   A 4.01 3.99 10.2 0 0 564.14 381.09   C 561.39 383.57 556.75 385.80 555.32 387.06   Q 542.95 397.96 524.30 411.80   Q 513.86 419.54 505.02 431.78   Q 503.07 434.49 491.70 446.06   C 487.53 450.31 482.82 455.60 480.55 459.33   Q 472.94 471.81 464.06 484.06   C 462.10 486.76 459.68 490.88 458.49 493.26   Q 453.44 503.28 445.21 518.72   C 440.63 527.31 436.78 536.12 433.94 543.71   Q 429.21 556.40 424.08 571.79   Q 417.57 591.37 413.00 615.45   C 411.12 625.32 409.72 639.83 408.75 647.73   C 404.38 683.38 406.40 720.46 411.82 756.75   Q 414.72 776.20 420.94 802.35   Q 425.77 822.60 432.04 840.03   Q 439.46 860.62 446.87 876.42   C 458.44 901.09 472.47 923.52 488.01 944.61   Q 496.85 956.60 504.40 964.02   C 511.37 970.85 518.47 978.43 526.82 985.38   Q 532.33 989.95 538.07 994.49   Z   M 1087.75 703.00   Q 1087.08 706.52 1086.96 713.50   C 1086.76 724.97 1086.83 729.91 1085.63 740.32   Q 1080.28 786.74 1066.96 832.25   C 1062.07 848.96 1056.40 863.03 1048.98 879.62   C 1047.17 883.69 1045.99 887.97 1044.09 891.87   Q 1039.81 900.63 1034.92 908.68   Q 1033.01 911.83 1032.05 912.72   A 0.58 0.58 0.0 0 0 1031.87 913.24   Q 1031.92 913.58 1031.67 914.05   Q 1027.25 922.61 1024.27 927.08   Q 1024.10 927.33 1023.49 927.90   A 2.52 2.51 -8.6 0 0 1022.92 928.67   Q 1019.95 934.98 1016.67 938.96   Q 1012.90 943.54 1011.44 946.16   A 0.51 0.51 0.0 0 0 1012.10 946.87   Q 1015.73 945.23 1018.92 942.54   A 5.35 4.96 7.4 0 1 1019.65 942.02   C 1028.90 936.67 1034.25 933.76 1041.47 928.11   C 1046.41 924.25 1050.46 918.85 1055.65 914.09   C 1059.61 910.46 1064.05 905.32 1067.96 901.46   Q 1070.60 898.84 1078.54 888.28   C 1080.94 885.09 1082.78 880.61 1084.49 877.61   Q 1089.43 868.95 1092.68 863.16   Q 1097.91 853.83 1099.99 848.29   C 1107.50 828.32 1112.02 808.23 1112.90 787.21   Q 1113.15 781.25 1112.46 774.82   C 1112.04 770.97 1111.83 762.76 1110.86 756.58   C 1109.94 750.70 1108.31 746.18 1106.30 739.03   Q 1104.56 732.87 1102.43 727.41   Q 1100.76 723.17 1094.28 711.08   Q 1092.24 707.27 1088.67 702.77   A 0.52 0.52 0.0 0 0 1087.75 703.00   Z   M 382.81 704.54   A 0.65 0.65 0.0 0 0 381.60 704.24   C 379.21 708.10 376.98 711.71 375.30 715.31   Q 372.36 721.60 369.30 727.80   C 365.59 735.30 364.12 744.06 362.14 752.28   C 358.43 767.76 358.21 784.67 359.74 800.10   Q 360.70 809.77 364.40 823.58   Q 367.84 836.43 371.87 846.39   C 372.96 849.07 373.48 852.04 374.79 854.83   Q 380.72 867.50 384.33 873.19   Q 390.59 883.06 394.03 888.22   C 404.35 903.70 416.81 916.04 431.62 928.65   Q 437.09 933.30 444.05 937.54   Q 456.87 945.35 457.13 945.50   A 0.66 0.66 0.0 0 0 458.00 944.53   Q 454.18 939.53 450.72 933.81   Q 437.60 912.06 427.53 892.26   C 417.19 871.93 409.40 848.60 402.18 825.46   C 399.64 817.31 398.03 810.08 396.00 802.71   Q 393.84 794.88 392.17 785.45   Q 389.15 768.48 386.98 750.77   C 385.72 740.55 383.37 732.15 383.56 722.69   Q 383.65 717.93 382.81 704.54   Z   M 372.33 900.68   Q 372.24 900.29 372.14 900.12   C 360.92 882.64 350.62 862.87 344.67 843.15   Q 338.95 824.20 336.46 805.94   A 2.85 2.85 0.0 0 0 334.74 803.70   C 325.62 799.87 314.13 798.21 305.04 802.96   C 288.28 811.72 301.59 837.68 309.67 847.64   C 320.36 860.81 332.09 871.35 345.38 882.20   C 354.03 889.26 361.52 893.92 371.96 900.94   A 0.24 0.24 0.0 0 0 372.33 900.68   Z   M 509.31 1003.13   C 505.73 999.21 501.28 994.57 496.36 992.41   Q 465.89 979.01 434.64 962.53   Q 417.11 953.29 414.75 952.08   C 401.70 945.39 391.06 940.22 379.68 933.63   Q 371.64 928.97 364.92 924.87   Q 341.38 910.50 314.52 907.48   C 306.10 906.54 292.46 907.39 286.56 914.06   C 282.89 918.21 282.82 924.58 284.79 929.44   C 288.62 938.94 298.80 947.90 307.41 953.50   C 330.76 968.69 356.75 978.43 384.21 985.49   Q 406.46 991.22 429.70 995.57   C 455.90 1000.48 481.73 1002.18 509.08 1003.60   A 0.28 0.28 0.0 0 0 509.31 1003.13   Z   M 804.50 1080.51   L 800.11 1081.20   A 2.38 2.37 -85.2 0 0 798.25 1082.78   C 793.77 1096.06 800.25 1112.41 815.59 1113.21   Q 820.56 1113.46 824.24 1111.82   C 829.81 1109.33 831.81 1104.15 836.00 1100.57   C 842.56 1097.68 846.20 1101.10 850.96 1105.13   Q 856.26 1109.63 864.21 1108.54   C 875.62 1106.99 880.60 1098.31 880.45 1087.53   Q 880.20 1071.11 866.63 1062.97   A 1.99 1.98 50.7 0 0 864.93 1062.80   Q 846.10 1069.55 825.61 1075.60   Q 816.74 1078.22 804.50 1080.51   Z   M 647.81 1076.16   Q 647.26 1075.82 646.40 1075.58   Q 626.87 1070.15 608.32 1063.11   A 1.87 1.87 0.0 0 0 606.56 1063.34   Q 591.05 1074.39 594.28 1093.68   Q 595.95 1103.64 604.93 1107.43   C 610.85 1109.92 618.54 1108.83 623.44 1104.70   C 628.04 1100.81 631.80 1097.64 637.83 1100.63   C 640.97 1102.19 643.35 1107.12 645.68 1109.13   C 651.07 1113.79 660.01 1115.17 666.28 1111.36   Q 677.16 1104.73 677.57 1091.50   C 677.65 1088.80 677.27 1081.69 673.44 1081.34   Q 665.98 1080.65 658.07 1078.63   Q 652.98 1077.33 648.50 1076.42   A 2.16 2.09 -23.4 0 1 647.81 1076.16   Z"/>
<path xmlns="http://www.w3.org/2000/svg" fill="#6f70d4" d="M 933.18 994.63   Q 928.53 973.84 922.50 959.97   Q 902.74 914.53 861.57 880.42   C 826.05 851.00 781.65 835.20 735.49 835.39   C 691.62 835.57 651.19 849.42 615.96 876.16   Q 572.92 908.80 550.35 958.12   Q 543.33 973.46 538.07 994.49   Q 532.33 989.95 526.82 985.38   C 518.47 978.43 511.37 970.85 504.40 964.02   Q 496.85 956.60 488.01 944.61   C 472.47 923.52 458.44 901.09 446.87 876.42   Q 439.46 860.62 432.04 840.03   Q 425.77 822.60 420.94 802.35   Q 414.72 776.20 411.82 756.75   C 406.40 720.46 404.38 683.38 408.75 647.73   C 409.72 639.83 411.12 625.32 413.00 615.45   Q 417.57 591.37 424.08 571.79   Q 429.21 556.40 433.94 543.71   C 436.78 536.12 440.63 527.31 445.21 518.72   Q 453.44 503.28 458.49 493.26   C 459.68 490.88 462.10 486.76 464.06 484.06   Q 472.94 471.81 480.55 459.33   C 482.82 455.60 487.53 450.31 491.70 446.06   Q 503.07 434.49 505.02 431.78   Q 513.86 419.54 524.30 411.80   Q 542.95 397.96 555.32 387.06   C 556.75 385.80 561.39 383.57 564.14 381.09   A 4.01 3.99 10.2 0 1 564.95 380.53   Q 574.91 375.30 583.27 370.64   Q 592.99 365.23 596.05 363.78   C 601.39 361.25 607.23 357.90 613.51 355.41   Q 636.89 346.14 659.65 340.42   C 702.09 329.75 746.76 328.80 790.05 336.35   Q 805.37 339.02 819.94 343.42   C 839.55 349.34 857.87 355.67 875.51 365.23   Q 901.26 379.19 904.40 381.35   C 909.12 384.60 914.35 387.66 918.71 391.14   C 926.64 397.47 928.96 399.20 936.50 405.72   Q 941.17 409.77 945.69 412.87   A 4.83 4.45 -2.4 0 1 946.47 413.53   Q 949.48 416.71 950.15 417.14   Q 954.40 419.84 955.88 422.38   A 0.98 0.87 -86.4 0 0 956.02 422.56   Q 959.74 426.10 962.62 429.38   C 968.85 436.50 976.50 444.47 981.73 450.22   Q 986.19 455.15 992.16 464.00   Q 1003.13 480.30 1005.64 484.19   Q 1012.32 494.55 1018.99 509.04   C 1022.62 516.93 1027.62 523.63 1031.03 531.46   Q 1034.70 539.89 1037.13 547.08   Q 1045.36 571.41 1051.67 592.79   Q 1055.15 604.62 1057.77 620.51   Q 1060.18 635.19 1062.89 663.57   Q 1064.69 682.29 1064.00 701.00   Q 1062.92 730.11 1058.06 762.92   Q 1051.83 804.93 1036.49 847.76   Q 1031.41 861.96 1028.35 867.83   Q 1028.03 868.45 1013.96 896.59   Q 1009.80 904.92 1006.30 910.39   C 1000.08 920.15 993.39 930.47 986.05 939.32   Q 979.53 947.18 973.81 954.49   Q 969.36 960.17 965.07 965.69   Q 962.41 969.09 957.43 973.31   Q 944.87 983.94 933.18 994.63   Z   M 523.96 454.74   C 521.80 457.03 518.92 458.81 517.66 462.30   Q 516.79 464.70 517.26 467.13   Q 519.10 476.69 528.05 477.73   C 530.95 478.06 533.94 477.59 536.00 475.69   C 542.77 469.47 552.34 462.94 561.76 461.24   Q 578.84 458.15 596.00 461.26   C 604.79 462.86 611.44 454.17 609.49 445.99   C 607.43 437.30 592.16 435.49 585.74 435.09   C 570.79 434.17 556.09 436.17 542.73 443.06   C 534.54 447.28 528.50 449.94 523.96 454.74   Z   M 930.47 444.79   Q 916.38 438.30 913.66 437.66   Q 891.49 432.36 869.91 437.41   C 862.50 439.14 856.90 445.65 860.37 453.50   Q 863.14 459.74 870.08 461.32   A 5.10 5.05 -39.3 0 0 871.46 461.45   C 875.27 461.29 879.30 460.22 883.06 460.02   Q 896.58 459.30 907.45 461.26   C 916.68 462.92 925.88 469.41 932.96 475.59   Q 935.10 477.45 938.74 477.64   C 947.61 478.09 953.60 470.97 951.40 462.20   A 3.31 3.28 -71.3 0 0 950.80 460.97   Q 945.57 454.17 940.47 451.23   Q 932.66 446.72 931.12 445.23   A 2.14 2.04 -9.5 0 0 930.47 444.79   Z   M 673.51 726.70   C 672.53 735.28 672.87 746.25 676.10 754.44   Q 678.88 761.49 683.53 768.74   Q 687.20 774.45 694.98 780.81   C 704.43 788.53 713.65 794.94 724.96 798.19   C 740.66 802.69 774.00 807.52 780.79 785.92   C 782.27 781.22 781.70 775.78 780.46 771.03   Q 775.99 753.98 770.56 737.99   A 1.59 1.58 75.4 0 1 771.77 735.92   Q 782.45 733.92 792.88 731.87   Q 795.24 731.40 798.63 729.24   Q 809.15 738.65 821.10 746.32   C 829.45 751.68 839.33 756.00 847.53 758.95   Q 853.55 761.11 867.91 764.07   Q 874.79 765.49 882.65 765.86   Q 892.68 766.34 897.50 766.08   Q 919.83 764.89 941.38 757.38   Q 951.17 753.98 960.36 748.61   Q 982.49 735.69 998.24 716.98   Q 998.62 716.53 999.38 714.80   A 2.68 2.64 -10.9 0 1 999.93 714.00   Q 1004.39 709.55 1007.16 704.58   Q 1007.35 704.23 1007.64 704.08   A 0.50 0.50 0.0 0 0 1007.89 703.50   Q 1007.76 703.02 1009.01 700.77   Q 1015.21 689.62 1020.22 677.31   Q 1021.95 673.05 1023.41 667.57   C 1025.49 659.76 1027.54 653.11 1028.07 644.43   Q 1028.36 639.59 1028.85 633.07   Q 1029.56 623.64 1027.89 612.76   Q 1027.88 612.73 1026.44 604.46   C 1023.79 589.32 1018.53 574.76 1011.38 560.87   C 1008.71 555.68 1004.60 549.80 1001.20 545.03   Q 985.51 523.11 961.04 509.48   Q 948.06 502.25 940.42 499.37   Q 922.61 492.67 901.62 490.92   Q 875.25 488.72 849.68 497.15   Q 822.78 506.02 802.67 524.02   Q 774.76 548.99 763.39 583.97   Q 752.31 618.01 758.62 654.05   Q 759.07 656.63 760.90 663.63   Q 762.13 668.31 763.19 673.20   Q 756.00 670.98 748.97 669.07   Q 744.95 667.97 741.76 667.85   C 736.78 667.65 732.94 667.03 727.77 667.83   Q 719.83 669.07 718.62 669.38   Q 712.87 670.88 705.73 674.90   Q 711.62 655.35 712.89 640.25   Q 714.07 626.31 711.23 605.92   Q 710.37 599.75 708.19 591.84   Q 705.17 580.90 704.03 577.99   Q 694.16 552.75 677.07 534.15   C 644.59 498.82 594.96 483.13 548.16 493.76   Q 535.43 496.65 527.58 499.87   Q 513.97 505.47 497.89 516.10   Q 489.45 521.67 482.42 528.83   C 472.62 538.83 464.25 549.09 458.10 560.87   C 446.28 583.52 439.06 608.94 440.60 634.75   Q 441.39 648.04 443.03 656.01   Q 446.81 674.43 455.45 692.22   C 456.18 693.72 457.06 694.68 457.28 696.02   A 2.48 2.31 -66.2 0 0 457.56 696.82   C 467.08 713.39 479.97 728.15 495.61 739.55   Q 504.91 746.34 508.99 748.53   Q 547.68 769.26 590.82 765.58   Q 591.44 765.52 597.26 764.85   Q 602.32 764.27 613.23 761.67   Q 622.05 759.56 628.73 756.63   Q 642.74 750.50 655.36 742.21   Q 659.13 739.72 664.65 734.72   Q 669.04 730.74 673.51 726.70   Z   M 871.62 824.12   Q 871.50 816.73 864.19 815.55   C 857.76 814.52 851.66 813.64 844.98 812.02   Q 840.85 811.02 836.34 810.45   A 0.78 0.77 28.8 0 1 835.94 809.09   Q 839.84 805.85 843.77 802.15   C 848.94 797.28 854.41 793.85 861.59 788.82   Q 862.80 787.97 867.80 783.69   C 872.66 779.53 875.05 775.07 871.46 769.47   C 869.88 767.00 867.01 766.20 864.32 765.75   Q 859.37 764.93 852.12 764.39   Q 848.80 764.14 846.62 763.78   C 841.90 763.00 839.69 763.01 835.18 761.79   C 832.97 761.20 829.44 760.89 826.43 760.53   C 821.81 759.97 817.61 761.38 816.41 766.28   A 3.41 3.35 -40.0 0 0 816.32 767.21   Q 816.55 773.19 823.06 774.47   C 825.98 775.04 828.88 775.19 832.31 775.98   Q 839.80 777.71 846.69 778.52   Q 847.01 778.56 847.27 778.79   A 0.75 0.75 0.0 0 1 847.25 779.92   C 838.96 786.82 833.50 792.18 825.57 797.93   Q 822.18 800.38 814.10 807.09   C 808.92 811.40 808.71 820.85 816.58 822.47   Q 823.63 823.91 835.46 825.51   C 844.67 826.75 853.32 828.85 862.47 830.04   Q 868.43 830.81 871.39 825.09   A 2.05 1.98 -32.7 0 0 871.62 824.12   Z"/>
<path xmlns="http://www.w3.org/2000/svg" fill="#302e6f" d="M 523.96 454.74   C 528.50 449.94 534.54 447.28 542.73 443.06   C 556.09 436.17 570.79 434.17 585.74 435.09   C 592.16 435.49 607.43 437.30 609.49 445.99   C 611.44 454.17 604.79 462.86 596.00 461.26   Q 578.84 458.15 561.76 461.24   C 552.34 462.94 542.77 469.47 536.00 475.69   C 533.94 477.59 530.95 478.06 528.05 477.73   Q 519.10 476.69 517.26 467.13   Q 516.79 464.70 517.66 462.30   C 518.92 458.81 521.80 457.03 523.96 454.74   Z"/>
<path xmlns="http://www.w3.org/2000/svg" fill="#302e6f" d="M 931.12 445.23   Q 932.66 446.72 940.47 451.23   Q 945.57 454.17 950.80 460.97   A 3.31 3.28 -71.3 0 1 951.40 462.20   C 953.60 470.97 947.61 478.09 938.74 477.64   Q 935.10 477.45 932.96 475.59   C 925.88 469.41 916.68 462.92 907.45 461.26   Q 896.58 459.30 883.06 460.02   C 879.30 460.22 875.27 461.29 871.46 461.45   A 5.10 5.05 -39.3 0 1 870.08 461.32   Q 863.14 459.74 860.37 453.50   C 856.90 445.65 862.50 439.14 869.91 437.41   Q 891.49 432.36 913.66 437.66   Q 916.38 438.30 930.47 444.79   A 2.14 2.04 -9.5 0 1 931.12 445.23   Z"/>
<path xmlns="http://www.w3.org/2000/svg" fill="#f1af97" d="M 705.73 674.90   C 696.89 680.44 690.77 685.44 685.20 694.19   C 680.43 701.70 676.73 709.88 674.99 718.62   Q 674.18 722.68 673.51 726.70   Q 669.04 730.74 664.65 734.72   Q 659.13 739.72 655.36 742.21   Q 642.74 750.50 628.73 756.63   Q 622.05 759.56 613.23 761.67   Q 602.32 764.27 597.26 764.85   Q 591.44 765.52 590.82 765.58   Q 547.68 769.26 508.99 748.53   Q 504.91 746.34 495.61 739.55   C 479.97 728.15 467.08 713.39 457.56 696.82   A 2.48 2.31 -66.2 0 1 457.28 696.02   C 457.06 694.68 456.18 693.72 455.45 692.22   Q 446.81 674.43 443.03 656.01   Q 441.39 648.04 440.60 634.75   C 439.06 608.94 446.28 583.52 458.10 560.87   C 464.25 549.09 472.62 538.83 482.42 528.83   Q 489.45 521.67 497.89 516.10   Q 513.97 505.47 527.58 499.87   Q 535.43 496.65 548.16 493.76   C 594.96 483.13 644.59 498.82 677.07 534.15   Q 694.16 552.75 704.03 577.99   Q 705.17 580.90 708.19 591.84   Q 710.37 599.75 711.23 605.92   Q 714.07 626.31 712.89 640.25   Q 711.62 655.35 705.73 674.90   Z   M 476.18 654.79   Q 478.20 663.73 482.13 671.99   Q 483.88 675.68 486.82 681.06   Q 489.36 685.69 492.41 689.60   Q 503.78 704.14 520.48 715.77   C 543.46 731.76 572.58 737.28 599.98 732.84   C 607.44 731.63 614.29 729.09 622.53 726.51   Q 627.89 724.83 638.49 718.94   A 4.43 4.25 -79.9 0 0 639.27 718.37   Q 641.54 716.26 643.82 714.56   C 648.73 710.91 653.28 706.13 657.61 702.65   Q 661.87 699.23 664.74 695.70   Q 669.77 689.53 670.75 687.75   C 677.25 675.99 682.65 666.75 685.40 656.34   Q 686.13 653.55 687.85 641.16   C 688.12 639.19 688.90 636.40 689.82 635.30   C 691.73 633.01 694.25 630.83 694.96 628.07   Q 696.59 621.77 691.85 616.94   A 0.38 0.38 0.0 0 0 691.21 617.10   Q 690.99 617.83 691.51 619.02   C 686.59 611.98 680.36 613.23 673.13 615.41   Q 658.04 619.95 641.34 623.60   Q 601.13 632.38 563.51 635.41   Q 520.47 638.89 478.68 631.93   Q 474.07 631.16 472.32 631.62   C 462.61 634.15 459.63 647.24 468.66 652.35   Q 472.26 654.39 476.18 654.79   Z"/>
<path xmlns="http://www.w3.org/2000/svg" fill="#f1af97" d="M 798.63 729.24   Q 806.53 719.73 801.87 708.68   C 796.23 695.31 785.26 684.79 772.39 677.91   Q 767.71 675.41 763.19 673.20   Q 762.13 668.31 760.90 663.63   Q 759.07 656.63 758.62 654.05   Q 752.31 618.01 763.39 583.97   Q 774.76 548.99 802.67 524.02   Q 822.78 506.02 849.68 497.15   Q 875.25 488.72 901.62 490.92   Q 922.61 492.67 940.42 499.37   Q 948.06 502.25 961.04 509.48   Q 985.51 523.11 1001.20 545.03   C 1004.60 549.80 1008.71 555.68 1011.38 560.87   C 1018.53 574.76 1023.79 589.32 1026.44 604.46   Q 1027.88 612.73 1027.89 612.76   Q 1029.56 623.64 1028.85 633.07   Q 1028.36 639.59 1028.07 644.43   C 1027.54 653.11 1025.49 659.76 1023.41 667.57   Q 1021.95 673.05 1020.22 677.31   Q 1015.21 689.62 1009.01 700.77   Q 1007.76 703.02 1007.89 703.50   A 0.50 0.50 0.0 0 1 1007.64 704.08   Q 1007.35 704.23 1007.16 704.58   Q 1004.39 709.55 999.93 714.00   A 2.68 2.64 -10.9 0 0 999.38 714.80   Q 998.62 716.53 998.24 716.98   Q 982.49 735.69 960.36 748.61   Q 951.17 753.98 941.38 757.38   Q 919.83 764.89 897.50 766.08   Q 892.68 766.34 882.65 765.86   Q 874.79 765.49 867.91 764.07   Q 853.55 761.11 847.53 758.95   C 839.33 756.00 829.45 751.68 821.10 746.32   Q 809.15 738.65 798.63 729.24   Z   M 781.06 634.66   Q 781.57 644.60 782.16 647.75   Q 783.91 657.17 789.15 668.60   Q 794.29 679.81 796.07 683.19   Q 800.28 691.18 807.46 698.29   Q 818.36 709.09 826.61 715.77   Q 828.13 716.99 832.19 719.19   Q 841.43 724.20 850.54 727.68   C 873.16 736.32 896.67 736.05 921.05 729.72   C 931.81 726.92 939.09 721.88 949.94 715.18   Q 954.47 712.38 965.30 702.76   Q 971.13 697.58 976.59 690.45   Q 981.12 684.54 985.10 676.10   Q 989.98 665.73 993.09 657.37   A 1.83 1.75 -12.3 0 1 993.57 656.66   Q 994.19 656.07 994.86 655.80   A 0.48 0.48 0.0 0 0 994.68 654.88   L 991.46 654.84   Q 996.26 654.61 999.87 652.61   C 1004.77 649.90 1007.23 644.02 1004.95 638.74   C 1003.08 634.41 998.34 630.76 993.50 631.60   Q 950.32 639.06 906.25 635.45   Q 860.39 631.69 810.44 619.52   C 803.16 617.74 795.74 614.88 789.25 613.94   C 783.72 613.13 778.95 615.83 777.03 621.23   Q 774.39 628.64 781.06 634.66   Z"/>
<path xmlns="http://www.w3.org/2000/svg" fill="#302e6f" d="M 691.51 619.02   C 695.28 625.43 692.08 634.16 684.88 636.09   Q 673.62 639.12 666.84 640.61   A 2.12 2.11 -4.1 0 0 665.19 642.51   Q 664.31 654.67 659.46 665.24   C 656.35 672.03 650.27 679.69 644.77 685.28   C 635.86 694.33 624.71 699.98 611.97 702.53   Q 606.43 703.64 604.75 703.81   C 574.37 706.81 547.88 688.95 536.48 661.27   A 2.16 2.15 78.8 0 0 534.51 659.94   Q 505.55 659.66 476.18 654.79   Q 472.26 654.39 468.66 652.35   C 459.63 647.24 462.61 634.15 472.32 631.62   Q 474.07 631.16 478.68 631.93   Q 520.47 638.89 563.51 635.41   Q 601.13 632.38 641.34 623.60   Q 658.04 619.95 673.13 615.41   C 680.36 613.23 686.59 611.98 691.51 619.02   Z   M 568.60 660.88   Q 562.31 661.00 561.96 661.04   C 553.54 661.96 554.24 672.14 558.44 676.82   Q 562.99 681.88 568.99 681.77   Q 574.99 681.66 579.35 676.43   C 583.37 671.60 583.69 661.40 575.24 660.79   Q 574.89 660.76 568.60 660.88   Z"/>
<path xmlns="http://www.w3.org/2000/svg" fill="#302e6f" d="M 991.46 654.84   Q 978.89 657.64 966.00 658.53   Q 950.76 659.59 934.50 659.70   A 1.05 1.05 0.0 0 0 933.51 660.40   Q 929.35 671.81 920.62 681.86   C 913.27 690.33 904.96 695.35 895.01 699.54   C 880.23 705.76 864.16 706.02 849.26 700.15   Q 840.75 696.79 835.17 693.35   C 824.98 687.06 817.70 678.06 811.52 667.54   Q 804.74 656.01 804.05 642.22   A 1.17 1.15 -83.4 0 0 803.22 641.16   L 781.06 634.66   Q 774.39 628.64 777.03 621.23   C 778.95 615.83 783.72 613.13 789.25 613.94   C 795.74 614.88 803.16 617.74 810.44 619.52   Q 860.39 631.69 906.25 635.45   Q 950.32 639.06 993.50 631.60   C 998.34 630.76 1003.08 634.41 1004.95 638.74   C 1007.23 644.02 1004.77 649.90 999.87 652.61   Q 996.26 654.61 991.46 654.84   Z   M 845.27 651.35   L 821.64 646.20   A 1.07 1.07 0.0 0 0 820.37 647.02   L 820.35 647.11   A 13.13 13.09 -77.7 0 0 830.34 662.73   L 830.48 662.76   A 13.13 13.09 -77.7 0 0 846.06 652.72   L 846.08 652.62   A 1.07 1.07 0.0 0 0 845.27 651.35   Z"/>
<path xmlns="http://www.w3.org/2000/svg" fill="#f8e6d8" d="M 476.18 654.79   Q 505.55 659.66 534.51 659.94   A 2.16 2.15 78.8 0 1 536.48 661.27   C 547.88 688.95 574.37 706.81 604.75 703.81   Q 606.43 703.64 611.97 702.53   C 624.71 699.98 635.86 694.33 644.77 685.28   C 650.27 679.69 656.35 672.03 659.46 665.24   Q 664.31 654.67 665.19 642.51   A 2.12 2.11 -4.1 0 1 666.84 640.61   Q 673.62 639.12 684.88 636.09   C 692.08 634.16 695.28 625.43 691.51 619.02   Q 690.99 617.83 691.21 617.10   A 0.38 0.38 0.0 0 1 691.85 616.94   Q 696.59 621.77 694.96 628.07   C 694.25 630.83 691.73 633.01 689.82 635.30   C 688.90 636.40 688.12 639.19 687.85 641.16   Q 686.13 653.55 685.40 656.34   C 682.65 666.75 677.25 675.99 670.75 687.75   Q 669.77 689.53 664.74 695.70   Q 661.87 699.23 657.61 702.65   C 653.28 706.13 648.73 710.91 643.82 714.56   Q 641.54 716.26 639.27 718.37   A 4.43 4.25 -79.9 0 1 638.49 718.94   Q 627.89 724.83 622.53 726.51   C 614.29 729.09 607.44 731.63 599.98 732.84   C 572.58 737.28 543.46 731.76 520.48 715.77   Q 503.78 704.14 492.41 689.60   Q 489.36 685.69 486.82 681.06   Q 483.88 675.68 482.13 671.99   Q 478.20 663.73 476.18 654.79   Z"/>
<path xmlns="http://www.w3.org/2000/svg" fill="#f8e6d8" d="M 781.06 634.66   L 803.22 641.16   A 1.17 1.15 -83.4 0 1 804.05 642.22   Q 804.74 656.01 811.52 667.54   C 817.70 678.06 824.98 687.06 835.17 693.35   Q 840.75 696.79 849.26 700.15   C 864.16 706.02 880.23 705.76 895.01 699.54   C 904.96 695.35 913.27 690.33 920.62 681.86   Q 929.35 671.81 933.51 660.40   A 1.05 1.05 0.0 0 1 934.50 659.70   Q 950.76 659.59 966.00 658.53   Q 978.89 657.64 991.46 654.84   L 994.68 654.88   A 0.48 0.48 0.0 0 1 994.86 655.80   Q 994.19 656.07 993.57 656.66   A 1.83 1.75 -12.3 0 0 993.09 657.37   Q 989.98 665.73 985.10 676.10   Q 981.12 684.54 976.59 690.45   Q 971.13 697.58 965.30 702.76   Q 954.47 712.38 949.94 715.18   C 939.09 721.88 931.81 726.92 921.05 729.72   C 896.67 736.05 873.16 736.32 850.54 727.68   Q 841.43 724.20 832.19 719.19   Q 828.13 716.99 826.61 715.77   Q 818.36 709.09 807.46 698.29   Q 800.28 691.18 796.07 683.19   Q 794.29 679.81 789.15 668.60   Q 783.91 657.17 782.16 647.75   Q 781.57 644.60 781.06 634.66   Z"/>
<path xmlns="http://www.w3.org/2000/svg" fill="#f8e6d8" d="M 845.27 651.35   A 1.07 1.07 0.0 0 1 846.08 652.62   L 846.06 652.72   A 13.13 13.09 -77.7 0 1 830.48 662.76   L 830.34 662.73   A 13.13 13.09 -77.7 0 1 820.35 647.11   L 820.37 647.02   A 1.07 1.07 0.0 0 1 821.64 646.20   L 845.27 651.35   Z"/>
<path xmlns="http://www.w3.org/2000/svg" fill="#f8e6d8" d="M 568.99 681.77   Q 562.99 681.88 558.44 676.82   C 554.24 672.14 553.54 661.96 561.96 661.04   Q 562.31 661.00 568.60 660.88   Q 574.89 660.76 575.24 660.79   C 583.69 661.40 583.37 671.60 579.35 676.43   Q 574.99 681.66 568.99 681.77   Z"/>
<path xmlns="http://www.w3.org/2000/svg" fill="#302e6f" d="M 763.19 673.20   Q 767.71 675.41 772.39 677.91   C 785.26 684.79 796.23 695.31 801.87 708.68   Q 806.53 719.73 798.63 729.24   Q 795.24 731.40 792.88 731.87   Q 782.45 733.92 771.77 735.92   A 1.59 1.58 75.4 0 0 770.56 737.99   Q 775.99 753.98 780.46 771.03   C 781.70 775.78 782.27 781.22 780.79 785.92   C 774.00 807.52 740.66 802.69 724.96 798.19   C 713.65 794.94 704.43 788.53 694.98 780.81   Q 687.20 774.45 683.53 768.74   Q 678.88 761.49 676.10 754.44   C 672.87 746.25 672.53 735.28 673.51 726.70   Q 674.18 722.68 674.99 718.62   C 676.73 709.88 680.43 701.70 685.20 694.19   C 690.77 685.44 696.89 680.44 705.73 674.90   Q 712.87 670.88 718.62 669.38   Q 719.83 669.07 727.77 667.83   C 732.94 667.03 736.78 667.65 741.76 667.85   Q 744.95 667.97 748.97 669.07   Q 756.00 670.98 763.19 673.20   Z   M 723.87 687.97   C 710.27 690.65 699.68 703.05 695.43 715.67   Q 691.42 727.58 692.31 740.14   A 1.16 1.16 0.0 0 0 693.36 741.21   Q 701.71 741.94 710.11 738.32   Q 715.26 736.10 737.99 726.58   C 752.54 720.48 767.76 716.05 782.59 714.34   A 0.80 0.79 71.5 0 0 783.18 713.15   Q 779.92 707.51 775.53 703.49   Q 761.01 690.17 741.57 686.80   Q 732.53 685.80 723.87 687.97   Z   M 703.25 762.50   Q 706.71 766.94 711.53 770.47   C 724.64 780.08 742.10 784.76 758.76 782.31   Q 761.51 781.91 762.51 779.52   A 1.37 1.32 -45.4 0 0 762.52 778.51   C 758.88 769.55 743.06 763.73 734.28 760.91   Q 718.85 755.96 703.58 761.35   A 0.74 0.73 61.2 0 0 703.25 762.50   Z"/>
<path xmlns="http://www.w3.org/2000/svg" fill="#e79398" d="M 741.57 686.80   Q 732.61 689.19 723.87 687.97   Q 732.53 685.80 741.57 686.80   Z"/>
<path xmlns="http://www.w3.org/2000/svg" fill="#f1af97" d="M 741.57 686.80   Q 761.01 690.17 775.53 703.49   Q 779.92 707.51 783.18 713.15   A 0.80 0.79 71.5 0 1 782.59 714.34   C 767.76 716.05 752.54 720.48 737.99 726.58   Q 715.26 736.10 710.11 738.32   Q 701.71 741.94 693.36 741.21   A 1.16 1.16 0.0 0 1 692.31 740.14   Q 691.42 727.58 695.43 715.67   C 699.68 703.05 710.27 690.65 723.87 687.97   Q 732.61 689.19 741.57 686.80   Z"/>
<path xmlns="http://www.w3.org/2000/svg" fill="#6f70d4" d="M 1087.75 703.00   A 0.52 0.52 0.0 0 1 1088.67 702.77   Q 1092.24 707.27 1094.28 711.08   Q 1100.76 723.17 1102.43 727.41   Q 1104.56 732.87 1106.30 739.03   C 1108.31 746.18 1109.94 750.70 1110.86 756.58   C 1111.83 762.76 1112.04 770.97 1112.46 774.82   Q 1113.15 781.25 1112.90 787.21   C 1112.02 808.23 1107.50 828.32 1099.99 848.29   Q 1097.91 853.83 1092.68 863.16   Q 1089.43 868.95 1084.49 877.61   C 1082.78 880.61 1080.94 885.09 1078.54 888.28   Q 1070.60 898.84 1067.96 901.46   C 1064.05 905.32 1059.61 910.46 1055.65 914.09   C 1050.46 918.85 1046.41 924.25 1041.47 928.11   C 1034.25 933.76 1028.90 936.67 1019.65 942.02   A 5.35 4.96 7.4 0 0 1018.92 942.54   Q 1015.73 945.23 1012.10 946.87   A 0.51 0.51 0.0 0 1 1011.44 946.16   Q 1012.90 943.54 1016.67 938.96   Q 1019.95 934.98 1022.92 928.67   A 2.52 2.51 -8.6 0 1 1023.49 927.90   Q 1024.10 927.33 1024.27 927.08   Q 1027.25 922.61 1031.67 914.05   Q 1031.92 913.58 1031.87 913.24   A 0.58 0.58 0.0 0 1 1032.05 912.72   Q 1033.01 911.83 1034.92 908.68   Q 1039.81 900.63 1044.09 891.87   C 1045.99 887.97 1047.17 883.69 1048.98 879.62   C 1056.40 863.03 1062.07 848.96 1066.96 832.25   Q 1080.28 786.74 1085.63 740.32   C 1086.83 729.91 1086.76 724.97 1086.96 713.50   Q 1087.08 706.52 1087.75 703.00   Z"/>
<path xmlns="http://www.w3.org/2000/svg" fill="#6f70d4" d="M 382.81 704.54   Q 383.65 717.93 383.56 722.69   C 383.37 732.15 385.72 740.55 386.98 750.77   Q 389.15 768.48 392.17 785.45   Q 393.84 794.88 396.00 802.71   C 398.03 810.08 399.64 817.31 402.18 825.46   C 409.40 848.60 417.19 871.93 427.53 892.26   Q 437.60 912.06 450.72 933.81   Q 454.18 939.53 458.00 944.53   A 0.66 0.66 0.0 0 1 457.13 945.50   Q 456.87 945.35 444.05 937.54   Q 437.09 933.30 431.62 928.65   C 416.81 916.04 404.35 903.70 394.03 888.22   Q 390.59 883.06 384.33 873.19   Q 380.72 867.50 374.79 854.83   C 373.48 852.04 372.96 849.07 371.87 846.39   Q 367.84 836.43 364.40 823.58   Q 360.70 809.77 359.74 800.10   C 358.21 784.67 358.43 767.76 362.14 752.28   C 364.12 744.06 365.59 735.30 369.30 727.80   Q 372.36 721.60 375.30 715.31   C 376.98 711.71 379.21 708.10 381.60 704.24   A 0.65 0.65 0.0 0 1 382.81 704.54   Z"/>
<path xmlns="http://www.w3.org/2000/svg" fill="#e79398" d="M 703.25 762.50   A 0.74 0.73 61.2 0 1 703.58 761.35   Q 718.85 755.96 734.28 760.91   C 743.06 763.73 758.88 769.55 762.52 778.51   A 1.37 1.32 -45.4 0 1 762.51 779.52   Q 761.51 781.91 758.76 782.31   C 742.10 784.76 724.64 780.08 711.53 770.47   Q 706.71 766.94 703.25 762.50   Z"/>
<path xmlns="http://www.w3.org/2000/svg" fill="#302e6f" d="M 871.39 825.09   Q 868.43 830.81 862.47 830.04   C 853.32 828.85 844.67 826.75 835.46 825.51   Q 823.63 823.91 816.58 822.47   C 808.71 820.85 808.92 811.40 814.10 807.09   Q 822.18 800.38 825.57 797.93   C 833.50 792.18 838.96 786.82 847.25 779.92   A 0.75 0.75 0.0 0 0 847.27 778.79   Q 847.01 778.56 846.69 778.52   Q 839.80 777.71 832.31 775.98   C 828.88 775.19 825.98 775.04 823.06 774.47   Q 816.55 773.19 816.32 767.21   A 3.41 3.35 -40.0 0 1 816.41 766.28   C 817.61 761.38 821.81 759.97 826.43 760.53   C 829.44 760.89 832.97 761.20 835.18 761.79   C 839.69 763.01 841.90 763.00 846.62 763.78   Q 848.80 764.14 852.12 764.39   Q 859.37 764.93 864.32 765.75   C 867.01 766.20 869.88 767.00 871.46 769.47   C 875.05 775.07 872.66 779.53 867.80 783.69   Q 862.80 787.97 861.59 788.82   C 854.41 793.85 848.94 797.28 843.77 802.15   Q 839.84 805.85 835.94 809.09   A 0.78 0.77 28.8 0 0 836.34 810.45   Q 840.85 811.02 844.98 812.02   C 851.66 813.64 857.76 814.52 864.19 815.55   Q 871.50 816.73 871.62 824.12   A 2.05 1.98 -32.7 0 1 871.39 825.09   Z"/>
<path xmlns="http://www.w3.org/2000/svg" fill="#f1af97" d="M 372.33 900.68   A 0.24 0.24 0.0 0 1 371.96 900.94   C 361.52 893.92 354.03 889.26 345.38 882.20   C 332.09 871.35 320.36 860.81 309.67 847.64   C 301.59 837.68 288.28 811.72 305.04 802.96   C 314.13 798.21 325.62 799.87 334.74 803.70   A 2.85 2.85 0.0 0 1 336.46 805.94   Q 338.95 824.20 344.67 843.15   C 350.62 862.87 360.92 882.64 372.14 900.12   Q 372.24 900.29 372.33 900.68   Z"/>
<path xmlns="http://www.w3.org/2000/svg" fill="#8a93f9" d="M 933.18 994.63   C 926.78 999.30 920.39 1004.23 913.86 1008.00   Q 906.98 1011.98 904.40 1013.91   C 892.05 1023.17 879.81 1028.91 863.96 1036.01   Q 834.14 1049.36 801.25 1055.97   Q 757.48 1064.77 715.82 1062.13   Q 698.76 1061.05 677.74 1057.41   Q 657.09 1053.84 640.39 1048.56   Q 619.44 1041.92 599.97 1033.26   Q 591.35 1029.43 577.05 1020.83   Q 558.71 1009.81 552.59 1005.94   Q 545.81 1001.66 538.07 994.49   Q 543.33 973.46 550.35 958.12   Q 572.92 908.80 615.96 876.16   C 651.19 849.42 691.62 835.57 735.49 835.39   C 781.65 835.20 826.05 851.00 861.57 880.42   Q 902.74 914.53 922.50 959.97   Q 928.53 973.84 933.18 994.63   Z"/>
<path xmlns="http://www.w3.org/2000/svg" fill="#e79398" d="M 509.31 1003.13   A 0.28 0.28 0.0 0 1 509.08 1003.60   C 481.73 1002.18 455.90 1000.48 429.70 995.57   Q 406.46 991.22 384.21 985.49   C 356.75 978.43 330.76 968.69 307.41 953.50   C 298.80 947.90 288.62 938.94 284.79 929.44   C 282.82 924.58 282.89 918.21 286.56 914.06   C 292.46 907.39 306.10 906.54 314.52 907.48   Q 341.38 910.50 364.92 924.87   Q 371.64 928.97 379.68 933.63   C 391.06 940.22 401.70 945.39 414.75 952.08   Q 417.11 953.29 434.64 962.53   Q 465.89 979.01 496.36 992.41   C 501.28 994.57 505.73 999.21 509.31 1003.13   Z"/>
<path xmlns="http://www.w3.org/2000/svg" fill="#e79398" d="M 836.00 1100.57   Q 832.76 1102.49 827.70 1107.43   C 819.60 1115.36 809.84 1109.67 804.10 1102.03   C 800.40 1097.12 800.80 1089.46 801.36 1083.82   A 2.22 2.21 -16.2 0 1 802.22 1082.27   L 804.50 1080.51   Q 816.74 1078.22 825.61 1075.60   Q 846.10 1069.55 864.93 1062.80   A 1.99 1.98 50.7 0 1 866.63 1062.97   Q 880.20 1071.11 880.45 1087.53   C 880.60 1098.31 875.62 1106.99 864.21 1108.54   Q 856.26 1109.63 850.96 1105.13   C 846.20 1101.10 842.56 1097.68 836.00 1100.57   Z"/>
<path xmlns="http://www.w3.org/2000/svg" fill="#f1af97" d="M 648.50 1076.42   Q 652.98 1077.33 658.07 1078.63   Q 665.98 1080.65 673.44 1081.34   C 677.27 1081.69 677.65 1088.80 677.57 1091.50   Q 677.16 1104.73 666.28 1111.36   C 660.01 1115.17 651.07 1113.79 645.68 1109.13   C 643.35 1107.12 640.97 1102.19 637.83 1100.63   C 631.80 1097.64 628.04 1100.81 623.44 1104.70   C 618.54 1108.83 610.85 1109.92 604.93 1107.43   Q 595.95 1103.64 594.28 1093.68   Q 591.05 1074.39 606.56 1063.34   A 1.87 1.87 0.0 0 1 608.32 1063.11   Q 626.87 1070.15 646.40 1075.58   Q 647.26 1075.82 647.81 1076.16   A 2.16 2.09 -23.4 0 0 648.50 1076.42   Z   M 633.58 1097.71   Q 639.73 1098.05 648.39 1098.22   C 653.22 1098.31 659.40 1097.17 661.68 1092.53   C 664.68 1086.40 658.95 1081.97 653.59 1080.49   C 637.94 1076.15 621.86 1083.18 612.05 1095.22   C 610.03 1097.71 607.99 1102.57 612.56 1103.78   Q 616.15 1104.72 621.10 1102.60   Q 629.79 1098.89 632.46 1097.88   A 2.84 2.78 35.8 0 1 633.58 1097.71   Z"/>
<path xmlns="http://www.w3.org/2000/svg" fill="#e79398" d="M 632.46 1097.88   Q 629.79 1098.89 621.10 1102.60   Q 616.15 1104.72 612.56 1103.78   C 607.99 1102.57 610.03 1097.71 612.05 1095.22   C 621.86 1083.18 637.94 1076.15 653.59 1080.49   C 658.95 1081.97 664.68 1086.40 661.68 1092.53   C 659.40 1097.17 653.22 1098.31 648.39 1098.22   Q 639.73 1098.05 633.58 1097.71   A 2.84 2.78 35.8 0 0 632.46 1097.88   Z"/>
<path xmlns="http://www.w3.org/2000/svg" fill="#f1af97" d="M 804.50 1080.51   L 802.22 1082.27   A 2.22 2.21 -16.2 0 0 801.36 1083.82   C 800.80 1089.46 800.40 1097.12 804.10 1102.03   C 809.84 1109.67 819.60 1115.36 827.70 1107.43   Q 832.76 1102.49 836.00 1100.57   C 831.81 1104.15 829.81 1109.33 824.24 1111.82   Q 820.56 1113.46 815.59 1113.21   C 800.25 1112.41 793.77 1096.06 798.25 1082.78   A 2.38 2.37 -85.2 0 1 800.11 1081.20   L 804.50 1080.51   Z"/>
</g></g></g></g></svg>