<svg xmlns="http://www.w3.org/2000/svg" direction="ltr" width="2048" height="2048" viewBox="29502.325155653758 26121.591492410906 2048 2048" stroke-linecap="round" stroke-linejoin="round" data-color-mode="light" class="tl-container tl-theme__force-sRGB tl-theme__light" style="background-color: transparent;"><defs/><g transform="matrix(1, 0, 0, 1, 29502.3252, 26121.5915)" opacity="1"><g data-lovart-layer-name="SVG 8"><g transform="scale(1.4143646408839778, 1.4143646408839778)"><g>
<g xmlns="http://www.w3.org/2000/svg" stroke-width="2.00" fill="none" stroke-linecap="butt">
<path stroke="#9696b9" d="M 708.47 1161.88   Q 749.07 1165.61 789.45 1160.17   A 0.60 0.60 0.0 0 1 790.12 1160.88   Q 785.24 1185.09 799.80 1205.54   C 806.53 1215.00 820.43 1222.86 832.24 1223.66   Q 846.66 1224.62 858.49 1217.41   C 860.58 1216.13 862.22 1214.64 864.03 1213.63   A 1.26 1.24 42.1 0 1 865.14 1213.58   Q 887.90 1223.88 908.42 1212.76   C 927.66 1202.33 934.99 1178.70 930.69 1158.64   C 927.76 1144.96 921.15 1132.73 910.77 1122.82   A 0.71 0.71 0.0 0 1 910.94 1121.67   Q 928.99 1112.47 944.72 1101.20   Q 980.16 1075.79 1009.07 1043.16   C 1016.16 1035.16 1021.43 1028.04 1027.89 1019.70   A 1.09 1.09 0.0 0 1 1029.09 1019.33   Q 1047.31 1025.19 1066.99 1027.21   C 1087.88 1029.36 1111.32 1026.24 1129.30 1014.79   C 1146.23 1004.00 1146.22 980.56 1136.60 965.21   C 1132.14 958.11 1125.77 951.16 1121.71 945.75   Q 1119.48 942.77 1122.12 940.40   Q 1127.89 935.23 1136.71 927.70   Q 1156.72 910.59 1173.89 890.83   C 1191.35 870.75 1204.63 847.80 1211.72 822.01   Q 1221.66 785.86 1213.14 748.81   Q 1208.34 727.95 1199.36 711.08   Q 1186.19 686.34 1165.06 665.34   C 1152.83 653.18 1137.68 640.47 1122.96 631.56   Q 1121.13 630.45 1121.04 628.00   Q 1119.37 583.90 1111.78 539.40   C 1107.29 513.07 1099.76 485.93 1092.27 462.00   Q 1089.45 452.99 1083.81 439.23   C 1076.72 421.94 1069.57 405.23 1060.24 388.94   C 1051.71 374.07 1043.85 360.06 1034.60 347.90   C 1024.21 334.23 1019.60 328.05 1010.47 317.29   Q 997.05 301.47 975.27 282.33   C 932.62 244.83 880.43 218.64 825.37 205.18   C 810.01 201.42 795.94 198.65 780.22 196.85   C 740.94 192.34 700.41 193.72 661.94 201.77   C 611.73 212.26 564.19 233.06 523.13 263.57   Q 500.85 280.12 483.69 296.93   Q 470.31 310.04 452.51 331.84   Q 442.21 344.45 431.42 361.36   Q 418.52 381.55 412.76 392.51   Q 403.56 410.01 395.14 430.22   C 382.54 460.48 373.89 493.39 368.82 524.88   Q 364.79 549.95 362.52 581.36   Q 359.93 617.07 361.38 651.91   A 2.16 2.16 0.0 0 1 360.58 653.67   Q 352.83 659.97 344.32 667.57   C 333.90 676.88 324.24 687.66 316.24 697.47   Q 307.99 707.61 301.27 720.12   C 293.75 734.14 288.53 746.98 285.54 762.27   Q 281.00 785.49 284.01 807.93   A 0.66 0.65 77.2 0 1 283.57 808.64   Q 259.66 816.49 251.53 840.61   Q 245.33 859.04 251.76 878.51   C 256.24 892.09 262.12 903.07 270.92 914.21   C 278.08 923.27 282.24 929.14 289.04 935.35   A 0.33 0.32 -21.4 0 1 288.79 935.91   Q 287.33 935.80 282.77 935.27   C 264.49 933.14 243.91 937.94 232.37 953.12   C 222.13 966.59 220.27 984.44 228.05 999.74   Q 234.66 1012.74 243.36 1021.19   C 255.37 1032.87 269.33 1042.44 285.72 1050.94   Q 315.84 1066.56 344.56 1075.17   Q 373.26 1083.77 389.99 1087.76   C 439.67 1099.59 490.84 1105.69 541.74 1105.41   A 4.11 4.11 0.0 0 1 544.11 1106.14   Q 561.83 1118.28 582.75 1128.17   A 0.52 0.52 0.0 0 1 582.93 1128.98   C 572.04 1141.81 566.22 1155.86 566.33 1173.27   C 566.42 1186.48 572.91 1201.82 583.84 1209.42   Q 606.67 1225.30 632.33 1213.59   A 1.38 1.38 0.0 0 1 633.77 1213.78   C 647.18 1224.83 665.60 1227.18 681.10 1219.12   C 699.94 1209.33 709.90 1189.92 708.59 1169.25   Q 708.38 1165.94 707.98 1162.38   A 0.45 0.45 0.0 0 1 708.47 1161.88"/>
<path stroke="#946177" d="M 620.63 1115.85   Q 638.16 1122.34 651.36 1125.63   Q 659.20 1127.58 672.59 1130.37   C 712.17 1138.62 752.71 1139.31 792.87 1133.10   Q 799.45 1132.08 812.70 1129.17   C 827.62 1125.90 841.38 1122.77 854.73 1117.71   Q 861.03 1115.32 871.13 1111.37   Q 875.85 1109.53 882.71 1106.31   Q 891.78 1102.05 894.15 1100.91   Q 899.11 1098.51 913.32 1089.66   A 3.30 3.08 -82.5 0 0 913.89 1089.19   Q 915.71 1087.25 921.19 1084.24   Q 927.51 1080.76 939.69 1071.68   Q 957.79 1058.19 975.51 1040.26   Q 984.28 1031.39 989.20 1025.21   C 994.14 1019.00 999.35 1013.37 1004.43 1006.50   Q 1031.85 969.48 1049.54 927.50   Q 1051.88 921.94 1053.26 916.24"/>
<path stroke="#413ea7" d="M 1053.26 916.24   Q 1054.78 913.94 1056.39 909.73   Q 1067.13 881.75 1072.42 859.99   Q 1078.40 835.42 1079.92 827.51   Q 1087.83 786.39 1090.90 747.94   C 1093.99 709.15 1096.59 669.76 1094.86 631.32   Q 1093.55 602.11 1089.23 566.76   Q 1088.46 560.48 1084.46 540.16   C 1082.78 531.66 1081.29 521.54 1080.03 514.50   Q 1079.04 508.98 1078.97 508.77   Q 1077.88 505.52 1077.42 503.16   Q 1076.86 500.27 1074.68 494.91   Q 1070.63 484.96 1068.43 478.37   C 1066.66 473.06 1065.13 464.70 1063.25 458.13   Q 1062.78 456.48 1060.39 449.07   Q 1059.61 446.65 1053.71 436.25   Q 1051.49 432.34 1050.82 430.84   Q 1049.14 427.13 1048.20 425.32   Q 1045.76 420.64 1043.76 414.01   C 1043.16 412.02 1041.65 410.00 1040.67 407.77   Q 1037.32 400.20 1032.76 392.71   C 1030.94 389.70 1028.21 386.80 1026.26 383.64   Q 1022.54 377.62 1015.60 366.74   C 1011.29 359.97 1006.43 354.12 1001.57 347.16   A 5.85 5.78 -86.9 0 0 1000.70 346.18   Q 999.42 345.04 998.16 343.60   Q 984.73 328.26 974.66 317.58   Q 970.19 312.84 965.91 308.96   Q 958.93 302.63 956.64 300.86   C 943.25 290.44 934.57 283.23 923.49 275.81   C 896.01 257.40 863.25 242.71 830.79 233.72   Q 790.98 222.69 751.46 220.86   Q 694.50 218.23 639.88 234.42   Q 622.02 239.72 609.51 244.81   Q 583.83 255.27 559.49 270.75   Q 544.99 279.97 526.07 294.27   Q 518.71 299.83 513.09 305.47   Q 503.35 315.25 488.78 329.53   C 485.60 332.65 481.54 337.06 478.52 341.20   C 471.35 351.01 464.35 360.85 457.08 370.49   Q 449.50 380.54 443.58 391.78   C 436.64 404.97 427.98 420.36 424.33 428.56   C 418.19 442.39 413.48 456.60 408.29 471.60   Q 403.38 485.81 399.56 503.93   Q 393.13 534.43 390.70 559.73   Q 387.11 597.03 387.38 633.89   A 0.43 0.43 0.0 0 0 388.03 634.26   Q 402.83 625.14 420.87 616.43   Q 425.35 614.26 427.73 614.12   C 439.29 613.45 445.86 625.50 439.35 634.83   Q 438.03 636.71 432.23 639.49   Q 418.12 646.23 411.09 650.61   Q 404.88 654.47 385.71 667.04   C 381.96 669.49 378.47 672.18 375.56 674.81   Q 362.52 686.60 354.40 694.15   C 344.07 703.75 337.31 712.85 328.47 725.96   C 319.25 739.65 312.72 755.04 310.36 772.01   Q 306.35 800.79 315.71 827.80   Q 319.98 840.11 327.32 854.38   C 330.78 861.11 335.12 867.05 339.85 872.66   Q 345.61 879.47 354.62 889.55   C 359.91 895.47 364.70 899.45 371.67 905.80   Q 375.24 909.04 387.59 917.59   Q 390.44 919.57 402.08 930.27   C 406.91 934.72 411.28 937.93 415.26 941.96   C 425.06 951.89 426.21 964.70 418.86 976.10   Q 414.95 982.18 410.95 985.46   Q 401.42 993.26 399.91 994.62   Q 395.77 998.34 393.76 1003.84   A 1.60 1.58 43.4 0 0 393.80 1005.03   C 395.50 1008.79 401.09 1011.46 405.04 1012.98   C 427.14 1021.50 449.69 1023.87 473.37 1022.57   Q 494.68 1021.39 515.60 1014.62   C 538.01 1007.37 560.03 997.05 576.57 981.81   Q 580.80 977.91 588.77 970.27   Q 591.58 967.57 600.31 957.06   C 612.02 942.97 620.75 924.18 625.97 906.84   C 635.21 876.24 631.86 840.58 620.27 810.93   Q 615.92 799.83 607.16 782.80   C 603.47 775.62 597.51 767.37 594.22 761.55   Q 591.00 755.86 593.37 750.13   C 597.52 740.07 610.99 738.56 616.58 747.97   Q 622.49 757.91 630.16 770.35   Q 634.23 776.97 637.53 784.46   Q 643.87 798.85 648.72 813.28   Q 652.03 823.10 654.54 837.01   C 663.02 883.98 651.56 929.96 623.81 969.03   Q 611.25 986.70 594.99 1000.25   C 583.77 1009.60 569.49 1019.70 555.74 1026.71   Q 547.42 1030.95 533.33 1035.81   Q 518.73 1040.86 510.33 1043.31   A 0.89 0.89 0.0 0 0 509.96 1044.80   Q 514.14 1048.83 518.68 1053.40   C 525.55 1060.30 533.37 1064.94 541.38 1071.56   C 549.86 1078.57 556.53 1083.65 565.78 1088.54   Q 572.66 1092.19 577.64 1095.12   Q 589.60 1102.17 603.50 1109.01   Q 606.99 1110.73 620.63 1115.85"/>
<path stroke="#a873ac" d="M 1053.26 916.24   Q 1054.17 908.46 1054.92 900.76   C 1057.62 872.83 1054.43 844.19 1043.50 819.21   C 1027.14 781.84 993.39 756.15 953.21 748.04   C 896.17 736.52 836.32 763.29 801.95 809.23   C 781.98 835.92 767.65 866.74 756.59 897.76   Q 742.29 937.90 738.83 947.60   Q 725.73 984.33 707.11 1017.35   Q 703.54 1023.67 700.34 1028.23   A 2.11 1.79 -23.6 0 0 700.06 1028.80   Q 699.80 1029.60 699.31 1030.32   Q 694.88 1036.95 692.06 1041.05   Q 681.75 1056.06 671.81 1067.37   Q 664.00 1076.25 662.90 1077.41   Q 655.43 1085.29 652.56 1088.04   Q 647.60 1092.78 641.55 1097.99   Q 631.27 1106.83 620.63 1115.85"/>
<path stroke="#413ea7" d="M 1104.65 997.56   L 1104.75 997.31   A 0.03 0.01 -67.5 0 1 1104.77 997.29   Q 1108.48 996.17 1113.38 994.15   C 1118.22 992.15 1116.95 985.82 1115.56 982.19   C 1113.53 976.88 1110.66 972.34 1106.56 968.45   C 1095.65 958.11 1087.28 940.64 1098.50 927.27   Q 1100.49 924.88 1105.05 921.15   A 3.09 2.94 -3.0 0 0 1105.56 920.61   Q 1107.27 918.27 1109.98 916.48   Q 1110.41 916.20 1111.57 914.76   A 3.27 3.18 -87.8 0 1 1112.24 914.12   Q 1116.21 911.28 1119.93 907.09   A 7.18 6.13 -18.8 0 1 1120.64 906.41   Q 1127.34 900.86 1129.28 898.94   Q 1133.95 894.32 1137.01 891.85   Q 1140.54 889.01 1144.68 884.69   Q 1160.82 867.84 1172.82 847.34   C 1191.58 815.26 1196.03 778.62 1184.45 743.56   Q 1177.31 721.98 1165.46 705.76   Q 1162.61 701.88 1153.93 691.94   Q 1153.84 691.84 1145.57 682.58   Q 1140.68 677.10 1134.68 672.56   Q 1127.17 666.87 1122.16 662.95   A 0.52 0.52 0.0 0 0 1121.32 663.36   C 1121.34 665.39 1121.69 667.78 1121.60 670.24   Q 1121.13 682.19 1120.34 704.25   Q 1119.48 728.31 1116.14 762.00   Q 1110.88 815.05 1098.10 866.29   Q 1095.78 875.55 1092.98 884.16   Q 1090.83 890.75 1087.33 901.92   Q 1083.04 915.59 1077.79 928.16   Q 1073.80 937.68 1061.82 963.69   C 1057.13 973.84 1051.22 983.06 1044.27 995.36   A 0.68 0.67 -68.3 0 0 1044.69 996.35   C 1053.41 998.48 1061.92 1000.74 1071.27 1001.28   Q 1088.64 1002.28 1104.54 997.67   A 0.19 0.19 0.0 0 0 1104.65 997.56"/>
<path stroke="#4f50b0" d="M 326.43 934.64   Q 326.47 934.98 326.82 935.22   Q 329.16 936.75 331.45 938.60   C 333.55 940.30 335.70 942.77 337.78 944.23   Q 368.74 965.96 369.07 966.18   Q 375.20 970.28 382.34 973.71   A 1.30 1.27 -47.3 0 0 383.56 973.65   Q 390.41 969.52 395.93 963.62   Q 398.07 961.34 395.91 959.17   Q 389.37 952.61 380.49 946.23   Q 378.73 944.96 368.48 936.96   C 358.88 929.45 350.67 920.80 340.30 912.18   Q 335.47 908.17 331.44 903.43   Q 330.02 901.76 327.34 899.07   Q 324.70 896.43 323.40 894.62   Q 309.14 874.68 307.85 872.91   Q 305.69 869.95 303.88 866.89   Q 301.97 863.66 300.06 859.72   Q 296.81 853.01 295.21 847.66   C 294.06 843.81 292.09 840.19 291.26 835.88   A 2.13 2.12 68.4 0 0 288.04 834.48   C 279.99 839.56 275.57 844.94 274.81 854.87   Q 273.91 866.61 279.95 877.62   C 282.35 882.00 284.34 885.92 288.90 894.11   Q 293.08 901.62 301.99 910.80   Q 311.24 920.33 324.75 933.71   A 1.92 1.87 73.2 0 0 325.67 934.22   L 326.17 934.34   A 0.35 0.34 4.9 0 1 326.43 934.64"/>
<path stroke="#413ea7" d="M 377.99 1058.04   Q 397.07 1061.96 404.37 1063.88   C 408.85 1065.07 413.40 1065.64 418.96 1067.17   C 428.79 1069.87 439.52 1071.34 448.74 1072.55   Q 461.12 1074.18 484.82 1076.85   Q 497.80 1078.32 507.98 1078.92   A 0.50 0.50 0.0 0 0 508.50 1078.30   Q 508.47 1078.21 508.24 1078.00   Q 499.13 1069.57 495.42 1066.39   C 489.18 1061.05 483.42 1054.60 478.86 1049.33   A 3.27 3.26 -21.9 0 0 476.20 1048.20   Q 458.82 1049.12 440.25 1047.66   Q 412.82 1045.49 387.92 1033.58   C 378.73 1029.19 371.63 1023.97 368.90 1013.82   Q 366.61 1005.32 368.84 996.86   A 2.10 2.09 -66.6 0 0 367.93 994.54   Q 359.81 989.45 344.27 980.01   Q 336.80 975.48 329.07 972.63   C 313.46 966.88 297.77 962.30 282.22 961.19   C 271.95 960.45 255.89 960.54 251.00 971.59   Q 247.68 979.09 250.86 986.59   C 254.48 995.10 260.39 1001.63 267.34 1007.80   C 271.01 1011.06 275.56 1013.68 279.91 1016.77   C 286.28 1021.32 293.79 1025.15 299.10 1028.47   Q 304.23 1031.67 308.68 1033.58   Q 324.94 1040.52 340.71 1046.28   C 345.39 1048.00 351.07 1049.33 356.19 1051.28   Q 363.65 1054.13 371.16 1056.37   Q 374.06 1057.23 377.99 1058.04"/>
<path stroke="#4f50b0" d="M 854.05 1186.71   Q 858.32 1181.76 864.84 1182.75   C 869.00 1183.39 872.32 1187.99 874.80 1189.46   C 884.69 1195.31 897.79 1193.32 903.47 1183.03   C 907.62 1175.50 906.73 1163.54 903.31 1155.72   Q 897.76 1143.05 886.46 1135.45   A 3.18 3.16 50.4 0 0 883.47 1135.16   Q 877.15 1137.84 871.15 1139.65   Q 865.85 1141.24 858.75 1144.00   Q 846.44 1148.79 839.02 1150.53   Q 832.75 1152.00 824.56 1154.21   A 0.32 0.24 26.6 0 1 824.45 1154.23   L 818.87 1154.87   A 2.64 2.64 0.0 0 0 816.67 1156.68   C 813.29 1167.35 812.76 1178.18 819.11 1187.58   C 824.90 1196.15 829.99 1198.94 840.56 1197.57   C 846.52 1196.80 851.08 1192.26 853.74 1187.17   A 2.52 2.32 81.3 0 1 854.05 1186.71"/>
<path stroke="#4f50b0" d="M 638.22 1182.79   Q 642.35 1184.35 645.19 1189.51   Q 648.23 1195.03 654.44 1197.04   C 658.86 1198.48 665.27 1198.54 669.71 1196.48   C 672.92 1194.99 676.02 1191.48 678.38 1188.76   C 685.22 1180.86 684.42 1169.22 682.60 1159.34   A 1.47 1.46 -2.6 0 0 681.29 1158.15   Q 665.57 1156.70 648.99 1151.97   C 642.56 1150.13 635.60 1148.22 629.75 1146.05   C 625.41 1144.43 620.90 1143.73 616.55 1142.04   Q 615.46 1141.61 609.47 1139.37   A 2.60 2.57 -54.6 0 0 606.88 1139.82   Q 590.30 1153.93 592.23 1176.30   Q 592.92 1184.29 599.93 1189.09   Q 604.64 1192.31 608.61 1192.63   C 617.99 1193.37 622.01 1190.67 628.65 1184.65   C 631.11 1182.42 634.41 1182.46 637.40 1182.62   A 2.77 2.63 55.2 0 1 638.22 1182.79"/>
<path stroke="#413ea7" d="M 793.25 513.66   Q 783.63 510.99 780.19 510.90   Q 773.57 510.74 769.24 510.94   Q 758.48 511.42 748.73 516.74   Q 745.82 518.33 742.79 519.86"/>
<path stroke="#7374eb" d="M 742.79 519.86   Q 742.88 516.85 743.09 515.50   Q 744.69 505.35 744.93 495.13   C 745.09 488.17 744.37 482.45 743.59 473.63   C 742.83 465.02 740.74 455.65 737.18 447.21   Q 731.91 434.70 730.25 430.97   Q 723.96 416.86 712.77 403.73   C 690.56 377.67 658.68 360.84 625.02 356.14   Q 593.72 351.76 564.91 359.21   Q 547.13 363.81 526.00 376.59   Q 520.77 379.75 515.21 384.79   C 502.02 396.71 488.67 408.91 480.29 425.29   Q 475.14 435.36 473.63 438.62   C 462.70 462.10 458.04 489.11 462.09 515.01   Q 463.77 525.80 465.43 532.37   Q 469.73 549.37 479.16 565.82   C 487.48 580.34 496.85 593.49 509.79 604.76   C 532.34 624.41 561.36 635.52 591.13 637.33   C 608.26 638.37 624.85 637.25 641.18 632.40   Q 655.61 628.12 662.92 624.88   Q 672.54 620.62 674.78 619.02   C 678.81 616.12 682.72 613.31 687.85 609.37   Q 690.55 607.30 694.63 604.65   Q 699.97 601.18 703.04 595.76"/>
<path stroke="#413ea7" d="M 703.04 595.76   Q 704.74 602.76 706.81 610.94   Q 707.58 613.97 711.66 621.64   C 714.07 626.18 719.25 632.36 722.77 636.74   Q 735.08 652.05 754.72 660.33   C 763.30 663.95 771.85 665.16 780.46 663.66   Q 801.12 660.05 816.02 645.22   Q 826.44 634.86 829.95 630.19   Q 835.30 623.06 839.31 614.78   Q 840.24 612.84 843.25 612.95   Q 845.97 613.04 854.56 612.19"/>
<path stroke="#7374eb" d="M 854.56 612.19   Q 853.80 613.34 854.51 613.70   C 861.23 617.14 870.55 621.78 878.05 624.60   C 909.59 636.46 946.78 636.07 977.11 621.06   Q 992.84 613.27 999.19 608.39   Q 1012.72 597.98 1017.78 592.51   Q 1028.25 581.19 1032.37 574.40   Q 1041.40 559.50 1043.38 554.41   C 1049.48 538.76 1053.38 526.50 1053.78 512.73   Q 1054.11 501.11 1053.78 488.29   Q 1053.62 482.08 1050.41 463.30   C 1049.12 455.77 1045.37 448.88 1042.42 442.62   A 0.38 0.38 0.0 0 0 1042.22 442.42   Q 1041.75 442.20 1041.86 441.66   Q 1041.94 441.25 1041.52 440.40   Q 1037.58 432.40 1037.19 431.47   Q 1035.77 428.05 1034.47 426.03   A 0.45 0.12 75.1 0 0 1034.43 425.96   L 1031.65 419.62   A 0.37 0.36 -15.9 0 0 1031.25 419.40   Q 1030.99 419.44 1030.89 419.18   Q 1030.85 419.07 1030.78 418.94   Q 1025.53 410.21 1017.23 400.72   Q 1009.57 391.97 1000.35 383.91   Q 987.87 372.98 972.78 365.95   C 957.75 358.95 941.83 353.61 924.98 352.79   Q 887.49 350.95 856.42 369.34   Q 810.25 396.67 794.37 448.99   Q 789.03 466.57 789.30 485.38   Q 789.39 491.36 790.77 499.57   Q 791.95 506.57 793.25 513.66"/>
<path stroke="#5f62b6" d="M 854.56 612.19   Q 857.66 612.07 865.13 611.34   Q 876.29 610.25 880.33 600.20   Q 881.40 597.52 880.97 595.00   Q 880.60 592.83 879.44 587.87"/>
<path stroke="#c7bce2" d="M 879.44 587.87   Q 888.61 591.01 892.30 591.94   Q 916.23 597.96 939.16 593.73   Q 960.41 589.82 980.72 575.01   Q 983.36 573.08 988.79 568.47   Q 993.26 564.67 996.10 561.12   Q 1002.43 553.23 1008.61 542.69   Q 1012.93 535.33 1017.60 522.02   Q 1020.12 514.83 1021.18 505.81   C 1022.51 494.46 1023.07 483.26 1020.59 473.08   Q 1018.70 465.29 1015.41 456.38   Q 1010.13 442.09 1000.80 429.59"/>
<path stroke="#5f62b6" d="M 1000.80 429.59   Q 1002.18 423.22 998.64 418.57   Q 994.00 412.49 985.43 414.47   Q 964.36 419.34 936.98 424.36   C 926.33 426.30 916.12 429.04 905.71 431.01   C 880.09 435.84 857.15 440.83 833.22 445.34   Q 816.63 448.47 811.59 449.91   C 803.88 452.10 801.77 461.39 805.90 467.61   Q 809.62 473.19 816.90 472.99"/>
<path stroke="#c7bce2" d="M 816.90 472.99   C 814.86 482.06 816.04 490.36 816.82 500.50   Q 817.06 503.54 817.83 506.46   Q 818.67 509.60 819.21 512.31   Q 820.43 518.39 822.44 524.86"/>
<path stroke="#5f62b6" d="M 822.44 524.86   Q 815.37 521.96 808.79 518.99   Q 805.16 517.35 793.25 513.66"/>
<path stroke="#95879e" d="M 879.44 587.87   Q 873.00 568.13 857.58 551.67   Q 841.40 534.42 822.44 524.86"/>
<path stroke="#95879e" d="M 1000.80 429.59   Q 997.70 436.70 989.63 438.34   Q 978.54 440.60 967.23 442.75   A 0.62 0.62 0.0 0 0 966.85 443.74   Q 980.36 461.47 980.59 482.68   C 980.82 504.73 970.42 526.05 952.39 538.85   Q 941.52 546.56 930.83 548.85   Q 898.36 555.82 874.74 539.11   Q 857.16 526.68 850.04 507.82   Q 842.96 489.07 847.80 467.93   A 0.53 0.53 0.0 0 0 847.18 467.29   L 816.90 472.99"/>
<path stroke="#5f62b6" d="M 742.79 519.86   Q 741.47 520.59 737.02 523.54   Q 729.40 528.59 724.20 534.70   C 719.95 539.69 715.70 547.56 712.78 552.74   Q 708.38 560.53 704.70 571.96   Q 700.74 584.28 703.04 595.76"/>
<path stroke="#c7bce2" d="M 523.46 438.88   Q 517.87 446.56 516.24 450.73   Q 513.00 459.01 511.95 461.90   Q 501.11 491.66 508.98 521.04   Q 512.76 535.12 519.70 546.30   Q 527.92 559.53 535.34 567.17   Q 552.42 584.78 578.30 594.45   Q 604.13 604.09 633.45 599.78   C 641.70 598.56 646.43 597.60 653.68 595.18   Q 657.41 593.93 659.15 592.82   Q 659.31 592.71 664.57 590.29   Q 673.78 586.03 683.26 578.91   Q 685.66 577.11 688.78 573.49   Q 696.84 564.12 703.55 555.56   Q 706.86 551.34 708.15 548.03   A 1.85 1.81 81.7 0 1 708.72 547.25   Q 709.03 547.01 709.09 546.87   Q 714.60 534.95 715.14 533.32   Q 717.52 526.11 720.07 515.73   C 722.08 507.53 722.35 497.81 722.07 490.50   Q 721.83 484.01 720.36 474.53"/>
<path stroke="#5f62b6" d="M 720.36 474.53   Q 726.48 472.97 728.72 467.70   C 730.52 463.48 729.42 456.32 725.48 453.22   Q 723.28 451.48 719.73 450.77   Q 713.70 449.55 702.70 448.00   C 690.44 446.27 679.02 443.68 665.91 441.56   C 619.23 434.04 593.76 430.01 557.30 423.49   Q 551.77 422.51 535.97 420.15   Q 528.72 419.07 524.61 423.62   Q 518.48 430.40 523.46 438.88"/>
<path stroke="#95879e" d="M 720.36 474.53   Q 718.08 474.85 715.73 474.55   Q 706.16 473.30 696.75 471.30   A 0.81 0.81 0.0 0 0 695.79 472.30   C 697.13 477.64 698.30 482.81 698.38 487.93   C 698.68 507.69 690.67 527.65 675.26 540.53   C 669.64 545.21 664.64 548.83 657.92 551.41   Q 649.83 554.53 640.73 556.17   C 630.03 558.11 619.44 556.42 608.96 552.77   Q 588.55 545.69 576.60 528.18   Q 559.87 503.67 566.99 474.23   Q 569.88 462.30 577.66 452.53   A 0.70 0.70 0.0 0 0 577.19 451.40   Q 570.19 450.63 559.79 448.42   C 553.20 447.03 542.99 446.02 537.27 444.97   C 530.86 443.78 527.55 443.22 523.46 438.88"/>
<path stroke="#95879e" d="M 943.37 447.97   Q 933.94 449.80 932.26 450.35   A 5.03 4.39 -38.3 0 0 931.61 450.61   Q 930.82 450.97 929.63 452.95   C 921.03 467.33 933.71 484.13 949.79 481.00   C 965.87 477.88 971.33 457.56 957.97 447.44   Q 956.13 446.05 955.26 446.01   A 5.03 4.39 16.4 0 0 954.56 446.02   Q 952.80 446.14 943.37 447.97"/>
<path stroke="#95879e" d="M 680.43 468.40   L 647.51 463.24   A 3.06 3.06 0.0 0 0 644.02 465.79   L 643.64 468.17   A 19.59 19.27 8.9 0 0 660.02 490.24   L 660.27 490.28   A 19.59 19.27 8.9 0 0 682.61 474.27   L 682.98 471.89   A 3.06 3.06 0.0 0 0 680.43 468.40"/>
<path stroke="#4f50b0" d="M 859.31 590.41   Q 859.21 589.81 858.67 588.86   Q 855.78 583.79 851.75 576.74   Q 849.37 572.58 846.58 568.91   Q 842.32 563.29 840.42 561.69   Q 829.74 552.66 814.14 543.18   C 807.47 539.12 800.67 536.71 792.99 534.27   Q 780.07 530.16 768.30 531.36   Q 761.73 532.04 753.81 535.83   Q 749.36 537.97 745.16 542.41   C 740.45 547.41 735.99 553.45 732.48 557.99   Q 731.27 559.54 728.97 564.23   C 726.65 568.93 724.87 575.66 723.91 579.47   A 2.29 2.28 26.3 0 0 724.71 581.82   Q 727.43 584.00 731.40 586.10   Q 740.44 590.88 751.57 594.65   C 762.80 598.45 776.15 598.29 787.75 597.50   Q 798.74 596.76 813.32 595.51   Q 823.53 594.63 834.49 593.21   Q 846.38 591.67 858.32 591.58   A 1.01 1.01 0.0 0 0 859.31 590.41"/>
<path stroke="#4f50b0" d="M 726.96 606.26   A 0.34 0.34 0.0 0 0 726.59 606.75   Q 727.65 608.72 731.66 615.60   C 736.68 624.22 743.85 630.57 752.20 636.46   Q 761.49 643.03 769.73 643.96   Q 779.96 645.12 788.38 640.57   Q 797.20 635.80 808.60 625.23   C 811.12 622.90 812.99 619.59 815.40 616.62   A 0.37 0.37 0.0 0 0 815.10 616.02   Q 804.15 616.55 788.77 617.69   Q 771.91 618.94 756.20 616.14   Q 748.83 614.82 732.16 609.00   C 730.66 608.47 728.42 606.60 726.96 606.26"/>
</g>
<path xmlns="http://www.w3.org/2000/svg" fill="#ffffff" d="M 1448.00 0.00   L 1448.00 1448.00   L 0.00 1448.00   L 0.00 0.00   L 1448.00 0.00   Z   M 708.47 1161.88   Q 749.07 1165.61 789.45 1160.17   A 0.60 0.60 0.0 0 1 790.12 1160.88   Q 785.24 1185.09 799.80 1205.54   C 806.53 1215.00 820.43 1222.86 832.24 1223.66   Q 846.66 1224.62 858.49 1217.41   C 860.58 1216.13 862.22 1214.64 864.03 1213.63   A 1.26 1.24 42.1 0 1 865.14 1213.58   Q 887.90 1223.88 908.42 1212.76   C 927.66 1202.33 934.99 1178.70 930.69 1158.64   C 927.76 1144.96 921.15 1132.73 910.77 1122.82   A 0.71 0.71 0.0 0 1 910.94 1121.67   Q 928.99 1112.47 944.72 1101.20   Q 980.16 1075.79 1009.07 1043.16   C 1016.16 1035.16 1021.43 1028.04 1027.89 1019.70   A 1.09 1.09 0.0 0 1 1029.09 1019.33   Q 1047.31 1025.19 1066.99 1027.21   C 1087.88 1029.36 1111.32 1026.24 1129.30 1014.79   C 1146.23 1004.00 1146.22 980.56 1136.60 965.21   C 1132.14 958.11 1125.77 951.16 1121.71 945.75   Q 1119.48 942.77 1122.12 940.40   Q 1127.89 935.23 1136.71 927.70   Q 1156.72 910.59 1173.89 890.83   C 1191.35 870.75 1204.63 847.80 1211.72 822.01   Q 1221.66 785.86 1213.14 748.81   Q 1208.34 727.95 1199.36 711.08   Q 1186.19 686.34 1165.06 665.34   C 1152.83 653.18 1137.68 640.47 1122.96 631.56   Q 1121.13 630.45 1121.04 628.00   Q 1119.37 583.90 1111.78 539.40   C 1107.29 513.07 1099.76 485.93 1092.27 462.00   Q 1089.45 452.99 1083.81 439.23   C 1076.72 421.94 1069.57 405.23 1060.24 388.94   C 1051.71 374.07 1043.85 360.06 1034.60 347.90   C 1024.21 334.23 1019.60 328.05 1010.47 317.29   Q 997.05 301.47 975.27 282.33   C 932.62 244.83 880.43 218.64 825.37 205.18   C 810.01 201.42 795.94 198.65 780.22 196.85   C 740.94 192.34 700.41 193.72 661.94 201.77   C 611.73 212.26 564.19 233.06 523.13 263.57   Q 500.85 280.12 483.69 296.93   Q 470.31 310.04 452.51 331.84   Q 442.21 344.45 431.42 361.36   Q 418.52 381.55 412.76 392.51   Q 403.56 410.01 395.14 430.22   C 382.54 460.48 373.89 493.39 368.82 524.88   Q 364.79 549.95 362.52 581.36   Q 359.93 617.07 361.38 651.91   A 2.16 2.16 0.0 0 1 360.58 653.67   Q 352.83 659.97 344.32 667.57   C 333.90 676.88 324.24 687.66 316.24 697.47   Q 307.99 707.61 301.27 720.12   C 293.75 734.14 288.53 746.98 285.54 762.27   Q 281.00 785.49 284.01 807.93   A 0.66 0.65 77.2 0 1 283.57 808.64   Q 259.66 816.49 251.53 840.61   Q 245.33 859.04 251.76 878.51   C 256.24 892.09 262.12 903.07 270.92 914.21   C 278.08 923.27 282.24 929.14 289.04 935.35   A 0.33 0.32 -21.4 0 1 288.79 935.91   Q 287.33 935.80 282.77 935.27   C 264.49 933.14 243.91 937.94 232.37 953.12   C 222.13 966.59 220.27 984.44 228.05 999.74   Q 234.66 1012.74 243.36 1021.19   C 255.37 1032.87 269.33 1042.44 285.72 1050.94   Q 315.84 1066.56 344.56 1075.17   Q 373.26 1083.77 389.99 1087.76   C 439.67 1099.59 490.84 1105.69 541.74 1105.41   A 4.11 4.11 0.0 0 1 544.11 1106.14   Q 561.83 1118.28 582.75 1128.17   A 0.52 0.52 0.0 0 1 582.93 1128.98   C 572.04 1141.81 566.22 1155.86 566.33 1173.27   C 566.42 1186.48 572.91 1201.82 583.84 1209.42   Q 606.67 1225.30 632.33 1213.59   A 1.38 1.38 0.0 0 1 633.77 1213.78   C 647.18 1224.83 665.60 1227.18 681.10 1219.12   C 699.94 1209.33 709.90 1189.92 708.59 1169.25   Q 708.38 1165.94 707.98 1162.38   A 0.45 0.45 0.0 0 1 708.47 1161.88   Z"/>
<path xmlns="http://www.w3.org/2000/svg" fill="#2d2c72" d="M 707.98 1162.38   Q 708.38 1165.94 708.59 1169.25   C 709.90 1189.92 699.94 1209.33 681.10 1219.12   C 665.60 1227.18 647.18 1224.83 633.77 1213.78   A 1.38 1.38 0.0 0 0 632.33 1213.59   Q 606.67 1225.30 583.84 1209.42   C 572.91 1201.82 566.42 1186.48 566.33 1173.27   C 566.22 1155.86 572.04 1141.81 582.93 1128.98   A 0.52 0.52 0.0 0 0 582.75 1128.17   Q 561.83 1118.28 544.11 1106.14   A 4.11 4.11 0.0 0 0 541.74 1105.41   C 490.84 1105.69 439.67 1099.59 389.99 1087.76   Q 373.26 1083.77 344.56 1075.17   Q 315.84 1066.56 285.72 1050.94   C 269.33 1042.44 255.37 1032.87 243.36 1021.19   Q 234.66 1012.74 228.05 999.74   C 220.27 984.44 222.13 966.59 232.37 953.12   C 243.91 937.94 264.49 933.14 282.77 935.27   Q 287.33 935.80 288.79 935.91   A 0.33 0.32 -21.4 0 0 289.04 935.35   C 282.24 929.14 278.08 923.27 270.92 914.21   C 262.12 903.07 256.24 892.09 251.76 878.51   Q 245.33 859.04 251.53 840.61   Q 259.66 816.49 283.57 808.64   A 0.66 0.65 77.2 0 0 284.01 807.93   Q 281.00 785.49 285.54 762.27   C 288.53 746.98 293.75 734.14 301.27 720.12   Q 307.99 707.61 316.24 697.47   C 324.24 687.66 333.90 676.88 344.32 667.57   Q 352.83 659.97 360.58 653.67   A 2.16 2.16 0.0 0 0 361.38 651.91   Q 359.93 617.07 362.52 581.36   Q 364.79 549.95 368.82 524.88   C 373.89 493.39 382.54 460.48 395.14 430.22   Q 403.56 410.01 412.76 392.51   Q 418.52 381.55 431.42 361.36   Q 442.21 344.45 452.51 331.84   Q 470.31 310.04 483.69 296.93   Q 500.85 280.12 523.13 263.57   C 564.19 233.06 611.73 212.26 661.94 201.77   C 700.41 193.72 740.94 192.34 780.22 196.85   C 795.94 198.65 810.01 201.42 825.37 205.18   C 880.43 218.64 932.62 244.83 975.27 282.33   Q 997.05 301.47 1010.47 317.29   C 1019.60 328.05 1024.21 334.23 1034.60 347.90   C 1043.85 360.06 1051.71 374.07 1060.24 388.94   C 1069.57 405.23 1076.72 421.94 1083.81 439.23   Q 1089.45 452.99 1092.27 462.00   C 1099.76 485.93 1107.29 513.07 1111.78 539.40   Q 1119.37 583.90 1121.04 628.00   Q 1121.13 630.45 1122.96 631.56   C 1137.68 640.47 1152.83 653.18 1165.06 665.34   Q 1186.19 686.34 1199.36 711.08   Q 1208.34 727.95 1213.14 748.81   Q 1221.66 785.86 1211.72 822.01   C 1204.63 847.80 1191.35 870.75 1173.89 890.83   Q 1156.72 910.59 1136.71 927.70   Q 1127.89 935.23 1122.12 940.40   Q 1119.48 942.77 1121.71 945.75   C 1125.77 951.16 1132.14 958.11 1136.60 965.21   C 1146.22 980.56 1146.23 1004.00 1129.30 1014.79   C 1111.32 1026.24 1087.88 1029.36 1066.99 1027.21   Q 1047.31 1025.19 1029.09 1019.33   A 1.09 1.09 0.0 0 0 1027.89 1019.70   C 1021.43 1028.04 1016.16 1035.16 1009.07 1043.16   Q 980.16 1075.79 944.72 1101.20   Q 928.99 1112.47 910.94 1121.67   A 0.71 0.71 0.0 0 0 910.77 1122.82   C 921.15 1132.73 927.76 1144.96 930.69 1158.64   C 934.99 1178.70 927.66 1202.33 908.42 1212.76   Q 887.90 1223.88 865.14 1213.58   A 1.26 1.24 42.1 0 0 864.03 1213.63   C 862.22 1214.64 860.58 1216.13 858.49 1217.41   Q 846.66 1224.62 832.24 1223.66   C 820.43 1222.86 806.53 1215.00 799.80 1205.54   Q 785.24 1185.09 790.12 1160.88   A 0.60 0.60 0.0 0 0 789.45 1160.17   Q 749.07 1165.61 708.47 1161.88   A 0.45 0.45 0.0 0 0 707.98 1162.38   Z   M 620.63 1115.85   Q 638.16 1122.34 651.36 1125.63   Q 659.20 1127.58 672.59 1130.37   C 712.17 1138.62 752.71 1139.31 792.87 1133.10   Q 799.45 1132.08 812.70 1129.17   C 827.62 1125.90 841.38 1122.77 854.73 1117.71   Q 861.03 1115.32 871.13 1111.37   Q 875.85 1109.53 882.71 1106.31   Q 891.78 1102.05 894.15 1100.91   Q 899.11 1098.51 913.32 1089.66   A 3.30 3.08 -82.5 0 0 913.89 1089.19   Q 915.71 1087.25 921.19 1084.24   Q 927.51 1080.76 939.69 1071.68   Q 957.79 1058.19 975.51 1040.26   Q 984.28 1031.39 989.20 1025.21   C 994.14 1019.00 999.35 1013.37 1004.43 1006.50   Q 1031.85 969.48 1049.54 927.50   Q 1051.88 921.94 1053.26 916.24   Q 1054.78 913.94 1056.39 909.73   Q 1067.13 881.75 1072.42 859.99   Q 1078.40 835.42 1079.92 827.51   Q 1087.83 786.39 1090.90 747.94   C 1093.99 709.15 1096.59 669.76 1094.86 631.32   Q 1093.55 602.11 1089.23 566.76   Q 1088.46 560.48 1084.46 540.16   C 1082.78 531.66 1081.29 521.54 1080.03 514.50   Q 1079.04 508.98 1078.97 508.77   Q 1077.88 505.52 1077.42 503.16   Q 1076.86 500.27 1074.68 494.91   Q 1070.63 484.96 1068.43 478.37   C 1066.66 473.06 1065.13 464.70 1063.25 458.13   Q 1062.78 456.48 1060.39 449.07   Q 1059.61 446.65 1053.71 436.25   Q 1051.49 432.34 1050.82 430.84   Q 1049.14 427.13 1048.20 425.32   Q 1045.76 420.64 1043.76 414.01   C 1043.16 412.02 1041.65 410.00 1040.67 407.77   Q 1037.32 400.20 1032.76 392.71   C 1030.94 389.70 1028.21 386.80 1026.26 383.64   Q 1022.54 377.62 1015.60 366.74   C 1011.29 359.97 1006.43 354.12 1001.57 347.16   A 5.85 5.78 -86.9 0 0 1000.70 346.18   Q 999.42 345.04 998.16 343.60   Q 984.73 328.26 974.66 317.58   Q 970.19 312.84 965.91 308.96   Q 958.93 302.63 956.64 300.86   C 943.25 290.44 934.57 283.23 923.49 275.81   C 896.01 257.40 863.25 242.71 830.79 233.72   Q 790.98 222.69 751.46 220.86   Q 694.50 218.23 639.88 234.42   Q 622.02 239.72 609.51 244.81   Q 583.83 255.27 559.49 270.75   Q 544.99 279.97 526.07 294.27   Q 518.71 299.83 513.09 305.47   Q 503.35 315.25 488.78 329.53   C 485.60 332.65 481.54 337.06 478.52 341.20   C 471.35 351.01 464.35 360.85 457.08 370.49   Q 449.50 380.54 443.58 391.78   C 436.64 404.97 427.98 420.36 424.33 428.56   C 418.19 442.39 413.48 456.60 408.29 471.60   Q 403.38 485.81 399.56 503.93   Q 393.13 534.43 390.70 559.73   Q 387.11 597.03 387.38 633.89   A 0.43 0.43 0.0 0 0 388.03 634.26   Q 402.83 625.14 420.87 616.43   Q 425.35 614.26 427.73 614.12   C 439.29 613.45 445.86 625.50 439.35 634.83   Q 438.03 636.71 432.23 639.49   Q 418.12 646.23 411.09 650.61   Q 404.88 654.47 385.71 667.04   C 381.96 669.49 378.47 672.18 375.56 674.81   Q 362.52 686.60 354.40 694.15   C 344.07 703.75 337.31 712.85 328.47 725.96   C 319.25 739.65 312.72 755.04 310.36 772.01   Q 306.35 800.79 315.71 827.80   Q 319.98 840.11 327.32 854.38   C 330.78 861.11 335.12 867.05 339.85 872.66   Q 345.61 879.47 354.62 889.55   C 359.91 895.47 364.70 899.45 371.67 905.80   Q 375.24 909.04 387.59 917.59   Q 390.44 919.57 402.08 930.27   C 406.91 934.72 411.28 937.93 415.26 941.96   C 425.06 951.89 426.21 964.70 418.86 976.10   Q 414.95 982.18 410.95 985.46   Q 401.42 993.26 399.91 994.62   Q 395.77 998.34 393.76 1003.84   A 1.60 1.58 43.4 0 0 393.80 1005.03   C 395.50 1008.79 401.09 1011.46 405.04 1012.98   C 427.14 1021.50 449.69 1023.87 473.37 1022.57   Q 494.68 1021.39 515.60 1014.62   C 538.01 1007.37 560.03 997.05 576.57 981.81   Q 580.80 977.91 588.77 970.27   Q 591.58 967.57 600.31 957.06   C 612.02 942.97 620.75 924.18 625.97 906.84   C 635.21 876.24 631.86 840.58 620.27 810.93   Q 615.92 799.83 607.16 782.80   C 603.47 775.62 597.51 767.37 594.22 761.55   Q 591.00 755.86 593.37 750.13   C 597.52 740.07 610.99 738.56 616.58 747.97   Q 622.49 757.91 630.16 770.35   Q 634.23 776.97 637.53 784.46   Q 643.87 798.85 648.72 813.28   Q 652.03 823.10 654.54 837.01   C 663.02 883.98 651.56 929.96 623.81 969.03   Q 611.25 986.70 594.99 1000.25   C 583.77 1009.60 569.49 1019.70 555.74 1026.71   Q 547.42 1030.95 533.33 1035.81   Q 518.73 1040.86 510.33 1043.31   A 0.89 0.89 0.0 0 0 509.96 1044.80   Q 514.14 1048.83 518.68 1053.40   C 525.55 1060.30 533.37 1064.94 541.38 1071.56   C 549.86 1078.57 556.53 1083.65 565.78 1088.54   Q 572.66 1092.19 577.64 1095.12   Q 589.60 1102.17 603.50 1109.01   Q 606.99 1110.73 620.63 1115.85   Z   M 1104.65 997.56   L 1104.75 997.31   A 0.03 0.01 -67.5 0 1 1104.77 997.29   Q 1108.48 996.17 1113.38 994.15   C 1118.22 992.15 1116.95 985.82 1115.56 982.19   C 1113.53 976.88 1110.66 972.34 1106.56 968.45   C 1095.65 958.11 1087.28 940.64 1098.50 927.27   Q 1100.49 924.88 1105.05 921.15   A 3.09 2.94 -3.0 0 0 1105.56 920.61   Q 1107.27 918.27 1109.98 916.48   Q 1110.41 916.20 1111.57 914.76   A 3.27 3.18 -87.8 0 1 1112.24 914.12   Q 1116.21 911.28 1119.93 907.09   A 7.18 6.13 -18.8 0 1 1120.64 906.41   Q 1127.34 900.86 1129.28 898.94   Q 1133.95 894.32 1137.01 891.85   Q 1140.54 889.01 1144.68 884.69   Q 1160.82 867.84 1172.82 847.34   C 1191.58 815.26 1196.03 778.62 1184.45 743.56   Q 1177.31 721.98 1165.46 705.76   Q 1162.61 701.88 1153.93 691.94   Q 1153.84 691.84 1145.57 682.58   Q 1140.68 677.10 1134.68 672.56   Q 1127.17 666.87 1122.16 662.95   A 0.52 0.52 0.0 0 0 1121.32 663.36   C 1121.34 665.39 1121.69 667.78 1121.60 670.24   Q 1121.13 682.19 1120.34 704.25   Q 1119.48 728.31 1116.14 762.00   Q 1110.88 815.05 1098.10 866.29   Q 1095.78 875.55 1092.98 884.16   Q 1090.83 890.75 1087.33 901.92   Q 1083.04 915.59 1077.79 928.16   Q 1073.80 937.68 1061.82 963.69   C 1057.13 973.84 1051.22 983.06 1044.27 995.36   A 0.68 0.67 -68.3 0 0 1044.69 996.35   C 1053.41 998.48 1061.92 1000.74 1071.27 1001.28   Q 1088.64 1002.28 1104.54 997.67   A 0.19 0.19 0.0 0 0 1104.65 997.56   Z   M 326.43 934.64   Q 326.47 934.98 326.82 935.22   Q 329.16 936.75 331.45 938.60   C 333.55 940.30 335.70 942.77 337.78 944.23   Q 368.74 965.96 369.07 966.18   Q 375.20 970.28 382.34 973.71   A 1.30 1.27 -47.3 0 0 383.56 973.65   Q 390.41 969.52 395.93 963.62   Q 398.07 961.34 395.91 959.17   Q 389.37 952.61 380.49 946.23   Q 378.73 944.96 368.48 936.96   C 358.88 929.45 350.67 920.80 340.30 912.18   Q 335.47 908.17 331.44 903.43   Q 330.02 901.76 327.34 899.07   Q 324.70 896.43 323.40 894.62   Q 309.14 874.68 307.85 872.91   Q 305.69 869.95 303.88 866.89   Q 301.97 863.66 300.06 859.72   Q 296.81 853.01 295.21 847.66   C 294.06 843.81 292.09 840.19 291.26 835.88   A 2.13 2.12 68.4 0 0 288.04 834.48   C 279.99 839.56 275.57 844.94 274.81 854.87   Q 273.91 866.61 279.95 877.62   C 282.35 882.00 284.34 885.92 288.90 894.11   Q 293.08 901.62 301.99 910.80   Q 311.24 920.33 324.75 933.71   A 1.92 1.87 73.2 0 0 325.67 934.22   L 326.17 934.34   A 0.35 0.34 4.9 0 1 326.43 934.64   Z   M 377.99 1058.04   Q 397.07 1061.96 404.37 1063.88   C 408.85 1065.07 413.40 1065.64 418.96 1067.17   C 428.79 1069.87 439.52 1071.34 448.74 1072.55   Q 461.12 1074.18 484.82 1076.85   Q 497.80 1078.32 507.98 1078.92   A 0.50 0.50 0.0 0 0 508.50 1078.30   Q 508.47 1078.21 508.24 1078.00   Q 499.13 1069.57 495.42 1066.39   C 489.18 1061.05 483.42 1054.60 478.86 1049.33   A 3.27 3.26 -21.9 0 0 476.20 1048.20   Q 458.82 1049.12 440.25 1047.66   Q 412.82 1045.49 387.92 1033.58   C 378.73 1029.19 371.63 1023.97 368.90 1013.82   Q 366.61 1005.32 368.84 996.86   A 2.10 2.09 -66.6 0 0 367.93 994.54   Q 359.81 989.45 344.27 980.01   Q 336.80 975.48 329.07 972.63   C 313.46 966.88 297.77 962.30 282.22 961.19   C 271.95 960.45 255.89 960.54 251.00 971.59   Q 247.68 979.09 250.86 986.59   C 254.48 995.10 260.39 1001.63 267.34 1007.80   C 271.01 1011.06 275.56 1013.68 279.91 1016.77   C 286.28 1021.32 293.79 1025.15 299.10 1028.47   Q 304.23 1031.67 308.68 1033.58   Q 324.94 1040.52 340.71 1046.28   C 345.39 1048.00 351.07 1049.33 356.19 1051.28   Q 363.65 1054.13 371.16 1056.37   Q 374.06 1057.23 377.99 1058.04   Z   M 854.05 1186.71   Q 858.32 1181.76 864.84 1182.75   C 869.00 1183.39 872.32 1187.99 874.80 1189.46   C 884.69 1195.31 897.79 1193.32 903.47 1183.03   C 907.62 1175.50 906.73 1163.54 903.31 1155.72   Q 897.76 1143.05 886.46 1135.45   A 3.18 3.16 50.4 0 0 883.47 1135.16   Q 877.15 1137.84 871.15 1139.65   Q 865.85 1141.24 858.75 1144.00   Q 846.44 1148.79 839.02 1150.53   Q 832.75 1152.00 824.56 1154.21   A 0.32 0.24 26.6 0 1 824.45 1154.23   L 818.87 1154.87   A 2.64 2.64 0.0 0 0 816.67 1156.68   C 813.29 1167.35 812.76 1178.18 819.11 1187.58   C 824.90 1196.15 829.99 1198.94 840.56 1197.57   C 846.52 1196.80 851.08 1192.26 853.74 1187.17   A 2.52 2.32 81.3 0 1 854.05 1186.71   Z   M 638.22 1182.79   Q 642.35 1184.35 645.19 1189.51   Q 648.23 1195.03 654.44 1197.04   C 658.86 1198.48 665.27 1198.54 669.71 1196.48   C 672.92 1194.99 676.02 1191.48 678.38 1188.76   C 685.22 1180.86 684.42 1169.22 682.60 1159.34   A 1.47 1.46 -2.6 0 0 681.29 1158.15   Q 665.57 1156.70 648.99 1151.97   C 642.56 1150.13 635.60 1148.22 629.75 1146.05   C 625.41 1144.43 620.90 1143.73 616.55 1142.04   Q 615.46 1141.61 609.47 1139.37   A 2.60 2.57 -54.6 0 0 606.88 1139.82   Q 590.30 1153.93 592.23 1176.30   Q 592.92 1184.29 599.93 1189.09   Q 604.64 1192.31 608.61 1192.63   C 617.99 1193.37 622.01 1190.67 628.65 1184.65   C 631.11 1182.42 634.41 1182.46 637.40 1182.62   A 2.77 2.63 55.2 0 1 638.22 1182.79   Z"/>
<path xmlns="http://www.w3.org/2000/svg" fill="#5550db" d="M 1053.26 916.24   Q 1054.17 908.46 1054.92 900.76   C 1057.62 872.83 1054.43 844.19 1043.50 819.21   C 1027.14 781.84 993.39 756.15 953.21 748.04   C 896.17 736.52 836.32 763.29 801.95 809.23   C 781.98 835.92 767.65 866.74 756.59 897.76   Q 742.29 937.90 738.83 947.60   Q 725.73 984.33 707.11 1017.35   Q 703.54 1023.67 700.34 1028.23   A 2.11 1.79 -23.6 0 0 700.06 1028.80   Q 699.80 1029.60 699.31 1030.32   Q 694.88 1036.95 692.06 1041.05   Q 681.75 1056.06 671.81 1067.37   Q 664.00 1076.25 662.90 1077.41   Q 655.43 1085.29 652.56 1088.04   Q 647.60 1092.78 641.55 1097.99   Q 631.27 1106.83 620.63 1115.85   Q 606.99 1110.73 603.50 1109.01   Q 589.60 1102.17 577.64 1095.12   Q 572.66 1092.19 565.78 1088.54   C 556.53 1083.65 549.86 1078.57 541.38 1071.56   C 533.37 1064.94 525.55 1060.30 518.68 1053.40   Q 514.14 1048.83 509.96 1044.80   A 0.89 0.89 0.0 0 1 510.33 1043.31   Q 518.73 1040.86 533.33 1035.81   Q 547.42 1030.95 555.74 1026.71   C 569.49 1019.70 583.77 1009.60 594.99 1000.25   Q 611.25 986.70 623.81 969.03   C 651.56 929.96 663.02 883.98 654.54 837.01   Q 652.03 823.10 648.72 813.28   Q 643.87 798.85 637.53 784.46   Q 634.23 776.97 630.16 770.35   Q 622.49 757.91 616.58 747.97   C 610.99 738.56 597.52 740.07 593.37 750.13   Q 591.00 755.86 594.22 761.55   C 597.51 767.37 603.47 775.62 607.16 782.80   Q 615.92 799.83 620.27 810.93   C 631.86 840.58 635.21 876.24 625.97 906.84   C 620.75 924.18 612.02 942.97 600.31 957.06   Q 591.58 967.57 588.77 970.27   Q 580.80 977.91 576.57 981.81   C 560.03 997.05 538.01 1007.37 515.60 1014.62   Q 494.68 1021.39 473.37 1022.57   C 449.69 1023.87 427.14 1021.50 405.04 1012.98   C 401.09 1011.46 395.50 1008.79 393.80 1005.03   A 1.60 1.58 43.4 0 1 393.76 1003.84   Q 395.77 998.34 399.91 994.62   Q 401.42 993.26 410.95 985.46   Q 414.95 982.18 418.86 976.10   C 426.21 964.70 425.06 951.89 415.26 941.96   C 411.28 937.93 406.91 934.72 402.08 930.27   Q 390.44 919.57 387.59 917.59   Q 375.24 909.04 371.67 905.80   C 364.70 899.45 359.91 895.47 354.62 889.55   Q 345.61 879.47 339.85 872.66   C 335.12 867.05 330.78 861.11 327.32 854.38   Q 319.98 840.11 315.71 827.80   Q 306.35 800.79 310.36 772.01   C 312.72 755.04 319.25 739.65 328.47 725.96   C 337.31 712.85 344.07 703.75 354.40 694.15   Q 362.52 686.60 375.56 674.81   C 378.47 672.18 381.96 669.49 385.71 667.04   Q 404.88 654.47 411.09 650.61   Q 418.12 646.23 432.23 639.49   Q 438.03 636.71 439.35 634.83   C 445.86 625.50 439.29 613.45 427.73 614.12   Q 425.35 614.26 420.87 616.43   Q 402.83 625.14 388.03 634.26   A 0.43 0.43 0.0 0 1 387.38 633.89   Q 387.11 597.03 390.70 559.73   Q 393.13 534.43 399.56 503.93   Q 403.38 485.81 408.29 471.60   C 413.48 456.60 418.19 442.39 424.33 428.56   C 427.98 420.36 436.64 404.97 443.58 391.78   Q 449.50 380.54 457.08 370.49   C 464.35 360.85 471.35 351.01 478.52 341.20   C 481.54 337.06 485.60 332.65 488.78 329.53   Q 503.35 315.25 513.09 305.47   Q 518.71 299.83 526.07 294.27   Q 544.99 279.97 559.49 270.75   Q 583.83 255.27 609.51 244.81   Q 622.02 239.72 639.88 234.42   Q 694.50 218.23 751.46 220.86   Q 790.98 222.69 830.79 233.72   C 863.25 242.71 896.01 257.40 923.49 275.81   C 934.57 283.23 943.25 290.44 956.64 300.86   Q 958.93 302.63 965.91 308.96   Q 970.19 312.84 974.66 317.58   Q 984.73 328.26 998.16 343.60   Q 999.42 345.04 1000.70 346.18   A 5.85 5.78 -86.9 0 1 1001.57 347.16   C 1006.43 354.12 1011.29 359.97 1015.60 366.74   Q 1022.54 377.62 1026.26 383.64   C 1028.21 386.80 1030.94 389.70 1032.76 392.71   Q 1037.32 400.20 1040.67 407.77   C 1041.65 410.00 1043.16 412.02 1043.76 414.01   Q 1045.76 420.64 1048.20 425.32   Q 1049.14 427.13 1050.82 430.84   Q 1051.49 432.34 1053.71 436.25   Q 1059.61 446.65 1060.39 449.07   Q 1062.78 456.48 1063.25 458.13   C 1065.13 464.70 1066.66 473.06 1068.43 478.37   Q 1070.63 484.96 1074.68 494.91   Q 1076.86 500.27 1077.42 503.16   Q 1077.88 505.52 1078.97 508.77   Q 1079.04 508.98 1080.03 514.50   C 1081.29 521.54 1082.78 531.66 1084.46 540.16   Q 1088.46 560.48 1089.23 566.76   Q 1093.55 602.11 1094.86 631.32   C 1096.59 669.76 1093.99 709.15 1090.90 747.94   Q 1087.83 786.39 1079.92 827.51   Q 1078.40 835.42 1072.42 859.99   Q 1067.13 881.75 1056.39 909.73   Q 1054.78 913.94 1053.26 916.24   Z   M 793.25 513.66   Q 783.63 510.99 780.19 510.90   Q 773.57 510.74 769.24 510.94   Q 758.48 511.42 748.73 516.74   Q 745.82 518.33 742.79 519.86   Q 742.88 516.85 743.09 515.50   Q 744.69 505.35 744.93 495.13   C 745.09 488.17 744.37 482.45 743.59 473.63   C 742.83 465.02 740.74 455.65 737.18 447.21   Q 731.91 434.70 730.25 430.97   Q 723.96 416.86 712.77 403.73   C 690.56 377.67 658.68 360.84 625.02 356.14   Q 593.72 351.76 564.91 359.21   Q 547.13 363.81 526.00 376.59   Q 520.77 379.75 515.21 384.79   C 502.02 396.71 488.67 408.91 480.29 425.29   Q 475.14 435.36 473.63 438.62   C 462.70 462.10 458.04 489.11 462.09 515.01   Q 463.77 525.80 465.43 532.37   Q 469.73 549.37 479.16 565.82   C 487.48 580.34 496.85 593.49 509.79 604.76   C 532.34 624.41 561.36 635.52 591.13 637.33   C 608.26 638.37 624.85 637.25 641.18 632.40   Q 655.61 628.12 662.92 624.88   Q 672.54 620.62 674.78 619.02   C 678.81 616.12 682.72 613.31 687.85 609.37   Q 690.55 607.30 694.63 604.65   Q 699.97 601.18 703.04 595.76   Q 704.74 602.76 706.81 610.94   Q 707.58 613.97 711.66 621.64   C 714.07 626.18 719.25 632.36 722.77 636.74   Q 735.08 652.05 754.72 660.33   C 763.30 663.95 771.85 665.16 780.46 663.66   Q 801.12 660.05 816.02 645.22   Q 826.44 634.86 829.95 630.19   Q 835.30 623.06 839.31 614.78   Q 840.24 612.84 843.25 612.95   Q 845.97 613.04 854.56 612.19   Q 853.80 613.34 854.51 613.70   C 861.23 617.14 870.55 621.78 878.05 624.60   C 909.59 636.46 946.78 636.07 977.11 621.06   Q 992.84 613.27 999.19 608.39   Q 1012.72 597.98 1017.78 592.51   Q 1028.25 581.19 1032.37 574.40   Q 1041.40 559.50 1043.38 554.41   C 1049.48 538.76 1053.38 526.50 1053.78 512.73   Q 1054.11 501.11 1053.78 488.29   Q 1053.62 482.08 1050.41 463.30   C 1049.12 455.77 1045.37 448.88 1042.42 442.62   A 0.38 0.38 0.0 0 0 1042.22 442.42   Q 1041.75 442.20 1041.86 441.66   Q 1041.94 441.25 1041.52 440.40   Q 1037.58 432.40 1037.19 431.47   Q 1035.77 428.05 1034.47 426.03   A 0.45 0.12 75.1 0 0 1034.43 425.96   L 1031.65 419.62   A 0.37 0.36 -15.9 0 0 1031.25 419.40   Q 1030.99 419.44 1030.89 419.18   Q 1030.85 419.07 1030.78 418.94   Q 1025.53 410.21 1017.23 400.72   Q 1009.57 391.97 1000.35 383.91   Q 987.87 372.98 972.78 365.95   C 957.75 358.95 941.83 353.61 924.98 352.79   Q 887.49 350.95 856.42 369.34   Q 810.25 396.67 794.37 448.99   Q 789.03 466.57 789.30 485.38   Q 789.39 491.36 790.77 499.57   Q 791.95 506.57 793.25 513.66   Z"/>
<path xmlns="http://www.w3.org/2000/svg" fill="#9197fa" d="M 854.56 612.19   Q 857.66 612.07 865.13 611.34   Q 876.29 610.25 880.33 600.20   Q 881.40 597.52 880.97 595.00   Q 880.60 592.83 879.44 587.87   Q 888.61 591.01 892.30 591.94   Q 916.23 597.96 939.16 593.73   Q 960.41 589.82 980.72 575.01   Q 983.36 573.08 988.79 568.47   Q 993.26 564.67 996.10 561.12   Q 1002.43 553.23 1008.61 542.69   Q 1012.93 535.33 1017.60 522.02   Q 1020.12 514.83 1021.18 505.81   C 1022.51 494.46 1023.07 483.26 1020.59 473.08   Q 1018.70 465.29 1015.41 456.38   Q 1010.13 442.09 1000.80 429.59   Q 1002.18 423.22 998.64 418.57   Q 994.00 412.49 985.43 414.47   Q 964.36 419.34 936.98 424.36   C 926.33 426.30 916.12 429.04 905.71 431.01   C 880.09 435.84 857.15 440.83 833.22 445.34   Q 816.63 448.47 811.59 449.91   C 803.88 452.10 801.77 461.39 805.90 467.61   Q 809.62 473.19 816.90 472.99   C 814.86 482.06 816.04 490.36 816.82 500.50   Q 817.06 503.54 817.83 506.46   Q 818.67 509.60 819.21 512.31   Q 820.43 518.39 822.44 524.86   Q 815.37 521.96 808.79 518.99   Q 805.16 517.35 793.25 513.66   Q 791.95 506.57 790.77 499.57   Q 789.39 491.36 789.30 485.38   Q 789.03 466.57 794.37 448.99   Q 810.25 396.67 856.42 369.34   Q 887.49 350.95 924.98 352.79   C 941.83 353.61 957.75 358.95 972.78 365.95   Q 987.87 372.98 1000.35 383.91   Q 1009.57 391.97 1017.23 400.72   Q 1025.53 410.21 1030.78 418.94   Q 1030.85 419.07 1030.89 419.18   Q 1030.99 419.44 1031.25 419.40   A 0.37 0.36 -15.9 0 1 1031.65 419.62   L 1034.43 425.96   A 0.45 0.12 75.1 0 1 1034.47 426.03   Q 1035.77 428.05 1037.19 431.47   Q 1037.58 432.40 1041.52 440.40   Q 1041.94 441.25 1041.86 441.66   Q 1041.75 442.20 1042.22 442.42   A 0.38 0.38 0.0 0 1 1042.42 442.62   C 1045.37 448.88 1049.12 455.77 1050.41 463.30   Q 1053.62 482.08 1053.78 488.29   Q 1054.11 501.11 1053.78 512.73   C 1053.38 526.50 1049.48 538.76 1043.38 554.41   Q 1041.40 559.50 1032.37 574.40   Q 1028.25 581.19 1017.78 592.51   Q 1012.72 597.98 999.19 608.39   Q 992.84 613.27 977.11 621.06   C 946.78 636.07 909.59 636.46 878.05 624.60   C 870.55 621.78 861.23 617.14 854.51 613.70   Q 853.80 613.34 854.56 612.19   Z"/>
<path xmlns="http://www.w3.org/2000/svg" fill="#9197fa" d="M 742.79 519.86   Q 741.47 520.59 737.02 523.54   Q 729.40 528.59 724.20 534.70   C 719.95 539.69 715.70 547.56 712.78 552.74   Q 708.38 560.53 704.70 571.96   Q 700.74 584.28 703.04 595.76   Q 699.97 601.18 694.63 604.65   Q 690.55 607.30 687.85 609.37   C 682.72 613.31 678.81 616.12 674.78 619.02   Q 672.54 620.62 662.92 624.88   Q 655.61 628.12 641.18 632.40   C 624.85 637.25 608.26 638.37 591.13 637.33   C 561.36 635.52 532.34 624.41 509.79 604.76   C 496.85 593.49 487.48 580.34 479.16 565.82   Q 469.73 549.37 465.43 532.37   Q 463.77 525.80 462.09 515.01   C 458.04 489.11 462.70 462.10 473.63 438.62   Q 475.14 435.36 480.29 425.29   C 488.67 408.91 502.02 396.71 515.21 384.79   Q 520.77 379.75 526.00 376.59   Q 547.13 363.81 564.91 359.21   Q 593.72 351.76 625.02 356.14   C 658.68 360.84 690.56 377.67 712.77 403.73   Q 723.96 416.86 730.25 430.97   Q 731.91 434.70 737.18 447.21   C 740.74 455.65 742.83 465.02 743.59 473.63   C 744.37 482.45 745.09 488.17 744.93 495.13   Q 744.69 505.35 743.09 515.50   Q 742.88 516.85 742.79 519.86   Z   M 523.46 438.88   Q 517.87 446.56 516.24 450.73   Q 513.00 459.01 511.95 461.90   Q 501.11 491.66 508.98 521.04   Q 512.76 535.12 519.70 546.30   Q 527.92 559.53 535.34 567.17   Q 552.42 584.78 578.30 594.45   Q 604.13 604.09 633.45 599.78   C 641.70 598.56 646.43 597.60 653.68 595.18   Q 657.41 593.93 659.15 592.82   Q 659.31 592.71 664.57 590.29   Q 673.78 586.03 683.26 578.91   Q 685.66 577.11 688.78 573.49   Q 696.84 564.12 703.55 555.56   Q 706.86 551.34 708.15 548.03   A 1.85 1.81 81.7 0 1 708.72 547.25   Q 709.03 547.01 709.09 546.87   Q 714.60 534.95 715.14 533.32   Q 717.52 526.11 720.07 515.73   C 722.08 507.53 722.35 497.81 722.07 490.50   Q 721.83 484.01 720.36 474.53   Q 726.48 472.97 728.72 467.70   C 730.52 463.48 729.42 456.32 725.48 453.22   Q 723.28 451.48 719.73 450.77   Q 713.70 449.55 702.70 448.00   C 690.44 446.27 679.02 443.68 665.91 441.56   C 619.23 434.04 593.76 430.01 557.30 423.49   Q 551.77 422.51 535.97 420.15   Q 528.72 419.07 524.61 423.62   Q 518.48 430.40 523.46 438.88   Z"/>
<path xmlns="http://www.w3.org/2000/svg" fill="#2d2c72" d="M 1000.80 429.59   Q 997.70 436.70 989.63 438.34   Q 978.54 440.60 967.23 442.75   A 0.62 0.62 0.0 0 0 966.85 443.74   Q 980.36 461.47 980.59 482.68   C 980.82 504.73 970.42 526.05 952.39 538.85   Q 941.52 546.56 930.83 548.85   Q 898.36 555.82 874.74 539.11   Q 857.16 526.68 850.04 507.82   Q 842.96 489.07 847.80 467.93   A 0.53 0.53 0.0 0 0 847.18 467.29   L 816.90 472.99   Q 809.62 473.19 805.90 467.61   C 801.77 461.39 803.88 452.10 811.59 449.91   Q 816.63 448.47 833.22 445.34   C 857.15 440.83 880.09 435.84 905.71 431.01   C 916.12 429.04 926.33 426.30 936.98 424.36   Q 964.36 419.34 985.43 414.47   Q 994.00 412.49 998.64 418.57   Q 1002.18 423.22 1000.80 429.59   Z   M 943.37 447.97   Q 933.94 449.80 932.26 450.35   A 5.03 4.39 -38.3 0 0 931.61 450.61   Q 930.82 450.97 929.63 452.95   C 921.03 467.33 933.71 484.13 949.79 481.00   C 965.87 477.88 971.33 457.56 957.97 447.44   Q 956.13 446.05 955.26 446.01   A 5.03 4.39 16.4 0 0 954.56 446.02   Q 952.80 446.14 943.37 447.97   Z"/>
<path xmlns="http://www.w3.org/2000/svg" fill="#2d2c72" d="M 720.36 474.53   Q 718.08 474.85 715.73 474.55   Q 706.16 473.30 696.75 471.30   A 0.81 0.81 0.0 0 0 695.79 472.30   C 697.13 477.64 698.30 482.81 698.38 487.93   C 698.68 507.69 690.67 527.65 675.26 540.53   C 669.64 545.21 664.64 548.83 657.92 551.41   Q 649.83 554.53 640.73 556.17   C 630.03 558.11 619.44 556.42 608.96 552.77   Q 588.55 545.69 576.60 528.18   Q 559.87 503.67 566.99 474.23   Q 569.88 462.30 577.66 452.53   A 0.70 0.70 0.0 0 0 577.19 451.40   Q 570.19 450.63 559.79 448.42   C 553.20 447.03 542.99 446.02 537.27 444.97   C 530.86 443.78 527.55 443.22 523.46 438.88   Q 518.48 430.40 524.61 423.62   Q 528.72 419.07 535.97 420.15   Q 551.77 422.51 557.30 423.49   C 593.76 430.01 619.23 434.04 665.91 441.56   C 679.02 443.68 690.44 446.27 702.70 448.00   Q 713.70 449.55 719.73 450.77   Q 723.28 451.48 725.48 453.22   C 729.42 456.32 730.52 463.48 728.72 467.70   Q 726.48 472.97 720.36 474.53   Z   M 680.43 468.40   L 647.51 463.24   A 3.06 3.06 0.0 0 0 644.02 465.79   L 643.64 468.17   A 19.59 19.27 8.9 0 0 660.02 490.24   L 660.27 490.28   A 19.59 19.27 8.9 0 0 682.61 474.27   L 682.98 471.89   A 3.06 3.06 0.0 0 0 680.43 468.40   Z"/>
<path xmlns="http://www.w3.org/2000/svg" fill="#fce1ca" d="M 879.44 587.87   Q 873.00 568.13 857.58 551.67   Q 841.40 534.42 822.44 524.86   Q 820.43 518.39 819.21 512.31   Q 818.67 509.60 817.83 506.46   Q 817.06 503.54 816.82 500.50   C 816.04 490.36 814.86 482.06 816.90 472.99   L 847.18 467.29   A 0.53 0.53 0.0 0 1 847.80 467.93   Q 842.96 489.07 850.04 507.82   Q 857.16 526.68 874.74 539.11   Q 898.36 555.82 930.83 548.85   Q 941.52 546.56 952.39 538.85   C 970.42 526.05 980.82 504.73 980.59 482.68   Q 980.36 461.47 966.85 443.74   A 0.62 0.62 0.0 0 1 967.23 442.75   Q 978.54 440.60 989.63 438.34   Q 997.70 436.70 1000.80 429.59   Q 1010.13 442.09 1015.41 456.38   Q 1018.70 465.29 1020.59 473.08   C 1023.07 483.26 1022.51 494.46 1021.18 505.81   Q 1020.12 514.83 1017.60 522.02   Q 1012.93 535.33 1008.61 542.69   Q 1002.43 553.23 996.10 561.12   Q 993.26 564.67 988.79 568.47   Q 983.36 573.08 980.72 575.01   Q 960.41 589.82 939.16 593.73   Q 916.23 597.96 892.30 591.94   Q 888.61 591.01 879.44 587.87   Z"/>
<path xmlns="http://www.w3.org/2000/svg" fill="#fce1ca" d="M 523.46 438.88   C 527.55 443.22 530.86 443.78 537.27 444.97   C 542.99 446.02 553.20 447.03 559.79 448.42   Q 570.19 450.63 577.19 451.40   A 0.70 0.70 0.0 0 1 577.66 452.53   Q 569.88 462.30 566.99 474.23   Q 559.87 503.67 576.60 528.18   Q 588.55 545.69 608.96 552.77   C 619.44 556.42 630.03 558.11 640.73 556.17   Q 649.83 554.53 657.92 551.41   C 664.64 548.83 669.64 545.21 675.26 540.53   C 690.67 527.65 698.68 507.69 698.38 487.93   C 698.30 482.81 697.13 477.64 695.79 472.30   A 0.81 0.81 0.0 0 1 696.75 471.30   Q 706.16 473.30 715.73 474.55   Q 718.08 474.85 720.36 474.53   Q 721.83 484.01 722.07 490.50   C 722.35 497.81 722.08 507.53 720.07 515.73   Q 717.52 526.11 715.14 533.32   Q 714.60 534.95 709.09 546.87   Q 709.03 547.01 708.72 547.25   A 1.85 1.81 81.7 0 0 708.15 548.03   Q 706.86 551.34 703.55 555.56   Q 696.84 564.12 688.78 573.49   Q 685.66 577.11 683.26 578.91   Q 673.78 586.03 664.57 590.29   Q 659.31 592.71 659.15 592.82   Q 657.41 593.93 653.68 595.18   C 646.43 597.60 641.70 598.56 633.45 599.78   Q 604.13 604.09 578.30 594.45   Q 552.42 584.78 535.34 567.17   Q 527.92 559.53 519.70 546.30   Q 512.76 535.12 508.98 521.04   Q 501.11 491.66 511.95 461.90   Q 513.00 459.01 516.24 450.73   Q 517.87 446.56 523.46 438.88   Z"/>
<path xmlns="http://www.w3.org/2000/svg" fill="#fce1ca" d="M 949.79 481.00   C 933.71 484.13 921.03 467.33 929.63 452.95   Q 930.82 450.97 931.61 450.61   A 5.03 4.39 -38.3 0 1 932.26 450.35   Q 933.94 449.80 943.37 447.97   Q 952.80 446.14 954.56 446.02   A 5.03 4.39 16.4 0 1 955.26 446.01   Q 956.13 446.05 957.97 447.44   C 971.33 457.56 965.87 477.88 949.79 481.00   Z"/>
<path xmlns="http://www.w3.org/2000/svg" fill="#fce1ca" d="M 680.43 468.40   A 3.06 3.06 0.0 0 1 682.98 471.89   L 682.61 474.27   A 19.59 19.27 8.9 0 1 660.27 490.28   L 660.02 490.24   A 19.59 19.27 8.9 0 1 643.64 468.17   L 644.02 465.79   A 3.06 3.06 0.0 0 1 647.51 463.24   L 680.43 468.40   Z"/>
<path xmlns="http://www.w3.org/2000/svg" fill="#2d2c72" d="M 793.25 513.66   Q 805.16 517.35 808.79 518.99   Q 815.37 521.96 822.44 524.86   Q 841.40 534.42 857.58 551.67   Q 873.00 568.13 879.44 587.87   Q 880.60 592.83 880.97 595.00   Q 881.40 597.52 880.33 600.20   Q 876.29 610.25 865.13 611.34   Q 857.66 612.07 854.56 612.19   Q 845.97 613.04 843.25 612.95   Q 840.24 612.84 839.31 614.78   Q 835.30 623.06 829.95 630.19   Q 826.44 634.86 816.02 645.22   Q 801.12 660.05 780.46 663.66   C 771.85 665.16 763.30 663.95 754.72 660.33   Q 735.08 652.05 722.77 636.74   C 719.25 632.36 714.07 626.18 711.66 621.64   Q 707.58 613.97 706.81 610.94   Q 704.74 602.76 703.04 595.76   Q 700.74 584.28 704.70 571.96   Q 708.38 560.53 712.78 552.74   C 715.70 547.56 719.95 539.69 724.20 534.70   Q 729.40 528.59 737.02 523.54   Q 741.47 520.59 742.79 519.86   Q 745.82 518.33 748.73 516.74   Q 758.48 511.42 769.24 510.94   Q 773.57 510.74 780.19 510.90   Q 783.63 510.99 793.25 513.66   Z   M 859.31 590.41   Q 859.21 589.81 858.67 588.86   Q 855.78 583.79 851.75 576.74   Q 849.37 572.58 846.58 568.91   Q 842.32 563.29 840.42 561.69   Q 829.74 552.66 814.14 543.18   C 807.47 539.12 800.67 536.71 792.99 534.27   Q 780.07 530.16 768.30 531.36   Q 761.73 532.04 753.81 535.83   Q 749.36 537.97 745.16 542.41   C 740.45 547.41 735.99 553.45 732.48 557.99   Q 731.27 559.54 728.97 564.23   C 726.65 568.93 724.87 575.66 723.91 579.47   A 2.29 2.28 26.3 0 0 724.71 581.82   Q 727.43 584.00 731.40 586.10   Q 740.44 590.88 751.57 594.65   C 762.80 598.45 776.15 598.29 787.75 597.50   Q 798.74 596.76 813.32 595.51   Q 823.53 594.63 834.49 593.21   Q 846.38 591.67 858.32 591.58   A 1.01 1.01 0.0 0 0 859.31 590.41   Z   M 726.96 606.26   A 0.34 0.34 0.0 0 0 726.59 606.75   Q 727.65 608.72 731.66 615.60   C 736.68 624.22 743.85 630.57 752.20 636.46   Q 761.49 643.03 769.73 643.96   Q 779.96 645.12 788.38 640.57   Q 797.20 635.80 808.60 625.23   C 811.12 622.90 812.99 619.59 815.40 616.62   A 0.37 0.37 0.0 0 0 815.10 616.02   Q 804.15 616.55 788.77 617.69   Q 771.91 618.94 756.20 616.14   Q 748.83 614.82 732.16 609.00   C 730.66 608.47 728.42 606.60 726.96 606.26   Z"/>
<path xmlns="http://www.w3.org/2000/svg" fill="#7173ee" d="M 859.31 590.41   A 1.01 1.01 0.0 0 1 858.32 591.58   Q 846.38 591.67 834.49 593.21   Q 823.53 594.63 813.32 595.51   Q 798.74 596.76 787.75 597.50   C 776.15 598.29 762.80 598.45 751.57 594.65   Q 740.44 590.88 731.40 586.10   Q 727.43 584.00 724.71 581.82   A 2.29 2.28 26.3 0 1 723.91 579.47   C 724.87 575.66 726.65 568.93 728.97 564.23   Q 731.27 559.54 732.48 557.99   C 735.99 553.45 740.45 547.41 745.16 542.41   Q 749.36 537.97 753.81 535.83   Q 761.73 532.04 768.30 531.36   Q 780.07 530.16 792.99 534.27   C 800.67 536.71 807.47 539.12 814.14 543.18   Q 829.74 552.66 840.42 561.69   Q 842.32 563.29 846.58 568.91   Q 849.37 572.58 851.75 576.74   Q 855.78 583.79 858.67 588.86   Q 859.21 589.81 859.31 590.41   Z"/>
<path xmlns="http://www.w3.org/2000/svg" fill="#7173ee" d="M 726.96 606.26   C 728.42 606.60 730.66 608.47 732.16 609.00   Q 748.83 614.82 756.20 616.14   Q 771.91 618.94 788.77 617.69   Q 804.15 616.55 815.10 616.02   A 0.37 0.37 0.0 0 1 815.40 616.62   C 812.99 619.59 811.12 622.90 808.60 625.23   Q 797.20 635.80 788.38 640.57   Q 779.96 645.12 769.73 643.96   Q 761.49 643.03 752.20 636.46   C 743.85 630.57 736.68 624.22 731.66 615.60   Q 727.65 608.72 726.59 606.75   A 0.34 0.34 0.0 0 1 726.96 606.26   Z"/>
<path xmlns="http://www.w3.org/2000/svg" fill="#5550db" d="M 1104.54 997.67   Q 1088.64 1002.28 1071.27 1001.28   C 1061.92 1000.74 1053.41 998.48 1044.69 996.35   A 0.68 0.67 -68.3 0 1 1044.27 995.36   C 1051.22 983.06 1057.13 973.84 1061.82 963.69   Q 1073.80 937.68 1077.79 928.16   Q 1083.04 915.59 1087.33 901.92   Q 1090.83 890.75 1092.98 884.16   Q 1095.78 875.55 1098.10 866.29   Q 1110.88 815.05 1116.14 762.00   Q 1119.48 728.31 1120.34 704.25   Q 1121.13 682.19 1121.60 670.24   C 1121.69 667.78 1121.34 665.39 1121.32 663.36   A 0.52 0.52 0.0 0 1 1122.16 662.95   Q 1127.17 666.87 1134.68 672.56   Q 1140.68 677.10 1145.57 682.58   Q 1153.84 691.84 1153.93 691.94   Q 1162.61 701.88 1165.46 705.76   Q 1177.31 721.98 1184.45 743.56   C 1196.03 778.62 1191.58 815.26 1172.82 847.34   Q 1160.82 867.84 1144.68 884.69   Q 1140.54 889.01 1137.01 891.85   Q 1133.95 894.32 1129.28 898.94   Q 1127.34 900.86 1120.64 906.41   A 7.18 6.13 -18.8 0 0 1119.93 907.09   Q 1116.21 911.28 1112.24 914.12   A 3.27 3.18 -87.8 0 0 1111.57 914.76   Q 1110.41 916.20 1109.98 916.48   Q 1107.27 918.27 1105.56 920.61   A 3.09 2.94 -3.0 0 1 1105.05 921.15   Q 1100.49 924.88 1098.50 927.27   C 1087.28 940.64 1095.65 958.11 1106.56 968.45   C 1110.66 972.34 1113.53 976.88 1115.56 982.19   C 1116.95 985.82 1118.22 992.15 1113.38 994.15   Q 1108.48 996.17 1104.77 997.29   A 0.03 0.01 -67.5 0 0 1104.75 997.31   L 1104.65 997.56   A 0.19 0.19 0.0 0 1 1104.54 997.67   Z"/>
<path xmlns="http://www.w3.org/2000/svg" fill="#fa967c" d="M 1053.26 916.24   Q 1051.88 921.94 1049.54 927.50   Q 1031.85 969.48 1004.43 1006.50   C 999.35 1013.37 994.14 1019.00 989.20 1025.21   Q 984.28 1031.39 975.51 1040.26   Q 957.79 1058.19 939.69 1071.68   Q 927.51 1080.76 921.19 1084.24   Q 915.71 1087.25 913.89 1089.19   A 3.30 3.08 -82.5 0 1 913.32 1089.66   Q 899.11 1098.51 894.15 1100.91   Q 891.78 1102.05 882.71 1106.31   Q 875.85 1109.53 871.13 1111.37   Q 861.03 1115.32 854.73 1117.71   C 841.38 1122.77 827.62 1125.90 812.70 1129.17   Q 799.45 1132.08 792.87 1133.10   C 752.71 1139.31 712.17 1138.62 672.59 1130.37   Q 659.20 1127.58 651.36 1125.63   Q 638.16 1122.34 620.63 1115.85   Q 631.27 1106.83 641.55 1097.99   Q 647.60 1092.78 652.56 1088.04   Q 655.43 1085.29 662.90 1077.41   Q 664.00 1076.25 671.81 1067.37   Q 681.75 1056.06 692.06 1041.05   Q 694.88 1036.95 699.31 1030.32   Q 699.80 1029.60 700.06 1028.80   A 2.11 1.79 -23.6 0 1 700.34 1028.23   Q 703.54 1023.67 707.11 1017.35   Q 725.73 984.33 738.83 947.60   Q 742.29 937.90 756.59 897.76   C 767.65 866.74 781.98 835.92 801.95 809.23   C 836.32 763.29 896.17 736.52 953.21 748.04   C 993.39 756.15 1027.14 781.84 1043.50 819.21   C 1054.43 844.19 1057.62 872.83 1054.92 900.76   Q 1054.17 908.46 1053.26 916.24   Z"/>
<path xmlns="http://www.w3.org/2000/svg" fill="#7173ee" d="M 326.17 934.34   L 325.67 934.22   A 1.92 1.87 73.2 0 1 324.75 933.71   Q 311.24 920.33 301.99 910.80   Q 293.08 901.62 288.90 894.11   C 284.34 885.92 282.35 882.00 279.95 877.62   Q 273.91 866.61 274.81 854.87   C 275.57 844.94 279.99 839.56 288.04 834.48   A 2.13 2.12 68.4 0 1 291.26 835.88   C 292.09 840.19 294.06 843.81 295.21 847.66   Q 296.81 853.01 300.06 859.72   Q 301.97 863.66 303.88 866.89   Q 305.69 869.95 307.85 872.91   Q 309.14 874.68 323.40 894.62   Q 324.70 896.43 327.34 899.07   Q 330.02 901.76 331.44 903.43   Q 335.47 908.17 340.30 912.18   C 350.67 920.80 358.88 929.45 368.48 936.96   Q 378.73 944.96 380.49 946.23   Q 389.37 952.61 395.91 959.17   Q 398.07 961.34 395.93 963.62   Q 390.41 969.52 383.56 973.65   A 1.30 1.27 -47.3 0 1 382.34 973.71   Q 375.20 970.28 369.07 966.18   Q 368.74 965.96 337.78 944.23   C 335.70 942.77 333.55 940.30 331.45 938.60   Q 329.16 936.75 326.82 935.22   Q 326.47 934.98 326.43 934.64   A 0.35 0.34 4.9 0 0 326.17 934.34   Z"/>
<path xmlns="http://www.w3.org/2000/svg" fill="#5550db" d="M 377.99 1058.04   Q 374.06 1057.23 371.16 1056.37   Q 363.65 1054.13 356.19 1051.28   C 351.07 1049.33 345.39 1048.00 340.71 1046.28   Q 324.94 1040.52 308.68 1033.58   Q 304.23 1031.67 299.10 1028.47   C 293.79 1025.15 286.28 1021.32 279.91 1016.77   C 275.56 1013.68 271.01 1011.06 267.34 1007.80   C 260.39 1001.63 254.48 995.10 250.86 986.59   Q 247.68 979.09 251.00 971.59   C 255.89 960.54 271.95 960.45 282.22 961.19   C 297.77 962.30 313.46 966.88 329.07 972.63   Q 336.80 975.48 344.27 980.01   Q 359.81 989.45 367.93 994.54   A 2.10 2.09 -66.6 0 1 368.84 996.86   Q 366.61 1005.32 368.90 1013.82   C 371.63 1023.97 378.73 1029.19 387.92 1033.58   Q 412.82 1045.49 440.25 1047.66   Q 458.82 1049.12 476.20 1048.20   A 3.27 3.26 -21.9 0 1 478.86 1049.33   C 483.42 1054.60 489.18 1061.05 495.42 1066.39   Q 499.13 1069.57 508.24 1078.00   Q 508.47 1078.21 508.50 1078.30   A 0.50 0.50 0.0 0 1 507.98 1078.92   Q 497.80 1078.32 484.82 1076.85   Q 461.12 1074.18 448.74 1072.55   C 439.52 1071.34 428.79 1069.87 418.96 1067.17   C 413.40 1065.64 408.85 1065.07 404.37 1063.88   Q 397.07 1061.96 377.99 1058.04   Z"/>
<path xmlns="http://www.w3.org/2000/svg" fill="#7173ee" d="M 853.74 1187.17   C 851.08 1192.26 846.52 1196.80 840.56 1197.57   C 829.99 1198.94 824.90 1196.15 819.11 1187.58   C 812.76 1178.18 813.29 1167.35 816.67 1156.68   A 2.64 2.64 0.0 0 1 818.87 1154.87   L 824.45 1154.23   A 0.32 0.24 26.6 0 0 824.56 1154.21   Q 832.75 1152.00 839.02 1150.53   Q 846.44 1148.79 858.75 1144.00   Q 865.85 1141.24 871.15 1139.65   Q 877.15 1137.84 883.47 1135.16   A 3.18 3.16 50.4 0 1 886.46 1135.45   Q 897.76 1143.05 903.31 1155.72   C 906.73 1163.54 907.62 1175.50 903.47 1183.03   C 897.79 1193.32 884.69 1195.31 874.80 1189.46   C 872.32 1187.99 869.00 1183.39 864.84 1182.75   Q 858.32 1181.76 854.05 1186.71   A 2.52 2.32 81.3 0 0 853.74 1187.17   Z"/>
<path xmlns="http://www.w3.org/2000/svg" fill="#7173ee" d="M 637.40 1182.62   C 634.41 1182.46 631.11 1182.42 628.65 1184.65   C 622.01 1190.67 617.99 1193.37 608.61 1192.63   Q 604.64 1192.31 599.93 1189.09   Q 592.92 1184.29 592.23 1176.30   Q 590.30 1153.93 606.88 1139.82   A 2.60 2.57 -54.6 0 1 609.47 1139.37   Q 615.46 1141.61 616.55 1142.04   C 620.90 1143.73 625.41 1144.43 629.75 1146.05   C 635.60 1148.22 642.56 1150.13 648.99 1151.97   Q 665.57 1156.70 681.29 1158.15   A 1.47 1.46 -2.6 0 1 682.60 1159.34   C 684.42 1169.22 685.22 1180.86 678.38 1188.76   C 676.02 1191.48 672.92 1194.99 669.71 1196.48   C 665.27 1198.54 658.86 1198.48 654.44 1197.04   Q 648.23 1195.03 645.19 1189.51   Q 642.35 1184.35 638.22 1182.79   A 2.77 2.63 55.2 0 0 637.40 1182.62   Z"/>
</g></g></g></g></svg>