<svg xmlns="http://www.w3.org/2000/svg" direction="ltr" width="2048" height="2048" viewBox="31906.262924260394 26121.591492410906 2048 2048" stroke-linecap="round" stroke-linejoin="round" data-color-mode="light" class="tl-container tl-theme__force-sRGB tl-theme__light" style="background-color: transparent;"><defs/><g transform="matrix(1, 0, 0, 1, 31906.2629, 26121.5915)" opacity="1"><g data-lovart-layer-name="SVG 18"><g transform="scale(1.4143646408839778, 1.4143646408839778)"><g>
<g xmlns="http://www.w3.org/2000/svg" stroke-width="2.00" fill="none" stroke-linecap="butt">
<path stroke="#cacdfc" d="M 473.05 206.60   C 483.25 206.88 489.49 195.19 485.88 186.44   Q 482.08 177.24 472.01 177.16   C 425.27 176.80 378.11 187.53 337.34 209.55   C 304.80 227.13 276.20 250.72 253.48 280.22   Q 210.98 335.42 200.47 404.23   Q 197.58 423.14 196.85 446.77   Q 196.68 452.55 198.05 455.60   C 203.08 466.73 218.64 467.23 224.33 456.10   Q 225.97 452.89 226.01 444.71   Q 226.05 437.38 227.24 424.98   Q 233.68 357.46 271.40 305.22   C 318.03 240.67 392.92 204.43 473.05 206.60"/>
<path stroke="#cacdfc" d="M 478.53 287.01   C 489.22 282.13 489.73 267.61 480.74 260.87   Q 477.51 258.45 471.77 258.49   Q 456.67 258.61 445.77 259.80   Q 399.55 264.88 361.21 290.51   Q 310.40 324.49 289.30 382.17   Q 277.77 413.72 277.25 448.02   Q 277.12 456.46 281.95 460.29   C 289.52 466.32 300.09 465.82 304.68 456.59   Q 306.27 453.41 306.40 447.68   C 307.46 400.52 326.75 356.69 362.77 325.75   C 388.89 303.30 421.75 290.70 456.24 288.14   Q 458.28 287.99 470.98 287.96   Q 476.47 287.95 478.53 287.01"/>
<path stroke="#9f9ec0" d="M 340.90 994.72   Q 323.36 993.22 306.16 998.41   Q 292.37 1002.57 282.68 1013.82   C 268.25 1030.57 267.83 1051.96 282.27 1068.99   Q 293.94 1082.77 309.35 1092.39   Q 334.44 1108.04 361.04 1117.69   Q 385.03 1126.39 402.50 1131.24   C 422.09 1136.69 444.22 1140.92 463.39 1144.41   Q 474.59 1146.46 489.18 1148.18   Q 545.21 1154.82 604.42 1153.34   Q 606.93 1153.28 607.93 1153.81   Q 617.06 1158.69 632.27 1166.42   A 0.67 0.67 0.0 0 1 632.37 1167.55   C 614.00 1181.33 606.51 1206.28 615.59 1227.47   C 619.23 1235.94 623.93 1242.89 631.75 1248.46   Q 657.43 1266.77 685.45 1253.63   A 1.03 1.01 -40.4 0 1 686.44 1253.70   Q 689.28 1255.59 690.67 1256.43   Q 711.63 1269.07 734.26 1261.11   Q 753.97 1254.18 762.88 1235.93   Q 767.97 1225.49 768.06 1215.49   Q 768.09 1212.36 767.25 1204.70   A 0.55 0.54 0.0 0 1 767.86 1204.10   Q 809.00 1208.72 850.56 1204.41   A 0.48 0.48 0.0 0 1 851.09 1204.91   Q 851.02 1206.29 850.66 1210.40   Q 849.52 1223.32 855.18 1235.58   C 862.29 1250.98 875.06 1260.07 891.21 1263.49   C 906.23 1266.67 920.09 1261.43 932.55 1253.49   A 0.85 0.82 -48.4 0 1 933.35 1253.43   Q 953.80 1262.68 973.39 1255.40   Q 993.35 1248.00 1002.21 1228.98   C 1010.82 1210.51 1006.76 1190.78 995.22 1174.69   Q 991.17 1169.05 984.98 1165.05   A 0.90 0.90 0.0 0 1 985.07 1163.48   Q 1005.38 1153.63 1022.72 1141.99   Q 1061.93 1115.67 1097.00 1079.27   Q 1099.74 1076.42 1102.92 1074.69   Q 1130.07 1059.87 1139.69 1054.17   C 1145.37 1050.81 1157.19 1045.31 1164.23 1040.55   Q 1189.44 1023.53 1206.77 1004.01   Q 1219.78 989.37 1227.83 978.06   C 1252.97 942.74 1270.22 899.88 1274.09 857.11   C 1276.98 825.23 1273.69 794.47 1262.80 764.21   Q 1254.82 742.02 1243.01 722.24   Q 1237.39 712.82 1231.03 704.96   Q 1225.43 698.03 1221.73 692.97   A 5.46 5.45 24.6 0 1 1220.68 690.15   Q 1216.57 636.65 1202.58 584.90   Q 1188.73 533.68 1161.77 481.90   Q 1154.01 467.00 1144.67 452.61   Q 1132.72 434.20 1125.49 424.51   C 1094.15 382.51 1054.74 346.71 1010.19 318.33   C 950.76 280.46 883.20 261.09 812.52 260.43   Q 782.99 260.16 751.76 264.56   C 699.77 271.90 650.98 289.95 605.97 317.43   Q 544.50 354.96 498.27 411.17   Q 488.07 423.59 481.69 432.29   Q 474.37 442.28 466.89 454.66   Q 466.30 455.63 466.01 455.89   A 0.47 0.47 0.0 0 1 465.24 455.46   Q 466.94 445.65 466.67 436.22   C 466.35 425.07 465.30 417.08 460.62 407.21   C 449.75 384.23 422.81 382.31 404.87 397.42   C 396.12 404.79 388.87 414.31 382.70 423.52   C 372.23 439.13 360.46 454.99 350.77 467.67   C 341.38 479.97 327.57 495.55 318.94 505.45   C 302.92 523.84 278.48 545.92 263.00 561.16   C 257.42 566.65 249.31 575.71 242.62 582.13   C 237.36 587.18 229.16 594.00 223.66 600.52   Q 185.83 645.35 176.21 700.67   Q 162.44 779.86 201.45 847.89   C 218.11 876.95 243.02 903.42 270.40 923.30   Q 290.67 938.01 291.49 938.74   Q 300.67 946.83 301.89 948.35   Q 305.61 952.99 312.80 962.68   Q 315.61 966.48 331.50 984.50   Q 335.65 989.20 341.15 994.13   A 0.34 0.34 0.0 0 1 340.90 994.72"/>
<path stroke="#6a6bbd" d="M 344.78 604.55   Q 356.56 591.66 370.00 579.93   C 374.85 575.70 377.72 570.46 380.39 566.34   Q 381.74 564.28 386.41 558.91   Q 395.92 547.97 400.03 541.52   Q 409.32 526.99 420.33 502.04   Q 421.29 499.88 424.38 490.27   Q 425.79 485.89 428.77 478.64   Q 434.18 465.49 436.08 455.38   Q 439.32 438.14 434.79 418.32   Q 434.01 414.89 430.24 416.21   C 421.06 419.44 415.52 425.63 409.61 434.71   C 397.97 452.59 384.29 472.13 370.76 488.74   Q 365.66 495.01 359.87 502.84   C 352.91 512.24 345.61 520.85 335.11 531.12   Q 331.41 534.74 321.46 545.46   Q 313.96 553.54 302.40 564.22   C 288.76 576.82 276.50 590.57 263.08 602.83   C 250.80 614.05 238.48 626.87 230.01 641.28   C 224.36 650.90 221.08 656.11 217.56 664.53"/>
<path stroke="#5c5ba8" d="M 217.56 664.53   Q 213.31 672.84 210.99 680.25   C 204.97 699.48 201.23 720.99 201.35 741.24   Q 201.46 762.15 207.10 785.37   C 211.72 804.44 220.78 823.05 230.67 839.38   Q 242.54 859.00 257.89 874.63   Q 266.35 883.26 278.50 893.74   Q 283.85 898.35 305.88 914.24   Q 313.99 920.09 321.72 924.12   Q 337.69 932.44 352.86 939.08   Q 367.50 945.48 385.39 950.59   Q 408.41 957.16 421.97 959.81   Q 443.34 963.97 475.06 966.91   C 482.40 967.60 486.06 967.55 489.95 973.10   Q 494.19 979.17 490.39 985.70   Q 487.86 990.07 482.83 991.66   A 0.72 0.72 0.0 0 0 482.43 992.72   C 493.32 1011.07 504.77 1025.55 519.65 1044.00   Q 528.44 1054.89 537.05 1063.35   Q 550.30 1076.39 563.73 1087.73   Q 570.60 1093.53 582.48 1100.83   A 0.29 0.24 -4.7 0 1 582.55 1100.88   L 586.83 1104.35"/>
<path stroke="#99758b" d="M 586.83 1104.35   Q 615.55 1125.07 646.51 1139.99   C 688.28 1160.12 733.30 1171.84 779.50 1176.20   C 816.96 1179.74 855.46 1176.32 892.02 1167.61   C 903.95 1164.77 913.47 1162.47 923.54 1158.80   Q 942.99 1151.72 962.08 1143.03   Q 977.73 1135.90 993.57 1125.49   Q 993.68 1125.42 994.82 1124.74   Q 1030.64 1103.54 1059.85 1074.83"/>
<path stroke="#5c5ba8" d="M 1059.85 1074.83   Q 1075.05 1060.72 1087.26 1045.21   Q 1094.16 1036.46 1097.12 1033.12   C 1104.43 1024.86 1110.74 1016.54 1114.89 1009.38   Q 1123.56 994.43 1132.52 981.20   C 1134.98 977.56 1136.54 974.05 1138.41 970.72   Q 1140.38 967.20 1142.39 962.64   Q 1149.79 945.85 1154.05 936.79   C 1157.05 930.41 1159.59 923.16 1161.53 917.87   Q 1169.96 894.85 1177.51 864.04   Q 1181.69 846.99 1186.51 815.26   Q 1193.30 770.57 1192.89 731.82   Q 1192.58 703.21 1189.17 668.27   C 1188.30 659.36 1186.28 649.46 1184.71 639.54   Q 1178.61 600.93 1164.08 559.49   C 1159.36 546.03 1152.26 531.23 1147.39 519.12   C 1145.51 514.44 1141.27 505.95 1137.89 499.83   C 1129.33 484.38 1121.76 468.69 1111.69 454.81   Q 1108.96 451.05 1087.33 422.43   Q 1086.32 421.10 1083.66 418.43   Q 1066.49 401.18 1066.38 401.06   C 1057.50 391.78 1052.24 385.92 1044.67 379.95   Q 1023.90 363.59 1015.84 357.42   C 1002.74 347.40 989.39 339.74 973.80 330.88   Q 953.34 319.25 925.98 309.41   C 855.46 284.04 777.39 283.31 705.85 304.06   Q 676.95 312.44 650.85 326.42   C 645.21 329.44 641.03 331.11 635.69 333.70   Q 628.36 337.25 618.80 343.82   Q 607.72 351.44 601.42 355.57   C 590.86 362.49 580.69 370.19 573.56 376.57   Q 562.57 386.40 554.61 392.86   Q 547.91 398.30 541.76 405.58   Q 537.80 410.26 531.76 416.96   C 526.01 423.35 518.23 431.50 512.72 439.23   C 498.33 459.44 486.35 478.61 475.78 496.54   Q 475.10 497.70 473.80 500.56   A 1.03 1.00 -49.0 0 0 473.85 501.48   Q 477.80 508.19 479.98 516.50   C 484.90 535.21 485.52 553.20 480.53 572.04   Q 476.61 586.87 469.67 600.48   A 3.45 3.44 -46.8 0 0 469.77 603.78   C 472.08 607.69 474.93 611.62 476.90 615.83   Q 487.40 638.29 482.38 662.44   Q 476.66 689.98 463.65 713.41   Q 458.18 723.25 450.47 734.98   C 448.09 738.59 445.42 742.66 448.83 745.94   C 451.37 748.39 455.35 751.45 458.80 753.55   Q 468.91 759.73 475.97 764.56   C 482.71 769.18 488.10 771.98 495.68 776.36   C 502.73 780.44 506.62 784.02 507.05 792.31   C 507.49 800.86 501.03 805.43 493.08 803.61   Q 486.08 802.01 479.39 798.10   C 472.57 794.12 461.47 787.30 451.35 781.65   Q 444.46 777.80 440.36 773.62   Q 434.80 767.94 432.18 765.56   C 426.51 760.41 421.91 767.14 418.18 769.62   C 408.82 775.84 400.09 789.80 385.49 785.50   C 376.95 782.99 376.12 772.75 381.38 766.80   Q 384.16 763.64 386.60 761.59   Q 394.85 754.63 402.96 746.75   C 406.10 743.70 409.13 739.72 412.82 736.47   C 415.99 733.68 419.95 729.70 423.19 726.19   Q 424.73 724.53 425.58 722.83   Q 428.93 716.15 432.60 709.87   Q 435.88 704.25 444.75 687.03   Q 451.41 674.09 454.48 657.33   Q 456.48 646.44 455.22 635.36   A 0.83 0.82 64.3 0 0 453.82 634.87   Q 448.65 639.95 446.59 641.78   C 441.31 646.46 439.48 649.11 435.42 654.18   C 431.40 659.21 427.60 663.17 422.93 668.67   Q 416.63 676.10 404.74 682.95   Q 400.34 685.49 395.30 686.77   C 388.58 688.49 380.56 683.48 381.65 676.16   Q 382.39 671.17 384.93 668.38   Q 396.68 655.48 406.98 643.99   Q 411.53 638.91 412.78 636.77   Q 415.27 632.49 418.65 628.01   C 424.49 620.24 427.65 614.29 434.33 603.28   C 438.47 596.45 442.45 587.70 445.73 582.19   Q 456.09 564.81 456.37 544.24   C 456.49 534.90 454.49 521.52 446.71 514.97   A 0.88 0.87 -57.7 0 0 445.35 515.28   C 441.33 524.04 439.18 529.76 434.77 536.41   Q 429.30 544.68 427.28 547.31   Q 419.07 557.97 413.24 567.00   Q 411.02 570.44 409.15 572.43   C 404.29 577.60 400.03 582.55 394.94 586.85   C 390.58 590.53 387.77 592.83 383.71 596.46   Q 373.97 605.18 366.00 611.25   Q 360.64 615.33 354.26 618.77   Q 349.00 621.60 345.74 616.72   Q 342.25 611.50 344.78 604.55"/>
<path stroke="#b794b2" d="M 1059.85 1074.83   Q 1056.23 1052.74 1051.72 1034.76   Q 1041.59 994.31 1018.18 960.36   C 1006.09 942.82 991.78 928.89 976.09 916.17   Q 959.51 902.73 940.13 893.38   C 886.73 867.61 824.91 864.42 769.01 884.02   C 724.11 899.77 684.36 927.35 654.28 964.53   Q 635.63 987.59 621.92 1013.88   Q 609.55 1037.61 601.25 1058.21   Q 595.53 1072.41 590.51 1091.33   C 589.69 1094.45 587.69 1099.74 586.83 1104.35"/>
<path stroke="#878ae4" d="M 217.56 664.53   Q 224.58 672.33 235.52 671.28   Q 244.47 670.42 252.56 667.82   Q 282.27 658.25 305.70 637.63   Q 313.23 631.01 316.84 627.92   Q 330.26 616.41 337.13 609.88   Q 341.08 606.12 344.78 604.55"/>
<path stroke="#5c5ba8" d="M 458.26 536.25   L 456.86 555.28   A 0.01 0.01 0.0 0 0 456.87 555.29   L 456.95 555.29   A 9.40 1.47 -85.8 0 0 459.11 546.03   L 459.13 545.73   A 9.40 1.47 -85.8 0 0 458.35 536.25   L 458.27 536.24   A 0.01 0.01 0.0 0 0 458.26 536.25"/>
<path stroke="#5c5ba8" d="M 1145.72 1016.99   A 0.33 0.33 0.0 0 0 1146.20 1017.42   Q 1151.71 1013.20 1159.31 1008.80   C 1165.18 1005.40 1170.50 1000.56 1175.61 995.04   Q 1187.97 981.67 1191.84 977.89   C 1196.72 973.11 1201.37 967.15 1204.54 962.57   Q 1209.12 955.96 1217.68 940.72   Q 1224.77 928.09 1231.50 911.72   Q 1237.59 896.91 1240.90 882.17   C 1246.56 856.91 1248.81 830.57 1243.62 804.69   Q 1240.47 789.04 1239.76 786.49   Q 1235.94 772.91 1224.91 746.37   Q 1224.34 744.99 1223.11 743.45   A 1.13 1.13 0.0 0 0 1221.10 744.07   Q 1220.83 747.77 1220.75 754.00   C 1220.58 767.30 1220.23 779.44 1218.50 793.66   Q 1216.57 809.48 1216.25 812.00   Q 1211.37 850.61 1200.45 892.26   C 1194.65 914.40 1188.23 930.40 1178.62 954.45   C 1176.13 960.69 1172.88 966.44 1170.50 972.32   C 1167.78 978.99 1162.22 986.97 1159.16 993.26   A 2.83 0.13 -53.1 0 1 1158.02 994.94   Q 1156.78 996.62 1155.32 999.63   Q 1151.15 1008.27 1145.72 1016.99"/>
<path stroke="#946784" d="M 480.74 1043.31   Q 479.90 1041.35 479.09 1040.17   Q 468.74 1025.08 460.05 1012.23   Q 453.86 1003.08 449.06 994.20   A 2.63 2.62 -11.0 0 0 447.07 992.86   Q 422.51 989.98 399.26 983.93   Q 380.31 978.99 380.15 978.95   Q 370.56 976.30 361.45 972.69   A 0.38 0.38 0.0 0 0 361.07 973.33   C 363.86 975.72 368.79 980.34 377.61 988.39   Q 390.22 999.89 404.80 1007.69   C 414.52 1012.90 423.09 1017.74 432.77 1022.44   Q 437.99 1024.97 442.85 1027.35   Q 463.68 1037.54 480.23 1043.84   A 0.40 0.40 0.0 0 0 480.74 1043.31"/>
<path stroke="#946784" d="M 564.07 1124.54   C 562.12 1122.78 559.57 1121.41 557.65 1119.73   Q 551.92 1114.74 541.13 1106.09   C 531.85 1098.66 524.29 1091.45 516.89 1083.73   C 514.47 1081.22 509.44 1075.84 504.57 1074.43   Q 495.90 1071.93 483.18 1068.40   C 468.36 1064.28 456.50 1059.75 443.67 1055.62   Q 426.47 1050.09 412.88 1044.61   C 393.24 1036.70 376.63 1030.09 357.69 1025.08   C 342.61 1021.09 324.04 1019.97 309.93 1026.78   C 304.72 1029.29 299.56 1034.54 299.65 1040.52   C 299.77 1048.99 308.30 1057.30 315.11 1062.16   Q 335.88 1076.98 358.15 1086.04   Q 378.08 1094.15 397.52 1099.91   Q 479.04 1124.10 563.97 1124.80   A 0.15 0.15 0.0 0 0 564.07 1124.54"/>
<path stroke="#8f6978" d="M 881.86 1200.59   C 877.79 1208.82 877.26 1219.47 883.30 1226.96   Q 892.41 1238.24 906.30 1235.38   C 909.94 1234.63 914.12 1232.50 916.33 1230.06   C 919.86 1226.16 924.41 1220.46 929.69 1220.43   Q 933.02 1220.41 934.71 1221.53   C 943.06 1227.09 948.47 1231.14 959.23 1230.32   C 964.99 1229.88 970.64 1225.33 974.26 1221.24   Q 977.80 1217.24 978.62 1211.50   C 980.28 1199.90 974.74 1191.05 964.73 1185.78   Q 959.43 1182.99 954.58 1180.04   A 2.33 2.30 -38.6 0 0 952.61 1179.83   Q 946.30 1182.02 926.62 1188.62   Q 906.04 1195.52 884.11 1198.95   A 3.04 3.03 8.8 0 0 881.86 1200.59"/>
<path stroke="#8f6978" d="M 736.87 1200.13   A 1.98 1.96 -9.3 0 0 735.42 1199.10   Q 712.43 1195.57 690.23 1188.23   Q 681.94 1185.49 669.58 1181.47   A 3.98 3.96 -46.4 0 0 666.94 1181.54   C 655.49 1185.89 644.30 1189.03 640.77 1201.93   Q 637.14 1215.17 647.66 1224.93   Q 653.07 1229.94 659.99 1230.66   Q 666.99 1231.38 672.90 1228.89   A 6.13 5.84 14.8 0 0 674.08 1228.24   Q 678.19 1225.37 681.53 1223.21   C 691.07 1217.04 696.80 1225.04 703.02 1230.50   C 711.93 1238.33 724.45 1237.09 733.07 1229.08   Q 742.01 1220.77 739.76 1209.04   Q 738.73 1203.66 736.87 1200.13"/>
<path stroke="#878ae4" d="M 660.28 340.53   C 656.49 344.20 653.96 345.85 652.57 349.37   C 650.96 353.43 652.31 357.60 654.84 360.91   C 661.90 370.15 672.85 373.17 684.01 375.46   Q 699.62 378.66 714.72 375.03   C 732.83 370.68 739.43 353.72 727.35 339.20   C 715.78 325.29 693.21 326.39 677.54 331.11   C 672.04 332.77 664.99 335.97 660.28 340.53"/>
<path stroke="#5c5ba8" d="M 586.31 430.45   C 592.08 435.81 598.52 432.71 604.31 429.14   Q 609.69 425.83 611.05 425.29   C 614.33 423.99 618.14 421.36 622.12 419.80   C 634.69 414.88 647.60 413.98 661.35 414.73   C 669.31 415.17 676.06 413.60 676.04 404.41   C 676.03 398.30 670.38 394.79 665.10 393.13   Q 648.36 387.87 630.40 392.11   Q 614.53 395.85 601.48 402.76   Q 596.32 405.49 589.97 411.47   Q 585.00 416.16 584.36 420.64   C 583.82 424.46 583.45 427.78 586.31 430.45"/>
<path stroke="#5c5ba8" d="M 1037.23 433.40   C 1043.09 435.67 1055.44 438.98 1057.64 429.94   C 1059.61 421.86 1054.61 416.10 1048.26 411.76   C 1032.34 400.86 1013.42 392.33 993.76 392.39   Q 983.94 392.41 980.27 392.93   C 972.80 393.99 965.39 399.58 968.08 407.82   C 969.72 412.85 975.44 415.89 980.83 415.66   C 992.80 415.15 1004.52 416.42 1015.82 420.93   Q 1021.49 423.19 1030.45 429.35   Q 1035.20 432.62 1037.23 433.40"/>
<path stroke="#5c5ba8" d="M 760.09 714.16   Q 760.17 719.85 759.65 725.25   Q 759.29 728.88 761.60 739.47   Q 763.32 747.33 765.86 755.53   C 769.92 768.57 776.46 777.33 784.82 787.46   Q 791.58 795.65 796.94 799.61   Q 808.55 808.18 821.79 812.46   Q 840.75 818.58 859.11 810.04   Q 871.86 804.12 880.41 794.09   Q 894.47 777.60 901.46 756.17   Q 903.09 751.16 908.46 749.49   Q 912.75 748.15 924.71 743.72"/>
<path stroke="#b794b2" d="M 924.71 743.72   Q 930.83 746.73 936.83 749.54   Q 943.75 752.78 949.29 754.56   C 990.51 767.74 1036.77 765.06 1074.30 741.94   Q 1092.21 730.91 1104.47 718.97   Q 1129.94 694.15 1142.53 659.18   C 1150.91 635.89 1153.13 611.58 1150.69 587.23   C 1147.66 557.02 1135.16 528.56 1115.88 504.14   C 1092.01 473.90 1057.27 455.19 1019.31 449.37   Q 990.92 445.02 962.17 452.41   Q 919.23 463.44 888.19 494.71   Q 860.26 522.84 848.58 560.77   C 841.10 585.05 840.33 611.67 844.32 636.93"/>
<path stroke="#5c5ba8" d="M 844.32 636.93   Q 838.34 636.96 832.39 636.89   Q 827.51 636.83 824.06 637.29   Q 818.55 638.01 815.93 639.12   Q 808.14 642.41 799.50 645.71"/>
<path stroke="#b794b2" d="M 799.50 645.71   Q 808.33 606.47 799.04 568.60   C 794.55 550.30 786.32 533.10 776.12 517.63   C 755.80 486.82 725.75 464.57 690.20 454.01   Q 664.77 446.46 640.26 448.04   Q 603.83 450.38 572.07 468.13   C 546.47 482.44 525.98 504.40 511.34 530.22   C 499.87 550.45 495.12 574.66 493.93 597.62   C 492.09 632.88 501.74 667.95 522.57 696.88   Q 552.17 737.98 597.76 754.18   C 613.47 759.77 630.78 762.90 647.27 762.62   C 677.59 762.10 706.67 754.04 732.54 737.02   Q 744.61 729.09 760.09 714.16"/>
<path stroke="#99758b" d="M 799.50 645.71   Q 797.90 646.78 795.79 647.90   C 789.30 651.33 783.42 657.11 779.14 662.89   Q 772.39 671.98 770.47 675.22   Q 764.09 685.97 762.28 698.99   Q 761.20 706.76 760.09 714.16"/>
<path stroke="#9d8b9e" d="M 944.23 722.01   Q 942.42 703.55 933.02 689.49   Q 923.91 675.86 908.85 663.40   Q 892.11 649.56 869.17 641.73"/>
<path stroke="#99758b" d="M 924.71 743.72   Q 930.59 741.06 935.58 738.40   Q 941.19 735.42 942.67 733.17   C 945.01 729.59 944.38 725.89 944.23 722.01"/>
<path stroke="#f8c3a8" d="M 944.23 722.01   Q 967.89 729.44 992.50 728.80   C 1006.80 728.43 1020.88 724.45 1034.35 718.83   Q 1046.17 713.90 1057.08 706.05   Q 1085.42 685.65 1100.02 656.81   Q 1123.88 609.67 1106.48 557.27   Q 1102.02 543.85 1091.58 528.69   Q 1081.06 513.43 1069.46 504.23   C 1040.06 480.91 1002.79 473.02 966.41 482.16   Q 945.90 487.32 930.89 496.67   Q 879.91 528.45 868.08 588.34   C 865.70 600.38 865.27 612.89 866.82 624.75   Q 867.92 633.15 868.15 636.00   A 8.23 8.07 35.7 0 0 868.40 637.44   Q 868.95 639.52 869.17 641.73"/>
<path stroke="#99758b" d="M 869.17 641.73   Q 856.76 638.10 844.32 636.93"/>
<path stroke="#878ae4" d="M 398.69 695.53   Q 394.37 695.87 391.57 695.99   A 9.31 9.27 -57.1 0 0 388.52 696.65   Q 377.63 701.07 363.23 707.01   C 344.55 714.70 326.87 724.58 319.49 744.73   C 316.33 753.36 315.47 760.78 321.11 768.18   C 330.83 780.91 353.20 772.58 364.28 766.24   Q 371.83 761.91 372.47 761.61   Q 376.48 759.66 380.61 756.85   Q 394.42 747.44 404.62 733.66   C 407.51 729.76 409.19 725.33 411.68 720.84   A 6.10 5.74 68.5 0 0 412.23 719.46   Q 413.56 714.33 413.16 707.89   C 412.87 703.24 410.43 700.14 407.09 697.45   C 404.74 695.56 401.61 695.30 398.69 695.53"/>
<path stroke="#f8c3a8" d="M 745.90 694.14   C 752.51 686.80 758.49 679.35 763.43 670.81   C 766.31 665.84 767.75 662.17 770.04 657.29   Q 771.13 654.95 771.90 652.30   Q 772.39 650.60 773.76 647.32   C 775.43 643.32 775.81 638.04 776.89 633.99   Q 778.11 629.43 778.32 627.24   Q 783.14 575.48 753.80 532.95   Q 743.76 518.40 729.56 507.20   C 700.99 484.66 667.44 474.56 631.19 479.92   Q 614.32 482.41 597.77 490.59   Q 564.17 507.18 546.04 540.59   C 529.62 570.84 527.46 608.36 538.41 640.56   C 550.36 675.68 575.75 703.39 609.72 718.24   Q 645.58 733.92 684.08 726.56   Q 701.49 723.24 715.02 716.21   Q 723.30 711.90 739.30 699.99   Q 743.31 697.00 745.90 694.14"/>
<path stroke="#9d8b9e" d="M 683.8546 538.3583   A 73.14 68.20 -85.0 0 0 609.5395 605.2760   A 73.14 68.20 -85.0 0 0 671.1054 684.0817   A 73.14 68.20 -85.0 0 0 745.4205 617.1640   A 73.14 68.20 -85.0 0 0 683.8546 538.3583"/>
<path stroke="#9d8b9e" d="M 1015.52 547.50   C 991.25 530.93 956.02 534.26 935.23 555.04   C 920.85 569.41 911.64 588.98 911.39 609.41   C 911.09 634.20 920.75 655.58 940.57 670.66   Q 951.01 678.60 963.99 681.43   C 1009.86 691.42 1047.23 654.58 1047.08 609.99   C 1047.03 597.53 1045.16 584.86 1039.66 574.48   C 1034.14 564.06 1025.53 554.34 1015.52 547.50"/>
<path stroke="#9d8b9e" d="M 1028.08 576.83   A 20.17 20.17 0.0 0 0 1007.91 556.66   A 20.17 20.17 0.0 0 0 987.74 576.83   A 20.17 20.17 0.0 0 0 1007.91 597.00   A 20.17 20.17 0.0 0 0 1028.08 576.83"/>
<path stroke="#9d8b9e" d="M 726.53 578.66   A 20.26 20.26 0.0 0 0 706.27 558.40   A 20.26 20.26 0.0 0 0 686.01 578.66   A 20.26 20.26 0.0 0 0 706.27 598.92   A 20.26 20.26 0.0 0 0 726.53 578.66"/>
<path stroke="#8f6978" d="M 872.03 759.40   A 0.61 0.61 0.0 0 0 871.35 758.59   C 858.66 761.02 846.72 762.23 833.36 761.15   Q 817.94 759.90 805.14 751.48   C 798.35 747.01 794.69 741.46 793.88 733.88   C 793.07 726.33 798.99 719.74 806.90 723.57   Q 814.89 727.45 818.00 729.07   C 827.83 734.21 838.41 735.73 849.01 735.08   Q 873.16 733.60 896.22 725.72   Q 911.65 720.45 917.30 718.51   A 1.04 1.03 -19.1 0 0 917.94 717.20   C 915.50 709.99 912.19 703.05 907.52 697.36   Q 901.64 690.20 893.89 684.38   Q 879.45 673.54 864.67 667.33   Q 853.89 662.80 839.02 662.56   Q 813.62 662.15 798.40 679.63   Q 792.67 686.21 789.86 693.84   Q 783.34 711.49 785.60 730.77   C 786.62 739.55 791.09 749.72 794.91 757.64   C 800.47 769.17 811.03 779.02 822.57 785.58   C 833.93 792.04 847.33 789.86 857.04 781.29   Q 863.02 776.01 865.17 772.89   Q 869.07 767.26 872.03 759.40"/>
</g>
<path xmlns="http://www.w3.org/2000/svg" fill="#ffffff" d="M 1448.00 0.00   L 1448.00 1448.00   L 0.00 1448.00   L 0.00 0.00   L 1448.00 0.00   Z   M 473.05 206.60   C 483.25 206.88 489.49 195.19 485.88 186.44   Q 482.08 177.24 472.01 177.16   C 425.27 176.80 378.11 187.53 337.34 209.55   C 304.80 227.13 276.20 250.72 253.48 280.22   Q 210.98 335.42 200.47 404.23   Q 197.58 423.14 196.85 446.77   Q 196.68 452.55 198.05 455.60   C 203.08 466.73 218.64 467.23 224.33 456.10   Q 225.97 452.89 226.01 444.71   Q 226.05 437.38 227.24 424.98   Q 233.68 357.46 271.40 305.22   C 318.03 240.67 392.92 204.43 473.05 206.60   Z   M 478.53 287.01   C 489.22 282.13 489.73 267.61 480.74 260.87   Q 477.51 258.45 471.77 258.49   Q 456.67 258.61 445.77 259.80   Q 399.55 264.88 361.21 290.51   Q 310.40 324.49 289.30 382.17   Q 277.77 413.72 277.25 448.02   Q 277.12 456.46 281.95 460.29   C 289.52 466.32 300.09 465.82 304.68 456.59   Q 306.27 453.41 306.40 447.68   C 307.46 400.52 326.75 356.69 362.77 325.75   C 388.89 303.30 421.75 290.70 456.24 288.14   Q 458.28 287.99 470.98 287.96   Q 476.47 287.95 478.53 287.01   Z   M 340.90 994.72   Q 323.36 993.22 306.16 998.41   Q 292.37 1002.57 282.68 1013.82   C 268.25 1030.57 267.83 1051.96 282.27 1068.99   Q 293.94 1082.77 309.35 1092.39   Q 334.44 1108.04 361.04 1117.69   Q 385.03 1126.39 402.50 1131.24   C 422.09 1136.69 444.22 1140.92 463.39 1144.41   Q 474.59 1146.46 489.18 1148.18   Q 545.21 1154.82 604.42 1153.34   Q 606.93 1153.28 607.93 1153.81   Q 617.06 1158.69 632.27 1166.42   A 0.67 0.67 0.0 0 1 632.37 1167.55   C 614.00 1181.33 606.51 1206.28 615.59 1227.47   C 619.23 1235.94 623.93 1242.89 631.75 1248.46   Q 657.43 1266.77 685.45 1253.63   A 1.03 1.01 -40.4 0 1 686.44 1253.70   Q 689.28 1255.59 690.67 1256.43   Q 711.63 1269.07 734.26 1261.11   Q 753.97 1254.18 762.88 1235.93   Q 767.97 1225.49 768.06 1215.49   Q 768.09 1212.36 767.25 1204.70   A 0.55 0.54 0.0 0 1 767.86 1204.10   Q 809.00 1208.72 850.56 1204.41   A 0.48 0.48 0.0 0 1 851.09 1204.91   Q 851.02 1206.29 850.66 1210.40   Q 849.52 1223.32 855.18 1235.58   C 862.29 1250.98 875.06 1260.07 891.21 1263.49   C 906.23 1266.67 920.09 1261.43 932.55 1253.49   A 0.85 0.82 -48.4 0 1 933.35 1253.43   Q 953.80 1262.68 973.39 1255.40   Q 993.35 1248.00 1002.21 1228.98   C 1010.82 1210.51 1006.76 1190.78 995.22 1174.69   Q 991.17 1169.05 984.98 1165.05   A 0.90 0.90 0.0 0 1 985.07 1163.48   Q 1005.38 1153.63 1022.72 1141.99   Q 1061.93 1115.67 1097.00 1079.27   Q 1099.74 1076.42 1102.92 1074.69   Q 1130.07 1059.87 1139.69 1054.17   C 1145.37 1050.81 1157.19 1045.31 1164.23 1040.55   Q 1189.44 1023.53 1206.77 1004.01   Q 1219.78 989.37 1227.83 978.06   C 1252.97 942.74 1270.22 899.88 1274.09 857.11   C 1276.98 825.23 1273.69 794.47 1262.80 764.21   Q 1254.82 742.02 1243.01 722.24   Q 1237.39 712.82 1231.03 704.96   Q 1225.43 698.03 1221.73 692.97   A 5.46 5.45 24.6 0 1 1220.68 690.15   Q 1216.57 636.65 1202.58 584.90   Q 1188.73 533.68 1161.77 481.90   Q 1154.01 467.00 1144.67 452.61   Q 1132.72 434.20 1125.49 424.51   C 1094.15 382.51 1054.74 346.71 1010.19 318.33   C 950.76 280.46 883.20 261.09 812.52 260.43   Q 782.99 260.16 751.76 264.56   C 699.77 271.90 650.98 289.95 605.97 317.43   Q 544.50 354.96 498.27 411.17   Q 488.07 423.59 481.69 432.29   Q 474.37 442.28 466.89 454.66   Q 466.30 455.63 466.01 455.89   A 0.47 0.47 0.0 0 1 465.24 455.46   Q 466.94 445.65 466.67 436.22   C 466.35 425.07 465.30 417.08 460.62 407.21   C 449.75 384.23 422.81 382.31 404.87 397.42   C 396.12 404.79 388.87 414.31 382.70 423.52   C 372.23 439.13 360.46 454.99 350.77 467.67   C 341.38 479.97 327.57 495.55 318.94 505.45   C 302.92 523.84 278.48 545.92 263.00 561.16   C 257.42 566.65 249.31 575.71 242.62 582.13   C 237.36 587.18 229.16 594.00 223.66 600.52   Q 185.83 645.35 176.21 700.67   Q 162.44 779.86 201.45 847.89   C 218.11 876.95 243.02 903.42 270.40 923.30   Q 290.67 938.01 291.49 938.74   Q 300.67 946.83 301.89 948.35   Q 305.61 952.99 312.80 962.68   Q 315.61 966.48 331.50 984.50   Q 335.65 989.20 341.15 994.13   A 0.34 0.34 0.0 0 1 340.90 994.72   Z"/>
<path xmlns="http://www.w3.org/2000/svg" fill="#959af8" d="M 485.88 186.44   C 489.49 195.19 483.25 206.88 473.05 206.60   C 392.92 204.43 318.03 240.67 271.40 305.22   Q 233.68 357.46 227.24 424.98   Q 226.05 437.38 226.01 444.71   Q 225.97 452.89 224.33 456.10   C 218.64 467.23 203.08 466.73 198.05 455.60   Q 196.68 452.55 196.85 446.77   Q 197.58 423.14 200.47 404.23   Q 210.98 335.42 253.48 280.22   C 276.20 250.72 304.80 227.13 337.34 209.55   C 378.11 187.53 425.27 176.80 472.01 177.16   Q 482.08 177.24 485.88 186.44   Z"/>
<path xmlns="http://www.w3.org/2000/svg" fill="#959af8" d="M 480.74 260.87   C 489.73 267.61 489.22 282.13 478.53 287.01   Q 476.47 287.95 470.98 287.96   Q 458.28 287.99 456.24 288.14   C 421.75 290.70 388.89 303.30 362.77 325.75   C 326.75 356.69 307.46 400.52 306.40 447.68   Q 306.27 453.41 304.68 456.59   C 300.09 465.82 289.52 466.32 281.95 460.29   Q 277.12 456.46 277.25 448.02   Q 277.77 413.72 289.30 382.17   Q 310.40 324.49 361.21 290.51   Q 399.55 264.88 445.77 259.80   Q 456.67 258.61 471.77 258.49   Q 477.51 258.45 480.74 260.87   Z"/>
<path xmlns="http://www.w3.org/2000/svg" fill="#3e3c81" d="M 340.90 994.72   A 0.34 0.34 0.0 0 0 341.15 994.13   Q 335.65 989.20 331.50 984.50   Q 315.61 966.48 312.80 962.68   Q 305.61 952.99 301.89 948.35   Q 300.67 946.83 291.49 938.74   Q 290.67 938.01 270.40 923.30   C 243.02 903.42 218.11 876.95 201.45 847.89   Q 162.44 779.86 176.21 700.67   Q 185.83 645.35 223.66 600.52   C 229.16 594.00 237.36 587.18 242.62 582.13   C 249.31 575.71 257.42 566.65 263.00 561.16   C 278.48 545.92 302.92 523.84 318.94 505.45   C 327.57 495.55 341.38 479.97 350.77 467.67   C 360.46 454.99 372.23 439.13 382.70 423.52   C 388.87 414.31 396.12 404.79 404.87 397.42   C 422.81 382.31 449.75 384.23 460.62 407.21   C 465.30 417.08 466.35 425.07 466.67 436.22   Q 466.94 445.65 465.24 455.46   A 0.47 0.47 0.0 0 0 466.01 455.89   Q 466.30 455.63 466.89 454.66   Q 474.37 442.28 481.69 432.29   Q 488.07 423.59 498.27 411.17   Q 544.50 354.96 605.97 317.43   C 650.98 289.95 699.77 271.90 751.76 264.56   Q 782.99 260.16 812.52 260.43   C 883.20 261.09 950.76 280.46 1010.19 318.33   C 1054.74 346.71 1094.15 382.51 1125.49 424.51   Q 1132.72 434.20 1144.67 452.61   Q 1154.01 467.00 1161.77 481.90   Q 1188.73 533.68 1202.58 584.90   Q 1216.57 636.65 1220.68 690.15   A 5.46 5.45 24.6 0 0 1221.73 692.97   Q 1225.43 698.03 1231.03 704.96   Q 1237.39 712.82 1243.01 722.24   Q 1254.82 742.02 1262.80 764.21   C 1273.69 794.47 1276.98 825.23 1274.09 857.11   C 1270.22 899.88 1252.97 942.74 1227.83 978.06   Q 1219.78 989.37 1206.77 1004.01   Q 1189.44 1023.53 1164.23 1040.55   C 1157.19 1045.31 1145.37 1050.81 1139.69 1054.17   Q 1130.07 1059.87 1102.92 1074.69   Q 1099.74 1076.42 1097.00 1079.27   Q 1061.93 1115.67 1022.72 1141.99   Q 1005.38 1153.63 985.07 1163.48   A 0.90 0.90 0.0 0 0 984.98 1165.05   Q 991.17 1169.05 995.22 1174.69   C 1006.76 1190.78 1010.82 1210.51 1002.21 1228.98   Q 993.35 1248.00 973.39 1255.40   Q 953.80 1262.68 933.35 1253.43   A 0.85 0.82 -48.4 0 0 932.55 1253.49   C 920.09 1261.43 906.23 1266.67 891.21 1263.49   C 875.06 1260.07 862.29 1250.98 855.18 1235.58   Q 849.52 1223.32 850.66 1210.40   Q 851.02 1206.29 851.09 1204.91   A 0.48 0.48 0.0 0 0 850.56 1204.41   Q 809.00 1208.72 767.86 1204.10   A 0.55 0.54 0.0 0 0 767.25 1204.70   Q 768.09 1212.36 768.06 1215.49   Q 767.97 1225.49 762.88 1235.93   Q 753.97 1254.18 734.26 1261.11   Q 711.63 1269.07 690.67 1256.43   Q 689.28 1255.59 686.44 1253.70   A 1.03 1.01 -40.4 0 0 685.45 1253.63   Q 657.43 1266.77 631.75 1248.46   C 623.93 1242.89 619.23 1235.94 615.59 1227.47   C 606.51 1206.28 614.00 1181.33 632.37 1167.55   A 0.67 0.67 0.0 0 0 632.27 1166.42   Q 617.06 1158.69 607.93 1153.81   Q 606.93 1153.28 604.42 1153.34   Q 545.21 1154.82 489.18 1148.18   Q 474.59 1146.46 463.39 1144.41   C 444.22 1140.92 422.09 1136.69 402.50 1131.24   Q 385.03 1126.39 361.04 1117.69   Q 334.44 1108.04 309.35 1092.39   Q 293.94 1082.77 282.27 1068.99   C 267.83 1051.96 268.25 1030.57 282.68 1013.82   Q 292.37 1002.57 306.16 998.41   Q 323.36 993.22 340.90 994.72   Z   M 344.78 604.55   Q 356.56 591.66 370.00 579.93   C 374.85 575.70 377.72 570.46 380.39 566.34   Q 381.74 564.28 386.41 558.91   Q 395.92 547.97 400.03 541.52   Q 409.32 526.99 420.33 502.04   Q 421.29 499.88 424.38 490.27   Q 425.79 485.89 428.77 478.64   Q 434.18 465.49 436.08 455.38   Q 439.32 438.14 434.79 418.32   Q 434.01 414.89 430.24 416.21   C 421.06 419.44 415.52 425.63 409.61 434.71   C 397.97 452.59 384.29 472.13 370.76 488.74   Q 365.66 495.01 359.87 502.84   C 352.91 512.24 345.61 520.85 335.11 531.12   Q 331.41 534.74 321.46 545.46   Q 313.96 553.54 302.40 564.22   C 288.76 576.82 276.50 590.57 263.08 602.83   C 250.80 614.05 238.48 626.87 230.01 641.28   C 224.36 650.90 221.08 656.11 217.56 664.53   Q 213.31 672.84 210.99 680.25   C 204.97 699.48 201.23 720.99 201.35 741.24   Q 201.46 762.15 207.10 785.37   C 211.72 804.44 220.78 823.05 230.67 839.38   Q 242.54 859.00 257.89 874.63   Q 266.35 883.26 278.50 893.74   Q 283.85 898.35 305.88 914.24   Q 313.99 920.09 321.72 924.12   Q 337.69 932.44 352.86 939.08   Q 367.50 945.48 385.39 950.59   Q 408.41 957.16 421.97 959.81   Q 443.34 963.97 475.06 966.91   C 482.40 967.60 486.06 967.55 489.95 973.10   Q 494.19 979.17 490.39 985.70   Q 487.86 990.07 482.83 991.66   A 0.72 0.72 0.0 0 0 482.43 992.72   C 493.32 1011.07 504.77 1025.55 519.65 1044.00   Q 528.44 1054.89 537.05 1063.35   Q 550.30 1076.39 563.73 1087.73   Q 570.60 1093.53 582.48 1100.83   A 0.29 0.24 -4.7 0 1 582.55 1100.88   L 586.83 1104.35   Q 615.55 1125.07 646.51 1139.99   C 688.28 1160.12 733.30 1171.84 779.50 1176.20   C 816.96 1179.74 855.46 1176.32 892.02 1167.61   C 903.95 1164.77 913.47 1162.47 923.54 1158.80   Q 942.99 1151.72 962.08 1143.03   Q 977.73 1135.90 993.57 1125.49   Q 993.68 1125.42 994.82 1124.74   Q 1030.64 1103.54 1059.85 1074.83   Q 1075.05 1060.72 1087.26 1045.21   Q 1094.16 1036.46 1097.12 1033.12   C 1104.43 1024.86 1110.74 1016.54 1114.89 1009.38   Q 1123.56 994.43 1132.52 981.20   C 1134.98 977.56 1136.54 974.05 1138.41 970.72   Q 1140.38 967.20 1142.39 962.64   Q 1149.79 945.85 1154.05 936.79   C 1157.05 930.41 1159.59 923.16 1161.53 917.87   Q 1169.96 894.85 1177.51 864.04   Q 1181.69 846.99 1186.51 815.26   Q 1193.30 770.57 1192.89 731.82   Q 1192.58 703.21 1189.17 668.27   C 1188.30 659.36 1186.28 649.46 1184.71 639.54   Q 1178.61 600.93 1164.08 559.49   C 1159.36 546.03 1152.26 531.23 1147.39 519.12   C 1145.51 514.44 1141.27 505.95 1137.89 499.83   C 1129.33 484.38 1121.76 468.69 1111.69 454.81   Q 1108.96 451.05 1087.33 422.43   Q 1086.32 421.10 1083.66 418.43   Q 1066.49 401.18 1066.38 401.06   C 1057.50 391.78 1052.24 385.92 1044.67 379.95   Q 1023.90 363.59 1015.84 357.42   C 1002.74 347.40 989.39 339.74 973.80 330.88   Q 953.34 319.25 925.98 309.41   C 855.46 284.04 777.39 283.31 705.85 304.06   Q 676.95 312.44 650.85 326.42   C 645.21 329.44 641.03 331.11 635.69 333.70   Q 628.36 337.25 618.80 343.82   Q 607.72 351.44 601.42 355.57   C 590.86 362.49 580.69 370.19 573.56 376.57   Q 562.57 386.40 554.61 392.86   Q 547.91 398.30 541.76 405.58   Q 537.80 410.26 531.76 416.96   C 526.01 423.35 518.23 431.50 512.72 439.23   C 498.33 459.44 486.35 478.61 475.78 496.54   Q 475.10 497.70 473.80 500.56   A 1.03 1.00 -49.0 0 0 473.85 501.48   Q 477.80 508.19 479.98 516.50   C 484.90 535.21 485.52 553.20 480.53 572.04   Q 476.61 586.87 469.67 600.48   A 3.45 3.44 -46.8 0 0 469.77 603.78   C 472.08 607.69 474.93 611.62 476.90 615.83   Q 487.40 638.29 482.38 662.44   Q 476.66 689.98 463.65 713.41   Q 458.18 723.25 450.47 734.98   C 448.09 738.59 445.42 742.66 448.83 745.94   C 451.37 748.39 455.35 751.45 458.80 753.55   Q 468.91 759.73 475.97 764.56   C 482.71 769.18 488.10 771.98 495.68 776.36   C 502.73 780.44 506.62 784.02 507.05 792.31   C 507.49 800.86 501.03 805.43 493.08 803.61   Q 486.08 802.01 479.39 798.10   C 472.57 794.12 461.47 787.30 451.35 781.65   Q 444.46 777.80 440.36 773.62   Q 434.80 767.94 432.18 765.56   C 426.51 760.41 421.91 767.14 418.18 769.62   C 408.82 775.84 400.09 789.80 385.49 785.50   C 376.95 782.99 376.12 772.75 381.38 766.80   Q 384.16 763.64 386.60 761.59   Q 394.85 754.63 402.96 746.75   C 406.10 743.70 409.13 739.72 412.82 736.47   C 415.99 733.68 419.95 729.70 423.19 726.19   Q 424.73 724.53 425.58 722.83   Q 428.93 716.15 432.60 709.87   Q 435.88 704.25 444.75 687.03   Q 451.41 674.09 454.48 657.33   Q 456.48 646.44 455.22 635.36   A 0.83 0.82 64.3 0 0 453.82 634.87   Q 448.65 639.95 446.59 641.78   C 441.31 646.46 439.48 649.11 435.42 654.18   C 431.40 659.21 427.60 663.17 422.93 668.67   Q 416.63 676.10 404.74 682.95   Q 400.34 685.49 395.30 686.77   C 388.58 688.49 380.56 683.48 381.65 676.16   Q 382.39 671.17 384.93 668.38   Q 396.68 655.48 406.98 643.99   Q 411.53 638.91 412.78 636.77   Q 415.27 632.49 418.65 628.01   C 424.49 620.24 427.65 614.29 434.33 603.28   C 438.47 596.45 442.45 587.70 445.73 582.19   Q 456.09 564.81 456.37 544.24   C 456.49 534.90 454.49 521.52 446.71 514.97   A 0.88 0.87 -57.7 0 0 445.35 515.28   C 441.33 524.04 439.18 529.76 434.77 536.41   Q 429.30 544.68 427.28 547.31   Q 419.07 557.97 413.24 567.00   Q 411.02 570.44 409.15 572.43   C 404.29 577.60 400.03 582.55 394.94 586.85   C 390.58 590.53 387.77 592.83 383.71 596.46   Q 373.97 605.18 366.00 611.25   Q 360.64 615.33 354.26 618.77   Q 349.00 621.60 345.74 616.72   Q 342.25 611.50 344.78 604.55   Z   M 458.26 536.25   L 456.86 555.28   A 0.01 0.01 0.0 0 0 456.87 555.29   L 456.95 555.29   A 9.40 1.47 -85.8 0 0 459.11 546.03   L 459.13 545.73   A 9.40 1.47 -85.8 0 0 458.35 536.25   L 458.27 536.24   A 0.01 0.01 0.0 0 0 458.26 536.25   Z   M 1145.72 1016.99   A 0.33 0.33 0.0 0 0 1146.20 1017.42   Q 1151.71 1013.20 1159.31 1008.80   C 1165.18 1005.40 1170.50 1000.56 1175.61 995.04   Q 1187.97 981.67 1191.84 977.89   C 1196.72 973.11 1201.37 967.15 1204.54 962.57   Q 1209.12 955.96 1217.68 940.72   Q 1224.77 928.09 1231.50 911.72   Q 1237.59 896.91 1240.90 882.17   C 1246.56 856.91 1248.81 830.57 1243.62 804.69   Q 1240.47 789.04 1239.76 786.49   Q 1235.94 772.91 1224.91 746.37   Q 1224.34 744.99 1223.11 743.45   A 1.13 1.13 0.0 0 0 1221.10 744.07   Q 1220.83 747.77 1220.75 754.00   C 1220.58 767.30 1220.23 779.44 1218.50 793.66   Q 1216.57 809.48 1216.25 812.00   Q 1211.37 850.61 1200.45 892.26   C 1194.65 914.40 1188.23 930.40 1178.62 954.45   C 1176.13 960.69 1172.88 966.44 1170.50 972.32   C 1167.78 978.99 1162.22 986.97 1159.16 993.26   A 2.83 0.13 -53.1 0 1 1158.02 994.94   Q 1156.78 996.62 1155.32 999.63   Q 1151.15 1008.27 1145.72 1016.99   Z   M 480.74 1043.31   Q 479.90 1041.35 479.09 1040.17   Q 468.74 1025.08 460.05 1012.23   Q 453.86 1003.08 449.06 994.20   A 2.63 2.62 -11.0 0 0 447.07 992.86   Q 422.51 989.98 399.26 983.93   Q 380.31 978.99 380.15 978.95   Q 370.56 976.30 361.45 972.69   A 0.38 0.38 0.0 0 0 361.07 973.33   C 363.86 975.72 368.79 980.34 377.61 988.39   Q 390.22 999.89 404.80 1007.69   C 414.52 1012.90 423.09 1017.74 432.77 1022.44   Q 437.99 1024.97 442.85 1027.35   Q 463.68 1037.54 480.23 1043.84   A 0.40 0.40 0.0 0 0 480.74 1043.31   Z   M 564.07 1124.54   C 562.12 1122.78 559.57 1121.41 557.65 1119.73   Q 551.92 1114.74 541.13 1106.09   C 531.85 1098.66 524.29 1091.45 516.89 1083.73   C 514.47 1081.22 509.44 1075.84 504.57 1074.43   Q 495.90 1071.93 483.18 1068.40   C 468.36 1064.28 456.50 1059.75 443.67 1055.62   Q 426.47 1050.09 412.88 1044.61   C 393.24 1036.70 376.63 1030.09 357.69 1025.08   C 342.61 1021.09 324.04 1019.97 309.93 1026.78   C 304.72 1029.29 299.56 1034.54 299.65 1040.52   C 299.77 1048.99 308.30 1057.30 315.11 1062.16   Q 335.88 1076.98 358.15 1086.04   Q 378.08 1094.15 397.52 1099.91   Q 479.04 1124.10 563.97 1124.80   A 0.15 0.15 0.0 0 0 564.07 1124.54   Z   M 881.86 1200.59   C 877.79 1208.82 877.26 1219.47 883.30 1226.96   Q 892.41 1238.24 906.30 1235.38   C 909.94 1234.63 914.12 1232.50 916.33 1230.06   C 919.86 1226.16 924.41 1220.46 929.69 1220.43   Q 933.02 1220.41 934.71 1221.53   C 943.06 1227.09 948.47 1231.14 959.23 1230.32   C 964.99 1229.88 970.64 1225.33 974.26 1221.24   Q 977.80 1217.24 978.62 1211.50   C 980.28 1199.90 974.74 1191.05 964.73 1185.78   Q 959.43 1182.99 954.58 1180.04   A 2.33 2.30 -38.6 0 0 952.61 1179.83   Q 946.30 1182.02 926.62 1188.62   Q 906.04 1195.52 884.11 1198.95   A 3.04 3.03 8.8 0 0 881.86 1200.59   Z   M 736.87 1200.13   A 1.98 1.96 -9.3 0 0 735.42 1199.10   Q 712.43 1195.57 690.23 1188.23   Q 681.94 1185.49 669.58 1181.47   A 3.98 3.96 -46.4 0 0 666.94 1181.54   C 655.49 1185.89 644.30 1189.03 640.77 1201.93   Q 637.14 1215.17 647.66 1224.93   Q 653.07 1229.94 659.99 1230.66   Q 666.99 1231.38 672.90 1228.89   A 6.13 5.84 14.8 0 0 674.08 1228.24   Q 678.19 1225.37 681.53 1223.21   C 691.07 1217.04 696.80 1225.04 703.02 1230.50   C 711.93 1238.33 724.45 1237.09 733.07 1229.08   Q 742.01 1220.77 739.76 1209.04   Q 738.73 1203.66 736.87 1200.13   Z"/>
<path xmlns="http://www.w3.org/2000/svg" fill="#797acf" d="M 1059.85 1074.83   Q 1056.23 1052.74 1051.72 1034.76   Q 1041.59 994.31 1018.18 960.36   C 1006.09 942.82 991.78 928.89 976.09 916.17   Q 959.51 902.73 940.13 893.38   C 886.73 867.61 824.91 864.42 769.01 884.02   C 724.11 899.77 684.36 927.35 654.28 964.53   Q 635.63 987.59 621.92 1013.88   Q 609.55 1037.61 601.25 1058.21   Q 595.53 1072.41 590.51 1091.33   C 589.69 1094.45 587.69 1099.74 586.83 1104.35   L 582.55 1100.88   A 0.29 0.24 -4.7 0 0 582.48 1100.83   Q 570.60 1093.53 563.73 1087.73   Q 550.30 1076.39 537.05 1063.35   Q 528.44 1054.89 519.65 1044.00   C 504.77 1025.55 493.32 1011.07 482.43 992.72   A 0.72 0.72 0.0 0 1 482.83 991.66   Q 487.86 990.07 490.39 985.70   Q 494.19 979.17 489.95 973.10   C 486.06 967.55 482.40 967.60 475.06 966.91   Q 443.34 963.97 421.97 959.81   Q 408.41 957.16 385.39 950.59   Q 367.50 945.48 352.86 939.08   Q 337.69 932.44 321.72 924.12   Q 313.99 920.09 305.88 914.24   Q 283.85 898.35 278.50 893.74   Q 266.35 883.26 257.89 874.63   Q 242.54 859.00 230.67 839.38   C 220.78 823.05 211.72 804.44 207.10 785.37   Q 201.46 762.15 201.35 741.24   C 201.23 720.99 204.97 699.48 210.99 680.25   Q 213.31 672.84 217.56 664.53   Q 224.58 672.33 235.52 671.28   Q 244.47 670.42 252.56 667.82   Q 282.27 658.25 305.70 637.63   Q 313.23 631.01 316.84 627.92   Q 330.26 616.41 337.13 609.88   Q 341.08 606.12 344.78 604.55   Q 342.25 611.50 345.74 616.72   Q 349.00 621.60 354.26 618.77   Q 360.64 615.33 366.00 611.25   Q 373.97 605.18 383.71 596.46   C 387.77 592.83 390.58 590.53 394.94 586.85   C 400.03 582.55 404.29 577.60 409.15 572.43   Q 411.02 570.44 413.24 567.00   Q 419.07 557.97 427.28 547.31   Q 429.30 544.68 434.77 536.41   C 439.18 529.76 441.33 524.04 445.35 515.28   A 0.88 0.87 -57.7 0 1 446.71 514.97   C 454.49 521.52 456.49 534.90 456.37 544.24   Q 456.09 564.81 445.73 582.19   C 442.45 587.70 438.47 596.45 434.33 603.28   C 427.65 614.29 424.49 620.24 418.65 628.01   Q 415.27 632.49 412.78 636.77   Q 411.53 638.91 406.98 643.99   Q 396.68 655.48 384.93 668.38   Q 382.39 671.17 381.65 676.16   C 380.56 683.48 388.58 688.49 395.30 686.77   Q 400.34 685.49 404.74 682.95   Q 416.63 676.10 422.93 668.67   C 427.60 663.17 431.40 659.21 435.42 654.18   C 439.48 649.11 441.31 646.46 446.59 641.78   Q 448.65 639.95 453.82 634.87   A 0.83 0.82 64.3 0 1 455.22 635.36   Q 456.48 646.44 454.48 657.33   Q 451.41 674.09 444.75 687.03   Q 435.88 704.25 432.60 709.87   Q 428.93 716.15 425.58 722.83   Q 424.73 724.53 423.19 726.19   C 419.95 729.70 415.99 733.68 412.82 736.47   C 409.13 739.72 406.10 743.70 402.96 746.75   Q 394.85 754.63 386.60 761.59   Q 384.16 763.64 381.38 766.80   C 376.12 772.75 376.95 782.99 385.49 785.50   C 400.09 789.80 408.82 775.84 418.18 769.62   C 421.91 767.14 426.51 760.41 432.18 765.56   Q 434.80 767.94 440.36 773.62   Q 444.46 777.80 451.35 781.65   C 461.47 787.30 472.57 794.12 479.39 798.10   Q 486.08 802.01 493.08 803.61   C 501.03 805.43 507.49 800.86 507.05 792.31   C 506.62 784.02 502.73 780.44 495.68 776.36   C 488.10 771.98 482.71 769.18 475.97 764.56   Q 468.91 759.73 458.80 753.55   C 455.35 751.45 451.37 748.39 448.83 745.94   C 445.42 742.66 448.09 738.59 450.47 734.98   Q 458.18 723.25 463.65 713.41   Q 476.66 689.98 482.38 662.44   Q 487.40 638.29 476.90 615.83   C 474.93 611.62 472.08 607.69 469.77 603.78   A 3.45 3.44 -46.8 0 1 469.67 600.48   Q 476.61 586.87 480.53 572.04   C 485.52 553.20 484.90 535.21 479.98 516.50   Q 477.80 508.19 473.85 501.48   A 1.03 1.00 -49.0 0 1 473.80 500.56   Q 475.10 497.70 475.78 496.54   C 486.35 478.61 498.33 459.44 512.72 439.23   C 518.23 431.50 526.01 423.35 531.76 416.96   Q 537.80 410.26 541.76 405.58   Q 547.91 398.30 554.61 392.86   Q 562.57 386.40 573.56 376.57   C 580.69 370.19 590.86 362.49 601.42 355.57   Q 607.72 351.44 618.80 343.82   Q 628.36 337.25 635.69 333.70   C 641.03 331.11 645.21 329.44 650.85 326.42   Q 676.95 312.44 705.85 304.06   C 777.39 283.31 855.46 284.04 925.98 309.41   Q 953.34 319.25 973.80 330.88   C 989.39 339.74 1002.74 347.40 1015.84 357.42   Q 1023.90 363.59 1044.67 379.95   C 1052.24 385.92 1057.50 391.78 1066.38 401.06   Q 1066.49 401.18 1083.66 418.43   Q 1086.32 421.10 1087.33 422.43   Q 1108.96 451.05 1111.69 454.81   C 1121.76 468.69 1129.33 484.38 1137.89 499.83   C 1141.27 505.95 1145.51 514.44 1147.39 519.12   C 1152.26 531.23 1159.36 546.03 1164.08 559.49   Q 1178.61 600.93 1184.71 639.54   C 1186.28 649.46 1188.30 659.36 1189.17 668.27   Q 1192.58 703.21 1192.89 731.82   Q 1193.30 770.57 1186.51 815.26   Q 1181.69 846.99 1177.51 864.04   Q 1169.96 894.85 1161.53 917.87   C 1159.59 923.16 1157.05 930.41 1154.05 936.79   Q 1149.79 945.85 1142.39 962.64   Q 1140.38 967.20 1138.41 970.72   C 1136.54 974.05 1134.98 977.56 1132.52 981.20   Q 1123.56 994.43 1114.89 1009.38   C 1110.74 1016.54 1104.43 1024.86 1097.12 1033.12   Q 1094.16 1036.46 1087.26 1045.21   Q 1075.05 1060.72 1059.85 1074.83   Z   M 660.28 340.53   C 656.49 344.20 653.96 345.85 652.57 349.37   C 650.96 353.43 652.31 357.60 654.84 360.91   C 661.90 370.15 672.85 373.17 684.01 375.46   Q 699.62 378.66 714.72 375.03   C 732.83 370.68 739.43 353.72 727.35 339.20   C 715.78 325.29 693.21 326.39 677.54 331.11   C 672.04 332.77 664.99 335.97 660.28 340.53   Z   M 586.31 430.45   C 592.08 435.81 598.52 432.71 604.31 429.14   Q 609.69 425.83 611.05 425.29   C 614.33 423.99 618.14 421.36 622.12 419.80   C 634.69 414.88 647.60 413.98 661.35 414.73   C 669.31 415.17 676.06 413.60 676.04 404.41   C 676.03 398.30 670.38 394.79 665.10 393.13   Q 648.36 387.87 630.40 392.11   Q 614.53 395.85 601.48 402.76   Q 596.32 405.49 589.97 411.47   Q 585.00 416.16 584.36 420.64   C 583.82 424.46 583.45 427.78 586.31 430.45   Z   M 1037.23 433.40   C 1043.09 435.67 1055.44 438.98 1057.64 429.94   C 1059.61 421.86 1054.61 416.10 1048.26 411.76   C 1032.34 400.86 1013.42 392.33 993.76 392.39   Q 983.94 392.41 980.27 392.93   C 972.80 393.99 965.39 399.58 968.08 407.82   C 969.72 412.85 975.44 415.89 980.83 415.66   C 992.80 415.15 1004.52 416.42 1015.82 420.93   Q 1021.49 423.19 1030.45 429.35   Q 1035.20 432.62 1037.23 433.40   Z   M 760.09 714.16   Q 760.17 719.85 759.65 725.25   Q 759.29 728.88 761.60 739.47   Q 763.32 747.33 765.86 755.53   C 769.92 768.57 776.46 777.33 784.82 787.46   Q 791.58 795.65 796.94 799.61   Q 808.55 808.18 821.79 812.46   Q 840.75 818.58 859.11 810.04   Q 871.86 804.12 880.41 794.09   Q 894.47 777.60 901.46 756.17   Q 903.09 751.16 908.46 749.49   Q 912.75 748.15 924.71 743.72   Q 930.83 746.73 936.83 749.54   Q 943.75 752.78 949.29 754.56   C 990.51 767.74 1036.77 765.06 1074.30 741.94   Q 1092.21 730.91 1104.47 718.97   Q 1129.94 694.15 1142.53 659.18   C 1150.91 635.89 1153.13 611.58 1150.69 587.23   C 1147.66 557.02 1135.16 528.56 1115.88 504.14   C 1092.01 473.90 1057.27 455.19 1019.31 449.37   Q 990.92 445.02 962.17 452.41   Q 919.23 463.44 888.19 494.71   Q 860.26 522.84 848.58 560.77   C 841.10 585.05 840.33 611.67 844.32 636.93   Q 838.34 636.96 832.39 636.89   Q 827.51 636.83 824.06 637.29   Q 818.55 638.01 815.93 639.12   Q 808.14 642.41 799.50 645.71   Q 808.33 606.47 799.04 568.60   C 794.55 550.30 786.32 533.10 776.12 517.63   C 755.80 486.82 725.75 464.57 690.20 454.01   Q 664.77 446.46 640.26 448.04   Q 603.83 450.38 572.07 468.13   C 546.47 482.44 525.98 504.40 511.34 530.22   C 499.87 550.45 495.12 574.66 493.93 597.62   C 492.09 632.88 501.74 667.95 522.57 696.88   Q 552.17 737.98 597.76 754.18   C 613.47 759.77 630.78 762.90 647.27 762.62   C 677.59 762.10 706.67 754.04 732.54 737.02   Q 744.61 729.09 760.09 714.16   Z   M 398.69 695.53   Q 394.37 695.87 391.57 695.99   A 9.31 9.27 -57.1 0 0 388.52 696.65   Q 377.63 701.07 363.23 707.01   C 344.55 714.70 326.87 724.58 319.49 744.73   C 316.33 753.36 315.47 760.78 321.11 768.18   C 330.83 780.91 353.20 772.58 364.28 766.24   Q 371.83 761.91 372.47 761.61   Q 376.48 759.66 380.61 756.85   Q 394.42 747.44 404.62 733.66   C 407.51 729.76 409.19 725.33 411.68 720.84   A 6.10 5.74 68.5 0 0 412.23 719.46   Q 413.56 714.33 413.16 707.89   C 412.87 703.24 410.43 700.14 407.09 697.45   C 404.74 695.56 401.61 695.30 398.69 695.53   Z"/>
<path xmlns="http://www.w3.org/2000/svg" fill="#959af8" d="M 660.28 340.53   C 664.99 335.97 672.04 332.77 677.54 331.11   C 693.21 326.39 715.78 325.29 727.35 339.20   C 739.43 353.72 732.83 370.68 714.72 375.03   Q 699.62 378.66 684.01 375.46   C 672.85 373.17 661.90 370.15 654.84 360.91   C 652.31 357.60 650.96 353.43 652.57 349.37   C 653.96 345.85 656.49 344.20 660.28 340.53   Z"/>
<path xmlns="http://www.w3.org/2000/svg" fill="#3e3c81" d="M 586.31 430.45   C 583.45 427.78 583.82 424.46 584.36 420.64   Q 585.00 416.16 589.97 411.47   Q 596.32 405.49 601.48 402.76   Q 614.53 395.85 630.40 392.11   Q 648.36 387.87 665.10 393.13   C 670.38 394.79 676.03 398.30 676.04 404.41   C 676.06 413.60 669.31 415.17 661.35 414.73   C 647.60 413.98 634.69 414.88 622.12 419.80   C 618.14 421.36 614.33 423.99 611.05 425.29   Q 609.69 425.83 604.31 429.14   C 598.52 432.71 592.08 435.81 586.31 430.45   Z"/>
<path xmlns="http://www.w3.org/2000/svg" fill="#3e3c81" d="M 1057.64 429.94   C 1055.44 438.98 1043.09 435.67 1037.23 433.40   Q 1035.20 432.62 1030.45 429.35   Q 1021.49 423.19 1015.82 420.93   C 1004.52 416.42 992.80 415.15 980.83 415.66   C 975.44 415.89 969.72 412.85 968.08 407.82   C 965.39 399.58 972.80 393.99 980.27 392.93   Q 983.94 392.41 993.76 392.39   C 1013.42 392.33 1032.34 400.86 1048.26 411.76   C 1054.61 416.10 1059.61 421.86 1057.64 429.94   Z"/>
<path xmlns="http://www.w3.org/2000/svg" fill="#959af8" d="M 344.78 604.55   Q 341.08 606.12 337.13 609.88   Q 330.26 616.41 316.84 627.92   Q 313.23 631.01 305.70 637.63   Q 282.27 658.25 252.56 667.82   Q 244.47 670.42 235.52 671.28   Q 224.58 672.33 217.56 664.53   C 221.08 656.11 224.36 650.90 230.01 641.28   C 238.48 626.87 250.80 614.05 263.08 602.83   C 276.50 590.57 288.76 576.82 302.40 564.22   Q 313.96 553.54 321.46 545.46   Q 331.41 534.74 335.11 531.12   C 345.61 520.85 352.91 512.24 359.87 502.84   Q 365.66 495.01 370.76 488.74   C 384.29 472.13 397.97 452.59 409.61 434.71   C 415.52 425.63 421.06 419.44 430.24 416.21   Q 434.01 414.89 434.79 418.32   Q 439.32 438.14 436.08 455.38   Q 434.18 465.49 428.77 478.64   Q 425.79 485.89 424.38 490.27   Q 421.29 499.88 420.33 502.04   Q 409.32 526.99 400.03 541.52   Q 395.92 547.97 386.41 558.91   Q 381.74 564.28 380.39 566.34   C 377.72 570.46 374.85 575.70 370.00 579.93   Q 356.56 591.66 344.78 604.55   Z"/>
<path xmlns="http://www.w3.org/2000/svg" fill="#f4ad94" d="M 799.50 645.71   Q 797.90 646.78 795.79 647.90   C 789.30 651.33 783.42 657.11 779.14 662.89   Q 772.39 671.98 770.47 675.22   Q 764.09 685.97 762.28 698.99   Q 761.20 706.76 760.09 714.16   Q 744.61 729.09 732.54 737.02   C 706.67 754.04 677.59 762.10 647.27 762.62   C 630.78 762.90 613.47 759.77 597.76 754.18   Q 552.17 737.98 522.57 696.88   C 501.74 667.95 492.09 632.88 493.93 597.62   C 495.12 574.66 499.87 550.45 511.34 530.22   C 525.98 504.40 546.47 482.44 572.07 468.13   Q 603.83 450.38 640.26 448.04   Q 664.77 446.46 690.20 454.01   C 725.75 464.57 755.80 486.82 776.12 517.63   C 786.32 533.10 794.55 550.30 799.04 568.60   Q 808.33 606.47 799.50 645.71   Z   M 745.90 694.14   C 752.51 686.80 758.49 679.35 763.43 670.81   C 766.31 665.84 767.75 662.17 770.04 657.29   Q 771.13 654.95 771.90 652.30   Q 772.39 650.60 773.76 647.32   C 775.43 643.32 775.81 638.04 776.89 633.99   Q 778.11 629.43 778.32 627.24   Q 783.14 575.48 753.80 532.95   Q 743.76 518.40 729.56 507.20   C 700.99 484.66 667.44 474.56 631.19 479.92   Q 614.32 482.41 597.77 490.59   Q 564.17 507.18 546.04 540.59   C 529.62 570.84 527.46 608.36 538.41 640.56   C 550.36 675.68 575.75 703.39 609.72 718.24   Q 645.58 733.92 684.08 726.56   Q 701.49 723.24 715.02 716.21   Q 723.30 711.90 739.30 699.99   Q 743.31 697.00 745.90 694.14   Z"/>
<path xmlns="http://www.w3.org/2000/svg" fill="#f4ad94" d="M 924.71 743.72   Q 930.59 741.06 935.58 738.40   Q 941.19 735.42 942.67 733.17   C 945.01 729.59 944.38 725.89 944.23 722.01   Q 967.89 729.44 992.50 728.80   C 1006.80 728.43 1020.88 724.45 1034.35 718.83   Q 1046.17 713.90 1057.08 706.05   Q 1085.42 685.65 1100.02 656.81   Q 1123.88 609.67 1106.48 557.27   Q 1102.02 543.85 1091.58 528.69   Q 1081.06 513.43 1069.46 504.23   C 1040.06 480.91 1002.79 473.02 966.41 482.16   Q 945.90 487.32 930.89 496.67   Q 879.91 528.45 868.08 588.34   C 865.70 600.38 865.27 612.89 866.82 624.75   Q 867.92 633.15 868.15 636.00   A 8.23 8.07 35.7 0 0 868.40 637.44   Q 868.95 639.52 869.17 641.73   Q 856.76 638.10 844.32 636.93   C 840.33 611.67 841.10 585.05 848.58 560.77   Q 860.26 522.84 888.19 494.71   Q 919.23 463.44 962.17 452.41   Q 990.92 445.02 1019.31 449.37   C 1057.27 455.19 1092.01 473.90 1115.88 504.14   C 1135.16 528.56 1147.66 557.02 1150.69 587.23   C 1153.13 611.58 1150.91 635.89 1142.53 659.18   Q 1129.94 694.15 1104.47 718.97   Q 1092.21 730.91 1074.30 741.94   C 1036.77 765.06 990.51 767.74 949.29 754.56   Q 943.75 752.78 936.83 749.54   Q 930.83 746.73 924.71 743.72   Z"/>
<path xmlns="http://www.w3.org/2000/svg" fill="#fcd9bb" d="M 763.43 670.81   C 758.49 679.35 752.51 686.80 745.90 694.14   Q 743.31 697.00 739.30 699.99   Q 723.30 711.90 715.02 716.21   Q 701.49 723.24 684.08 726.56   Q 645.58 733.92 609.72 718.24   C 575.75 703.39 550.36 675.68 538.41 640.56   C 527.46 608.36 529.62 570.84 546.04 540.59   Q 564.17 507.18 597.77 490.59   Q 614.32 482.41 631.19 479.92   C 667.44 474.56 700.99 484.66 729.56 507.20   Q 743.76 518.40 753.80 532.95   Q 783.14 575.48 778.32 627.24   Q 778.11 629.43 776.89 633.99   C 775.81 638.04 775.43 643.32 773.76 647.32   Q 772.39 650.60 771.90 652.30   Q 771.13 654.95 770.04 657.29   C 767.75 662.17 766.31 665.84 763.43 670.81   Z   M 683.8546 538.3583   A 73.14 68.20 -85.0 0 0 609.5395 605.2760   A 73.14 68.20 -85.0 0 0 671.1054 684.0817   A 73.14 68.20 -85.0 0 0 745.4205 617.1640   A 73.14 68.20 -85.0 0 0 683.8546 538.3583   Z"/>
<path xmlns="http://www.w3.org/2000/svg" fill="#fcd9bb" d="M 944.23 722.01   Q 942.42 703.55 933.02 689.49   Q 923.91 675.86 908.85 663.40   Q 892.11 649.56 869.17 641.73   Q 868.95 639.52 868.40 637.44   A 8.23 8.07 35.7 0 1 868.15 636.00   Q 867.92 633.15 866.82 624.75   C 865.27 612.89 865.70 600.38 868.08 588.34   Q 879.91 528.45 930.89 496.67   Q 945.90 487.32 966.41 482.16   C 1002.79 473.02 1040.06 480.91 1069.46 504.23   Q 1081.06 513.43 1091.58 528.69   Q 1102.02 543.85 1106.48 557.27   Q 1123.88 609.67 1100.02 656.81   Q 1085.42 685.65 1057.08 706.05   Q 1046.17 713.90 1034.35 718.83   C 1020.88 724.45 1006.80 728.43 992.50 728.80   Q 967.89 729.44 944.23 722.01   Z   M 1015.52 547.50   C 991.25 530.93 956.02 534.26 935.23 555.04   C 920.85 569.41 911.64 588.98 911.39 609.41   C 911.09 634.20 920.75 655.58 940.57 670.66   Q 951.01 678.60 963.99 681.43   C 1009.86 691.42 1047.23 654.58 1047.08 609.99   C 1047.03 597.53 1045.16 584.86 1039.66 574.48   C 1034.14 564.06 1025.53 554.34 1015.52 547.50   Z"/>
<path xmlns="http://www.w3.org/2000/svg" fill="#797acf" d="M 458.26 536.25   A 0.01 0.01 0.0 0 1 458.27 536.24   L 458.35 536.25   A 9.40 1.47 -85.8 0 1 459.13 545.73   L 459.11 546.03   A 9.40 1.47 -85.8 0 1 456.95 555.29   L 456.87 555.29   A 0.01 0.01 0.0 0 1 456.86 555.28   L 458.26 536.25   Z"/>
<path xmlns="http://www.w3.org/2000/svg" fill="#3e3c81" d="M 935.23 555.04   C 956.02 534.26 991.25 530.93 1015.52 547.50   C 1025.53 554.34 1034.14 564.06 1039.66 574.48   C 1045.16 584.86 1047.03 597.53 1047.08 609.99   C 1047.23 654.58 1009.86 691.42 963.99 681.43   Q 951.01 678.60 940.57 670.66   C 920.75 655.58 911.09 634.20 911.39 609.41   C 911.64 588.98 920.85 569.41 935.23 555.04   Z   M 1028.08 576.83   A 20.17 20.17 0.0 0 0 1007.91 556.66   A 20.17 20.17 0.0 0 0 987.74 576.83   A 20.17 20.17 0.0 0 0 1007.91 597.00   A 20.17 20.17 0.0 0 0 1028.08 576.83   Z"/>
<path xmlns="http://www.w3.org/2000/svg" fill="#3e3c81" d="M 683.8546 538.3583   A 73.14 68.20 -85.0 0 1 745.4205 617.1640   A 73.14 68.20 -85.0 0 1 671.1054 684.0817   A 73.14 68.20 -85.0 0 1 609.5395 605.2760   A 73.14 68.20 -85.0 0 1 683.8546 538.3583   Z   M 726.53 578.66   A 20.26 20.26 0.0 0 0 706.27 558.40   A 20.26 20.26 0.0 0 0 686.01 578.66   A 20.26 20.26 0.0 0 0 706.27 598.92   A 20.26 20.26 0.0 0 0 726.53 578.66   Z"/>
<circle xmlns="http://www.w3.org/2000/svg" fill="#fcd9bb" cx="1007.91" cy="576.83" r="20.17"/>
<circle xmlns="http://www.w3.org/2000/svg" fill="#fcd9bb" cx="706.27" cy="578.66" r="20.26"/>
<path xmlns="http://www.w3.org/2000/svg" fill="#3e3c81" d="M 844.32 636.93   Q 856.76 638.10 869.17 641.73   Q 892.11 649.56 908.85 663.40   Q 923.91 675.86 933.02 689.49   Q 942.42 703.55 944.23 722.01   C 944.38 725.89 945.01 729.59 942.67 733.17   Q 941.19 735.42 935.58 738.40   Q 930.59 741.06 924.71 743.72   Q 912.75 748.15 908.46 749.49   Q 903.09 751.16 901.46 756.17   Q 894.47 777.60 880.41 794.09   Q 871.86 804.12 859.11 810.04   Q 840.75 818.58 821.79 812.46   Q 808.55 808.18 796.94 799.61   Q 791.58 795.65 784.82 787.46   C 776.46 777.33 769.92 768.57 765.86 755.53   Q 763.32 747.33 761.60 739.47   Q 759.29 728.88 759.65 725.25   Q 760.17 719.85 760.09 714.16   Q 761.20 706.76 762.28 698.99   Q 764.09 685.97 770.47 675.22   Q 772.39 671.98 779.14 662.89   C 783.42 657.11 789.30 651.33 795.79 647.90   Q 797.90 646.78 799.50 645.71   Q 808.14 642.41 815.93 639.12   Q 818.55 638.01 824.06 637.29   Q 827.51 636.83 832.39 636.89   Q 838.34 636.96 844.32 636.93   Z   M 872.03 759.40   A 0.61 0.61 0.0 0 0 871.35 758.59   C 858.66 761.02 846.72 762.23 833.36 761.15   Q 817.94 759.90 805.14 751.48   C 798.35 747.01 794.69 741.46 793.88 733.88   C 793.07 726.33 798.99 719.74 806.90 723.57   Q 814.89 727.45 818.00 729.07   C 827.83 734.21 838.41 735.73 849.01 735.08   Q 873.16 733.60 896.22 725.72   Q 911.65 720.45 917.30 718.51   A 1.04 1.03 -19.1 0 0 917.94 717.20   C 915.50 709.99 912.19 703.05 907.52 697.36   Q 901.64 690.20 893.89 684.38   Q 879.45 673.54 864.67 667.33   Q 853.89 662.80 839.02 662.56   Q 813.62 662.15 798.40 679.63   Q 792.67 686.21 789.86 693.84   Q 783.34 711.49 785.60 730.77   C 786.62 739.55 791.09 749.72 794.91 757.64   C 800.47 769.17 811.03 779.02 822.57 785.58   C 833.93 792.04 847.33 789.86 857.04 781.29   Q 863.02 776.01 865.17 772.89   Q 869.07 767.26 872.03 759.40   Z"/>
<path xmlns="http://www.w3.org/2000/svg" fill="#e0966f" d="M 872.03 759.40   Q 869.07 767.26 865.17 772.89   Q 863.02 776.01 857.04 781.29   C 847.33 789.86 833.93 792.04 822.57 785.58   C 811.03 779.02 800.47 769.17 794.91 757.64   C 791.09 749.72 786.62 739.55 785.60 730.77   Q 783.34 711.49 789.86 693.84   Q 792.67 686.21 798.40 679.63   Q 813.62 662.15 839.02 662.56   Q 853.89 662.80 864.67 667.33   Q 879.45 673.54 893.89 684.38   Q 901.64 690.20 907.52 697.36   C 912.19 703.05 915.50 709.99 917.94 717.20   A 1.04 1.03 -19.1 0 1 917.30 718.51   Q 911.65 720.45 896.22 725.72   Q 873.16 733.60 849.01 735.08   C 838.41 735.73 827.83 734.21 818.00 729.07   Q 814.89 727.45 806.90 723.57   C 798.99 719.74 793.07 726.33 793.88 733.88   C 794.69 741.46 798.35 747.01 805.14 751.48   Q 817.94 759.90 833.36 761.15   C 846.72 762.23 858.66 761.02 871.35 758.59   A 0.61 0.61 0.0 0 1 872.03 759.40   Z"/>
<path xmlns="http://www.w3.org/2000/svg" fill="#959af8" d="M 398.69 695.53   C 401.61 695.30 404.74 695.56 407.09 697.45   C 410.43 700.14 412.87 703.24 413.16 707.89   Q 413.56 714.33 412.23 719.46   A 6.10 5.74 68.5 0 1 411.68 720.84   C 409.19 725.33 407.51 729.76 404.62 733.66   Q 394.42 747.44 380.61 756.85   Q 376.48 759.66 372.47 761.61   Q 371.83 761.91 364.28 766.24   C 353.20 772.58 330.83 780.91 321.11 768.18   C 315.47 760.78 316.33 753.36 319.49 744.73   C 326.87 724.58 344.55 714.70 363.23 707.01   Q 377.63 701.07 388.52 696.65   A 9.31 9.27 -57.1 0 1 391.57 695.99   Q 394.37 695.87 398.69 695.53   Z"/>
<path xmlns="http://www.w3.org/2000/svg" fill="#797acf" d="M 1145.72 1016.99   Q 1151.15 1008.27 1155.32 999.63   Q 1156.78 996.62 1158.02 994.94   A 2.83 0.13 -53.1 0 0 1159.16 993.26   C 1162.22 986.97 1167.78 978.99 1170.50 972.32   C 1172.88 966.44 1176.13 960.69 1178.62 954.45   C 1188.23 930.40 1194.65 914.40 1200.45 892.26   Q 1211.37 850.61 1216.25 812.00   Q 1216.57 809.48 1218.50 793.66   C 1220.23 779.44 1220.58 767.30 1220.75 754.00   Q 1220.83 747.77 1221.10 744.07   A 1.13 1.13 0.0 0 1 1223.11 743.45   Q 1224.34 744.99 1224.91 746.37   Q 1235.94 772.91 1239.76 786.49   Q 1240.47 789.04 1243.62 804.69   C 1248.81 830.57 1246.56 856.91 1240.90 882.17   Q 1237.59 896.91 1231.50 911.72   Q 1224.77 928.09 1217.68 940.72   Q 1209.12 955.96 1204.54 962.57   C 1201.37 967.15 1196.72 973.11 1191.84 977.89   Q 1187.97 981.67 1175.61 995.04   C 1170.50 1000.56 1165.18 1005.40 1159.31 1008.80   Q 1151.71 1013.20 1146.20 1017.42   A 0.33 0.33 0.0 0 1 1145.72 1016.99   Z"/>
<path xmlns="http://www.w3.org/2000/svg" fill="#f4ad94" d="M 1059.85 1074.83   Q 1030.64 1103.54 994.82 1124.74   Q 993.68 1125.42 993.57 1125.49   Q 977.73 1135.90 962.08 1143.03   Q 942.99 1151.72 923.54 1158.80   C 913.47 1162.47 903.95 1164.77 892.02 1167.61   C 855.46 1176.32 816.96 1179.74 779.50 1176.20   C 733.30 1171.84 688.28 1160.12 646.51 1139.99   Q 615.55 1125.07 586.83 1104.35   C 587.69 1099.74 589.69 1094.45 590.51 1091.33   Q 595.53 1072.41 601.25 1058.21   Q 609.55 1037.61 621.92 1013.88   Q 635.63 987.59 654.28 964.53   C 684.36 927.35 724.11 899.77 769.01 884.02   C 824.91 864.42 886.73 867.61 940.13 893.38   Q 959.51 902.73 976.09 916.17   C 991.78 928.89 1006.09 942.82 1018.18 960.36   Q 1041.59 994.31 1051.72 1034.76   Q 1056.23 1052.74 1059.85 1074.83   Z"/>
<path xmlns="http://www.w3.org/2000/svg" fill="#e99187" d="M 480.74 1043.31   A 0.40 0.40 0.0 0 1 480.23 1043.84   Q 463.68 1037.54 442.85 1027.35   Q 437.99 1024.97 432.77 1022.44   C 423.09 1017.74 414.52 1012.90 404.80 1007.69   Q 390.22 999.89 377.61 988.39   C 368.79 980.34 363.86 975.72 361.07 973.33   A 0.38 0.38 0.0 0 1 361.45 972.69   Q 370.56 976.30 380.15 978.95   Q 380.31 978.99 399.26 983.93   Q 422.51 989.98 447.07 992.86   A 2.63 2.62 -11.0 0 1 449.06 994.20   Q 453.86 1003.08 460.05 1012.23   Q 468.74 1025.08 479.09 1040.17   Q 479.90 1041.35 480.74 1043.31   Z"/>
<path xmlns="http://www.w3.org/2000/svg" fill="#e99187" d="M 564.07 1124.54   A 0.15 0.15 0.0 0 1 563.97 1124.80   Q 479.04 1124.10 397.52 1099.91   Q 378.08 1094.15 358.15 1086.04   Q 335.88 1076.98 315.11 1062.16   C 308.30 1057.30 299.77 1048.99 299.65 1040.52   C 299.56 1034.54 304.72 1029.29 309.93 1026.78   C 324.04 1019.97 342.61 1021.09 357.69 1025.08   C 376.63 1030.09 393.24 1036.70 412.88 1044.61   Q 426.47 1050.09 443.67 1055.62   C 456.50 1059.75 468.36 1064.28 483.18 1068.40   Q 495.90 1071.93 504.57 1074.43   C 509.44 1075.84 514.47 1081.22 516.89 1083.73   C 524.29 1091.45 531.85 1098.66 541.13 1106.09   Q 551.92 1114.74 557.65 1119.73   C 559.57 1121.41 562.12 1122.78 564.07 1124.54   Z"/>
<path xmlns="http://www.w3.org/2000/svg" fill="#e0966f" d="M 881.86 1200.59   A 3.04 3.03 8.8 0 1 884.11 1198.95   Q 906.04 1195.52 926.62 1188.62   Q 946.30 1182.02 952.61 1179.83   A 2.33 2.30 -38.6 0 1 954.58 1180.04   Q 959.43 1182.99 964.73 1185.78   C 974.74 1191.05 980.28 1199.90 978.62 1211.50   Q 977.80 1217.24 974.26 1221.24   C 970.64 1225.33 964.99 1229.88 959.23 1230.32   C 948.47 1231.14 943.06 1227.09 934.71 1221.53   Q 933.02 1220.41 929.69 1220.43   C 924.41 1220.46 919.86 1226.16 916.33 1230.06   C 914.12 1232.50 909.94 1234.63 906.30 1235.38   Q 892.41 1238.24 883.30 1226.96   C 877.26 1219.47 877.79 1208.82 881.86 1200.59   Z"/>
<path xmlns="http://www.w3.org/2000/svg" fill="#e0966f" d="M 736.87 1200.13   Q 738.73 1203.66 739.76 1209.04   Q 742.01 1220.77 733.07 1229.08   C 724.45 1237.09 711.93 1238.33 703.02 1230.50   C 696.80 1225.04 691.07 1217.04 681.53 1223.21   Q 678.19 1225.37 674.08 1228.24   A 6.13 5.84 14.8 0 1 672.90 1228.89   Q 666.99 1231.38 659.99 1230.66   Q 653.07 1229.94 647.66 1224.93   Q 637.14 1215.17 640.77 1201.93   C 644.30 1189.03 655.49 1185.89 666.94 1181.54   A 3.98 3.96 -46.4 0 1 669.58 1181.47   Q 681.94 1185.49 690.23 1188.23   Q 712.43 1195.57 735.42 1199.10   A 1.98 1.96 -9.3 0 1 736.87 1200.13   Z"/>
</g></g></g></g></svg>