<svg xmlns="http://www.w3.org/2000/svg" direction="ltr" width="2048" height="2048" viewBox="34029.82626586296 26351.11895815624 2048 2048" stroke-linecap="round" stroke-linejoin="round" data-color-mode="light" class="tl-container tl-theme__force-sRGB tl-theme__light" style="background-color: transparent;"><defs/><g transform="matrix(1, 0, 0, 1, 34029.8263, 26351.119)" opacity="1"><g data-lovart-layer-name="SVG 19"><g transform="scale(1.4143646408839778, 1.4143646408839778)"><g>
<g xmlns="http://www.w3.org/2000/svg" stroke-width="2.00" fill="none" stroke-linecap="butt">
<path stroke="#9c98b8" d="M 877.98 1044.20   C 882.35 1042.04 887.33 1038.55 893.06 1035.35   Q 906.42 1027.88 913.85 1022.09   C 932.97 1007.19 944.24 998.94 957.43 984.69   Q 959.50 982.46 961.89 981.84   Q 977.25 977.88 984.96 974.70   Q 1015.01 962.32 1041.02 942.02   C 1054.99 931.12 1066.29 918.87 1077.95 904.45   Q 1085.68 894.88 1091.93 883.95   C 1102.07 866.20 1110.52 848.15 1115.39 828.70   Q 1121.66 803.66 1122.13 779.31   C 1122.24 773.96 1121.40 766.65 1121.30 762.14   Q 1121.18 756.62 1119.82 749.38   Q 1117.29 735.91 1116.78 733.75   Q 1113.50 719.69 1108.25 706.55   Q 1105.17 698.85 1098.57 687.03   Q 1090.56 672.66 1087.37 668.17   Q 1079.46 657.04 1069.24 646.61   A 3.76 3.75 -68.3 0 1 1068.17 644.11   Q 1067.64 630.40 1065.19 616.26   Q 1057.98 574.64 1046.02 538.70   Q 1042.81 529.05 1040.48 523.98   Q 1028.83 498.71 1027.16 495.13   C 1024.81 490.09 1022.59 486.15 1020.28 481.63   Q 1018.23 477.64 1014.49 471.95   Q 1008.49 462.84 1002.79 453.53   C 994.65 440.27 982.96 426.52 972.17 414.24   Q 967.67 409.12 949.81 392.05   C 940.91 383.55 930.75 375.03 923.14 369.73   C 909.59 360.29 898.73 352.28 884.53 344.29   Q 861.16 331.13 834.72 321.55   Q 782.38 302.58 727.72 301.86   C 697.51 301.46 666.83 305.94 638.45 313.47   Q 616.94 319.17 594.29 329.21   Q 587.12 332.39 575.01 338.17   C 561.11 344.80 551.57 351.64 537.13 361.27   Q 527.41 367.75 518.48 374.96   Q 480.84 405.34 452.79 443.20   C 448.21 449.39 444.27 455.77 439.77 462.28   Q 435.59 468.35 430.67 477.01   C 410.94 511.73 396.81 548.25 388.55 586.92   Q 384.02 608.18 383.21 612.97   Q 380.49 629.12 379.99 645.04   A 3.19 3.17 68.7 0 1 379.05 647.20   Q 373.81 652.44 368.32 658.28   Q 365.30 661.49 359.01 671.23   Q 351.01 683.59 343.65 698.88   C 334.92 716.98 330.10 736.17 327.52 755.51   Q 323.67 784.47 330.17 817.30   C 334.98 841.62 344.18 862.96 356.99 884.57   C 368.13 903.36 382.21 919.40 397.42 933.57   Q 405.43 941.04 411.91 945.58   C 422.72 953.17 434.22 960.74 445.89 966.62   Q 465.55 976.53 490.44 982.83   Q 493.04 983.49 494.82 985.44   Q 506.78 998.50 523.27 1011.15   Q 527.83 1014.64 539.35 1022.91   Q 550.71 1031.06 555.89 1033.86   Q 567.25 1040.01 575.28 1044.46   A 1.40 1.39 33.7 0 1 575.70 1046.54   C 568.72 1055.45 563.56 1064.64 561.86 1076.26   Q 558.65 1098.13 573.24 1114.37   C 585.54 1128.04 604.16 1130.68 621.07 1123.57   Q 623.34 1122.61 624.90 1123.70   Q 645.95 1138.42 667.85 1127.85   Q 674.35 1124.71 678.21 1120.96   C 689.33 1110.14 693.50 1094.50 691.24 1079.28   A 0.46 0.46 0.0 0 1 691.75 1078.75   Q 727.52 1082.71 762.45 1078.82   A 0.89 0.88 2.2 0 1 763.42 1079.86   Q 760.26 1096.71 768.47 1111.01   C 775.08 1122.52 785.22 1129.38 797.99 1131.80   C 808.14 1133.72 818.94 1130.37 827.30 1124.73   C 828.89 1123.66 830.84 1122.85 832.46 1123.51   C 852.35 1131.70 874.31 1126.93 886.12 1108.13   C 894.43 1094.92 894.56 1077.38 888.85 1063.04   C 886.47 1057.08 882.02 1050.53 877.69 1045.71   A 0.97 0.97 0.0 0 1 877.98 1044.20"/>
<path stroke="#9c98b8" d="M 1205.46 468.20   Q 1208.13 480.56 1208.62 483.53   Q 1211.65 501.75 1210.36 521.76   Q 1207.87 560.28 1191.10 595.22   Q 1188.67 600.28 1188.44 602.40   C 1187.17 613.73 1199.78 618.70 1207.28 611.14   Q 1208.22 610.19 1212.08 602.32   Q 1215.98 594.37 1216.42 593.21   Q 1226.94 565.66 1230.30 541.97   Q 1234.64 511.36 1230.37 480.31   Q 1228.74 468.46 1227.85 463.96   Q 1224.79 448.52 1220.44 438.01   Q 1213.70 421.71 1212.11 418.38   Q 1202.11 397.39 1190.59 381.98   C 1181.67 370.06 1171.89 360.52 1160.90 349.84   C 1153.24 342.38 1142.82 335.33 1134.43 329.88   C 1128.38 325.95 1122.31 323.22 1116.32 328.26   C 1111.81 332.06 1111.00 341.61 1116.76 344.92   Q 1124.45 349.35 1127.84 351.81   Q 1134.62 356.76 1148.84 368.58   C 1155.38 374.02 1160.28 379.65 1164.71 385.04   C 1179.74 403.28 1192.24 423.55 1199.94 446.02   C 1202.35 453.06 1204.38 463.21 1205.46 468.20"/>
<path stroke="#9c98b8" d="M 1147.83 431.23   C 1138.74 417.16 1126.60 404.73 1113.58 393.68   Q 1107.23 388.29 1097.96 383.33   C 1087.55 377.76 1077.30 388.44 1083.05 398.65   Q 1084.27 400.80 1088.41 403.37   C 1101.25 411.35 1112.86 420.29 1121.59 432.70   Q 1127.19 440.65 1131.98 448.80   Q 1137.45 458.11 1140.30 466.01   Q 1150.46 494.08 1147.66 525.19   Q 1146.71 535.75 1144.10 543.89   Q 1140.85 554.08 1134.44 569.68   C 1130.93 578.24 1138.49 588.08 1147.90 584.50   Q 1152.86 582.61 1155.65 576.86   C 1162.88 561.95 1167.56 543.98 1169.39 527.99   C 1172.34 502.25 1168.00 476.75 1158.59 452.92   C 1156.72 448.17 1154.23 443.54 1152.77 440.36   Q 1150.43 435.25 1147.83 431.23"/>
<path stroke="#9c98b8" d="M 1088.06 494.14   C 1092.28 508.78 1091.39 525.99 1083.82 539.49   Q 1081.15 544.25 1081.05 546.43   C 1080.62 556.36 1091.26 561.65 1098.95 555.49   Q 1100.99 553.85 1103.28 549.35   C 1113.14 529.92 1115.11 508.87 1109.12 488.07   C 1103.13 467.27 1090.26 450.50 1071.58 439.29   Q 1067.24 436.70 1064.65 436.39   C 1054.86 435.27 1048.66 445.41 1054.31 453.59   Q 1055.55 455.38 1060.34 457.99   C 1073.94 465.40 1083.84 479.49 1088.06 494.14"/>
<path stroke="#98677a" d="M 528.23 985.54   Q 540.92 997.35 555.68 1006.81   Q 572.17 1017.37 580.71 1021.83   Q 628.49 1046.79 681.93 1054.82   C 695.84 1056.91 711.67 1057.72 724.50 1057.85   C 764.04 1058.24 803.66 1051.48 840.25 1036.70   Q 855.32 1030.62 867.53 1024.27   C 882.80 1016.34 896.19 1007.02 911.25 996.51   Q 916.01 993.18 927.75 981.64"/>
<path stroke="#605fb2" d="M 927.75 981.64   C 932.23 977.64 937.55 973.58 941.35 969.69   C 944.56 966.40 947.49 963.72 950.44 960.01   Q 957.90 950.67 965.88 941.16   Q 968.78 937.70 982.15 919.91   Q 983.92 917.55 984.86 915.68   C 986.80 911.80 989.31 908.67 991.22 904.83   Q 993.32 900.58 999.78 888.71   A 0.61 0.60 -85.8 0 1 1000.11 888.42   Q 1000.59 888.24 1000.83 887.60   Q 1002.13 884.13 1003.55 881.63   Q 1006.46 876.50 1006.70 875.85   C 1008.30 871.47 1010.74 867.41 1012.69 862.68   C 1015.62 855.55 1019.31 847.19 1021.94 839.14   Q 1027.82 821.15 1030.56 811.32   Q 1035.96 792.00 1041.23 762.99   Q 1046.18 735.70 1047.11 705.01   Q 1047.53 690.93 1047.60 672.20   C 1047.61 666.87 1047.13 663.24 1047.03 658.47   Q 1046.96 655.30 1046.11 648.20   C 1044.96 638.56 1043.82 624.57 1041.89 613.33   Q 1038.12 591.30 1036.58 583.64   Q 1036.12 581.39 1033.34 573.97   C 1029.19 562.87 1026.00 552.26 1020.23 534.11   Q 1019.04 530.38 1017.39 526.66   Q 1016.70 525.10 1014.16 519.33   Q 1010.83 511.76 1005.19 502.41   C 999.89 493.61 996.77 484.62 991.19 476.28   Q 985.13 467.19 974.91 453.19   Q 966.79 442.06 958.28 433.07   Q 955.89 430.55 947.21 420.19   C 942.59 414.67 937.27 409.24 932.13 405.42   Q 923.09 398.70 910.99 388.43   C 903.25 381.86 896.03 376.63 888.16 372.32   Q 873.96 364.54 864.20 358.65   Q 859.85 356.02 855.38 353.88   C 845.34 349.08 835.82 345.75 823.95 341.47   Q 810.24 336.52 801.30 334.17   C 749.25 320.45 692.59 320.36 640.98 336.49   Q 635.10 338.32 608.77 346.88   Q 602.93 348.78 597.60 351.67   Q 589.65 355.98 581.51 360.74   C 573.93 365.18 566.44 368.71 558.76 372.52   Q 555.48 374.15 553.64 375.65   C 542.06 385.07 533.89 391.74 524.35 398.87   Q 517.27 404.16 511.57 410.07   Q 493.04 429.26 490.81 431.80   C 486.86 436.29 484.81 438.47 481.83 442.47   Q 471.85 455.86 468.86 459.36   Q 461.65 467.79 456.44 477.46   Q 448.90 491.47 444.68 498.85   Q 437.99 510.55 435.09 517.20   Q 428.19 532.99 426.99 536.26   Q 419.49 556.82 411.78 584.98   C 406.37 604.79 404.41 624.45 402.03 644.15   Q 400.24 659.02 400.30 674.41   C 400.43 703.58 401.76 730.69 406.94 758.33   Q 412.75 789.34 418.19 808.82   Q 426.91 840.05 444.74 878.03   Q 446.65 882.09 452.57 891.97   Q 457.19 899.68 459.64 904.22   Q 463.58 911.51 466.88 916.39   C 474.33 927.42 482.28 938.07 491.00 948.25   C 498.73 957.26 506.45 967.53 515.67 975.08   Q 525.30 982.96 528.23 985.54"/>
<path stroke="#bf94bc" d="M 927.75 981.64   Q 929.25 976.15 927.62 970.39   Q 928.52 974.93 928.39 978.75   A 0.23 0.21 87.0 0 1 928.22 978.96   L 927.47 979.12   A 0.24 0.24 0.0 0 1 927.18 978.87   Q 927.77 971.75 926.09 964.72   Q 924.47 957.96 921.96 944.85   Q 920.31 936.26 917.31 927.93   Q 908.73 904.11 895.40 881.62   C 893.09 877.72 890.63 874.63 888.50 871.24   Q 886.54 868.13 882.91 863.77   Q 869.98 848.23 856.12 836.26   A 1.89 1.85 79.3 0 0 855.82 836.05   Q 853.89 834.94 852.33 833.03   A 2.00 1.96 -0.7 0 0 851.88 832.60   Q 844.56 827.46 838.63 823.16   Q 833.89 819.72 818.27 810.77   Q 807.69 804.70 794.09 800.17   C 780.85 795.77 767.79 792.18 753.38 790.46   Q 741.74 789.07 741.49 789.05   C 731.46 788.37 717.77 788.36 706.23 789.92   Q 686.84 792.54 670.48 797.23   C 656.72 801.17 645.24 806.61 632.06 813.61   Q 622.48 818.70 615.22 823.93   Q 592.99 839.94 578.65 856.65   Q 552.82 886.76 538.78 924.79   Q 530.49 947.25 528.78 972.40   A 6.45 6.21 55.2 0 1 528.60 973.52   Q 527.11 979.50 528.23 985.54"/>
<path stroke="#514caa" d="M 368.19 858.54   Q 368.45 858.64 368.61 858.88   Q 369.60 860.35 369.76 860.99   Q 370.34 863.31 371.66 864.94   A 1.46 0.44 -87.5 0 1 371.89 865.85   Q 371.90 866.12 372.10 866.44   Q 376.21 873.06 380.83 879.21   Q 385.77 885.80 389.82 891.72   Q 395.47 899.98 399.99 905.10   Q 403.01 908.53 404.87 909.97   C 409.50 913.59 414.66 918.60 419.70 922.34   Q 424.13 925.62 428.82 929.56   C 437.51 936.86 447.24 942.58 457.21 947.39   Q 459.06 948.28 461.17 948.71   A 0.62 0.62 0.0 0 0 461.91 947.98   Q 461.71 947.01 461.14 946.17   Q 457.83 941.26 450.76 931.18   A 1.65 1.64 -5.0 0 0 450.08 930.61   Q 449.37 930.28 449.13 929.90   Q 445.34 923.76 443.75 921.57   Q 443.70 921.50 443.65 921.19   Q 443.60 920.87 443.54 920.78   Q 437.12 911.95 431.92 902.06   Q 429.36 897.18 419.00 875.76   C 418.60 874.94 418.62 874.11 418.30 873.48   Q 411.89 861.12 405.52 843.00   Q 395.17 813.58 389.43 785.43   Q 383.51 756.41 381.48 735.87   Q 379.55 716.41 379.20 709.49   C 378.96 704.72 379.15 700.29 378.67 696.17   Q 378.07 691.07 378.04 684.41   A 0.41 0.41 0.0 0 0 377.28 684.20   Q 374.88 688.17 371.95 691.90   Q 369.28 695.29 366.56 701.55   Q 365.04 705.06 358.96 720.76   Q 354.47 732.34 352.87 740.43   Q 350.68 751.44 349.53 758.05   C 346.60 774.82 348.23 793.31 351.43 809.86   Q 353.33 819.69 358.78 834.29   Q 367.18 856.78 367.91 858.28   A 0.56 0.54 -1.1 0 0 368.19 858.54"/>
<path stroke="#514caa" d="M 1039.81 913.18   Q 1039.89 913.01 1040.18 912.67   C 1043.07 909.33 1046.89 906.61 1050.28 902.80   Q 1056.99 895.28 1065.49 883.43   Q 1071.06 875.69 1072.95 871.72   Q 1074.52 868.41 1075.51 867.10   Q 1078.58 862.98 1078.68 862.83   A 4.00 3.89 72.0 0 0 1079.25 861.67   Q 1079.91 859.54 1081.13 857.26   Q 1082.66 854.41 1083.46 852.38   Q 1092.70 828.77 1096.78 809.82   Q 1099.45 797.44 1099.98 780.49   C 1100.46 765.36 1097.27 750.46 1094.11 735.86   Q 1092.80 729.83 1089.78 722.26   Q 1085.62 711.80 1084.08 707.92   Q 1080.41 698.68 1078.63 695.77   Q 1074.90 689.64 1070.95 684.76   A 0.48 0.48 0.0 0 0 1070.10 685.06   C 1070.15 703.98 1068.57 724.37 1065.94 746.79   Q 1064.55 758.70 1061.96 772.63   C 1057.59 796.12 1052.62 815.64 1045.21 839.98   Q 1041.69 851.55 1033.80 869.04   Q 1032.59 871.72 1028.93 880.15   C 1023.01 893.78 1016.11 907.33 1008.36 918.87   C 1005.70 922.83 1004.32 925.59 1001.22 929.80   Q 999.68 931.89 997.51 935.84   A 5.37 4.38 84.2 0 1 997.01 936.60   Q 992.88 941.79 990.01 946.84   A 0.75 0.75 0.0 0 0 991.02 947.86   Q 991.44 947.62 1003.64 940.75   C 1009.61 937.39 1013.80 934.21 1019.73 930.08   C 1022.30 928.29 1024.52 925.93 1027.41 924.06   Q 1027.46 924.02 1027.51 923.98   L 1039.27 913.85   A 2.39 2.24 85.7 0 0 1039.81 913.18"/>
<path stroke="#514caa" d="M 820.01 1101.98   Q 823.36 1097.33 824.58 1096.51   C 830.25 1092.69 835.62 1097.77 840.10 1101.10   C 843.71 1103.78 846.06 1104.91 850.14 1105.12   Q 856.86 1105.45 862.47 1101.62   C 871.22 1095.63 871.54 1084.25 869.06 1074.78   Q 867.51 1068.82 864.00 1064.59   C 861.02 1061.01 855.33 1054.73 850.89 1056.38   C 847.09 1057.80 843.95 1059.25 840.57 1060.30   C 830.71 1063.37 820.05 1067.87 810.34 1070.08   Q 797.02 1073.10 789.35 1074.35   C 785.83 1074.92 785.01 1079.40 784.78 1082.53   C 784.17 1090.95 786.13 1100.06 792.56 1105.20   C 801.62 1112.44 812.93 1111.78 820.01 1101.98"/>
<path stroke="#514caa" d="M 637.70 1105.22   C 641.41 1109.11 650.70 1111.05 656.05 1108.56   C 662.10 1105.75 668.89 1099.79 669.05 1092.96   C 669.20 1086.31 669.95 1080.31 667.37 1076.11   A 3.58 3.57 -9.5 0 0 665.11 1074.50   Q 659.51 1073.25 655.40 1072.60   Q 643.15 1070.66 626.68 1064.90   Q 615.33 1060.93 614.72 1060.73   Q 608.87 1058.86 602.67 1056.73   Q 600.20 1055.89 597.88 1057.89   C 593.43 1061.73 589.13 1065.42 586.86 1070.07   Q 581.98 1080.09 584.84 1092.14   A 4.37 4.17 23.1 0 0 585.42 1093.49   L 589.24 1099.35   A 1.76 1.75 3.3 0 0 589.67 1099.83   Q 592.82 1102.37 594.87 1103.08   Q 600.63 1105.08 607.53 1104.35   A 7.38 7.30 -60.9 0 0 609.97 1103.64   Q 614.67 1101.32 615.32 1100.79   C 620.14 1096.83 624.62 1092.58 630.16 1097.07   Q 633.29 1099.60 637.58 1105.07   A 1.60 0.53 63.9 0 0 637.70 1105.22"/>
<path stroke="#605fb2" d="M 668.26 679.21   Q 668.57 683.50 670.78 689.24   Q 676.59 704.31 679.35 709.39   Q 679.75 710.13 679.96 710.08   A 0.16 0.15 -11.7 0 1 680.14 710.19   L 680.71 712.84   A 0.03 0.02 44.0 0 0 680.76 712.84   Q 680.79 712.64 680.86 712.50   A 0.18 0.18 0.0 0 1 681.18 712.50   Q 687.12 723.54 697.11 732.64   Q 705.38 740.17 708.90 743.32   Q 711.80 745.93 720.23 750.71   Q 723.32 752.47 728.48 754.45   C 732.78 756.10 739.23 758.97 745.87 760.87   C 753.88 763.16 759.78 763.67 767.74 762.47   C 778.43 760.87 784.55 756.07 788.90 745.92   Q 800.01 720.02 795.10 693.55"/>
<path stroke="#c1b4de" d="M 795.10 693.55   C 800.70 697.38 806.39 701.66 812.12 704.48   Q 824.22 710.44 837.24 715.00   C 837.83 715.21 838.66 715.09 839.26 715.30   Q 846.02 717.75 854.96 718.87   Q 862.26 719.79 871.07 720.10   Q 885.96 720.63 901.24 717.95   Q 916.49 715.28 930.14 709.16   Q 971.77 690.50 994.48 651.74   Q 998.38 645.09 999.41 642.95   Q 1000.87 639.92 1005.42 628.29   Q 1007.96 621.77 1008.83 615.69   C 1009.82 608.77 1012.09 599.15 1012.10 591.03   Q 1012.11 576.93 1010.84 567.13   C 1009.96 560.32 1007.52 552.08 1006.07 545.41   Q 1004.53 538.31 1001.26 531.50   A 3.38 3.23 -79.3 0 0 1000.85 530.87   Q 999.89 529.71 999.29 527.59   A 3.76 3.49 -69.4 0 0 998.95 526.76   Q 990.60 511.43 980.75 498.50   Q 977.52 494.25 974.79 491.48   Q 955.95 472.39 931.69 461.57   Q 922.43 457.45 917.11 455.65   Q 906.24 451.98 886.10 449.42   C 879.38 448.57 872.67 449.55 863.77 450.10   Q 854.39 450.69 845.57 452.78   Q 802.07 463.13 773.16 496.44   Q 751.91 520.93 744.33 552.78   Q 741.67 563.98 740.30 574.50   Q 739.56 580.22 740.14 586.04"/>
<path stroke="#605fb2" d="M 740.14 586.04   Q 728.09 586.71 724.03 587.56   Q 719.09 588.58 707.82 593.02"/>
<path stroke="#c1b4de" d="M 707.82 593.02   Q 708.64 587.91 708.35 583.87   Q 707.62 573.97 706.59 565.64   Q 705.16 554.15 704.40 551.61   C 703.10 547.28 702.15 543.52 700.01 538.79   C 696.26 530.49 694.08 524.73 690.03 517.82   Q 681.84 503.88 673.80 494.96   Q 661.43 481.22 644.04 469.83   C 631.28 461.48 617.75 456.35 603.46 453.03   Q 558.18 442.54 515.97 461.78   Q 504.19 467.15 491.04 476.65   C 478.13 485.98 467.20 498.41 458.40 511.64   C 450.17 524.01 443.58 538.30 440.34 552.86   Q 438.25 562.28 437.50 567.00   Q 435.20 581.38 436.79 598.60   Q 437.18 602.82 438.23 607.53   C 440.03 615.64 440.82 622.52 443.59 629.47   Q 448.96 642.90 450.77 646.24   Q 466.06 674.49 493.61 695.33   C 496.78 697.73 501.42 700.26 504.37 702.18   Q 508.95 705.17 512.81 706.85   Q 524.42 711.90 534.59 714.91   Q 553.98 720.63 576.26 720.02   Q 601.87 719.32 625.78 709.60   Q 633.53 706.45 634.43 706.01   Q 636.26 705.13 642.52 701.26   Q 655.83 693.03 665.47 682.64   Q 667.13 680.84 668.26 679.21"/>
<path stroke="#9a869c" d="M 707.82 593.02   Q 704.37 594.96 700.93 596.97   Q 691.41 602.52 685.22 611.17   Q 677.40 622.12 671.64 638.59   C 667.30 651.01 667.96 665.62 668.26 679.21"/>
<path stroke="#9a869c" d="M 795.10 693.55   L 793.37 687.52   A 1.22 1.22 0.0 0 1 794.36 685.98   Q 804.01 684.50 813.20 683.78   Q 821.85 683.11 827.35 677.24"/>
<path stroke="#fdede3" d="M 827.35 677.24   Q 828.55 677.29 830.34 676.22   A 1.01 1.00 40.1 0 1 831.22 676.15   Q 833.57 677.10 837.25 678.71   C 872.53 694.21 915.52 686.09 944.20 660.83   Q 963.26 644.04 973.25 620.63   Q 982.88 598.06 981.58 572.00   Q 980.64 553.06 972.65 535.12   C 960.16 507.06 938.95 487.23 910.34 477.25   Q 901.86 474.29 897.70 473.40   C 876.72 468.91 855.54 470.90 835.74 479.46   Q 804.01 493.18 786.68 521.65   C 778.57 534.97 772.55 550.43 771.18 565.94   Q 770.54 573.23 770.64 577.25   Q 770.82 584.55 770.73 592.02"/>
<path stroke="#9a869c" d="M 770.73 592.02   Q 756.18 586.75 740.14 586.04"/>
<path stroke="#9c98b8" d="M 827.35 677.24   C 838.01 663.53 825.67 640.31 817.00 628.46   Q 811.03 620.28 806.33 615.15   Q 796.86 604.78 783.90 598.12   Q 775.25 593.67 770.73 592.02"/>
<path stroke="#787aec" d="M 653.01 695.47   L 653.52 696.03   A 0.16 0.16 0.0 0 0 653.74 696.05   L 656.05 693.99   A 7.45 0.48 -41.7 0 0 661.29 688.68   L 661.21 688.59   A 7.45 0.48 -41.7 0 0 655.33 693.18   L 653.03 695.24   A 0.16 0.16 0.0 0 0 653.01 695.47"/>
<path stroke="#fdede3" d="M 680.46 580.08   Q 681.34 567.95 677.59 555.43   Q 674.08 543.73 673.01 540.73   Q 667.53 525.39 657.80 512.25   Q 655.20 508.74 650.46 504.35   C 642.06 496.57 633.73 489.44 623.97 483.82   Q 614.64 478.45 602.92 475.27   Q 585.01 470.41 566.89 471.46   Q 549.22 472.50 531.88 480.28   Q 495.11 496.78 477.62 535.30   Q 470.21 551.64 468.91 567.80   Q 465.79 606.83 485.78 637.43   C 511.29 676.48 557.94 695.05 603.13 682.32   C 615.93 678.72 627.88 671.36 638.84 663.56   Q 642.87 660.70 646.14 657.39   Q 651.84 651.63 652.62 650.36   Q 658.46 640.82 663.92 633.98   Q 668.47 628.30 670.38 624.10   Q 673.81 616.58 674.68 613.04   Q 676.89 604.09 678.14 596.67   Q 680.10 585.06 680.46 580.08"/>
<path stroke="#9c98b8" d="M 863.39 640.95   Q 871.61 641.45 878.14 640.37   C 894.28 637.71 909.20 626.82 918.49 613.68   C 931.33 595.51 932.49 565.93 920.45 547.12   C 915.17 538.85 908.86 531.50 900.45 526.40   C 890.66 520.46 882.37 517.53 870.87 516.84   C 859.38 516.15 850.80 518.06 840.37 522.78   C 831.40 526.83 824.25 533.37 818.02 540.95   C 803.81 558.17 801.41 587.68 811.97 607.26   C 819.62 621.42 833.12 634.02 848.83 638.60   Q 855.18 640.46 863.39 640.95"/>
<path stroke="#9c98b8" d="M 604.4507 516.9450   A 62.16 61.95 -85.7 0 0 538.0144 574.2851   A 62.16 61.95 -85.7 0 0 595.1293 640.9150   A 62.16 61.95 -85.7 0 0 661.5656 583.5749   A 62.16 61.95 -85.7 0 0 604.4507 516.9450"/>
<path stroke="#9c98b8" d="M 643.00 553.38   A 19.98 19.98 0.0 0 0 623.02 533.40   A 19.98 19.98 0.0 0 0 603.04 553.38   A 19.98 19.98 0.0 0 0 623.02 573.36   A 19.98 19.98 0.0 0 0 643.00 553.38"/>
<path stroke="#9c98b8" d="M 871.3307 546.7369   A 20.09 19.73 -160.6 0 0 883.7265 572.0198   A 20.09 19.73 -160.6 0 0 909.2293 560.0831   A 20.09 19.73 -160.6 0 0 896.8335 534.8002   A 20.09 19.73 -160.6 0 0 871.3307 546.7369"/>
<path stroke="#98677a" d="M 810.00 662.35   Q 807.16 653.49 801.43 643.89   C 795.44 633.86 785.66 625.13 775.91 618.72   Q 766.33 612.41 757.57 610.20   Q 746.33 607.36 734.52 607.67   C 722.41 607.99 710.92 613.87 702.83 623.54   Q 697.68 629.70 696.65 631.68   C 692.57 639.57 690.92 647.12 690.17 656.04   Q 689.61 662.63 688.89 671.66   A 2.70 2.69 17.2 0 0 690.23 674.20   C 702.03 681.01 713.50 680.86 727.32 679.06   Q 746.04 676.63 769.41 670.43   C 773.22 669.42 778.33 668.51 782.93 667.16   Q 795.51 663.46 809.32 663.29   A 0.72 0.72 0.0 0 0 810.00 662.35"/>
<path stroke="#98677a" d="M 704.12 708.89   Q 704.12 708.92 704.09 709.08   A 0.18 0.14 38.0 0 0 704.12 709.20   Q 709.51 716.93 713.56 720.45   Q 729.60 734.37 750.23 740.03   Q 757.26 741.96 764.13 741.37   A 2.07 2.05 2.3 0 0 765.98 739.68   Q 766.94 734.22 764.59 728.90   C 758.39 714.82 746.09 708.82 731.77 705.95   C 723.39 704.28 712.96 705.51 704.80 707.82   A 0.95 0.95 0.0 0 0 704.12 708.89"/>
</g>
<path xmlns="http://www.w3.org/2000/svg" fill="#feffff" d="M 1448.00 0.00   L 1448.00 1448.00   L 0.00 1448.00   L 0.00 0.00   L 1448.00 0.00   Z   M 877.98 1044.20   C 882.35 1042.04 887.33 1038.55 893.06 1035.35   Q 906.42 1027.88 913.85 1022.09   C 932.97 1007.19 944.24 998.94 957.43 984.69   Q 959.50 982.46 961.89 981.84   Q 977.25 977.88 984.96 974.70   Q 1015.01 962.32 1041.02 942.02   C 1054.99 931.12 1066.29 918.87 1077.95 904.45   Q 1085.68 894.88 1091.93 883.95   C 1102.07 866.20 1110.52 848.15 1115.39 828.70   Q 1121.66 803.66 1122.13 779.31   C 1122.24 773.96 1121.40 766.65 1121.30 762.14   Q 1121.18 756.62 1119.82 749.38   Q 1117.29 735.91 1116.78 733.75   Q 1113.50 719.69 1108.25 706.55   Q 1105.17 698.85 1098.57 687.03   Q 1090.56 672.66 1087.37 668.17   Q 1079.46 657.04 1069.24 646.61   A 3.76 3.75 -68.3 0 1 1068.17 644.11   Q 1067.64 630.40 1065.19 616.26   Q 1057.98 574.64 1046.02 538.70   Q 1042.81 529.05 1040.48 523.98   Q 1028.83 498.71 1027.16 495.13   C 1024.81 490.09 1022.59 486.15 1020.28 481.63   Q 1018.23 477.64 1014.49 471.95   Q 1008.49 462.84 1002.79 453.53   C 994.65 440.27 982.96 426.52 972.17 414.24   Q 967.67 409.12 949.81 392.05   C 940.91 383.55 930.75 375.03 923.14 369.73   C 909.59 360.29 898.73 352.28 884.53 344.29   Q 861.16 331.13 834.72 321.55   Q 782.38 302.58 727.72 301.86   C 697.51 301.46 666.83 305.94 638.45 313.47   Q 616.94 319.17 594.29 329.21   Q 587.12 332.39 575.01 338.17   C 561.11 344.80 551.57 351.64 537.13 361.27   Q 527.41 367.75 518.48 374.96   Q 480.84 405.34 452.79 443.20   C 448.21 449.39 444.27 455.77 439.77 462.28   Q 435.59 468.35 430.67 477.01   C 410.94 511.73 396.81 548.25 388.55 586.92   Q 384.02 608.18 383.21 612.97   Q 380.49 629.12 379.99 645.04   A 3.19 3.17 68.7 0 1 379.05 647.20   Q 373.81 652.44 368.32 658.28   Q 365.30 661.49 359.01 671.23   Q 351.01 683.59 343.65 698.88   C 334.92 716.98 330.10 736.17 327.52 755.51   Q 323.67 784.47 330.17 817.30   C 334.98 841.62 344.18 862.96 356.99 884.57   C 368.13 903.36 382.21 919.40 397.42 933.57   Q 405.43 941.04 411.91 945.58   C 422.72 953.17 434.22 960.74 445.89 966.62   Q 465.55 976.53 490.44 982.83   Q 493.04 983.49 494.82 985.44   Q 506.78 998.50 523.27 1011.15   Q 527.83 1014.64 539.35 1022.91   Q 550.71 1031.06 555.89 1033.86   Q 567.25 1040.01 575.28 1044.46   A 1.40 1.39 33.7 0 1 575.70 1046.54   C 568.72 1055.45 563.56 1064.64 561.86 1076.26   Q 558.65 1098.13 573.24 1114.37   C 585.54 1128.04 604.16 1130.68 621.07 1123.57   Q 623.34 1122.61 624.90 1123.70   Q 645.95 1138.42 667.85 1127.85   Q 674.35 1124.71 678.21 1120.96   C 689.33 1110.14 693.50 1094.50 691.24 1079.28   A 0.46 0.46 0.0 0 1 691.75 1078.75   Q 727.52 1082.71 762.45 1078.82   A 0.89 0.88 2.2 0 1 763.42 1079.86   Q 760.26 1096.71 768.47 1111.01   C 775.08 1122.52 785.22 1129.38 797.99 1131.80   C 808.14 1133.72 818.94 1130.37 827.30 1124.73   C 828.89 1123.66 830.84 1122.85 832.46 1123.51   C 852.35 1131.70 874.31 1126.93 886.12 1108.13   C 894.43 1094.92 894.56 1077.38 888.85 1063.04   C 886.47 1057.08 882.02 1050.53 877.69 1045.71   A 0.97 0.97 0.0 0 1 877.98 1044.20   Z   M 1205.46 468.20   Q 1208.13 480.56 1208.62 483.53   Q 1211.65 501.75 1210.36 521.76   Q 1207.87 560.28 1191.10 595.22   Q 1188.67 600.28 1188.44 602.40   C 1187.17 613.73 1199.78 618.70 1207.28 611.14   Q 1208.22 610.19 1212.08 602.32   Q 1215.98 594.37 1216.42 593.21   Q 1226.94 565.66 1230.30 541.97   Q 1234.64 511.36 1230.37 480.31   Q 1228.74 468.46 1227.85 463.96   Q 1224.79 448.52 1220.44 438.01   Q 1213.70 421.71 1212.11 418.38   Q 1202.11 397.39 1190.59 381.98   C 1181.67 370.06 1171.89 360.52 1160.90 349.84   C 1153.24 342.38 1142.82 335.33 1134.43 329.88   C 1128.38 325.95 1122.31 323.22 1116.32 328.26   C 1111.81 332.06 1111.00 341.61 1116.76 344.92   Q 1124.45 349.35 1127.84 351.81   Q 1134.62 356.76 1148.84 368.58   C 1155.38 374.02 1160.28 379.65 1164.71 385.04   C 1179.74 403.28 1192.24 423.55 1199.94 446.02   C 1202.35 453.06 1204.38 463.21 1205.46 468.20   Z   M 1147.83 431.23   C 1138.74 417.16 1126.60 404.73 1113.58 393.68   Q 1107.23 388.29 1097.96 383.33   C 1087.55 377.76 1077.30 388.44 1083.05 398.65   Q 1084.27 400.80 1088.41 403.37   C 1101.25 411.35 1112.86 420.29 1121.59 432.70   Q 1127.19 440.65 1131.98 448.80   Q 1137.45 458.11 1140.30 466.01   Q 1150.46 494.08 1147.66 525.19   Q 1146.71 535.75 1144.10 543.89   Q 1140.85 554.08 1134.44 569.68   C 1130.93 578.24 1138.49 588.08 1147.90 584.50   Q 1152.86 582.61 1155.65 576.86   C 1162.88 561.95 1167.56 543.98 1169.39 527.99   C 1172.34 502.25 1168.00 476.75 1158.59 452.92   C 1156.72 448.17 1154.23 443.54 1152.77 440.36   Q 1150.43 435.25 1147.83 431.23   Z   M 1088.06 494.14   C 1092.28 508.78 1091.39 525.99 1083.82 539.49   Q 1081.15 544.25 1081.05 546.43   C 1080.62 556.36 1091.26 561.65 1098.95 555.49   Q 1100.99 553.85 1103.28 549.35   C 1113.14 529.92 1115.11 508.87 1109.12 488.07   C 1103.13 467.27 1090.26 450.50 1071.58 439.29   Q 1067.24 436.70 1064.65 436.39   C 1054.86 435.27 1048.66 445.41 1054.31 453.59   Q 1055.55 455.38 1060.34 457.99   C 1073.94 465.40 1083.84 479.49 1088.06 494.14   Z"/>
<path xmlns="http://www.w3.org/2000/svg" fill="#393170" d="M 877.98 1044.20   A 0.97 0.97 0.0 0 0 877.69 1045.71   C 882.02 1050.53 886.47 1057.08 888.85 1063.04   C 894.56 1077.38 894.43 1094.92 886.12 1108.13   C 874.31 1126.93 852.35 1131.70 832.46 1123.51   C 830.84 1122.85 828.89 1123.66 827.30 1124.73   C 818.94 1130.37 808.14 1133.72 797.99 1131.80   C 785.22 1129.38 775.08 1122.52 768.47 1111.01   Q 760.26 1096.71 763.42 1079.86   A 0.89 0.88 2.2 0 0 762.45 1078.82   Q 727.52 1082.71 691.75 1078.75   A 0.46 0.46 0.0 0 0 691.24 1079.28   C 693.50 1094.50 689.33 1110.14 678.21 1120.96   Q 674.35 1124.71 667.85 1127.85   Q 645.95 1138.42 624.90 1123.70   Q 623.34 1122.61 621.07 1123.57   C 604.16 1130.68 585.54 1128.04 573.24 1114.37   Q 558.65 1098.13 561.86 1076.26   C 563.56 1064.64 568.72 1055.45 575.70 1046.54   A 1.40 1.39 33.7 0 0 575.28 1044.46   Q 567.25 1040.01 555.89 1033.86   Q 550.71 1031.06 539.35 1022.91   Q 527.83 1014.64 523.27 1011.15   Q 506.78 998.50 494.82 985.44   Q 493.04 983.49 490.44 982.83   Q 465.55 976.53 445.89 966.62   C 434.22 960.74 422.72 953.17 411.91 945.58   Q 405.43 941.04 397.42 933.57   C 382.21 919.40 368.13 903.36 356.99 884.57   C 344.18 862.96 334.98 841.62 330.17 817.30   Q 323.67 784.47 327.52 755.51   C 330.10 736.17 334.92 716.98 343.65 698.88   Q 351.01 683.59 359.01 671.23   Q 365.30 661.49 368.32 658.28   Q 373.81 652.44 379.05 647.20   A 3.19 3.17 68.7 0 0 379.99 645.04   Q 380.49 629.12 383.21 612.97   Q 384.02 608.18 388.55 586.92   C 396.81 548.25 410.94 511.73 430.67 477.01   Q 435.59 468.35 439.77 462.28   C 444.27 455.77 448.21 449.39 452.79 443.20   Q 480.84 405.34 518.48 374.96   Q 527.41 367.75 537.13 361.27   C 551.57 351.64 561.11 344.80 575.01 338.17   Q 587.12 332.39 594.29 329.21   Q 616.94 319.17 638.45 313.47   C 666.83 305.94 697.51 301.46 727.72 301.86   Q 782.38 302.58 834.72 321.55   Q 861.16 331.13 884.53 344.29   C 898.73 352.28 909.59 360.29 923.14 369.73   C 930.75 375.03 940.91 383.55 949.81 392.05   Q 967.67 409.12 972.17 414.24   C 982.96 426.52 994.65 440.27 1002.79 453.53   Q 1008.49 462.84 1014.49 471.95   Q 1018.23 477.64 1020.28 481.63   C 1022.59 486.15 1024.81 490.09 1027.16 495.13   Q 1028.83 498.71 1040.48 523.98   Q 1042.81 529.05 1046.02 538.70   Q 1057.98 574.64 1065.19 616.26   Q 1067.64 630.40 1068.17 644.11   A 3.76 3.75 -68.3 0 0 1069.24 646.61   Q 1079.46 657.04 1087.37 668.17   Q 1090.56 672.66 1098.57 687.03   Q 1105.17 698.85 1108.25 706.55   Q 1113.50 719.69 1116.78 733.75   Q 1117.29 735.91 1119.82 749.38   Q 1121.18 756.62 1121.30 762.14   C 1121.40 766.65 1122.24 773.96 1122.13 779.31   Q 1121.66 803.66 1115.39 828.70   C 1110.52 848.15 1102.07 866.20 1091.93 883.95   Q 1085.68 894.88 1077.95 904.45   C 1066.29 918.87 1054.99 931.12 1041.02 942.02   Q 1015.01 962.32 984.96 974.70   Q 977.25 977.88 961.89 981.84   Q 959.50 982.46 957.43 984.69   C 944.24 998.94 932.97 1007.19 913.85 1022.09   Q 906.42 1027.88 893.06 1035.35   C 887.33 1038.55 882.35 1042.04 877.98 1044.20   Z   M 528.23 985.54   Q 540.92 997.35 555.68 1006.81   Q 572.17 1017.37 580.71 1021.83   Q 628.49 1046.79 681.93 1054.82   C 695.84 1056.91 711.67 1057.72 724.50 1057.85   C 764.04 1058.24 803.66 1051.48 840.25 1036.70   Q 855.32 1030.62 867.53 1024.27   C 882.80 1016.34 896.19 1007.02 911.25 996.51   Q 916.01 993.18 927.75 981.64   C 932.23 977.64 937.55 973.58 941.35 969.69   C 944.56 966.40 947.49 963.72 950.44 960.01   Q 957.90 950.67 965.88 941.16   Q 968.78 937.70 982.15 919.91   Q 983.92 917.55 984.86 915.68   C 986.80 911.80 989.31 908.67 991.22 904.83   Q 993.32 900.58 999.78 888.71   A 0.61 0.60 -85.8 0 1 1000.11 888.42   Q 1000.59 888.24 1000.83 887.60   Q 1002.13 884.13 1003.55 881.63   Q 1006.46 876.50 1006.70 875.85   C 1008.30 871.47 1010.74 867.41 1012.69 862.68   C 1015.62 855.55 1019.31 847.19 1021.94 839.14   Q 1027.82 821.15 1030.56 811.32   Q 1035.96 792.00 1041.23 762.99   Q 1046.18 735.70 1047.11 705.01   Q 1047.53 690.93 1047.60 672.20   C 1047.61 666.87 1047.13 663.24 1047.03 658.47   Q 1046.96 655.30 1046.11 648.20   C 1044.96 638.56 1043.82 624.57 1041.89 613.33   Q 1038.12 591.30 1036.58 583.64   Q 1036.12 581.39 1033.34 573.97   C 1029.19 562.87 1026.00 552.26 1020.23 534.11   Q 1019.04 530.38 1017.39 526.66   Q 1016.70 525.10 1014.16 519.33   Q 1010.83 511.76 1005.19 502.41   C 999.89 493.61 996.77 484.62 991.19 476.28   Q 985.13 467.19 974.91 453.19   Q 966.79 442.06 958.28 433.07   Q 955.89 430.55 947.21 420.19   C 942.59 414.67 937.27 409.24 932.13 405.42   Q 923.09 398.70 910.99 388.43   C 903.25 381.86 896.03 376.63 888.16 372.32   Q 873.96 364.54 864.20 358.65   Q 859.85 356.02 855.38 353.88   C 845.34 349.08 835.82 345.75 823.95 341.47   Q 810.24 336.52 801.30 334.17   C 749.25 320.45 692.59 320.36 640.98 336.49   Q 635.10 338.32 608.77 346.88   Q 602.93 348.78 597.60 351.67   Q 589.65 355.98 581.51 360.74   C 573.93 365.18 566.44 368.71 558.76 372.52   Q 555.48 374.15 553.64 375.65   C 542.06 385.07 533.89 391.74 524.35 398.87   Q 517.27 404.16 511.57 410.07   Q 493.04 429.26 490.81 431.80   C 486.86 436.29 484.81 438.47 481.83 442.47   Q 471.85 455.86 468.86 459.36   Q 461.65 467.79 456.44 477.46   Q 448.90 491.47 444.68 498.85   Q 437.99 510.55 435.09 517.20   Q 428.19 532.99 426.99 536.26   Q 419.49 556.82 411.78 584.98   C 406.37 604.79 404.41 624.45 402.03 644.15   Q 400.24 659.02 400.30 674.41   C 400.43 703.58 401.76 730.69 406.94 758.33   Q 412.75 789.34 418.19 808.82   Q 426.91 840.05 444.74 878.03   Q 446.65 882.09 452.57 891.97   Q 457.19 899.68 459.64 904.22   Q 463.58 911.51 466.88 916.39   C 474.33 927.42 482.28 938.07 491.00 948.25   C 498.73 957.26 506.45 967.53 515.67 975.08   Q 525.30 982.96 528.23 985.54   Z   M 368.19 858.54   Q 368.45 858.64 368.61 858.88   Q 369.60 860.35 369.76 860.99   Q 370.34 863.31 371.66 864.94   A 1.46 0.44 -87.5 0 1 371.89 865.85   Q 371.90 866.12 372.10 866.44   Q 376.21 873.06 380.83 879.21   Q 385.77 885.80 389.82 891.72   Q 395.47 899.98 399.99 905.10   Q 403.01 908.53 404.87 909.97   C 409.50 913.59 414.66 918.60 419.70 922.34   Q 424.13 925.62 428.82 929.56   C 437.51 936.86 447.24 942.58 457.21 947.39   Q 459.06 948.28 461.17 948.71   A 0.62 0.62 0.0 0 0 461.91 947.98   Q 461.71 947.01 461.14 946.17   Q 457.83 941.26 450.76 931.18   A 1.65 1.64 -5.0 0 0 450.08 930.61   Q 449.37 930.28 449.13 929.90   Q 445.34 923.76 443.75 921.57   Q 443.70 921.50 443.65 921.19   Q 443.60 920.87 443.54 920.78   Q 437.12 911.95 431.92 902.06   Q 429.36 897.18 419.00 875.76   C 418.60 874.94 418.62 874.11 418.30 873.48   Q 411.89 861.12 405.52 843.00   Q 395.17 813.58 389.43 785.43   Q 383.51 756.41 381.48 735.87   Q 379.55 716.41 379.20 709.49   C 378.96 704.72 379.15 700.29 378.67 696.17   Q 378.07 691.07 378.04 684.41   A 0.41 0.41 0.0 0 0 377.28 684.20   Q 374.88 688.17 371.95 691.90   Q 369.28 695.29 366.56 701.55   Q 365.04 705.06 358.96 720.76   Q 354.47 732.34 352.87 740.43   Q 350.68 751.44 349.53 758.05   C 346.60 774.82 348.23 793.31 351.43 809.86   Q 353.33 819.69 358.78 834.29   Q 367.18 856.78 367.91 858.28   A 0.56 0.54 -1.1 0 0 368.19 858.54   Z   M 1039.81 913.18   Q 1039.89 913.01 1040.18 912.67   C 1043.07 909.33 1046.89 906.61 1050.28 902.80   Q 1056.99 895.28 1065.49 883.43   Q 1071.06 875.69 1072.95 871.72   Q 1074.52 868.41 1075.51 867.10   Q 1078.58 862.98 1078.68 862.83   A 4.00 3.89 72.0 0 0 1079.25 861.67   Q 1079.91 859.54 1081.13 857.26   Q 1082.66 854.41 1083.46 852.38   Q 1092.70 828.77 1096.78 809.82   Q 1099.45 797.44 1099.98 780.49   C 1100.46 765.36 1097.27 750.46 1094.11 735.86   Q 1092.80 729.83 1089.78 722.26   Q 1085.62 711.80 1084.08 707.92   Q 1080.41 698.68 1078.63 695.77   Q 1074.90 689.64 1070.95 684.76   A 0.48 0.48 0.0 0 0 1070.10 685.06   C 1070.15 703.98 1068.57 724.37 1065.94 746.79   Q 1064.55 758.70 1061.96 772.63   C 1057.59 796.12 1052.62 815.64 1045.21 839.98   Q 1041.69 851.55 1033.80 869.04   Q 1032.59 871.72 1028.93 880.15   C 1023.01 893.78 1016.11 907.33 1008.36 918.87   C 1005.70 922.83 1004.32 925.59 1001.22 929.80   Q 999.68 931.89 997.51 935.84   A 5.37 4.38 84.2 0 1 997.01 936.60   Q 992.88 941.79 990.01 946.84   A 0.75 0.75 0.0 0 0 991.02 947.86   Q 991.44 947.62 1003.64 940.75   C 1009.61 937.39 1013.80 934.21 1019.73 930.08   C 1022.30 928.29 1024.52 925.93 1027.41 924.06   Q 1027.46 924.02 1027.51 923.98   L 1039.27 913.85   A 2.39 2.24 85.7 0 0 1039.81 913.18   Z   M 820.01 1101.98   Q 823.36 1097.33 824.58 1096.51   C 830.25 1092.69 835.62 1097.77 840.10 1101.10   C 843.71 1103.78 846.06 1104.91 850.14 1105.12   Q 856.86 1105.45 862.47 1101.62   C 871.22 1095.63 871.54 1084.25 869.06 1074.78   Q 867.51 1068.82 864.00 1064.59   C 861.02 1061.01 855.33 1054.73 850.89 1056.38   C 847.09 1057.80 843.95 1059.25 840.57 1060.30   C 830.71 1063.37 820.05 1067.87 810.34 1070.08   Q 797.02 1073.10 789.35 1074.35   C 785.83 1074.92 785.01 1079.40 784.78 1082.53   C 784.17 1090.95 786.13 1100.06 792.56 1105.20   C 801.62 1112.44 812.93 1111.78 820.01 1101.98   Z   M 637.70 1105.22   C 641.41 1109.11 650.70 1111.05 656.05 1108.56   C 662.10 1105.75 668.89 1099.79 669.05 1092.96   C 669.20 1086.31 669.95 1080.31 667.37 1076.11   A 3.58 3.57 -9.5 0 0 665.11 1074.50   Q 659.51 1073.25 655.40 1072.60   Q 643.15 1070.66 626.68 1064.90   Q 615.33 1060.93 614.72 1060.73   Q 608.87 1058.86 602.67 1056.73   Q 600.20 1055.89 597.88 1057.89   C 593.43 1061.73 589.13 1065.42 586.86 1070.07   Q 581.98 1080.09 584.84 1092.14   A 4.37 4.17 23.1 0 0 585.42 1093.49   L 589.24 1099.35   A 1.76 1.75 3.3 0 0 589.67 1099.83   Q 592.82 1102.37 594.87 1103.08   Q 600.63 1105.08 607.53 1104.35   A 7.38 7.30 -60.9 0 0 609.97 1103.64   Q 614.67 1101.32 615.32 1100.79   C 620.14 1096.83 624.62 1092.58 630.16 1097.07   Q 633.29 1099.60 637.58 1105.07   A 1.60 0.53 63.9 0 0 637.70 1105.22   Z"/>
<path xmlns="http://www.w3.org/2000/svg" fill="#868cf4" d="M 927.75 981.64   Q 929.25 976.15 927.62 970.39   Q 928.52 974.93 928.39 978.75   A 0.23 0.21 87.0 0 1 928.22 978.96   L 927.47 979.12   A 0.24 0.24 0.0 0 1 927.18 978.87   Q 927.77 971.75 926.09 964.72   Q 924.47 957.96 921.96 944.85   Q 920.31 936.26 917.31 927.93   Q 908.73 904.11 895.40 881.62   C 893.09 877.72 890.63 874.63 888.50 871.24   Q 886.54 868.13 882.91 863.77   Q 869.98 848.23 856.12 836.26   A 1.89 1.85 79.3 0 0 855.82 836.05   Q 853.89 834.94 852.33 833.03   A 2.00 1.96 -0.7 0 0 851.88 832.60   Q 844.56 827.46 838.63 823.16   Q 833.89 819.72 818.27 810.77   Q 807.69 804.70 794.09 800.17   C 780.85 795.77 767.79 792.18 753.38 790.46   Q 741.74 789.07 741.49 789.05   C 731.46 788.37 717.77 788.36 706.23 789.92   Q 686.84 792.54 670.48 797.23   C 656.72 801.17 645.24 806.61 632.06 813.61   Q 622.48 818.70 615.22 823.93   Q 592.99 839.94 578.65 856.65   Q 552.82 886.76 538.78 924.79   Q 530.49 947.25 528.78 972.40   A 6.45 6.21 55.2 0 1 528.60 973.52   Q 527.11 979.50 528.23 985.54   Q 525.30 982.96 515.67 975.08   C 506.45 967.53 498.73 957.26 491.00 948.25   C 482.28 938.07 474.33 927.42 466.88 916.39   Q 463.58 911.51 459.64 904.22   Q 457.19 899.68 452.57 891.97   Q 446.65 882.09 444.74 878.03   Q 426.91 840.05 418.19 808.82   Q 412.75 789.34 406.94 758.33   C 401.76 730.69 400.43 703.58 400.30 674.41   Q 400.24 659.02 402.03 644.15   C 404.41 624.45 406.37 604.79 411.78 584.98   Q 419.49 556.82 426.99 536.26   Q 428.19 532.99 435.09 517.20   Q 437.99 510.55 444.68 498.85   Q 448.90 491.47 456.44 477.46   Q 461.65 467.79 468.86 459.36   Q 471.85 455.86 481.83 442.47   C 484.81 438.47 486.86 436.29 490.81 431.80   Q 493.04 429.26 511.57 410.07   Q 517.27 404.16 524.35 398.87   C 533.89 391.74 542.06 385.07 553.64 375.65   Q 555.48 374.15 558.76 372.52   C 566.44 368.71 573.93 365.18 581.51 360.74   Q 589.65 355.98 597.60 351.67   Q 602.93 348.78 608.77 346.88   Q 635.10 338.32 640.98 336.49   C 692.59 320.36 749.25 320.45 801.30 334.17   Q 810.24 336.52 823.95 341.47   C 835.82 345.75 845.34 349.08 855.38 353.88   Q 859.85 356.02 864.20 358.65   Q 873.96 364.54 888.16 372.32   C 896.03 376.63 903.25 381.86 910.99 388.43   Q 923.09 398.70 932.13 405.42   C 937.27 409.24 942.59 414.67 947.21 420.19   Q 955.89 430.55 958.28 433.07   Q 966.79 442.06 974.91 453.19   Q 985.13 467.19 991.19 476.28   C 996.77 484.62 999.89 493.61 1005.19 502.41   Q 1010.83 511.76 1014.16 519.33   Q 1016.70 525.10 1017.39 526.66   Q 1019.04 530.38 1020.23 534.11   C 1026.00 552.26 1029.19 562.87 1033.34 573.97   Q 1036.12 581.39 1036.58 583.64   Q 1038.12 591.30 1041.89 613.33   C 1043.82 624.57 1044.96 638.56 1046.11 648.20   Q 1046.96 655.30 1047.03 658.47   C 1047.13 663.24 1047.61 666.87 1047.60 672.20   Q 1047.53 690.93 1047.11 705.01   Q 1046.18 735.70 1041.23 762.99   Q 1035.96 792.00 1030.56 811.32   Q 1027.82 821.15 1021.94 839.14   C 1019.31 847.19 1015.62 855.55 1012.69 862.68   C 1010.74 867.41 1008.30 871.47 1006.70 875.85   Q 1006.46 876.50 1003.55 881.63   Q 1002.13 884.13 1000.83 887.60   Q 1000.59 888.24 1000.11 888.42   A 0.61 0.60 -85.8 0 0 999.78 888.71   Q 993.32 900.58 991.22 904.83   C 989.31 908.67 986.80 911.80 984.86 915.68   Q 983.92 917.55 982.15 919.91   Q 968.78 937.70 965.88 941.16   Q 957.90 950.67 950.44 960.01   C 947.49 963.72 944.56 966.40 941.35 969.69   C 937.55 973.58 932.23 977.64 927.75 981.64   Z   M 668.26 679.21   Q 668.57 683.50 670.78 689.24   Q 676.59 704.31 679.35 709.39   Q 679.75 710.13 679.96 710.08   A 0.16 0.15 -11.7 0 1 680.14 710.19   L 680.71 712.84   A 0.03 0.02 44.0 0 0 680.76 712.84   Q 680.79 712.64 680.86 712.50   A 0.18 0.18 0.0 0 1 681.18 712.50   Q 687.12 723.54 697.11 732.64   Q 705.38 740.17 708.90 743.32   Q 711.80 745.93 720.23 750.71   Q 723.32 752.47 728.48 754.45   C 732.78 756.10 739.23 758.97 745.87 760.87   C 753.88 763.16 759.78 763.67 767.74 762.47   C 778.43 760.87 784.55 756.07 788.90 745.92   Q 800.01 720.02 795.10 693.55   C 800.70 697.38 806.39 701.66 812.12 704.48   Q 824.22 710.44 837.24 715.00   C 837.83 715.21 838.66 715.09 839.26 715.30   Q 846.02 717.75 854.96 718.87   Q 862.26 719.79 871.07 720.10   Q 885.96 720.63 901.24 717.95   Q 916.49 715.28 930.14 709.16   Q 971.77 690.50 994.48 651.74   Q 998.38 645.09 999.41 642.95   Q 1000.87 639.92 1005.42 628.29   Q 1007.96 621.77 1008.83 615.69   C 1009.82 608.77 1012.09 599.15 1012.10 591.03   Q 1012.11 576.93 1010.84 567.13   C 1009.96 560.32 1007.52 552.08 1006.07 545.41   Q 1004.53 538.31 1001.26 531.50   A 3.38 3.23 -79.3 0 0 1000.85 530.87   Q 999.89 529.71 999.29 527.59   A 3.76 3.49 -69.4 0 0 998.95 526.76   Q 990.60 511.43 980.75 498.50   Q 977.52 494.25 974.79 491.48   Q 955.95 472.39 931.69 461.57   Q 922.43 457.45 917.11 455.65   Q 906.24 451.98 886.10 449.42   C 879.38 448.57 872.67 449.55 863.77 450.10   Q 854.39 450.69 845.57 452.78   Q 802.07 463.13 773.16 496.44   Q 751.91 520.93 744.33 552.78   Q 741.67 563.98 740.30 574.50   Q 739.56 580.22 740.14 586.04   Q 728.09 586.71 724.03 587.56   Q 719.09 588.58 707.82 593.02   Q 708.64 587.91 708.35 583.87   Q 707.62 573.97 706.59 565.64   Q 705.16 554.15 704.40 551.61   C 703.10 547.28 702.15 543.52 700.01 538.79   C 696.26 530.49 694.08 524.73 690.03 517.82   Q 681.84 503.88 673.80 494.96   Q 661.43 481.22 644.04 469.83   C 631.28 461.48 617.75 456.35 603.46 453.03   Q 558.18 442.54 515.97 461.78   Q 504.19 467.15 491.04 476.65   C 478.13 485.98 467.20 498.41 458.40 511.64   C 450.17 524.01 443.58 538.30 440.34 552.86   Q 438.25 562.28 437.50 567.00   Q 435.20 581.38 436.79 598.60   Q 437.18 602.82 438.23 607.53   C 440.03 615.64 440.82 622.52 443.59 629.47   Q 448.96 642.90 450.77 646.24   Q 466.06 674.49 493.61 695.33   C 496.78 697.73 501.42 700.26 504.37 702.18   Q 508.95 705.17 512.81 706.85   Q 524.42 711.90 534.59 714.91   Q 553.98 720.63 576.26 720.02   Q 601.87 719.32 625.78 709.60   Q 633.53 706.45 634.43 706.01   Q 636.26 705.13 642.52 701.26   Q 655.83 693.03 665.47 682.64   Q 667.13 680.84 668.26 679.21   Z   M 653.01 695.47   L 653.52 696.03   A 0.16 0.16 0.0 0 0 653.74 696.05   L 656.05 693.99   A 7.45 0.48 -41.7 0 0 661.29 688.68   L 661.21 688.59   A 7.45 0.48 -41.7 0 0 655.33 693.18   L 653.03 695.24   A 0.16 0.16 0.0 0 0 653.01 695.47   Z"/>
<path xmlns="http://www.w3.org/2000/svg" fill="#393170" d="M 1205.46 468.20   C 1204.38 463.21 1202.35 453.06 1199.94 446.02   C 1192.24 423.55 1179.74 403.28 1164.71 385.04   C 1160.28 379.65 1155.38 374.02 1148.84 368.58   Q 1134.62 356.76 1127.84 351.81   Q 1124.45 349.35 1116.76 344.92   C 1111.00 341.61 1111.81 332.06 1116.32 328.26   C 1122.31 323.22 1128.38 325.95 1134.43 329.88   C 1142.82 335.33 1153.24 342.38 1160.90 349.84   C 1171.89 360.52 1181.67 370.06 1190.59 381.98   Q 1202.11 397.39 1212.11 418.38   Q 1213.70 421.71 1220.44 438.01   Q 1224.79 448.52 1227.85 463.96   Q 1228.74 468.46 1230.37 480.31   Q 1234.64 511.36 1230.30 541.97   Q 1226.94 565.66 1216.42 593.21   Q 1215.98 594.37 1212.08 602.32   Q 1208.22 610.19 1207.28 611.14   C 1199.78 618.70 1187.17 613.73 1188.44 602.40   Q 1188.67 600.28 1191.10 595.22   Q 1207.87 560.28 1210.36 521.76   Q 1211.65 501.75 1208.62 483.53   Q 1208.13 480.56 1205.46 468.20   Z"/>
<path xmlns="http://www.w3.org/2000/svg" fill="#393170" d="M 1152.77 440.36   C 1154.23 443.54 1156.72 448.17 1158.59 452.92   C 1168.00 476.75 1172.34 502.25 1169.39 527.99   C 1167.56 543.98 1162.88 561.95 1155.65 576.86   Q 1152.86 582.61 1147.90 584.50   C 1138.49 588.08 1130.93 578.24 1134.44 569.68   Q 1140.85 554.08 1144.10 543.89   Q 1146.71 535.75 1147.66 525.19   Q 1150.46 494.08 1140.30 466.01   Q 1137.45 458.11 1131.98 448.80   Q 1127.19 440.65 1121.59 432.70   C 1112.86 420.29 1101.25 411.35 1088.41 403.37   Q 1084.27 400.80 1083.05 398.65   C 1077.30 388.44 1087.55 377.76 1097.96 383.33   Q 1107.23 388.29 1113.58 393.68   C 1126.60 404.73 1138.74 417.16 1147.83 431.23   Q 1150.43 435.25 1152.77 440.36   Z"/>
<path xmlns="http://www.w3.org/2000/svg" fill="#393170" d="M 1109.12 488.07   C 1115.11 508.87 1113.14 529.92 1103.28 549.35   Q 1100.99 553.85 1098.95 555.49   C 1091.26 561.65 1080.62 556.36 1081.05 546.43   Q 1081.15 544.25 1083.82 539.49   C 1091.39 525.99 1092.28 508.78 1088.06 494.14   C 1083.84 479.49 1073.94 465.40 1060.34 457.99   Q 1055.55 455.38 1054.31 453.59   C 1048.66 445.41 1054.86 435.27 1064.65 436.39   Q 1067.24 436.70 1071.58 439.29   C 1090.26 450.50 1103.13 467.27 1109.12 488.07   Z"/>
<path xmlns="http://www.w3.org/2000/svg" fill="#fbdbc7" d="M 707.82 593.02   Q 704.37 594.96 700.93 596.97   Q 691.41 602.52 685.22 611.17   Q 677.40 622.12 671.64 638.59   C 667.30 651.01 667.96 665.62 668.26 679.21   Q 667.13 680.84 665.47 682.64   Q 655.83 693.03 642.52 701.26   Q 636.26 705.13 634.43 706.01   Q 633.53 706.45 625.78 709.60   Q 601.87 719.32 576.26 720.02   Q 553.98 720.63 534.59 714.91   Q 524.42 711.90 512.81 706.85   Q 508.95 705.17 504.37 702.18   C 501.42 700.26 496.78 697.73 493.61 695.33   Q 466.06 674.49 450.77 646.24   Q 448.96 642.90 443.59 629.47   C 440.82 622.52 440.03 615.64 438.23 607.53   Q 437.18 602.82 436.79 598.60   Q 435.20 581.38 437.50 567.00   Q 438.25 562.28 440.34 552.86   C 443.58 538.30 450.17 524.01 458.40 511.64   C 467.20 498.41 478.13 485.98 491.04 476.65   Q 504.19 467.15 515.97 461.78   Q 558.18 442.54 603.46 453.03   C 617.75 456.35 631.28 461.48 644.04 469.83   Q 661.43 481.22 673.80 494.96   Q 681.84 503.88 690.03 517.82   C 694.08 524.73 696.26 530.49 700.01 538.79   C 702.15 543.52 703.10 547.28 704.40 551.61   Q 705.16 554.15 706.59 565.64   Q 707.62 573.97 708.35 583.87   Q 708.64 587.91 707.82 593.02   Z   M 680.46 580.08   Q 681.34 567.95 677.59 555.43   Q 674.08 543.73 673.01 540.73   Q 667.53 525.39 657.80 512.25   Q 655.20 508.74 650.46 504.35   C 642.06 496.57 633.73 489.44 623.97 483.82   Q 614.64 478.45 602.92 475.27   Q 585.01 470.41 566.89 471.46   Q 549.22 472.50 531.88 480.28   Q 495.11 496.78 477.62 535.30   Q 470.21 551.64 468.91 567.80   Q 465.79 606.83 485.78 637.43   C 511.29 676.48 557.94 695.05 603.13 682.32   C 615.93 678.72 627.88 671.36 638.84 663.56   Q 642.87 660.70 646.14 657.39   Q 651.84 651.63 652.62 650.36   Q 658.46 640.82 663.92 633.98   Q 668.47 628.30 670.38 624.10   Q 673.81 616.58 674.68 613.04   Q 676.89 604.09 678.14 596.67   Q 680.10 585.06 680.46 580.08   Z"/>
<path xmlns="http://www.w3.org/2000/svg" fill="#fbdbc7" d="M 795.10 693.55   L 793.37 687.52   A 1.22 1.22 0.0 0 1 794.36 685.98   Q 804.01 684.50 813.20 683.78   Q 821.85 683.11 827.35 677.24   Q 828.55 677.29 830.34 676.22   A 1.01 1.00 40.1 0 1 831.22 676.15   Q 833.57 677.10 837.25 678.71   C 872.53 694.21 915.52 686.09 944.20 660.83   Q 963.26 644.04 973.25 620.63   Q 982.88 598.06 981.58 572.00   Q 980.64 553.06 972.65 535.12   C 960.16 507.06 938.95 487.23 910.34 477.25   Q 901.86 474.29 897.70 473.40   C 876.72 468.91 855.54 470.90 835.74 479.46   Q 804.01 493.18 786.68 521.65   C 778.57 534.97 772.55 550.43 771.18 565.94   Q 770.54 573.23 770.64 577.25   Q 770.82 584.55 770.73 592.02   Q 756.18 586.75 740.14 586.04   Q 739.56 580.22 740.30 574.50   Q 741.67 563.98 744.33 552.78   Q 751.91 520.93 773.16 496.44   Q 802.07 463.13 845.57 452.78   Q 854.39 450.69 863.77 450.10   C 872.67 449.55 879.38 448.57 886.10 449.42   Q 906.24 451.98 917.11 455.65   Q 922.43 457.45 931.69 461.57   Q 955.95 472.39 974.79 491.48   Q 977.52 494.25 980.75 498.50   Q 990.60 511.43 998.95 526.76   A 3.76 3.49 -69.4 0 1 999.29 527.59   Q 999.89 529.71 1000.85 530.87   A 3.38 3.23 -79.3 0 1 1001.26 531.50   Q 1004.53 538.31 1006.07 545.41   C 1007.52 552.08 1009.96 560.32 1010.84 567.13   Q 1012.11 576.93 1012.10 591.03   C 1012.09 599.15 1009.82 608.77 1008.83 615.69   Q 1007.96 621.77 1005.42 628.29   Q 1000.87 639.92 999.41 642.95   Q 998.38 645.09 994.48 651.74   Q 971.77 690.50 930.14 709.16   Q 916.49 715.28 901.24 717.95   Q 885.96 720.63 871.07 720.10   Q 862.26 719.79 854.96 718.87   Q 846.02 717.75 839.26 715.30   C 838.66 715.09 837.83 715.21 837.24 715.00   Q 824.22 710.44 812.12 704.48   C 806.39 701.66 800.70 697.38 795.10 693.55   Z"/>
<path xmlns="http://www.w3.org/2000/svg" fill="#feffff" d="M 827.35 677.24   C 838.01 663.53 825.67 640.31 817.00 628.46   Q 811.03 620.28 806.33 615.15   Q 796.86 604.78 783.90 598.12   Q 775.25 593.67 770.73 592.02   Q 770.82 584.55 770.64 577.25   Q 770.54 573.23 771.18 565.94   C 772.55 550.43 778.57 534.97 786.68 521.65   Q 804.01 493.18 835.74 479.46   C 855.54 470.90 876.72 468.91 897.70 473.40   Q 901.86 474.29 910.34 477.25   C 938.95 487.23 960.16 507.06 972.65 535.12   Q 980.64 553.06 981.58 572.00   Q 982.88 598.06 973.25 620.63   Q 963.26 644.04 944.20 660.83   C 915.52 686.09 872.53 694.21 837.25 678.71   Q 833.57 677.10 831.22 676.15   A 1.01 1.00 40.1 0 0 830.34 676.22   Q 828.55 677.29 827.35 677.24   Z   M 863.39 640.95   Q 871.61 641.45 878.14 640.37   C 894.28 637.71 909.20 626.82 918.49 613.68   C 931.33 595.51 932.49 565.93 920.45 547.12   C 915.17 538.85 908.86 531.50 900.45 526.40   C 890.66 520.46 882.37 517.53 870.87 516.84   C 859.38 516.15 850.80 518.06 840.37 522.78   C 831.40 526.83 824.25 533.37 818.02 540.95   C 803.81 558.17 801.41 587.68 811.97 607.26   C 819.62 621.42 833.12 634.02 848.83 638.60   Q 855.18 640.46 863.39 640.95   Z"/>
<path xmlns="http://www.w3.org/2000/svg" fill="#feffff" d="M 678.14 596.67   Q 676.89 604.09 674.68 613.04   Q 673.81 616.58 670.38 624.10   Q 668.47 628.30 663.92 633.98   Q 658.46 640.82 652.62 650.36   Q 651.84 651.63 646.14 657.39   Q 642.87 660.70 638.84 663.56   C 627.88 671.36 615.93 678.72 603.13 682.32   C 557.94 695.05 511.29 676.48 485.78 637.43   Q 465.79 606.83 468.91 567.80   Q 470.21 551.64 477.62 535.30   Q 495.11 496.78 531.88 480.28   Q 549.22 472.50 566.89 471.46   Q 585.01 470.41 602.92 475.27   Q 614.64 478.45 623.97 483.82   C 633.73 489.44 642.06 496.57 650.46 504.35   Q 655.20 508.74 657.80 512.25   Q 667.53 525.39 673.01 540.73   Q 674.08 543.73 677.59 555.43   Q 681.34 567.95 680.46 580.08   Q 680.10 585.06 678.14 596.67   Z   M 604.4507 516.9450   A 62.16 61.95 -85.7 0 0 538.0144 574.2851   A 62.16 61.95 -85.7 0 0 595.1293 640.9150   A 62.16 61.95 -85.7 0 0 661.5656 583.5749   A 62.16 61.95 -85.7 0 0 604.4507 516.9450   Z"/>
<path xmlns="http://www.w3.org/2000/svg" fill="#393170" d="M 604.4507 516.9450   A 62.16 61.95 -85.7 0 1 661.5656 583.5749   A 62.16 61.95 -85.7 0 1 595.1293 640.9150   A 62.16 61.95 -85.7 0 1 538.0144 574.2851   A 62.16 61.95 -85.7 0 1 604.4507 516.9450   Z   M 643.00 553.38   A 19.98 19.98 0.0 0 0 623.02 533.40   A 19.98 19.98 0.0 0 0 603.04 553.38   A 19.98 19.98 0.0 0 0 623.02 573.36   A 19.98 19.98 0.0 0 0 643.00 553.38   Z"/>
<path xmlns="http://www.w3.org/2000/svg" fill="#393170" d="M 870.87 516.84   C 882.37 517.53 890.66 520.46 900.45 526.40   C 908.86 531.50 915.17 538.85 920.45 547.12   C 932.49 565.93 931.33 595.51 918.49 613.68   C 909.20 626.82 894.28 637.71 878.14 640.37   Q 871.61 641.45 863.39 640.95   Q 855.18 640.46 848.83 638.60   C 833.12 634.02 819.62 621.42 811.97 607.26   C 801.41 587.68 803.81 558.17 818.02 540.95   C 824.25 533.37 831.40 526.83 840.37 522.78   C 850.80 518.06 859.38 516.15 870.87 516.84   Z   M 871.3307 546.7369   A 20.09 19.73 -160.6 0 0 883.7265 572.0198   A 20.09 19.73 -160.6 0 0 909.2293 560.0831   A 20.09 19.73 -160.6 0 0 896.8335 534.8002   A 20.09 19.73 -160.6 0 0 871.3307 546.7369   Z"/>
<circle xmlns="http://www.w3.org/2000/svg" fill="#feffff" cx="623.02" cy="553.38" r="19.98"/>
<ellipse xmlns="http://www.w3.org/2000/svg" fill="#feffff" cx="0.00" cy="0.00" transform="translate(890.28,553.41) rotate(-160.6)" rx="20.09" ry="19.73"/>
<path xmlns="http://www.w3.org/2000/svg" fill="#393170" d="M 740.14 586.04   Q 756.18 586.75 770.73 592.02   Q 775.25 593.67 783.90 598.12   Q 796.86 604.78 806.33 615.15   Q 811.03 620.28 817.00 628.46   C 825.67 640.31 838.01 663.53 827.35 677.24   Q 821.85 683.11 813.20 683.78   Q 804.01 684.50 794.36 685.98   A 1.22 1.22 0.0 0 0 793.37 687.52   L 795.10 693.55   Q 800.01 720.02 788.90 745.92   C 784.55 756.07 778.43 760.87 767.74 762.47   C 759.78 763.67 753.88 763.16 745.87 760.87   C 739.23 758.97 732.78 756.10 728.48 754.45   Q 723.32 752.47 720.23 750.71   Q 711.80 745.93 708.90 743.32   Q 705.38 740.17 697.11 732.64   Q 687.12 723.54 681.18 712.50   A 0.18 0.18 0.0 0 0 680.86 712.50   Q 680.79 712.64 680.76 712.84   A 0.03 0.02 44.0 0 1 680.71 712.84   L 680.14 710.19   A 0.16 0.15 -11.7 0 0 679.96 710.08   Q 679.75 710.13 679.35 709.39   Q 676.59 704.31 670.78 689.24   Q 668.57 683.50 668.26 679.21   C 667.96 665.62 667.30 651.01 671.64 638.59   Q 677.40 622.12 685.22 611.17   Q 691.41 602.52 700.93 596.97   Q 704.37 594.96 707.82 593.02   Q 719.09 588.58 724.03 587.56   Q 728.09 586.71 740.14 586.04   Z   M 810.00 662.35   Q 807.16 653.49 801.43 643.89   C 795.44 633.86 785.66 625.13 775.91 618.72   Q 766.33 612.41 757.57 610.20   Q 746.33 607.36 734.52 607.67   C 722.41 607.99 710.92 613.87 702.83 623.54   Q 697.68 629.70 696.65 631.68   C 692.57 639.57 690.92 647.12 690.17 656.04   Q 689.61 662.63 688.89 671.66   A 2.70 2.69 17.2 0 0 690.23 674.20   C 702.03 681.01 713.50 680.86 727.32 679.06   Q 746.04 676.63 769.41 670.43   C 773.22 669.42 778.33 668.51 782.93 667.16   Q 795.51 663.46 809.32 663.29   A 0.72 0.72 0.0 0 0 810.00 662.35   Z   M 704.12 708.89   Q 704.12 708.92 704.09 709.08   A 0.18 0.14 38.0 0 0 704.12 709.20   Q 709.51 716.93 713.56 720.45   Q 729.60 734.37 750.23 740.03   Q 757.26 741.96 764.13 741.37   A 2.07 2.05 2.3 0 0 765.98 739.68   Q 766.94 734.22 764.59 728.90   C 758.39 714.82 746.09 708.82 731.77 705.95   C 723.39 704.28 712.96 705.51 704.80 707.82   A 0.95 0.95 0.0 0 0 704.12 708.89   Z"/>
<path xmlns="http://www.w3.org/2000/svg" fill="#f79c84" d="M 810.00 662.35   A 0.72 0.72 0.0 0 1 809.32 663.29   Q 795.51 663.46 782.93 667.16   C 778.33 668.51 773.22 669.42 769.41 670.43   Q 746.04 676.63 727.32 679.06   C 713.50 680.86 702.03 681.01 690.23 674.20   A 2.70 2.69 17.2 0 1 688.89 671.66   Q 689.61 662.63 690.17 656.04   C 690.92 647.12 692.57 639.57 696.65 631.68   Q 697.68 629.70 702.83 623.54   C 710.92 613.87 722.41 607.99 734.52 607.67   Q 746.33 607.36 757.57 610.20   Q 766.33 612.41 775.91 618.72   C 785.66 625.13 795.44 633.86 801.43 643.89   Q 807.16 653.49 810.00 662.35   Z"/>
<path xmlns="http://www.w3.org/2000/svg" fill="#6967e4" d="M 367.91 858.28   Q 367.18 856.78 358.78 834.29   Q 353.33 819.69 351.43 809.86   C 348.23 793.31 346.60 774.82 349.53 758.05   Q 350.68 751.44 352.87 740.43   Q 354.47 732.34 358.96 720.76   Q 365.04 705.06 366.56 701.55   Q 369.28 695.29 371.95 691.90   Q 374.88 688.17 377.28 684.20   A 0.41 0.41 0.0 0 1 378.04 684.41   Q 378.07 691.07 378.67 696.17   C 379.15 700.29 378.96 704.72 379.20 709.49   Q 379.55 716.41 381.48 735.87   Q 383.51 756.41 389.43 785.43   Q 395.17 813.58 405.52 843.00   Q 411.89 861.12 418.30 873.48   C 418.62 874.11 418.60 874.94 419.00 875.76   Q 429.36 897.18 431.92 902.06   Q 437.12 911.95 443.54 920.78   Q 443.60 920.87 443.65 921.19   Q 443.70 921.50 443.75 921.57   Q 445.34 923.76 449.13 929.90   Q 449.37 930.28 450.08 930.61   A 1.65 1.64 -5.0 0 1 450.76 931.18   Q 457.83 941.26 461.14 946.17   Q 461.71 947.01 461.91 947.98   A 0.62 0.62 0.0 0 1 461.17 948.71   Q 459.06 948.28 457.21 947.39   C 447.24 942.58 437.51 936.86 428.82 929.56   Q 424.13 925.62 419.70 922.34   C 414.66 918.60 409.50 913.59 404.87 909.97   Q 403.01 908.53 399.99 905.10   Q 395.47 899.98 389.82 891.72   Q 385.77 885.80 380.83 879.21   Q 376.21 873.06 372.10 866.44   Q 371.90 866.12 371.89 865.85   A 1.46 0.44 -87.5 0 0 371.66 864.94   Q 370.34 863.31 369.76 860.99   Q 369.60 860.35 368.61 858.88   Q 368.45 858.64 368.19 858.54   A 0.56 0.54 -1.1 0 1 367.91 858.28   Z"/>
<path xmlns="http://www.w3.org/2000/svg" fill="#6967e4" d="M 1039.27 913.85   L 1027.51 923.98   Q 1027.46 924.02 1027.41 924.06   C 1024.52 925.93 1022.30 928.29 1019.73 930.08   C 1013.80 934.21 1009.61 937.39 1003.64 940.75   Q 991.44 947.62 991.02 947.86   A 0.75 0.75 0.0 0 1 990.01 946.84   Q 992.88 941.79 997.01 936.60   A 5.37 4.38 84.2 0 0 997.51 935.84   Q 999.68 931.89 1001.22 929.80   C 1004.32 925.59 1005.70 922.83 1008.36 918.87   C 1016.11 907.33 1023.01 893.78 1028.93 880.15   Q 1032.59 871.72 1033.80 869.04   Q 1041.69 851.55 1045.21 839.98   C 1052.62 815.64 1057.59 796.12 1061.96 772.63   Q 1064.55 758.70 1065.94 746.79   C 1068.57 724.37 1070.15 703.98 1070.10 685.06   A 0.48 0.48 0.0 0 1 1070.95 684.76   Q 1074.90 689.64 1078.63 695.77   Q 1080.41 698.68 1084.08 707.92   Q 1085.62 711.80 1089.78 722.26   Q 1092.80 729.83 1094.11 735.86   C 1097.27 750.46 1100.46 765.36 1099.98 780.49   Q 1099.45 797.44 1096.78 809.82   Q 1092.70 828.77 1083.46 852.38   Q 1082.66 854.41 1081.13 857.26   Q 1079.91 859.54 1079.25 861.67   A 4.00 3.89 72.0 0 1 1078.68 862.83   Q 1078.58 862.98 1075.51 867.10   Q 1074.52 868.41 1072.95 871.72   Q 1071.06 875.69 1065.49 883.43   Q 1056.99 895.28 1050.28 902.80   C 1046.89 906.61 1043.07 909.33 1040.18 912.67   Q 1039.89 913.01 1039.81 913.18   A 2.39 2.24 85.7 0 1 1039.27 913.85   Z"/>
<path xmlns="http://www.w3.org/2000/svg" fill="#6967e4" d="M 653.01 695.47   A 0.16 0.16 0.0 0 1 653.03 695.24   L 655.33 693.18   A 7.45 0.48 -41.7 0 1 661.21 688.59   L 661.29 688.68   A 7.45 0.48 -41.7 0 1 656.05 693.99   L 653.74 696.05   A 0.16 0.16 0.0 0 1 653.52 696.03   L 653.01 695.47   Z"/>
<path xmlns="http://www.w3.org/2000/svg" fill="#f79c84" d="M 704.12 708.89   A 0.95 0.95 0.0 0 1 704.80 707.82   C 712.96 705.51 723.39 704.28 731.77 705.95   C 746.09 708.82 758.39 714.82 764.59 728.90   Q 766.94 734.22 765.98 739.68   A 2.07 2.05 2.3 0 1 764.13 741.37   Q 757.26 741.96 750.23 740.03   Q 729.60 734.37 713.56 720.45   Q 709.51 716.93 704.12 709.20   A 0.18 0.14 38.0 0 1 704.09 709.08   Q 704.12 708.92 704.12 708.89   Z"/>
<path xmlns="http://www.w3.org/2000/svg" fill="#f79c84" d="M 927.75 981.64   Q 916.01 993.18 911.25 996.51   C 896.19 1007.02 882.80 1016.34 867.53 1024.27   Q 855.32 1030.62 840.25 1036.70   C 803.66 1051.48 764.04 1058.24 724.50 1057.85   C 711.67 1057.72 695.84 1056.91 681.93 1054.82   Q 628.49 1046.79 580.71 1021.83   Q 572.17 1017.37 555.68 1006.81   Q 540.92 997.35 528.23 985.54   Q 527.11 979.50 528.60 973.52   A 6.45 6.21 55.2 0 0 528.78 972.40   Q 530.49 947.25 538.78 924.79   Q 552.82 886.76 578.65 856.65   Q 592.99 839.94 615.22 823.93   Q 622.48 818.70 632.06 813.61   C 645.24 806.61 656.72 801.17 670.48 797.23   Q 686.84 792.54 706.23 789.92   C 717.77 788.36 731.46 788.37 741.49 789.05   Q 741.74 789.07 753.38 790.46   C 767.79 792.18 780.85 795.77 794.09 800.17   Q 807.69 804.70 818.27 810.77   Q 833.89 819.72 838.63 823.16   Q 844.56 827.46 851.88 832.60   A 2.00 1.96 -0.7 0 1 852.33 833.03   Q 853.89 834.94 855.82 836.05   A 1.89 1.85 79.3 0 1 856.12 836.26   Q 869.98 848.23 882.91 863.77   Q 886.54 868.13 888.50 871.24   C 890.63 874.63 893.09 877.72 895.40 881.62   Q 908.73 904.11 917.31 927.93   Q 920.31 936.26 921.96 944.85   Q 924.47 957.96 926.09 964.72   Q 927.77 971.75 927.18 978.87   A 0.24 0.24 0.0 0 0 927.47 979.12   L 928.22 978.96   A 0.23 0.21 87.0 0 0 928.39 978.75   Q 928.52 974.93 927.62 970.39   Q 929.25 976.15 927.75 981.64   Z"/>
<path xmlns="http://www.w3.org/2000/svg" fill="#6967e4" d="M 820.01 1101.98   C 812.93 1111.78 801.62 1112.44 792.56 1105.20   C 786.13 1100.06 784.17 1090.95 784.78 1082.53   C 785.01 1079.40 785.83 1074.92 789.35 1074.35   Q 797.02 1073.10 810.34 1070.08   C 820.05 1067.87 830.71 1063.37 840.57 1060.30   C 843.95 1059.25 847.09 1057.80 850.89 1056.38   C 855.33 1054.73 861.02 1061.01 864.00 1064.59   Q 867.51 1068.82 869.06 1074.78   C 871.54 1084.25 871.22 1095.63 862.47 1101.62   Q 856.86 1105.45 850.14 1105.12   C 846.06 1104.91 843.71 1103.78 840.10 1101.10   C 835.62 1097.77 830.25 1092.69 824.58 1096.51   Q 823.36 1097.33 820.01 1101.98   Z"/>
<path xmlns="http://www.w3.org/2000/svg" fill="#6967e4" d="M 637.58 1105.07   Q 633.29 1099.60 630.16 1097.07   C 624.62 1092.58 620.14 1096.83 615.32 1100.79   Q 614.67 1101.32 609.97 1103.64   A 7.38 7.30 -60.9 0 1 607.53 1104.35   Q 600.63 1105.08 594.87 1103.08   Q 592.82 1102.37 589.67 1099.83   A 1.76 1.75 3.3 0 1 589.24 1099.35   L 585.42 1093.49   A 4.37 4.17 23.1 0 1 584.84 1092.14   Q 581.98 1080.09 586.86 1070.07   C 589.13 1065.42 593.43 1061.73 597.88 1057.89   Q 600.20 1055.89 602.67 1056.73   Q 608.87 1058.86 614.72 1060.73   Q 615.33 1060.93 626.68 1064.90   Q 643.15 1070.66 655.40 1072.60   Q 659.51 1073.25 665.11 1074.50   A 3.58 3.57 -9.5 0 1 667.37 1076.11   C 669.95 1080.31 669.20 1086.31 669.05 1092.96   C 668.89 1099.79 662.10 1105.75 656.05 1108.56   C 650.70 1111.05 641.41 1109.11 637.70 1105.22   A 1.60 0.53 63.9 0 1 637.58 1105.07   Z"/>
</g></g></g></g></svg>